<?xml version="1.0" encoding="UTF-8"?>
<svg width="423px" height="590px" viewBox="0 0 423 590" version="1.1" xmlns="http://www.w3.org/2000/svg" xmlns:xlink="http://www.w3.org/1999/xlink">
    <!-- Generator: Sketch 61.2 (89653) - https://sketch.com -->
    <title>10C</title>
    <desc>Created with Sketch.</desc>
    <g id="Page-1" stroke="none" stroke-width="1" fill="none" fill-rule="evenodd">
        <g id="10C">
            <path d="M402,589.4 L20.8,589.4 C9.7,589.4 0.7,580.5 0.7,569.3 L0.7,21 C0.7,9.9 9.6,0.9 20.8,0.9 L402,0.9 C413.1,0.9 422.1,9.8 422.1,21 L422.1,569.3 C422.1,580.5 413.1,589.4 402,589.4 L402,589.4 Z" id="Path" fill="#FFFFFF" fill-rule="nonzero"></path>
            <path d="M402,589.4 L20.8,589.4 C9.7,589.4 0.7,580.5 0.7,569.3 L0.7,21 C0.7,9.9 9.6,0.9 20.8,0.9 L402,0.9 C413.1,0.9 422.1,9.8 422.1,21 L422.1,569.3 C422.1,580.5 413.1,589.4 402,589.4 L402,589.4 Z" id="Path" stroke="#000000" stroke-width="0.7974"></path>
            <polygon id="Path" fill="#000000" fill-rule="nonzero" points="407.7 503.8 407.7 563.3 401.8 563.3 401.8 503.8"></polygon>
            <path d="M384.4,563.3 C390,563.3 394.6,558.2 394.6,551.9 L394.6,515.2 C394.6,508.9 390.1,503.8 384.4,503.8 L381.1,503.8 C375.5,503.8 370.9,508.9 370.9,515.2 L370.9,551.9 C370.9,558.2 375.5,563.3 381.1,563.3 L384.4,563.3 Z M382.7,557.7 C379.4,557.7 376.7,555.2 376.7,552 L376.7,514.8 C376.7,511.7 379.4,509.1 382.7,509.1 C386,509.1 388.7,511.6 388.7,514.8 L388.7,552 C388.7,555.2 386,557.7 382.7,557.7 L382.7,557.7 Z" id="Shape" fill="#000000" fill-rule="nonzero"></path>
            <polygon id="Path" fill="#000000" fill-rule="nonzero" points="15.2 86.5 15.2 27.1 21 27.1 21 86.6 15.2 86.6"></polygon>
            <path d="M38.4,27.1 C32.8,27.1 28.2,32.2 28.2,38.5 L28.2,75.2 C28.2,81.5 32.7,86.6 38.4,86.6 L41.7,86.6 C47.4,86.6 51.9,81.5 51.9,75.2 L51.9,38.4 C51.9,32.1 47.3,27 41.7,27 L38.4,27 L38.4,27.1 Z M40.1,32.7 C43.4,32.7 46.1,35.2 46.1,38.4 L46.1,75.6 C46.1,78.7 43.4,81.3 40.1,81.3 C36.8,81.3 34.1,78.8 34.1,75.6 L34.1,38.4 C34.1,35.2 36.8,32.7 40.1,32.7 L40.1,32.7 Z" id="Shape" fill="#000000" fill-rule="nonzero"></path>
            <path d="M293.8,285.9 C299.2,275 303.2,263.8 303.9,251.9 C304.5,247.5 301.9,247.4 301.5,250.5 C293.8,279.9 252.9,272 254.3,244.3 C255.4,221.9 277.7,217 289.4,224.4 C294,227.1 293.7,225.5 291.2,222.7 C273.9,203.4 284.4,178.6 307.7,178.2 C332.9,179.7 339.5,206.3 324,221.9 C322.1,223.8 317.8,229.8 324.2,225.6 C339.8,214.5 361.5,226.4 361.1,243.6 C360.3,275.2 321.8,277.5 313.5,251.2 C312.7,248.3 310.4,246.8 311.1,251.8 C312.2,260.8 314.6,274.4 321.4,286.2 L293.8,286.2 L293.8,285.9 Z" id="Path" fill="#000000" fill-rule="nonzero"></path>
            <path d="M98.4,285.9 C103.8,275 107.8,263.8 108.5,251.9 C109.1,247.5 106.5,247.4 106.1,250.5 C98.4,279.9 57.5,272 58.9,244.3 C60,221.9 82.3,217 94,224.4 C98.6,227.1 98.3,225.5 95.8,222.7 C78.5,203.4 89,178.6 112.3,178.2 C137.6,179.7 144.1,206.3 128.6,221.9 C126.7,223.8 122.4,229.8 128.8,225.6 C144.4,214.5 166.1,226.4 165.7,243.6 C164.9,275.2 126.4,277.5 118.1,251.2 C117.3,248.3 115,246.8 115.6,251.8 C116.7,260.8 119.1,274.4 125.9,286.2 L98.4,286.2 L98.4,285.9 Z" id="Path" fill="#000000" fill-rule="nonzero"></path>
            <path d="M196,224.2 C201.4,213.3 205.4,202.1 206.1,190.2 C206.7,185.8 204.1,185.7 203.7,188.8 C196,218.2 155.1,210.3 156.5,182.6 C157.6,160.2 179.9,155.3 191.6,162.7 C196.2,165.4 195.9,163.8 193.4,161 C176.1,141.7 186.6,116.9 209.9,116.5 C235.2,118 241.7,144.6 226.2,160.2 C224.3,162.1 220,168.1 226.4,163.9 C242,152.8 263.7,164.7 263.3,181.9 C262.5,213.5 224,215.8 215.7,189.5 C214.9,186.6 212.6,185.1 213.3,190.1 C214.4,199.1 216.8,212.7 223.6,224.5 L196,224.5 L196,224.2 Z" id="Path" fill="#000000" fill-rule="nonzero"></path>
            <path d="M293.8,162.6 C299.2,151.7 303.2,140.5 303.9,128.6 C304.5,124.2 301.9,124.1 301.5,127.2 C293.8,156.6 252.9,148.7 254.3,121 C255.4,98.6 277.7,93.7 289.4,101.1 C294,103.8 293.7,102.2 291.2,99.4 C273.9,80.1 284.4,55.3 307.7,54.9 C332.9,56.4 339.5,83 324,98.6 C322.1,100.5 317.8,106.5 324.2,102.3 C339.8,91.2 361.5,103.1 361.1,120.3 C360.3,151.9 321.8,154.2 313.5,127.9 C312.7,125 310.4,123.5 311.1,128.5 C312.2,137.5 314.6,151.1 321.4,162.9 L293.8,162.9 L293.8,162.6 Z" id="Path" fill="#000000" fill-rule="nonzero"></path>
            <path d="M98.4,162.6 C103.8,151.7 107.8,140.5 108.5,128.6 C109.1,124.2 106.5,124.1 106.1,127.2 C98.4,156.6 57.5,148.7 58.9,121 C60,98.6 82.3,93.7 94,101.1 C98.6,103.8 98.3,102.2 95.8,99.4 C78.5,80.1 89,55.3 112.3,54.9 C137.6,56.4 144.1,83 128.6,98.6 C126.7,100.5 122.4,106.5 128.8,102.3 C144.4,91.2 166.1,103.1 165.7,120.3 C164.9,151.9 126.4,154.2 118.1,127.9 C117.3,125 115,123.5 115.6,128.5 C116.7,137.5 119.1,151.1 125.9,162.9 L98.4,162.9 L98.4,162.6 Z" id="Path" fill="#000000" fill-rule="nonzero"></path>
            <path d="M126.1,304.5 C120.7,315.4 116.7,326.6 116,338.5 C115.4,342.9 118,343 118.4,339.9 C126.1,310.5 167,318.4 165.6,346.1 C164.5,368.6 142.2,373.4 130.5,366 C125.9,363.3 126.2,364.9 128.7,367.7 C146,387 135.5,411.8 112.2,412.2 C87,410.7 80.4,384.1 95.9,368.5 C97.8,366.6 102.1,360.6 95.7,364.8 C80.1,375.9 58.4,364 58.8,346.8 C59.6,315.2 98.1,312.9 106.4,339.2 C107.2,342.1 109.5,343.6 108.8,338.6 C107.7,329.6 105.3,316 98.5,304.2 L126.1,304.2 L126.1,304.5 Z" id="Path" fill="#000000" fill-rule="nonzero"></path>
            <path d="M126.1,427.8 C120.7,438.7 116.7,449.9 116,461.8 C115.4,466.2 118,466.3 118.4,463.2 C126.1,433.8 167,441.7 165.6,469.4 C164.5,491.8 142.2,496.7 130.5,489.3 C125.9,486.6 126.2,488.2 128.7,491 C146,510.3 135.5,535.1 112.2,535.5 C87,534 80.4,507.4 95.9,491.8 C97.8,489.9 102.1,483.9 95.7,488.1 C80.1,499.2 58.4,487.3 58.8,470.1 C59.6,438.5 98.1,436.2 106.4,462.5 C107.2,465.4 109.5,466.9 108.8,461.9 C107.7,452.9 105.3,439.3 98.5,427.5 L126.1,427.5 L126.1,427.8 Z" id="Path" fill="#000000" fill-rule="nonzero"></path>
            <path d="M321.5,304.5 C316.1,315.4 312.1,326.6 311.4,338.5 C310.8,342.9 313.4,343 313.8,339.9 C321.5,310.5 362.4,318.4 361,346.1 C359.9,368.6 337.6,373.4 325.9,366 C321.3,363.3 321.6,364.9 324.1,367.7 C341.4,387 330.9,411.8 307.6,412.2 C282.4,410.7 275.8,384.1 291.3,368.5 C293.2,366.6 297.5,360.6 291.1,364.8 C275.5,375.9 253.8,364 254.2,346.8 C255,315.2 293.5,312.9 301.8,339.2 C302.6,342.1 304.9,343.6 304.2,338.6 C303.1,329.6 300.7,316 293.9,304.2 L321.5,304.2 L321.5,304.5 Z" id="Path" fill="#000000" fill-rule="nonzero"></path>
            <path d="M321.5,427.8 C316.1,438.7 312.1,449.9 311.4,461.8 C310.8,466.2 313.4,466.3 313.8,463.2 C321.5,433.8 362.4,441.7 361,469.4 C359.9,491.8 337.6,496.7 325.9,489.3 C321.3,486.6 321.6,488.2 324.1,491 C341.4,510.3 330.9,535.1 307.6,535.5 C282.4,534 275.8,507.4 291.3,491.8 C293.2,489.9 297.5,483.9 291.1,488.1 C275.5,499.2 253.8,487.3 254.2,470.1 C255,438.5 293.5,436.2 301.8,462.5 C302.6,465.4 304.9,466.9 304.2,461.9 C303.1,452.9 300.7,439.3 293.9,427.5 L321.5,427.5 L321.5,427.8 Z" id="Path" fill="#000000" fill-rule="nonzero"></path>
            <path d="M224.6,366.1 C219.2,377 215.2,388.2 214.5,400.1 C213.9,404.5 216.5,404.6 216.9,401.5 C224.6,372.1 265.5,380 264.1,407.7 C263,430.2 240.7,435 229,427.6 C224.4,424.9 224.7,426.5 227.2,429.3 C244.5,448.6 234,473.4 210.7,473.8 C185.4,472.3 178.9,445.7 194.4,430.1 C196.3,428.2 200.6,422.2 194.2,426.4 C178.6,437.5 156.9,425.6 157.3,408.4 C158.1,376.8 196.6,374.5 204.9,400.8 C205.7,403.7 208,405.2 207.3,400.2 C206.2,391.2 203.8,377.6 197,365.8 L224.6,365.8 L224.6,366.1 Z" id="Path" fill="#000000" fill-rule="nonzero"></path>
            <path d="M25.6,142.9 C27.8,138.3 30,134 31.2,128.9 C32,124.1 30.4,125.9 29.5,129 C28.1,133.3 24.4,135.3 20.9,135.4 C14.5,135.5 11.4,130.5 11.6,125.1 C10.9,119.4 16.6,115.4 21,115.7 C24.3,115.9 27.1,117.7 28.8,119 C29.9,119.6 31.1,119.9 29.5,118.3 C26.3,114.8 23.7,112.7 23.7,107.5 C23.8,102.6 27.9,97.6 33.4,97.7 C40.3,97.9 43.4,103.2 43.4,108 C43.4,111.6 41.6,114.8 38.8,116.9 C37,118.3 37.5,119.4 39.6,118.1 C41.6,116.4 43.9,115.7 46.3,115.6 C52.9,115.5 55.5,121.2 55.1,126.5 C54.7,131.5 50.5,136.6 45,136 C40,135.4 37.4,131.3 35.9,127 C35.4,125.7 34.6,125.3 34.6,127.3 C35.8,136.8 39.3,142.8 39.3,142.8 L25.6,142.8 L25.6,142.9 Z" id="Path" fill="#000000" fill-rule="nonzero"></path>
            <path d="M397.2,448.7 C395,453.3 392.8,457.6 391.6,462.7 C390.8,467.5 392.4,465.7 393.4,462.6 C394.8,458.3 398.5,456.3 402,456.2 C408.4,456.1 411.5,461.1 411.3,466.5 C412,472.2 406.3,476.2 401.9,475.9 C398.6,475.7 395.8,473.9 394.1,472.5 C393,471.9 391.8,471.6 393.5,473.2 C396.7,476.7 399.3,478.8 399.3,484 C399.2,488.9 395.1,493.9 389.6,493.8 C382.7,493.6 379.6,488.3 379.6,483.5 C379.6,479.9 381.4,476.7 384.1,474.6 C385.9,473.2 385.4,472.1 383.4,473.4 C381.4,475.1 379.1,475.8 376.7,475.9 C370.1,476 367.5,470.3 367.9,465 C368.2,460 372.5,454.9 378,455.5 C383,456.1 385.6,460.2 387.1,464.5 C387.6,465.8 388.4,466.2 388.4,464.2 C387.3,454.7 383.7,448.7 383.7,448.7 L397.2,448.7 L397.2,448.7 Z" id="Path" fill="#000000" fill-rule="nonzero"></path>
        </g>
    </g>
</svg>