<?xml version="1.0" encoding="UTF-8"?>
<svg width="418px" height="583px" viewBox="0 0 418 583" version="1.1" xmlns="http://www.w3.org/2000/svg" xmlns:xlink="http://www.w3.org/1999/xlink">
    <!-- Generator: Sketch 61.2 (89653) - https://sketch.com -->
    <title>10D</title>
    <desc>Created with Sketch.</desc>
    <g id="Page-1" stroke="none" stroke-width="1" fill="none" fill-rule="evenodd">
        <g id="10D" transform="translate(1.000000, 0.000000)">
            <path d="M19.9,0.8 L396.1,0.8 C407.1,0.8 415.9,9.6 415.9,20.6 L415.9,561.9 C415.9,572.9 407.1,581.7 396.1,581.7 L19.9,581.7 C8.9,581.7 0.1,572.9 0.1,561.9 L0.1,20.6 C0.1,9.6 8.9,0.8 19.9,0.8 L19.9,0.8 Z" id="Path" fill="#FFFFFF" fill-rule="nonzero"></path>
            <path d="M19.9,0.8 L396.1,0.8 C407.1,0.8 415.9,9.6 415.9,20.6 L415.9,561.9 C415.9,572.9 407.1,581.7 396.1,581.7 L19.9,581.7 C8.9,581.7 0.1,572.9 0.1,561.9 L0.1,20.6 C0.1,9.6 8.9,0.8 19.9,0.8 L19.9,0.8 Z" id="Path" stroke="#000000" stroke-width="0.7974"></path>
            <path d="M61.3,107.5 C79.8,89.5 91.9,69.8 103.5,50.9 C113.7,71.7 128.3,89.9 144.1,107.5 C127.2,124.9 114.1,143.6 103.6,163.2 C91.9,143.1 79.6,124.9 61.3,107.5 L61.3,107.5 Z" id="Path" fill="#D40000" fill-rule="nonzero"></path>
            <path d="M61.3,229.2 C79.8,211.2 91.9,191.5 103.5,172.6 C113.7,193.4 128.3,211.6 144.1,229.2 C127.2,246.7 114.1,265.3 103.6,284.9 C91.9,264.8 79.6,246.6 61.3,229.2 L61.3,229.2 Z" id="Path" fill="#D40000" fill-rule="nonzero"></path>
            <path d="M61.3,353.8 C79.8,335.8 91.9,316.1 103.5,297.2 C113.7,318 128.3,336.2 144.1,353.8 C127.2,371.2 114.1,389.9 103.6,409.5 C91.9,389.5 79.6,371.2 61.3,353.8 L61.3,353.8 Z" id="Path" fill="#D40000" fill-rule="nonzero"></path>
            <path d="M61.3,475.1 C79.8,457.1 91.9,437.4 103.5,418.5 C113.7,439.3 128.3,457.5 144.1,475.1 C127.2,492.6 114.1,511.2 103.6,530.8 C91.9,510.7 79.6,492.5 61.3,475.1 L61.3,475.1 Z" id="Path" fill="#D40000" fill-rule="nonzero"></path>
            <path d="M165.9,171.5 C184.4,153.5 196.5,133.8 208.1,114.9 C218.3,135.7 232.9,153.9 248.7,171.5 C231.8,189 218.7,207.6 208.2,227.2 C196.5,207.1 184.2,188.9 165.9,171.5 L165.9,171.5 Z" id="Path" fill="#D40000" fill-rule="nonzero"></path>
            <path d="M165.1,410.6 C183.6,392.6 195.7,372.9 207.3,354 C217.5,374.8 232.1,393 247.9,410.6 C231,428 217.9,446.7 207.4,466.3 C195.7,446.2 183.4,428 165.1,410.6 L165.1,410.6 Z" id="Path" fill="#D40000" fill-rule="nonzero"></path>
            <path d="M269,107.5 C287.5,89.5 299.6,69.8 311.2,50.9 C321.4,71.7 336,89.9 351.8,107.5 C334.9,124.9 321.8,143.6 311.3,163.2 C299.6,143.1 287.4,124.9 269,107.5 L269,107.5 Z" id="Path" fill="#D40000" fill-rule="nonzero"></path>
            <path d="M269,229.2 C287.5,211.2 299.6,191.5 311.2,172.6 C321.4,193.4 336,211.6 351.8,229.2 C334.9,246.7 321.8,265.3 311.3,284.9 C299.6,264.8 287.4,246.6 269,229.2 L269,229.2 Z" id="Path" fill="#D40000" fill-rule="nonzero"></path>
            <path d="M269,353.8 C287.5,335.8 299.6,316.1 311.2,297.2 C321.4,318 336,336.2 351.8,353.8 C334.9,371.2 321.8,389.9 311.3,409.5 C299.6,389.5 287.4,371.2 269,353.8 L269,353.8 Z" id="Path" fill="#D40000" fill-rule="nonzero"></path>
            <path d="M269,475.1 C287.5,457.1 299.6,437.4 311.2,418.5 C321.4,439.3 336,457.5 351.8,475.1 C334.9,492.6 321.8,511.2 311.3,530.8 C299.6,510.7 287.4,492.5 269,475.1 L269,475.1 Z" id="Path" fill="#D40000" fill-rule="nonzero"></path>
            <path d="M366.9,463.9 C374.5,456.5 379.4,448.5 384.2,440.7 C388.4,449.2 394.4,456.7 400.8,463.9 C393.9,471.1 388.5,478.7 384.2,486.7 C379.4,478.5 374.4,471 366.9,463.9 L366.9,463.9 Z" id="Path" fill="#D40000" fill-rule="nonzero"></path>
            <path d="M15.2,117.6 C22.8,110.2 27.7,102.2 32.5,94.4 C36.7,102.9 42.7,110.4 49.1,117.6 C42.2,124.8 36.8,132.4 32.5,140.4 C27.7,132.2 22.7,124.8 15.2,117.6 L15.2,117.6 Z" id="Path" fill="#D40000" fill-rule="nonzero"></path>
            <polygon id="Path" fill="#D40000" fill-rule="nonzero" points="14.3 85.2 14.3 26.5 20.1 26.5 20.1 85.2"></polygon>
            <path d="M37.3,26.5 C31.7,26.5 27.2,31.5 27.2,37.7 L27.2,74 C27.2,80.2 31.7,85.2 37.3,85.2 L40.5,85.2 C46.1,85.2 50.6,80.2 50.6,74 L50.6,37.8 C50.6,31.6 46.1,26.6 40.5,26.6 L37.3,26.6 L37.3,26.5 Z M38.9,32.1 C42.2,32.1 44.8,34.6 44.8,37.7 L44.8,74.4 C44.8,77.5 42.2,80 38.9,80 C35.6,80 32.9,77.5 32.9,74.4 L32.9,37.7 C33,34.6 35.6,32.1 38.9,32.1 L38.9,32.1 Z" id="Shape" fill="#D40000" fill-rule="nonzero"></path>
            <polygon id="Path" fill="#D40000" fill-rule="nonzero" points="401.7 497.2 401.7 555.9 395.9 555.9 395.9 497.2"></polygon>
            <path d="M378.7,555.8 C384.3,555.8 388.8,550.8 388.8,544.6 L388.8,508.3 C388.8,502.1 384.3,497.1 378.7,497.1 L375.5,497.1 C369.9,497.1 365.4,502.1 365.4,508.3 L365.4,544.6 C365.4,550.8 369.9,555.8 375.5,555.8 L378.7,555.8 Z M377.1,550.3 C373.8,550.3 371.2,547.8 371.2,544.7 L371.2,508 C371.2,504.9 373.9,502.4 377.1,502.4 C380.4,502.4 383,504.9 383,508 L383,544.7 C383,547.8 380.4,550.3 377.1,550.3 L377.1,550.3 Z" id="Shape" fill="#D40000" fill-rule="nonzero"></path>
        </g>
    </g>
</svg>