<?xml version="1.0" encoding="UTF-8"?>
<svg width="409px" height="570px" viewBox="0 0 409 570" version="1.1" xmlns="http://www.w3.org/2000/svg" xmlns:xlink="http://www.w3.org/1999/xlink">
    <!-- Generator: Sketch 61.2 (89653) - https://sketch.com -->
    <title>10H</title>
    <desc>Created with Sketch.</desc>
    <g id="Page-1" stroke="none" stroke-width="1" fill="none" fill-rule="evenodd">
        <g id="10H" transform="translate(1.000000, 0.000000)">
            <path d="M19.7,0.9 L387.6,0.9 C398.3,0.9 407,9.5 407,20.3 L407,549.5 C407,560.2 398.4,568.9 387.6,568.9 L19.7,568.9 C9,568.9 0.3,560.3 0.3,549.5 L0.3,20.3 C0.3,9.5 9,0.9 19.7,0.9 L19.7,0.9 Z" id="Path" fill="#FFFFFF" fill-rule="nonzero"></path>
            <path d="M19.7,0.9 L387.6,0.9 C398.3,0.9 407,9.5 407,20.3 L407,549.5 C407,560.2 398.4,568.9 387.6,568.9 L19.7,568.9 C9,568.9 0.3,560.3 0.3,549.5 L0.3,20.3 C0.3,9.5 9,0.9 19.7,0.9 L19.7,0.9 Z" id="Path" stroke="#000000" stroke-width="0.7974"></path>
            <polygon id="Path" fill="#D40000" fill-rule="nonzero" points="14.2 83.5 14.2 26.1 19.9 26.1 19.9 83.5"></polygon>
            <path d="M36.7,26.1 C31.2,26.1 26.9,31 26.9,37.1 L26.9,72.5 C26.9,78.6 31.3,83.5 36.7,83.5 L39.9,83.5 C45.4,83.5 49.8,78.6 49.8,72.5 L49.8,37.1 C49.8,31 45.4,26.1 39.9,26.1 L36.7,26.1 Z M38.3,31.5 C41.5,31.5 44.1,33.9 44.1,37 L44.1,72.9 C44.1,75.9 41.5,78.4 38.3,78.4 C35.1,78.4 32.5,76 32.5,72.9 L32.5,37 C32.5,34 35.1,31.5 38.3,31.5 L38.3,31.5 Z" id="Shape" fill="#D40000" fill-rule="nonzero"></path>
            <polygon id="Path" fill="#D40000" fill-rule="nonzero" points="393 486.2 393 543.6 387.3 543.6 387.3 486.2"></polygon>
            <path d="M370.6,543.6 C376.1,543.6 380.4,538.7 380.4,532.6 L380.4,497.2 C380.4,491.1 376,486.2 370.6,486.2 L367.4,486.2 C361.9,486.2 357.6,491.1 357.6,497.2 L357.6,532.6 C357.6,538.7 362,543.6 367.4,543.6 L370.6,543.6 Z M368.9,538.2 C365.7,538.2 363.1,535.8 363.1,532.7 L363.1,496.8 C363.1,493.8 365.7,491.3 368.9,491.3 C372.1,491.3 374.7,493.7 374.7,496.8 L374.7,532.7 C374.8,535.8 372.2,538.2 368.9,538.2 L368.9,538.2 Z" id="Shape" fill="#D40000" fill-rule="nonzero"></path>
            <path d="M15.9,110.4 C13,104.1 12.7,93.3 21.3,91.8 C27.8,91 30.4,94 30.9,98.6 C31.2,100 31.9,100 32.2,98.5 C32.6,93.7 37.3,91 41,91.7 C51.1,93.4 50.5,104.5 47.2,112 C42.2,122 37,128.3 32.2,138.3 C26.6,127.9 20.3,119.4 15.9,110.4 L15.9,110.4 Z" id="Path" fill="#D40000" fill-rule="nonzero"></path>
            <path d="M78.7,52.5 C91.7,51.6 98.5,62.8 99.8,71.5 C100.6,72.9 101,72.5 101.3,71.4 C101.9,60.1 112,51 121.3,52.2 C136.5,52.4 145.7,69.3 143.1,83.6 C139.9,101 130.5,111.6 123.4,122.4 C115.3,133.6 104.5,149.8 101,157.6 C101,157.6 90,140.8 75.7,121.1 C66.1,107.9 58.4,93.6 57.7,81.3 C57,67.3 62.7,54.7 78.7,52.5 L78.7,52.5 Z" id="Path" fill="#D40000" fill-rule="nonzero"></path>
            <path d="M181,112 C194,111.1 200.8,122.2 202.1,131 C202.9,132.4 203.3,132 203.6,130.9 C204.2,119.7 214.3,110.5 223.6,111.7 C238.8,111.9 248,128.8 245.4,143.1 C242.2,160.6 232.8,171.1 225.7,181.9 C217.6,193.1 206.8,209.3 203.3,217.1 C203.3,217.1 192.3,200.3 177.9,180.6 C168.3,167.4 160.6,153.1 159.9,140.8 C159.3,126.8 165.1,114.2 181,112 L181,112 Z" id="Path" fill="#D40000" fill-rule="nonzero"></path>
            <path d="M281.9,52.5 C294.9,51.6 301.7,62.8 303,71.5 C303.8,72.9 304.2,72.5 304.5,71.4 C305.1,60.1 315.2,51 324.5,52.2 C339.7,52.4 348.9,69.3 346.3,83.6 C343.1,101 333.7,111.6 326.6,122.4 C318.6,133.6 307.7,149.8 304.2,157.6 C304.2,157.6 293.2,140.8 278.9,121.1 C269.3,107.9 261.6,93.6 260.9,81.3 C260.1,67.3 265.9,54.7 281.9,52.5 L281.9,52.5 Z" id="Path" fill="#D40000" fill-rule="nonzero"></path>
            <path d="M281.9,171.5 C294.9,170.6 301.7,181.7 303,190.5 C303.8,191.9 304.2,191.5 304.5,190.4 C305.1,179.2 315.2,170 324.5,171.2 C339.7,171.4 348.9,188.3 346.3,202.6 C343.1,220.1 333.7,230.6 326.6,241.4 C318.6,252.6 307.7,268.8 304.2,276.6 C304.2,276.6 293.2,259.8 278.9,240.1 C269.3,226.9 261.6,212.6 260.9,200.3 C260.1,186.3 265.9,173.7 281.9,171.5 L281.9,171.5 Z" id="Path" fill="#D40000" fill-rule="nonzero"></path>
            <path d="M78.7,171.5 C91.7,170.6 98.5,181.7 99.8,190.5 C100.6,191.9 101,191.5 101.3,190.4 C101.9,179.2 112,170 121.3,171.2 C136.5,171.4 145.7,188.3 143.1,202.6 C139.9,220.1 130.5,230.6 123.4,241.4 C115.3,252.6 104.5,268.8 101,276.6 C101,276.6 90,259.8 75.7,240.1 C66.1,226.9 58.4,212.6 57.7,200.3 C57,186.3 62.7,173.7 78.7,171.5 L78.7,171.5 Z" id="Path" fill="#D40000" fill-rule="nonzero"></path>
            <path d="M281.9,398 C294.9,398.9 301.7,387.8 303,379 C303.8,377.6 304.2,378 304.5,379.1 C305.1,390.4 315.2,399.5 324.5,398.3 C339.7,398.1 348.9,381.2 346.3,366.9 C343.1,349.4 333.7,338.9 326.6,328.1 C318.6,316.9 307.7,300.7 304.2,292.9 C304.2,292.9 293.2,309.7 278.9,329.4 C269.3,342.6 261.6,356.9 260.9,369.2 C260.1,383.3 265.9,395.9 281.9,398 L281.9,398 Z" id="Path" fill="#D40000" fill-rule="nonzero"></path>
            <path d="M281.9,516.6 C294.9,517.5 301.7,506.4 303,497.6 C303.8,496.2 304.2,496.6 304.5,497.7 C305.1,508.9 315.2,518.1 324.5,516.9 C339.7,516.7 348.9,499.8 346.3,485.5 C343.1,468.1 333.7,457.5 326.6,446.7 C318.6,435.5 307.7,419.3 304.2,411.5 C304.2,411.5 293.2,428.3 278.9,448 C269.3,461.2 261.6,475.5 260.9,487.8 C260.1,501.8 265.9,514.5 281.9,516.6 L281.9,516.6 Z" id="Path" fill="#D40000" fill-rule="nonzero"></path>
            <path d="M180.2,457.3 C193.2,458.2 200,447.1 201.3,438.3 C202.1,436.9 202.5,437.3 202.8,438.4 C203.4,449.6 213.5,458.8 222.8,457.6 C238,457.4 247.2,440.5 244.6,426.2 C241.4,408.8 232,398.2 224.9,387.4 C216.8,376.2 206,360 202.5,352.2 C202.5,352.2 191.5,369 177.2,388.7 C167.6,401.9 159.9,416.2 159.2,428.5 C158.4,442.6 164.2,455.2 180.2,457.3 L180.2,457.3 Z" id="Path" fill="#D40000" fill-rule="nonzero"></path>
            <path d="M78.7,398 C91.7,398.9 98.5,387.8 99.8,379 C100.6,377.6 101,378 101.3,379.1 C101.9,390.4 112,399.5 121.3,398.3 C136.5,398.1 145.7,381.2 143.1,366.9 C139.9,349.4 130.5,338.9 123.4,328.1 C115.3,316.9 104.5,300.7 101,292.9 C101,292.9 90,309.7 75.7,329.4 C66.1,342.6 58.4,356.9 57.7,369.2 C57,383.3 62.7,395.9 78.7,398 L78.7,398 Z" id="Path" fill="#D40000" fill-rule="nonzero"></path>
            <path d="M78.7,516.6 C91.7,517.5 98.5,506.4 99.8,497.6 C100.6,496.2 101,496.6 101.3,497.7 C101.9,508.9 112,518.1 121.3,516.9 C136.5,516.7 145.7,499.8 143.1,485.5 C139.9,468.1 130.5,457.5 123.4,446.7 C115.3,435.5 104.5,419.3 101,411.5 C101,411.5 90,428.3 75.7,448 C66.1,461.2 58.4,475.5 57.7,487.8 C57,501.8 62.7,514.5 78.7,516.6 L78.7,516.6 Z" id="Path" fill="#D40000" fill-rule="nonzero"></path>
            <path d="M359.8,458.1 C356.9,464.4 356.6,475.2 365.2,476.7 C371.7,477.5 374.3,474.5 374.9,469.9 C375.2,468.5 375.9,468.5 376.2,470 C376.6,474.7 381.3,477.5 385,476.8 C395.1,475.1 394.5,464 391.2,456.5 C386.2,446.5 381,440.2 376.2,430.2 C370.5,440.6 364.2,449.1 359.8,458.1 L359.8,458.1 Z" id="Path" fill="#D40000" fill-rule="nonzero"></path>
        </g>
    </g>
</svg>