<?xml version="1.0" encoding="UTF-8"?>
<svg width="422px" height="589px" viewBox="0 0 422 589" version="1.1" xmlns="http://www.w3.org/2000/svg" xmlns:xlink="http://www.w3.org/1999/xlink">
    <!-- Generator: Sketch 61.2 (89653) - https://sketch.com -->
    <title>10S</title>
    <desc>Created with Sketch.</desc>
    <g id="Page-1" stroke="none" stroke-width="1" fill="none" fill-rule="evenodd">
        <g id="10S" transform="translate(0.000000, 1.000000)">
            <path d="M401.3,587.4 L20.8,587.4 C9.7,587.4 0.8,578.5 0.8,567.4 L0.8,20 C0.8,8.9 9.7,0 20.8,0 L401.3,0 C412.4,0 421.3,8.9 421.3,20 L421.3,567.4 C421.3,578.5 412.4,587.4 401.3,587.4 L401.3,587.4 Z" id="Path" fill="#FFFFFF" fill-rule="nonzero"></path>
            <path d="M401.3,587.4 L20.8,587.4 C9.7,587.4 0.8,578.5 0.8,567.4 L0.8,20 C0.8,8.9 9.7,0 20.8,0 L401.3,0 C412.4,0 421.3,8.9 421.3,20 L421.3,567.4 C421.3,578.5 412.4,587.4 401.3,587.4 L401.3,587.4 Z" id="Path" stroke="#000000" stroke-width="0.7974"></path>
            <polygon id="Path" fill="#000000" fill-rule="nonzero" points="407 502 407 561.3 401.1 561.3 401.1 502"></polygon>
            <path d="M383.8,561.3 C389.4,561.3 394,556.2 394,550 L394,513.3 C394,507 389.5,502 383.8,502 L380.5,502 C374.9,502 370.3,507.1 370.3,513.3 L370.3,550 C370.3,556.3 374.8,561.3 380.5,561.3 L383.8,561.3 Z M382.1,555.7 C378.8,555.7 376.1,553.2 376.1,550.1 L376.1,512.9 C376.1,509.8 378.8,507.2 382.1,507.2 C385.4,507.2 388.1,509.7 388.1,512.9 L388.1,550.1 C388.1,553.2 385.4,555.7 382.1,555.7 L382.1,555.7 Z" id="Shape" fill="#000000" fill-rule="nonzero"></path>
            <polygon id="Path" fill="#000000" fill-rule="nonzero" points="15.2 85.4 15.2 26 21 26 21 85.4"></polygon>
            <path d="M38.4,26 C32.8,26 28.2,31.1 28.2,37.4 L28.2,74 C28.2,80.3 32.7,85.3 38.4,85.3 L41.7,85.3 C47.3,85.3 51.9,80.2 51.9,74 L51.9,37.4 C51.9,31.1 47.4,26 41.7,26 L38.4,26 Z M40.1,31.6 C43.4,31.6 46.1,34.1 46.1,37.3 L46.1,74.5 C46.1,77.6 43.4,80.2 40.1,80.2 C36.8,80.2 34.1,77.7 34.1,74.5 L34.1,37.3 C34.1,34.2 36.8,31.6 40.1,31.6 L40.1,31.6 Z" id="Shape" fill="#000000" fill-rule="nonzero"></path>
            <path d="M100.5,129 C100.5,125.2 97.5,125.1 97.5,127.9 C97.2,141.9 85.4,148.8 76.8,147.2 C63.5,144.7 59.3,131.5 59.4,123.8 C59.8,99.9 83.9,82.2 105.6,51.6 C121.5,79.3 147.8,101 149.4,122.4 C151.5,150.8 115.5,161.5 110.3,128.3 C110,126 107.2,124.9 107.4,128.2 C108.2,137.3 107.1,141.1 117.3,163.5 L90.5,163.5 C96.6,152.9 100.1,140.1 100.5,129 L100.5,129 Z" id="Path" fill="#000000" fill-rule="nonzero"></path>
            <path d="M205.5,190.6 C205.5,186.8 202.5,186.7 202.5,189.5 C202.2,203.5 190.4,210.4 181.8,208.8 C168.5,206.3 164.3,193.1 164.4,185.4 C164.8,161.5 188.9,143.8 210.6,113.2 C226.5,140.9 252.8,162.6 254.4,184 C256.5,212.4 220.5,223.1 215.3,189.9 C215,187.6 212.2,186.5 212.4,189.8 C213.2,198.9 212.1,202.7 222.3,225.1 L195.5,225.1 C201.5,214.5 205.1,201.6 205.5,190.6 L205.5,190.6 Z" id="Path" fill="#000000" fill-rule="nonzero"></path>
            <path d="M310.6,129 C310.6,125.2 307.6,125.1 307.6,127.9 C307.3,141.9 295.5,148.8 286.9,147.2 C273.6,144.7 269.4,131.5 269.5,123.8 C269.9,99.9 294,82.2 315.7,51.6 C331.6,79.3 357.9,101 359.5,122.4 C361.6,150.8 325.6,161.5 320.4,128.3 C320.1,126 317.3,124.9 317.5,128.2 C318.3,137.3 317.2,141.1 327.4,163.5 L300.6,163.5 C306.7,152.9 310.2,140.1 310.6,129 L310.6,129 Z" id="Path" fill="#000000" fill-rule="nonzero"></path>
            <path d="M310.6,252.1 C310.6,248.3 307.6,248.2 307.6,251 C307.3,265 295.5,271.9 286.9,270.3 C273.6,267.8 269.4,254.6 269.5,246.9 C269.9,223 294,205.3 315.7,174.7 C331.6,202.4 357.9,224.1 359.5,245.5 C361.6,273.9 325.6,284.6 320.4,251.4 C320.1,249.1 317.3,248 317.5,251.3 C318.3,260.4 317.2,264.2 327.4,286.6 L300.6,286.6 C306.7,276 310.2,263.2 310.6,252.1 L310.6,252.1 Z" id="Path" fill="#000000" fill-rule="nonzero"></path>
            <path d="M100.5,252.1 C100.5,248.3 97.5,248.2 97.5,251 C97.2,265 85.4,271.9 76.8,270.3 C63.5,267.8 59.3,254.6 59.4,246.9 C59.8,223 83.9,205.3 105.6,174.7 C121.5,202.4 147.8,224.1 149.4,245.5 C151.5,273.9 115.5,284.6 110.3,251.4 C110,249.1 107.2,248 107.4,251.3 C108.2,260.4 107.1,264.2 117.3,286.6 L90.5,286.6 C96.6,276 100.1,263.2 100.5,252.1 L100.5,252.1 Z" id="Path" fill="#000000" fill-rule="nonzero"></path>
            <path d="M310.7,335.3 C310.7,339.1 307.7,339.2 307.7,336.4 C307.4,322.4 295.6,315.5 287,317.1 C273.7,319.6 269.5,332.8 269.6,340.5 C270,364.4 294.1,382 315.8,412.7 C331.7,385 358,363.3 359.6,341.9 C361.7,313.5 325.7,302.8 320.5,336 C320.2,338.3 317.4,339.4 317.6,336.1 C318.4,327 317.3,323.2 327.5,300.8 L300.7,300.8 C306.7,311.4 310.3,324.2 310.7,335.3 L310.7,335.3 Z" id="Path" fill="#000000" fill-rule="nonzero"></path>
            <path d="M310.7,458.4 C310.7,462.2 307.7,462.3 307.7,459.5 C307.4,445.5 295.6,438.6 287,440.3 C273.7,442.8 269.5,456 269.6,463.7 C270,487.6 294.1,505.3 315.8,535.9 C331.7,508.2 358,486.5 359.6,465.1 C361.7,436.7 325.7,426 320.5,459.2 C320.2,461.5 317.4,462.6 317.6,459.3 C318.4,450.2 317.3,446.4 327.5,424 L300.7,424 C306.7,434.5 310.3,447.3 310.7,458.4 L310.7,458.4 Z" id="Path" fill="#000000" fill-rule="nonzero"></path>
            <path d="M206.4,396.8 C206.4,400.6 203.4,400.7 203.4,397.9 C203.1,383.9 191.3,377 182.7,378.6 C169.4,381.1 165.2,394.3 165.3,402 C165.7,425.9 189.8,443.5 211.5,474.2 C227.4,446.5 253.7,424.8 255.3,403.4 C257.4,375 221.4,364.3 216.2,397.5 C215.9,399.8 213.1,400.9 213.3,397.6 C214.1,388.5 213,384.7 223.2,362.3 L196.4,362.3 C202.4,372.9 206,385.8 206.4,396.8 L206.4,396.8 Z" id="Path" fill="#000000" fill-rule="nonzero"></path>
            <path d="M100.5,335.3 C100.5,339.1 97.5,339.2 97.5,336.4 C97.2,322.4 85.4,315.5 76.8,317.1 C63.5,319.6 59.3,332.8 59.4,340.5 C59.8,364.4 83.9,382 105.6,412.7 C121.5,385 147.8,363.3 149.4,341.9 C151.5,313.5 115.5,302.8 110.3,336 C110,338.3 107.2,339.4 107.4,336.1 C108.2,327 107.1,323.2 117.3,300.8 L90.5,300.8 C96.6,311.4 100.1,324.2 100.5,335.3 L100.5,335.3 Z" id="Path" fill="#000000" fill-rule="nonzero"></path>
            <path d="M100.5,458.4 C100.5,462.2 97.5,462.3 97.5,459.5 C97.2,445.5 85.4,438.6 76.8,440.3 C63.5,442.8 59.3,456 59.4,463.7 C59.8,487.6 83.9,505.3 105.6,535.9 C121.5,508.2 147.8,486.5 149.4,465.1 C151.5,436.7 115.5,426 110.3,459.2 C110,461.5 107.2,462.6 107.4,459.3 C108.2,450.2 107.1,446.4 117.3,424 L90.5,424 C96.6,434.5 100.1,447.3 100.5,458.4 L100.5,458.4 Z" id="Path" fill="#000000" fill-rule="nonzero"></path>
            <path d="M32.4,131.6 C32.4,130 30.7,130.7 30.5,131.2 C28.3,134.9 25.1,135.8 21.9,134.5 C18.8,133.2 17,130.2 17.3,126 C17.9,119.5 23,112.4 25.5,108.4 C27.9,104.8 30.4,100.5 33.2,94.9 C36.4,101.2 38,103 41.5,108.8 C44.6,113.9 48.8,118.9 49.2,125 C49.2,129.7 47.2,134.1 42.8,134.9 C40.3,135.3 37.9,134.1 36.2,131.1 C35.7,130.3 34.6,130.7 34.6,131.8 C34.9,135.7 36.4,139.3 39.9,143.5 L26.9,143.5 C29.6,140.6 32.3,136.6 32.4,131.6 L32.4,131.6 Z" id="Path" fill="#000000" fill-rule="nonzero"></path>
            <path d="M388.1,457 C388.1,458.6 386.4,457.9 386.2,457.4 C384,453.7 380.8,452.8 377.6,454.1 C374.5,455.4 372.7,458.4 373,462.6 C373.6,469.1 378.7,476.2 381.2,480.2 C383.6,483.8 386.2,488.1 388.9,493.7 C392.1,487.4 393.7,485.6 397.2,479.8 C400.3,474.7 404.5,469.7 404.9,463.6 C404.9,458.9 402.9,454.5 398.5,453.7 C396,453.2 393.6,454.5 391.9,457.5 C391.4,458.3 390.3,457.9 390.3,456.8 C390.6,452.9 392.1,449.3 395.6,445.1 L382.6,445.1 C385.3,448 388,452.1 388.1,457 L388.1,457 Z" id="Path" fill="#000000" fill-rule="nonzero"></path>
        </g>
    </g>
</svg>