<?xml version="1.0" encoding="UTF-8"?>
<svg width="423px" height="590px" viewBox="0 0 423 590" version="1.1" xmlns="http://www.w3.org/2000/svg" xmlns:xlink="http://www.w3.org/1999/xlink">
    <!-- Generator: Sketch 61.2 (89653) - https://sketch.com -->
    <title>11D</title>
    <desc>Created with Sketch.</desc>
    <g id="Page-1" stroke="none" stroke-width="1" fill="none" fill-rule="evenodd">
        <g id="11D">
            <path d="M20.7,0.9 L401.9,0.9 C413,0.9 422,9.8 422,21 L422,569.3 C422,580.4 413.1,589.4 401.9,589.4 L20.7,589.4 C9.6,589.4 0.6,580.5 0.6,569.3 L0.6,21 C0.6,9.9 9.6,0.9 20.7,0.9 L20.7,0.9 Z" id="Path" fill="#FFFFFF" fill-rule="nonzero"></path>
            <path d="M20.7,0.9 L401.9,0.9 C413,0.9 422,9.8 422,21 L422,569.3 C422,580.4 413.1,589.4 401.9,589.4 L20.7,589.4 C9.6,589.4 0.6,580.5 0.6,569.3 L0.6,21 C0.6,9.9 9.6,0.9 20.7,0.9 L20.7,0.9 Z" id="Path" stroke="#000000" stroke-width="0.7974"></path>
            <path d="M59.1,544.5 L58.1,48.2 L366,48.7 L366.4,544.3 L59.1,544.5 Z M169.4,130.9 C158.4,127.9 158.7,138.8 166.7,139.2 C175.7,140 179.6,124.6 175.3,118.5 C175.3,118.6 171.6,130.2 169.4,130.9 L169.4,130.9 Z M98,192.7 L84.8,198.6 L84.7,208.5 C90.2,204.1 94.5,198.8 98,192.7 L98,192.7 Z M188.2,489.3 C185.6,488 182.5,485.2 182.9,484.7 C183.1,484.5 184.5,484.9 185.8,485.5 C196.1,489.9 204.2,489.6 216.5,485.1 C217.4,484.8 218.8,486.5 218.3,487.5 C212.9,495.6 195.3,492.7 188.2,489.3 L188.2,489.3 Z M182.8,477.2 C180.4,473.6 183.6,476.3 184.6,477.3 C192.2,484.4 202.6,486.8 211.5,480.1 C211.9,479.6 212,479.2 211.9,478.9 C211.6,478.2 211.6,478.9 207.8,480.3 C199.3,483.5 192.1,480.9 185.1,475.5 C182.2,473.3 180.9,472.2 180.9,471.6 C180.9,471.1 181.4,470.7 182.4,470.9 C183,471 184.7,471.4 185.9,471.5 C188,471.7 187.9,471.6 190.1,470.6 C194.8,468.4 199.1,467.6 204,468.5 C205.1,468.7 206.6,469.1 206.7,469 C207.8,468.6 206.2,467.2 202,463.9 C201.2,463.2 200.2,462.7 199.8,462.1 C199.3,461.2 199.8,461 200.4,461 C202.1,461 209.8,467.4 212.4,471.2 C213.2,472.4 213.8,472.5 213.8,473.7 C213.7,474.9 213.5,476.1 214.8,477.9 C215.8,479.2 216.7,481.2 216.7,481.3 C216.7,481.4 216.5,482 215.6,481.5 C215.2,481.4 215,481 214.3,481.1 C213.7,481.2 212.6,481.7 211.5,482.2 C200.7,489.1 190.8,485.7 182.8,477.2 L182.8,477.2 Z M206.3,476.7 C206.5,476.7 205.6,472.8 204.5,471.6 C202.4,469.3 199.1,468.9 197.2,471.2 C196.1,472.5 194.9,476.2 194.9,476.2 C194.9,476.2 196.6,476.7 197.1,476.7 C197.2,475.9 197.2,473.5 198.9,472.2 C199.7,471.5 201.6,471.6 202.3,472.1 C203.7,472.8 204.3,475.6 204.3,476.6 C204.9,477 206.7,476.8 206.3,476.7 L206.3,476.7 Z M193.3,471 C191.8,471.7 189.8,472.1 189.4,473.1 C188.8,474.4 190.9,474.8 192,475.3 C193.5,476 193.5,475.8 194,474.6 C194.3,473.9 194.7,472.9 195.1,472 C196.2,469.9 195.1,470.2 193.3,471 L193.3,471 Z M209.7,474.8 C210.6,473.9 210.7,473.4 210,472.4 C209.7,471.9 208.6,471.5 207.6,471.1 C206.2,470.6 205.6,470.1 206.5,472 L207.8,474.7 C208.3,476 208.8,475.6 209.7,474.8 L209.7,474.8 Z M66.6,382.2 C67.1,382.2 72.4,380.5 74.3,379.6 C76.2,378.9 76.4,378.9 75.6,377.9 C75.3,377.5 75.1,376.4 75.2,375.2 L75.3,373.5 C72,372.8 67.2,374.6 65.5,376.9 C64.5,378.5 64.6,381.7 66.6,382.2 L66.6,382.2 Z M66,390.3 C67,391.3 67.3,391.3 70.2,390.2 C71.2,389.5 73.4,388.6 74.9,388.5 C78.5,387.5 78.5,387.9 77.5,385.6 C77,384.6 76.9,383.7 77,382.7 C77.2,381.5 77.3,381.4 76.7,381.2 C75,380.7 67,383.6 65.6,386 C64.6,387.7 64.7,389.1 66,390.3 L66,390.3 Z M252.7,460.6 C252.2,461.4 251.3,462.8 250.9,463.7 C250.2,465.3 250.6,465.6 250.9,468.8 C251,470.6 251.1,473.5 251.1,475 C251.1,477.9 251.1,478.8 252,479 C252.8,479.2 253.2,478.6 253.5,477 C253.7,476.2 254.1,475.5 254.3,475 C254.9,471.7 255.9,466.2 258.3,463.9 C258.6,463.6 259.6,463.5 261.3,463.4 C263.4,463.4 264.1,463.3 264.8,462.8 C268.5,459.5 265.6,455.3 262.3,455 C258.3,454.6 253,460 252.7,460.6 L252.7,460.6 Z M267.5,459.2 C267.7,463 264,465.5 260.2,464.7 C258.7,464.3 258.2,464.7 257.2,466.9 C255,473 254.1,479 253.5,483 C253.2,486.6 251.9,495.9 252.9,498.8 C263.8,512.2 275.2,526.1 287.8,540 L362.4,540.1 L362.9,452.3 L341,431.8 L341,399.3 C317.8,410.2 294.7,421.3 271.6,432.3 C276.7,448.5 259.5,451.9 255.8,441 C252.6,444 249.9,460 251.1,460.8 C251.1,460.8 251.5,461.4 252.3,460.1 C253.5,458 255,456.4 256.7,455.4 C261.4,452.5 267.2,454 267.5,459.2 L267.5,459.2 Z M208.2,457.6 C204.5,454.7 206.5,450.3 209.5,448.9 C211.1,448.2 213.7,448.3 216.5,449.3 C219,450.4 220.5,450.3 223.1,450 C224.8,449.8 224.5,453.4 222.7,454.3 C221.5,454.9 218.6,454.6 215.1,452.7 C209.1,449.3 206.4,453.7 210.2,457.7 C212.2,459.8 208.7,458.1 208.2,457.6 L208.2,457.6 Z M84.2,404.4 C87.4,402.3 86.1,398.7 83.1,398.1 C79.1,398.2 78,402.8 80.9,404.4 C80.9,405 79.5,404.5 78.7,403.9 C77.5,403 78.6,399.5 77.5,399.3 C76.6,399.3 68.3,402.3 67.4,402.8 C63.6,404.9 67.2,409.7 69.3,409.2 C73.9,408.1 80,407.1 84.2,404.4 L84.2,404.4 Z M65.6,397.5 C65.7,399.6 66.3,400.6 67.7,400.6 C70.6,400.1 73.4,398.7 76.1,397.8 C78.2,397.1 79.1,396.3 77.5,395 C77,394.4 76.6,393.6 76.8,392.1 C77.4,390.3 76.9,390.2 76.2,390.2 C75.5,390.1 73.7,390.8 69.4,392.5 C67.1,393.4 66.7,393.8 66.1,395 C65.7,396 65.5,396.6 65.6,397.5 L65.6,397.5 Z M89.9,425.1 C90.4,424.5 91.5,420.8 91.5,419.9 C91.3,418.4 90.1,418 89.1,419 C87.9,420.1 88.2,421.8 87.5,423 C87.2,423.4 87,424 87,424.3 C87.5,425.7 89.1,425.9 89.9,425.1 L89.9,425.1 Z M99.5,404.8 C136.8,365 160,310 119.5,234 C115,232.1 113.6,239.4 113.1,239.7 L107.9,244.2 C135.3,291.5 130.5,345.8 97,384.5 L97,387 C97.1,392.4 98.6,392.2 100.9,389.6 C103.3,387.1 101.7,389.1 100.7,390.2 C99.9,391.1 98.5,392.9 98.1,393.4 C98.7,396.7 100.7,402.7 99.5,404.8 L99.5,404.8 Z M97,392.9 C96.3,391.1 95.6,385.1 95.9,385 C95.9,385 94.6,376.3 93.6,374.8 C92.8,373.5 90.7,372.5 88.3,372.4 C86.3,372.3 86.1,372.3 85.7,373 C85,374.1 85.5,379.7 86.2,381.8 C87,384.2 86.6,385.5 85.9,387.9 C85.7,388.8 85.6,388.8 86,388.9 C87.9,388.8 88.5,386.5 89.2,387.2 C89.4,387.5 88.8,389.3 87.9,391.2 C87,393.2 86.7,396 87.8,399.4 C88.4,401.3 88.1,401.9 87.8,403 C87.5,403.8 87.1,406.1 87.1,408.4 C88,411.3 87.5,412.6 87,413.6 C85.9,416.1 85,419.4 85.6,421.3 C85.9,422.1 86.5,421.4 87.1,420 C87.9,417.2 88.8,416.6 91.1,416.6 C92.8,416.6 92.9,417.2 93.5,416.4 C94.8,414.7 97.8,408.7 97.9,407 C99.1,402.7 99.2,399 97,392.9 L97,392.9 Z M114.8,421.1 C115.8,420.7 117.4,418.6 117.4,417.8 C117.4,417 111.1,410.9 108.5,409.2 C107.3,408.4 106.8,409 104.7,411.8 C102.8,414.3 102.6,414.3 102.9,414.8 C103.3,415.4 109.7,419.5 111.8,420.7 C112.6,421.1 113.9,421.4 114.8,421.1 L114.8,421.1 Z M126.6,410.2 C125.7,409.5 118.2,401.2 115.9,400.8 C115.1,400.6 112.3,403.7 112.3,404.4 C112.3,404.9 117,409.6 120.3,412.5 C121.2,413.3 122.3,414 122.6,414 C123.7,413.5 126.5,411.3 126.6,410.2 L126.6,410.2 Z M134.6,402.4 C134.6,401.9 133.8,400.9 131.8,398.9 C126.7,393.9 123.8,391.5 122.9,391.5 C121.9,391.8 120.1,394.8 120,395.9 C120.3,396.5 128.9,404.3 130.1,405.1 C131.3,406.4 134.4,403.3 134.6,402.4 L134.6,402.4 Z M142.6,394.3 C142.8,393.6 142.4,392.9 141.3,391.9 C140.5,391.2 137.8,388.5 135.2,385.9 C129.8,380.6 129.8,380.6 128,383.1 C126.2,385.7 126.2,385.7 131.5,390.8 C137.1,396.3 138.4,397.4 139.3,397.4 C140.7,396.8 142.2,395.8 142.6,394.3 L142.6,394.3 Z M82.3,389.5 C81.4,389.2 80.5,389.4 79.8,390 C75.8,393.4 81.5,397.7 83.8,395 C85.3,393.5 85.3,390.2 82.3,389.5 L82.3,389.5 Z M150.9,386 C150.9,385.4 149.7,384.2 145.7,380.3 C135.8,370.8 136.2,371.2 135.1,371.8 C134.4,372.2 133.1,374.7 133.1,375.7 C133.1,376.4 134.1,377.4 141.4,384.3 C145.7,388.3 147,389.4 147.8,389.4 C148.9,388.7 150.8,387.4 150.9,386 L150.9,386 Z M82.6,386.3 C84.6,385.5 84.9,383.3 83.8,381.7 C81.7,379.8 78.7,381.4 78.7,383.8 C79,386 81,387 82.6,386.3 L82.6,386.3 Z M159.1,378 C159.1,376.9 142.1,360.9 140.9,360.9 C140.1,360.9 139.5,361.6 138.7,363.4 C138,365 138.1,365.9 138.9,366.7 C140.1,367.9 143.4,370.9 146.5,373.7 C148.4,375.4 150.5,377.4 151.2,378.1 C152.9,379.9 154.9,381.3 155.6,381.3 C156.7,380.7 158.2,379.9 159.1,378 L159.1,378 Z M81.7,375.9 C81.7,375.3 81.6,374.6 81.1,374.1 C79.9,372.9 77.8,373.5 77.2,375.2 C76.7,379.1 81.5,379.3 81.7,375.9 L81.7,375.9 Z M94.3,252 L97.6,241.8 L107.8,241.5 L109.2,231.4 L119.7,229.9 L119.9,219.4 L129.9,218 L129.3,206.8 L138.6,204.6 L138.1,194.2 L146.5,191.6 L146.2,182.6 L147.7,181.5 L144,177.8 L140.9,178.8 L140.8,188.1 L132.4,190.8 L133.3,201.1 L124.8,203 L124.7,214.2 L114.9,215.3 L114.2,225.2 L104.7,227.1 L103.3,236.7 L94,237.3 L91.2,245.8 L85.1,245.9 L85.1,251.6 L94.3,252 Z M205,434.2 C204.7,433.4 205.5,433.5 207,434.5 C208.5,435.5 210.7,436.3 212.3,436.3 C213,436.3 215.3,435.9 217.5,435.4 C220.1,434.4 222.5,434.4 225.2,435 C227.2,435.3 229.3,435.5 229.8,435.5 C231.2,435.7 233.5,434 234.1,432.9 C235.8,430 235.4,435.2 235.4,435.8 C235.4,438.5 235.8,441.5 233.9,440.1 C232.8,439.5 230.8,439 229.2,440 C227.6,441.1 226.3,441.3 224.4,440.2 C222.9,439.6 222.1,439.5 220.9,440.5 C219.6,441.7 216.5,441.3 214.9,440.7 C212.1,440.2 210.5,439.8 208.6,441.3 C207.6,441.9 207.3,441.4 206.6,439.2 C205.7,437 205.1,434.5 205,434.2 L205,434.2 Z M212.3,432.3 C212.1,432 213.6,430.5 214.7,430 C217.7,428.4 223.7,428.5 228.1,430.1 C230.3,430.9 230.7,432.3 228.5,432 C224,431 218.3,430.3 213.9,432.4 C213.4,432.6 212.4,432.4 212.3,432.3 L212.3,432.3 Z M216.1,425.2 C213,424 211.5,422.8 211.5,422.4 C211.5,422 212.2,422.1 214.6,422.7 C217.9,423.9 221.9,424.6 225.1,423.4 C227.5,422.5 228.6,422 228.6,422.5 C228.6,423.1 227.6,424.5 226,425.3 C222.8,426.7 218.6,426.1 216.1,425.2 L216.1,425.2 Z M283.5,416.6 L285.8,416.3 L285,406.7 L293.5,404.2 L292.9,394.6 L301.9,391.5 L301.4,380.7 L310.8,378.8 L312,369.4 L320.9,368.8 L322.7,358.6 L332.2,358.3 L334.2,349.8 L340.5,349.7 L340.5,344.9 L330.6,344.9 L328.5,354.1 L319.2,354.4 L317.2,364.5 L307.4,364.4 L306.1,375.3 L296.9,376.8 L296.9,388.6 L288,390.9 L288.7,401 L279.8,404.2 L280.8,413.8 L283.5,416.6 Z M342.8,191 C341.5,191.9 341,193.7 341.4,195.1 C342.6,198.4 347,197.4 347.6,195 C347.9,194 347.2,192.4 346,192.1 C345.8,192 345,192.1 344.7,191.7 C344.4,191.4 346.2,190.5 347.2,190.9 C348.5,191.3 349.5,193 349.5,194.5 C349.5,195.1 349.3,195.9 349.5,196.2 C351.6,196.1 354.1,195 356.3,194.3 C360.2,193.2 361.5,191 360.7,188.4 C360,186.2 357.8,185.4 354.9,186.5 C350.9,188 346.2,188.7 342.8,191 L342.8,191 Z M178.3,427 C191.3,417.8 199,412.6 215.8,411.7 C209.8,409.2 208.9,406 207.2,402.9 C186.5,404.9 175.5,411.5 165.6,417.7 C169.6,419.6 173.9,421.9 178.3,427 L178.3,427 Z M251,414.3 C244.7,409.8 237.1,407.1 229.3,405 L223.3,411.2 C223,411 240.7,411.4 251,414.3 L251,414.3 Z M311.7,355.5 C270.9,292.8 298.3,237.7 326.7,202.5 C327.6,201.3 327.8,201.3 327.6,200.4 C327.3,199.2 327,193.1 327.2,189.6 C274.8,241.6 273.4,309.2 306.3,363 C308.7,360.8 313.5,358.1 311.7,355.5 L311.7,355.5 Z M317.9,350.1 C311.2,339 275.5,278.6 330,211.2 C330,211.2 329.8,207.8 329.4,206.5 C328.7,204.2 327.5,203.3 327.5,203.3 C304.6,237.6 271.4,280.6 312.9,355.2 L317.9,350.1 Z M286.7,236.5 C287.5,235.8 288.7,233.4 288.7,232.4 C288.7,231.5 288.1,230.8 281.9,224.5 C273.7,216.2 272.3,214.9 271.2,214.9 C270.2,214.9 267.6,217.4 267.6,218.3 C267.6,218.7 270,221.3 275.7,227 C286.3,237.6 285.8,237.2 286.7,236.5 L286.7,236.5 Z M294.2,221.2 C294.2,220.7 293.4,219.7 291.6,217.9 C286.9,213 280.1,206.8 279.5,206.8 C278.7,206.8 276.7,208.5 276.1,209.5 C275.7,210.2 275.7,210.4 276.2,211.1 C277,212.4 287.6,222.4 290.6,225 C292.5,226.6 294.1,222.5 294.2,221.2 L294.2,221.2 Z M298.3,215 C299.1,214.5 300.7,211.6 300.5,210.8 C300.4,210.4 297.7,207.6 294.5,204.4 C288.2,198.1 287.8,197.9 286.3,199.3 C284.9,200.6 284,201.9 284.2,202.4 C284.4,203 293.8,212.6 295.8,214.2 C297.3,215.4 297.5,215.4 298.3,215 L298.3,215 Z M346.4,214.5 C349.4,211.7 346,208.5 343.6,210 C342.6,210.6 342,212 342.3,213 C342.8,214.5 344.8,215.3 346.4,214.5 L346.4,214.5 Z M352.3,213.8 C357.3,212.5 359.7,211.6 360.8,210 C361.5,208.9 361.6,208.2 360.8,206.5 C360,204.9 359.2,204.4 356,206.1 C353.8,207.3 349,207.8 347.4,208.8 C346.7,209.4 347.1,209.4 347.6,209.7 C348.8,210.5 349.4,211 349.3,212 C348.9,214.3 349.1,214.6 352.3,213.8 L352.3,213.8 Z M347,205.9 C349.4,204.7 348.9,201.7 346.2,200.5 C342.6,199.6 340.3,203.9 343.2,206 C344,206.5 346,206.4 347,205.9 L347,205.9 Z M355,204.7 C358.5,203.5 359.9,202.6 360.9,200.6 C361.7,199 361.4,198.4 361.3,196.9 C361.1,194.6 360,194.9 356.7,196.1 C355.1,196.7 347.4,198.9 347.3,199.7 C351,201.8 350.1,202.9 350.1,205.6 C350.3,206.2 352.1,205.7 355,204.7 L355,204.7 Z M307.1,201.1 C307.1,200.1 297.3,190.4 296.2,190.4 C294.6,190.4 292.2,192.9 292.6,194.3 C292.8,194.9 302,204.2 303.1,204.9 C304.7,205.9 307,202.7 307.1,201.1 L307.1,201.1 Z M312.7,195.1 C313.1,194.8 313.9,193.9 314.4,193.2 C315.5,191.7 315.4,190.8 314.1,190 C313.6,189.7 311.6,187.8 309.5,185.9 C307.4,183.9 305.5,182.2 305.2,182.1 C303.5,181.9 300.4,184.6 300.8,186 C301,186.7 308.5,194.1 310.2,195.3 C311.2,195.9 311.8,195.9 312.7,195.1 L312.7,195.1 Z M326,180.8 C326,180.5 324.3,179.4 321.5,177.9 C313.1,173.3 313,173.3 310.4,175.4 C309.5,176.1 308.8,177 308.8,177.3 C308.8,177.6 310.6,179.5 312.9,181.7 C317.7,186.2 318.9,187.2 319.6,187.2 C321,186.2 325.8,182 326,180.8 L326,180.8 Z M337.8,176.5 C338.8,175.3 340,171 339.4,170.1 C338.9,169.6 337.6,169.7 337,170.2 C336.4,170.8 334.8,176.2 335,176.8 C335.2,177.5 336.9,177.2 337.8,176.5 L337.8,176.5 Z M246.2,359.2 C247,359.1 248.5,358.1 250.8,356.2 C253.2,354.1 260.9,349.5 261.7,347.7 C262.1,346.6 261.8,345.1 261,345 C260.4,344.9 260.3,345.4 255.2,349 C251.8,351.5 245.7,355.9 244.8,356.8 C244.5,357.8 245.4,359.1 246.2,359.2 L246.2,359.2 Z M245.5,388.7 C250.7,385.1 255,381.3 261.8,377.1 C262.3,376.4 262.4,375.4 262.1,374.5 C261.7,373.4 261.2,373.9 259.1,375.3 C254.1,378.7 248.9,382.7 244.6,385.6 C243.2,386.5 242,387.1 242.3,387.6 C242.7,388.4 244.8,388.6 245.5,388.7 L245.5,388.7 Z M250.6,390.9 C254,388.1 258.2,385.4 261.8,382.7 C262.3,382.2 262.5,380.5 261.9,379.7 C261.5,379.1 261.8,379.2 260.8,379.8 C259.3,380.6 250.4,386.7 248.8,388.1 C247.8,388.9 247,389.3 247.3,389.6 C248.4,390.3 249.6,390.8 250.6,390.9 L250.6,390.9 Z M255,393.1 C255.7,392.6 261.8,388.7 262.3,388.2 C262.9,387.6 262.7,384.9 262.2,384.7 C260.7,385.9 252.5,390.9 252.5,391.7 C253.2,392.5 254.3,393.2 255,393.1 L255,393.1 Z M261.5,393.6 C262.4,392.7 262.6,392.6 262.6,391.6 C262.6,389.9 262.2,389.9 259.7,391.7 C258,392.8 256.9,393.6 257.2,394.3 C258.5,396.3 260.3,394.8 261.5,393.6 L261.5,393.6 Z M262.2,397.2 C262.7,397 262.7,396.8 262.6,396.2 C262.5,395.5 262.4,395.6 261.7,395.6 C259.7,395.6 261.5,397.4 262.2,397.2 L262.2,397.2 Z M238.3,387.4 C239.2,384.4 240.5,382.1 242.5,379.9 C250.7,372.6 248.2,363.6 243,356.3 C249.7,346.9 256.4,336.9 262.2,327.8 L262.2,313 L263,313.1 C262.7,345.5 264.2,398.7 264.2,398.7 L270.9,403.8 L270,404.2 C271.1,404 250.6,391.1 238.3,387.4 L238.3,387.4 Z M244.4,383.7 C250.1,379.4 255.6,376 261.3,371.4 C261.9,370.9 262.2,370.9 262.3,369.8 C262.3,367.7 261.9,367.6 259.8,369.2 C258.9,369.9 255.4,372.3 252.2,374.4 C248.8,376.7 245.7,378.7 245,379.5 C241.8,383.2 240.6,384.9 241,385.4 C241.3,386 241.9,385.4 244.4,383.7 L244.4,383.7 Z M250.6,373.3 C253.5,371.4 260.5,366.5 261.2,365.9 C262.3,364.8 262.5,363.2 261.5,363 C261,362.9 255.6,366.5 251,370 C248.8,371.7 248.3,372.1 248.3,373.7 C248.3,374.7 248.8,374.5 250.6,373.3 L250.6,373.3 Z M253.5,365.8 C262.5,359.4 262.2,360 262,357.6 C261.9,356.8 261.8,356.4 261.4,356.4 C261.1,356.3 259.5,357.5 257.8,358.7 C256,359.9 253.9,361.6 252.8,362.4 C249.7,364.6 248.7,365.1 248.7,366.4 C248.7,367.6 249,368.4 249.6,368.4 C249.8,368.3 251.5,367.2 253.5,365.8 L253.5,365.8 Z M252.2,360.8 C256.3,357.9 260.9,354.6 261.5,353.8 C262.3,352.9 262.1,350.8 261.2,350.8 C257.1,353.6 252.1,357.2 248.6,360.1 C248.1,360.5 247.6,360.9 247.4,361.4 C247.4,362.1 248.2,363 248.6,363 C249.2,363 250.2,362.2 252.2,360.8 L252.2,360.8 Z M249.5,350.9 C252.7,348.8 255.5,346.2 258.7,344.1 C261,342.5 261.7,342 261.6,340 C261.5,338.8 260.5,339.5 256.5,342.2 C253.6,344.1 252.2,344.9 251.2,346.2 C250.5,347.9 248.1,349.5 248,351.4 C247.9,352.1 248.4,351.7 249.5,350.9 L249.5,350.9 Z M259.2,338.1 C261.6,336.5 261.9,336.5 261.6,334.3 C261.3,331.6 261,331.8 258.7,335.3 C257.2,337.6 256.7,338.3 256.9,338.7 C257.3,339.5 257.7,339.1 259.2,338.1 L259.2,338.1 Z M250.4,318.5 C250.1,317.3 249.8,317.6 248.6,318.6 C246.4,320.6 246,322 247.4,322.7 C248.1,323.1 248.7,323.1 249.2,322.1 C250.1,320 250.3,319.3 250.4,318.5 L250.4,318.5 Z M237.8,337.1 C237.5,336 236.2,334.5 235.2,334 C234.2,333.5 233.6,333.6 232.6,334.8 C231.7,335.9 232.1,336.6 233.4,338.3 C234.4,339.5 234.8,339.9 235.5,339.9 C236.6,339.5 238,338.3 237.8,337.1 L237.8,337.1 Z M189.2,383.9 C188.6,382.7 187.2,381.4 186.6,381.6 C185.9,381.8 185.3,382.8 185.3,383.4 C185.6,384.6 186.6,385.4 187.4,385.5 C188.8,385.2 189.7,384.9 189.2,383.9 L189.2,383.9 Z M195.1,382 C193.8,380.6 191.3,377.7 190.9,377.7 C190.2,377.7 188.7,379.3 188.7,380 C188.7,380.8 191,384 191.8,384.3 C193.7,384 197.3,384.3 195.1,382 L195.1,382 Z M202.4,382.4 C202.3,381.7 195.1,374.1 194.5,374.1 C193.8,374.1 192.5,375.6 192.5,376.3 C192.5,376.9 194.8,379.9 197,382.1 C198.1,383.2 198.2,383.4 199.5,383.2 C200.9,383 202.8,383.3 202.4,382.4 L202.4,382.4 Z M215.2,380.7 C215.2,379.2 214.4,378.3 211.1,374.8 C209.9,373.5 207.9,371.3 206.7,369.9 C204.3,367.1 203.2,366.3 202.3,366.3 C201.5,366.3 200.4,367.5 200.4,368.3 C200.4,368.8 206.4,375.7 211.8,381.5 C213,382.8 213.6,383.2 214.7,382.6 C215.3,382 215.2,381.3 215.2,380.7 L215.2,380.7 Z M205.8,362.3 C204.6,363.3 204.1,363.7 204.1,364.4 C204.1,365.4 214.4,376.8 215.4,376.8 C215.9,376.8 215.9,376.7 216.2,375.5 C216.8,371.8 215.8,370.7 213.2,368.3 C211.3,366.5 207.7,360.9 205.8,362.3 L205.8,362.3 Z M224,354.7 C221.1,351.2 219.5,349.7 218.9,349.7 C218.5,349.7 217.9,350.1 217.3,350.8 C216.2,351.8 216.3,351.8 217,353 C217.4,353.6 218.3,354.9 219.2,355.8 C220.8,357.4 221.6,358 222.4,357.2 C223.1,356.4 224.8,355.5 224,354.7 L224,354.7 Z M222.5,346 C221.8,346 220.6,347.3 220.6,348 C220.6,348.6 222.9,351.5 224.6,353 C225.9,354.2 226.5,354.5 227.5,353.7 C228.2,352.7 228,351.8 227.6,351 C226.4,349.7 223.9,346.1 222.5,346 L222.5,346 Z M230.7,346.9 C230.7,345.9 227.7,342.1 226.8,341.7 C226,341.7 224.4,343.5 224.4,344.3 C224.4,344.7 225,345.7 226.1,347 C228.2,349.5 228.8,350 229.2,349.6 C229.9,349 230.7,347.9 230.7,346.9 L230.7,346.9 Z M234,342.6 C234.2,341.8 233.7,340.9 232.5,339.4 C231,337.6 230.3,337.4 228.9,338.9 C228.4,339.4 228.2,339.9 228.2,340.1 C228.2,340.8 231.3,344.7 231.9,344.7 C233.1,344.5 233.5,343.6 234,342.6 L234,342.6 Z M228.5,352.3 C228.2,353.6 227.7,354.4 226.5,355 C217,361.8 217.4,372.9 215.3,383.1 C200,382.9 175.8,389.2 176,389.5 L257.3,307.5 C257.3,307.5 258.3,307.7 257.7,308.5 C251.1,313.2 251.5,322.4 247.2,327 C240,335.8 233.3,343.4 228.5,352.3 L228.5,352.3 Z M184.4,385.8 C184.5,384.9 183.7,384.6 182.9,385.4 C182.2,386.1 182.5,386.7 183.5,386.6 C184.1,386.5 184.4,386.3 184.4,385.8 L184.4,385.8 Z M209.5,382.4 C209.8,381.6 209.1,380.9 204.7,376 C200.3,371.1 199.3,370 198.5,370 C197.9,370 196.3,371.6 196.3,372.3 C196.3,372.6 197,373.6 197.8,374.5 C198.6,375.4 200.3,377.2 201.4,378.5 C203.3,380.7 204.2,381.8 205,382.3 C205.7,382.8 206.3,382.8 207.4,382.8 C209,382.7 209.3,382.7 209.5,382.4 L209.5,382.4 Z M217,367 C217.3,366 217.7,365.2 217.7,364.8 C217.7,364.1 212.1,358.5 211.2,357.8 C210.1,357.1 208,359.5 208.5,360.8 C208.6,361.2 210.3,363.1 212.2,365.1 C214.6,367.6 215.8,368.8 216.2,368.8 C216.6,368.8 216.6,368.2 217,367 L217,367 Z M219.3,361 C219.7,360.4 220,359.6 220,359.3 C220,358.9 219.1,357.7 217.7,356.3 C215.2,353.5 214.6,353.2 213.2,354.5 C211.8,355.8 212.3,356.4 214.7,359.1 C217.8,362.4 218.1,362.8 219.3,361 L219.3,361 Z M240.6,334.3 C241.5,333.2 241.5,332.7 240.7,331.6 C240.3,331.2 239.8,330.6 239.5,330.2 C238.7,329.3 237.7,329.4 236.7,330.6 C236.2,331.2 235.9,331.7 235.9,331.9 C235.9,332.1 236.4,332.9 237.1,333.6 C238.6,335.5 239.5,335.7 240.6,334.3 L240.6,334.3 Z M243.9,330.1 C244.5,329.1 244.2,328.1 243.1,327 C242,326 241.4,325.9 240.6,326.8 C239.5,328 239.7,328.4 240.8,329.6 C242.1,331.1 243.2,331.3 243.9,330.1 L243.9,330.1 Z M246.5,326.6 C247.4,325.7 247.4,325 246.6,324 C245.9,323.1 245.1,322.8 244.3,323.2 C243,323.9 243.1,325.1 244.4,326.5 C245.2,327.4 245.6,327.5 246.5,326.6 L246.5,326.6 Z M184.3,501.6 C201,503.5 218.8,504.8 250.4,499.9 L250.6,489.2 C240.8,496.9 227.8,491.6 227.1,482.8 C227,474.9 229.1,465.9 230.9,459.4 C232.2,454.6 232.6,452.7 231.4,451.8 C228.7,450.3 223.9,450.1 222.6,446.9 C222,445.2 222,443.4 222.8,444.7 C223.2,445.3 226.3,446.8 228.8,447.3 C233.1,448.3 233.8,448.6 234.2,450.3 C234.5,451.4 233.8,455.2 232.7,458.7 C231.9,461.2 230.9,465.1 230.9,465.9 C230.9,466.7 231.6,466.9 232.3,466.6 C232.6,466.5 234.1,465 235.1,464.2 C239.2,460.5 240.4,460.6 236.9,464.2 C235.5,465.6 233.6,467.6 233.6,467.7 C233.6,468.5 234.3,468.4 235.9,467.8 C238.3,466.9 244,467 246.6,468.3 C249.7,469.9 249.9,469.8 249.8,465 C249.2,456 247.8,445.5 244.9,437.2 C240.4,424.6 231.2,412.9 217.6,413.4 C201,414.3 190.9,420.9 179.6,428.8 C186.4,444 176.6,455.6 173,457.1 C172.7,457.2 177.5,472.5 179.5,480.3 C181.1,487.4 184.3,501.6 184.3,501.6 L184.3,501.6 Z M255.1,135.7 C254.7,134.7 245.5,104.5 242.9,91.9 C217.9,90.4 199.4,88.4 177.3,94.6 C177.3,94.6 176.8,103.1 177.1,103.5 C177.3,104.5 178.1,104.5 178.7,104.2 C188.9,98.6 199.9,101.1 200.7,114.9 C201,120.2 199.2,123.9 198.9,128.9 C198.6,133.3 195.2,139.1 197.3,142.4 C197.6,142.8 199,143.6 201,144.5 C204.7,146.1 206.2,147.6 206.5,150 C206.9,151.7 205.9,152.8 205.6,151.1 C205.4,150 205.2,149 200.6,147.5 C196.1,146 194.9,144.2 194.4,143.2 C193.8,141.9 193.9,141 194.5,138.9 C195.7,134.5 196.9,130 196.8,127.9 C196.8,127.1 195.9,127.5 194.8,128.4 C193.4,129.6 187.6,133.4 187.4,133.3 C187.3,133.2 188.4,131.7 190,130.1 C192,128.2 194.5,125.9 194.5,125.5 C194.5,124.8 194.2,125.3 192.3,125.9 C188.9,126.8 185.1,126.7 182.5,125.5 C180.3,124.5 178.7,124 178.4,124.5 C177.6,137.9 179.6,151.8 185.2,162.6 C190.3,172.4 200.7,184.7 216.5,181.9 C232.8,179.1 248.7,165.9 248.1,165.9 C242,152.1 248.9,141.9 255.1,135.7 L255.1,135.7 Z M125.9,502.5 L122.4,499.7 C123.1,499.8 103.2,487.9 88,483.7 C87,483.5 86,483 86,484.2 L85.9,509 L63.5,530 L63.9,540.2 L111.4,540 L142.9,493.8 C142.9,493.8 144.4,493.5 144.6,493.2 C138.8,468.7 130.1,449.1 124.6,439.3 C124.7,439.4 116.6,445.8 109.6,437.9 C105.6,433.4 108.1,425.6 111.8,422.8 C108.6,420.5 102,416.2 97.7,415 C96.8,414.8 95.5,416.6 95,418.2 C94.2,420.9 92.9,423.3 92,426 C91,428.3 90.1,428.6 88.7,428 C86.5,427.3 85.9,427.1 85.9,427.1 L86,456.3 C103,462.3 120.8,477.6 125.9,502.5 L125.9,502.5 Z M197.6,190.5 L202.7,184.9 C194.6,183.9 186.1,182.5 176.2,179.3 C183.2,184.5 190.4,187.7 197.6,190.5 L197.6,190.5 Z M169.5,174.9 C178.5,177.9 189.9,184.9 204.2,182.3 C191.2,177.1 181.3,165.1 177.1,140.6 C176.2,145.4 174.3,155.3 171.3,156.3 C167.1,140 150.2,149.5 157,162.8 C139,174.5 119.3,181.2 100.6,190.3 C100.6,190.3 97.8,198.9 83.8,210.8 C81.2,197 85.4,176.8 82.7,162.4 L60.8,141.7 C61.1,145.6 61,148.1 60.8,152.7 C61.4,153.5 62.2,153.9 63.1,154.4 C64.5,234.3 62.6,313.2 62.6,385.7 C62.4,430.2 63.6,476.5 62.9,518.4 L62.1,519.9 L62.1,529.9 L84.5,508.6 C84.5,508.6 83.5,493.5 84.6,481.9 C98.7,484.7 111.9,491.4 123.7,498.7 C125.2,499.1 116.7,469.6 84.9,456.5 C84.9,456.5 84.6,447.3 84.6,427.3 C84.6,408 84.3,405.9 83.9,405.6 C82.6,407 66.3,412.5 65.5,411.6 C65.9,411.7 60.9,377.4 65.3,372.2 L80.9,372.5 C85.3,376.1 83.6,371.7 86.2,371 C87.7,370.6 94.9,373.4 94.9,373.4 C124.6,338.4 121.6,280.8 100.3,248.4 C94.8,252.8 89,258.8 83.6,261.4 C83.5,261.2 83.5,243.5 83.5,243.5 C111.8,225.3 142.7,172.6 140.7,172.4 C140.7,172.4 149.5,181 152.9,185.8 L124.9,226.3 C131.3,239.2 137.8,250.9 142,262.3 C142.6,263.8 144.3,263.8 144.8,265.4 C145.2,266.8 143.5,268.7 143.7,270.2 C149.6,292.8 150.9,316.8 145.1,338.5 C143.9,343.4 146.1,347.3 149.1,351 C149.4,351.3 146.3,348.4 146,348.2 C144.9,347.6 143.2,349.8 142.8,352.6 C143,354.3 144,354.6 145.2,356 C147.4,357.8 155.9,366.2 159.7,370.1 C163.1,373.5 163.9,373.7 166.2,371.3 C166.8,370.7 167.5,369.9 168.1,369.4 C168.2,369.6 169.1,368.7 169.3,368.4 L219.8,319.1 C225.7,313.4 169.3,370.9 169.3,370.9 C169.3,370.9 142,397.7 135.3,404.3 C128.4,411.1 127.4,412.6 127.2,413.1 C126.7,414 129.4,414 130.7,413.8 C130.8,413.8 129.7,414.1 128.5,414.1 C121.4,412.5 119,420.4 114.5,422 C102.6,430.4 110.6,444 121.9,439.5 L124.7,438.2 C131.6,451 141.5,474.2 146.1,494.4 L144.2,495.3 L114.5,540 L284,540 C271.8,527.9 261.5,513 250.9,501.9 C234,507 182.9,505.9 183.7,503.7 C183.7,503.7 176,472.4 171.6,457 C185.5,445.1 184.1,426.3 163.9,417.9 C178.6,406.3 193.4,402.4 207.8,401.4 C212.5,413.3 223.5,414 228.7,403.2 C228.7,403.1 248.2,409.2 255.4,415.8 C244.8,414.7 234.3,412.6 223.6,412.1 C233,415.8 242.5,425.5 245.6,436.5 C247.1,440.4 249.4,453.5 250,453.5 C250,453.5 253.6,438.5 256.3,439.3 C263.3,454 275.4,442.9 270.3,431.3 C288.2,422.8 308.3,413.2 324.7,405.3 C329.5,398.1 341.3,384.3 342.1,384.3 C342.1,384.3 363.8,259.9 363.8,218.3 C363.1,168.3 364.8,112.7 362.6,65.9 L362.6,52.5 L316.7,52.5 L284,100.6 C284,100.6 283.8,101.4 283.8,101.7 C288.3,121.1 294,137.6 303,155.6 C315.4,146.2 325.9,161.7 316.6,170.6 C314.8,172.3 315.3,172.7 317.1,173.9 C318.8,175.1 330.6,181 331.2,181 C333.3,177.8 334,173.2 335.4,169.6 C335.8,168.2 336.8,168.1 338.8,168.3 C341.4,168.6 341.4,169.7 341.3,152.9 L341.2,138.5 C325.3,131.2 304.2,112.5 303.2,93.2 C312.4,99.9 333.5,109.6 339.2,110.5 C341.7,111.2 341.3,106.9 341.4,105.1 C342.1,105.6 342.3,112.2 342.3,112.2 C333,109.4 328.1,110 304.7,96.4 C308.7,115.5 327.8,130.5 341.6,137.4 C341.6,137.4 342.2,146.5 342.2,156.6 C342.1,187.5 342.4,188.9 342.4,188.9 C342.4,188.9 350,187 352.1,185.9 C355.9,182.9 361.9,185.2 362.8,187.4 C364,199.1 362.8,209.9 362.6,221 C356.1,221.5 352.6,222.8 349.4,223 C347.3,222.7 346.1,222.7 345,221.5 C341.9,214.8 342.1,219.1 341.7,224.1 C341.4,225.6 333.7,223 332.9,222.6 C299.6,260.9 302.4,305.1 325,346 C328.7,343.5 335.2,338.7 341.6,335.5 C341.8,340.7 341.9,351.4 341.9,351.4 C315.8,370.5 284.6,421.2 285.6,421.4 L275,408.8 C275,408.8 281.7,398.2 284,395.4 C284.3,395.1 284.5,391.8 284.5,391.8 L300.7,368.4 C293.4,355.4 288.4,344.3 283.2,331.6 C282.9,330.5 281.6,325.9 281.9,325.5 C271.1,276.7 282.8,252.4 281.9,250.6 C281.9,250.6 281.8,249.6 281.5,249.4 C281.2,249.1 281.6,248.8 282,248.1 C282.8,246.8 284,244 283.6,243.2 C283.3,242.6 274.5,233.8 267,226.6 C263,222.8 263.2,222.4 261.2,224.4 C260.4,225.2 258.6,227.3 258.6,227.3 C231.5,252.4 209.9,275.3 182.7,302 L181.4,300.8 C221,261.4 261,222.5 300.2,182.7 L293.3,182.8 C293.5,182.3 293.8,181.8 294.2,181.7 C297.9,181.7 301.7,180.6 304.4,179 C310,174.8 318,169.3 318.7,163.8 C318.3,153.3 309.4,151.7 303,156.9 C294.1,140.9 287,121.6 283.2,103.5 C283,102.6 281.8,101.1 281.6,100 C283.5,94 313.9,52.7 313.9,52.7 L143.5,52.7 L175.9,91.3 C175.9,89.8 222.1,84.3 243.3,90.7 L256.2,136.5 C244.5,147.8 241,166.4 262.6,176.1 C263,177 260.6,178.5 260.6,178.5 C260.9,177.9 261.5,177.4 261.3,176.9 C255.5,174.4 249.3,167.9 249.3,167.9 C236.4,178 224.2,183.6 212.4,184.1 C212.4,184.1 218.7,188.3 219.9,193 C219.9,193 219.3,192.9 219.2,192.7 C217.9,191.1 215,186 212.5,184.6 C208.3,183.6 205.8,184.3 202.4,186.6 L197.9,191 C187.4,187.8 175.9,182.7 169.5,174.9 L169.5,174.9 Z M167.8,286.9 L172.5,282.2 C173,278.7 174,274.3 178,269.6 C182.4,264.3 187.3,259.3 190.9,254.6 C195.2,248.9 197.6,243.8 196.4,241.4 C202.9,240.2 208.8,234.5 209,224.2 C209.1,218.8 211.7,210.9 211.9,211 C211.9,211 256.9,209.5 287.9,179.9 C287.9,179.9 290.1,180.4 289.6,180.8 C277.9,192.6 265.4,201.2 250.6,206.7 L169.2,288 L167.8,286.9 Z M176.8,277.6 C178,276.4 178.3,276 177.6,275.4 C176.6,274.5 174.5,276.3 174.5,278.1 C174.5,279.3 175.4,278.9 176.8,277.6 L176.8,277.6 Z M181,273.5 C182,272.6 181.9,271.9 181.1,271.1 C180,270 178.4,270.7 177.9,272.5 C177.4,274.2 179.5,274.9 181,273.5 L181,273.5 Z M184.7,269.7 C185.2,269.1 185.6,268.5 185.6,268.4 C185.6,267.8 184,266.3 183.4,266.3 C182.5,266.3 181,267.8 181,268.6 C181,269.3 182.6,270.7 183.3,270.7 C183.6,270.7 184.2,270.3 184.7,269.7 L184.7,269.7 Z M188.2,262.7 C187.1,261.8 186.4,261.8 185.5,262.7 C184.4,263.8 184.6,264.9 185.8,266 C186.8,267 187.2,266.9 188.5,266.1 C189.6,265 189.8,264 188.2,262.7 L188.2,262.7 Z M192.3,262.1 C193.5,261.1 193.3,260.3 192,259 C190.6,257.6 189.6,257.6 188.6,259.1 C188.2,259.7 188.2,260.2 188.2,260.4 C188.2,260.9 190.5,263 191.1,263 C191.4,262.8 191.8,262.5 192.3,262.1 L192.3,262.1 Z M196.3,258.2 C197.3,257.1 197.2,256.4 195.7,254.9 C194.5,253.6 193.6,253.5 192.5,254.5 C191.4,255.5 191.6,256.6 192.9,257.9 C194.2,259.2 195.1,259.4 196.3,258.2 L196.3,258.2 Z M200.7,253.7 C201.4,252.9 201.3,253 200.7,252.1 C199.9,250.8 197.5,248.6 196.8,248.6 C196,248.6 195.2,250 195.2,251.3 C195.2,252.6 195.9,253.2 197.6,254.5 C198.7,255.4 198.4,255.5 199.2,255 C199.8,254.7 200.4,254.1 200.7,253.7 L200.7,253.7 Z M204.3,250.4 C205.9,248.6 205.6,248.2 201.7,244.2 C200.4,242.8 200.1,242.7 199.2,242.7 C198.3,242.8 198.2,243 197.8,243.9 C197,245.6 197.6,246.5 200,249.1 C202.5,251.8 202.9,252 204.3,250.4 L204.3,250.4 Z M208.2,246.2 C208.8,245.7 209.2,245 209.2,244.6 C209.2,243.9 206.1,240.4 205,239.8 C204.2,239.3 203.4,239.6 202.4,240.5 C201.8,241 201.8,241.2 201.9,241.7 C202.1,242.7 206.2,246.9 206.8,246.9 C207.1,246.9 207.7,246.7 208.2,246.2 L208.2,246.2 Z M212.2,242.4 C212.9,241.7 213.4,240.9 213.4,240.5 C213.4,239.7 210,235.8 209,235.3 C208.1,234.8 207.6,235 206.7,236.3 C205.7,237.7 206.1,238.4 208.1,240.7 C210,242.9 210.6,243.5 211,243.5 C211,243.5 211.5,243 212.2,242.4 L212.2,242.4 Z M215.9,238.4 C216.7,237.9 217.9,236.8 217.4,235.9 C216.9,235 211,228.7 210.4,228.4 C209.2,227.7 209.2,228.7 209.2,231.8 L209.2,233.4 L211.9,236.1 C215.8,239.9 215,239 215.9,238.4 L215.9,238.4 Z M220.7,234 C221.2,233.5 221.6,232.7 221.6,232.4 C219.1,229.4 212,220 210.7,220.3 C210.6,220.3 210.5,220.3 210.4,220.6 C210.1,221.5 209.9,223.5 210.2,225.1 C212.4,227.3 217.8,234.3 219,234.7 C219.7,235.1 220,234.6 220.7,234 L220.7,234 Z M224.5,230 C225,229.6 225.3,229 225.3,228.7 C225.3,228.4 224.5,227.4 223.7,226.4 C222.9,225.4 221.2,223.4 220,221.9 C213.3,213.5 212.8,212.9 211.8,213.8 C211.1,214.4 211,216.3 211.3,217.1 C211.9,218.4 219.2,227.2 221.6,229.5 C223.1,230.9 223.4,231 224.5,230 L224.5,230 Z M228.4,226.3 C229,225.8 229.4,225 229.4,224.7 C229.4,224.4 228.3,223 227.2,221.7 C226.1,220.4 224.2,218.1 223,216.7 C220,213 220,212.9 217.7,212.6 C214.3,212.2 214.8,213 218.6,217.5 C219.5,218.6 221.3,220.7 222.5,222.3 C225.4,225.9 226.6,227.2 227.2,227.2 C227.5,227.1 227.8,226.8 228.4,226.3 L228.4,226.3 Z M232.3,222.4 C234,220.9 233.7,220.5 228,214.6 C226.1,212.7 226,212.4 224.6,212.4 C223.1,212.4 222.7,212.7 222.7,213.4 C222.7,213.8 230.1,222.6 230.6,222.8 C231.3,223.1 231.4,223.1 232.3,222.4 L232.3,222.4 Z M236.5,218.2 C237,217.7 237.3,217 237.3,216.8 C237.3,216.2 235.7,214.1 234.2,212.8 C233.5,212.2 232.6,211.5 232,211.5 C231,211.5 229.4,212.1 229.1,212.5 C228.9,212.8 231.1,215.5 233.3,217.8 C234.7,219.3 235.3,219.4 236.5,218.2 L236.5,218.2 Z M240.1,214.5 C241,213.6 241,212.7 240.1,211.5 C239.4,210.6 239.2,210.5 237.8,210.5 C235.2,210.5 235.1,211.2 237.1,213.4 C238.6,215.1 239,215.6 240.1,214.5 L240.1,214.5 Z M244,210.7 C245,209.4 244.1,208.7 242.5,209.4 C242.1,209.6 241.9,210.1 241.8,210.3 C241.2,211.7 243,212 244,210.7 L244,210.7 Z M179,221.8 C175.2,224.2 168.9,228.7 164.6,231.7 C164.5,232.3 164.4,234 164.6,235.3 C167,233.6 174.8,228.7 178.4,225.8 C178.6,224.7 178.9,222.8 179,221.8 L179,221.8 Z M185.9,210.9 C185.8,210.3 185.4,210.7 184.2,211.6 C182.7,212.8 170.4,222 167.1,224.3 C165.9,225.2 164.7,225.9 164.5,226.2 C164.4,226.5 164.3,229 164.7,229.6 C167.4,227.6 180.1,219 180.3,218.8 C181.7,216.6 184.6,213 185.9,210.9 L185.9,210.9 Z M184.5,238.5 C184.5,238.5 169.4,256.7 164.5,265.8 C164.5,265.8 164.5,276.2 164.3,282.2 L163.5,282.4 C163.5,282.4 163.4,266.4 163.2,249 C162.7,205.6 162.3,195 162.3,195 L157.4,191.4 L157.2,189.7 C157.2,189.7 179,205 189.7,207.4 C181.8,219.5 174.6,224.2 184.5,238.5 L184.5,238.5 Z M166.5,260.2 C166.8,259.5 166.6,259.5 166,259.5 C165.5,259.5 165.3,259.9 165.3,260.4 C165.3,260.9 165.3,261.1 165.7,261 C166,261 166.4,260.6 166.5,260.2 L166.5,260.2 Z M170.2,254.8 C172.4,252.1 174.2,250.4 174.5,248.4 C173.1,248.6 165.1,254.3 164.9,254.9 C165,257.9 164.3,258.2 166.8,256.9 C167.8,256.3 168.7,255.6 170.2,254.8 L170.2,254.8 Z M170.9,248.2 C173.2,246.2 181.8,241.7 182.8,239.4 C183.2,238.4 182,237.4 181.8,237.5 C181.9,237.6 169.6,245.1 165,248.9 C164.6,249.4 164.7,250.3 165,251 C165.4,252.3 166.4,251.2 170.9,248.2 L170.9,248.2 Z M168,244.6 C170.6,242.9 176.6,238.7 178.1,237.7 C180.7,235.9 181.2,235.3 180.2,234 C179.8,233.5 179.3,233.2 178.5,233.5 C171.1,238.6 170.5,239.5 164.9,243.1 C164.5,244.1 164.6,245.6 165.2,246.1 C165.6,246.2 166.3,245.7 168,244.6 L168,244.6 Z M168,239.1 C174.7,234.2 178.3,231.8 178.6,231.2 C178.9,230.6 178.9,228.3 178.5,228.1 C176,230 169.3,234.1 164.7,237.8 C164.6,238.6 164.4,240.3 164.8,240.6 C165.7,241 166,240.5 168,239.1 L168,239.1 Z M167.2,221.5 C172.1,217.9 176.6,214.7 181.7,211.3 C186,208.4 186.7,207.8 185.1,206.9 C184.5,206.6 183.4,206.1 182.6,206.4 C176.9,211 170.5,215.5 164.4,220 C164.2,220.7 164.4,222 164.4,222.6 C164.3,223.5 165.5,222.7 167.2,221.5 L167.2,221.5 Z M166.5,216.3 C166.9,215.9 169.5,214.3 172.2,212.3 C179.5,207 180.4,206.5 180.4,205.9 C180.4,204.4 178.3,204 176.4,205.6 C172.9,208.5 164.4,213.7 164.4,214.5 C164.4,215.6 164.2,216.7 164.5,217.1 C164.9,217.7 165.5,217.2 166.5,216.3 L166.5,216.3 Z M168.6,209.1 C176,203.9 175.7,204.2 175.7,203.2 C175.7,202.4 175,202.7 173.8,202.7 C172.7,202.6 172.7,202.9 170.7,204.5 C166.4,207.8 164.8,208.7 164.3,209.7 C164.2,210 164.1,211.2 164.3,211.5 C164.9,211.9 165.5,211.3 168.6,209.1 L168.6,209.1 Z M169.1,204 C170.6,202.8 171.7,201.9 171.8,201.6 C172,201 170.9,200.1 170.1,200.1 C169.2,200.1 168.5,200.6 166.3,202.5 C164.3,204.2 163.9,203.8 164.1,204.8 C164.2,205.4 164.2,206.6 164.4,206.8 C164.8,207.3 165.9,206.7 169.1,204 L169.1,204 Z M166.1,200.6 C167.7,199.3 168,199 166.9,197.9 C165.9,196.9 164.7,196.6 164,197.2 C163.7,197.7 164,200.4 164,201 C163.8,201.9 165,201.5 166.1,200.6 L166.1,200.6 Z M199.8,172 C199.8,171.4 202.5,169.4 204.6,169 C207.2,168.4 210.5,168.7 212.8,169.9 C214.8,170.9 216.9,173.3 213.7,171.8 C210.8,170.5 204.5,170.5 202.2,171.5 C200.6,172.4 199.8,172.6 199.8,172 L199.8,172 Z M197.8,162 C198,161.8 200.8,162.5 202.3,162.9 C206.3,164 209.7,163.3 213.9,162.1 C214.9,161.8 215.4,162.5 214.8,163 C212.6,164.5 209.9,165.4 207.4,165.6 C202.1,166.1 196.4,163.4 197.8,162 L197.8,162 Z M171.8,154.2 C174.1,153.1 176.8,137.6 175.9,134.9 C173.1,139.1 170,141 165.6,140.3 C158.4,139.1 158.1,130.2 163.7,129.3 C165.9,128.9 168.7,130.4 169.1,130.1 C171.5,129 173.3,121 173.9,118.4 C174.3,115.9 175,108.8 175.1,106.6 C175.3,101.8 175.1,94.8 175.1,94.8 L139.9,52.7 L62.8,52.4 C62.8,52.4 62.6,111.4 62.7,141.6 L84.5,162.6 L84.8,196.5 C109.2,185.8 132.8,174.7 155.9,162.6 C153.2,159.4 153.3,151.3 158.2,148.3 C165.5,143.6 171.5,149.5 171.8,154.2 L171.8,154.2 Z M191.1,161.4 C191.3,159.5 192.7,157.9 192.8,156 C192.8,155.6 193.1,155.1 194.3,155.7 C195.8,156.5 196.3,155.9 197.9,155.2 C200.9,153.8 201.8,153.8 204.1,154.8 C205.6,155.6 206.1,155.6 207.5,154.9 C209.4,153.6 211.5,153.2 213.1,153.8 C215.6,154.7 216.5,155.2 217.9,154.5 C218.6,154.1 219.5,152.8 219.7,152.9 C220.7,154.4 220.5,156.9 221.2,158.2 C222.4,160.5 221.9,162.2 220.5,161 C217.6,158.6 215.3,158.6 211.2,159.6 C208.8,160.2 207.5,160.7 204.8,160.3 C196.5,159.3 195.9,159.6 194.2,160.7 C192.7,161.7 191.4,161.8 191.1,161.4 L191.1,161.4 Z M213.5,146.2 C211.1,145.6 208.3,143.4 206.3,144 C203.8,144.2 202.4,141.3 203.7,139.7 C205.9,137.6 209.2,139.7 210.5,140.7 C213.3,142.8 213.7,143 214.9,143 C219.6,142.9 218.7,138.5 216.4,136.9 C215.1,135.5 214.9,134.6 215.2,134.2 C215.7,133.6 217,134.1 218.5,135.7 C221.3,138.3 221.4,143.6 217.9,145.2 C216.3,146.2 215.2,146.7 213.5,146.2 L213.5,146.2 Z M223.3,131.1 C221.1,129.5 217.2,126 216.2,124.7 C214.5,122.6 213.8,121.2 214,119.5 C214.2,118.2 214.4,117.4 213.5,116.9 C212.6,116.4 211.7,114.4 211.9,113.4 C212,113.1 213,113.3 213.6,114.1 C214.4,114.2 214.2,113.8 215.1,113.2 C224,107.2 231.2,108.4 239.6,112.5 C242.1,113.7 248.5,118.5 245,117 C244.8,116.9 242.5,115.9 240.3,114.8 C233,111.3 224.8,109.2 218.1,113.7 C216.9,114.5 216.3,115.1 217.2,115.1 C220.9,114.4 224.6,112.8 228.5,113.1 C234.2,113.2 237.7,116 242,118 C246.7,120.1 247.6,120.8 245.9,122.5 C245.4,123 245,123 242.8,122.8 C240.4,122.6 240.2,122.7 238.8,123.6 C235.2,125.9 230.6,127.1 226.5,126.8 C221.6,126.4 221.1,126 221,126.7 C220.9,127.2 222,127.9 223.4,129.2 C224.5,130.2 226,131.7 226.1,131.9 C226.5,132.4 224.7,132 223.3,131.1 L223.3,131.1 Z M222,123.3 C222,122.7 220.9,120.2 220.3,119.6 C219.7,119 219.2,119.2 217.9,120.1 C216.9,120.8 216.8,121.3 217.7,122.1 C219.6,123.8 222,124.3 222,123.3 L222,123.3 Z M229.3,123.6 C231.3,122.6 233.3,119.3 232.3,118.2 C231.8,117.5 231.3,118.2 230.3,120 C229.8,120.9 229,122 228.6,122.2 C227,123.3 224.9,122.3 224,119.8 C223.5,118.3 222.9,117.4 222.3,117.9 C221.2,118.9 222.5,122.6 224.7,123.6 C226,124.2 227.9,124.3 229.3,123.6 L229.3,123.6 Z M235.4,123.1 C237.4,122.5 238.3,121.6 238.2,120.7 C238.1,120 236.6,119.1 235.7,119.1 C235.3,119.1 234.4,119.1 234.1,119.5 C233.4,120.4 232.3,123.1 232.3,123.4 C232.5,124.1 233.1,123.8 235.4,123.1 L235.4,123.1 Z M242.3,108.2 C232.4,104.4 224.6,102.9 215.1,106.9 C212.1,108.2 210.4,108.3 210.2,107.3 C210.1,106.4 212.2,103.7 214.6,102.5 C221.2,99.5 229.1,99.2 235.7,102.4 C238.2,103.6 245.1,108.6 245.1,109 C245.1,109.5 244.5,109.1 242.3,108.2 L242.3,108.2 Z M358.3,219.4 C360.7,218.1 361.7,215.7 360.3,214.3 C359.9,213.9 359.3,213.9 358.8,213.9 C358,213.9 351.8,215.6 350.6,216.2 C349.8,216.6 350.1,217.4 350.9,218 C351.2,218.3 351.5,219 351.6,219.7 C351.7,220.6 351.5,221.5 352.1,221.3 C353.3,221 355.3,220.7 358.3,219.4 L358.3,219.4 Z M349.5,221.6 C350.2,220.4 349.9,218.7 348.1,217.7 C347.2,217.2 346.5,217.5 345.7,218.5 C344,221.8 348.4,223.1 349.5,221.6 L349.5,221.6 Z M340.7,223.1 C341.1,219 340.9,206.9 340.9,206.9 C340.9,206.9 338.7,208.8 337.3,208.8 C337.8,207 338.4,206.4 339.2,204.7 C339.7,202.9 339.9,199.6 339.8,197.8 C339.7,195.8 338.2,195.7 339.7,192.1 C340.5,190.2 340.6,188.3 339.6,186 C339.2,184.9 339,184.2 340.1,182.8 C341.1,181.5 340.7,180.8 340.7,178 C340.7,174.1 340.7,173.5 339.5,176.6 C337.7,179.2 336.9,178.7 334.3,178.4 C331.7,184.2 328.7,190.3 328.6,195.3 C328.5,198.4 328.5,198.9 330.4,205.5 C331.1,208 331.4,208.8 331.4,211.7 C331.4,214.5 331.6,215.5 332.1,217.1 C332.8,219.8 335.9,224.4 340.7,223.1 L340.7,223.1 Z M250.6,484.1 L250.6,478.3 C250.6,478.3 241.3,481.2 236.5,479.4 C231.6,478.1 231.6,477.8 231.7,478.4 C231.9,479.3 235.5,481.3 238.8,482 C241.2,482.6 245.9,482 248.2,481.3 C249.5,480.9 249.7,481.3 249.1,481.7 C243.4,486.2 236.1,484.1 231.6,480.4 C229.2,478 227.5,478 228.9,481.2 C235.2,493.8 250.8,486.4 250.6,484.1 L250.6,484.1 Z M244.3,475.4 L246.4,475.5 C246.4,475.5 245.7,471.8 244.6,470.7 C242.4,468.5 239.2,468.8 237.2,471 C236.3,472 235.6,475.5 235.6,475.5 L237.3,475.5 C238,473.9 240.7,466.2 244.3,475.4 L244.3,475.4 Z M235.8,469.8 C234.6,469.5 231.9,470.7 230.7,471.5 C230.2,472 230.2,472.1 230.8,472.8 C232,474.4 233.9,475.2 234.1,474.6 C234.6,473.8 236,470.1 235.8,469.8 L235.8,469.8 Z M249.9,473.9 C250.2,472.8 249.1,470.8 247.4,470.1 C246.7,469.9 246,469.8 246.2,470.6 C246.4,471.5 246.9,473 247.4,473.9 C247.7,474.6 248,475 248.7,474.7 C249.2,474.6 249.7,474.4 249.9,473.9 L249.9,473.9 Z M340.9,396.6 L340.9,386.7 C335.9,391.8 329.4,400.2 327.4,403.4 L340.9,396.6 Z M188.5,124.3 C190.6,123.4 192.2,120.6 191.6,119.2 C191.3,118.3 190.4,119 189.5,120.3 C188.1,122.4 187.7,122.6 186.5,122.6 C185.2,122.6 184.6,122.2 183.7,120.5 C183.1,118.8 182.6,118.5 182,119.3 C181.7,119.6 181.8,120.1 182.1,121.4 C183.1,124.6 185.5,125.6 188.5,124.3 L188.5,124.3 Z M194.3,123.3 C196.6,122.5 197.1,122.2 197,121.5 C196.9,120.7 195,119.6 194,119.8 C193.2,120.3 191.3,123.4 191.4,124 C191.6,124.3 192.4,123.9 194.3,123.3 L194.3,123.3 Z M180.8,121.9 C180.7,121.2 180.6,120.5 180.4,120.2 C179.6,119.3 178.1,119.9 178.1,121.1 C178.1,122 179.3,123 180.4,123 C181,123 180.9,123.2 180.8,121.9 L180.8,121.9 Z M194,116 C197.3,117.3 199,117.4 197.2,115.7 C194.7,112.9 183.3,109.8 177.1,114.3 C176.7,114.9 176.7,117.3 177.2,117.2 C182.3,113.8 188.7,114 194,116 L194,116 Z M182.6,106.5 C179.8,107.4 177.2,108.9 176.8,110.3 C176.3,112.5 177.2,112.5 180.9,111.4 C185.6,109.9 190.9,110.6 194.9,112.9 C198,115.1 198.9,114.4 198.3,112.5 C196.7,106.2 187.1,105.1 182.6,106.5 L182.6,106.5 Z" id="Shape" fill="#131F67" fill-rule="nonzero"></path>
            <path d="M362.5,66.8 L341.9,87.2 L342.2,111.4 C344.3,115.2 310.4,100.6 305,96.1 C305.6,112.2 327.7,130.6 342,137.4 L342.4,188.7 C342.4,188.7 348.2,186.5 351.3,185.4 C353.6,184.6 359,184.7 360.8,183.8 C363.6,148.6 366,102.9 362.5,66.8 L362.5,66.8 Z M247.8,92.0990347 C245.8,92.0990347 244.6,92.7 244.6,94 C244,93.9 252.2,124.2 256,136.8 C248.7,144.2 241.1,156.9 252,168.8 C254.3,171.3 258.6,173.5 262.6,175.9 C264.4,177.6 240.5,193.1 219.2,193.1 C212.4,178.1 202.8,186.4 197.6,191.6 C193.5,191.2 178.2,182.1 170.3,176.9 C170.2,176.8 170.3,174.6 170.3,174.2 C170.8,177.8 201,185.5 202.4,181.9 C201.5,181.9 188.9,173.3 185.2,164.9 C180.6,155.4 176.8,142.3 176.8,142.3 C175.1,147.1 175.7,153.9 171,156.3 C169.6,140.5 147.1,148.6 158.3,164 C152,165.8 146.6,169.1 140.5,171.8 C153.3,189.2 170.9,200.8 189.5,207.6 C187,212.8 172.6,224.6 184.5,238.4 C185,238.8 173.1,251.8 167.3,262 C162.9,269.6 164.2,275.5 164.7,275.7 C180.8,257.2 189.9,241.6 189.9,241.6 C189.8,243.7 209,242.6 208.7,225.2 C209.1,220.5 210,215.4 211.8,211.1 C241.2,212.5 266.5,202 287.9,180 C287.9,180 292.2,181.2 295,181.7 C296.4,181.9 298.3,181 298.6,180.9 C299.8,180.8 301.6,180.6 303.3,179.7 C305.6,178.4 307.9,176.2 310.3,174.2 C313.5,171.6 316.7,169.1 317.8,166.4 C319.1,163.4 318.1,159.9 317,156.7 C310.1,148.6 305.6,157.3 302.6,156.2 C292,141.9 283.2,101.3 281.8,101 C275.9,99.7 255.7,92 247.8,92.0990347 L247.8,92.0990347 Z M175.4,119.8 C174.6,119.8 171.8,132.5 169.3,132.4 C158.7,125.6 158.5,139.7 167.6,139.1 C175.3,138.5 179.6,126 175.4,119.8 C175.4,119.8 175.4,119.8 175.4,119.8 L175.4,119.8 Z M62,143.8 C62.3,220.5 63.7,297.2 65.5,373.9 C72.4,372.2 77.5,370.9 84.3,373.9 C84.9,352 83,297 83.5,243.7 C109.4,223.6 127.6,201.3 140.4,172.3 L100.8,190.8 C100.8,190.8 87.9,209.3 83.7,210.5 C83.1,207.9 82.4,176.5 83,163 L62,143.8 Z M149.9,191.2 L142.1,202.4 C142.1,202.4 142.3,241 142.7,259.6 C143,263.3 146.4,266.7 143.7,270 C145.3,270 152.5,320.1 145.7,340.4 C144.5,344 145.6,346.6 147.5,347.4 L162.3,362.4 C167,363.9 171.5,363.3 175.4,362.4 C189.4,349.6 209.3,327.1 209.3,327.1 L156.6,277.3 C152.3,265.5 149.9,191.2 149.9,191.2 L149.9,191.2 Z M341.8,352.3 C303.7,380.8 287.3,421.4 287,421.1 C287.1,421.6 286.8,423.2 289.2,421.9 C299.1,416.6 324.4,405 324.4,405 C330.4,397.8 335.1,390.8 342,383.9 C342,383.9 342.7,415.3 342.1,431.1 C348.3,435.7 363.1,450.2 363.1,450.2 C363.1,450.2 367.2,226.9 358.4,221.2 C349.9,222.9 345.6,226 342.4,216.1 C340.2,261.6 342.4,307.2 341.8,352.3 L341.8,352.3 Z M259,226.7 C249.8,234.2 218.2,265.2 218.299763,265.5 C226.7,279.6 259.8,307.7 275.7,323.5 L278,403.7 C280.3,400.6 282,397.6 284.6,394.5 C284.6,394.5 284.2,353.9 283.2,334.8 C282.9,329.2 281.6,324.7 282,324.2 C277.5,301.1 275.7,275.6 282,250.8 C266.9,237.9 262.2,229.3 259,226.7 L259,226.7 Z M261.5,318.3 C261.4,318.3 261.4,318.3 261.5,318.3 C253.7,329.4 238.8,353.4 237.8,353.4 C237.5,352.7 222.5,353.3 219.6,362.8 C217.2,369.8 217,376.3 215.3,383.6 C185.2,382.6 163.1,392.1 139.8,413.6 C133.2,413.9 127.4,414.4 123.3,415.9 C119.9,417.2 118.1,419.4 116,420.9 C110.1,425.2 108.5,428.8 108.8,433.3 C109.3,441.4 123.6,442.5 124.4,436.8 C125.1,436.8 138.4,467.1 139.7,472.3 C142.8,480.6 146.2,496.3 146.6,496.3 C151.9,496.6 181.9,505 182,502 C184.8,500.8 171.6,457.4 171.6,457.4 C194.8,438 169.2,417.2 163.2,418 C176.4,408.6 191.5,402.3 208.2,401.5 C210.8,410.8 222.8,415.5 228.8,403.2 C228.8,403.2 254.7,412.5 254.6,415.6 C243.9,414 235.1,413.2 224.4,412.1 C244.9,423.2 245.5,437.9 249.7,452.5 C250.3,449.9 255.7,438.6 255.7,438.6 C262.7,454 275.9,443.3 270.4,430.9 L286.8,423.3 C288.7,422.3 262.2,392.6 238.1,388.3 C239.3,386.1 239.8,384 241,382.2 C247,376.3 251.7,367.6 242.5,357.2 C248.6,348.7 262.7,328.1 261.8,327.8 C261.9,327.6 262.2,318 261.5,318.3 L261.5,318.3 Z M63.5,413 C63.5,413 63.2,484.3 63.3,519.7 C62.7,521.2 62.3,529 62.3,529 L84.2,508.4 L84.9,481.8 C90.6,480.4 126.3,498.5 123.5,498.4 C126.2,497.3 107,461 84.6,457 C84.2,436.5 84,413.2 83.4,407 C75.6,408.4 63.5,413.1 63.5,413 L63.5,413 Z M258.2,455.9 C252.1,457.7 249.5,470.6 251.5,476.9 C251.9,478.1 251.6,478.3 252.6,477.2 C255,473.7 254.2,466.7 258.5,463 C269.6,466.3 268.5,451.8 258.2,455.9 L258.2,455.9 Z" id="Shape" fill="#E2CF00" fill-rule="nonzero"></path>
            <path d="M374.1,570.7 L374.1,564.1 L380,564.1 L380,528.7 C380,528.7 380,520.2 380.4,519.1 C385,503.6 410.2,504.6 411.5,518.5 C412,520.9 411.9,528.7 411.9,528.7 L405.2,528.7 C405.2,528.7 405.2,526.2 405.1,524.4 C406,509.7 388.1,512.7 387.2,522.6 C386.8,524.4 386.8,528.7 386.8,528.7 L386.8,564.1 L393.7,564.1 L393.7,570.7 L374.1,570.7 L374.1,570.7 Z M116.1,540 L145.1,496.1 C179.8,507.7 215.1,507.9 250.9,502.2 L282.9,540 L269.8,540 L249.7,511.3 C242.4,513 234.8,513.7 227.3,514.8 L236.7,540.1 L226.5,540.1 L219.1,515.1 C201.7,515.8 189.9,514.2 177.9,512.8 L173.6,540.1 L163.2,540.1 L170.2,511.9 C162,510.4 153.7,509 146.9,506.8 L125.5,540 L116.1,540 Z M149.3,514.2 L161.4,517.5 L155.5,540 L133.5,540 L149.3,514.2 Z M180.5,540 L183.9,520.1 C192,521.7 202.6,522 213.7,521.9 L218.9,540 L180.5,540 Z M237.5,521.5 L247,519 L261.2,540 L243.9,540 L237.5,521.5 Z M312.8,536.5 C302.8,516.3 289,498.7 274.1,482 C288.7,466.7 300.9,449 312.7,428.9 C324.4,449.2 337.9,468 352.8,482.8 C336.4,499 323.9,516.7 312.8,536.5 L312.8,536.5 Z M393.7,500.1 C388.9,492.2 383.1,484.3 376,476.4 C382.5,469.1 388.2,461.3 393.3,453.1 C399.2,462.1 405.2,469.9 411.5,476.7 C404.8,484 399.3,492.1 393.7,500.1 L393.7,500.1 Z M98.8,394.8 C145.2,340.9 139,284.3 113.4,238.6 L118.8,233 C148.4,281.7 154.7,350.9 100.1,404.5 C99.6,401.2 98.8,394.8 98.8,394.8 L98.8,394.8 Z M283.7,334.3 C290.4,345.6 294.4,357.1 301.5,368.5 L284.8,391.1 L283.7,334.3 Z M84.2,370 C83.8,334.4 84.3,262.3 84.3,262.3 L99.9,250.3 C118.6,273 128.8,332.9 95.2,372.8 C92.8,371.1 86.2,371.8 84.2,370 L84.2,370 Z M306.4,362.8 C263.5,290.4 285.3,237.6 326.7,190.8 C326.8,194.4 327.1,198 327.4,201.6 C291.9,242.3 277.7,302.4 312.5,356.8 L306.4,362.8 Z M228.7,352.3 L248.2,325.7 C248.2,325.7 251.9,315.1 255,312 L258.6,308.8 C259.8,310 262.1,311.4 262,312.7 C261.9,314 260.1,320.6 260.1,320.6 L237.2,354 C237.2,354 230.3,352.8 228.7,352.3 L228.7,352.3 Z M332.6,223.1 C333.2,222.4 341,225.6 341,225.6 L341.5,335 L326,345 C321.4,347.3 286.2,275.5 332.6,223.1 L332.6,223.1 Z M169,269.2 C176.1,259.6 183.5,251.2 190.4,242.4 C192.2,243 196.8,243.1 196.8,243.1 C197.3,243.4 195.2,250.4 190.2,255.3 C185.1,260.5 173,274.7 172.6,281.9 C172.5,284.1 167.5,286.6 167.5,286.6 L164,282.9 C165.1,277.4 166.7,273.3 169,269.2 L169,269.2 Z M124.9,227.2 L140.5,207 L142.1,260.6 L124.9,227.2 Z M71.7,108.2 C86.5,92.4 99.6,74.3 112,55.6 C123.3,74.2 135.8,93.2 151.5,108.6 C137.2,124.2 123.7,143 111.9,161.6 C100.6,143.5 87.9,124.8 71.7,108.2 L71.7,108.2 Z M12.6,113 C19.6,106.2 25.5,98.6 30.3,90.4 C35.8,98.7 40.9,107.3 48.3,114.1 C41.5,121.3 39.4,123.6 30.2,137.2 C24.9,128.7 19.5,120.3 12.6,113 L12.6,113 Z M175.8,91.1 L145,52.6 L159.9,52.6 L178.3,79.8 L200.3,77.3 L192.6,52.6 L201.7,52.6 L208.1,76.9 C221.6,77.2 234.8,78.3 247.5,79.5 L254.1,52.5 L263.4,52.5 L255,80.7 L279.8,87.2 L301.9,52.4 L312.9,52.4 L281.6,97.3 C240.5,85.2 207.6,86.6 175.8,91.1 L175.8,91.1 Z M11.1,71.5 C10.6,68.1 10.5,64.7 11.1,61.5 L17.8,61.5 C17.8,61.5 17.8,64 17.9,66 C17.9,79.2 33.7,77.5 36,69.2 C36.8,66.3 36.7,61.6 36.7,61.6 L36.7,26.5 L29.9,26.5 L29.9,19.7 L49.9,19.7 L49.9,26.5 L43.7,26.5 L43.7,61.5 C43.7,61.5 43.7,61.6 43.7,62.3 C43.8,64.4 43.9,69.5 42.8,71.8 C36.4,87.5 13.2,83.9 11.1,71.5 L11.1,71.5 Z M264.7,75 L271.7,52.6 L292.7,52.6 L276.6,78.2 L264.7,75 Z M213.8,69.6 L209.4,52.7 L246.4,52.7 L241.6,71.6 C231.9,69.9 222.9,69.6 213.8,69.6 L213.8,69.6 Z M169.5,52.6 L184.3,52.6 L190.1,70.1 L181.6,71.1 L169.5,52.6 Z" id="Shape" fill="#D40000" fill-rule="nonzero"></path>
            <path d="M140.2,50.1 L175.9,92.8 C183.3,90.1 220.8,85.9 243.3,91 C247.2,106.3 251.4,121.8 255.7,135.8 C255.7,135.8 254.3,137.4 253.3,138.5 C238.9,155 249.1,171 262.2,176.2 C259.8,181.1 234.7,193.4 219.3,191.9 C219.3,191.8 214.6,180.7 205,184.4 C201.7,185.7 200.4,188.2 197.8,190.6 C188.6,187.8 176.5,181.8 170.3,175.2 C182.1,181.1 193.7,184.2 205.3,182.7 C205.3,182.7 203.9,181.5 202.2,180.7 C201.2,180.3 198.8,178.8 196.9,177.5 C191.5,173.9 187.9,169.5 184.2,162 C179.9,154.4 179.2,146.2 176.9,139 C175.7,142.7 175.1,152.5 171.9,154.5 C171.1,155.1 170.9,154.9 170.3,152.8 C167.8,145.3 158.8,146.2 155.8,151.6 C154.3,156.2 154.5,158.2 156.4,162.5 L150.9,165.5 L150.9,166.4 L147.5,168 L146.8,167.5 C131.2,175.1 115.8,182.9 99.8,190.2 C99.8,190.2 91.3,204.3 83.6,209.9 L83.3,162.1 L60.3,141.4 L60.2,152.8 C60.2,152.8 61.3,153.9 61.8,154.5 C62.1,234.5 61.8,313.1 61.9,385.7 L62,452.5 L60.6,452.6 L60.5,460.4 L62.1,460.7 L61.9,471.7 L61.1,471.8 L61,478.8 L62.3,479 L62.3,518.3 L61.1,519.9 L61.1,531.1 L85.1,508.3 L85.6,482.4 C104.5,486 124.3,499.6 124.3,499.6 C121,477.9 98,460 84.7,456.4 L84.7,405 C84.7,405 74.9,409.1 70,409.7 C67.6,410 66.7,409.7 65.5,407.9 C64.7,406.6 64.6,405.5 65.4,402.9 C65.8,401.7 65.7,401.4 65.3,400.1 C64.7,398.4 64.7,397.6 65.3,394.5 C65.9,392.7 65.7,391.7 65,390.1 C64.3,388.3 64.2,388 64.5,387 C65.3,384.3 65.3,383.9 64.9,382.7 C64.1,380.3 64.1,378.6 64.8,377.1 C68.3,371.2 76.3,372.6 80.6,372.8 C82.8,375.2 84.1,376.6 84.3,373.1 C85.8,368.9 91.7,373.2 94.5,375 C118,343.4 129.7,300.8 100.1,247.3 L84,260.4 L84,243.9 C105.8,229.9 130.3,198.1 140.9,173 C144.4,177.1 148.5,181.2 152.3,185.4 L149.8,189.6 L149.1,189.2 C142.3,202.1 124,226.5 123.7,226.2 C130.5,238.8 136.5,251.5 141.7,264.4 L143,263.8 L144.2,267.7 L141.8,268.4 C149.8,294.8 150.1,319.2 144,341.7 L145.4,347.7 C145.4,347.7 153.9,355.9 156.2,358.4 C162.2,364.2 168.9,370.7 168.9,370.7 L176.7,363.1 L176.2,362.4 L244.2,294.9 L248.4,299 C206.7,341 134.3,413.4 134.3,413.4 L131.8,413.8 C130.4,414 128.3,414.1 126.9,414 C124.7,413.8 124.4,413.9 122.6,414.7 C120.6,415.6 119,417.1 116.7,419.7 C115.7,420.9 115,421.4 113.9,421.8 C99.7,430.3 112.5,447.3 124.6,438.3 C133.4,455.2 140.9,474.9 145.1,494.3 C145.1,494.4 143.5,495 143.5,495 L112,542.1 L124.2,542.1 L125.5,539.9 L116.3,539.9 L145.5,497.6 C182.7,507.7 216.9,509.2 251.5,503.2 L281.7,539.9 L269.7,539.9 L271.4,542.1 L286.9,542.4 L251.4,500.5 C238.7,503.9 205.2,506.6 184.2,503.1 C181,487.5 175.7,470.5 171.8,457 C191.9,441.3 176.8,420.6 164.4,417.7 C163.8,416.6 189.5,400.9 207.8,402 C213,414.6 224.5,412.7 228.6,403.4 C236.2,406.2 246,409 253.9,415.2 C243.5,412.9 231.4,411.7 221.4,411.5 C240.3,418.8 245.6,434.3 248,448.9 C248.4,451.3 249.7,454.4 249.7,454.4 C251.3,449.1 252.6,443.7 255.8,439.2 C257.3,444.4 262.6,448.4 268,445.3 C271.1,443 272.2,439.1 271.2,433.7 C270.9,432.2 270.8,431.4 270.8,431.4 L275,429.1 L275.5,429.6 C275.5,429.6 280.1,427.6 282.4,426.5 C282.8,426.3 282,425.6 282,425.6 L324.5,405.6 C324.3,405.5 335.2,390.7 341.5,384.9 C341.7,402.7 341.6,410 341.6,431.1 L344,433.4 C346.1,435.5 350.8,439.8 361.2,449.4 C363.6,451.6 365.2,452.6 365.2,452.6 L364.9,141.5 L364.6,141.5 L364.6,135.5 L365.1,135.5 L365.1,119.9 L364.7,119.6 L364.7,114.7 L365.3,114.3 L365.3,72.3 L364.6,72.2 L364.6,62.1 L341,87.2 L341.2,110.8 C330.6,109.4 317.6,102.7 308.6,97.2 C305.7,95.4 304.1,95 304.2,96 C305.5,110.1 325.8,131.6 341.5,137.2 L341.5,190.1 C341.5,190.1 345.2,188.3 347.5,187.3 L347.8,188.2 L352.8,186.1 L353.2,185 L357.6,184.4 C357.7,185.3 357.8,185.2 357.8,185.2 C361.7,186.3 363.4,189 361.9,191.9 C361.3,192.9 361.2,194.3 361.7,194.7 C363.4,197.4 363.8,199.7 361.8,202.2 C361,203.5 361,204.2 361.8,205.6 C363.9,209.9 362.7,209.6 361.1,212.1 C360.7,214 362.8,215.3 362.1,217.1 C361.8,218.3 360.5,219.7 359.7,220.3 C358.7,221 357.9,219.7 357.9,219.7 C357.9,219.7 354.7,221.1 352.5,221.5 C350.3,222.2 346.4,223.5 345.1,220.5 C344.3,218.8 345,217.2 344.9,215.3 L341.6,214.9 L341.5,223.6 C339.6,224.6 332.2,220.8 332.2,220.8 C300.2,262.2 301.1,308.2 324.8,346.7 C325,347.3 341.5,335.4 341.5,335.4 C341.5,335.4 341.5,345.1 341.6,350.4 C320.7,367.7 300.4,391 286,419.7 L277,409.1 C278.5,407.7 278.6,405.6 278.6,403.9 L285.1,394.2 L285.2,391.7 L302.1,368.1 C302.4,369.5 284.6,336.4 282.3,325.6 L283.5,325.3 C275.5,295.2 277.2,274.2 282.9,249.6 L281.3,248 L258.8,226 C257,227.7 255.2,229.4 253.4,231 C253.1,231.3 251.8,231.1 251.5,231.4 C239.8,242.4 228.5,253.5 217.3,264.9 C217,265.2 217.5,266.4 217.2,266.7 C206,278.2 194.4,289.2 183.1,300.7 L179,296.8 C219.1,256.7 294.7,182.2 294.7,182.2 C294.7,182.2 295,181.6 295.5,181.6 C297.6,181.5 299.5,181 301.6,180.4 C304.1,179.8 304.5,179.6 305.5,178.6 C306.1,177.9 307.2,177 307.8,176.5 C308.9,175.7 311.4,173.6 315.3,170.2 C317.7,168.1 319.2,165.1 319.1,162.4 C319,157.6 315.8,153.5 311.7,152.9 C310,152.7 306.7,153.5 305,154.7 C303.7,155.6 303.1,156 302.5,155.6 C294.3,139 286.3,118.1 283,100.9 C282.8,99.8 282.9,99.5 283.8,98.1 C284.4,97.2 285.6,95.4 286.5,93.9 C293.8,83.3 302.3,70.5 310.3,58.9 C311.6,57 314.2,53.3 314.2,53.3 L316.1,50.1 L303.5,50.1 L301.9,52.6 L312.3,52.6 L281.4,97.1 C224.5,78.5 177.8,90.3 176.7,90.5 L145.9,52.6 L160,52.6 L158.3,50.1 L140.2,50.1 Z M167.9,50.1 L169.5,52.6 L184.3,52.6 L183.5,50.1 L167.9,50.1 Z M192.5,52.6 L201.6,52.6 L201.1,50.1 L191.8,50.1 L192.5,52.6 Z M208.8,50.1 L209.4,52.6 L246.4,52.6 L247.1,50.1 L208.8,50.1 Z M254.1,52.6 L263.4,52.6 L264.1,50.1 L254.8,50.1 L254.1,52.6 Z M272.4,50.1 L271.6,52.6 L292.6,52.6 L294.2,50.1 L272.4,50.1 Z M362.4,67.3 L362.7,74.2 L347.5,90.2 L347.5,112.5 L343.1,111.5 L342.9,88.4 L362.4,67.3 Z M358.1,82 C358.2,88.8 357.1,95.4 358.9,102.3 C359.8,105.7 361.6,109.7 361.8,113.8 L356.8,113.7 C356.2,111.7 355.9,109.4 355.2,106.9 C353.4,100.7 351.9,94.1 353.2,87.6 L358.1,82 Z M249,93.1 C249.2,93.4 249.8,96.3 250.3,99 C252.9,113.7 256.4,124.6 260,135.7 C264.6,149.7 271.3,167.3 277.9,175.5 C278.8,176.5 279.2,177.7 278.9,178.2 C278.4,179.1 275.7,177.9 273.9,176 C273.2,175.2 271.8,173.1 270.7,171.1 C268.4,166.8 265.3,160.6 265,159.6 C264.9,159.2 263.7,156.1 262.3,152.7 C259.9,146.8 258.5,142.8 256.5,136.2 C254.9,131 253.5,125.5 251.7,120.1 C248.8,111.1 247.2,104 245.6,95.8 C245.4,94.6 245,93.2 245.1,92.9 C246.1,92.1 248.5,92.4 249,93.1 L249,93.1 Z M250.6,93.7 C250.3,93.5 253.2,93.4 254.1,94.2 C254.4,94.5 254.9,96.2 255.3,98.4 C257.9,111.9 261.8,125.9 266.4,139.1 C270.1,149.7 274,159.9 279,168.1 C280.6,170.8 282.7,173.8 285.4,177 C286.9,178.8 287,179 286.6,179.5 C286.1,180.1 285.2,180 283.6,179.2 C282,178.5 280.3,176.8 278.8,174.5 C278.3,173.7 277.4,172.5 277,171.9 C269.7,159.2 265.2,147.2 261.2,134.9 C257.1,122.4 253.3,109.7 250.8,95.1 C250.6,94.7 250.6,94.2 250.6,93.7 L250.6,93.7 Z M259.8,95.6 C260.4,96.3 260.8,97.5 261.4,100.1 C264.4,112.6 267,123.8 270.6,134.1 C272.5,139.6 274.2,145.2 276.3,150.4 C279.6,158.7 283.7,166.3 288.7,172.6 C290.3,174.7 293.3,177.2 295.9,178.7 C297.6,179.7 297.9,180 297.8,180.6 C297.6,181.1 295.9,181.4 295.4,181.3 C292.7,180.8 288.6,178.7 287.4,177.1 C279,168 273,153.2 268.6,141 C261.1,120 255,93.8 256.2,94.6 C256,94.1 259,94.8 259.8,95.6 L259.8,95.6 Z M263.4,96.4 C263.7,96.4 264,96.4 264.3,96.5 C265.9,96.9 266.1,97.2 266.4,98.9 C269.1,110.9 271.9,121.5 275.1,131.5 C278.3,141.7 281.7,151.4 286.8,161.5 C290.6,168.9 295.4,174 300.6,176.6 C302.1,177.3 303.4,178.1 303.5,178.2 C303.6,178.3 303.6,178.7 303.4,179.1 C303.1,179.6 302.8,179.7 301.5,179.7 C299.2,179.7 297.5,178.9 295,177.2 C288.4,172.7 282.6,162.3 280.1,156.5 C277,149.4 274.1,141.9 271.6,133.8 C267,119.3 264.1,109.7 262,97.4 C262.1,96.7 262.6,96.3 263.4,96.4 L263.4,96.4 Z M362.4,116 L362.4,120.2 C345.8,121.3 328.7,114.3 315,107.9 C325.3,121.6 336.4,133.8 362.4,136.3 L362.4,140.7 C328.5,140.2 304.6,105.9 305.8,97.3 C319.8,106.3 345,116.7 362.4,116 L362.4,116 Z M268.8,98 C269.6,98 270.7,98.4 271.1,98.8 C273.9,109.1 275.9,120.6 280.5,132.2 C286.1,146.4 289.3,158.9 299.7,170.6 C302.9,173.9 309.3,173.8 309.3,173.8 C309.3,173.8 308.5,175.6 307.4,175.9 C305.2,176.2 303.5,176.3 301.9,175.8 C295.9,173.2 291.2,166.8 288.8,162.4 C286.6,159.1 281.1,145.6 276.6,131.8 C271.7,116.8 267.7,101.2 268.1,98.1 C268.4,98 268.5,97.9 268.8,98 L268.8,98 Z M274.4,99.7 C274.8,99.7 275.3,99.8 276,100.2 C276.7,100.5 277,100.7 277.3,102 C277.5,102.8 277.5,104.1 277.9,106.2 C280.3,117 283.5,125.8 286.7,134.3 C289.8,142.4 293.1,150.4 297.1,157.6 C299.2,161.2 301.2,164.6 302.5,165.9 C306,169.4 311.9,169.6 313.7,166.1 C314.7,164.1 314.5,161 312.6,159.4 C311.1,158 307.7,158.6 307.7,160.3 C307.7,160.8 308.5,160.5 309.8,160.4 C313.2,160 314.3,166 309.9,167 C304.4,168.3 300.5,160.8 305.4,156.2 C313.7,150.6 320,158.3 318,165.6 C316.1,170 313,172.2 308.8,172.3 C303.4,172.5 301.2,170.8 295.7,162.8 C289.4,152.6 286.6,142.7 282.2,131.6 C278,121.1 275.2,109.9 273.8,100.1 C273.7,99.9 274,99.7 274.4,99.7 L274.4,99.7 Z M279.6,101.4 C280.1,101.4 281.1,101.7 281.6,102 C281.9,102.2 282.3,102.5 282.3,102.5 C289.7,129.6 295.9,145.8 302.2,157.3 C302.2,157.3 302.1,159.4 301.7,160 C301,161.1 300.6,160.8 299.6,159.1 C295.6,151.4 291.8,142.9 288.3,134.2 C284.2,123.9 280.5,113.3 278.9,103.1 C279,101.9 278.7,101.5 279.6,101.4 L279.6,101.4 Z M329.7,116.9 C330.7,116.9 331.6,117.7 331.6,118.8 C331.6,119.9 330.7,120.7 329.7,120.7 C328.6,120.7 327.8,119.8 327.8,118.8 C327.8,117.8 328.7,116.9 329.7,116.9 L329.7,116.9 Z M175.4,116.6 C173.2,119.6 171.4,130.3 169.1,130.5 C166.6,130.5 163.5,129 161.5,131.3 C159.1,134.1 160.6,137.1 163.5,138.8 C164.9,139.5 167.8,139.6 169.5,139.1 C176.8,136.7 179.5,125 175.4,116.6 L175.4,116.6 Z M336.9,119.4 C338.4,119.4 339.6,120.6 339.6,122.2 C339.6,123.7 338.4,124.9 336.9,124.9 C335.4,124.9 334.2,123.7 334.2,122.2 C334.2,120.6 335.4,119.4 336.9,119.4 L336.9,119.4 Z M175.5,120.7 C178,126.9 175.2,134.3 172.2,136.8 C169.4,139.1 165.1,139.4 162.6,137.1 C160.5,135.2 161.5,130.5 165.3,130.9 C166.6,130.9 168.1,132.1 169,133.4 C171.6,133.6 174.4,120.9 175.5,120.7 L175.5,120.7 Z M346.5,122.2 C348.2,122.2 349.6,123.6 349.6,125.3 C349.6,127 348.2,128.4 346.5,128.4 C344.8,128.4 343.4,127 343.4,125.3 C343.4,123.6 344.8,122.2 346.5,122.2 L346.5,122.2 Z M357.5,124.4 C359.2,124.4 360.7,125.8 360.7,127.6 C360.7,129.4 359.3,130.8 357.5,130.8 C355.7,130.8 354.3,129.4 354.3,127.6 C354.3,125.8 355.7,124.4 357.5,124.4 L357.5,124.4 Z M255.3,138.8 C255.8,138.8 256.1,139.3 256.4,140.2 C257,142.1 257,142.3 256,143.6 C246.3,157.1 255.1,170.9 269.2,172.4 C270.4,172.5 271,173.8 271.6,175.4 C271.5,176.1 271.5,176.1 268.3,176.2 C266.2,176.2 264.5,176.1 263.5,175.8 C258.6,174.5 252.5,170 250,165.9 C247.2,161.1 246.7,156.2 248.4,149.6 C249.5,145.4 251,142.6 253.2,140.3 C254.2,139.3 254.8,138.8 255.3,138.8 L255.3,138.8 Z M347.6,140.3 L347.8,186.5 L342.9,188.3 L343.1,139.1 L347.6,140.3 Z M356.9,142.1 C363,157.3 363.3,171.3 357.8,184 L352.2,184.8 C359.9,166.9 356.6,154.1 352.3,141.7 L356.9,142.1 Z M62.6,144.6 L82.5,163.4 L83.2,372.8 L80,371.7 L78.7,165.7 L62.5,150.9 L62.5,144.6 L62.6,144.6 Z M257.1,145.2 C257.1,145.2 257.2,145.2 257.2,145.2 C257.7,145.3 258.2,145.9 258.7,147.2 C259.2,148.7 259.2,148.7 258.6,150.2 C255.9,156.9 258.1,163.3 264.8,165.3 C266.4,165.8 266.7,166.1 267.6,168.1 C268.2,169.4 268.5,169.9 268.2,170.1 C267.9,170.4 267,170.5 264.4,169.9 C254.4,166.5 250.7,155.5 255.3,146.8 C255.9,145.8 256.4,145.3 256.9,145.2 C257.1,145.2 257.1,145.2 257.1,145.2 L257.1,145.2 Z M177.2,144.4 C177.2,144.4 179.3,151.8 179.1,153.5 C178.6,156.8 173.9,161.9 169.9,163.8 C166.2,165.2 160.5,164.5 158.1,162 C149.5,151.9 165.5,141.8 169.6,152.3 C172,159.2 162.2,160.8 161.7,155.5 C161.7,154.1 162.1,153.7 163.4,152.8 C164.5,152 164.4,151.3 163.4,151.3 C159.7,152.7 159.6,156.1 161.3,158.2 C164.7,161.7 168.8,159.7 171.7,157.1 C175.5,153.8 176.3,148.8 177.2,144.4 L177.2,144.4 Z M260.3,152 C260.5,152 264.4,161.4 265,162.8 C264.9,163.7 263.8,163.7 262.1,162.4 C260.3,161.2 259.8,160.3 259,157.4 C258.8,156.4 258.4,152.7 260.3,152 L260.3,152 Z M180.4,156 C181.3,156 182.2,159.2 181.8,160.8 C181.1,163.6 173.7,168.4 168.5,169.4 C167.5,169.6 166.3,169.8 166,169.9 C164.9,170.1 163.7,169.5 162.4,168.2 C161.5,167.3 161,166.3 161.3,166.1 C161.5,165.9 163.9,166.3 165.9,166.3 C171.6,166.4 175.9,162.3 179.3,157.5 C179.6,156.6 180.2,156 180.4,156 L180.4,156 Z M67.8,158.4 C67.8,158.4 71.6,161.9 73.7,163.9 C73.5,173.1 70.1,183.1 70.1,191.4 C70.2,198.6 74.8,204.6 75.3,210.8 C75.6,214.8 74.4,220.8 72.4,225.4 C70.5,229.6 69.6,234.1 69.6,238.5 C69.8,248.7 77.2,259.9 74.6,270 C72.2,279.5 69.4,285 70.2,290 C71.6,299.7 76.8,308.3 75.4,316.4 C74.1,323.9 70.7,331.4 71.1,338.2 C71.5,346 74.5,352.6 75.3,359.7 C75.8,364.4 74.5,371.6 74.5,371.6 L69.1,372 C72.1,361 67.7,351 66,340.5 C64.6,331.5 68.6,324.3 69.8,316.6 C70.6,311.8 69.7,307.3 67.3,301.2 C62.6,290 64.3,282.7 67.7,272.9 C71.9,262.5 66.1,254.2 64.7,244.3 C64,235.7 64.5,229.6 67.8,222 C70.2,214.6 70.9,210.4 67.3,203.3 C65,198.8 64.4,196.2 64.4,190.3 C65.4,178.7 68.5,172.1 67.8,158.4 L67.8,158.4 Z M182.9,163 C183.7,163 184.2,163.6 184.2,164.8 C184.2,167 181,169.7 175.2,172.4 C172.2,173.8 170.5,174 168.8,173.2 C167.2,172.4 167.3,171.8 169,171.2 C173.5,169.9 176.7,168.1 180.3,164.9 C181.4,163.9 182.6,163 182.9,163 L182.9,163 Z M157,164.5 C171.8,180.3 186.3,188.5 197.4,192.3 L195.7,196.4 C181.1,190.8 166.3,182.9 153.7,166 L157,164.5 Z M185.5,167.1 C185.9,167.1 187.4,169 187.4,169.5 C187.4,169.8 186.8,170.8 186.2,171.6 C185.2,172.9 184.4,173.5 181.9,174.8 C178.6,176.6 176.6,177.1 175.2,176.3 C173.8,175.5 174.2,174.9 177.8,172.8 C179.6,171.7 182.1,170 183.3,168.9 C184.4,168 185.4,167.1 185.5,167.1 L185.5,167.1 Z M146.3,169.4 C158.4,186 174,197 192.4,202.9 L189.5,206.8 C172.7,201 156.4,190.6 141.4,172.2 L146.3,169.4 Z M188.6,171.5 C189.2,171.5 190.6,173 190.6,173.7 C190.6,174 190.3,174.6 190,175 C189.4,175.8 186,178.4 184.5,179.1 C183.4,179.7 182.5,179.7 181.3,179.1 C179.8,178.4 180.1,177.8 182.5,176.2 C183.7,175.5 185.4,174.1 186.4,173.1 C187.4,172.3 188.4,171.5 188.6,171.5 L188.6,171.5 Z M139.9,172.7 C139.6,173.1 122.1,213.2 85,241.6 L84.8,234.9 C105.3,218.6 120.2,196.3 131.5,176.9 L139.9,172.7 Z M192.1,175.6 C192.7,175.6 193.1,176 193.4,176.7 C193.9,177.6 193.4,178.4 191.3,180 C190,181 189.5,181.2 188.5,181.2 C185.7,181.1 185.8,180.5 188.8,177.8 C190.4,176.3 191.4,175.6 192.1,175.6 L192.1,175.6 Z M263.7,177.6 L271.4,178.2 C273.5,179.6 241.2,200.8 218.8,198.9 L219.4,193.8 C239.1,194.3 264.3,178.5 263.7,177.6 L263.7,177.6 Z M197.4,179.5 C199.2,180.5 201.4,181.7 200.8,182.1 C200,182.6 194.7,182.3 193.5,181.6 C192.6,181.1 192.7,180.9 193.9,179.5 C195.5,177.8 195.8,178.6 197.4,179.5 L197.4,179.5 Z M128.6,178.3 C116.4,199.9 101.8,219.6 84.9,232.5 L84.6,221 C100.7,208.6 112.8,186 112.9,186 L128.6,178.3 Z M281.9,179.6 L285.6,181.8 C262.2,203.4 237,212.7 212.8,210.4 L214.8,206 C254.1,209.1 280.2,180.1 281.9,179.6 L281.9,179.6 Z M287.6,180.4 C287.6,180.4 288.9,180.2 288.7,180.5 C280.9,188.1 270.3,196.2 263.3,200.7 C230.3,234.6 202,261.4 173.3,291.6 L168.7,286.8 L172.9,282.4 C172.9,273.7 183.6,263.9 189.9,256.4 C192.5,253.4 197.5,245.8 196.9,242.6 C196.7,241.9 196.7,241.6 196.7,241.6 C206.7,239.6 209.1,231.5 209.3,224.3 C209.8,219.5 210.4,215.2 212,211.2 C257.2,214.9 286.3,181.6 287.6,180.4 L287.6,180.4 Z M208.8,185.4 C213.9,185.4 217.8,189.4 217.8,195.2 C217.8,197.6 216.9,199.4 213.7,205.8 C210.5,211.2 210.1,214.6 208.9,220.8 L205.7,217.9 L199.9,223.2 L200,215.5 C200,215.5 202,212.9 205.3,209.3 C209.4,204.7 213.2,198.8 213,195.5 C212.9,192.2 209.4,189.5 205.8,191.6 C202.7,193.8 201.3,197.7 199.4,209.5 C199.1,211.6 198.8,214 198.6,214.6 C198.1,216 193.6,220.3 193.6,220.3 C193.2,220.3 191.4,211.6 191.4,211.6 L186.8,212.4 C192.1,206.7 196.2,199.8 198.8,192.5 C201.2,188.1 204.3,185.5 208.8,185.4 L208.8,185.4 Z M109.7,187.2 C109.7,187.2 100.6,206 84.7,218.3 L84.6,210.9 C93.8,203.7 100.9,191.4 100.9,191.4 L109.7,187.2 Z M327.9,187.7 C296.4,220.3 255.4,280.3 306.3,364.6 L313,356.8 C272,280.6 301,241.1 328.1,201.4 L327.9,187.7 Z M157.8,190.4 C167,197 176.6,203.5 189.1,207.6 C188.4,209.8 171.3,224.2 183.6,237.5 C184.1,238.2 182.8,239.9 180.8,242.3 C174.9,250.3 169.1,256 164.2,265 L164,281.9 L159.1,277.6 L157.8,190.4 Z M326.7,192 L326.9,201.7 C280.1,258.5 285.4,309.7 311.8,356.8 L306.7,361.9 C263.5,287.3 290.5,231.1 326.7,192 L326.7,192 Z M211.4,197.7 C209.3,203.1 200.3,212.5 200.3,212.5 C200.3,212.5 201.5,203.4 202.2,200.5 C202.8,198.3 204.1,195.4 205.4,193.9 C209,189.9 212.6,194.5 211.4,197.7 L211.4,197.7 Z M149.3,192.6 L150.2,268.7 L143.6,262.1 L142.6,203.9 L149.3,192.6 Z M140.4,207.5 L141.7,259.2 C135.1,243.7 125.9,226.8 125.7,226.9 C125.8,226.9 133.3,216.9 140.4,207.5 L140.4,207.5 Z M192.3,223.7 C192.3,223.7 193.3,222.9 194.9,221.1 C198.3,217.7 198.6,217.6 198.3,222.3 C198.2,224.1 198.3,226.4 198.3,226.4 C200.3,225.2 205,219.7 206.3,220.7 C207.3,221.7 208.2,223.7 208.2,226.8 C208.1,232.9 204.6,238.5 199.1,240.4 C184,245.1 173.8,227.6 184.3,216.5 C185.3,215.4 188.3,213.4 189.8,213.8 C191.6,216.9 191.5,220.5 192.3,223.7 L192.3,223.7 Z M342.7,218.2 C343.6,220.6 344.7,223 347.8,224.1 C347.3,298.1 347.7,429.2 347.7,429.2 L362.6,443.2 L362.5,449.3 L342.8,431.2 C342.7,431.1 341.6,276.6 342.7,218.2 L342.7,218.2 Z M357.5,221.6 C358,228.8 356.8,236.3 358,243.7 C359.2,248.8 361.1,253.4 361.2,258.4 C361.3,263 361,265.6 359.1,272 C357.7,276.5 357.6,277.2 357.3,281.6 C356.6,287.8 358.6,293.4 360.1,298.4 C362.1,305 361.6,312.9 358.3,323.4 C357.1,327.2 356.9,328.7 357.1,332.2 C357.6,339.4 360.1,346.2 361.4,353.2 C362.1,357.2 361.4,362.5 358.9,371.4 C358,374.7 357,380.5 357,382.7 C357,385 357.8,389.5 358.5,391.4 C361.9,400.4 362.1,402.1 362.3,407.5 C362.3,411.6 361.1,415.7 359.7,419.3 C357.3,425 358.9,430.9 359.7,437.4 L353.8,432.3 C352,426.8 352.7,421.6 354.3,417.5 C356.6,411.1 357.2,410.5 357.2,406.7 C357.2,401.8 354.3,396 353.2,392.5 C351.1,386.4 351.1,380.3 353.2,373.8 C354.2,370.6 355.7,364.4 356,361.8 C356.6,356.9 356.2,353.1 353.7,343.3 C352.5,338.5 352.3,336.7 352.2,331.9 C352.1,327.5 352.8,322.9 354.2,317.6 C356.2,309.1 356.2,304.1 353.6,296.2 C351.5,289.7 350.9,285.3 351.4,280.2 C351.7,277.2 352.5,274.4 353.9,271.6 C356.4,265.3 356.8,259.2 354.9,253.1 C351.6,240.7 351.7,234.4 352,223.2 L357.5,221.6 Z M340.8,225.6 C340.3,276.3 340.8,334.4 340.8,334.4 C340.8,334.4 325.8,344.9 325.8,344.4 C306.4,312.5 299,265.4 332.9,223 C332.9,223 338.3,225.4 340.8,225.6 L340.8,225.6 Z M112.2,237.7 C139.6,288.9 143.2,340.6 97.9,393.6 C99.4,398.3 99.1,402.7 98.4,406.9 C107.2,400 178.1,329.3 118.4,230.7 L112.2,237.7 Z M251.9,233.6 L265.4,234.4 L266.3,246 L261.9,250.3 C261.9,250.3 261.8,247.9 261.8,245.8 C261.7,243.2 261.4,240.9 261.1,241 C260.9,241.1 260.6,244.1 260.4,247.4 L260.2,252.4 L258.7,253.9 C256.7,255.9 256.3,255.8 256.2,252.9 C256,246.8 256,246.3 255.6,246.8 C255.4,247.1 255.2,249.2 255.1,252.3 C255.1,254.8 254.9,257.2 254.7,257.7 C254.4,258.6 251.8,260.9 251.2,260.9 C250.6,260.9 250.6,260 250.6,256.2 C250.6,253 250.3,251.2 249.7,252.4 C249.6,252.7 249.4,255.9 249.3,258.5 C249.2,261.1 249.1,263.5 248.9,263.8 C248.3,264.9 245.7,267.1 245.2,266.9 C244.5,266.6 244.4,264.7 244.4,261.5 C244.4,259.9 244.6,258.6 244,258.2 C243.4,257.8 243.3,259.6 243.5,264.2 L243.5,269.2 L241.8,271 C239.1,273.8 238.9,273.6 238.9,268.9 C239,265.1 238.9,263.5 238.1,263.8 C237.4,264.1 237.6,265.9 237.8,269.6 C237.9,272.9 237.9,274.6 237.7,275 C237.5,275.3 236.7,276.3 235.8,277.2 C234.9,278 233.8,279.2 233.7,279.2 C233.5,275.2 233.1,266.6 233.1,266.6 L219.1,266 C219.1,266 222,262.6 223.2,261.9 C223.8,261.6 224.8,261.5 228.3,261.7 C230.7,261.8 233.9,261.6 234.2,261.5 C235.3,261.1 233.1,260.7 230,260.5 C227.9,260.4 227.4,260.4 225.1,260.1 L227.1,258 L228.6,256.5 L233.1,256.6 C235.8,256.7 237.8,256.7 238.1,256.5 C240.7,256 238.3,255.4 235.2,255.4 C232.3,255.4 230.6,255.4 230.6,254.7 C230.6,254 233.9,251.1 234.8,250.9 C235.3,250.8 237.7,250.7 240.1,250.7 C244.3,250.7 245.8,250.6 245.6,249.9 C245.4,249.2 242.6,249.4 240.7,249.3 C235.5,249.3 235.3,249.1 238.8,246 L240.5,244.5 L243.7,244.6 C248.6,244.7 250.9,244.5 250.9,244.1 C250.9,243.7 247.7,243.3 245,243.3 C243.4,243.3 242.1,243.3 242.1,243.3 C243.3,241.7 244.6,240.5 246,239.1 L250.4,239 C253.6,239 255.5,239.2 255.6,238.6 C255.7,238 254.5,238 253,238 C251,238 248.7,237.8 248.4,237.5 C248.1,237.2 248.7,236.2 250.1,235 L251.9,233.6 Z M118.6,233.7 C156.3,295.2 142.7,361.7 100.7,403.1 L99.5,395 C139.1,346.8 146.1,297 114,238.5 L118.6,233.7 Z M188.6,242 C181.8,252.2 171.5,262.2 167.6,270.5 C166.8,271.4 166.5,273.5 165.3,274 C164.7,274 164.5,272.8 164.6,270.1 C164.7,268.1 164.9,267.4 165.9,265.4 C171.2,255.7 177.4,248.7 184.2,239.4 L188.6,242 Z M190.2,243 L196.5,243.4 C195.1,247.8 193.2,251 191,253.8 C188.2,257.5 184.8,261.2 180.8,265.7 C175,272.3 172.2,278.9 172.4,281.9 C171,283.4 170,284.5 168.1,286 L164.5,282.6 C167.2,268.8 180.3,256.1 190.2,243 L190.2,243 Z M266.7,248.6 L268.7,248.7 C275.6,249.1 280,249.5 280.2,249.8 C280.4,250 280.6,251 280.7,252.2 C280.8,253.9 280.7,255 279.8,259 C279.2,261.7 278.6,264 278.3,264.2 C277.5,265 277.2,264.2 276.8,260.4 C276.6,258.1 276.5,256.5 276.2,256.7 C276.1,256.8 275.7,259.2 275.8,261 C276,265.7 276,266.9 274.5,268.3 C271.9,270.8 271.8,270.5 271.6,266.1 C271.5,264.3 271.1,261.6 270.9,261.5 C270.3,260.9 270.2,263.5 270.2,267.8 L270.2,272.4 L269,273.7 C267.4,275.4 266.9,275.7 266.3,275.1 C265.9,274.7 266.1,273.9 266.1,271.3 C266.1,268.2 265.6,266.4 265,267 C264.9,267.1 264.9,270.1 264.9,272.7 C264.9,275.3 264.9,277.6 264.8,277.8 C264.7,278.4 261.8,281.4 261.3,281.4 C260.7,281.4 260.2,278 260.2,275.2 C260.2,273.4 259.8,273 259.4,274 C259.3,274.2 259.2,276.8 259.2,279.2 L259.2,283.4 L257.5,285.2 C255.2,287.6 254.8,287.4 254.8,284.2 C254.8,281.4 254.6,279.9 254,279.9 C253.7,279.9 253.6,281.2 253.6,284.4 C253.6,286.6 253.5,288.7 253.3,289.1 C253.1,289.6 252.4,290.5 251.6,291.3 C250.9,292.1 250.1,292.7 249.9,292.7 C249.6,292.7 249.1,290 249.2,288.9 C249.2,288.7 249.2,287 249.2,285.2 C249.1,280.9 249.4,281.1 242.6,280.9 C234.5,280.7 234.4,280.6 236.8,278.3 C239.1,276.1 238.8,276.2 244.1,276.5 C248.4,276.8 248.9,276.8 249.3,276.3 C249.6,276 249.7,275.8 249.6,275.7 C249.5,275.6 247.9,275.5 246,275.4 C240.7,275.1 240.2,274.7 242.5,272.5 L243.8,271.2 L249.2,271.2 C252.9,271.2 255.4,271 255.5,270.8 C255.9,270.2 254.4,270.1 250.9,269.9 C249,269.8 247.3,269.6 247,269.6 C246.1,269.3 246.4,268.4 247.9,267 L249.3,265.6 L254.1,265.6 C258.5,265.6 260.7,265.3 260.7,264.7 C260.7,264.3 259.8,264.1 257.5,264.1 C254.3,264.1 252.1,263.7 252,263.3 C252.8,261.8 253.9,260.9 255.2,259.7 L260.1,259.9 C265,260.1 266.5,259.9 266.5,259 C266.5,258.6 264.4,258.2 261.7,258.4 C260,258.5 257.8,258.1 257.8,257.5 C257.8,257.2 258.5,256.3 259.4,255.5 L261,254 L265.8,254.2 C268.5,254.3 271.3,254.3 271.5,254.1 C272.3,253.6 270.4,253.1 267.5,253 C262.9,252.7 262.6,252.4 265,250.1 L266.7,248.6 Z M100.3,251.1 C125,295.4 121.3,337.1 95,372.5 C92,370.7 88.8,369.8 85.3,369.4 L84.6,262.5 L100.3,251.1 Z M277.1,268.4 C277.6,268.3 277.6,269.1 277.4,270.9 C277.3,272.3 277.1,273.7 276.9,274.1 C276.6,274.8 276.4,274.9 274,274.5 C271.3,274.1 271.3,273.6 274.3,270.7 C275.8,269.3 276.7,268.5 277.1,268.4 L277.1,268.4 Z M144.4,270.4 C144.4,270.4 147.7,270.4 149.3,270.4 C149.3,270.4 149.6,278.7 150.2,283.5 L160.8,284 L156.7,288.3 L148.7,288.1 C148.7,288.1 146.2,276.3 144.4,270.4 L144.4,270.4 Z M270.6,275.4 C272.1,275.4 276,276 276.5,276.5 C276.9,276.9 276.9,277.7 276.6,283.1 C276.5,285 276.4,289.2 276.3,292.3 C276.3,298 276.3,298 275.6,298.1 C274.7,298.2 274.6,297.9 274.4,294.2 C274.3,292.1 274,290.3 273.7,290.2 C273.4,290.1 273.5,292 273.5,295.8 L273.5,300.7 C272.7,301.4 271.9,302.3 270.9,302.8 C270.3,302.8 270,301.9 269.7,299.3 C269.4,296.7 269.1,294.9 268.8,295.5 C268.7,295.6 268.8,298.4 268.9,300.7 L269.2,304.9 L267.3,306.8 C265.4,308.7 265.2,308.9 264.8,308.4 C264.1,306.5 265.1,297.8 263.4,296.7 C263.1,296.6 260.8,296.5 258.2,296.4 C253.7,296.2 251.2,296.1 250.6,295.6 C250.2,295.3 252.3,292.8 253.4,292.3 C254.2,291.9 255.1,291.9 258.8,292.2 C263.1,292.5 265.2,292.4 264.7,291.9 C264.6,291.8 262.4,291.4 260.7,291.3 C257.3,291 256.1,290.6 256.1,290 C256.9,288.6 257.9,287.7 259.1,286.5 L260.8,286.7 C261.7,286.8 263.9,287 265.6,287.2 C267.3,287.4 270.8,287.4 269.4,287.3 C269.9,286.8 268.1,286.4 265.6,286.1 C260.9,285.5 260.5,285 262.9,282.7 L264.3,281.3 C266.7,281.5 269.2,281.6 271.6,281.9 C273.4,282.2 274.3,282.1 274.3,281.5 C274.3,281.1 273.4,281.1 271.3,280.7 C270.5,280.5 266.5,280.6 266.5,279.4 C267.2,277.9 268.9,275.6 270.6,275.4 L270.6,275.4 Z M162.1,285.5 C162.8,285.5 162.8,287.2 162.9,291.8 C163,296.8 163.1,297.7 163.5,298.1 C163.9,298.5 164.9,298.7 169.3,298.9 C176,299.2 176.2,299.3 173.8,301.6 C172.2,303.2 172.1,303 170.7,302.8 C167.1,302.4 161.9,302.5 161.7,302.8 C161.3,303.4 161.7,303.5 165,303.7 C169,304 170,304.1 170,304.8 C170,305.1 169.3,306 168.5,306.7 L167,308.1 L163,308 C158.6,307.8 156.4,307.8 156.4,308.4 C156.4,308.8 158.9,309.2 162.9,309.6 C163.9,309.7 165,309.7 165,309.9 C165.1,310.3 163.1,312.8 161.9,313.7 C160.9,314.4 160.6,314 156.2,313.9 C151.7,313.8 151.3,314 152.2,314.8 C152.4,315 153.1,315 154.8,315.1 C157.5,315.3 158.9,315.7 158.9,316.4 C158.9,317.1 156.4,319.6 155.3,320.2 C154.3,320.7 153.8,320.7 151.6,320.4 C149.8,320.1 149.5,319.8 149.5,318.1 C149.5,317.3 149.7,312.4 149.8,307.2 C150.1,297.1 150.1,296.6 151.5,296.8 C152.1,296.9 152.2,297.6 152.4,301 C152.6,304.6 152.7,305.4 153.3,305.4 C153.5,305.4 153.6,304 153.4,300.4 C153.2,294.9 153.2,294.1 154.8,292.5 C155.5,291.8 156.1,291.2 156.5,291.7 C157.2,293.9 157,296.2 157.2,298.4 C157.2,300.6 158,301 158.2,298.9 C158.1,295.6 158.1,292.7 158.1,289.2 L160.1,287.2 C161,286.2 161.7,285.5 162.1,285.5 L162.1,285.5 Z M149,289.6 C149.8,289.5 154.3,289.5 155,289.7 C153.9,291.5 151.5,293.8 149.8,294.8 C149.3,294.8 148.9,290.5 149,289.6 L149,289.6 Z M276.6,299.5 L277.6,306.2 L270.2,305.7 L276.6,299.5 Z M177.5,300.6 C177.5,300.6 177.6,300.6 177.6,300.6 C178.1,300.8 178.3,302.1 178.5,308.4 C178.6,311.3 178.8,313.7 179,313.9 C179.2,314.2 180.1,314.3 181.8,314.3 C183.2,314.3 185.8,314.4 187.6,314.5 C191.5,314.7 191.6,314.9 189.3,317.2 L187.7,318.8 L182.8,318.6 C177.7,318.4 176.9,318.5 176.9,319.2 C176.9,319.7 177.8,319.9 179.4,319.9 C180,319.9 181.7,320 183,320.1 C186,320.4 186,320.6 183.8,323 L182.2,324.7 L180.7,324.5 C178.2,324.2 171.7,324.2 171.3,324.6 C170.7,325.2 171.5,325.5 174.4,325.7 C179,326 179.8,326.1 179.8,326.6 C179.8,326.8 179.2,327.7 178.4,328.5 L177,329.9 L171.2,329.6 C167.1,329.5 165.7,329.6 165.6,329.9 C165.4,330.4 166.1,330.5 170.3,330.9 C174.4,331.3 174.9,331.7 173.4,333.7 C171.7,335.8 171.1,336 167.9,335.7 C164.4,335.4 160.8,335.4 160.3,335.7 C159.5,336.2 160.3,336.6 162.8,336.7 C166.6,337 168.8,337.4 168.8,337.9 C168.8,338.5 167.5,340.1 166.3,341.1 L165.3,341.9 L161,341.4 C156.7,341 154.5,341.2 155.1,341.8 C155.3,342 156.9,342.2 158.6,342.4 C161.8,342.6 163.4,343.1 163.4,343.7 C163.4,343.9 162.6,344.9 161.6,345.9 C160.6,346.9 159.4,347.6 159.4,347.6 L146.1,346.4 C146.1,346.4 145.4,344 146.8,337.6 C148,331.8 148.5,330.5 149.1,331.6 C149.3,331.9 149.4,333.3 149.5,334.3 C149.8,336.6 150.3,338.1 150.7,338.1 C151.1,338.1 151.1,336.7 150.6,333.5 C149.9,329 149.8,328.8 151.6,327 C153.1,325.4 153.9,325.1 154.4,325.8 C154.5,326 154.7,328.1 154.9,329.8 C155.2,332.8 155.4,333.5 155.8,333.1 C156.1,332.8 156.2,332 156,327.5 L155.6,323.1 L157.5,321.1 C159.3,319.3 159.5,319.2 159.8,319.6 C160,319.9 160.3,321.8 160.4,324 C160.6,327.3 160.9,328.4 161.3,327.9 C161.5,327.7 161.4,320.1 161.2,318.4 C161,317.3 161.1,317.1 162.6,315.5 C164.3,313.6 165.2,312.8 165.7,312.8 C166.3,312.8 166.7,314.7 166.7,317.2 C166.7,319.9 166.9,320.9 167.2,321.3 C167.8,322.2 167.9,319.1 167.8,316.2 L167.6,310.7 L169.4,308.9 C171.1,307.2 171.2,307.1 171.7,307.6 C172.1,308 172.1,308.9 172.2,311.7 C172.4,315.5 173.2,317.4 173.4,314.7 C173.5,314.1 173.5,312.9 173.4,312.1 C173.3,311.3 173.2,309.4 173.2,307.9 C173.2,305.7 173.3,305.1 173.9,304.2 C174.4,302.6 176.7,300.7 177.5,300.6 L177.5,300.6 Z M254.2,304.7 C254.2,304.7 257.2,307.2 257.2,308 C257.2,308.3 256,309.7 254.4,311.3 C251.5,314.2 251.2,314.7 250.9,317.7 C250.8,318.9 250.2,320.4 248.8,323.1 C247.8,325.2 246.3,327.6 246.3,327.6 C241.6,333.2 237.2,338.3 229,350.1 C228.5,351.2 228.5,352.3 228,353.2 C227.6,353.9 226.8,354.4 226.4,354.6 C225.9,354.8 224.8,355.5 224,356.1 C220.9,358.4 219,361.5 218.1,365.4 C217.6,367.5 217.3,369.3 216.5,375.7 C216.1,378.3 215,382.9 215,382.9 C197.4,382.6 180.9,385.7 166.2,394 L254.2,304.7 Z M277.7,307.4 L281.6,325.2 L277.6,325.1 L277.2,312.2 L264.6,311 L269.1,306.6 L277.7,307.4 Z M258.6,309.1 C259.7,310.2 261,311.4 262,312.6 C258.6,323.9 248,338.5 237.4,353 L229.6,352.1 C229.5,351.8 240.4,336.6 245.6,330.8 C247.6,328.4 248.9,326.1 250.7,322.6 C251.3,321.3 252.5,318 253.3,314.5 C255.1,312.3 258.6,309.1 258.6,309.1 L258.6,309.1 Z M262.8,313 L268.7,319 L270.1,403.3 C261,396.2 250.4,390.9 239,386.9 L241,382.4 L243.2,380 C250.9,371.6 249.2,362.6 243.3,356.2 C250.5,345.7 257,337.9 262.4,327.7 L262.3,320.7 C262.3,314.3 262.8,313 262.8,313 L262.8,313 Z M192.5,316.5 C193.1,316.4 193.2,318 193.3,322.4 C193.4,326.5 193.6,328.5 193.9,328.9 C194.3,329.5 194.6,329.5 199.5,329.7 C204.7,329.9 205.7,330 205.7,330.6 C205.7,330.8 205,331.5 204.2,332.4 L202.7,333.9 L198.1,333.8 C195.7,333.9 192.8,333.8 192.7,333.9 C192.3,334.3 193.8,334.8 196.1,334.8 C197.5,334.8 199.7,335 200,335.1 C200.9,335.4 200.5,336.3 198.6,338.1 L196.7,339.9 L192.5,339.8 C190.2,339.7 187.4,339.8 187.1,339.9 C185.8,340.3 186.5,340.7 188.6,340.7 C192.1,340.8 194.5,341 194.6,341.6 C194.6,341.9 194,342.8 193.1,343.8 L191.5,345.5 L185.4,345.2 C179.6,345.2 178.8,345.7 183.7,346.2 C185.5,346.4 188.5,346.8 188.6,346.9 C188.7,346.9 188.9,347.1 189,347.4 C189.2,347.9 186.9,350.6 185.6,351.2 C185,351.5 184.5,351.6 183.4,351.3 C182.1,351 176.5,351.1 175.9,351.4 C175.4,351.7 176.5,352.1 178,352.1 C180.3,352.2 183.2,352.8 183.2,353.4 C183.2,353.9 182,355.3 180.7,356.4 C180.1,356.9 178.7,356.5 174.8,356.6 C172.1,356.7 170.4,356.9 170.4,357.1 C170.4,357.3 171.7,357.8 173.4,357.9 C175.1,358 177.4,358.4 177.5,358.6 C177.9,359 174.9,362.5 174.9,362.5 L162.2,362.3 L161,348.8 L162.1,347.6 C164.5,344.8 165.1,345.2 165.6,350.2 C166,353.9 166.2,355 166.8,354.5 C167,354.3 166.9,352.2 166.7,349.1 C166.5,346.5 166.4,344.2 166.4,343.9 C166.4,343.2 169.3,340.2 169.9,340.3 C170.5,340.4 170.8,341.7 171.1,345.1 C171.3,347.9 171.5,348.7 172,348.2 C172.3,347.9 172.3,346.4 172,342.9 L171.6,338.2 L172.8,336.7 C175.3,333.8 175.8,334.1 176.1,338.8 C176.3,342 176.6,343.7 177.2,343.7 C177.4,343.7 177.4,341.3 177.3,337.7 L177.1,332.3 L178.6,330.7 C179.4,329.8 180.3,329.1 180.5,329.1 C181.1,329.1 181.4,330.5 181.8,333.7 C182.2,337.3 182.4,337.9 182.7,337.6 C182.8,337.5 182.8,335.3 182.6,332.5 L182.2,327.1 L184.1,325.2 C185.1,324.2 186.2,323.3 186.4,323.4 C187,323.5 187.3,325.1 187.4,327.4 C187.4,329.5 187.8,331.4 188.3,331.9 C188.5,332.1 188.6,330.8 188.5,327 C188.4,321.1 188.3,320.6 190.9,317.9 C191.7,317.1 192.2,316.6 192.5,316.5 L192.5,316.5 Z M261.3,319 L261.4,327.2 C258.1,334.3 250.5,344.6 242.7,355.8 L238.7,353.6 C248.3,340.9 256.4,329.1 261.3,319 L261.3,319 Z M150.7,321.5 C150.9,321.5 151.1,321.5 151.3,321.5 C153.4,321.6 153.4,322.3 151.5,324.2 C150.7,325 149.8,325.6 149.4,325.6 C148.8,325.6 148.8,325.5 149,323.9 C149.2,322 149.4,321.6 150.7,321.5 L150.7,321.5 Z M277,327.5 L282.7,333.1 L284.1,393.5 L278.1,403.3 L277,327.5 Z M284.1,335.5 C289.3,347.6 294.6,359 300.5,368.2 L285.2,389.8 L284.1,335.5 Z M232.7,354.3 C239.7,354.2 246.2,359.8 247,365.4 C248.5,371.9 245.2,378.9 239.7,381 C237.8,381.7 236.7,381.7 236.7,381.7 C236,377.8 236.3,374 235.4,370.1 C235.4,370.1 232.1,374.4 230.3,376 C229.3,376.5 228.9,376.7 229,375.4 C229.1,373.2 229.2,368.3 229.2,368.3 L221.1,376.7 C221.1,376.7 220.4,375.8 219.7,373.7 C217.2,366.9 220.5,359.8 225.7,356.5 C228,355 230.4,354.3 232.7,354.3 L232.7,354.3 Z M340.6,353.8 L340.8,361.2 C328.1,371.1 309.9,391.9 294.4,419 L287.5,421.9 C298.1,396.6 320.3,370.9 340.6,353.8 L340.6,353.8 Z M340.8,363.5 L340.9,374.5 C329.7,385.3 319.9,396.4 311.4,410.8 C306.4,413.2 297.3,417.7 297.3,417.7 C296.1,417.4 322.3,376.7 340.8,363.5 L340.8,363.5 Z M227.5,372.9 C228,372.9 228,373.9 227.8,375.3 C227.4,378.5 227.1,379.7 225.9,381.3 C221.8,386.2 215.3,392.8 214.4,398.9 C213.9,402.2 216.5,405.3 219,404.9 C226.8,403.9 227.7,390 228.3,383.2 C228.6,381.5 228.7,380.1 229,379.5 C230.6,377.4 232.4,375.3 234.6,373.7 L235.6,384.3 L240,382.8 C227.6,399.7 231.1,400.7 224.6,407.7 C218.5,414.1 206.7,406.8 209.7,397 C212.3,390.4 216.4,383.8 217.5,376.8 C217.8,374.7 218,373.3 218,373.3 L220.8,379.2 C222.2,377.8 226.4,373.2 227.5,372.9 L227.5,372.9 Z M341.2,376.6 L341.2,384.2 C335.4,390.7 330.4,395.7 324.5,404.7 L315.1,409 C321.2,397.3 331.3,386.3 341.2,376.6 L341.2,376.6 Z M226.4,383.2 C226.4,383.2 227,386.7 225.7,393.2 C225,396.3 222.1,405.1 217.5,403.1 C213.6,399.6 218.4,393.2 220.8,390.1 C222.6,387.9 224.6,385.5 226.4,383.2 L226.4,383.2 Z M214,384.2 L211.4,389.7 C188.4,389.8 166,398 146.1,414.8 L141.1,413.2 C162.2,393.2 188.3,383.5 214,384.2 L214,384.2 Z M238.2,388.4 C264.1,397.1 276.1,409.8 286,423.1 L281.9,425.2 C271.6,411.9 258.9,399.7 235.3,392.7 L238.2,388.4 Z M208.5,396.6 L207.4,401.3 C192.9,401.7 177.5,406.9 162.6,417.3 L157.2,416.4 C172.2,404.6 189.4,397.8 208.5,396.6 L208.5,396.6 Z M274.9,428.3 L270.3,430.5 C256.5,412.7 244.1,407.6 230,403 L231.5,399 C250.5,404.1 264.4,413.7 274.9,428.3 L274.9,428.3 Z M83.1,407.3 L83.5,454.9 L80.2,454.2 L79.7,408.1 L83.1,407.3 Z M75.4,409.8 C69.1,433.5 74,439.6 76.3,453.4 L71.1,452.6 C66,438.6 65.5,425.9 69.8,411 L75.4,409.8 Z M234.5,413.5 C234.9,413.9 234.2,415 233.2,415.6 C232.3,416.2 232.5,416.1 231,415.5 C229.5,415 227.7,413.6 227.7,413.1 C228.7,413.1 233.6,413 234.5,413.5 L234.5,413.5 Z M239,413.8 C239.9,413.9 242.4,413.9 242.5,414.6 C242.6,415.1 241.6,415.8 239.6,417.2 C236.6,419.3 235.5,419.7 234.6,418.7 C233.8,417.8 234,416.8 235.4,415.5 C236.8,414.3 237.6,413.8 239,413.8 L239,413.8 Z M134.7,414.3 C136.4,414.3 139.6,416.5 141.5,419 C143.4,422 145.6,425.1 147.4,428.1 C151.4,435 154.6,442 157.2,449.1 C164,466.1 168.1,482.6 171.4,499 C171.3,500.4 170.1,500.4 169.2,500 C168.7,499.8 168.2,499.5 168.1,499.2 C166.7,495.2 166.2,491.1 165.1,487.1 C162.4,477 161.4,471.2 156.2,457 C153.5,449.6 149.6,439.4 145.3,431.5 C142.6,426.5 139.4,421.8 135.3,417.6 C134.2,416.5 132.9,415.5 132.9,415.3 C132.8,414.7 133.5,414.3 134.7,414.3 L134.7,414.3 Z M245.6,414.9 C247.2,415.3 251.1,415.8 249.7,417 C244.2,419.1 242.4,421.4 239.5,423.7 C239.1,423.7 237.3,421.5 237.3,421 C239.7,418.2 242.6,417 245.6,414.9 L245.6,414.9 Z M142.7,414.9 C145,414.8 147.3,417.8 148.3,419.7 C155.4,430.1 161.4,444.9 166.4,459.5 C171.8,475.2 175.2,490.2 176.6,500.9 C176.5,501.2 175.8,501.4 175,501.3 C173.6,501.3 173.4,501 173,499.8 C169.3,482.1 164.4,463.9 158.4,448.4 C155.2,440.1 151.5,431.9 146.4,423.5 C142.9,418.4 140.9,415.7 141.1,415.3 C141.2,415 141.8,414.9 142.5,414.9 C142.5,414.9 142.6,414.9 142.7,414.9 L142.7,414.9 Z M126.9,415.2 C130,415.2 135.1,418.9 138.6,423.6 C146,433.7 150.2,445.6 154.6,457 C159.6,470.2 163.3,484.8 165.4,496.3 C165.8,497.9 166.4,498.7 164.8,499.2 C162.4,498.5 162.5,498.6 161.8,495.7 C160.9,492.6 160.6,489.5 159.7,486.4 C154.7,468.5 149.1,448.6 139.9,432.4 C128.8,414.6 125.5,419.5 123.7,416.4 C123.9,415.7 125.2,415.2 126.9,415.2 L126.9,415.2 Z M153.6,419.6 C163.2,436.2 167.4,446.5 170.3,456.5 C174.7,471.7 179.9,483.9 182.2,501.7 C182.2,501.7 179.7,501.7 178.7,501.3 C178.3,500.9 177.8,499.1 177.6,497.7 C175.3,485.1 171.6,470.3 167.6,458.6 C163.3,445.6 158.2,433.2 150.7,421.2 C148.7,418 148.3,416.7 149.6,416.7 C151.7,416.7 152.7,418.4 153.6,419.6 L153.6,419.6 Z M253.3,417.8 C253.7,417.8 253.9,417.7 254.7,418 C256,418.4 256.4,418.7 256.4,419.2 C256.5,419.9 255.7,420.2 253.3,420.7 C251.4,421.2 247.6,423.2 245,425.3 C243.8,426.3 242.7,427.4 242.5,427.4 C241.9,427.4 240.5,425.8 240.5,425.2 C242.5,422.2 248.9,418 253.3,417.8 L253.3,417.8 Z M121.5,418.2 C129.6,418.4 135.9,427.9 139.3,434.2 C140.6,436.7 142.3,439.4 143.5,442.2 C150.1,456.9 155.6,475.3 158.4,487.1 C159.7,492.8 161.2,496.9 160.7,498 C160,498.4 158.6,498.1 158,497.5 C157.6,497.2 157.4,495.9 156.6,493.5 C154.7,487.4 151.6,470.1 143.4,451.9 C143.2,451.5 139.3,440 132.5,429 C129.7,424.6 125.2,421.7 121.1,420.8 C119,420.5 118.4,420.7 118.6,419.6 C118.7,418.9 118.9,418.7 120,418.4 C120.4,418.3 121,418.2 121.5,418.2 L121.5,418.2 Z M172.1,455.8 C171.5,455.8 171.1,454.7 170.7,453 C170.5,452.1 170.3,451.5 171.9,450.5 C182,439.8 173.3,424.1 160.7,422.8 C159.5,422.6 158,422.6 157.6,422.5 C157,422.1 155.8,419.9 155.3,419 C172.7,414.7 191.2,439.7 172.1,455.8 L172.1,455.8 Z M259.1,420.9 C260.1,421.2 262.4,423.3 262.1,423.7 C261.8,424.3 259.8,424.3 257,424.8 C251,425.9 248.4,429.8 245.6,432.7 C245,432.9 244.4,432.5 243.9,431.5 C243.5,430.8 243.2,430 243.2,429.6 C246.3,425.1 254.6,420.5 259.1,420.9 L259.1,420.9 Z M117.4,422.2 C122.5,422.2 127.6,424.7 130.5,428.7 C141,444.4 152.7,479.2 155.5,496.4 C155.2,497 154.5,497 153,496.6 C152.2,496.4 152.3,496.1 151.8,494.5 C148.5,482 144.9,469.8 140.7,458.7 C138.5,453 135.9,447.3 133.5,442.3 C132,439.1 128.9,433.4 127.7,431.7 C124.9,426.5 119.4,425 115.9,426.7 C112.3,428.7 111.8,433.3 114.6,435.4 C116.9,437 120.5,436.7 121.8,434.3 C122.3,433.4 122.1,432.3 121.8,432.1 C121.5,431.8 121,431.9 120.9,432.2 C121.1,435.2 117.2,435.4 115.5,434.2 C112.8,432.2 114.6,425.8 122,428.3 C124.9,429.8 125.8,432.6 124.5,435.6 C123.1,438.7 121,440.1 117.7,440.1 C113.7,440 109.1,437.2 109.1,432.1 C109.1,428.3 110.9,425.2 114.1,423.1 C115.3,422.3 115.8,422.2 117.4,422.2 L117.4,422.2 Z M160.6,424.6 C173,425.2 178.7,439.7 172.2,448.5 C170.5,450.6 169.5,450.2 168.8,447.5 C168.5,446.4 168.1,446.2 169.1,445.4 C174.9,439.8 170.1,429 160.6,428.6 C160.6,428.6 158.8,426 158.6,424.6 C159.2,424.4 160,424.6 160.6,424.6 L160.6,424.6 Z M263.8,425.6 C264.7,425.8 266.7,427.7 266.7,428.4 C266.7,429.2 266.3,429 264.1,428.7 C258.9,427.8 253.7,430.8 249.3,437.4 C247.2,441.3 246.9,441 245.8,437.6 C245.2,435.8 245.2,435.9 247.4,432.7 C251.7,427.3 257.8,424.8 263.8,425.6 L263.8,425.6 Z M268.7,432.3 C273.1,436.3 271,445 265.1,445.9 C259.9,446.5 255.3,440.9 258.6,437.1 C260.7,434.8 263.4,434.6 265,436.5 C266.7,438.5 266,441.3 263.6,441.6 C263.3,441.7 263.1,441.9 263.1,442.1 C263.1,442.6 265.2,442.5 266,441.9 C267.5,440.3 267.5,437.8 266.2,436 C265,434.4 262.6,433.2 260.6,434 C257.1,435.2 253.6,440 251.5,445.9 C250.9,447.6 250.6,449.2 250.3,449.5 C249.8,450.3 249.8,450.2 249.4,449.9 C249,449.6 248.3,446 248.3,444.6 C248.3,443.5 249.2,440.7 250.4,438.4 C254.1,431.4 262.6,426.7 268.7,432.3 L268.7,432.3 Z M162.5,430.5 C167.6,430.8 171.6,438 169.4,443 C168.7,443.9 167.7,444.5 167.3,444 C167.1,443.8 166.4,441.4 165.3,439 C164.2,436.5 163.2,434.1 162.9,433.5 C162.1,431.6 161.5,430.5 162.5,430.5 L162.5,430.5 Z M128.1,434.7 C133.9,444.9 138.7,456.7 142.7,468.1 C145.8,477 148.4,485.8 149.9,493.5 C150,494.3 150.2,494.7 149.9,495 C149.3,495.6 146.6,494.2 146.6,494.2 C141.8,477.5 137.9,460.9 126.4,439.7 C126.4,439.7 125.9,438.8 125.8,438.3 C125.6,437 126,435.3 126.8,434.3 C127,434 127.4,433.9 128.1,434.7 L128.1,434.7 Z M63.3,454 C90.6,455.8 111.8,467.3 123,497.7 C119,495.4 98.7,479.8 63.6,477.8 L63.5,473.6 C88.6,473.4 113.2,486.5 112.7,486.3 C103.3,467 79.8,459.2 63.2,458.7 L63.3,454 Z M252.8,460.1 C251.1,462.8 251.2,462.7 250.3,465 C250.4,465.8 250.5,470.5 250.7,473.2 C250.8,476.7 250.9,478.2 251.2,478.6 C251.7,479.2 252.6,479.3 253,478.8 C253.2,478.6 253.5,477.8 253.6,477.1 C255.8,468.6 256.9,465.4 257.8,464.3 C258.4,463.5 258.6,463.6 261.1,463.9 C266.7,464.4 268.6,457.8 264.9,455.1 C260.1,452.4 254.9,456.9 252.8,460.1 L252.8,460.1 Z M258.6,461.9 C254.6,465.2 254.5,469.9 253.3,474.2 C252.7,477.1 251.7,478.7 251.4,474.3 C250.7,468.2 251.6,463.6 254.2,460 C255.8,457.4 258.5,455.6 260.9,455.4 C266.1,455 266.7,459.2 265.2,461.4 C264.2,463.1 261.3,463.8 258.6,461.9 L258.6,461.9 Z M70.5,463.9 C72.5,463.9 74.1,465.5 74.1,467.5 C74.1,469.5 72.5,471.1 70.5,471.1 C68.5,471.1 66.9,469.5 66.9,467.5 C66.9,465.5 68.5,463.9 70.5,463.9 L70.5,463.9 Z M81.8,466.3 C83.5,466.3 85,467.7 85,469.5 C85,471.3 83.6,472.7 81.8,472.7 C80,472.7 78.6,471.3 78.6,469.5 C78.6,467.8 80.1,466.3 81.8,466.3 L81.8,466.3 Z M92.2,469.8 C93.6,469.8 94.8,471 94.8,472.4 C94.8,473.8 93.6,475 92.2,475 C90.8,475 89.6,473.8 89.6,472.4 C89.6,471 90.7,469.8 92.2,469.8 L92.2,469.8 Z M99.5,474.5 C100.6,474.5 101.5,475.4 101.5,476.5 C101.5,477.6 100.6,478.5 99.5,478.5 C98.4,478.5 97.5,477.6 97.5,476.5 C97.5,475.4 98.4,474.5 99.5,474.5 L99.5,474.5 Z M73.8,480.9 C73,484.8 73.6,488.7 74.5,491.5 C76.5,497.4 75.6,507.9 75.6,507.9 L69.7,513.8 C70.1,508.3 70.8,502.5 70.5,497.8 C70.3,494.7 68.9,491.8 68.5,488.7 C68.2,485.8 68.7,480.1 68.7,480.1 L73.8,480.9 Z M83.4,482.6 L83.6,507.8 L63.3,527.5 L63.3,522.3 L80.6,505.1 L80.2,481.8 L83.4,482.6 Z M133.5,540 L132.2,542.2 L155,542.2 L155.5,540 L133.5,540 Z M163.1,540 L162.6,542.2 L173.2,542.2 L173.5,540 C173.5,540 167.9,540 163.1,540 L163.1,540 Z M180.5,540 L180.2,542.2 L219.5,542.2 L218.9,540 L180.5,540 Z M226.5,540 L227.1,542.2 L237.6,542.2 L236.7,540 L226.5,540 Z M244,540 L244.8,542.2 L262.8,542.2 L261.3,540 L244,540 Z" id="Shape" fill="#000000" fill-rule="nonzero"></path>
        </g>
    </g>
</svg>