<?xml version="1.0" encoding="UTF-8"?>
<svg width="404px" height="564px" viewBox="0 0 404 564" version="1.1" xmlns="http://www.w3.org/2000/svg" xmlns:xlink="http://www.w3.org/1999/xlink">
    <!-- Generator: Sketch 61.2 (89653) - https://sketch.com -->
    <title>11H</title>
    <desc>Created with Sketch.</desc>
    <g id="Page-1" stroke="none" stroke-width="1" fill="none" fill-rule="evenodd">
        <g id="11H" transform="translate(1.000000, 1.000000)">
            <path d="M19.2,0.2 L383.4,0.2 C394,0.2 402.6,8.8 402.6,19.4 L402.6,543.4 C402.6,554 394,562.6 383.4,562.6 L19.2,562.6 C8.6,562.6 0,554 0,543.4 L0,19.4 C0.1,8.8 8.6,0.2 19.2,0.2 L19.2,0.2 Z" id="Path" fill="#FFFFFF" fill-rule="nonzero"></path>
            <path d="M19.2,0.2 L383.4,0.2 C394,0.2 402.6,8.8 402.6,19.4 L402.6,543.4 C402.6,554 394,562.6 383.4,562.6 L19.2,562.6 C8.6,562.6 0,554 0,543.4 L0,19.4 C0.1,8.8 8.6,0.2 19.2,0.2 L19.2,0.2 Z" id="Path" stroke="#000000" stroke-width="0.7974"></path>
            <path d="M346.5,65.5 L325.7,79 L325.4,94.8 C313.1,88.9 307.7,79.2 305.8,67.8 C302.3,72.2 303.1,92.9 303.1,92.9 L296.6,100.2 C298.6,103.5 301.4,106.5 304.2,109.4 C304.2,109.4 301.6,131.7 304.9,134.3 C303.3,127.2 325,102.7 325,105.5 C325,105.5 325.2,142.4 324.3,178 C318.5,174 306.2,166.8 298.2,159.4 C308.4,145.6 298.2,128.9 282.6,140.3 C272.6,134.9 271.1,109.4 268.6,96 C268.1,93.3 265.6,85.6 265.6,85.6 C265.6,85.6 232.9,76.4 218.8,77.1 C225.5,95.6 230,119.7 214.3,134.7 C201.9,150.9 175.1,154.3 175.8,152.8 C150.7,164.3 121.6,177.1 93.3,201.1 C88.1,236.8 69.7,254.3 56.7,264 C56.8,278.5 56.6,292.8 57.2,307.3 C57.2,307.4 69.1,299.5 70.9,301 C80.8,365.5 117.1,378.2 113.5,380 C112.9,380.3 101.6,391.9 101.6,391.9 L57.3,362.7 C55.8,407.3 56.7,452.7 57.3,497.4 C65.1,493 79.5,482.4 79.5,482.4 L79.7,467.2 C79.6,465.8 99.9,479.8 99.9,496.6 C101.5,497.7 104.9,472.5 101.8,469.8 L110.1,461.2 L101.2,452.6 C101.2,452.6 103.5,438.3 98.8,430.1 C95.8,448.9 80.2,454.8 80.2,454.8 C80.2,454.8 79.9,386 79.5,386 L107.4,403.6 C105.3,404 100,413.9 105.6,421.9 C109,426.8 121.1,426.4 122,420.8 C139.1,436.8 132.5,455.8 140,478.5 L188.6,487.4 C168.6,450.2 190.3,407.9 229.7,410.9 C237.1,407.8 243.7,403.4 243.7,403.4 C243.7,403.4 238.8,395.4 232.6,388 L148.4,386.6 L187.7,313 L161.9,312.2 C161.9,312.2 182.9,267.7 178.3,264.1 C176.7,262.8 177.4,248.5 177.4,248.5 L200.5,249.4 C201.4,239.1 189.3,200 172.3,174.4 L267,175.3 L213.7,249.6 L242.3,250.4 L225.2,285.5 L227.9,312.9 L202.5,313.7 C206.9,351.6 235.1,391.6 245,403.9 C261.4,400 291.9,376.6 310.9,362.1 C313.4,336.6 322.1,315 345,298.8 L345.3,256.4 C345.3,256.4 332,265.4 332,264.8 C332.1,255.7 327.1,237 318.6,220 C309.4,201.6 295.1,185.3 290.4,184.9 C298.5,172.6 301.9,171.2 301.8,171 L346.1,199.4 L346.5,65.5 Z M123.4,154.8 C123.4,154.8 114.8,158.1 107.3,158 C98.6,157.9 83.8,159.8 78.2,170.8 C77.1,174.1 79.5,175.4 81.3,176.3 C82.3,176.8 84,171.2 96,170.7 C102.4,172.5 115.1,168.8 118.3,165.7 C123.9,160.3 123.4,154.8 123.4,154.8 L123.4,154.8 Z M63.9,212.4 C63.9,214.2 65.9,217.1 66.9,214.1 C67.8,211.9 67.9,208.5 67,206.3 C64.2,204.8 63.9,210.6 63.9,212.4 L63.9,212.4 Z M209.1,273.1 L196,273.2 L195.9,288.6 L209.2,289.2 L209.1,273.1 Z M337.6,349.6 C337.3,351.1 335.9,358 339.1,356.8 C342.9,353.9 339.7,340.5 337.6,349.6 L337.6,349.6 Z M325.3,388.1 C323.8,385.9 319,391.4 315,391.7 C297.5,393 284.7,390.4 282.5,408.5 C292.6,402.1 306.6,405 315.7,402.9 C322.4,400.8 329.9,394.9 325.3,388.1 L325.3,388.1 Z" id="Shape" fill="#E2CF00" fill-rule="nonzero"></path>
            <path d="M55.2,518.2 C53.2,358.2 54.2,200.3 54.7,42.1 L350,43.8 C348.9,201.7 348.7,360 350.8,519.5 L55.2,518.2 Z M67.8,210.4 C68.1,205.8 66.2,203.9 64.5,207.1 C64.1,207.8 62.8,215.8 65.9,216.1 C67.9,216.2 67.7,212.4 67.8,210.4 L67.8,210.4 Z M63,215.8 C63,214.7 62.3,214.2 63.8,204.8 C61,203.7 58.6,199.2 60.6,196.3 C61.4,195.2 61.2,194.9 60.8,194 C60,191.7 60.4,189.8 62.6,188.3 C64,187.3 64,187.1 63.6,185.8 C62.5,182.6 63.5,179.4 66.6,178.3 C68.7,177.6 68.3,177.5 68.6,176.1 C69.1,173.1 70.8,171.2 73.8,171.5 C76.6,171.8 76.8,171.8 77.1,170.4 C77.8,166.6 82.4,162.4 88.5,159.5 C91.5,158.1 96.5,157.1 106.1,157.1 C111.6,157 118.4,156.3 122.2,152.9 C122.8,152.3 123.7,150.8 124,151 C124.7,151.5 124.5,155.3 123.1,158.8 C119,168.9 113.5,171.7 97.9,171.6 C93.2,171.4 86.4,172 83.5,175 C82.6,175.9 82.1,176.8 82.4,177.2 C88.9,178.1 95.5,181 99.4,193.8 C111.1,185.5 129.8,172.8 153,161.3 C150.2,146.1 163.4,143.7 170.8,146.7 C170.8,146.7 171,145.7 170.7,144.6 C170.4,143.5 170,142 168.6,140.1 C168.2,139.4 166.2,138.1 166.6,137.1 C167.3,135.4 167,134.9 165.6,133.4 C164.7,132.4 165.3,130.2 165.5,129.3 C165.8,127.7 166.9,125.3 165.9,124.5 C164.4,123.1 159.4,120.8 156.9,119 C154.1,116.9 154,115.1 158.2,108.3 C160.1,104.3 161.9,100.1 163.4,97.2 C165.7,92.9 165.9,90.1 164.5,87.6 C162.7,84.4 163,80.6 163,80.7 C163,80.7 145.9,56.3 138.8,46.8 L58.7,46.5 L58,229.6 L72.3,216.4 L68.6,212 C68.1,214.6 68.5,217.1 65.4,217.2 C64.2,217.3 63.2,216.9 63,215.8 L63,215.8 Z M110.7,460 C111.2,452.8 107.7,440.9 102.5,432.7 C102.7,438.9 103.2,446.6 101.9,452.7 L110.7,460 Z M237.1,478.9 C236.5,478.7 231.2,478.4 227.9,478.2 C216.9,477.6 209.8,472.4 205.1,465.1 C203.9,463.3 204.4,463.4 207,465.4 C214.3,471.1 221.1,474.5 227.1,473.6 C235.6,472.4 240.1,475.5 239,479.1 C238.7,479.8 238.6,479.4 237.1,478.9 L237.1,478.9 Z M208.4,462.7 C206.7,461.2 206.6,460.6 208.6,461.9 C214.7,466 222.2,472.7 231.3,468.8 C233.2,467.6 231.4,467.7 228.3,468.1 C223.4,468.6 217.5,466.1 210.2,461.1 C206.6,458.6 208.2,456.6 212.2,458.5 C213.4,459.1 214.7,459.5 215.5,459.6 C219.4,457 227.7,457 227.6,457 C228.5,456.2 225.4,454.9 220.8,453.2 C217.8,452.1 217.1,451.6 219.3,451.5 C221.2,451.4 224.3,452.4 226.5,453.8 C230.2,456.2 232.1,457.5 233.2,457.6 C235,457.7 236.9,458 233.7,459.4 C232.3,460.1 232.4,460.2 232.6,461.8 C232.9,464.3 233,464.2 234.1,465.6 C236,467.7 236.9,471.7 234.1,469.2 C233.5,468.9 233.4,469.5 231.8,470.1 C222.4,472.9 215.3,468.7 208.4,462.7 L208.4,462.7 Z M225.9,463.4 C226.4,462.7 227.2,460.9 227.3,460.4 C227.1,459.2 226.1,459.6 225.6,460.3 C224.7,461.4 223.5,463 224.5,463.5 C225,463.8 225.5,464 225.9,463.4 L225.9,463.4 Z M222.7,462.7 L224.8,458.9 C224.3,458.7 217.1,460.1 218.2,461.2 C219.2,462.1 222.7,462.7 222.7,462.7 L222.7,462.7 Z M230.7,450.1 C227.4,448.4 226.5,444.6 228.9,442.1 C230.9,440 234.4,440.2 238.6,442.7 C240.1,443.6 241,444.1 242,443.7 C243.7,443.1 244.3,444 244.2,445.3 C243.9,448.2 239.4,448.9 236.6,445.6 C232.8,441.2 228.8,444.3 230,447.4 C230.6,449 231.8,449.2 233.2,449.9 C233,450.2 231.7,450.6 230.7,450.1 L230.7,450.1 Z M215.9,430.6 C221.3,429.1 229.3,434.9 233.7,434.1 C235.6,433.7 235.3,436.4 233.4,437.4 C231.1,438.6 227.9,437.8 220.9,434.2 C215.2,431.1 210.6,436.2 214.4,440 C215.2,440.8 216.4,441.2 217.9,441.2 C219.8,441.1 220.4,441.6 217.9,442.3 C216.5,442.7 213.8,442.1 212.5,440.8 C209.4,437.6 210.2,431.7 215.9,430.6 L215.9,430.6 Z M101.6,414 C101.4,407.6 104.9,404 105,404 L80.7,387.5 L81.1,453.3 C93.1,445.7 97.1,436 97.8,423.6 C121.5,450.2 114.1,482.6 99.3,501 C98.7,489.7 95.3,476.4 81.6,469.5 L81.6,483 L58.9,499.1 L59,514 L112.5,514.2 L138.4,476.4 C133.7,459.3 134.4,445 131.2,437.1 C128.8,430.7 124.3,422.3 121.4,423.6 C111.5,431.4 101.8,422.3 101.6,414 L101.6,414 Z M122,421.6 C130.4,427.7 132.7,437.5 134.4,446.3 C134.5,446.4 138.8,476.1 139,476.5 C139.6,478.1 139.4,479.8 137.9,481 C130.1,491.6 115,514.5 115,514.5 L263.8,515.4 C255.9,503.9 249.7,492.4 242.1,482.9 C242.4,482.4 241.5,475.9 240.3,473.8 C239,471.6 238.7,470.5 239.6,468.5 C241.8,463.6 244,458.4 246,453.9 C249.8,445.4 250.3,445.3 245,442.5 C238.8,438.9 237.7,437.7 239,433.5 C239.5,432 239.5,431.4 237.6,431 C236.7,430.8 234.5,430.3 233.1,429.9 C228.9,428.6 230.1,429.4 228.6,430.5 C227.4,431.1 226.4,428.9 225,426.2 C223.4,423.2 223,423.1 225.6,424.7 C230.4,427.6 239,426.5 236,423.1 C234.5,421.5 233.2,420.6 233.3,417 C233.5,413.4 233.5,412.3 231,411.8 C226,410.8 220.7,411.2 216,412.4 C202,415.9 190.7,428.1 186.4,437.1 C185.4,438.7 187.6,438.6 188.6,438.6 C193.2,438.2 196.5,445.5 193.5,448.8 C192.1,450.3 190.7,449.4 192.2,447.5 C193.9,444.3 191.4,440.2 187.7,441.2 C183,442.5 182.9,448.6 182.3,452.8 C180.7,464.9 186.9,481.1 188.4,484.4 C188.4,484.4 188.7,484.9 188.6,484.9 C188.5,484.9 187.7,485.6 187.4,485.2 C186.3,484 183.6,474.1 182.1,467 C179.2,447.4 184.3,429.4 200.6,419.2 C215,408.8 222.3,411 230.5,410.6 C233.3,409.6 237.2,408.1 240.1,406.6 C254.5,398.7 266.2,392 278.5,385.3 C290.4,378.8 298.4,369.6 309.2,363.8 C309.7,363.5 310.2,362.9 310.7,362.7 C324.2,350.9 337.6,339.4 345.7,331.4 C346.7,330.4 347.5,329.1 347.5,329.1 L346.1,261.3 C346.1,261.3 344.7,260.2 344.8,259.1 C344.8,256.7 343.9,257.2 339.1,260.6 C333,264.9 332.6,264.7 332.6,264.7 C329.4,233.6 312.6,203 292.2,185.1 L293,184 C293,184 299.8,188.5 303.2,190.7 L303.2,186.4 L295,181.3 C295,181.3 294.3,180.7 295.1,179.6 C295.5,179 296.7,179.4 296.7,179.4 L303.3,184.3 L303.3,180.3 L298,176.9 L299.7,174.8 L302.6,176.6 C301.4,173.5 303.1,173.6 304.9,175.7 C305.6,176.7 306.6,177.9 307,179 C307.1,179.4 307.6,180.5 307.6,180.5 L312.3,184 C312.3,184 312.1,182.3 312.3,181.8 C313.1,179.3 318.7,187.3 318,187.5 L322.8,190.9 C323.9,189.2 328.2,192.6 328.4,194.3 C328.8,195 344.9,205.4 344.9,205.4 L345.1,199.7 L346.8,197.4 L347.6,65.3 L326.2,79 L326,95 C315.9,91.7 307.2,77.1 305.9,68 C305.2,67.6 302.3,86 303.9,94 C301.2,96 296.7,100.6 296.8,100.6 L304.9,109.5 C304.9,109.5 303.3,123.1 303.7,129.8 C304,133 304.1,133.3 305,133.3 C305.8,133.3 306.5,132.5 306.5,131.7 C308.4,123.6 314.7,111 325.5,106.8 C326.2,106.8 325.4,178.8 325.4,178.8 L298.6,160.5 C297.3,159.4 300.4,159.4 302.2,153.3 C307,137.7 290.1,132.5 283.7,141.1 C282.6,141.1 278.2,135.6 277.5,133.3 C272.5,123.3 271.6,112 270.6,102.9 C270,98.8 268.5,92 267.2,87.9 C266.5,85.7 266.5,84.2 267.9,82.1 C274.5,73.1 281,63.7 286.6,54.5 C291.7,47.8 290.7,47.5 290.7,47.5 L141.5,47 L165.3,78.4 L167.7,79.3 C163.6,79.8 165,83.4 166.6,87.3 C168.6,92.1 168.4,93.1 163.4,102.9 C156.1,117.3 155.7,116 163,120.5 C167.5,123.4 168.3,124 167.7,127.9 C167,131.8 166.9,130.6 170.6,130.9 C172.6,131.1 174.2,131.4 175.1,131.8 C176.1,132.3 176.9,132.9 178.2,132.5 C180.4,131.8 180.5,132.3 180.5,133.9 C180.5,134.6 181.6,136 181.9,136.5 C182.7,137.9 182.3,138.1 180.8,137.1 C176,134.1 168,135.4 170.9,138.7 C172.1,140 173.3,144.5 173.4,146.8 C173.6,150.8 176.2,152.2 181.6,151.4 C192.1,150.6 215.7,137.6 221.2,123 C209.1,127.1 211.6,112.3 215.9,112.7 C215.9,112.7 214.7,115.3 214.7,116.8 C214.6,122.1 219,122.5 222.1,118.8 C223.4,116.8 225.1,109.5 224.3,101.2 C223.3,91.2 219.3,79.9 218.5,77.1 C235.8,118.4 219.9,136.6 195.6,148.5 C186.3,152.4 185,152.4 179.5,152.6 C175.7,152.9 172.4,154.8 168.7,156 C147.9,165.9 122.3,178.3 99.4,196.8 C83,209 69.9,219.9 57,233.9 L56.9,306.8 C56.9,306.8 56.9,308 58.4,307.1 C62.1,305.8 66.1,302.4 69.6,301 C70.7,301 70.9,300.2 71.3,303.1 C72.5,308.8 73.1,314.7 74.9,320.2 C81.8,342.2 92.4,357.6 107.7,373.6 C109.4,375.4 112,378.6 112,378.6 C112,378.6 111.9,378.8 111.9,378.8 C108.6,376.6 105.3,374.4 102.1,372.7 L101.9,376.2 L109.7,381.6 C109.9,382.4 108.4,383.6 108.4,383.6 L102,379.1 L102,382.6 L107,385.8 C108.3,387.1 105.4,387.9 105.4,387.9 L102.4,385.8 C102.4,385.8 102.6,387.5 102.5,387.8 C101.7,390.4 97.5,384.6 96.7,381.8 L92.5,379.3 C93.1,381 91.6,381.2 90.4,380.8 C87.2,379.2 87.4,376.5 86.8,374.9 L81.2,371.4 C80.2,376.7 74.6,369.2 75.5,367.4 L68.3,362.5 C68.7,362.6 65.6,363.3 64.5,362.6 C63.3,361.8 62.9,358.6 62.9,358.6 L58.6,355.9 L58.6,360.6 L102.8,391.4 L102.2,392.6 L56.1,361.1 L58,498 L80.5,482.5 C80.1,477.4 81,472.8 80.6,467 C92.2,474.2 96,479.1 101.1,494.2 C104.4,485.6 103.8,477.4 102.3,469.7 C105.3,467.3 108.1,464.9 109.6,461.3 C106.8,457.5 104.1,456.4 101.2,452.9 C101,448.6 103.5,435.7 100.1,431.4 C100.1,431.4 93.9,450.1 80.5,455.7 C80.1,435.9 80.6,386.3 80.6,386.3 C80.6,386.3 94.3,395.8 101.4,399.6 C104.7,401.4 107,402.5 107,403.7 C107,404.3 105.7,405.2 105.1,406 C104.7,406.6 103.2,411.9 103.8,416.1 C104.1,419.2 105.5,421.1 106.9,422.6 C110.7,427.4 118.8,425.2 122,421.6 L122,421.6 Z M148.6,386.6 L201.6,312.9 C207.9,340.1 218.4,364.8 232.2,387.3 L148.6,386.6 Z M174.8,308.9 C174.8,308.9 178.5,301.6 180.2,297.7 L173.7,297.7 L177.6,293.3 L187.2,293.3 L182,304.3 L186.1,304.3 L191.8,293.3 L206.8,293.3 L201.6,304.3 L205.1,304.3 L210.7,293.3 L224.7,293.3 L219.8,304.3 L223.1,304.3 L226,298.8 L226.7,308.9 L212.8,308.9 L218.3,297.7 L213.8,297.7 L207.6,308.9 L194.6,308.9 L200.2,297.7 L195.3,297.7 L189.1,308.9 L174.8,308.9 L174.8,308.9 Z M217.6,269.5 L223.2,257.7 L218.8,257.7 L212.6,269.3 L198.7,269.3 L204.2,257.8 L200.7,257.8 C198.4,261.4 194.6,268.8 194.6,268.8 L179.9,268.8 C179.9,268.8 184.1,261 185.7,257.2 L182.1,257.2 L179.2,261.9 C178.2,260.1 178.8,255.5 178.7,253.5 L192.5,253.5 L186.9,264.9 L191.3,264.9 L197.4,253.5 L212,253.5 L206,264.9 L209.5,264.9 L215.4,254.2 L230.3,254.2 L225.1,264.9 L229.7,264.9 L227.7,269.6 L217.6,269.6 L217.6,269.5 Z M203.9,248.8 L201.1,249.3 C197.5,218.6 180.5,187.3 173.3,174.4 L257.8,175.6 L203.9,248.8 Z M303.1,71.7 C303.1,71.7 295,82.1 294.5,99.4 L302.2,93.3 C301.7,75.6 303.1,71.7 303.1,71.7 L303.1,71.7 Z M294.6,100.7 C294.5,113.6 297.9,121.9 302.1,128.3 C302.2,120 303,111.5 303.5,109.3 L294.6,100.7 Z M85.4,348.2 L58.1,329.4 L58.1,333.5 L90.6,355.6 L85.4,348.2 Z M80.5,338.1 C73.2,334.4 58.1,323.1 58.1,323.1 L58.1,326.9 L82.1,343.8 C82.6,344.3 83.2,344.2 83.4,343.6 C82.5,341.9 81.3,339.7 80.5,338.1 L80.5,338.1 Z M73.8,321.7 L58.1,310.8 L58.1,314.2 C62.1,317.8 75.4,326.4 75.4,326.4 L73.8,321.7 Z M58.1,308.3 L72.9,317.8 L72,313.6 L61.5,306.5 L58.1,308.3 Z M323.4,176 L324.2,108 C308.8,115.3 305.8,136.5 306.3,137.1 C291,121.3 285.2,87.3 306.7,64.4 C308.3,71.7 308.9,82.4 324.1,92.1 L324.5,77.7 L345.8,64.1 L345.6,47.7 L294.5,47.3 C286.6,57.3 278.7,68.8 270.8,79.4 C267.9,83.4 267.1,85.3 267.7,87.4 C272.9,105.9 271.8,128.7 282.6,139.5 C297.1,125.9 310.7,146.4 299.4,159.1 L323.4,176 Z M102.8,470.1 C104.8,476.3 103.4,488.8 103.3,488.8 C105.6,487.5 112,469.4 110.4,462.6 M184.3,130.5 C180.7,129.5 178,127.9 174.2,128.3 C171.2,128.6 170.2,127.6 172,126 C174.4,124 176.7,123.1 181.2,125.5 C194.6,132.5 195,122.3 189,121.6 C187.3,121.4 187.4,120.3 189.1,120.6 C198.3,120.8 195.4,133.2 184.3,130.5 L184.3,130.5 Z M168.7,120.3 C166.9,119.7 164.8,118.6 164,118.8 C162,119.3 161.9,118.2 162.2,117 C162.8,113.9 166,114.4 170.2,117.1 C176.2,120.9 178.5,115.4 173.1,112.4 C171.3,111.4 171.8,111.1 172.9,111.1 C175.8,111 178.4,114.9 177.7,118.1 C175.7,123.1 171,121.1 168.7,120.3 L168.7,120.3 Z M186.4,110.9 C182.5,110.2 176.8,105 174.2,104.6 C172.7,104.4 171,104.6 170.5,104 C169.1,102.2 173.1,102.2 173.4,101.5 C173.4,100 173.5,99 173.4,98.5 C172.7,97.5 169.8,93.6 169.9,91.7 C170,91.6 171.4,92.7 172.1,92.7 C179.1,89 183.8,90.7 189.7,93.2 C192.1,94.3 198.4,99.1 198.5,99.9 C198.6,101.2 195.8,98.8 193.7,97.3 C188.3,93.6 183.5,90.9 176.7,93.1 C175.7,93.5 175.8,93.7 179.3,93.4 C182.7,93.2 185.5,94.2 189.8,97.1 C190.9,97.8 192.2,99 192.9,99.4 C198.3,102 199.5,104.5 196.1,103.8 C195.4,103.6 193.9,102.9 192.5,102.4 C190,101.5 190.9,101.8 188.5,102.9 C187.7,103.3 185.6,104.1 184,104.3 C182.7,104.5 178.6,104.5 180.4,106.2 C182.3,108.1 185.5,109.6 187.7,110.4 C189.4,111.3 188.2,111.2 186.4,110.9 L186.4,110.9 Z M186.8,102.4 C189.3,101.5 187.4,99.3 184.1,98.9 C183.4,98.8 181.8,102.3 181.7,103 C181.7,103.6 185.4,102.9 186.8,102.4 L186.8,102.4 Z M179.8,102.8 C180.4,102.4 182.3,99.6 182.3,99.2 C182.3,97.4 180,97.9 179.5,99.8 C178.8,102 178.8,103.4 179.8,102.8 L179.8,102.8 Z M171.7,88.2 C169.6,87.3 166.8,83.2 170,83.9 C170.7,84.1 174.3,84.3 176.7,84.3 C184.7,84.3 192.7,88 197.8,93.2 C200.6,96.1 200.8,98.3 197.9,96.3 C187.8,87.2 181.5,88.9 171.7,88.2 L171.7,88.2 Z M250.9,402.7 L248.1,404.2 C248.1,405.8 248.7,405.5 249.9,406.6 C249.9,406.6 248.2,406.9 246.9,406.8 C244.8,406.7 244.4,406.7 245.3,408.2 C245.7,408.9 246.3,409.9 246.3,409.9 C246.3,409.9 245.2,410.1 243.5,409.7 C240.9,409 239.6,409.3 240.6,410.8 C240.9,411.2 241.4,411.9 241.4,411.9 C239.5,411.5 236.1,409.8 236.1,409.8 L233.7,410.5 C238.4,420 255.6,414 250.9,402.7 L250.9,402.7 Z M334.8,389.3 C337.5,387.1 336.2,384.3 332.3,382.3 C330.7,381.5 330.8,381.5 328.2,383 C325,384.9 324.7,385 327,387.4 C329.8,390.4 332.8,390.9 334.8,389.3 L334.8,389.3 Z M324.9,383 C327.3,381.9 326.4,382.1 326.3,379.5 C325.6,376.5 327.3,376.3 328.1,373.6 C328.4,372.1 327.2,372.6 324.7,374.9 C322.7,376.6 322.1,377 322.1,376.2 C322.3,375.5 320.7,373.7 319.2,373.5 C318,373.3 318.1,373 319.3,371.5 C321.4,368.8 322.3,365.4 320.9,362.4 C319.1,358.6 318.5,358 314.6,361.4 C312.6,363.2 309.8,364.7 308.4,367 C307.4,368.7 308,370.3 309.5,373.6 C313.3,381.7 319.3,385.4 324.9,383 L324.9,383 Z M338.6,383 C342.9,381.3 341.2,376.7 334.4,372 C330.3,369.2 329.2,369.2 332.6,372.3 C334.8,374.3 335.2,375 334.2,376.4 C333.4,377.6 332.6,379 333.4,380 C334.7,381.7 336.8,383.7 338.6,383 L338.6,383 Z M95.9,375.3 L91.2,372.3 L91.2,376.4 L95.9,379.2 L95.9,375.3 Z M330.7,379 C331.6,378.3 332.4,376.5 332.4,375.7 C332.6,373.8 329.5,374.3 328.1,376.4 C326.5,378.6 328.5,380.6 330.7,379 L330.7,379 Z M341.3,372.6 C343.4,370.4 342.4,368 338,365.1 C336.3,364 335.4,363.3 335.6,365.5 C335.7,366.2 334.9,367.1 334.5,367.6 C333,369.3 333.7,369.6 338,372.4 C340.2,373.7 340.1,373.8 341.3,372.6 L341.3,372.6 Z M95.9,368.3 L91.2,365.5 L91.2,369.2 L95.9,372.4 L95.9,368.3 Z M85.6,371.9 L85.7,368.2 L79.6,364.1 L79.5,368.2 L85.6,371.9 Z M325,370.4 C324.2,372.5 327.4,371.6 327.6,371.3 C328.1,370.2 327.7,370.1 327.4,370 C326.8,369.9 324.7,370.2 325,370.4 L325,370.4 Z M326.4,367.8 C327.5,367.5 327.6,367.6 327.5,365.6 C327.3,362.6 327.7,362.4 329.7,361.1 C331.3,360.1 331.3,360.2 331.2,358.4 C331.2,356.2 331.3,355.3 334.2,354.8 C335.4,354.6 336,354.3 336.1,353.4 C336.3,351.9 333.8,349.2 330.6,347.7 C330.1,347.7 323.2,353.7 321.2,355.8 L320,357.1 L321.4,359.8 C323.6,363.9 323.2,365.5 321.9,371 C321.6,372.5 322.8,372.3 323.1,370.5 C323.7,368.9 323.9,368.3 326.4,367.8 L326.4,367.8 Z M337,353.1 C336.5,356.4 338.2,358.5 339.8,356.8 C340.7,355.9 341.4,348.5 340.8,347.4 C337.5,343.8 337.1,352.3 337,353.1 L337,353.1 Z M283,408.4 C295.5,401.1 311.5,407.1 320.5,401.1 C324.7,396.5 328.7,392.7 326.3,389.5 C324.4,387 323.8,386.7 322,388.3 C318.8,391.2 315.7,391.9 307,392 C292.1,391.4 283.3,396.5 283,408.4 L283,408.4 Z M304.3,391 C312.2,391.3 318.7,389.9 321.7,387.6 C323.5,386.2 323.8,385.9 320.9,385.7 C314.7,385.2 308.5,378.1 306.5,371.1 C306.1,369.7 305.6,368.1 305.6,368.1 C289.2,381.2 253,401.9 253,401.9 C255.4,413.1 247.3,419.7 236.4,415.8 C234.5,415.6 234.7,418.1 235.1,419.1 C235.7,420.8 237,422.1 237.3,422.4 C238.9,423.8 239.2,424.7 239,426.1 C238.8,427.4 238.8,427.4 239.7,427.9 C241.3,428.8 241.3,430 240.4,432.6 C239.4,436.2 239.4,437.2 242,438.9 C245.4,441.1 252,443.4 251,446.7 C248.8,454.1 245.1,460.4 241.9,467.3 C240.7,469.2 241,472.4 241.9,473.9 C243.1,476.2 242.9,478.9 244.4,480.9 C252.7,493.2 259.9,504.1 267.4,515.2 L346.6,515.9 L344.6,333.3 C344.6,333.3 332.4,345.3 332.4,346.2 C332.4,347.2 335.3,348.8 336.5,349 C336.6,348.5 336.5,346.3 336.6,345.5 C336.7,344.4 340.2,344.7 341.4,345.6 C342.2,346.3 342,350.6 341.1,354.2 C340.4,357.1 340.5,357.2 341.8,358.8 C343.3,360.9 343.8,362.6 343.6,364.9 C343.5,366.2 343.5,367.2 343.9,368 C344.7,370 344.5,372.8 343.6,374 C342.3,375.9 342.2,376.2 342.5,377.2 C343.6,380.7 343.2,383.6 339.3,385.1 C338.8,385.3 338.3,386.1 337.9,386.9 C336.2,392.5 333,392.5 328.7,390.9 C325.6,402.9 313.1,405.9 304.1,405.5 C294.7,405.1 285.2,405.8 281,412 C282.2,397.5 288.7,390.5 304.3,391 L304.3,391 Z M332.6,366.9 C334.2,366.3 334.4,364.6 333,363.6 C330.9,362 328.6,363.6 329.6,366 C330.1,367.3 331,367.5 332.6,366.9 L332.6,366.9 Z M85.9,361.6 L79.7,357.3 L79.7,361.2 L85.9,365.2 L85.9,361.6 Z M97.6,364.8 L93.2,359.5 C80.2,351.5 68.9,342.6 58.1,335.5 L58,340.4 L61.1,342 C61.1,342 61.4,340.9 61.6,340.3 C62,339.1 65.6,342.4 66.7,345.1 C67,345.8 67.6,347.2 67.6,347.2 L71.8,349.5 C71.8,349.5 71.9,348.3 71.9,348 C71.9,345.5 76.4,348.9 78.4,353 C78.9,354 79.5,355.1 79.5,355.1 L83.4,357.5 C84.9,355.4 88.9,358.3 89.9,360.9 C91.2,364.2 93.4,364.4 93.5,364.4 L97.6,364.8 Z M74.1,364.1 L74.1,360.3 L67.6,356 L67.5,359.8 L74.1,364.1 Z M342,364.4 C342.2,363.4 341.2,359.6 339.7,359.4 C338.8,359.3 337.4,360.7 337.4,361.6 C337.4,362.8 341.9,365.5 342,364.4 L342,364.4 Z M336.7,359.8 C338.1,358.2 336.3,356.2 334.2,356.9 C331.6,357.7 332.5,360.1 335.4,360.1 C336.1,360.2 336.4,360.2 336.7,359.8 L336.7,359.8 Z M73.8,357.1 L73.8,353.5 L67.8,349.5 L67.7,353 L73.8,357.1 Z M62,355.8 L62.1,352.3 L58.1,349.5 L58.1,353.6 L62,355.8 Z M62.1,345.5 L58.1,342.9 L58.1,346.6 L62.3,349 L62.1,345.5 Z M78.5,334.1 C78.1,333 76.4,329.5 76.4,329.5 L58.1,316.7 L58.1,320.6 L78.6,334.4 L78.5,334.1 Z M69.9,303.7 L69.7,302.1 L68.1,303 L69.9,303.7 Z M66.1,304.1 L63.5,305.5 L71.2,310.5 L70.6,306.9 L66.1,304.1 Z M334.5,261.8 L336.5,260.4 L333,258 L332.7,260.4 L334.5,261.8 Z M338.1,259.5 L340.7,257.3 L331.9,251.1 L332.5,254.9 L338.1,259.5 Z M344.3,256.3 L344.3,253.7 L330.1,244.1 L331.1,248.9 C333.6,250.3 336.7,252.5 339.9,254.7 C341.8,256.1 341.9,256.6 344.3,256.3 L344.3,256.3 Z M344.3,251.4 L344.3,247.2 L327.9,236.3 L329.2,241.2 L344.3,251.4 Z M344.3,245.1 L344.3,240.7 L324.4,227.6 L326.6,233.4 L344.3,245.1 Z M344.3,234.1 L319.2,217.3 L322.4,223.7 L344.3,238.3 L344.3,234.1 Z M344.3,227.6 L312.8,206.7 L316.3,212.6 L344.2,231.5 L344.2,227.6 L344.3,227.6 Z M344.3,220.8 L343.1,220.8 C343,223.8 339.8,221.6 338.5,218.3 C337.6,216.1 337.4,215.5 337.4,215.5 L331.1,211.2 C331.2,212.1 331.6,214.6 331.6,214.6 L327.3,212 C327.3,212 326.1,207.9 326,207.8 L318.7,202.8 C318.8,203.6 319,205 318.5,205.1 C318.5,205.1 316.3,204.1 315.3,202.7 C314.2,201.2 314.1,199.6 314.1,199.6 L308.1,195.7 L306.6,195.9 C306.6,195.9 305.8,195.4 305,194.7 C303.6,192.2 301.9,191.8 300,190.8 C300,190.8 304.2,195.7 306.4,198.6 C308.5,201.3 310.9,203.2 310.9,203.2 L344.2,225.4 L344.2,220.8 L344.3,220.8 Z M344.3,214 L341.7,212.5 L341.9,216.5 L344.3,218.1 L344.3,214 Z M85.1,205.1 C85.3,204.8 84.6,204.6 83.9,203 C82.1,199.1 81.9,197.7 82.9,193.6 C83.4,191.6 81.6,190.8 80.7,192.9 C80.1,194.5 79.1,195.5 78.1,195.3 C77.2,195.2 77,195.6 77.4,196.8 C77.9,198.5 76.8,200.8 75.4,201.4 C73.9,201.8 73.7,202.7 74.1,204 C74.8,206.2 72.4,208.1 70.5,208 C67.6,207.8 68.7,210.5 72.2,213 C73.5,213.9 74.1,214.4 75.1,214 C77.8,211.4 82.7,207.8 85.1,205.1 L85.1,205.1 Z M337.1,213.2 L337,209.3 L329.7,204.4 L330.6,209.6 L337.1,213.2 Z M344.3,211.6 L344.3,207.7 L341.3,205.8 L341.4,209.9 L344.3,211.6 Z M69.2,205.5 C69.9,206.2 70.6,206.3 71.7,205.6 C73,204.9 72.5,203.9 71.2,203.3 C69.9,202.7 68.2,204.7 69.2,205.5 L69.2,205.5 Z M67,203.8 C66.9,203 67.9,201.9 68.6,201.9 C70.1,201.8 69.8,201 68.1,200 C67.3,199.5 65.9,198.4 65.4,198 C62.8,196.1 60.3,199 62.3,201.4 C63.8,203.4 66.2,204.6 67,203.8 L67,203.8 Z M336.4,206.3 L335.8,202 L329.2,197.6 L329.7,202.3 L336.4,206.3 Z M96.5,195.8 C96.9,195.2 97,194.6 96.9,193.9 C96.8,191.2 95.4,188 93.4,185.4 C91.9,183.4 90.2,181.7 88.4,180.7 C83.4,178.1 76.6,179.2 77.6,182.6 C78.3,184.9 78.1,186.7 76.2,187.9 C74.9,188.7 74.7,189.7 76.1,189.7 C77.1,189.7 79.8,188.8 80.9,187 C82.5,184.5 83.4,183.1 83,187.1 C82.8,188.8 83.1,188.7 85.7,188.5 C89.3,188.3 88.6,189 86.5,190.6 C83.5,192.9 82.9,196.9 84.4,200.3 C85.4,202.4 86,203.5 87.2,203.2 C90,201.4 94.4,197.9 96.5,195.8 L96.5,195.8 Z M324.8,200.8 L318.3,196.5 L318.6,201.1 L325.6,205.2 L324.8,200.8 Z M75.5,196.6 C73.1,193.6 70.3,197.4 72.1,199.1 C73.4,200.3 76.7,199.1 75.5,196.6 L75.5,196.6 Z M69.8,197 C69.5,196.1 71.2,194.6 71.5,194 C72.3,192.3 65.2,187.4 63,190.3 C61.5,192.3 62.5,194.3 66.6,197 C69.2,198.6 70.3,198.6 69.8,197 L69.8,197 Z M324.1,194.1 L318.1,190.4 L318.2,194.4 L324.6,198.2 L324.1,194.1 Z M313.6,197.7 L313.6,193.7 L307.6,189.5 L307.5,193.7 L313.6,197.7 Z M78.4,192.9 C79.5,191.8 79.1,191.5 77,191.6 C75.7,191.7 75.2,191.4 75.2,192.1 C74.9,193.4 77.2,194 78.4,192.9 L78.4,192.9 Z M73.3,191.4 C73.4,191.1 72.6,190.6 71.4,189.5 C69,187.5 68.8,186.3 71,184.7 C74.2,182.5 70.8,179.4 67.1,180.6 C64.1,181.6 64.1,184.7 65.9,186.7 C68.4,188.4 72.9,193.1 73.3,191.4 L73.3,191.4 Z M313.6,187.3 L307.6,183.2 L307.6,187.2 L313.6,190.7 L313.6,187.3 Z M74.5,187.6 C77.2,186.3 77.3,182.9 74.6,184.1 C73.5,184.6 72.1,186 72.1,186.6 C72.1,187.8 73.1,188.3 74.5,187.6 L74.5,187.6 Z M76.4,179.8 C79.8,178 79.3,176.2 75.9,174.1 C71.7,171.7 68.8,176.3 72.2,179.4 C74,181.1 74.5,180.9 76.4,179.8 L76.4,179.8 Z M81,176.4 C84.2,171.3 91.8,171.1 95.8,170.9 C113.4,170.1 116.2,168.7 120.8,160.8 C122.7,156.3 122.5,155 119.8,156.4 C115.6,158.1 113.3,158.4 105.2,158.5 C99,158.6 97.4,158.6 95.5,159.1 C86.1,161.3 79.6,165.6 78.1,170.9 C77.2,174.2 77.2,173.8 78.9,175.5 C80.4,176.9 81,177.2 81,176.4 L81,176.4 Z M157.1,156.1 C162,156.1 161.8,156.3 159.8,152.3 C164.6,153 166.5,155.2 164.9,150.5 C167.4,151.4 168.9,152.1 171.6,153 L173.3,152 C163.2,142.2 152,150.5 155,160.4 L158.8,158.6 L157.1,156.1 Z" id="Shape" fill="#131F67" fill-rule="nonzero"></path>
            <path d="M356,545.9 L356,539.4 L361.8,539.4 C361.8,539.4 361.7,541.7 361.8,518.4 C361.8,498.1 362,498 362.6,496 C366.7,482.4 390.8,482.4 392.4,497.5 C392.5,504.8 392.5,506.4 392.6,506.4 L386.1,506.4 C386.1,506.4 386.1,504.6 386.1,503.5 C386.1,495.9 383.8,492.6 377.8,492.6 C373.3,492.6 370.7,494.2 369.3,497.9 C368.5,499.7 368.4,501.4 368.4,503.1 C368.4,511.5 368.4,539.5 368.4,539.5 L374.9,539.5 L375,545.9 L356,545.9 Z M181.7,515 L184.1,503.6 L205,504.6 C205,504.6 207.4,511.7 208.4,515 L181.7,515 Z M133.3,514.8 L144.4,496.4 L160.2,500.7 L156.6,515 L133.3,514.8 Z M164,515 L168.8,495.4 C159.8,493.4 151.3,492.1 141.3,489.4 L125.1,515 L115.4,514.7 C123.8,503.5 139.1,481 139.1,481 C174.2,493.1 209.6,495.1 245.3,488.7 C245.3,488.7 258.4,506 263.1,515.4 L253.8,515 L242.3,495.7 C234.3,496.6 226.4,497.6 218,498 L223.7,515 L214.5,515 L209.3,498.1 C199.3,497.7 190.8,498.5 178.8,496.6 L174.6,515 L164,515 Z M230.3,515 L227.1,503 L238.4,501.7 C238.4,501.7 243.6,510.9 246.5,515.1 L230.3,515.1 L230.3,515 Z M263.4,478.9 C263.9,470.5 265.6,463.9 273.4,452.8 C283.4,438.6 301.4,410.9 301.9,409.6 C301.9,409.6 320.5,437.4 328.8,450 C335.9,460.8 340.2,472.8 340.4,480 C340.8,493.8 332.1,502.5 320.4,503.9 C312.4,504.9 304,497.6 303.4,489.1 C303.1,485.6 301.2,484.5 300.7,487.6 C300,498.3 291.6,504.6 281.9,503.6 C267.6,502.3 262.8,488.1 263.4,478.9 L263.4,478.9 Z M364.2,477.7 C360.5,476.5 357.9,472.7 357.4,468 C356.9,462.6 358.8,457 365.5,446.8 C368.7,441.9 372,436.6 374.6,431.4 C378.5,437.1 380.5,441.6 384.5,447.5 C393.6,462 395.3,469.8 390.7,475.4 C387.4,479.3 380.6,479.4 377.8,475.6 C376.9,474.4 376.7,473.9 376.1,471.4 C375.8,470.3 375,470.1 374.8,471.2 C373.5,476.4 369.1,479.2 364.2,477.7 L364.2,477.7 Z M128.9,403.1 C143,381.7 192.6,312.8 192.6,312.8 L199.8,313.5 C199.8,313.5 155.8,374.9 134.3,406.1 L128.9,403.1 Z M57.7,377.1 C56.9,376.3 56.9,371.6 58.3,371.6 C60,371.6 76.6,381.7 74.2,383.6 C73.7,384 75.2,479.2 75.2,479.2 L56.8,492.4 C56.9,492.4 57.9,377.2 57.7,377.1 L57.7,377.1 Z M129.1,211.1 L139.6,231.6 C95.1,273.8 103.8,323.3 127.7,358.6 C127.7,358.6 124.7,366.3 118,374.7 C85.8,353.1 76.1,297.7 76.1,297.7 C111.5,266 116.3,255.9 129.1,211.1 L129.1,211.1 Z M311.4,361.9 C313.4,331.9 328.1,312.5 346.1,295.8 L346.5,329.9 C335.4,340.7 323.9,351.4 311.4,361.9 L311.4,361.9 Z M264.5,330.8 C279.2,319.4 293.9,289.9 295.8,270.4 C297.2,244.4 291.8,225 276.4,204.7 L288,188.5 C304.5,206.1 320.6,224.6 327.5,267.6 C327.5,267.6 326.6,268.1 324.7,269.6 C281.8,307.3 275.2,351.6 275.2,351.6 L264.5,330.8 Z M211,288.6 L210.8,273.6 L225.4,273.5 L225,288.4 L211,288.6 Z M180,288.3 L179.2,272.8 L194.6,273.7 L193.9,288.6 L180,288.3 Z M205,248.5 C205,248.5 253.3,181 272.3,156.5 L276.3,159.5 L212,249 L205,248.5 Z M92,201.3 C92,228 74.8,249.2 57.4,263 L57.6,232.6 L92,201.3 Z M102.2,152.7 C102.2,152.7 67.4,106.2 63.7,85.9 C62.5,73.6 69.5,60.6 81.6,59 C91,57.9 100.1,64.6 101.2,74.2 C101.4,76.1 101.8,76.6 102.8,76.2 C103.5,75.9 103.6,75.5 104,72.2 C104.9,62.9 113.6,57.8 122.6,58.6 C138.7,60.7 144.3,80.8 139.8,91 C130.2,112.4 100.2,153.5 102.2,152.7 L102.2,152.7 Z M10.1,99 C8.8,93.5 10.8,86.5 14.7,84.8 C20.5,82.2 26.1,85.5 27,90.7 C27.4,92.6 28.2,92.5 28.5,90.5 C29.3,85.5 35.1,82.7 40.1,85.3 C46.3,88.5 47.5,96.7 42.9,105.9 C37.7,114.6 27.2,131.4 27.2,131.4 C26.8,130.4 12.4,108.6 10.1,99 L10.1,99 Z M346,72.5 L346.1,191 L329.8,181.2 L331.2,81.8 L346,72.5 Z M268.1,79.5 C231.2,69.9 197.6,67 162.3,74.6 C157.7,69.1 142.2,46.2 142.2,46.2 L151.2,46.4 L163.8,66.5 L187.9,63.3 L181.7,47 L191.6,47 L196.5,63.1 C196.4,63 216.1,63.3 227,64.6 C228.7,58.6 232,46.7 232,46.7 L242.9,46.7 C241.5,52.4 237.7,66 237.7,66 C246.7,67.3 263.3,71.5 263.4,71.7 C269.2,63.5 274.6,55.2 279.9,47 L290.6,46.9 C287.5,52.3 268.7,79.8 268.1,79.5 L268.1,79.5 Z M10.3,56.6 L17,56.6 C16.8,61.4 16.8,67.2 21.3,69.3 C29.2,72 34.5,67.2 35,60.3 C35.4,52.3 35.2,23.5 35.2,23.5 L28.9,23.5 L28.9,17 L48.2,17 L48.2,23.5 L41.8,23.5 C41.8,23.5 42.2,48.2 41.8,60.5 C41.5,72.6 32.2,76.7 24.6,76.3 C8.7,75.6 10,64.3 10.3,56.6 L10.3,56.6 Z M261.3,65.3 L245,61.5 L249.3,47.1 L272.1,47.1 L261.3,65.3 Z M167.8,60.1 L160.2,46.8 L174.8,46.8 L179.6,58.5 L167.8,60.1 Z M200.9,57.4 L198.7,46.8 L225.2,46.8 L222.5,58.1 L200.9,57.4 Z" id="Shape" fill="#D40000" fill-rule="nonzero"></path>
            <path d="M140.3,45.9 L163.8,79.9 C163.9,79.8 177,77.3 189.9,76.7 C202.7,76.1 217.9,76.9 218.1,77.3 C218.1,77.3 222.1,89.4 223.5,95.4 C225.3,103.4 225.1,112.5 223.2,118.6 C220.4,127.5 218.9,130.2 212.7,136.3 C208.1,140.8 201.6,145.6 194.8,148.2 C185.5,152.1 184.5,152.1 179,152.3 C175.4,152.5 175,152.6 173,153.6 C172.4,153.8 172,154.5 171.4,154.6 C170.9,154.7 170.1,154.6 170.1,154.6 C139.8,167.9 116.1,182.7 98.2,195.9 C98,196.1 97.9,196.7 97.7,196.9 C96.2,198.1 94.9,199 93.5,200.1 C93.3,200.3 92.9,200 92.7,200.1 C71.6,216.3 59.7,229.5 55.3,233.3 L55.7,308.9 C55.7,308.9 65.3,304 70.2,301 C73.7,330.3 88.3,358.7 111.3,378.4 L101.3,392.2 L55.2,360.5 L55.8,499.9 L80.3,482.9 L80.3,468.2 C87.6,473.1 94.7,475 99.9,497.4 C104,489.5 103.7,477.8 101.8,470 C101.8,470 108,464.9 109.9,461 L100.8,452.9 C100.8,452.9 103.2,433.4 98.9,429.4 C95.5,438.3 92.8,447.7 80.1,454.5 L79.9,386.6 C86.2,390.6 92.2,395.1 98.5,399.2 L99.4,399 L105.9,403.4 C105.9,403.4 105.2,404.8 104.6,405.7 C96.7,417.6 109.8,432.2 120.5,423.4 C124.7,420 132.5,434.3 134,448.1 C135.5,457 136.3,468 138.7,475.8 C139.4,478.1 139.2,479.3 137.6,480.7 C129.4,492.2 113,515.3 113,515.3 L124.8,515.3 L125.7,513.9 L117,513.9 C124.5,503.9 131.7,492.3 139.5,482.5 C168.5,493.4 216,495.9 244.7,489.3 C250.6,497.6 256.4,506.3 262.1,514.8 L253.8,514.8 L254.9,516.6 L266.1,516.6 L242.6,482 C226.4,486.8 186.9,484.9 187.6,484.5 C187.6,484.5 187.5,484.2 186.1,480.3 C179.3,458.4 178.7,438.9 195.7,423.2 C204.7,415.2 214.8,409.9 226.1,410.9 C231.1,410.8 231.2,410.5 233.3,409.6 C234.5,409.1 236.9,408.5 236.9,408.5 L248.3,402.2 L249.8,401.9 L253.1,400.2 L253.8,399.4 L259.1,396.7 L259.7,396.8 L266.9,392.7 L267,392.1 L269.8,390.4 L270.5,391.1 C271.3,391.2 298.6,373.2 310.1,363.2 L310.8,363.5 C324.1,352.7 342.2,335.7 347.6,329.3 L347.3,296.9 L346.8,296.5 L346.6,260.7 L345.6,260.7 L345.6,256.3 C339.7,258.5 333.2,264 332.8,263.7 C329,233.4 315.1,205.4 292.3,184.9 L302,171.5 L347.1,201.8 L347.2,192.9 L347.8,192.9 C348.3,158.9 348.7,70.8 348.7,70.8 L348.3,70.8 L348.3,63.8 L325.2,78.5 L324.9,93.4 C314.7,90.1 308.2,77.8 306.1,66.8 C303.1,68 301.7,79.5 302.8,94.1 C299.6,96 297.6,98.1 295.7,100.5 C298.2,103.7 301,106.2 304,108.9 C303.4,110.3 302,129.8 303.3,132.2 C303.9,134 306,133.7 306.1,131.9 C309.2,116.7 323.6,106.7 324.4,107.7 L324,177.7 L298.4,159.8 C303.8,153.7 304.9,143.5 298.1,138.5 C291.3,133.5 284.7,137.7 283.1,140.9 C274.8,135.5 272,115.4 270.8,107.6 C270.5,103.8 269.5,98.6 268.4,93.9 C267.7,91 266.8,88.2 266.7,85.5 C266.7,84.3 266.8,83.7 267.9,82.2 L292.8,46.9 L280.1,46.9 L280,47.1 L290,47.1 L267.6,79 C233.8,68.4 198.8,65.8 161.4,72.6 L142.9,46.6 L151.3,46.6 L151,46 L140.3,46 L140.3,45.9 Z M159.9,46.2 L160.3,46.8 L174.8,46.8 L174.6,46.3 C174.6,46.2 159.9,46.2 159.9,46.2 L159.9,46.2 Z M181.4,46.3 L181.7,47.1 L191.6,47.1 L191.3,46.4 L181.4,46.3 Z M232.1,46.5 L232,46.9 L242.9,46.9 L243,46.5 L232.1,46.5 Z M198.6,46.5 L198.7,46.9 L225.1,46.9 L225.2,46.5 L198.6,46.5 Z M249.4,46.8 L249.3,47.2 L272.1,47.2 L272.3,46.8 L249.4,46.8 Z M345.5,66.2 L345.6,71 L330.3,80.7 C329.9,101.2 329.3,180 329.3,180 L325.6,177.6 L326.3,78.9 C326.3,78.9 339.8,70.2 345.5,66.2 L345.5,66.2 Z M305.3,70.1 L305.8,70.1 L306,71.2 L305.1,71.2 L305.3,70.1 Z M306.4,73 L306.8,74.5 L304.6,74.5 L305,73 L306.4,73 Z M345,73.7 L345,76.8 L331.8,85.1 L331.8,82 L345,73.7 Z M304.3,76.3 L307.8,76.3 L308.4,78 L304,78 L304.3,76.3 Z M219.5,77.3 L221.8,77.6 C227.1,90.2 228.5,101.1 229.4,112.3 C231.5,126.9 235.8,141.6 238.7,147.8 L235.3,147.8 C234.9,147.8 227.8,126.6 226.3,114.1 C225.9,111.6 226.1,109.3 225.9,107 C225.2,97.4 223.9,90.1 219.5,77.3 L219.5,77.3 Z M223.9,77.8 L226.8,78.1 C228.9,87.1 231.9,95.5 233.1,104.5 C235.1,118.9 236.1,133.6 243,147.8 L240.2,147.8 C236,138.2 233.4,128.2 231.7,117.4 C230.4,111.2 230.4,106.5 229.7,100.9 C228.9,94.1 226.3,85.6 223.9,77.8 L223.9,77.8 Z M228.3,78.2 L231.3,78.6 C233.2,87.5 236.6,97.3 237.4,105.3 C239.2,121.7 241.8,136.9 246.9,147.8 L244.8,147.7 C236.8,132.2 236.7,118.5 234.5,104 C233.2,95.5 230.5,87 228.3,78.2 L228.3,78.2 Z M233,78.9 L235.6,79.3 C237.4,88.2 240.7,98.2 241.4,107.2 C242.7,123.1 245.6,135.1 251.5,148 L249.1,148 C242,135.5 241,120.2 238.8,104.6 C237.5,96 234.8,87.4 233,78.9 L233,78.9 Z M345,78.9 L345,82.8 L331.8,91.3 L331.8,87.5 L345,78.9 Z M237.3,79.7 L240,80.1 C241.8,88.6 245,97.7 245.8,106.1 C247.1,120.3 249.7,134.6 255.6,147.9 L253.1,148 C246.9,134.7 244.2,122.5 243,107.2 C242.4,98.5 239,88 237.3,79.7 L237.3,79.7 Z M309.2,79.7 L310.2,82 L303.9,82.3 L304,79.7 L309.2,79.7 Z M241.8,80.5 L245,81.1 C248.4,94.7 249.3,107.6 251.7,120.6 C254.6,136.7 257.7,144.8 260.2,147.8 L257.5,147.9 C251,134 248.7,120.1 247.1,105.8 C246.2,97.3 243.5,88.9 241.8,80.5 L241.8,80.5 Z M246.7,81.4 L249.2,81.9 C252.1,93 253.5,103.4 254.8,113.5 C257.2,132.6 263.5,147.2 264.9,147.9 L262.2,147.8 C256.3,139.6 254.1,125.8 251.2,106.2 C249.8,97.6 248.6,89.4 246.7,81.4 L246.7,81.4 Z M250.7,82.2 L253.5,82.9 C253.5,82.9 256,92.7 257.9,105.7 C259.5,116.5 260.3,137.8 272.1,150.1 C278,156.2 288.3,161.5 295.4,155.8 C298.4,153.2 300.4,149.1 298.5,144.7 C295.5,137.3 285.1,138.6 288.6,146.3 C289,148.2 286.6,148.2 284.9,146.4 C283.1,144.5 283.6,142.3 284.8,140.2 C287.5,135.9 294.6,135.5 298.7,139.3 C305.4,145.8 302.5,157 294,160.6 C284.3,164.7 271.7,156.2 266.8,148.1 C258.6,133.9 257.3,120.5 255.4,106.1 C254.3,98.4 252.4,90.2 250.7,82.2 L250.7,82.2 Z M254.8,83.4 L257.6,84.1 C257.6,84.1 260.7,97.9 261.7,106.1 C263,116.2 264.4,128.1 268.7,137.2 C271.4,142.9 275.3,147.7 279.2,150.5 C282.6,152.9 285.6,154.4 290.2,153.4 C295.4,152.3 295.6,144.2 290.7,144.2 C288.2,144.2 289.8,141.7 291.9,141.7 C299.4,141.5 299.6,153.3 292.6,155.9 C284.5,158.9 275.8,153.2 270.4,146.1 C260.9,131.4 261.3,118 259.2,106.1 C258.6,99.8 255.1,83.7 254.8,83.4 L254.8,83.4 Z M311.6,83.8 L313.3,86.1 L303.8,86.1 L303.8,83.9 L311.6,83.8 Z M259,84.5 L261.7,85.4 C261.8,85.4 264.4,96.1 266,108.7 C267.9,120.9 268.6,131 274.9,139.8 C277.5,143.5 282.5,148.3 285.6,148.9 C287.5,149.3 289.5,148.9 290,147.4 C290.8,145 292.9,146.1 292.9,148.3 C292.9,149.8 291.8,151.4 289.9,152 C280.6,153.6 272.1,142 269.6,136.1 C266.1,127.5 264.6,117.9 263.1,106 C262.5,101 259.4,84.9 259,84.5 L259,84.5 Z M345,85 L345,88.9 L331.8,97.2 L331.8,93.4 L345,85 Z M263.1,85.7 L266.1,86.5 C266.1,86.5 268.6,95.9 270.1,107.5 C271.6,119.3 274.9,132.9 281,140 C281.6,140.7 281.9,141.2 282.2,141.6 C282.6,142.6 282.1,144.2 281.7,144.2 C270.9,138.6 268.3,115.9 267.4,108.2 C265.9,96.3 263.1,85.7 263.1,85.7 L263.1,85.7 Z M305.3,87.5 L314.9,87.8 L317.2,90.1 L304.5,90 C303.1,88.6 303.9,88.7 305.3,87.5 L305.3,87.5 Z M345,90.7 L345,93.9 L331.8,102.3 L331.8,99 L345,90.7 Z M305.6,91.7 L319.6,91.9 L324.5,94.8 L303.1,94.6 L305.6,91.7 Z M345,95.7 L345,99.5 L331.8,107.8 L331.8,104.2 L345,95.7 Z M300.4,96.5 L324.2,96.7 L324.3,99.3 L298.5,98.6 L300.4,96.5 Z M297.3,100.9 L324.2,101 L324.3,103.9 L299.8,103.7 L297.3,100.9 Z M345,101.3 L345,105.3 L331.8,113.5 L331.8,109.7 L345,101.3 Z M302.4,105.5 L323,105.6 L320.8,108 L305.2,107.8 L302.4,105.5 Z M345,106.9 L345,110.7 L331.8,119 L331.8,115.3 L345,106.9 Z M317.9,109.8 L315.4,112.2 L304.7,112.1 L305.1,109.9 L317.9,109.8 Z M345,112.5 L345,116.6 L331.8,124.7 L331.8,121.2 L345,112.5 Z M304.6,113.9 L313.4,114.1 L312,116 L304.3,116 L304.6,113.9 Z M225.2,117.2 C226.5,127.4 233.9,147.9 233.9,147.9 L231,147.9 C231.1,148.1 225.7,135 223.8,122.6 C223.5,121.4 224.3,117.4 225.2,117.2 L225.2,117.2 Z M304,117.8 L310.8,117.9 L309.3,120.5 L303.8,120.5 L304,117.8 Z M345,118.4 L345,121.9 L331.8,130 L331.8,126.8 L345,118.4 Z M303.8,122 L308.3,122.1 L307.2,124.5 L303.7,124.4 L303.8,122 Z M345,123.9 L345,127.7 L331.8,135.9 L331.8,132.3 L345,123.9 Z M222.4,124.7 C223.7,132.1 229.3,147 229.8,148 L227.3,148 C227.2,148.3 221.4,134.6 220.8,128.8 C220.6,127.5 221.2,125.1 222.4,124.7 L222.4,124.7 Z M303.7,126.2 L306.4,126.3 L305.9,127.7 L303.7,127.8 L303.7,126.2 Z M304,129.6 L305.4,129.6 L305.1,130.9 L304.2,130.9 L304,129.6 Z M345,129.6 L345,132.7 L331.8,141 L331.8,138.1 L345,129.6 Z M219.1,130 C221.1,135.9 223.1,142 225.5,147.8 L222.5,147.7 C220.5,143.5 219.2,138.8 217.6,134.2 C217.3,132.3 218.2,130.7 219.1,130 L219.1,130 Z M216.2,134 L221.1,147.7 L218.3,147.7 C217.2,144.9 215.9,141.8 215,139 C214,136 214.1,135.9 216.2,134 L216.2,134 Z M345,134.8 L345,138.4 L331.8,146.6 L331.8,143.5 L345,134.8 Z M214.1,140.1 L216.8,147.7 L213.4,147.6 C212.4,145.2 211.8,143.1 211.5,140.8 C211.4,139.7 211.2,138.5 212,138.1 C213.5,137.2 213.4,137.9 214.1,140.1 L214.1,140.1 Z M210.5,143.2 L211.9,147.7 L208.7,147.6 C207.7,145.5 207.4,144 207.7,141.8 C209.6,139.5 209.7,140.7 210.5,143.2 L210.5,143.2 Z M345,140.6 L345,144.4 L331.8,152.3 L331.8,148.8 L345,140.6 Z M205.9,143.3 L207.2,147.7 L204.3,147.6 C203.8,146.6 204.1,145.3 204.1,144.1 L205.9,143.3 Z M202.1,145.6 C202.1,145.6 202.2,145.6 202.1,145.6 C202.6,147.6 202.2,147.7 202.2,147.7 L198.1,147.7 C198.2,147.6 201.5,145.6 202.1,145.6 L202.1,145.6 Z M345,146.7 L345,149.7 L331.8,157.9 L331.8,154.8 L345,146.7 Z M188.1,151.5 L267.4,151.7 L270,155.4 C270,155.4 262.3,155.6 237,155.5 C215.7,155.8 173,155 173,155 L177.2,153 C183,153 188.2,151.5 188.1,151.5 L188.1,151.5 Z M345,152 L345,155.3 L331.8,163.3 L331.8,160.1 L345,152 Z M121.9,155.2 C115.5,158 109.6,158.7 105.1,158.4 C95.5,157.6 80.9,161.6 77.9,170.8 C77,174 77,174.1 78.7,175.8 C79.6,176.6 80.4,177.2 80.6,177.2 C82.1,175.8 84.2,173.3 86.4,172.6 C89.3,171.7 90.8,171.6 95.6,171.4 C105.8,171 108.1,170.5 110.6,169.8 C116.2,168.3 121.8,162.9 122.1,156.8 C122.1,156 121.9,155.2 121.9,155.2 L121.9,155.2 Z M121.6,156 C120.5,168.7 106.7,170.4 100.7,170 C88.4,169.3 83.6,172.9 81.6,175.2 C81,175.8 80.6,175.7 80.7,175.1 C82.1,168.1 93.5,167.8 99.2,167.9 C113.2,168.5 116.8,161.8 116.4,161.7 C115.3,162.2 114.5,162.6 113.5,163.1 C113,163.3 113.1,163 111.9,162.3 C111.9,162.4 110.5,165.5 108.7,162.6 C108.8,162.7 107.4,165.2 105,162.9 C105,163.2 103.5,165.3 101.1,163.1 C98.8,165 97.8,164 96.8,162.6 C96.1,163 94,165.8 92.3,162.8 C90.5,164 89.7,165.3 88.1,164.5 C84.4,165.2 81.2,169 79.8,172.5 C79.4,173.7 78.6,173.9 78.5,172.6 C78.1,168.9 84.1,162.6 90.1,160.9 C94.8,159.5 98,158.6 108.3,159 C114.2,159.1 121.6,156 121.6,156 L121.6,156 Z M272,156.9 L275.7,159.4 L211,248.6 L205.3,248.5 L272,156.9 Z M168.3,157 L175.7,157 L175.7,169.1 L169.4,169.1 L167.1,165.7 C167.7,166 168.4,166.3 169.1,166.3 C171.3,166.3 173,164.5 173,162.4 C173,160.2 171.2,158.5 169.1,158.5 C166.9,158.5 165.2,160.3 165.2,162.4 C165.2,162.6 165.2,162.8 165.2,163 L162.8,159.5 C162.8,159.5 163.8,158.9 166.2,157.8 C166.8,157.5 168.3,157 168.3,157 L168.3,157 Z M190.9,157 L203.4,157 L203.4,169.1 L190.9,169.1 L190.9,157 Z M218.2,157 L231.1,157 L231.1,169.2 L218.2,169.1 L218.2,157 L218.2,157 Z M246.1,157 L259,157 L259,169.1 L246.1,169.1 L246.1,157 Z M344.8,157.3 L345,161.1 L331.8,169.1 L331.8,165.3 L344.8,157.3 Z M252.1,158.6 C249.8,158.6 247.9,160.5 247.9,162.8 C247.9,165.1 249.8,167 252.1,167 C254.4,167 256.3,165.1 256.3,162.8 C256.2,160.4 254.4,158.6 252.1,158.6 L252.1,158.6 Z M197.2,158.8 C194.9,158.8 193,160.7 193,163 C193,165.3 194.9,167.2 197.2,167.2 C199.5,167.2 201.4,165.3 201.4,163 C201.4,160.6 199.5,158.8 197.2,158.8 L197.2,158.8 Z M224.4,158.9 C222.1,158.9 220.2,160.8 220.2,163.1 C220.2,165.4 222.1,167.3 224.4,167.3 C226.7,167.3 228.6,165.4 228.6,163.1 C228.6,160.7 226.7,158.9 224.4,158.9 L224.4,158.9 Z M238.4,159.4 C240.3,159.4 241.9,161 241.9,162.9 C241.9,164.8 240.3,166.4 238.4,166.4 C236.5,166.4 234.9,164.8 234.9,162.9 C234.9,160.9 236.5,159.4 238.4,159.4 L238.4,159.4 Z M183.1,159.4 C185,159.4 186.6,161 186.6,162.9 C186.6,164.8 185,166.4 183.1,166.4 C181.2,166.4 179.6,164.8 179.6,162.9 C179.6,161 181.2,159.4 183.1,159.4 L183.1,159.4 Z M266,159.5 C266.8,159.5 267.6,159.8 268.2,160.3 L264.4,165.5 C263.5,164.9 262.8,163.9 262.8,162.7 C262.8,161 264.2,159.5 266,159.5 L266,159.5 Z M211.3,159.5 C213.2,159.5 214.8,161.1 214.8,163 C214.8,164.9 213.2,166.5 211.3,166.5 C209.4,166.5 207.8,164.9 207.8,163 C207.8,161.1 209.3,159.5 211.3,159.5 L211.3,159.5 Z M169,159.8 C170.4,159.8 171.6,161 171.6,162.4 C171.6,163.8 170.4,165 169,165 C167.6,165 166.4,163.8 166.4,162.4 C166.4,161 167.6,159.8 169,159.8 L169,159.8 Z M161,159.9 C183.2,188.2 195,216.9 200.2,248.2 L196.5,248 C190.3,214 176.4,184.8 157.6,161.3 L161,159.9 Z M252.1,160 C253.6,160 254.9,161.2 254.9,162.8 C254.9,164.3 253.7,165.6 252.1,165.6 C250.5,165.6 249.3,164.4 249.3,162.8 C249.3,161.2 250.5,160 252.1,160 L252.1,160 Z M197.2,160.2 C198.7,160.2 200,161.4 200,162.9 C200,164.4 198.8,165.7 197.2,165.7 C195.6,165.7 194.4,164.5 194.4,162.9 C194.4,161.4 195.7,160.2 197.2,160.2 L197.2,160.2 Z M224.4,160.3 C225.9,160.3 227.2,161.5 227.2,163 C227.2,164.5 226,165.8 224.4,165.8 C222.8,165.8 221.6,164.6 221.6,163 C221.6,161.5 222.9,160.3 224.4,160.3 L224.4,160.3 Z M293.5,162.2 C295,173.4 292.1,180.6 283.5,181.8 C272.6,183.3 271.2,184.1 271.1,194.4 C271,206.6 269.2,210.2 260.6,211.1 C250.9,212.2 248.6,213.3 249.5,225.4 C250.1,234.2 246.7,238 239.2,239.6 C233.3,240.9 228.3,242.8 226.1,248.8 L220.7,248.9 C222.1,239.6 231.5,235.1 237.4,234.8 C243.9,233.3 245.2,231.1 244.2,219.8 C243.4,211.3 246.5,208.7 256.6,206.7 C264.6,205.1 266.6,202.8 266.1,196.3 C265.2,182.2 266.1,180.1 274.1,178.4 C278.2,177.4 284.8,177 287.3,173.9 C290.2,170.4 289.4,167.3 289.2,163 L293.5,162.2 Z M345,162.6 L345,166.3 L331.8,174.4 L331.8,170.8 L345,162.6 Z M151.1,164.8 C148.3,177 158,179.6 163.9,181.7 C170.8,184.1 172.4,187.6 171.7,199.7 C171.1,208.9 172.1,210.9 178,214 C187.1,218.7 189.5,225.3 185.5,235.1 C183,241.1 184.3,242.8 185.9,248 L181.5,248 C181.2,248.1 177.5,241.5 180.6,234.3 C184.4,225.8 184.2,221.6 175.9,217.8 C169.4,214.9 167.4,212.1 167,206 C166.8,203.4 166.8,202.2 167.4,196.6 C168.1,189.6 165.7,186.6 155.3,182.7 C150.7,181 147.6,177 146.6,170.7 C146.3,168.9 146.6,166.9 146.6,166.9 L151.1,164.8 Z M305.8,166.1 L345.1,192.3 L344.8,198.1 L303.1,170.2 L305.8,166.1 Z M280.4,166.7 C282.3,166.7 283.9,168.2 283.9,170.2 C283.9,172.1 282.4,173.6 280.4,173.6 C278.4,173.6 277,172.1 277,170.2 C277,168.2 278.5,166.7 280.4,166.7 L280.4,166.7 Z M156.7,168.2 C158.4,168.2 159.8,169.6 159.8,171.3 C159.8,173 158.4,174.4 156.7,174.4 C155,174.4 153.6,173 153.6,171.3 C153.5,169.6 154.9,168.2 156.7,168.2 L156.7,168.2 Z M344.9,168.6 L344.8,172.1 L331.8,180.1 L331.8,176.6 L344.9,168.6 Z M139.6,171 C151.5,186.5 163.2,202.5 172.2,232.6 L168.4,234.1 C160.9,209.9 149.5,189.7 136,173.1 L139.6,171 Z M170.7,170.9 L260.3,170.9 L258,174 L172.4,173.1 L170.7,170.9 Z M345,173.8 L345,177.6 L335.1,183.6 L332.2,181.7 L345,173.8 Z M134.3,174.2 L136.1,176.5 C136.1,176.5 134.2,178 132,179.5 C126.1,183.7 125.4,184.2 125,186.9 C124.1,193.4 130.7,196.6 137.5,192.8 C139.9,191.7 145.2,188.4 145.2,188.4 L146.7,190.6 C146.7,190.6 139.2,196.3 134.7,197.5 C125,200.3 117.7,188 124.9,180.7 C126,179.6 128.3,178.1 130.2,176.9 C132,175.8 134.3,174.2 134.3,174.2 L134.3,174.2 Z M174.3,175.7 L256.9,176.2 L204.2,248.3 L201.9,248.2 C197.8,221.2 187.6,197.6 174.3,175.7 L174.3,175.7 Z M138.3,178.8 L143.1,185.5 C143.1,185.5 140,188.5 134.8,191.4 C130.6,193.7 126.1,189.5 128.7,185.8 C131.5,182.1 138.3,178.8 138.3,178.8 L138.3,178.8 Z M345,179.5 L345,183 L339.3,186.5 L336.7,184.8 L345,179.5 Z M137.7,182.2 C135.4,182.3 131.6,184.9 130.3,187.2 C129.7,188.2 129.9,189 130.5,189.6 C131.3,190.6 132.2,190.6 135,189.1 C140.6,186.1 141.7,184.3 139.2,182.6 C138.9,182.4 138.5,182.2 138,182.2 C137.9,182.2 137.8,182.2 137.7,182.2 L137.7,182.2 Z M137.5,183.6 C137.9,183.6 138.3,183.7 138.6,183.6 C139.6,184 139.3,185.2 138.3,185.5 C138.1,185.1 136.4,185.1 136.5,186.8 C136.1,187.8 136.1,187.7 134.9,187.8 C134.1,187.6 133.5,188.2 133.4,188.5 C132.5,189 131.5,188.8 131.3,188.3 C131.1,187.8 131.8,186.4 132.4,186.4 C132.7,186.4 133.2,186 133.7,185.6 C133.7,184.7 134.8,184.5 135.1,184.5 C135.4,184.6 136.5,184.6 137,183.7 C137.1,183.7 137.3,183.6 137.5,183.6 L137.5,183.6 Z M345,184.4 L345,189.8 L340.9,187.1 L345,184.4 Z M115.9,185.1 C130.9,202.9 141.8,221.8 148.7,247.9 L145.7,250 C141.1,231.7 134.1,212.3 113.4,187.1 L115.9,185.1 Z M291.8,185.4 C298.6,191.2 326.5,217.4 331.8,264.1 L328.1,266.4 C325.1,241.8 315.4,213.6 289.4,188.6 L291.8,185.4 Z M278.4,187 C280.3,187 281.8,188.5 281.8,190.4 C281.8,192.3 280.3,193.9 278.4,193.9 C276.5,193.9 275,192.4 275,190.4 C274.9,188.6 276.5,187 278.4,187 L278.4,187 Z M111.7,188.4 C111.7,188.4 114.9,191.6 114.9,192.4 C114.9,193.9 113.7,194.8 106.4,197.4 C105.2,197.8 99.8,199.1 99.8,199.1 L99.6,196.5 C102.3,195.5 109.7,193.8 110.2,192.2 C110.5,191.6 109.2,190 109.4,190 L111.7,188.4 Z M161.8,189 C163.5,189 164.9,190.4 164.9,192.1 C164.9,193.8 163.5,195.2 161.8,195.2 C160.1,195.2 158.7,193.8 158.7,192.1 C158.7,190.5 160.1,189 161.8,189 L161.8,189 Z M288.4,189.9 C311.1,212.1 323.7,239.6 326.6,267.9 C300.1,289.4 282.1,316.5 275,350.4 C271.5,344.5 268.5,337.7 265.2,331.1 C300.5,300.1 308,244.1 277.4,205 L288.4,189.9 Z M149.3,194.2 L150.9,196.7 C150.9,196.7 150.6,197 145.6,200.1 C138.4,204.6 137.2,207.5 139.6,212.1 C142.1,216.8 144.8,217.1 152.6,213.3 C155.3,212 157.7,210.6 157.7,210.6 L158.9,213.2 C158.9,213.2 155.4,216 148.7,218.5 C142.4,220.8 136.4,216.9 135.3,209.6 C134.5,204.3 136.8,201.5 146,196.3 C147.1,195.6 149.3,194.2 149.3,194.2 L149.3,194.2 Z M257.7,195.4 C259.6,195.4 261.1,196.9 261.1,198.8 C261.1,200.7 259.6,202.2 257.7,202.2 C255.8,202.2 254.2,200.7 254.2,198.8 C254.2,196.9 255.8,195.4 257.7,195.4 L257.7,195.4 Z M117.2,195.5 L119.3,197.5 C119.3,197.5 118.4,198.8 113.3,201.9 C108.7,204.7 108.2,204.2 110.5,206.2 C114.8,209.8 120.7,217.8 120.7,219.9 C120.7,221.9 118.9,223.7 115.5,225.3 C113.6,226.1 106.2,228.8 105.1,229 C102.9,229.2 102.3,230.1 104.5,232.1 C108.2,236.3 111.3,245.3 110,248.1 C108.6,251.2 106.9,251.7 93.3,252.3 C91.7,252.4 91,251.9 91.8,253.9 C92.4,255.3 93.1,257.3 94.3,263.4 C95.4,268.9 95.2,271.3 93.1,272.4 C91.9,273.1 82.4,272.8 78.5,272 C74,271.1 73.5,271.1 74.3,274 C75.2,278 75.8,288.8 72.8,290.9 C71.5,291.7 70.2,291.5 64.6,289.6 C61.1,288.4 58,287 58,287 L58.1,283.7 C61,284.9 68.9,288.3 71.2,287.2 C73.9,283.4 70.2,269.9 68.7,267.1 C67,263.7 68.8,262.9 72.7,265 C74.8,266.5 92.6,273.5 91.6,267.2 C90.5,261.2 88.6,254.4 84.8,250.2 C81.3,246.3 83,244.6 86.9,246.4 C93.8,249.5 107.9,248.7 107.2,245.5 C106.3,240.3 101.6,233.3 95.2,227.9 C93.4,226.4 93.3,225.8 95.5,225.4 C101.5,224.9 118.6,223.2 116.2,219.1 C114.1,215.8 111.4,212.2 109,210.2 C105.2,207 101.3,205.6 99.6,204.9 L99.7,202.4 C107.4,201.9 111.4,199.5 117.2,195.5 L117.2,195.5 Z M98.3,197.9 C95.5,227.3 83.2,251.5 57.9,268.3 L57.8,265 C80.1,248.3 90.8,224.5 93.7,201.4 L98.3,197.9 Z M152.3,199.8 C152.3,199.8 152.3,199.8 152.3,199.8 C152.3,199.8 156.4,207.1 156.4,207.8 C154,210 147.6,213.3 145,212.6 C141,211.3 140.4,207 144.2,204.5 C147.6,202 151.7,199.9 152.3,199.8 C152.3,199.8 152.3,199.8 152.3,199.8 L152.3,199.8 Z M119.8,199.3 L121.9,201.2 C121.9,201.2 121.4,202 118.4,204.4 C116.1,206.2 116.9,205.5 118.5,207.6 C119.9,209.3 122.4,212.7 122.4,212.7 L121.6,217.2 C119,213.4 116.8,210.7 112.9,206.7 C110.9,204.7 111,204.6 113.9,203.1 C115.9,202 117.7,200.5 119.8,199.3 L119.8,199.3 Z M176.7,202.2 C178.4,202.2 179.8,203.6 179.8,205.3 C179.8,207 178.4,208.4 176.7,208.4 C175,208.4 173.6,207 173.6,205.3 C173.6,203.6 175,202.2 176.7,202.2 L176.7,202.2 Z M151.4,202.5 C148.4,203.3 145.5,205.9 143.9,207.1 C143.3,207.5 143.8,209.7 144.3,210.4 C145,211.3 146.4,211.2 148,210.3 C148.7,209.9 149.9,209.3 150.7,208.9 C153,207.8 154,207.1 153.9,206.2 C153.6,205 152.6,202.4 151.4,202.5 L151.4,202.5 Z M151.6,203.8 C152.4,203.8 153,204.9 152.8,205.5 C151.4,206.3 150.6,205.6 150.8,206.7 C150.8,206.7 150.9,208.4 148.8,208.4 C148.3,208.2 147.4,208.2 147,208.7 C145.5,209.3 144.3,208 145.8,207.3 C146.2,207.1 147.3,206.8 147.6,206.1 C147.8,205.3 148.4,204.6 149.2,205.1 C149.6,205.1 150.5,205.2 150.8,204.6 C150.7,203.9 151.2,203.8 151.5,203.8 C151.5,203.8 151.5,203.8 151.6,203.8 L151.6,203.8 Z M91.5,203.6 C92.1,206.9 90.2,212.7 89,215.9 C82.3,224.6 72.7,229.1 63.5,232.1 C61.5,232.8 58.7,232.4 58.7,232.4 C71.4,219.4 82.3,209.8 91.5,203.6 L91.5,203.6 Z M68.3,206.6 C68.4,205.9 65,205 64.7,205.4 C64.1,206 63.1,215.1 63.7,215.7 C64.6,216.6 67.1,216.9 67.3,215.8 C68.1,212.3 67.9,209.6 68.3,206.6 L68.3,206.6 Z M125.3,206.3 L127.5,209 C122.9,252.8 91.6,290.7 58.2,305.7 L58.1,302.8 C96.3,282.8 119.3,249.4 125.3,206.3 L125.3,206.3 Z M276.5,206.5 L280.6,212.2 L274.7,212.4 L276.5,206.5 Z M67.2,207.6 C67.2,209.1 67,212.2 66.4,213.9 C66,215.2 65,214.9 64.6,213.7 C64.2,212.4 64.5,208.7 65.3,207.2 C66.1,205.8 66.8,206 67.2,207.6 L67.2,207.6 Z M98.8,208.3 C100.9,208.3 111.7,215 110.3,218.3 C109.1,221 100,221.2 95.8,220.8 L96.4,218.2 C96.4,218.2 97.7,218.6 102.5,218.1 C107.6,217.8 107.2,216 101.4,212.3 C98.9,210.7 98.3,210.3 98.3,210.3 L98.8,208.3 Z M129,211.9 C132.4,217.6 135.6,224 138.6,231.2 C97.4,270 100.6,322.9 126.6,357.7 L115.4,372.8 C93,351.5 80.9,325.2 76.8,297.3 C109.3,273.8 124.7,238.8 129,211.9 L129,211.9 Z M281.8,213.7 L284.3,218.4 L278.4,218.3 L281.8,213.7 Z M256.3,216 C258.2,216 259.7,217.5 259.7,219.4 C259.7,221.3 258.2,222.8 256.3,222.8 C254.4,222.8 252.8,221.3 252.8,219.4 C252.9,217.6 254.4,216 256.3,216 L256.3,216 Z M160.5,216.9 L161.7,219.6 C161.8,219.9 153.4,222.6 150.7,226 C148.2,229.1 148.4,232.4 149.8,234.7 C152.2,237.9 153.9,238.4 157.9,237.1 C161.2,236.1 163.6,234.7 166.9,233.1 L167.4,234.4 C167.4,234.3 162.7,237.2 159.1,239.2 C157.8,239.9 156.1,240.3 154.7,240.2 C146.6,240 142.3,229.5 149,223.3 C150,222.4 153.3,220.6 156.1,219.1 C158,218.2 160.5,216.9 160.5,216.9 L160.5,216.9 Z M268.2,218.6 C295,257.3 276.7,299.8 259.3,314.8 L258.8,310.2 C288,276.9 277.8,238.1 265.7,220.9 L268.2,218.6 Z M285.5,220.3 L287.6,225.1 L281.4,224.4 L285.5,220.3 Z M177.3,221.9 C179,221.9 180.4,223.3 180.4,225 C180.4,226.7 179,228.1 177.3,228.1 C175.6,228.1 174.2,226.7 174.2,225 C174.1,223.3 175.5,221.9 177.3,221.9 L177.3,221.9 Z M265,222.5 C288.5,256.7 275.4,311.2 230.5,327.8 L230.3,324 C276.1,304.9 280.6,253.9 262.2,225.2 L265,222.5 Z M163,222.7 L166,230.7 C162.3,233.2 160.8,233.6 156.6,234.7 C153.3,235.5 150.7,229.7 153.3,227.6 C156.1,225.1 159.2,224 163,222.7 L163,222.7 Z M86.7,222.8 C87.3,222.8 86.7,224.1 85.2,227.6 C82.1,235.2 81.9,235.3 74,236.6 C69.9,237.3 66.8,237.4 63.9,237.1 C59.5,236.7 57.6,235.4 60.5,234.8 C68.8,233 77.9,228.7 83.8,224.6 C85.4,223.4 86.3,222.8 86.7,222.8 L86.7,222.8 Z M236.2,223.7 C238.3,223.7 240.1,225.4 240.1,227.6 C240.1,229.7 238.4,231.5 236.2,231.5 C234.1,231.5 232.3,229.8 232.3,227.6 C232.4,225.4 234.1,223.7 236.2,223.7 L236.2,223.7 Z M119.3,224.8 L119,227.8 C119,227.8 114.2,230.3 112,231.3 C110.3,232 110.2,232.2 110.7,233.8 C111.8,237 114,241 114,241 L112,245.5 C110.8,241.4 109.5,237.1 107.3,233.4 C105.2,230.4 104.8,230.1 108.1,229.5 C112.2,227.8 115.5,226.8 119.3,224.8 L119.3,224.8 Z M161.9,225.7 C159.6,225.8 154.7,227.8 154.2,229.6 C153.9,230.7 154.2,232.1 155.1,232.5 C157.5,233.4 162.4,231.4 163.7,229.6 C164.1,229 163.5,227.9 163.1,227.1 C162.8,226.6 162.8,225.7 161.9,225.7 L161.9,225.7 Z M162,227.3 C162,227.3 162.1,227.3 162.1,227.3 C162.5,227.3 163.9,229.1 162.3,228.9 C161.7,228.8 161.2,229 160.8,229.5 C160.7,230.4 159.5,230.7 158.9,230.4 C158.4,230.2 157.8,230.6 157.8,230.9 C156.9,231.6 155.7,231.5 155.6,231.1 C155.3,230.8 156.2,229.4 157,229.5 C157.2,229.5 157.7,229.1 158.3,228.7 C158.6,227.8 159.5,227.9 160.1,228 C160.8,228.3 161.4,227.4 162,227.3 L162,227.3 Z M288.4,227.5 L290.1,232.3 L283.9,231.8 L288.4,227.5 Z M261.9,233 C260.6,234.6 259.5,234.6 257.6,234.6 C259.1,236.4 259.8,238.9 258.3,240.5 C256,242.8 251.7,239.3 252,239 L259.8,228.6 C261.9,229.1 263.1,231 261.9,233 L261.9,233 Z M92.3,230.3 C92.3,230.3 101.8,238.5 101.9,242.1 C101.9,243.5 101.5,243.9 100.4,244.3 C96.7,245.5 86.3,242.4 86.3,242.4 L87.6,239.9 C89.2,240.3 97.3,242.4 98,241.4 C98.7,240.3 91.3,233.1 91.3,233.1 L92.3,230.3 Z M139.4,233.7 L140.5,237.7 L136.6,236.7 L139.4,233.7 Z M291.1,234.4 L292.1,239.9 L285.9,238.4 L291.1,234.4 Z M172.5,234.5 L173.4,237.7 C132.2,256.8 120.1,300.7 141.6,337 L139.2,340.3 C110.5,293.7 139.6,246.3 172.5,234.5 L172.5,234.5 Z M135.4,237.8 L136,242.7 L131.2,242.4 L135.4,237.8 Z M78.6,237.7 C79.4,237.7 79.6,238.2 79.6,238.6 C79.6,239.3 75.4,244.6 74.1,245.8 C71.2,247 59.9,242.3 58.2,238.6 C57.9,237.5 59,238 61.5,238.5 C67.8,240.4 74.2,237.9 78.6,237.7 L78.6,237.7 Z M188.5,237.8 C190.2,237.8 191.6,239.2 191.6,240.9 C191.6,242.6 190.2,244 188.5,244 C186.8,244 185.4,242.6 185.4,240.9 C185.4,239.2 186.8,237.8 188.5,237.8 L188.5,237.8 Z M58.6,241.6 C61.7,244.4 66.3,246.8 70.4,247.6 C73,248.2 72.2,248.4 69.9,250.9 C67.7,253.2 67.9,253.5 65.6,252.4 C61.8,250.5 57.8,246.2 57.9,243.8 C58,242.8 58.2,241.6 58.6,241.6 L58.6,241.6 Z M292.8,242.2 L293.6,247.4 L287.7,245.4 L292.8,242.2 Z M129.5,244 L131.4,248.7 L126.2,248.5 L129.5,244 Z M262,248.5 C262,249.2 261.8,250.3 261.8,250.3 C264.9,248.3 268.9,250 268.8,253.1 C268.6,257.5 266.5,257.6 262.9,257 C264.8,260.2 262.5,263.3 258.9,262.1 C255.6,261 256.2,257.5 257.8,255.4 C249.9,256.7 247.8,267.9 256.9,271.2 C255.1,268.4 254.6,265 258.6,264.4 C262.3,263.9 263.8,266.7 262.2,270 C265.7,268.8 268.9,270.8 267.9,274.1 C266.6,278.2 263,277.9 260.9,275.4 C262.4,279.1 258.9,281.7 256.2,280.3 C252,278.1 254.1,274 256.9,273 C246.1,271.9 243.5,286.9 251.5,289 C249.4,287.7 249.2,281.8 253.9,282.6 C258.5,283.5 257.4,287.8 254.5,289.7 C258.1,288.9 261.4,292.1 259.2,295.2 C256.6,298.9 253.1,296.3 251.8,293.7 C252.2,297.1 250.1,299.2 247.3,298 C242.5,295.8 246.1,290.4 249.8,290.7 C242.3,286.2 232,295.6 238,303.3 C237.8,299.8 239.5,296.9 241.9,297.3 C244,297.5 245.9,300 245.3,301.9 C244.7,303.5 242.9,304.8 241,305.2 C246.8,305.8 247.3,309.9 244.9,311.9 C240.8,315.3 239,311.4 238,309.1 C237.2,314.8 230.4,312.9 230.2,308.7 C230,304.2 235.2,304.3 236.2,304.5 C236.3,304.3 232.1,300.2 227.7,299.6 L227.7,297 C245.3,286 251.3,266.8 245.7,248.5 L246.8,247.3 C249.7,249.5 252.5,254.2 257.8,252.5 C257.8,252.5 256.6,251.6 256,251 C253.3,248.3 254.8,245.2 258.6,245 C261,245 262,246.9 262,248.5 L262,248.5 Z M142.9,248.5 L144.7,251.2 C118.1,282.4 122.9,318.1 138.2,341.7 L136,344.4 C122.4,327 111.4,284.8 142.9,248.5 L142.9,248.5 Z M165.6,252.8 C165.6,253.5 165.6,254.1 165.6,254.1 C165.6,254.1 166.2,253.4 166.6,252.5 C168.9,248.7 173.8,250.9 173,255.3 C172.6,257.3 169.2,258.1 168.2,257.6 C169.1,260 171.5,260.6 174.5,261.7 C175.5,261.9 177.3,262.4 177.3,262.4 L177.4,264.1 C161.4,274.2 152.4,291.2 158.2,314.6 L156.4,317 C153.2,309.2 150.2,309.4 144.9,309.1 C144.9,309.1 146.2,310 147,310.9 C148.6,312.8 147.9,316.1 145.7,316.5 C140.5,317.3 140.5,313.6 141.2,311.2 C141.2,311.2 140.3,312 139.8,312.3 C137.8,313.6 135.2,312.3 135,309.6 C134.8,307.1 135.6,305.5 138.2,305.2 C139.1,305.1 140.4,305.3 140.4,305.3 C140.4,305.3 139.9,304.3 139.6,303.8 C138.4,301.4 141.1,299.4 143.5,299.9 C147.4,300.8 147.1,304.2 144.8,306.8 C150.8,307.2 154,303.3 153.5,299.4 C153,294.6 150.8,292.1 146,291.2 C146,291.2 146.8,292.4 147.1,293 C148.3,295.1 146.6,297.8 144,297.8 C141.4,297.8 139.7,295.4 140.7,293 C140.9,292.4 141.9,291.7 141.8,291.6 C141.7,291.6 140.4,292 140,292 C136.9,292.5 134.8,289.7 136.2,287 C137.1,285 139.9,284.5 142,285.5 C142.3,285.6 142.7,286.1 142.8,286 C142.9,285.9 142.6,285.3 142.5,284.8 C141.8,282.3 143.1,280.9 145.8,281.1 C149.6,281.3 151.1,284.5 148.5,287.3 C147.8,288 146.8,289.1 146.8,289.1 C146.9,289.7 152.3,290.1 155,287.2 C158.2,283.9 158.6,277 155.5,274.7 C155,274.3 153.9,273.6 153.9,273.6 C155.4,276.6 152.6,280.1 150.2,279.5 C145.3,278.3 145.7,274.3 148.9,273 C148.9,273 145.6,271.8 144.7,270.5 C143.4,268.6 143.8,266.9 145.4,265.6 C147.4,264 150.3,265 151.7,267 C152.5,264.5 153.7,262.7 157.2,264.1 C159.6,265.3 159.6,268.5 156.9,270.3 C156,270.9 154.5,271.4 154.5,271.4 C154.5,271.4 156.8,272.7 159.6,272.7 C165,272.8 169.3,266.4 167.1,261.5 C166.7,260.5 165.5,259.2 165.5,259.2 C165.5,259.2 165.4,260.9 165.1,261.6 C163.8,264 161,264.1 159.3,262.5 C157.8,261.1 158.2,259.2 159.4,258 C160.3,257 161.1,256.8 162.4,256.3 C161,255.8 159.4,255.5 158.7,254 C158,252.6 158.5,250.8 160.2,249.8 C163.3,247.9 165.7,250.6 165.6,252.8 L165.6,252.8 Z M58.5,248.8 C60.7,250.1 62.2,252 64.2,253.7 C65.8,255 65.8,255.2 64.5,256.4 C61.6,259.2 59.9,255.1 58.9,253.4 C57.7,251.2 57.6,248.9 58.5,248.8 L58.5,248.8 Z M294.2,249.6 L294.6,255.1 L288.5,252.7 L294.2,249.6 Z M125.3,250 L127.5,255 L121.8,255 L125.3,250 Z M244.3,250 C249.7,269.8 242.1,284 227.9,295.1 L226.3,293 C237.5,283.5 245.8,272.3 242.1,252.4 L244.3,250 Z M178.7,250.1 L241.5,251.3 L239.6,254.6 L234.7,254.6 L225,271.7 L179.9,271.7 L178.7,250.1 Z M86.8,264.4 C84.6,267.9 71.6,260.4 71.7,260 L73.3,258.4 C75.4,259.2 81.8,262.8 83.2,262.2 C83.7,259 79.9,254.8 78.5,252 L80.1,250 C80.2,250 88.5,260.7 86.8,264.4 L86.8,264.4 Z M108.2,251.8 L106,255.7 C104,256.3 97.8,256.4 97.4,256.8 C98.1,258.8 99,264.7 99,264.7 L96.6,267.8 C95.9,264 94.9,259.2 93.9,255.7 C93.1,252.7 93.3,253.4 99.7,252.9 C102.5,252.7 105.5,252.4 108.2,251.8 L108.2,251.8 Z M121.1,256.5 L123.7,261.1 L118.5,261.2 L121.1,256.5 Z M58.3,256.8 C58.6,256.7 60.2,258.5 60.5,259 C60.4,260.2 58.5,260.8 58.2,260.4 C58.1,260.3 58,257.6 58.3,256.8 C58.2,256.8 58.2,256.8 58.3,256.8 L58.3,256.8 Z M295,256.9 L294.9,262.6 L288.7,259.8 L295,256.9 Z M344.4,258.2 L344.3,261.9 C321.8,272.9 288.1,302.5 278.5,355.5 L276.5,353.3 C286.1,302.7 319.2,272.8 344.4,258.2 L344.4,258.2 Z M117.6,263.3 L120.4,267.5 L115.3,268.1 L117.6,263.3 Z M295.1,264.9 L294.6,270 L288.5,266.6 L295.1,264.9 Z M177.3,266 C177.3,267.2 177.4,268.1 177.5,269.3 C163.6,278.3 158.9,292.4 161.2,310.3 L159.3,313.1 C154.8,296.9 159.4,277 177.3,266 L177.3,266 Z M338.4,267 C339.8,267.8 344.4,269.2 344.4,269.2 L344.3,272.6 L334.9,269.2 L338.4,267 Z M66.8,281.4 C64.8,283.1 60.1,280.3 57.9,279.2 L57.8,276.3 C57.8,276.3 59.4,277.1 61.1,277.8 C64.5,279.3 64.5,277.5 62.6,272.5 C62,270.7 61.3,268.7 61.3,268.7 L63.5,266.6 C63.6,266.6 68.9,278.6 66.8,281.4 L66.8,281.4 Z M114.3,270.7 L117.9,274.5 L112.9,275.7 L114.3,270.7 Z M334.9,271.1 C338.1,271.1 344.3,273.7 344.3,273.7 L344.3,277.4 C341.2,276.5 337.5,274.7 334.2,274.3 C331.6,273.9 331.7,275.4 331.7,279.1 C331.7,284.1 332.9,288.6 335.3,293.7 C337.3,297.9 336.3,299 333,297.1 C327.2,293.1 314.7,290.1 312.8,292.4 C310.8,294.8 314.7,306.7 319.2,312.4 C321,314.7 321.1,315.1 320.3,316 C319.6,316.7 318.5,316.8 316.5,316.1 C310,314 300.7,313.6 298,315.3 C295.3,317 302.3,329 308.1,332.8 C311.9,335.5 311.2,336.9 305,337 C295,337.1 287.3,339.3 287.7,342 C288.4,346.6 294.9,353 302.4,356.4 C307,358.3 305.1,359 302,360.1 C296.9,361.8 292.1,364.5 287.3,367.1 L285,364.2 C285,364.2 289.8,361.2 295,358.2 C296.2,357.5 296.2,357.3 294.4,355.8 C288.9,351.2 284.8,346 283.9,342.5 C283.1,339.1 284.8,337 289.8,335 C292.9,333.8 294.1,333.5 296.8,332.9 C300.8,332 300.8,331.9 299.1,328.8 C298.3,327.4 297.1,325.2 296.3,323.8 C290.4,313.7 293.5,310.1 307.2,309.9 C310.6,309.7 311.2,309.7 311,308.6 C310.3,303.8 308.2,298.4 308.5,294.4 C309.1,288.3 315.4,286.9 326.4,289.6 C328.9,290.2 329.1,290.1 328.7,288.1 C326.8,278.8 329,270.4 334.9,271.1 L334.9,271.1 Z M294.6,271.8 L293.6,277.7 L287.7,273.8 L294.6,271.8 Z M75.9,273.2 L92,274.3 L89.4,277.3 L79.7,277.1 L79.3,285.4 L76.2,288.1 L75.9,273.2 Z M180.4,273.8 L193.7,273.8 L193.6,287.8 L180.4,287.8 L180.4,273.8 Z M196.2,273.8 L208.6,273.8 L208.6,287.8 L196.3,287.9 L196.2,273.8 Z M211.1,273.8 L224.4,273.8 L224.3,287.8 L211.2,287.8 L211.1,273.8 Z M326.8,274.9 C326.5,278.5 327.2,285 327.5,287.8 C327.3,288.6 326.7,288.5 323.2,287.7 C320.8,286.9 314.1,286.7 314.1,286.7 L316.9,283.7 C319.2,284 321,283.9 323.4,284.2 C323.4,281.8 323.5,277.3 323.5,277.3 L326.8,274.9 Z M112.2,277.7 L115.9,281.4 L111.2,282.6 L112.2,277.7 Z M293.3,278.9 L291.8,284.9 L286.4,280.1 L293.3,278.9 Z M344.2,282.1 L344.2,285.2 L338.9,282.8 C338.8,286.3 341.9,292.6 341.9,292.6 L339.4,293.8 C337.2,290.3 335.7,287.1 335.6,283.1 C335.6,281.7 335.4,279.2 336.7,279.1 C339.5,279 341.7,279.9 344.2,282.1 L344.2,282.1 Z M110.4,285.2 L114.8,287.8 L109.9,289.8 L110.4,285.2 Z M291.7,286.5 L289.5,292.7 L284.8,287.3 L291.7,286.5 Z M57.9,288.5 L69.8,292.5 L67.7,294.7 L57.8,291.6 L57.9,288.5 Z M224.8,290.1 L225.8,312 L163,311.5 L165.2,308.4 L169.3,308.4 L180.1,290.3 L224.8,290.1 Z M109.5,291.8 L114.2,295.1 L109.3,297.2 L109.5,291.8 Z M344.5,293.7 L344.5,297.3 C329.3,308.5 312.9,327.8 310.1,362 L306,365.5 C308,332.2 321.9,309.2 344.5,293.7 L344.5,293.7 Z M289.1,293.9 L286.9,299.5 L282.5,294.3 L289.1,293.9 Z M331.9,301.4 L330.4,303 C330,303.1 324.2,300 319.7,299.3 C321.2,302.2 321.9,304.4 325.2,309.1 L323.1,311.2 C322.5,311.1 314.2,298.9 316.4,296.1 C319.9,293.8 328.5,298.8 331.9,301.4 L331.9,301.4 Z M307.2,294.9 C307.1,298.2 309.8,308.5 309.8,308.5 C305.7,308.7 301.7,308.2 297.2,309.5 L299.3,305.7 C299.3,305.7 301.2,305.5 302.9,305.2 C306.4,304.5 306.1,304.9 305.2,301.9 C304.4,299 304.4,298.4 304.4,298.4 C304.4,298.4 307,294.9 307.2,294.9 L307.2,294.9 Z M75.3,298.5 C80.7,331.4 93.7,354 114.2,374.3 L112.1,377 C88,355 74.9,327 71.5,300.6 L75.3,298.5 Z M109.2,299.8 L113.6,302.2 L109,304.9 L109.2,299.8 Z M344.4,299.9 L344.4,304.7 L341.6,301.9 C342.4,301.3 343.3,300.6 344.4,299.9 L344.4,299.9 Z M286.1,300.9 L283.1,306.4 L279.2,301.2 L286.1,300.9 Z M344.1,313.4 C343.5,312.4 338,309 335.4,307.6 C335.2,307.2 339.3,303.6 340.1,303.3 C344.1,303.9 345.4,311.9 344.1,313.4 L344.1,313.4 Z M109.2,307.4 L114.2,309.8 L109.7,313 L109.2,307.4 Z M275.6,307.4 L282,308 L278.6,313.3 L275.6,307.4 Z M335,309.8 C335.8,309.8 336.8,310.2 337.9,310.8 C342.4,313.3 344.8,316.1 344.5,318.5 C344.4,319.6 343.8,319.9 343,319 C341.7,317.5 337.2,315.6 333.4,314.9 C330.5,314.3 330.2,314.1 331.1,312.7 C332.6,310.7 333.7,309.8 335,309.8 L335,309.8 Z M257.7,312.1 C264.6,338.4 276.9,358.7 292.2,375.4 L289,378.1 C277.3,364.7 264.5,349.1 254.1,315.3 L257.7,312.1 Z M271.6,313.5 L278,314.5 L274.2,319.3 L271.6,313.5 Z M181,313.8 C181.7,313.8 178.8,325 168.6,325.8 C162.1,326.9 161.4,328 161.3,338 C161.2,351.6 159,354.8 147.8,355.7 C140.4,356.3 139.5,357.8 140.7,368.3 C141.9,378.4 138.1,383.5 128.7,383.5 C120.6,384.2 117.2,388 117.2,395.5 C117.2,398.6 117.3,399.3 117.3,399.3 L112,399.7 C112,399.7 112,394.7 112.4,392.3 C114,382.5 118.2,378.6 127,378.7 C133.8,378.2 134.9,377.1 134.6,366.8 C134.3,356.3 134.2,356.4 136.9,353.6 C138.7,351.8 140.7,351 144.3,350.7 C155.4,349.6 156.3,348.9 156.3,337.5 C155.3,328 157.9,322.2 163.9,321.7 C176.1,320.7 175.8,314.1 175.3,313.8 L181,313.8 C181,313.8 181,313.8 181,313.8 L181,313.8 Z M205.9,313.8 C213.1,352.4 235.7,388.5 248.1,401.8 L245.7,403.1 C227.6,380.6 211.1,354.8 203,313.8 L205.9,313.8 Z M193,313.8 L198.7,313.9 L133.5,405.6 L130.1,403 L193,313.8 Z M200.9,313.9 C207,336.1 211.8,357.9 231.1,387 L149.4,386.5 L200.9,313.9 Z M223.5,314 C224,313.8 225.9,325.2 223,330.5 C220.4,337.7 221.7,341.7 227.3,344.3 C236.9,348.8 239.3,353.3 238.1,364.3 C237.2,372 239.6,375.7 246.8,378.2 C255.4,381.2 259.2,385.8 259.2,393.4 C259.2,394.6 258.8,395.9 258.8,395.9 L254,398.7 C254,398.7 254.1,397.7 254.2,396.4 C255.5,388 253.9,385.7 243.9,381.7 C234.5,377.9 232.2,373.6 233.8,362.8 C234.3,359.3 233.6,355.7 232.1,353 C229.6,348.6 224.2,348.7 220.3,344.7 C217.1,341.3 216.7,336.5 219.5,328.3 C221.2,323.2 221.5,321.3 220.1,317.1 C219.2,314.3 218.9,314.1 218.9,314.1 L223.5,314 Z M110,315.2 L115.5,316.7 L111.3,321 L110,315.2 Z M330.1,316.3 C332,316.2 335.7,316.9 338.7,318.4 C345.6,321.8 346.9,324.7 340.8,323.1 C337.4,322.2 332.5,322.4 327.7,323.6 C322.7,324.8 322.8,324.9 324.5,321.9 C326.7,318.1 327.3,316.4 330.1,316.3 L330.1,316.3 Z M317.5,320.4 L316.2,322.6 C313.5,322.1 310.6,320.8 306.4,321.1 C308.1,324.4 310.2,326.1 312.9,329 L311.9,331.2 C311.7,331.5 303.9,325.1 302.4,320.7 C301.7,318.7 302.3,317.9 305.1,317.8 C309.3,317.7 313.6,318.9 317.5,320.4 L317.5,320.4 Z M214.4,318.3 C216.5,318.3 218.1,320 218.1,322 C218.1,324 216.4,325.8 214.4,325.8 C212.4,325.8 210.7,324.1 210.7,322 C210.7,319.9 212.3,318.3 214.4,318.3 L214.4,318.3 Z M267.1,319.3 L273.4,320.4 L269.2,325.1 L267.1,319.3 Z M148.9,319.3 C150.4,319.2 152.7,322.1 152.7,322.1 L145,332.7 C141.4,332 142.1,326.4 145.5,326.3 C146.3,326.3 147.7,326.4 147.7,326.4 C147.7,326.4 146.7,325.8 146.1,325.1 C143.8,322.4 145.9,319.6 148.9,319.3 L148.9,319.3 Z M291.9,318.4 C291.9,318.4 298,330.5 297.6,330.9 C293.8,332.6 289.7,333.4 285.5,334.9 L286.3,331.4 C286.3,331.4 287.7,331.3 292.3,329.5 C294.5,328.7 289.9,322.5 289.9,322.5 L291.9,318.4 Z M249.7,321.9 C258.6,322 258.7,332.9 257,336.5 C255.8,339 253.9,340.3 248.2,342.9 C243.3,345.1 242.7,345 242.7,345 L241.5,342.4 C241.5,342.4 244.4,341.1 247.5,339.9 C253.9,337.3 255.5,335.3 254.8,330.7 C253.8,324.1 248.7,323.1 238.9,327.5 C237.8,328 236.3,328.5 236.3,328.5 L235.6,327.2 C235.8,327.1 243.4,323 247.8,322 C248.5,322 249.1,321.9 249.7,321.9 L249.7,321.9 Z M112,323.1 L117,324.8 L113.3,328.4 L112,323.1 Z M336.4,324.5 C340.8,324.5 344.5,325.2 344.5,326.8 C344.5,327.5 344.3,327.6 340.3,328.2 C334.2,329 324.1,334.2 318.4,339 C315,341.9 315.9,341.2 317.3,337.1 C318.7,333 320.8,328.1 322,327.3 C324.8,325.5 331.3,324.6 336.4,324.5 L336.4,324.5 Z M263.6,325.1 L267.9,326 L265.1,328.7 L263.6,325.1 Z M249.2,327.4 C250.7,327.4 251.5,328.1 252.1,329.6 C253.4,332.8 252.1,334.6 247.2,336.8 C244.9,337.8 242.9,339.2 240.5,339.7 L237.4,331.3 C237.4,331.3 238.4,330.9 241.6,329.6 C245.3,328 247.7,327.5 249.2,327.4 L249.2,327.4 Z M234.8,328.5 C244.7,356.5 256.8,374.7 269.7,389.8 L266.6,391.7 C253,375.6 240.4,356.7 231.4,328.9 L234.8,328.5 Z M248.5,329.5 C247.3,329.5 245.5,330.3 243.1,331.2 C239.6,332.5 239.3,334.2 240.9,336.2 C241.6,337.1 242.3,336.9 245.6,335.6 C249,334.2 250.5,333.6 250.7,332.4 C251,330.5 250.1,329.4 248.5,329.5 L248.5,329.5 Z M344.9,329.8 C344.9,331 327.1,347.9 316.9,356.5 C312.3,360.4 312.4,360.4 312,359.9 C311.7,357 313.7,346.6 314.9,344.8 C321.7,337.6 332.2,331.7 342.4,329.5 C344,329.2 345,329.2 344.9,329.8 L344.9,329.8 Z M248.8,330.4 C249.4,330.4 250,331 250,331.7 C250,332.2 249.2,332.8 248.4,332.8 C248.1,332.8 247.4,333 247,333.4 C246.6,334 246.3,334.7 245.5,334.5 C245,334.4 244.2,334.4 243.9,334.7 C242.3,336.1 240.8,334.9 241.5,333.6 C241.7,333.3 242.3,333.1 242.8,333.1 C243.2,333.1 244.3,333 244.4,332.4 C244.6,331.7 245.6,331.6 246.3,331.6 C247.1,331.7 247.7,331.3 247.9,331 C248.2,330.8 248.5,330.5 248.8,330.5 C248.7,330.4 248.8,330.4 248.8,330.4 L248.8,330.4 Z M114,330.7 L119.7,331.5 L116.1,336.1 L114,330.7 Z M168.2,330.6 C170.3,330.6 172,332.3 172,334.3 C172,336.3 170.3,338.1 168.2,338.1 C166.1,338.1 164.5,336.4 164.5,334.3 C164.5,332.2 166.2,330.6 168.2,330.6 L168.2,330.6 Z M227.3,333.6 C229.4,333.6 231,335.3 231,337.3 C231,339.4 229.3,341 227.3,341 C225.2,341 223.6,339.3 223.6,337.3 C223.6,335.3 225.3,333.6 227.3,333.6 L227.3,333.6 Z M116.6,337.8 L122.8,338.2 L119.3,342.9 L116.6,337.8 Z M149.1,338.7 C151.2,338.7 152.8,340.4 152.8,342.4 C152.8,344.4 151.1,346.1 149.1,346.1 C147,346.1 145.4,344.4 145.4,342.4 C145.4,340.4 147,338.7 149.1,338.7 L149.1,338.7 Z M302.9,341 C305.5,341 308.4,341.2 308.4,341.2 L307.7,344.1 C304.6,344.4 300.5,343.5 297.2,344.9 C298.5,346.9 305.8,349.8 306.6,350.5 C306.7,350.8 306,353.5 306,353.5 C306.2,354.2 293.6,348.4 293.2,343.5 C293.2,342 298.6,341.1 302.9,341 L302.9,341 Z M259.7,344 C266.8,344.1 270.4,354 267.6,358.4 C266.5,360.4 264,362.8 260.7,364.8 C259.1,365.8 255,367.8 255,367.8 L253.1,364.9 C253.1,364.9 254.8,364.2 256.3,363.4 C260.2,361.2 268.2,356.5 264.3,350 C262.1,346.5 258.9,345.8 252.2,349.3 C247.2,351.8 246,352.1 246,352.1 L244.7,349.8 C245.1,350.1 254.8,344.2 259.7,344 L259.7,344 Z M120.3,345.1 L125.9,345.1 L123.5,350.2 L120.3,345.1 Z M282.7,344.4 C286.1,351 291.9,356 293.5,357.2 C293.5,357.2 287.7,360.9 284.2,363.3 L282.2,360.9 L287.2,356.6 L281.6,348.8 L282.7,344.4 Z M337.4,346 C336.8,349.3 336.7,352.7 336.4,356.5 C337.6,357.6 338.7,358.2 339.7,358.1 C340.8,354.7 341.6,350.8 341,346.8 C340,346 338.6,346.1 337.4,346 L337.4,346 Z M340.2,348.5 C340.2,350.6 340.5,353.3 339.6,355.4 C339.1,356.6 337.9,356.1 337.8,354.5 C337.7,352.3 338.2,350.5 338.3,348.5 C338.4,347.4 338.9,346.7 339.5,347 C340.2,347.4 340.2,347.9 340.2,348.5 L340.2,348.5 Z M259.2,350 C262.9,350.3 264.3,353.4 262.9,355.6 C259.6,359.8 256.2,360.6 251.8,363.1 L247.5,355 C247.6,354.9 256,350.1 259.2,350 L259.2,350 Z M259.2,351.8 C256.8,352.1 255.2,353.3 253.2,354.3 C250.7,355.5 249.9,357.4 251.6,359.1 C253.5,361.2 260,356.2 261.1,355 C261.8,354 261.7,353 260.7,352.3 C260.2,352 259.7,351.8 259.2,351.8 L259.2,351.8 Z M124.9,352.1 L130.4,352.2 L127.4,356.4 L124.9,352.1 Z M259.7,353 C260.6,353.7 260.6,354.8 259.2,355.2 C258.5,355.4 257.4,355.4 257.4,356.3 C257.4,357 256.4,357.2 255.8,357.1 C255.2,357 254.2,357 254,357.7 C253.5,358.7 253.1,358.7 252.4,358 C251.6,357.2 252,356.3 253.5,356.1 C254.1,356 254.7,355.6 254.9,355.1 C254.9,354.5 255.3,354.1 256,354.3 C257,354.3 257.6,353.9 258.3,353 C258.8,352.7 259.3,352.7 259.7,353 L259.7,353 Z M227.6,353.1 C229.7,353.1 231.3,354.8 231.3,356.8 C231.3,358.8 229.6,360.6 227.6,360.6 C225.6,360.6 223.9,358.9 223.9,356.8 C223.9,354.7 225.5,353.1 227.6,353.1 L227.6,353.1 Z M147.6,360 C149.7,360 151.4,361.7 151.4,363.8 C151.4,365.9 149.7,367.5 147.6,367.5 C145.5,367.5 143.9,365.8 143.9,363.8 C143.9,361.8 145.6,360 147.6,360 L147.6,360 Z M58.1,363.3 L101,392.6 L98.1,396.9 L58.3,369.8 L58.1,363.3 Z M273.3,364.3 C276.1,364.3 278.2,365.9 280.3,369.1 C284.4,375.5 282.4,380.6 273.8,385.8 C269.8,388.2 269.8,388.2 269.8,388.2 L267.8,385.7 C267.8,385.7 270.7,384 271.9,383.2 C278.9,378.8 280.9,374.8 277.8,370.4 C274.8,366.1 271.7,366.5 263,372 C261.2,373.1 259.1,374 259.1,374 L257.2,371.4 C257.2,371.4 262.1,368.9 263.8,367.8 C267.7,365.4 270.9,364.3 273.3,364.3 L273.3,364.3 Z M305.3,363.1 L305.3,365.9 C305.4,366 299.5,368.6 296,370.2 C294.9,370.8 295.3,372 295.4,373.2 L293.7,374.3 C293.7,374.3 291.4,372.6 291.1,371.5 C290.3,368.3 301.1,364.2 305.3,363.1 L305.3,363.1 Z M243.4,366.2 C245.5,366.2 247.2,367.9 247.2,369.9 C247.2,371.9 245.5,373.7 243.4,373.7 C241.3,373.7 239.7,372 239.7,369.9 C239.7,367.8 241.3,366.2 243.4,366.2 L243.4,366.2 Z M127.2,367.2 C129.3,367.2 130.9,368.9 130.9,370.9 C130.9,373 129.2,374.6 127.2,374.6 C125.2,374.6 123.5,372.9 123.5,370.9 C123.5,368.9 125.2,367.2 127.2,367.2 L127.2,367.2 Z M273.2,370.2 C274.6,370.1 275.7,371.1 276.3,372.5 C277.8,376.1 275.8,378.8 268.4,382.9 C267.8,383.2 266.5,383.9 266.5,383.9 L261.1,376.4 C261.1,376.4 263,375.1 264.8,374 C268.8,371.5 271.3,370.3 273.2,370.2 L273.2,370.2 Z M272.5,372 C272.2,372 271.8,372.1 271.3,372.4 C269.4,373.5 266.3,374.7 264.8,376.6 C263.9,377.8 264.3,379 266,380.5 C267.4,381.4 274.6,376.1 274.8,374.6 C274.1,373 273.5,372 272.5,372 L272.5,372 Z M58.4,372.4 L59.6,373.2 L58.4,374.1 L58.4,372.4 Z M273.6,373.7 C274.1,374.4 273.8,375.5 272.7,375.6 C272.1,375.7 271.3,375.8 271,376.7 C270.8,377.3 270,377.7 269.2,377.7 C268.3,377.5 267.9,378 267.8,378.4 C267.4,379.1 266.3,379.3 265.6,378.6 C265.1,378.1 266,376.5 266.6,376.5 C266.7,376.5 267.4,376.7 268.2,375.6 C268.4,374.8 269.3,374.3 269.9,374.4 C270.6,374.6 271,373.9 271.2,373.5 C271.9,373.2 273.2,373.2 273.6,373.7 L273.6,373.7 Z M61.2,374.3 L62.9,375.5 L58.3,378.7 L58.3,376.1 L61.2,374.3 Z M64.6,376.5 L66.9,378.1 L58.4,384.2 L58.4,380.9 L64.6,376.5 Z M68.9,379.2 L71.4,380.8 L58.4,389.6 L58.4,386.2 L68.9,379.2 Z M73.6,381.6 L73.6,384.4 L58.3,395 L58.3,392.1 L73.6,381.6 Z M75.4,383.7 L78.7,385.9 L79.5,481.9 L58.9,496 L58.9,491.8 L76.2,479.3 L75.4,383.7 Z M323.4,386.3 C318.8,391.6 312.6,391.9 307.2,391.8 C292.7,392 283.6,392.8 281.8,410.1 C287.7,405.7 294,405.1 301.3,405.3 C310.5,405.3 314.6,404.7 318.4,402.8 C324.4,399.8 328.2,394.4 327.5,390.7 C326.7,389.8 324.8,386.5 323.4,386.3 L323.4,386.3 Z M73.6,387.1 L73.6,390.4 L58.3,400.6 L58.3,397.2 L73.6,387.1 Z M247.9,387.4 C250,387.4 251.7,389.1 251.7,391.1 C251.7,393.2 250,394.8 247.9,394.8 C245.8,394.8 244.2,393.1 244.2,391.1 C244.1,389.1 245.8,387.4 247.9,387.4 L247.9,387.4 Z M148.3,387.8 C175.3,388.6 232.5,388.3 232.5,388.3 L235.5,392.7 L145.5,391.8 L148.3,387.8 Z M323.2,390.7 C320,393.9 316.6,395.4 306,395.2 C294.8,395 290.4,396.8 287.5,401.8 C286.7,403.2 286.7,403.8 287.9,402.7 C288.9,401.5 291.3,399.1 292.2,401.4 C294.1,400.1 295.7,398.3 296.7,400.7 C297.3,400.6 300.5,397.3 301.2,400.2 C302.7,398.5 304.1,397.9 304.8,400.4 C307,399.4 308.2,397.4 309.4,400.1 C311.2,398.8 312.5,397.3 313.5,399.7 C315,399.3 316.5,396.5 317.4,398.7 C317.6,398.8 323,395.5 324.6,392.2 C325.9,389.3 327,391.2 325.6,394.2 C321.9,401.4 315.6,404 301.1,404 C292.3,404 288.7,404.9 285.9,406.5 C281.5,409.1 283.8,402.6 287,398.6 C290.9,393.6 295.4,392.2 307.6,392.6 C314.3,392.6 318.6,391.7 320.4,390.3 C321.9,389.1 323.1,388.2 323.9,388.2 C324.8,387.9 324.9,389 323.2,390.7 L323.2,390.7 Z M125.1,389.5 C127.2,389.5 128.9,391.2 128.9,393.3 C128.9,395.4 127.2,397 125.1,397 C123,397 121.4,395.3 121.4,393.3 C121.4,391.3 123,389.5 125.1,389.5 L125.1,389.5 Z M73.6,392.2 L73.6,395.6 L58.4,406 L58.4,402.5 L73.6,392.2 Z M147.4,393.9 L159.2,393.9 L159.2,406.4 L147.4,406.4 L147.4,393.9 Z M173.9,393.9 L186.6,393.9 L186.6,406.4 L173.9,406.4 L173.9,393.9 Z M202.3,394.3 L214.6,394.3 L214.6,406.4 L202.3,406.4 L202.3,394.3 Z M228.9,394.5 L237.1,394.8 C237.1,394.8 241.6,400.6 243.6,403.3 L237.6,406.4 L229,406.4 L229,394.5 L228.9,394.5 Z M153.1,395.4 C150.8,395.4 148.9,397.3 148.9,399.6 C148.9,401.9 150.8,403.8 153.1,403.8 C155.4,403.8 157.3,401.9 157.3,399.6 C157.3,397.2 155.4,395.4 153.1,395.4 L153.1,395.4 Z M180.3,395.8 C178,395.8 176.1,397.7 176.1,400 C176.1,402.3 178,404.2 180.3,404.2 C182.6,404.2 184.5,402.3 184.5,400 C184.5,397.6 182.6,395.8 180.3,395.8 L180.3,395.8 Z M208.2,395.9 C205.9,395.9 204,397.8 204,400.1 C204,402.4 205.9,404.3 208.2,404.3 C210.5,404.3 212.4,402.4 212.4,400.1 C212.3,397.7 210.5,395.9 208.2,395.9 L208.2,395.9 Z M141.7,396.7 C142.5,397.3 143.1,398.2 143.1,399.3 C143.1,401.1 141.6,402.5 139.9,402.5 C139.3,402.5 138.7,402.3 138.2,402 L141.7,396.7 Z M153.1,396.8 C154.6,396.8 155.9,398 155.9,399.6 C155.9,401.2 154.7,402.4 153.1,402.4 C151.6,402.4 150.3,401.2 150.3,399.6 C150.3,398 151.6,396.8 153.1,396.8 L153.1,396.8 Z M235.9,396.9 C233.6,396.9 231.7,398.8 231.7,401.1 C231.7,403.4 233.6,405.3 235.9,405.3 C238.2,405.3 240.1,403.4 240.1,401.1 C240.1,398.7 238.2,396.9 235.9,396.9 L235.9,396.9 Z M166.6,397 C168.4,397 170,398.5 170,400.3 C170,402.1 168.5,403.6 166.6,403.6 C164.7,403.6 163.3,402.1 163.3,400.3 C163.3,398.5 164.8,397 166.6,397 L166.6,397 Z M221.8,396.9 C223.6,396.9 225.2,398.4 225.2,400.2 C225.2,402 223.7,403.5 221.8,403.5 C220,403.5 218.5,402 218.5,400.2 C218.4,398.4 219.9,396.9 221.8,396.9 L221.8,396.9 Z M73.6,397.2 L73.6,400.6 L58.3,411.3 L58.3,408 L73.6,397.2 Z M180.3,397.2 C181.8,397.2 183.1,398.4 183.1,400 C183.1,401.6 181.9,402.8 180.3,402.8 C178.8,402.8 177.5,401.6 177.5,400 C177.5,398.4 178.8,397.2 180.3,397.2 L180.3,397.2 Z M208.2,397.3 C209.7,397.3 211,398.5 211,400.1 C211,401.6 209.8,402.9 208.2,402.9 C206.7,402.9 205.4,401.7 205.4,400.1 C205.4,398.5 206.6,397.3 208.2,397.3 L208.2,397.3 Z M194.2,397.6 C196,397.6 197.6,399.1 197.6,400.9 C197.6,402.7 196.1,404.3 194.2,404.3 C192.4,404.3 190.9,402.8 190.9,400.9 C190.9,399.1 192.4,397.6 194.2,397.6 L194.2,397.6 Z M235.9,398.3 C237.4,398.3 238.7,399.5 238.7,401 C238.7,402.5 237.5,403.8 235.9,403.8 C234.3,403.8 233.1,402.6 233.1,401 C233.1,399.4 234.4,398.3 235.9,398.3 L235.9,398.3 Z M117.2,401.2 C124.3,401.1 132,404.7 136.3,410.7 C142.9,419.5 147.3,430.7 149.2,445.4 C150.2,452.7 153.6,474.5 155.5,479.7 L152.8,479.2 C152.4,479.4 149,465.5 146.9,447.1 C146.1,440.3 144.7,431.5 140.7,423.5 C136.2,414.4 128.5,404.7 118.3,403.9 C112.3,403.5 106.7,407.2 106.1,412.4 C105.2,416.6 107.7,420.4 110.9,421.7 C114,423 117.8,422 118.2,417.7 C118.3,417 118.2,416.3 117.9,415.6 C119.4,415.4 120.5,416 121,417.2 C121.3,417.2 121,423.4 116.2,424.6 C110.4,426.5 103.6,420.7 103.1,414.8 C102.7,409.8 106.5,403.7 111.2,402 C113.3,401.5 115.2,401.2 117.2,401.2 L117.2,401.2 Z M73.6,403.1 L73.6,406.5 L58.3,417 L58.3,413.5 L73.6,403.1 Z M117.5,405.3 C126,405.1 134.4,414.6 137.9,420.8 C141.6,427.3 144.5,437.7 145.5,447.5 C147.2,464.1 150.4,477.7 151.1,478.3 L148.8,477.8 C148.3,478.1 145.1,463.1 143.1,446.4 C142,437 138.5,427.7 134.4,420.6 C130.6,414 125.4,409.1 119.3,408.3 C115.5,407.9 111.6,409 110.8,413 C110.4,415.4 111.6,417.7 114.4,417.9 C115.1,417.9 115.7,418 115.8,418 C117.3,418.3 115,420.7 113.4,420.5 C107.9,419.7 105.4,412.4 109.7,408.5 C112.3,406.3 114.9,405.3 117.5,405.3 L117.5,405.3 Z M135.8,407.7 L231.600104,408.7 C231.600104,408.7 231.7,410.4 225.7,410.1 C220.6,409.9 217.4,410.6 214,411.6 L138.7,411.4 L135.8,407.7 Z M73.6,408.8 L73.6,412 L58.3,422.7 L58.3,419.2 L73.6,408.8 Z M118.2,410.2 C120,410.2 121.9,410.6 123.3,411.5 C135.2,418.4 139.7,435.4 141.3,446.2 C143.4,462.1 145.9,476.9 146.6,477.3 L144,476.7 C143.7,476.7 140.8,462.9 139.1,447.5 C137.7,435 133.4,422.5 124.9,417.2 C119.5,413.5 118.4,413.1 115.9,415.3 C113.7,417.2 111.5,414.4 113.3,412.1 C114.5,410.7 116.3,410.2 118.2,410.2 L118.2,410.2 Z M73.6,414.5 L73.6,417.1 L58.3,427.7 L58.3,424.6 L73.6,414.5 Z M143.4,414.5 C143.6,414.3 151.6,428 154.2,449.5 C155.5,460.8 159.4,480.2 160,480.3 L157.2,480 C154.3,468.6 152.8,457.8 151.2,448.1 C149.5,437.1 148.1,427.3 141.2,414.5 L143.4,414.5 C143.4,414.5 143.4,414.5 143.4,414.5 L143.4,414.5 Z M145.2,414.7 L147.7,414.7 C152,422.8 156.5,435.4 158.1,448.1 C159.5,459 160.8,470.1 164.7,481.7 L162,481 C158.6,471.6 157.5,460.3 155.6,448.5 C153.7,435.4 150.6,424.1 145.2,414.7 L145.2,414.7 Z M160.6,414.7 C165,426 167.8,431.4 169.8,445.3 C171.3,456.1 173.5,469.6 178.5,483.9 L176,483.8 C172.3,473.9 169.5,460.7 168.2,448 C166.4,430.8 158.7,414.7 158.6,414.8 L160.6,414.7 Z M156.3,414.7 C156.5,414.4 164.6,430.5 166.5,448.3 C167.8,460.1 170.5,471.8 174.3,483.1 L171.7,483 C168.7,479.6 166.5,463.2 164,448 C161.5,432.4 158,422.9 154,414.7 L156.3,414.7 C156.3,414.7 156.3,414.7 156.3,414.7 L156.3,414.7 Z M149.8,414.7 L152.1,414.7 C158.1,427.8 160.6,435.6 162.4,448.3 C164.7,464.3 167,478.8 169.5,482.5 L166.7,482.3 C162.8,470.8 161.1,459.2 159.7,447.7 C158.2,435.2 154.6,424.5 149.8,414.7 L149.8,414.7 Z M162.4,414.8 L165.1,414.8 C169.8,424.3 173.7,435.8 175.1,449.1 C175.9,456.3 177.2,467.2 182.6,484.2 L180.4,484.1 C176,472.7 173.3,459.3 171.8,447.7 C170.2,435.9 167.4,426.2 162.4,414.8 L162.4,414.8 Z M179.2,414.9 C181.8,421.5 183.9,428 185.3,434.8 L183.8,437.8 C181.4,428.9 178.7,422 176,415 L179.2,414.9 Z M166.8,414.9 L170.1,415 C175.8,428.2 178.7,442.2 179.5,446.9 C179.5,446.9 180.3,451 180.3,452.4 C180.1,464 182.1,472.2 186.4,484.6 L184.4,484.5 C179.4,470.1 178.1,459.8 176.8,450 C175.8,437.7 171.8,425 166.8,414.9 L166.8,414.9 Z M174.4,415 C177.8,423.5 180.4,431.6 182.7,439.8 C182.6,441.7 182.4,443.7 181.2,445.2 C178.4,435.2 176.1,424.8 171.8,415 L174.4,415 Z M180.7,415.1 L183.3,415.1 L188.5,430.1 L186.4,432.4 C185,427.4 183.4,422 180.7,415.1 L180.7,415.1 Z M196,415.2 L197.9,419.7 L195.8,421.5 C195.8,421.5 193.7,417.3 193.1,415.3 L196,415.2 Z M199.9,415.2 L200.9,417.8 L199.2,419.1 L197.9,415.2 L199.9,415.2 Z M184.9,415.3 L187.6,415.3 C188.7,418.4 191.6,426.1 191.6,426.1 L189.7,428.1 C189.6,428.2 186,418.4 184.9,415.3 L184.9,415.3 Z M189.1,415.3 L191.5,415.3 C192.2,417.3 194.5,423 194.5,423 L192.8,424.6 L189.1,415.3 Z M201.6,415.4 L204,415.5 L203.7,416.1 L202.2,416.8 L201.6,415.4 Z M123.9,418.7 C133.8,423.9 136.6,439.6 137.6,448.2 C139.5,463.2 141.6,475.5 142,475.8 L139.8,475.4 C139.8,475.4 138.2,467.7 137,460.3 C136.1,454.2 135.3,449.1 135.1,446.7 C134.9,445.2 134.7,443.5 134.6,442.9 C133.2,436.7 132.8,435.3 131,431.5 C129.3,427.9 128.7,427 125.8,423.8 C124.7,422.6 123.6,421.7 123.3,420.9 C122.8,419.9 123.9,418.7 123.9,418.7 L123.9,418.7 Z M73.6,419.5 L73.6,422.4 L58.3,433.2 L58.3,429.8 L73.6,419.5 Z M73.6,424.7 L73.6,428.1 L58.3,438.2 L58.3,435.2 L73.6,424.7 Z M73.6,430.5 L73.6,433.7 L58.3,444.3 L58.3,441 L73.6,430.5 Z M99.1,433.7 L100.4,433.7 L100.5,435.9 L98.4,435.8 L99.1,433.7 Z M73.6,436.4 L73.6,439.8 L58.3,449.9 L58.3,446.8 L73.6,436.4 Z M97.5,437.7 L100.7,437.7 L100.7,440 L96.6,439.9 L97.5,437.7 Z M95.7,441.4 L101,441.5 L101,443.7 L94.4,443.6 L95.7,441.4 Z M73.6,441.9 L73.6,445.4 L58.3,455.5 L58.3,452 L73.6,441.9 Z M93,445.6 L100.8,445.7 L100.8,447.5 L91.5,447.4 L93,445.6 Z M73.6,447.6 L73.6,451.1 L58.3,460.9 L58.3,457.8 L73.6,447.6 Z M89.7,449.3 L100.3,449.4 L100,451.2 L87.9,451.1 L89.7,449.3 Z M73.6,453 L73.6,456.3 L58.3,466.2 L58.3,463 L73.6,453 Z M85.7,453 L99.7,453.3 L102.6,456 L80.8,456.1 L85.7,453 Z M81.5,458 L105.6,458.3 L107.3,459.8 L81.4,459.9 L81.5,458 Z M73.6,458.7 L73.6,462.2 L58.3,472.2 L58.3,469 L73.6,458.7 Z M81.5,461.8 L108.2,461.9 L106.3,464 L81.5,464.1 L81.5,461.8 Z M73.6,464.5 L73.6,467.7 L58.3,478.1 L58.3,474.4 L73.6,464.5 Z M80.9,466.2 L104,466.3 L101.3,468.4 L85.4,468.8 L80.9,466.2 Z M73.6,470.2 L73.6,473.3 L58.3,484.2 L58.3,480.7 L73.6,470.2 Z M87.6,470.6 L101.2,470.7 L101.4,472.5 L89.7,472.5 L87.6,470.6 Z M91.4,474.3 L101.8,474.4 L102.3,476.8 L93,476.7 L91.4,474.3 Z M73.6,476 L73.6,478.9 L58.3,489.6 L58.3,486.4 L73.6,476 Z M102.5,478.3 L102.6,480.5 L96.4,480.7 L94.7,478.4 L102.5,478.3 Z M102.4,482.3 L102.4,484.7 L98.1,484.8 L97.1,482.5 L102.4,482.3 Z M98.6,486.5 L102,486.5 L101.7,488.3 L99.1,488.3 L98.6,486.5 Z M99.6,490.8 L101.3,490.8 L101,492.2 L100.1,492.2 L99.6,490.8 Z M133.4,514.8 L132.6,515.8 L156.5,515.8 L156.8,514.8 L133.4,514.8 Z M164.1,514.8 L163.7,516.2 L174.5,516.2 L174.8,514.8 L164.1,514.8 Z M181.7,515 L181.4,516.3 L208.9,516.3 L208.4,515 L181.7,515 Z M214.6,515 L215.2,516.6 L224.5,516.6 L223.9,515 L214.6,515 Z M246.6,515 L230.3,515 L230.9,516.8 L247.7,516.8 L246.6,515 Z" id="Shape" fill="#000000" fill-rule="nonzero"></path>
        </g>
    </g>
</svg>