<?xml version="1.0" encoding="UTF-8"?>
<svg width="419px" height="584px" viewBox="0 0 419 584" version="1.1" xmlns="http://www.w3.org/2000/svg" xmlns:xlink="http://www.w3.org/1999/xlink">
    <!-- Generator: Sketch 61.2 (89653) - https://sketch.com -->
    <title>11S</title>
    <desc>Created with Sketch.</desc>
    <g id="Page-1" stroke="none" stroke-width="1" fill="none" fill-rule="evenodd">
        <g id="11S">
            <path d="M20.8,0.9 L398.1,0.9 C409.1,0.9 418,9.8 418,20.8 L418,563.6 C418,574.6 409.1,583.5 398.1,583.5 L20.8,583.5 C9.8,583.5 0.9,574.6 0.9,563.6 L0.9,20.8 C0.9,9.8 9.8,0.9 20.8,0.9 L20.8,0.9 Z" id="Path" fill="#FFFFFF" fill-rule="nonzero"></path>
            <path d="M20.8,0.9 L398.1,0.9 C409.1,0.9 418,9.8 418,20.8 L418,563.6 C418,574.6 409.1,583.5 398.1,583.5 L20.8,583.5 C9.8,583.5 0.9,574.6 0.9,563.6 L0.9,20.8 C0.9,9.8 9.8,0.9 20.8,0.9 L20.8,0.9 Z" id="Path" stroke="#000000" stroke-width="0.7974"></path>
            <path d="M55.1,43.1 L55,539.8 L362.5,540.5 L362.7,43.5 L55.1,43.1 Z M152.8,46 L292.1,46.5 C292.1,46.5 276.1,67.1 272.8,76.6 C270.2,79.9 269.1,79.3 264.8,78.4 C253.5,75.4 234.4,75.5 224.9,75.3 C207,74.5 190.9,80 173,81 C166.9,70.6 157.9,57.6 152.8,46 L152.8,46 Z M58.9,46.9 L148.5,47.2 L169.5,85.5 C170.3,86.6 169.5,88.8 169.1,90 C166.5,97.3 164.2,101.5 159,110.2 C154,118.4 152.2,126 154,131.1 C154.3,131.7 154.5,132.7 154.4,133.5 C154.1,136 152,139 149.1,141 C147.1,141.3 143.1,141.6 140.7,143.9 C138.7,145.9 137,148.8 137.3,154.2 C137.4,156.1 137.7,157.3 137.7,157.3 C111,168.4 91.8,181.4 92.5,181.9 C92.2,181.8 69,171.1 59.3,168.4 L58.9,46.9 Z M297.1,47.6 L358.5,47.7 L358.9,223 L335.3,207.7 C337.2,206.4 338.4,205.5 340.5,204.2 C340.9,204.1 341.5,204.1 342,204 C346.1,203.1 349,200 347.5,196.8 C346.5,194.6 347.9,194.8 349,193 C350.3,191 350.1,189.3 349.2,187.6 C348.8,186.8 349,186.5 349.7,184.9 C351.6,182.6 350.2,178.6 347.8,177.3 C347.5,176.9 348.1,176.3 348.2,175.8 C348.9,172.6 347.6,169.9 344.9,169.2 C343.5,168.8 343,168.6 343.5,167.3 C344.4,165.1 343.2,164.2 341.4,163.5 C338.3,162.3 339.2,162.1 343,160.4 C350.8,156.9 352.6,146.5 347.3,137 C346.6,135.8 344.8,133 343.6,131.1 C342.2,128.9 340.8,127 340.8,127 L351.1,112.6 C351.1,112.6 343.9,104.1 341.4,99.4 C342,97.1 349.2,89.8 350.1,82.7 C351.6,71.6 343.1,64.5 335.2,65.3 C329.7,65.9 322.9,69.4 323.4,79.7 C323.6,82.9 324.8,86.2 327.1,90.2 C328.7,93.2 330.7,96.3 332.7,99.4 L322.3,113.6 L332.8,126.9 C332.8,126.9 332.7,127.1 332.4,127.5 C331.4,129.2 328.3,134 327,136.9 C323.1,144.5 321.8,152.9 329.7,158.9 C331.1,159.8 332.2,160.5 332.7,161.1 C333.5,161.9 333,162.5 331.7,162.8 C330.2,163.1 328.7,163.1 327.2,163.7 C322.2,165.5 317.2,168.5 313.7,171.3 C311.7,172.9 308.5,178 306.5,182.1 C304.4,186.6 303.8,187.6 303.8,187.6 L267.3,164.2 C267.3,164.2 266.4,163.5 266.1,163.2 C265.4,162.4 265.7,162 266.1,161.2 C266.5,160.5 266.5,158.4 266.3,156.8 C266.3,153.7 266.3,153.7 268,150.9 C268.6,149.9 268.9,148.9 268.5,147.4 C267.9,145.7 267.9,146.2 269,145 C269.4,144.5 269.9,144.2 270,143.7 C270.1,142.9 270,141.6 270.1,139.1 C270.1,134.1 270.1,134.5 272.9,132.4 C276.4,129.7 277.7,128.4 278.2,127.2 C279,125.4 278.2,124.1 276.3,120.6 C275.4,119 274,116.8 273.4,115.6 C272.2,113.4 270.4,110.6 269.5,107.8 C268.2,105.7 268.4,102.1 269.6,99.9 C271.1,97.2 271.5,95.6 271.5,90.2 C271.5,85.2 271.1,85.6 272.4,84 C281.9,71.2 297.1,47.6 297.1,47.6 L297.1,47.6 Z M336.1,66.1 C336.3,66.1 336.5,66.1 336.7,66.1 C339.7,66.2 342.7,67.2 345.5,69.9 C349.3,73.7 349,79.2 347.8,84.9 C347.2,86.6 346.8,88.2 345.6,90 C345,91 344.4,91.9 344.4,92 C344.4,92.1 343.5,93.6 342.3,95.3 C341.2,97 339.9,99.3 339.9,99.3 C339.9,99.3 341.7,102.5 344.8,106.5 C347.2,110 348.7,113.1 348.9,112.9 C348.9,112.9 348.3,114.4 347.5,115.5 C345,118.8 340.4,125.7 340.2,126.4 C340.2,126.6 339.7,126.7 339.7,126.9 C339.7,127.5 340.7,128.3 342,130.2 C350.3,141.6 351.5,151.3 345.3,157 C342.2,159.8 339.1,160.7 335.8,160.4 C329.8,159.8 324.2,154.6 324.8,147.1 C325.1,143.6 324.9,142.6 327,138.6 C327.9,136.3 330,132.5 331.4,130.5 C332.6,129.1 333.9,127.1 333.9,127.1 C333.9,127.1 330.9,122.5 325.5,116.1 C324.5,114.9 323.9,113.3 323.9,113.3 L333.2,99.5 C333.2,99.5 332.1,96.8 330.3,94.1 C326.6,88.5 324.2,82.6 324.2,79.3 C324.3,71 329.8,66.2 336.1,66.1 L336.1,66.1 Z M359.4,263.7 C359.4,263.7 352.7,269.5 353.2,271.1 C354,273.7 359,269.7 359,269.7 L359.3,275.5 C353.8,283.2 343.2,277.6 345.9,269.5 C338.5,270.5 337.4,263 337.8,259.4 C328.1,257.3 331.5,247 331.5,247 C325.9,242.3 324.9,237.4 329.5,232.2 C324.9,229.4 323.6,227.5 318.6,225.5 C322.5,259.9 341,277.7 360.5,293.6 C360.5,293.6 360.9,304.7 358.7,302.6 C330.8,281.8 312.9,258 309.8,219.5 C309.6,220.1 296.6,209.5 294.4,210 C289.9,272.4 339.6,313.3 360.2,321.4 C360.2,321.4 360.5,330.1 360.1,330.1 C328.8,316.4 294,276.4 287.3,228.7 L268.8,257.3 L261.9,254.3 L291.8,207.3 L271.6,194.6 L238.7,246.7 C238.7,246.7 237.8,251 240.2,251 C286.3,255.9 355,311.4 332,401.6 C330,400.8 326.8,399.3 326.7,399.3 C330.3,391.5 340.4,341.2 310.1,300.5 C296.2,281.9 274.7,262 240.2,256.2 C243.1,262.1 241.8,275.4 241.8,275.4 L249.8,277 C247.1,274.1 244.8,271.8 243.7,268.7 C242.2,263.8 244.4,261 249.8,263.9 C251.9,265.1 252.5,265.1 254.5,263.5 C258.8,260.3 263.7,263.6 262.6,268.9 C262.4,269.7 262.6,270.2 264.7,270.4 C269.4,270.9 274,273.2 277.1,276.8 C278.6,278.7 278.9,278.4 280.2,277.3 C283.4,274.5 288.8,278.4 287.9,282.7 C287.4,285.2 287.7,285.8 288.8,286.3 C295.1,289 296.7,290.6 298.7,296.2 C299.4,298.2 300,298.9 300.4,298.8 C300.7,298.7 301.7,298.4 302.6,298 C307.3,296.2 310.1,301.9 306.8,306.4 C306.1,307.3 306.6,308.2 307.8,308.9 C311.7,311.1 314.4,316.2 314.9,321.6 C315.1,323.7 315.3,323.7 317.3,323.6 C322.5,323.4 325,330.5 320.8,333.1 C319.3,334 319.6,335.2 320.7,336.5 C323.8,340.1 324.5,342.7 324.2,346.9 C323.8,352.4 324.2,352.3 325.9,353 C331,354.9 330,363.1 325.1,363 C328.7,371.4 324,381.6 324.1,381.8 C333.7,387.2 325,392.9 322.2,391.9 C322.2,391.9 320.8,395.7 322.4,397.6 C314,408.7 303,410.6 290.8,416.1 L290.4,376.9 C295.5,381 300.5,384.8 305.5,388.6 C305.5,388.6 306.8,388.2 305.6,387.1 C303.4,385 297.7,381.4 296.2,380 C292.8,377.4 280.4,365.5 278.1,362.7 C277.1,360.8 275.6,361.9 275.7,362 C277.2,364.6 278.3,367.6 280.2,370.2 C284.4,376 288.4,382.4 288,388.7 C288,392.3 286.6,395.9 285.8,397.7 C285.2,400.1 281.3,397.3 282.3,395.2 C284,389.6 285.5,385 279.3,375.9 C276.3,371.5 272.4,363.5 272.4,363.5 L269.9,364.1 L270,415.2 C267.9,415.3 262.6,416.7 263.7,416.7 C280.2,413.4 285.3,437 269.3,437.8 C266.3,437.9 263.1,443.1 262.8,446 C262.9,452.9 263.9,460.1 258.9,466.7 C257.6,468.4 257,471.2 255.8,473.4 C249.7,484.3 246.9,490.5 247.5,493.3 C247.7,494 247.8,495 247.8,495 C228.2,499.8 212,499 193.9,501.6 C193.7,501.3 200.5,482.2 205.5,472.3 C209.2,465.1 211.1,460.1 210,458.6 C194.4,459.4 197.4,436.5 212.3,437.3 C212.3,437.3 216,424.1 220.2,418.2 C224.2,416 232.2,419 236.6,416 C247.2,412.8 254.1,425.2 254.1,425.2 L256.9,413.3 L163.6,412.9 C163.6,412.9 154,416.5 149.1,414.5 C146,413.2 142.4,409.5 142.4,409.5 C142.4,409.5 178.1,352.2 183.3,343.9 C183.7,343.2 182.4,341.8 182.4,341.8 C182.2,339.9 140.9,404.3 141,407.2 C141,407.2 139.9,408.8 137.9,407.4 C114.5,391.3 58.7,356.6 58.7,356.6 L58.7,331 C58.7,331 60.4,328.7 61.8,328.3 C64.6,326.4 66.7,324.4 69.6,322.5 C71.2,321.6 72.1,320.2 71.8,319.6 C71.5,319 69.5,319.6 66.8,321.5 C65,322.8 58.4,327 58.4,327 C58.2,327.2 58,317.4 58,317.4 C58.1,317.4 66.4,309.9 63.7,309.4 C63.2,309.3 61.9,309.5 60.6,310.7 C56.9,313.9 57.3,314.3 57,310 C56.8,306.2 57.2,305.7 58.9,304.2 C64.9,298.7 72,301.8 72.4,310 C72.5,311.5 72.5,311.5 73.6,311.7 C77.8,312.6 80.1,315.6 80.2,319.8 C80.3,322.1 80.5,322.5 82.2,323 C85.9,324 88.4,329.7 87,333.7 C86.3,335.7 86.7,335.5 87.8,336.6 C95.1,343.6 89.4,350.5 87.7,350.2 C88.8,350.9 99.2,357.9 100.1,357.6 C99.2,321 58.8,286 57.7,287.8 L58.6,279.9 C58.6,279.9 109,312.2 108.6,363.9 L124.7,373.5 C123.3,320.4 99.6,284.6 59,261.8 L58.1,251.8 C92.1,267.6 123.7,299.7 131.1,352.3 L149.9,323 L156.5,326.2 C145.9,341.3 137.1,356.8 128.4,371.5 C127.2,373.5 125.6,374.1 125.6,374.1 L145.2,387.2 C159.9,367.9 172.1,344.2 179.5,333 C179.3,332 178.9,330.5 178.9,330.5 C106.9,318.6 66.3,251.1 85.6,180.6 L90.6,182.8 C75.6,235 100.1,310.2 178.4,325.6 C178.2,320 177.3,306.4 177.3,306.4 C177.3,306.4 167,303.3 168.5,304.5 C171,306.7 176.7,315.9 174.3,319.2 C172.6,319.5 169.7,318.5 166.5,316.2 C165.3,315.3 165.3,315.5 163.9,316.9 C160.2,320.8 154.8,318.6 154.8,313.1 C154.8,310.8 154.7,310.3 151.4,310.3 C146.5,310.3 144.3,309.4 141.3,305.5 C139.2,302.7 139.4,302.7 136.9,303.5 C134.7,304.3 134.3,304.8 132.3,303.8 C129.3,302.3 128.7,300.1 129.9,297.1 C130.6,295.3 129.9,294.7 127.7,294.3 C123.5,293.6 118.8,288.3 117.9,284 C117.7,283.1 117.3,282.9 114.8,283 C110,283.2 107.3,280.2 109.2,276.1 C110.2,273.9 110.5,273 108.6,271.5 C106.2,269.7 104.9,268.4 103.8,266.1 C103,264.3 102.8,263.2 102.3,259.4 C102.1,258.1 101.7,257.9 99.9,257.6 C94.9,256.9 92.9,251.8 96.6,248.5 C97.7,247.5 97.7,247.5 96,245.3 C92.7,241.1 91.5,235.5 92.9,231.8 C93.3,230.8 92.9,229.6 91.7,229.3 C87.1,228.2 87,223.1 91.4,220.3 C92.7,219.5 92.7,218.9 91.8,217.3 C90.1,214.4 90.2,206.7 91.8,203.1 C92.8,200.7 92.8,200.7 91.2,199.6 C87.7,197.4 88.7,191.3 92.8,190.3 C94.8,189.8 94.9,189.6 94.4,187.1 C93.4,182.8 93.3,181.7 95.8,180 C102.8,175.4 120.7,166.8 120.7,166.8 L126.6,164 C126.6,164 127.2,200.2 126.8,204.5 C126.6,206.3 128.2,207.5 130.2,209.4 C134.2,213.3 136.4,218 141.7,221.3 C141.7,221.3 145,219.5 147.1,218.1 L147.3,166.5 C147.7,165.3 148,165.2 149.4,165 C150.5,164.8 153.4,164.5 154.3,164.2 C156.6,163.5 156.9,162.6 153.9,162.9 C153,163 151.6,163.4 150.1,163.7 C140.7,166.5 133.8,151.9 140.9,144.5 C142.3,143.3 147.4,141.1 149.7,141 C150.4,141 152.4,138.5 153.8,136.3 C155.2,134 155.7,132.3 155,130 C153.3,125.2 154.8,117.8 159.8,109.7 C162.5,105.2 164.8,102.1 164.8,102 C167.2,97.9 171.8,84.5 171.5,84.4 C186.8,82 202.2,78.4 217.3,78.3 C219.5,78.3 221.6,78.3 223.8,78.5 C224.5,84.3 205,118.6 209.1,120.6 C224.4,124.3 219.2,142.4 207.5,141.8 C205.8,141.8 205.6,141.9 204.5,145.8 C202.4,151.4 201,155.7 198.8,161 C198.8,162.4 197.9,162.2 191.5,162.2 C185.7,161.3 181.7,164.5 177.4,164.7 C172,164.9 167.4,162.4 165.5,158.1 C164.7,156.2 163.9,157.5 163.9,162 C163.9,165.6 163.7,167.7 163.7,167.7 C163.7,167.7 186,167.8 211.4,167.8 C262.8,167.9 257.7,168.7 261.7,166.6 C264.1,165.4 265.7,164.1 269.8,166.8 C276.4,171.1 276.2,170.5 274.3,173.3 C261.4,192.5 232.8,238.5 232.8,238.5 L234.8,240.5 C234.8,240.5 263.6,194.9 276.8,173.6 C277.4,172.9 280.1,173.8 280.1,173.8 L358.8,225 C358.1,232.7 358.9,250.5 358.9,250.5 C358.9,249.3 344,259.8 344.6,261.2 C348.1,262.5 354.9,255.5 358.8,253.5 L359.4,263.7 Z M87.7,350.4 C87.6,350.4 87.3,350.1 87.3,350.1 C87.4,350.3 87.5,350.3 87.7,350.4 L87.7,350.4 Z M225.9,79.7 C225.9,79.7 248.7,79.9 260.2,81.7 C270.2,83.3 269.7,83 269.7,90.3 C269.7,95.5 269.7,95.4 268.3,97.8 C265.9,102.4 266.3,106.9 270.1,113.2 C273.8,119.3 276.6,123.8 276.6,124.7 C276.6,126 276.4,127.7 273.1,130 C269.3,132.7 268.5,134.6 268.6,137.3 C268.6,139.5 268.2,140.2 266.9,140.2 C266.4,140.2 264.5,141.1 262.5,142 C259,143.7 259,143.7 255.7,143.6 C254,143.6 253.3,143 252.8,143.1 C251.9,143.5 251.1,146.5 251.1,147.3 C251.2,147.6 251.7,147.4 252.6,147.1 C258.1,145.2 266.2,146.1 266.4,146.9 C267.5,147.9 267.5,149.4 265.8,151 C264.7,152.7 264.2,153.6 264.7,156.2 C265.3,159.8 264.9,161.2 263,162.4 C257.5,166.2 250.1,166.6 238.2,164.3 C225.7,161.9 217.2,157.2 210.1,148.6 C206.9,144.8 206.2,143.5 207.7,143.2 C209.6,142.9 211.8,142.5 213.8,141.7 C222.6,137.9 222.4,121.9 210.6,120.2 C205.9,120.1 220.7,97.4 225.9,79.7 L225.9,79.7 Z M237.1,90.7 C232.9,93.1 230.7,96 230.6,97.5 C230.6,98.1 230.7,98 232.8,96.7 C238.7,92.8 254.2,87.3 259.7,90.5 C263.7,92.9 265.2,92.1 262.9,88.9 C257.5,81.4 242.9,87.6 237.1,90.7 L237.1,90.7 Z M252.3,93.2 C251.7,93.2 251,93.3 250.4,93.4 C246.3,94.3 241.8,97.7 238.1,100.6 C236.3,102.1 233.7,105 233.3,105.7 C232.4,107.4 234.4,109.3 237.2,107.8 C238.8,106.9 238.9,107.1 240.5,107.3 C244.1,108.4 248.1,110 254.4,109.5 C255,109.6 254.9,109.8 254.7,110.3 C254.3,111.3 252.1,113.2 249.2,115.4 C247.7,116.5 246.4,117.4 246.3,117.6 C245.8,118.3 247.8,118.4 250,117.2 C253.1,115.4 256.7,111.5 258.9,108.4 C259.1,108.1 259.4,107.9 259.5,107.5 C259.7,106.8 258.4,107.1 257.7,106.9 C257.4,106.8 257.5,106.1 257.4,105.7 C257.2,104.8 257.6,103.3 257.7,101.9 C257.8,100.8 259,100 259.7,99.2 C263,95.8 262.7,94.2 258.3,96.9 C257.6,97.3 257,97.6 256.2,97.7 C249.7,97.9 245.9,97.7 240.5,102.2 C238.1,104.2 236.6,104.3 238.8,102.3 C242.1,99.6 246.2,95.9 250.7,94.9 C253.4,94.2 256.1,96.3 257.3,95.8 C257.3,94.3 255,93.2 252.3,93.2 L252.3,93.2 Z M251.3,102.7 C252,103.2 252.8,105.7 252.7,106.6 C252.6,107.6 250.9,107.2 250.7,106.7 L249.8,103.9 C249.4,102.9 250.6,102.4 251.3,102.7 L251.3,102.7 Z M248,103.3 C248.8,104.1 249,105.8 249.4,107.2 C249.1,108.2 242.7,106.8 241.9,105.7 C242.9,104.4 246.2,102.9 248,103.3 L248,103.3 Z M259.3,121.5 C258.8,121.5 258.2,121.7 257.6,122.3 C254.7,125.3 255.6,130.3 259.1,131.9 C260.8,132.7 263.4,132.1 267.1,131 C268.9,130.4 270.2,130.2 270.5,130.2 C272,130.2 272.8,127.9 271.7,126.9 C270.5,125.7 267.7,125.9 264.6,128.2 C263.1,129.4 262,130 260.7,130 C257.6,130 256.2,126.8 259.3,123.5 C260.4,122.4 260.1,121.6 259.3,121.5 L259.3,121.5 Z M237.9,143.2 C241.5,146.1 248.3,144.6 252.9,141.5 C257,138.8 258.7,138 262,138.5 C266,139.2 265.9,137.6 264.1,135.6 C262.1,133.3 257.2,134 253.1,136.7 C244,142.7 240.7,143.7 238.1,140.5 C235.3,137 238.6,132.5 242,135 C244.7,136.9 244.7,135.5 243.6,134.2 C237,128.8 232.3,138.7 237.9,143.2 L237.9,143.2 Z M206,146.1 C210.6,151.9 215,156.7 221.6,160.3 L221.7,161.4 L200.4,161.4 C201.8,158.7 206,146.3 206,146.1 L206,146.1 Z M133.9,161.2 C133.4,170 135,175.1 140.1,181.2 C145.5,187.7 145.1,197.9 141.6,204.1 C140,206.9 136.9,203.5 138.4,201.7 C140.5,199 140.6,192.5 139.6,188.5 C137.3,181.8 132.3,178.5 130.2,171.4 C129.5,168.4 129.7,162.9 129.7,162.9 L133.9,161.2 Z M140.5,162 C140.9,161.9 141.5,162.3 142.3,163.1 C145.3,165.7 144.8,173.2 141.4,178 C140.3,179.4 139.5,179 138.5,177.7 C137.1,176.4 137.6,176.2 138.8,173.9 C140,171.4 140.4,168.7 140.1,165.4 C139.9,163.1 140,162 140.5,162 L140.5,162 Z M335.9,164.5 C338.6,164.5 341.9,165 342.2,166 C342.5,167.2 341.9,168.1 340.4,168.7 C336.5,170.3 331.4,168 332.7,165.2 C333,164.8 334.3,164.5 335.9,164.5 L335.9,164.5 Z M329.2,165.2 C330,165.2 330.6,165.4 331,165.6 C332.3,166.3 330.3,170.7 336.6,170.7 C338.1,170.9 339.2,170.6 339,171.3 C338.7,172.3 336,173.9 333,174.3 C324.2,175.6 324.5,175.2 324.9,181.4 C325.2,185.5 324.9,186.9 324.3,189.3 C323.3,193.6 323,197.7 323.6,196.4 C324.5,194.6 326.7,188.8 326.6,185.5 C326.6,180.7 328.3,179.7 329,183.2 C329.3,185.5 328.3,186.8 329.8,189.2 C330.7,190.5 331.1,190.5 330.5,192.6 C330,194.4 330.3,195 331,195.9 C331.6,196.8 332.3,197 331.7,198.3 C330.5,201.1 332.4,203.7 335,204 C336.2,204.1 336.6,204.6 336.2,205.1 C335.6,205.9 334.3,206.3 333.2,206.5 L305.1,188.6 C305.1,188.6 307.2,184.4 307.8,183.3 C311.8,174.4 315,170.4 326.8,165.8 C327.9,165.3 328.6,165.2 329.2,165.2 L329.2,165.2 Z M344.1,171 C344.9,171 345.4,171.4 346.1,172.2 C347.8,174.4 346.3,177.2 342.1,179.6 C338.5,181.7 337.4,181.9 336.6,178.7 C336.4,178.1 335.9,177.4 335.6,177.1 C334.8,176.3 335,175.7 336,175.1 C336.5,174.8 338.1,174.2 339.4,173.3 C341.8,171.8 343.1,171 344.1,171 L344.1,171 Z M332.1,177.4 C333,177.4 333.9,177.6 334.6,178.1 C335.7,178.8 335.7,180.7 334.6,181.4 C332.3,182.3 328.8,181.1 329.1,179 C329.3,177.9 330.7,177.4 332.1,177.4 L332.1,177.4 Z M346.6,179.7 C347.4,179.7 348,180.1 348.5,180.8 C349.8,182.8 348.3,184.9 343.8,187.1 C340.9,188.5 337.1,189.2 337.4,188.3 C337.6,187.6 336.6,184.3 336.1,183.7 C335.9,183.1 336.2,183.6 339.9,182.5 C341.2,182.1 342.9,181.4 343.6,180.9 C344.8,180.1 345.8,179.7 346.6,179.7 L346.6,179.7 Z M135.9,185 C133.8,190 133.5,192.1 134.5,197.4 C135.3,201.7 136.3,203.9 140.7,210.3 C144.1,215.2 145.2,217.1 144.3,218.6 C143.7,219.4 142.4,220.2 141.6,219.4 C139.9,217.2 139,214.6 137.3,212.2 C131.1,203.1 130.7,200.8 129.9,193.6 C129.5,190.3 131.4,183.3 133,182.3 C134.9,181.5 136.4,183.8 135.9,185 L135.9,185 Z M279.5,182.7 C279.4,182.7 279.2,182.8 279,183 C278.2,183.8 275.7,187.8 275.8,188.4 C276,189.7 277.1,188.9 279.9,184.7 C280.6,183.7 280.2,182.6 279.5,182.7 L279.5,182.7 Z M333.1,184.9 C335.6,185 336.5,187.2 335.4,188.4 C333.8,190.1 330.8,188.8 330.8,186.4 C330.8,185.4 331.2,184.9 333.1,184.9 L333.1,184.9 Z M346.9,188.1 C348.3,188.2 348.5,189.6 347.8,191.6 C346.9,193.5 345.7,193.8 342.3,194.9 C338.2,196.2 337.5,196 336.9,192.2 C336.7,190.8 336.8,191.1 340.6,190.1 C342.2,189.7 344.1,188.9 345.1,188.5 C345.8,188.2 346.4,188.1 346.9,188.1 L346.9,188.1 Z M104.9,189.8 L105.9,197.4 L107.5,191.7 L104.9,189.8 Z M333.6,192.3 C335.6,192.3 336.7,194.1 335.7,195.2 C335.1,195.8 333.7,195.8 333,195.5 C331.3,194.3 331.6,192.3 333.6,192.3 L333.6,192.3 Z M272,196.3 L275.9,198.7 L244,249.1 L240.2,249 L239.8,248.2 L272,196.3 Z M344.4,196.8 C346.8,196.8 347,199 344.1,201 C342.9,201.7 341.6,201.9 340.6,202 C339.2,202.1 338.2,201.7 338.1,200.7 C337.5,198.3 337.1,197.7 339.3,197.8 C339.7,197.8 340.9,197.8 341.9,197.4 C342.9,197 343.7,196.8 344.4,196.8 L344.4,196.8 Z M334.6,199 C336.2,199 337.3,200.8 336.2,201.6 C334.9,202.7 333.2,202 333.2,200.4 C333.2,199.4 333.5,199 334.6,199 L334.6,199 Z M105,202.6 L96.3,210.3 C99.5,214.1 102.2,217.8 104.9,221.8 L105,202.6 Z M280.6,203.1 C284.4,202.9 285.6,204.8 283.8,206 C281.4,207.6 279.3,207.6 276.5,207.2 C272.9,206.5 275.8,203.6 279.8,203.2 C280.1,203.1 280.3,203.1 280.6,203.1 L280.6,203.1 Z M276.6,208.5 C277.4,208.5 278.5,208.7 279.9,209.2 C282.4,210 285.4,212.6 285.3,214.1 C285.1,216.4 280.7,215.2 277.2,211.9 C275,209.8 274.9,208.6 276.6,208.5 L276.6,208.5 Z M273.2,208.6 C275.3,208.8 277.5,216 275.8,218.3 C274.2,220.5 271.3,215.8 271.8,212.1 C272,210.6 272.4,208.7 272.9,208.7 C273.1,208.6 273.2,208.6 273.2,208.6 L273.2,208.6 Z M133.7,210.2 C134.9,210.5 136.4,212.2 136.1,213.4 C135.9,213.9 135.4,213.8 134.8,213.6 C133.8,213.2 133,211.8 133.2,210.7 C133.4,210.4 133.5,210.2 133.7,210.2 L133.7,210.2 Z M295.6,211.4 L301.9,215.7 L295.6,215.9 L295.6,211.4 Z M269.6,220 C274.4,220 275.4,221.6 271.8,223.5 C270.3,224.3 266.7,224.4 264.8,223.8 C261.8,222.8 265.4,220 269.6,220 L269.6,220 Z M308.6,223.3 L308.9,227.7 L296.8,228.8 L296.2,224.2 L308.6,223.3 Z M266.8,225.4 C267.6,225.3 269,225.7 270.7,226.6 C274,228.3 275.9,231.1 274.2,232 C272.7,232.8 269.9,231.8 268,229.8 C265.4,227.2 265.2,225.5 266.8,225.4 L266.8,225.4 Z M262.7,225.5 C264.9,225.6 266.8,231.6 265.3,234.6 C264.5,236.2 263.5,235.9 262.1,233.2 C260.7,230.6 260.6,226 262.2,225.5 C262.4,225.5 262.5,225.4 262.7,225.5 L262.7,225.5 Z M105.5,227.2 L100.2,237.8 L109.8,246.2 L105.5,227.2 Z M310.1,235.3 L310.9,239.5 L299.3,242.4 L298.2,237.8 L310.1,235.3 Z M259.4,236.2 C260.8,236.2 262.1,236.6 262.9,237.2 C264,238.1 263.7,238.5 261.2,239.6 C256.7,241.4 251.3,240.3 254.4,237.6 C255.6,236.6 257.6,236.1 259.4,236.2 L259.4,236.2 Z M335,236.2 C333.9,236.2 332.4,237.8 333.1,238.7 C333.5,239.2 336.9,239.2 337.6,238.5 C337.4,237.8 336,236.2 335,236.2 L335,236.2 Z M256.1,241.9 C259.3,242 265.5,246.4 264.2,248.4 C263.5,249.5 259.3,248.6 257.7,247 C255.5,244.9 254.4,242.1 255.6,241.9 C255.7,241.9 255.9,241.9 256.1,241.9 L256.1,241.9 Z M252.1,242.1 C253.7,241.8 256.4,249.4 254.4,251.4 C253.7,252.1 253.5,252.1 252.2,251 C249.7,248.8 250.1,244.8 251.6,242.5 C251.8,242.2 252,242.1 252.1,242.1 L252.1,242.1 Z M337.9,251.2 C338.2,251.7 339.5,252.1 344.5,249.2 C350.1,247 349.8,244.8 347.9,244.4 C345.9,244.7 337.5,249.8 337.9,251.2 L337.9,251.2 Z M313,246.6 L314.5,250.9 L302.8,255.5 L301.1,250.8 L313,246.6 Z M113.2,254.7 L109.2,265.1 C113.5,265.1 117.4,267.2 121.3,269 L113.2,254.7 Z M316.9,257.7 L319.4,261.9 L308.4,267.8 L306.2,263.4 L316.9,257.7 Z M61.6,265.9 L66.1,269.1 L59.5,277.3 L58.9,276.1 L59,269.3 L61.6,265.9 Z M322.9,268.5 L325.6,272.3 L315,279.7 L312.4,275.5 L322.9,268.5 Z M72.9,273.4 L77.8,277.1 L70.1,286.4 L65.4,282.8 L72.9,273.4 Z M126.4,275.7 L126.2,286.9 L137.6,287.3 L126.4,275.7 Z M258.6,280.7 L271.6,288.2 L269.6,276.8 C266.3,277.4 261.9,279.6 258.6,280.7 L258.6,280.7 Z M330,278.4 L333,282.2 L323.2,290.4 L320.1,286.5 L330,278.4 Z M82.9,281.7 L87.4,285.9 L79.4,294.5 L75.2,290.5 L82.9,281.7 Z M338.4,287.8 L341.9,291.4 L333,300.7 L329.5,297.1 L338.4,287.8 Z M93.2,292.3 L96.7,296.4 L87.6,303.6 L84.2,299.5 L93.2,292.3 Z M145.7,293.3 L148.3,304.2 C148.1,303.4 159.6,300.9 161.1,301.8 L145.7,293.3 Z M280,294.2 L290.9,305.7 L292.1,294.6 L280,294.2 Z M347.3,296 L351.2,299.1 L343.9,309.5 L339.4,306 L347.3,296 Z M101,303 L104.2,307.7 L94.6,313.4 L91.9,309.3 L101,303 Z M357.6,304.1 L358.2,304.7 L358.2,312.1 L355.2,316.6 L351.1,314.2 L357.6,304.1 Z M296,312.4 L305.6,329.9 L308.3,316.8 C304.8,316.8 299.2,314.5 296,312.4 L296,312.4 Z M108.6,314.8 L110.9,319.9 L100.8,324.5 L98.5,319.5 L108.6,314.8 Z M114.1,326.8 L116,331.9 L105.3,335.5 L103.6,330.6 L114.1,326.8 Z M79.1,329.5 L65.7,335.6 L68.9,338.3 L79.9,332.4 L79.1,329.5 Z M164.5,330.2 C165.2,330.1 165.9,331 166.5,333.1 C167.4,336.1 166.9,339.9 164.9,339.8 C163.5,339.6 163,336.1 163,335 C163,332 163.7,330.3 164.5,330.2 L164.5,330.2 Z M174.1,332 L178.3,332.5 L178.3,333.7 L145.3,386.1 L141.3,383.6 L174.1,332 Z M156.3,333.2 C157.6,333.2 159.5,334.1 161.3,335.9 C162.3,337 163.4,338.5 163.6,340.1 C163.6,340.6 162.7,340.4 161.8,340.3 C159.6,340 156.4,338.5 155.4,336.6 C154.1,334.3 154.8,333.2 156.3,333.2 L156.3,333.2 Z M308.1,335.1 L312.5,356.6 C313.9,351.2 316.8,348.1 318.9,343.9 C313.3,341.3 311,338.2 308.1,335.1 L308.1,335.1 Z M118.3,339.4 L119.3,345 L108.2,347.6 L107.1,342.2 L118.3,339.4 Z M159.8,341.4 C160,341.4 160.1,341.4 160.3,341.4 C164.4,341.9 164.9,342.8 162.2,344.6 C160.5,345.7 156.1,345.9 155.3,344.7 C154.5,343.4 157.5,341.4 159.8,341.4 L159.8,341.4 Z M83.3,342.5 L79.1,344.6 L82.6,346.6 L85,343.9 L83.3,342.5 Z M154,346.5 C155.2,346.5 156,348.7 156.4,350.8 C156.8,352.8 157,354.6 156.2,355.6 C155.3,356.8 154.4,357 153.6,355.8 C151.5,352.2 151.5,346.5 154,346.5 L154,346.5 Z M144.8,349.7 C145.4,349.7 146.1,349.8 147,350.2 C149.9,351.3 153.7,355.7 152.1,356.3 C149.7,357.2 144.5,354.6 143.5,351.9 C143,350.6 143.5,349.8 144.8,349.7 L144.8,349.7 Z M121,353.3 L121.3,358.8 L109.6,359.3 L109.2,353.8 L121,353.3 Z M149.7,357.9 C150.9,357.9 152,358 152.9,358.4 C154.6,359.1 153.4,360.4 150.5,361.4 C148.6,362.1 145.9,362.2 144.9,361.5 C142.7,359.8 146.2,358 149.7,357.9 L149.7,357.9 Z M59.2,358.5 C67.2,363.4 83.7,374.2 83.7,374.2 C82.9,374.4 82.1,375 81.3,375.6 C80.7,376.1 80.1,376.5 79.5,376.8 C78.6,377.2 77.8,377.2 77,377.4 C71.8,378.5 69.3,381.4 70.9,385.1 C71.5,386.5 71.7,386.3 70.6,387.5 C67.5,390.4 67.9,391.3 69,395.1 C69,395.6 65.3,400.2 68.6,403.6 C70.4,405.2 70.5,404.2 69.8,407.8 C69.6,409.9 70.2,411.7 73.3,412.3 C75,413.1 75,412.8 74.4,414.3 C74,416.4 74.6,417.3 76.1,418 C77.4,418.8 78,419.1 77,419.8 C66.6,425.1 63.4,434.4 73.2,448 C74.3,449.6 77.3,454.2 77.3,454.2 C74,459.1 70.8,463.1 67.5,467.5 L77.3,481.2 C75.7,483.7 72,488.8 69.7,493.8 C66.3,501.3 68.5,511.8 78.4,515 C82.6,516.3 88.2,515.3 91.7,511.2 C94.6,507.9 96.1,501.3 93.5,494.4 C90.2,486.7 86.2,482.9 85,480.7 L95.5,467.5 C95.5,467.5 88.3,457.1 85.4,453.3 C105.1,429.2 89,422.4 85.9,420.4 C85.4,420.1 85.5,418.5 85.5,418.5 C103.2,416.5 109.2,406.7 114.5,394.4 C125.1,401.2 140.2,410.3 150.8,417.5 C151.8,418.4 152.5,419 152.3,419.6 C152.2,420 151.8,422 151.7,424 C152.2,427.2 152,428.7 150.7,429.9 C149.5,431.1 149.7,431.6 149.9,432.8 C150.2,435 150.6,435.2 149.6,436.3 C148.4,437.6 148,438.3 148.2,441.5 C148.3,443.4 148.6,444.9 148.1,446 C147.4,447.5 145.6,448.2 143.3,450.1 C139.2,453.4 139.7,454.3 145.4,466.2 C150.3,476.3 150.8,478.6 149,482.2 C147.4,485.2 146.9,487.5 147,491.8 C147,492.9 147.1,494.1 147.1,494.7 C147.1,496.1 147.1,495.9 146.3,496.8 C145.7,497.5 144.6,498.8 144,499.8 C137.2,510 119.3,536 119.3,536 L59.1,535.9 L59.2,358.5 Z M143.6,363.3 C144.3,363.2 145.2,364.5 146.1,367.1 C146.7,368.6 146.6,371.1 145.7,372.1 C143.9,374.1 141.4,369.5 142.2,365.8 C142.6,364.2 143.1,363.3 143.6,363.3 L143.6,363.3 Z M313,360.5 C313,369.8 312.8,381.9 309.6,390.8 L313.2,392.4 C312,383.3 313.5,375.8 321.9,371.8 C318,369.3 315.1,364.9 313,360.5 L313,360.5 Z M134.6,366.4 C134.9,366.4 135.2,366.5 135.6,366.6 C137,367 138.6,367.8 139.6,368.8 C141.3,370.6 143.1,372.7 142.6,372.9 C139.8,374.2 132.5,370.3 133.5,367.3 C133.7,366.7 134.1,366.4 134.6,366.4 L134.6,366.4 Z M121.9,366.8 L122,371.4 L115,366.9 L121.9,366.8 Z M281.7,369 C282.8,369.1 284.6,370.6 284.3,371.6 C283.8,372.7 283.2,372.6 282.4,371.4 C281.5,370 281.1,369.1 281.7,369 L281.7,369 Z M140,374.6 C141.7,374.6 143.2,374.9 143.3,375.8 C143.3,376.6 142,377.7 140.4,378.2 C136.4,379.4 133.4,378.6 134.5,376.7 C135.2,375.4 137.8,374.7 140,374.6 L140,374.6 Z M278.5,379.8 C276.8,382.8 276.6,392.5 279.6,396.4 C284.2,401.5 288.5,408.1 288,416.9 L283.6,418.9 C283.8,411.6 283.6,406.9 277.9,400.7 C271.2,393.4 272.7,380.7 275.1,376.9 C277,373.2 279.9,378.4 278.5,379.8 L278.5,379.8 Z M84.4,375.8 C85.8,375.7 87.6,376.6 90.7,378.6 C98.7,384.3 103.1,386.5 111,392.1 C112.2,393.2 112.1,393 111.9,393.9 C108.9,405.5 100,414.8 87,416.5 C85.5,416.7 86.3,415.7 85.4,413.9 C84.5,412 82.7,411.2 80.8,411.2 C75.4,411.2 80,408.1 86.6,407.3 C88.8,407 91.4,406.7 92.8,405.4 C93.1,405.5 91.7,396.3 93.1,393 C93.9,390.1 93.1,388.7 92.3,390.5 C91.8,391.6 91.1,394.6 90.7,397.6 C90.4,400.2 89.8,400.5 89.2,399.3 C88.9,398.7 88.9,397.4 89.4,396.3 C89.9,393.9 86.8,392.1 87.5,389.8 C88.3,387.9 87.5,385.9 86.4,385.2 C85.8,384 85.9,383.1 86,382.3 C86.2,380.3 84.9,378.5 82.8,377.6 C81.9,377.1 82.2,376.6 83.1,376.2 C83.5,375.9 83.9,375.8 84.4,375.8 L84.4,375.8 Z M77.8,379.1 C78.3,379.1 78.8,379.2 79.3,379.3 C80.4,379.9 81.2,383.6 80,383.8 C79.6,383.8 78.2,384 77.1,384.3 C73.5,385.3 71.8,385.2 71.9,383.1 C72.1,381 75,379.1 77.8,379.1 L77.8,379.1 Z M82.6,379.5 C84,379.5 85.2,381.2 84.3,382 C83.4,382.9 81.6,382.3 81.6,380.9 C81.6,380.2 81.9,379.5 82.6,379.5 L82.6,379.5 Z M83.6,385.2 C84,385.2 84.5,385.3 84.9,385.5 C86.2,386.1 87,388.4 86.1,389.2 C85.5,389.8 83.6,389.6 82.7,388.8 C81,387.3 81.8,385.3 83.6,385.2 L83.6,385.2 Z M79.1,385.5 C79.9,385.5 80.5,385.8 80.7,386.3 C80.8,386.8 80.6,387.2 80.8,387.9 C81.1,389 81.8,389.8 81.2,390.3 C78.4,390.1 72.7,393.6 71.1,393.4 C69.7,393.2 69.6,392 70.8,389.9 C72.2,387.6 76.7,385.5 79.1,385.5 L79.1,385.5 Z M80.8,392.2 C81.4,392.2 81.5,392.5 81.3,393.4 C81.1,394 81.3,395.5 81.7,396.5 C82.2,397.5 83,398.1 82.5,398.5 C81.8,398.7 79.4,399.2 77.4,399.9 C74.8,401.3 67.6,405.6 69.5,398.8 C70.1,396.5 72.7,394.9 77.3,393.3 C79.1,392.6 80.2,392.2 80.8,392.2 L80.8,392.2 Z M84.6,392.3 C85.7,392.2 87,392.8 87.6,394.1 C89.3,397.4 84.5,397.9 82.9,395.1 C82,393.5 83.1,392.4 84.6,392.3 L84.6,392.3 Z M85.5,400 C88,400 89.9,403.1 88.1,404.3 C86.8,405.1 85.1,405 83.6,404.6 C81.3,403.5 82.3,400 85.5,400 L85.5,400 Z M323.7,400.1 C333.2,405.1 346,409.6 358.5,413 L358.1,535.8 L273.2,535.9 L249.8,495.3 C249.8,495.3 249,494 248.8,493.4 C248.3,492.3 248.5,491.4 248.8,490.2 C249.6,487.4 251.9,482 254.1,478.2 C259.7,467.8 267.8,456.5 263.4,446.5 C262.9,445.4 267.9,439.2 267.9,439.2 C275.6,439.8 281.9,434.8 279.6,423 C295.6,416.5 308.8,411.1 323.7,400.1 L323.7,400.1 Z M81.1,400.7 C81.3,400.7 80.7,403.4 82,405 C82.8,406.3 82.7,406.3 79.8,407.4 C78.7,408 77.6,408.9 77,409.4 C72.9,413.1 68.8,408.3 72.8,404.4 C76.1,401.6 79.4,400.9 81.1,400.7 C81,400.7 81,400.7 81.1,400.7 L81.1,400.7 Z M276.7,403.2 C278.1,403.5 279.9,405.3 279.3,406.3 C277.4,409.6 277.3,411.3 277.1,414.7 C276.9,418.5 277.6,419 276.1,418.4 C275.2,418 273.4,417.2 273,416.3 C272.2,414 274.5,402.8 276.7,403.2 L276.7,403.2 Z M79.7,412.7 C81.2,412.7 82.8,413.2 83.7,414.3 C84.5,415.3 84.5,416.1 83.8,416.5 C82,417.4 76.1,417 75.8,415.7 C75.4,413.9 77.5,412.7 79.7,412.7 L79.7,412.7 Z M169,415.1 C176.2,415.1 184.6,416.7 191.1,419.5 C200.3,423 208.5,431.9 210.3,435.7 C210.9,436.9 209.7,436.9 208.7,437 C197.7,438.8 194,452.4 203.3,458.8 C206.2,460.6 208.6,460.4 208.6,460.4 C211,460.2 198.1,484.8 193,500.1 C177.2,499.5 165.3,501.9 149.8,496.6 C148.1,493.8 148.5,487.8 149.7,484.6 C150.8,481.8 152.3,479.5 151.6,476.3 C150.4,470.6 145.2,463.1 143.4,458.4 C141.9,454.8 142,453.4 144.6,451.4 C147.7,449 148.5,448.5 149.4,447.2 C150.2,446.1 149.9,445.8 149.9,443.2 C149.9,440.1 149.8,440.6 152.4,440.1 C153.3,439.9 155.4,439.3 157.1,438.4 C160.5,436.6 162.8,436.7 164.8,437.8 C165.7,438 165.6,437.1 165.9,436 C166.1,435.5 166.4,434.6 166.4,434.4 C166.3,433.9 165.2,434 163.9,434.2 C158.9,434.9 154.9,435.1 152.9,434.3 C151.1,433.6 151.1,432.4 152.2,430.5 C153.1,428.7 153.8,428.8 153.4,425.1 C152.9,420.5 153.6,419.5 155.7,418 C158.6,415.9 163.4,415.1 169,415.1 L169,415.1 Z M195.1,419.1 L218.5,419.1 C216.2,422.8 213.6,428.5 212.2,433.9 C212,434.3 211.7,434.7 211.2,434.2 C208,429.8 204.4,424.9 195.1,419.1 L195.1,419.1 Z M175.7,435.6 C172.9,435.7 169.4,437 165,439.6 C162,441.3 159.6,442.4 156.4,441.8 C154.6,441.5 154.4,441.7 154.1,442.3 C153,445 157,447.8 161,445.9 C162.2,445.4 171.1,440.8 171.6,440.4 C172.1,440 175.8,438.9 176.8,438.9 C179.7,438.9 181.6,441.2 181.2,443.9 C180.7,447.5 175.7,447.6 175.3,444.5 C175,442 174,443.1 173.9,444.3 C173.9,445.3 174.7,447.7 175.5,448.2 C179.8,450.9 185.4,445.7 182.7,440.3 C181.1,437.1 178.8,435.5 175.7,435.6 L175.7,435.6 Z M156.5,448.1 C153.6,448.6 151.7,449.8 148.6,450 C146,450.6 146.2,452.6 147.8,453.7 C149,454.5 150.6,454 155.1,451.2 C159.5,448.4 163.3,454.3 159.8,457.3 C157.6,459.2 159.1,459.7 160.6,458.6 C164.5,455.6 162.3,447 156.5,448.1 L156.5,448.1 Z M170.2,463.2 C169.9,463.2 169.3,463.3 168.6,463.6 C165.3,465.1 162.7,466.7 161.1,468.9 C160.8,469.4 161,470.2 160.8,470.8 C160.7,471.3 160.3,471.9 160.4,472.2 C160.5,472.5 161.4,472.8 161.5,473.1 C162.1,474.2 161.7,477 161.4,479 C161.2,480 159.8,480.2 159.2,480.8 C157.3,482.7 157.8,483.3 159.8,482.5 C161.2,482 160.6,481 164.1,481.7 C168.6,482.6 172.1,481.3 175.6,479.4 C179.5,477.2 180.9,476 181.1,476.3 C181.4,476.7 181.2,477 178.4,479.3 C171.4,485.1 166.2,486.4 162.3,484.3 C161.1,483.5 160.2,483.2 161.1,484.9 C161.2,485.1 162.2,485.8 162.8,486.1 C166.8,487.9 171.9,486.4 178.3,481.3 C179.7,480.2 181,478.9 182.6,477.6 C187.9,473.1 186.5,471.1 180.5,473.3 C178.6,474 178.1,473.2 175.5,472.2 C172.1,470.9 170.9,470.7 167,470.7 C163.6,470.6 163,471 163,470.4 C163,469.7 165.3,467.1 167.9,465.9 C170.5,464.7 171.2,463.3 170.2,463.2 L170.2,463.2 Z M176.6,474.2 C177.2,474.9 176.3,475.3 173.8,476.4 C172.4,477.1 171.1,477.6 170.9,477.6 C170.7,478 168.3,472.7 169,472.4 C169.2,472.4 175,472.9 176.6,474.2 L176.6,474.2 Z M167.5,473.7 C168.1,474.9 168.5,476.2 168.7,477.3 C168.8,477.7 169,478.2 168.4,478.2 C168,478.3 167.2,478.3 167,477.9 C166.4,477 165.8,474 166,473.4 C166.5,472.8 167.3,473.2 167.5,473.7 L167.5,473.7 Z M188,483.2 C187.8,483.2 187.4,483.4 186.8,483.7 C176.9,489.6 165,492.6 157.4,489.7 C154.8,488.7 154.4,489.1 155.3,490.8 C155.9,492 157.2,493.5 159.2,494 C165.4,495.7 175.5,493.2 183.2,488.1 C186.3,486.1 188.9,483.2 188,483.2 L188,483.2 Z M246.3,498.9 C246.3,498.9 263.8,535 267.2,536.7 L124.8,536.4 L148.8,502.1 C149,504 216.2,511.2 246.3,498.9 L246.3,498.9 Z" id="Shape" fill="#131F67" fill-rule="nonzero"></path>
            <path d="M126,535.6 L148.7,502 C182.7,508.5 213.3,505.1 246.9,499.1 L269.2,536.8 L126,535.6 Z M306.5,408.5 C306.1,408.1 306.4,389.4 306.7,389.7 C307.1,390.1 311,392.9 312.7,391.5 C310.5,373.6 322.1,374 321.8,371.6 C303.9,358.1 319.3,344.3 319,344 C299.4,333.9 309.2,318.4 307.9,317 C284,310.8 293.4,291.9 291.5,293.8 C277.6,298 269.9,286.3 269.7,276.9 C257.7,283.7 239.1,274.1 244.9,263.2 C244.9,263.2 251.3,266.2 252.4,265.6 C262.2,258.5 261.4,268.7 263.5,270.9 C270.8,269.8 275.1,275.4 277,278.2 C287.8,278.2 287.4,275.6 287.5,286.1 C295.6,288.2 295.3,292.6 300,298.6 C310.3,298.7 308.5,302 306.2,307.7 C313.6,313.6 314.2,318.2 315.4,323.6 C323.5,326.5 324.9,327.7 319.7,334.5 C326.8,345.2 323.4,351.4 324.5,351.9 C333.4,358.3 328.9,360.6 325.1,363.1 C326.4,371.6 327.5,372.9 324.4,381.5 C334.6,388.8 322.8,392 322.2,391.9 C322.2,391.9 321,399 321.1,399 C321.1,400.4 307.4,409.4 306.5,408.5 L306.5,408.5 Z M58.9,356.9 L58.7,331.9 L145.2,387.8 L134.3,405 L58.9,356.9 Z M173.9,393.6 L194.4,350.8 C194.4,350.8 185.1,303.8 187,304.1 C188.2,304.3 245.6,305.4 245.6,305.4 C252.2,320.4 256.2,333.1 273,357.9 L255.2,363.5 L255.8,393.5 L173.9,393.6 Z M224,382.4 C223.4,381.2 223.1,380.3 223.2,379.8 C223.4,379.1 224,379.1 224.7,379.5 C227.2,380.7 229.7,381.8 231.5,379.5 C232.4,378.3 232.2,376.6 231.4,375.6 C230,372.7 225.6,374.8 224.1,374.9 C222.7,374.9 222.2,373.8 223.3,372.1 C224,371.4 224.4,370.6 224.5,369.7 C225.3,363.2 214.1,365.5 218,371.8 C219.8,374.2 218.7,375.6 216.1,374.1 C213.3,372.5 209.3,374 209.4,377.4 C209.5,380 212.8,381.6 215.5,380 C216.1,379.6 216.6,379.2 217.1,379 C218.4,378.4 219.3,378.9 218.9,380.3 C217.8,382.1 216.4,384.7 217.5,386.4 C218.6,388.9 222.5,388.6 223.8,387.1 C224.8,386.1 225.1,384.4 224,382.4 L224,382.4 Z M359.2,251.1 L272.5,195 L275.5,190.2 C279.4,188 281,185.3 280.8,181.6 L283.2,176.4 L359.3,225.2 L359.2,251.1 Z M226.1,238.8 L232.5,277.5 L172.3,278.1 C170.1,268.2 149.6,230.9 147.9,229.3 C158.1,219.6 158.2,202.9 164,189.6 C164.5,189 243.4,188.9 244.3,189.5 C244.1,198.9 219.9,240.8 226.1,238.8 L226.1,238.8 Z M201,215.3 C202.5,213.9 202.4,211.8 200.7,209.3 C199.1,207 199.8,205.3 202.4,206.9 C203.9,207.9 206.2,208.1 207.7,207.6 C209.7,206.9 210.5,205.3 210.2,203.4 C209.8,201 207.2,200.3 204.3,201.4 C203.5,201.6 203,202.2 202.3,202.6 C200.8,203.3 200.1,201.4 201.6,199 C203.2,196.3 201.5,193.5 198.7,193.2 C195.6,192.9 193.8,196.4 195.1,198.3 C196.9,201 195.6,203 193,201.1 C189.3,198.5 184.5,201.8 186.5,205.7 C187.5,207.6 190.7,208.1 193.5,206.9 C195.9,205.9 196.6,207.1 195.1,209.5 C192.1,214.5 196.9,218.9 201,215.3 L201,215.3 Z M113.1,170.7 L112.5,194.9 C103.5,189.4 104.8,189.3 104.5,189.4 C107.2,196.7 104.1,205.6 96.4,210.1 C110.2,223.1 102.8,232.2 100.5,238.4 C118.2,248.7 109.2,266.4 109.3,265.5 C126.7,265.6 126.4,280.8 126.9,287.2 C148.5,285.9 145.6,303.1 148.4,304.6 C158.9,299.9 171.1,301.5 174.3,315.6 C176.4,323.6 168.7,315.9 165.4,316.2 C153.5,323.6 155.8,312.3 155.1,310.7 C145.2,311.6 143.9,306.9 139.6,303.6 C128.9,305.7 129.8,302.1 130.5,295.7 C122.1,294 120.3,288.8 117,283.7 C105.5,284.1 110.2,275.9 110.2,274.3 C108.8,273.1 102.2,266.5 101.8,259.1 C89.9,255.8 97.4,249.8 97.8,247.7 C93.3,242.1 92.1,238 93.6,231 C83.1,226.1 91.9,221.5 92.6,218.7 C89.2,209.5 91.7,206.8 93,201.8 C86.2,193.9 90.3,194.3 95.2,189.5 C95.8,188.6 94.1,184.6 94.2,182.3 L113.1,170.7 Z M173.9,81.1 L154.9,47.1 L290.4,47.1 C290.4,47.1 275.7,67.5 269.9,77.8 C236.2,72.6 204.6,75.1 173.9,81.1 L173.9,81.1 Z" id="Shape" fill="#D40000" fill-rule="nonzero"></path>
            <path d="M79.3,514 C67.4,511.3 65.4,496.4 76.6,483.9 C77.5,482.9 78.1,481.3 78.1,481.3 C78.1,481.3 76.1,478 70.9,470.8 C69.9,469.5 68.5,467.3 68.5,467.3 C71.4,463.2 74.3,459.8 77.5,455.3 C77.9,454.7 78.7,454 78.6,453.5 C78.4,452.7 77.3,451.9 75.9,449.9 C67.9,438 67,433.3 71.1,426.3 C74.9,419.7 84.1,418.9 89.7,424.8 C95.7,431.1 95.5,436.9 87.6,448.5 C85.9,451.1 84.6,453.4 84.6,453.4 C84.6,453.4 84.5,454.2 87.4,457.9 C91.3,463 94.2,467.3 94.2,467.3 C94.2,467.3 92.4,469.6 90.7,471.6 C86.2,476.9 84.1,480.6 84.1,480.6 C84.1,480.6 84.4,481.7 85.1,482.4 C97.5,496.5 96.6,512.7 82.5,514.1 C81.9,514.2 80.1,514.1 79.3,514 L79.3,514 Z M179.5,333.9 C179.2,333.4 134.7,405.4 134.7,405.4 L139.8,408.7 L182.3,342.2 C182.9,342.7 183.6,343.3 183.4,344.1 C183.4,344.1 148.3,401.2 142.5,410.4 C142.3,410.6 151.2,415.9 151.5,415.9 C164.5,409.5 218.9,415 255,412.8 C255.1,412.9 254.5,425.5 254.5,425.5 C254.5,425.5 246.3,416 244.6,415.9 C236.4,415.6 227.8,419.1 221.6,418.7 C217.7,419.9 213.1,434.3 212.3,437.9 C205.1,437.1 198.2,444.6 199.8,451.6 C202.1,459.4 206.2,458.8 210.5,458.9 C210.1,467.7 194.5,490.9 194.5,502.4 C210.9,501.1 228.7,500.8 245.7,495.7 C245.7,495.7 252.1,477.4 260.1,465.3 C262.8,460.7 264,453.8 263,449.4 C262.3,444.6 264.4,443.4 266.2,440.1 C267.3,438 271.5,438.1 272,437.9 C282.8,434.8 278.9,420.8 274.3,418.3 C268.6,415.2 260.5,420 257.4,413.7 C254.1,407.1 255.2,393.3 255.2,393.3 L173.7,393.7 C173.7,393.7 196.7,350 196.1,349.6 C189.9,346 179.6,334 179.5,333.9 L179.5,333.9 Z M125,373.7 C125.4,369.3 126.1,297.4 58.2,261.7 L58.6,252.3 C59,251.8 120.4,280 130.9,353.2 L149.8,323.5 L156.8,326.2 C146.5,341.7 126,379.2 125,373.7 L125,373.7 Z M83.8,347.8 C86.6,339.5 82,343.9 77.8,343.6 C74.9,342 72.1,340 69.5,338.3 C89.3,327.8 77.5,328.3 66,335.7 C63,334.1 59.2,330.5 59,330.8 C81.4,316.4 73,316.1 58.7,326.5 C59.2,316.7 58.8,320.4 59,317.1 C71.2,304 59.8,311.1 59,311.3 C56,298.2 70.4,301 71.7,310.8 C74.2,312.7 79.2,315 80.7,323.1 C87.6,327.5 86.9,331.1 86.6,336.4 C89.3,339.1 96.3,344.7 88.1,349.9 L83.8,347.8 Z M58,288.2 L58.5,281 C59.4,278.1 111.8,315.4 108,363.4 C108.6,363.1 102.2,360.1 100.4,358.4 C100.4,323.1 58.8,286.5 58,288.2 L58,288.2 Z M358.4,328.8 C323.5,312.8 290.3,274.4 288.5,224.5 L268.8,257.6 L262,255 C262.3,255.4 276.7,227.1 292.8,208.2 C297.1,271.2 321.8,300.5 359.3,321.7 L358.4,328.8 Z M175.4,305.7 C141.5,301.5 92.6,255.4 107.2,192.9 C109.3,186.6 141.9,221.7 141.9,221.7 C142.1,220.1 171.3,267.1 170.5,276.3 C195.1,283.3 243.2,276.7 243.2,276.7 C283.2,285.6 324.9,328.7 309.9,390 C309.9,390 299.3,383 290.4,374.9 C263.4,348.8 254.9,327.4 245.3,303.8 C210.7,300.7 178.4,306.9 175.4,305.7 L175.4,305.7 Z M358.8,253.7 C360.2,256.7 359.1,263.2 359.1,263.2 C350.1,273 349.2,273.2 360.4,270 C359,279.4 352.1,280.9 347.9,277.7 C346.4,276.5 346.4,270 346.4,270 C339.6,268.3 337.2,266.2 338.2,258.9 C330.3,258 330.6,254.1 331.3,246.1 C324.1,242.1 326.2,234.8 330.4,232 L333.7,235.3 C332.6,236.3 333.1,242.7 339.4,238 C339.4,238 344.4,242.2 346.9,243.8 C328.7,255.5 339.7,252.9 350.9,245.2 C353,246.6 355.6,248.8 357.1,249.8 C342.8,260.7 337.8,269.6 358.8,253.7 L358.8,253.7 Z M359.6,293.5 L359,301.9 C323.1,279.9 313.3,250.9 310.7,220.1 C310.7,220.1 315.5,223.6 317.7,225.1 C320.9,264.9 357.4,291.8 359.6,293.5 L359.6,293.5 Z M162.8,189 L249,189.5 L224.7,234.6 C224.7,234.6 236.5,251.2 239,246.2 C253.4,223.5 268.1,200.8 283.2,176.4 L278,173.3 L235.4,240.6 L233,239.5 L276.1,170.9 C273.6,169.2 268.3,167 268.3,167 C268.3,167 194.9,168.2 163,168.1 C164,163.7 162.6,154.4 165.9,156.6 C167.3,163 177.4,168.4 185.4,162.2 C185.8,161.9 198,162.5 198.4,161.9 C200,159.3 202.8,151.3 206.1,142.2 C218.6,141.4 217.4,135.3 218.8,133.3 C217.8,115.5 207.9,125.1 208.7,118.6 C211.5,107.1 225.9,81 224.1,78.7 C220.4,76.2 183.5,83.5 172.8,84.8 C171.8,84.4 166.6,101.5 161.1,108.8 C155.1,116.8 153,125.3 156,133.4 C152.8,142.2 146.7,141.3 141.8,143.8 C136.3,149.8 137.8,159 143.1,162.6 C146.8,165.1 152.4,165 158.2,160.3 L162.8,189 Z M334,127.1 L323.9,113.6 L333.7,99.4 C329.8,93.3 323.5,83.9 324.6,76.5 C327.1,61.8 346.9,63.9 348.7,78 C349.6,84.5 344.9,92.5 340,99.4 C343.2,105.2 344.6,106.2 349.2,112.8 C346.4,117.7 339.7,127.2 339.7,127.2 C343.9,134.2 349.7,142 349.3,149.2 C348.9,155.3 342.2,161.6 335.9,160.3 C316.5,156.1 327.4,135.3 334,127.1 L334,127.1 Z" id="Shape" fill="#E2CF00" fill-rule="nonzero"></path>
            <path d="M30,15.9 L30,22.4 L36.4,22.4 C36.4,22.4 36.6,28.7 36.6,42 C36.7,54.9 36.9,61.3 36.1,65 C33.8,73.5 21.3,73.5 18.8,67.4 C17.3,63.9 17.7,61.1 17.7,57.5 L10.8,57.5 C10.8,57.5 10.8,59.3 10.8,61.5 C10.8,71 14.1,75.6 21.6,77.4 C29.3,79.5 38.4,76.3 41.6,69.8 C43.5,66.1 43.3,65.8 43.4,43.5 C43.4,28.6 43.7,22.4 43.7,22.4 L49.6,22.4 L49.6,15.9 L30,15.9 L30,15.9 Z M151.7,45.6 C157,55.6 172.2,82.7 172.2,82.7 C208.3,75.2 238.6,73.3 270.5,80.3 L293.3,45.7 L151.7,45.6 Z M156.4,47.7 L162.9,47.7 L175.8,74 L197.9,69.6 L194.1,47.7 L200.3,47.7 L203.5,68.7 L235.9,67.9 L240.1,47.6 L246.1,47.7 L241.8,68.3 L267.5,71.8 L280.1,47.6 L288.7,47.6 L269.6,77.4 C235.6,70.8 201.8,73 173.6,80 L156.4,47.7 Z M168.7,47.7 L187.7,47.7 L192.3,65.5 C190,66.7 181.2,68.8 178.3,68.5 C174.9,62.3 171.3,53.5 168.7,47.7 L168.7,47.7 Z M205.5,47.7 L234.5,47.7 L232,62.8 L207.7,63.6 L205.5,47.7 Z M251.4,47.7 L273.7,47.7 L264.9,66 L248.1,63.7 L251.4,47.7 Z M108.6,52.3 C104.1,61.9 97.8,71.4 92.5,78.3 C76.8,98.8 73.4,104.6 70.3,116.7 C65.4,135.6 82.2,150.9 96.7,140.6 C100.1,138.2 103.9,131.5 103.9,128.6 C103.9,126.5 105.3,125.4 106.5,126.6 C106.7,126.8 106.8,127.8 106.7,129.1 C105.9,137.7 102.5,151.6 95.8,160.3 L122.4,160.3 C114.4,149.6 111.7,138.9 111.8,128.8 C111.8,124.4 114.4,124.9 115,129.3 C117.8,151.1 146,147 147.3,125.2 C148.1,113.8 140.9,101.6 131.5,88.2 C123.9,77.2 114.6,65.3 108.6,52.3 L108.6,52.3 Z M336.5,66.1 C335.2,66.1 334,66.2 332.9,66.4 C327.1,67.6 324.1,72.1 324,79.3 C324,82.6 326.4,88.5 330.2,94.1 C332,96.8 333.2,99.3 333.2,99.3 L323.5,113.6 L333.8,127.1 C333.8,127.1 332.2,129 331.2,130.3 C326.5,137 324.3,143.3 324.6,148.4 C324.9,154 328.2,158.2 334.2,160.2 C337.5,161.3 342.3,160 345.5,157.1 C348.1,154.8 349.4,151.7 349.4,148.2 C349.5,143.1 347,136.9 342.1,130.2 C340.8,128.4 340.1,126.9 340.1,126.9 C340.1,126.9 347,117.1 349.5,112.7 L340.1,99.2 C347.6,88 349,85.5 349.3,78.6 C349.1,71.9 344.1,66.1 336.5,66.1 L336.5,66.1 Z M335.5,66.9 C335.8,66.9 336.1,66.9 336.5,66.9 C345,67.6 349.5,73.9 348.4,82 C347.2,89.7 340.3,97 339.2,99.4 C342.5,104.9 348.9,112.6 348.9,112.6 C346.2,117.5 339.3,126.9 339.3,126.9 C339.3,126.9 339.7,127.7 340.1,128.3 C347.3,138.6 349.3,143.4 348.8,149.6 C348.4,154.5 344.6,158.8 339.8,159.7 C332.2,161.1 326,155.7 325.3,148.5 C324.8,142.2 328.9,136 332.1,131.2 C333.4,129.2 334.6,127.3 334.6,127.3 L324.3,113.8 C324.3,113.8 325,112.6 325.5,111.9 C327.3,109.3 329.7,106 330.9,104.5 C333.1,101.7 334.4,99.7 334.4,99.7 C334.4,99.7 332.9,97.2 331.4,95 C325.8,86.1 324.2,81.5 325,76.6 C326,70.4 330.7,67 335.5,66.9 L335.5,66.9 Z M336.3,71.5 C333.2,71.6 330.2,73.9 329,77.3 C327.3,83.6 333.9,93.1 336.9,95.7 C342.5,89.2 346.1,81.9 344.1,76.8 C342.6,73.6 339.5,71.4 336.3,71.5 L336.3,71.5 Z M337.1,73.5 C342.8,73.6 344.9,80.4 340.5,88.1 C339,90.7 336.7,93.5 336.7,93.5 C336.7,93.5 334.6,90.9 333.4,88.9 C328.3,80.9 329.6,74.7 335.9,73.6 C336.3,73.5 336.7,73.5 337.1,73.5 L337.1,73.5 Z M223.7,77 C208.8,77.1 188.9,79.6 171.3,83.5 C169.8,92.9 165.1,102.3 159.9,109.8 C154.9,117.9 153.1,124.9 154.8,129.8 C156.4,134.3 152.1,141.1 147.5,141.5 C141.7,142 138,146.1 138.1,151.8 C137.9,161 144.3,166.6 152.9,163.5 C153.8,163.4 154.3,164 154.3,164 L153.8,216.6 C149,217.4 145.7,218.4 141.6,220.6 L139.9,218.7 C138.9,217.7 137.7,216.4 137.2,215.8 C136.7,215.2 135.7,214.4 135.1,214 C134.5,213.6 133.6,212.7 133.2,212 C132.2,210.4 127.9,206.2 125.5,204.6 C125.1,204.3 124.1,203.5 123.2,202.7 L121.7,201.3 L121.7,183.8 C121.7,174.2 121.6,166.2 121.5,166.1 C121.4,166 119.4,166.8 117.1,168 C109.3,171.4 101.8,176.2 96,180 C93.5,181.7 93.2,182.7 94.2,187 C94.7,189.4 94.6,189.7 92.6,190.2 C88.5,191.2 87.2,197.7 90.7,200 C92.3,201 92.3,201.1 91.3,203.5 C89.7,207.2 89.7,214.2 91.4,217.1 C92.4,218.8 92.3,219.3 91,220.1 C86.6,222.9 86.9,229 91.5,230.2 C92.7,230.5 93,231 92.6,232 C91.2,235.7 92.5,241.3 95.7,245.5 C97.4,247.7 97.4,247.7 96.3,248.7 C92.6,252 94.6,258 99.6,258.6 C101.3,258.8 101.3,258.8 101.5,260.1 C102.1,263.9 102.3,264.9 103.2,266.7 C104.3,268.9 105.5,270.5 107.9,272.3 C109.8,273.8 109.8,273.8 108.8,276.1 C106.9,280.2 109.9,284.3 114.8,284.1 C117.3,284 117.3,284 117.5,284.9 C118.4,289.2 123.5,294.2 127.7,294.9 C129.9,295.3 130.2,295.8 129.5,297.6 C128.3,300.5 129.1,302.4 132.1,304 C134.1,305 134.7,305.1 136.9,304.3 C139.4,303.5 139.4,303.5 141.5,306.3 C144.5,310.3 146.4,311.3 151.3,311.3 C154.6,311.3 154.7,311.4 154.7,313.7 C154.7,319.1 160.5,321.4 164.2,317.5 C165.5,316.1 165.5,316.1 166.7,316.9 C171.9,320.7 176.5,321.7 176.1,318.1 C175.1,309.7 169,304.7 169,304.7 L176.6,306.7 C176.9,315.5 177.2,326.2 179.1,333.5 L145.3,387 C145.3,387 143.3,385.7 141.1,384.3 C137.9,382.1 134.1,379.5 131.7,378.1 C130.5,377.3 128.9,376.4 127.7,375.4 C126.5,374.4 128.4,373.1 128.8,372.1 C136.6,358.3 148.7,341.6 157.5,325.4 L149,322.1 C142.5,332.4 137.6,340.7 131.6,350.2 C125.5,305.7 94.5,266.6 56.9,250.2 L57,261.8 C96.4,282 124.6,323.6 123.8,372.7 C123.6,372.9 120.5,371 116.2,368.2 C114,366.7 109.4,363.8 108.9,363.5 C110.7,309.1 56.8,277 56.7,278.5 C56.7,278.5 56.4,285.5 56.2,288.8 C79.2,304.2 97.2,332.2 99.1,357.1 C99.1,357.3 88.3,350.4 88.3,350.4 C94.7,347.2 93,338.9 88.3,336.7 C86.9,336.1 86.8,335.7 87.5,333.8 C89,329.8 86.3,323.7 82.5,322.7 C80.9,322.3 80.6,321.8 80.5,319.5 C80.4,315.3 78,312.5 73.8,311.6 C72.6,311.3 72.6,311.3 72.6,309.9 C72.3,301.7 64.3,298.4 58.3,303.9 C57.6,304.5 56.9,305.7 56.9,305.7 L56.9,314.5 C58.9,313.4 62,309.5 63.3,309.7 C64.7,309.9 64,310.8 60.9,313.6 C58.8,315.4 56.9,317.2 56.9,317.2 L57,328.9 C60.4,326.7 63.8,324.2 67,322 C69.8,320.1 71.2,319.4 71.5,320 C71.9,320.6 71.3,321.4 69.7,322.4 C65.5,325.2 60.6,328.5 57.1,331.2 L57.1,339.2 L57.8,340.2 L58,347.2 L57.4,347.4 L57.4,356.3 L140.4,409.3 L182.6,342.7 L183.3,343.4 L141,409.6 C141,409.6 142.7,411.1 144.4,412 C146.1,412.9 148.2,414.2 150,415.4 C150.8,416.8 152.3,418 153.9,417.8 C155.4,416.2 161.7,414.5 162.3,413.8 C185.9,413.5 253.7,413.9 253.7,413.9 L254.1,424.7 C251.1,414.2 241.2,412 233.5,416.7 L220.8,416.7 C220.7,416.7 213.3,430.2 212.2,437.3 C206.9,436.6 199.8,441.8 199.4,447 C198.5,454.5 203.5,460 209.9,458.9 C210,458.9 208.9,466.3 205.2,472.1 C200.4,482.3 197.9,488 194.9,496.7 C192.9,502.2 193.6,503.1 193.9,503.3 C212.8,503 230.2,501.2 248.2,495.4 C248.2,495.4 247.9,494.1 247.7,493.4 C247.1,490.5 249.5,484.5 256.4,472.2 C261.7,462.7 263.3,459.1 263.8,454.6 C264.1,452.3 264,451.7 263.2,447.5 C263.2,447.1 262.8,446.5 262.9,446.1 C263.5,443.2 267.8,438.2 267.9,438.4 C267.9,438.4 269.5,438.1 270.1,438.1 C279.9,437.4 282.9,424.1 274.7,418.1 C270.7,415.6 268.3,415.5 264,416.6 L263.9,365 L269.8,365.2 L276.3,362 C286.8,371 293.7,380.1 305,387.1 L304.8,387.6 L296.4,381.8 L296.4,415.6 C306.1,410.5 315.2,405.9 323.9,398.8 L322.1,397.3 L322.2,392.5 C330.4,393.2 331.2,382.7 324.5,381.4 C324.5,381.4 324.7,380.6 325.3,379.2 C327.4,374.9 327.6,370.9 326.1,366.5 C325.2,363.8 325.2,363.1 326.3,363.1 C331.3,363.1 330.8,354.3 325.7,352.3 C323.9,351.6 324.1,352.2 324.4,346.7 C324.7,342.6 323.7,339.8 320.6,336.1 C319.4,334.7 319.5,334.1 321,333.2 C325.3,330.6 322.2,323.1 316.9,323.3 C314.9,323.4 314.9,323.4 314.7,321.3 C314.2,315.9 311.2,310.8 307.3,308.6 C306.1,307.9 305.9,307.4 306.6,306.5 C310,302 306.8,295.9 302.1,297.7 C301.2,298.1 300.2,298.4 300,298.5 C299.6,298.6 299.3,298.1 298.6,296.1 C296.6,290.6 294.9,288.8 288.6,286.2 C287.4,285.7 287.3,285.3 287.9,282.8 C288.9,278.4 282.9,274.4 279.6,277.2 C278.3,278.3 278.2,278.3 276.7,276.4 C273.7,273 268.9,270.6 264.6,270.2 C262.5,270 262.2,269.9 262.4,269.1 C263.5,263.8 258.3,260.3 254,263.5 C251.9,265 251.4,265.1 249.3,263.9 C244.8,261.4 242.9,261.3 242.4,263.6 C242.3,265.5 242.7,267.7 243.1,269.1 C244.2,272.9 245.6,274.2 248.7,276.9 C248.7,276.9 243.6,275.5 242.3,275.2 C242.4,275.1 241.9,257.4 238.6,247.4 L271.4,195.2 L290.2,207.6 L260.2,255.1 L268.9,258.7 C268.9,258.7 280.6,239.3 286.7,229.8 C290.7,277 327.2,318.4 360.3,330.7 C360.2,330.8 360.4,323.9 360.5,320.6 C325.6,305.2 292.4,262.3 294.5,210.8 L308.5,219.8 C312.6,261.1 330.6,285.3 360.5,305.8 L360.5,293.2 C339.9,277.9 322.7,258 318.1,226 C318.1,226 325.1,230.4 328.2,232.5 C328.2,232.5 327.3,233 326.9,233.4 C323.2,236.5 324.3,242.9 329.2,246.5 C330,247.1 330,247.1 329.3,249.1 C327.8,253.1 330.1,257.9 334,258.9 C336.2,259.5 336.2,259.5 336.3,262 C336.4,267 338.4,269.3 343.7,270.5 C344.4,270.7 344.5,270.7 344.4,273 C344.4,278.5 349.7,282.2 354.3,279.9 C355.7,279.2 360.3,275.4 360.3,275.4 L360.3,266.5 C360.3,266.5 358.2,268.2 356.8,269.6 C354.2,272 353.4,272.3 353.4,270.8 C353.4,269.7 354.6,268.3 357.1,266.5 C358.4,265.5 360.3,263.5 360.3,263.5 L360.3,253.2 C360.3,253.2 359.1,251.4 359.2,249.2 C359.2,248 359.6,246.2 359.6,246.2 L360.8,246.2 L360.8,234.3 L359.3,233.1 L359.4,225.2 L277.4,172.1 L235,239.8 L233.9,238.6 L276.7,171.1 L265.3,163.8 L258.4,167.2 C258.4,167.2 210.9,166.5 164.6,167 C164.6,167 164.5,165.7 164.5,162.1 C164.5,157.6 164.7,156.9 165.6,158.8 C167.5,163.1 172.1,165.7 177.5,165.4 C180.5,165.3 181,165.1 184.4,163.3 C185.7,162.6 185.9,162.6 191.8,162.6 C198.2,162.6 199.3,162.4 199.3,161.1 C201.5,156.1 203.7,150.2 205,145.8 C205.6,143.7 205.9,142.7 206.4,142.3 C206.8,142 207.1,142 208,142 C212.1,141.7 213.2,141.5 216.1,138.6 C222,132.7 218.6,120.7 210.1,120.6 C207.8,120.6 209.4,114.6 214.2,104.8 C219.1,94.7 219.8,93.2 222.4,86.4 C224.1,82 224.9,78.8 225.1,76.9 C224.6,77 224.2,77 223.7,77 L223.7,77 Z M223.2,79.9 C224.4,80.9 221.4,88.2 216.1,99.2 C211.7,108.3 209.8,112.8 208.8,116.1 C208.5,117.1 208.1,118.4 207.9,119.1 C207.6,120.1 207.2,120.6 206.2,121.3 C205.5,121.8 204.5,122.6 204,123 C202.6,124.2 202.2,123.8 202.6,121.5 C203.3,117.2 205,112.6 208.9,104.5 C212,98.1 215.1,91.2 217.5,84.1 C218,82.5 218.3,80.8 219.2,80.2 C220.5,79.5 221.9,79.7 223.2,79.9 L223.2,79.9 Z M216.8,80.4 C217.6,81 213.8,90.9 207.1,104.8 C198.8,122.1 198.3,134.2 205.8,137.1 C211.7,139.4 217.7,132.9 214,128.2 C212.2,125.9 208.5,125.7 207.2,128.1 C206.5,129.4 207.5,130.9 208.7,129.1 C210.5,126.5 214.2,129.5 213.3,132.6 C212.7,134.7 209.7,136.5 207.8,136.1 C199.6,134.5 201.2,122.9 209.6,122.3 C217.7,121.7 221.4,132.6 215.5,138.8 C213.6,140.8 211.4,141.8 207.6,141.8 C202.3,141.8 197.4,137.4 197.9,133.4 C198.6,129.7 198.7,126.7 197.5,123.8 C197.1,122.9 196.6,121.9 196.6,120.7 C196.7,117.4 199.4,112.3 205.4,99.7 C207.6,95.2 210.2,87.4 211.5,82.4 C212,81 211.7,80.5 212.3,80.4 C213.8,80.1 215.8,79.7 216.8,80.4 L216.8,80.4 Z M209.9,80.5 C211.1,80.5 208.3,89.6 204.7,97.4 C202,103.3 198.3,110.9 195.5,118 C194.6,119.5 194,119.6 192.2,118.6 C190.2,117.5 190.8,115.8 195.5,106.5 C199,99.4 202.5,91.3 204.9,83.2 C205.1,82.2 205.4,81.4 206.3,80.9 C207.4,80.4 208.6,80.5 209.9,80.5 L209.9,80.5 Z M203.2,81.6 C203.9,82.5 199.5,94.7 192.9,108.5 C191.5,111.4 190.5,114.1 189.1,117.1 C188.4,117.8 185.8,118.1 184.4,118.4 C183,118.2 184.3,115.6 188.2,107.7 C191.4,101.3 192.3,99.4 194,95.5 C195.2,92.6 197,87.7 198.7,83.1 C198.8,82.7 199,81.9 199.3,81.7 C200.5,81.2 202,81 203.2,81.6 L203.2,81.6 Z M196.7,82.3 C196.8,82.6 196.6,83.2 196.5,83.7 C195.5,88.6 193,93.2 191.3,97.9 C191.1,98.5 189.2,102.6 187,106.8 C184.9,111 182.9,115.1 182.6,115.8 C182.3,116.5 181.6,118.4 181,120 C177.2,128.2 181.3,134.7 186.4,135.2 C194.3,135.9 195.1,124.7 189.5,123.7 C187.4,123.3 185.1,124.5 185.1,126.9 C185,128.2 186.5,129.6 186.5,127.8 C186.4,124.5 191.1,124.6 191.6,127.5 C192.7,133 186.5,135.7 182.8,131.4 C181.3,129.6 181.3,127.6 181.6,125.8 C182.4,120.9 188,117.3 193.3,121 C200.5,126.1 198,137.3 188.7,139.1 C185.5,139.9 181.5,138.9 179,136.3 C177.4,134.7 176.4,132.2 176,129.3 C175.8,127.6 175.7,125.7 175.9,123.8 C176.6,118 180.9,109.6 184.5,102.5 C187.3,96.6 189.6,88.8 192.2,82.5 C192.9,82 196.8,81.5 196.7,82.3 L196.7,82.3 Z M189.7,83.1 C190.1,83.2 187.9,90.1 184.9,97.4 C181.5,104.9 177.1,113.4 174.6,120.8 C173.8,122.6 173.2,122.6 171,120.5 C169.8,119.4 170.5,117.8 174.6,109.3 C181,96.3 183.4,90.7 184.3,87.6 C184.7,86.1 185.1,84.3 186.1,83.8 C187.3,83.2 188.5,82.7 189.7,83.1 L189.7,83.1 Z M183.3,84.7 C182.6,86.9 180.4,93.4 176.6,101.1 C174.2,106 171.9,111.4 169.5,116.4 C168.2,119.5 168.2,119.5 165.9,120 C162.1,120.8 162.1,120.7 165.5,114 C166.5,112 168.4,108.3 169.7,105.8 C172.2,101.2 176,92.3 177.4,87.8 C177.8,86.6 178.3,85.5 178.9,84.9 C179.3,84.7 182.3,83.8 183.3,84.7 L183.3,84.7 Z M175.1,85.6 C175.8,85.6 176.4,85.7 176.7,86.1 C176.9,87.6 172.7,97.4 170.2,102 C169.4,103.4 168.6,105.2 167.8,106.8 C164.6,112 160.7,121.9 159.7,126 C158.1,132.5 165.6,137.5 169.4,132.7 C171.9,129.8 169.3,124.7 165.8,126.1 C164.6,126.6 165.1,127.2 166.8,127.3 C169.6,127.5 169.8,131.8 166.8,132.8 C163.5,133.8 161.1,131 161.1,128 C161.1,122 167.7,119.8 171.8,123.1 C175.9,126.5 176.5,134.6 170.3,137.7 C164.3,140.8 156.8,136.6 155.3,129.4 C154.2,123.9 155.4,118.8 160.7,110.3 C163.8,105.4 168.5,96.9 170.9,89.5 C171.4,88.2 171.8,87.2 172.2,86.7 C172.6,86.1 174,85.6 175.1,85.6 L175.1,85.6 Z M29.7,87.1 C29.7,87.1 27.3,91.7 24,97.2 C20,104 14,110.8 13.1,118.5 C12.9,120.7 13.2,122.9 13.7,124.2 C15.6,129.8 23.6,130.7 26.4,125.9 C27.2,124.5 27.5,124.2 28.4,124.7 C28.8,124.9 28.9,125.4 28.9,126.2 C28.2,131.3 26.3,134 23.5,137.8 L37,137.8 C34.2,134.7 31.8,130.4 31.5,126 C31.4,124.2 32.5,124.1 34.1,126 C39.3,133.2 47.6,125.1 46.9,118.3 C46.1,110.8 38.3,101 36.1,97.2 C32.7,92.4 29.7,87.1 29.7,87.1 L29.7,87.1 Z M336.8,103 L328.7,113.3 C331,116.7 336.6,123.3 336.6,123.3 L344.3,113.4 L336.8,103 Z M336.9,108.7 L340.3,113.1 L336.5,117.6 L332.9,113.4 L336.9,108.7 Z M337.2,131.1 C337.2,131.1 327.4,141.8 329.7,149.8 C331.7,156.9 342.4,158.6 345,148.2 C345.2,147.4 345,146.3 344.9,144.9 C344.6,140.7 337.2,131.1 337.2,131.1 L337.2,131.1 Z M337.2,133.2 C337.2,133.2 340,137.3 342,140.9 C344.2,144.3 344.8,153.9 336.9,153.6 C332.6,154 328.6,148.4 331.9,141.5 C332.9,139.5 337.2,133.2 337.2,133.2 L337.2,133.2 Z M175.5,135 C176,134.9 176.6,136.1 176.9,136.9 C177.4,138.1 176,141.4 174.6,143.1 C174.3,143.4 172.5,143.5 169.9,144.9 C169.9,143.6 170.7,140.9 171.2,139.7 C173,137.9 174.6,135.8 175.3,135.1 C175.4,135 175.4,135 175.5,135 L175.5,135 Z M156,135.6 C157.2,137 158.4,138.1 158.3,139 C158.2,140.2 156.8,141.8 155.7,142.9 C154.3,144.3 151.6,143.4 151.6,141.7 C151.6,140.9 155.5,135.6 156,135.6 L156,135.6 Z M197.4,137.3 C198.6,137.9 199.7,140 199.9,141 C198.2,150.2 191.9,161.4 192.1,161 C192.1,161 188.2,161.7 186.6,160.9 C190.8,155 193.7,147.5 195.6,141.4 C196.5,138.7 196.9,137.4 197.4,137.3 L197.4,137.3 Z M193.9,138.6 C194.6,138.6 194.8,139.1 194.3,140.5 C191.8,150.7 186.2,161.3 181.8,163.3 C176,165.9 170.2,163.7 167.8,159.4 C165.1,154.7 165.6,147.2 174.5,145.6 C179.8,145.1 185.1,149.2 182.3,155.9 C179.2,160.8 170.8,158.1 173.3,151.7 C175.2,149.4 179,151.4 177.8,154 C177.2,155.3 177.8,156.2 178.7,155.2 C181.8,152.2 176.7,147.1 173.3,149.7 C167.8,153.9 174.6,163 181,159.1 C183,157.9 186.5,151.2 187.8,146.3 C188.4,144.2 188.9,142.2 190.3,140.9 C191.5,139.7 193,138.7 193.9,138.6 L193.9,138.6 Z M179.2,139 C179.5,139 179.9,139.2 180.4,139.4 C181,139.7 181.8,140.3 181.7,141.1 C181.6,142 181.1,143.8 180.1,144.7 C179.5,144.5 177.8,143.8 176.7,143.5 C176,143.3 176.9,141.8 177.4,140.9 C178.1,139.5 178.5,139 179.1,138.9 C179.1,139 179.2,139 179.2,139 L179.2,139 Z M161,139.4 C161.8,139.4 163.2,140.3 164,140.4 C164.2,141.7 162.6,144.4 159.9,147.5 C157.8,150.1 157.8,150.1 156.3,147.2 C155.4,145.3 155.4,145.4 158,142.1 C159.4,140.3 160.1,139.5 160.7,139.3 C160.9,139.4 160.9,139.4 161,139.4 L161,139.4 Z M169.2,140.3 C169.2,141 168.9,142.5 168.6,143.3 C165.6,152.1 158.7,160.9 153,163.1 C145.5,165.5 138.7,161.6 138.6,152.6 C138.8,141.9 151.5,139 155.3,148.7 C157,153.1 152.3,159.7 148.2,158.6 C144.1,157.5 142.4,151.1 145.8,149.5 C148,148.5 150.3,150.2 149.8,152.6 C149.6,153.4 149.7,153.5 150.2,153.4 C152.3,153 151.2,148.8 148.7,147.7 C144,145.7 140.4,152.1 143.6,156.8 C147.4,162.5 153.4,161.4 156.9,154.4 C157.5,153.2 158.6,151.5 159.4,150.6 C161.5,148.2 162.2,147.2 164,144 C165,142.2 165.6,141.1 166.1,140.5 C166.9,140.4 167.4,140.7 169.2,140.3 L169.2,140.3 Z M186,140.8 C186.9,140.8 187.6,141.4 187.6,142.6 C187.6,143.6 186.1,148 185.4,149 C185.1,149.4 184.5,150.8 184.4,150.5 C183.5,147.6 182,146.7 181.7,145.9 C181.4,145 182.2,144.1 182.6,143.3 C183.3,141.7 184.8,140.8 186,140.8 L186,140.8 Z M201.7,142.2 C202.8,142.2 204.3,142.7 204.6,143.5 C205.6,145.2 198.9,161.3 198.7,161.4 L193.7,161.2 C196.7,154.8 199.3,148.4 201.3,142.3 C201.4,142.2 201.5,142.2 201.7,142.2 L201.7,142.2 Z M268.5,167.6 L274.8,171.4 L233.1,237.7 L227,233.1 L268.5,167.6 Z M164.4,169 C203.4,169.1 257.1,169.1 257.1,169.1 L254.8,173.4 C254.8,173.4 196.2,172.8 164.4,172.9 L164.4,169 Z M111.8,171.7 L111.7,193.5 C111.7,193.5 111.4,193.4 107.7,190.9 C103.2,187.9 98.3,184.9 96.8,184.1 C94.5,182.9 94.8,182.3 99.3,179.5 C103.6,176.9 111.8,171.7 111.8,171.7 L111.8,171.7 Z M278.7,173.9 L282.6,176.4 L238.8,246.2 L236.4,241.4 L278.7,173.9 Z M164.4,174.9 L170.5,174.9 L170.5,181.8 L164.4,181.8 L164.4,174.9 Z M178.4,174.9 L185.8,174.9 L185.8,181.8 L178.4,181.8 L178.4,174.9 Z M194.6,174.9 L202.2,174.9 L202.2,181.8 L194.6,181.8 L194.6,174.9 Z M210.4,175 L218.1,175 L218.1,181.9 L210.4,181.9 L210.4,175 Z M226.4,175 L234,175 L234,181.9 L226.4,181.9 L226.4,175 Z M242.5,175.2 L250.3,175.2 L250.3,180.1 L249.1,182.1 L242.5,182.1 L242.5,175.2 Z M284.4,177.4 L358.8,225.5 L358.8,232.1 L281.4,182.1 L284.4,177.4 Z M279.5,183 L280.1,183.5 L276.9,188.3 L276.3,187.9 L279.5,183 Z M164.6,183.7 L248.1,183.7 L245.6,187.9 L164.6,187.8 L164.6,183.7 Z M96.1,185.9 C96.7,185.9 97.8,186.4 99.5,187.3 C103.6,189.6 106.2,194.5 104.4,196.2 C102.8,197.8 99.1,194.4 96.8,189.6 C95.6,187.1 95.2,186 96.1,185.9 L96.1,185.9 Z M243.8,190.1 L216.9,233.1 C210.8,224.8 204,217.6 189.1,222.4 C181.3,216.4 173.1,215.5 164.4,220.6 L164.5,190.2 L243.8,190.1 Z M105.1,190.1 L107.2,191.9 C106.6,193.1 106.3,194.8 105.9,196.3 C105.9,194.2 105.7,192.1 105.1,190.1 L105.1,190.1 Z M275.9,190.5 L358.9,245.1 L358.9,250.2 L273,194.9 L275.9,190.5 Z M94.1,191.8 C95.2,191.8 96.2,192.2 97,193.2 C98.3,194.7 97.7,197.5 96,198.7 C92.5,201.1 88.3,196.5 91.1,193.4 C92,192.3 93.1,191.8 94.1,191.8 L94.1,191.8 Z M107.9,192.4 L112.4,196 C104.5,240.8 127,286.1 175.4,299.7 L176.000361,305.4 C176.1,305.7 155.4,299.3 146.4,292.5 C134.1,284.2 123.6,272.4 116.5,258.7 C116.1,257.9 115.6,257 115.4,256.6 C113.2,252.8 109.5,242.4 108.3,237.1 C107.9,235.2 107.4,233.1 107.2,232.3 C106.6,230 105.3,212.1 105.6,208.9 C106.3,199.1 107.9,192.4 107.9,192.4 L107.9,192.4 Z M102.7,198.5 C104.4,198.6 104.6,199.8 103.2,202.2 C101.4,205.3 98.7,207.4 94.4,209.3 C92,210.3 91.4,209.8 91.7,207.3 C92.1,203.4 94.8,200.6 99.4,199.1 C100.5,198.8 101.6,198.5 102.7,198.5 L102.7,198.5 Z M116.1,199 C116.8,199.6 117,199.8 117.9,200.5 C116.4,201 115.3,202.4 115.3,204.1 C115.3,206.2 117,207.9 119.1,207.9 C121,207.9 122.5,206.5 122.8,204.8 C123.5,205.4 124.1,205.9 124.6,206.4 C123.7,208.6 121.6,210.2 119.1,210.2 C115.8,210.2 113.2,207.5 113.2,204.3 C113.1,201.9 114.3,200 116.1,199 L116.1,199 Z M119.1,202 C119.3,202 119.5,202 119.7,202.1 C120.2,202.5 120.6,202.8 121,203.2 C121.1,203.5 121.2,203.8 121.2,204.1 C121.2,205.3 120.3,206.2 119.1,206.2 C117.9,206.2 117,205.3 117,204.1 C117,202.9 117.9,202 119.1,202 L119.1,202 Z M104.8,203.3 C104.3,209.1 104.5,215.1 104.6,221.2 C103.5,216.4 101,212.8 96.8,210.4 C99.8,208.4 102.8,206 104.8,203.3 L104.8,203.3 Z M126.6,207.9 L130.6,211.4 C127.1,258.9 168.7,276.9 169.9,276.1 L171.7,281.5 C142.9,271.7 123.1,242 126.6,207.9 L126.6,207.9 Z M358.4,321.7 L358.2,327.7 C325.6,315 288.4,268.4 288.9,223.7 C280.5,236.5 275.8,245.1 268.6,256.7 L262.9,254 C272.3,240 281.3,225 290.7,211.2 C291.8,209.6 292.7,208.9 292.7,212.3 C292.7,227.6 297.5,290.9 358.4,321.7 L358.4,321.7 Z M93.3,211.6 C94.4,211.5 95.8,212 97.7,213.3 C100.7,215.3 104,221.5 102.9,222.8 C101.9,224 97.4,222.6 95.2,220.2 C90.9,215.7 90.6,211.8 93.3,211.6 L93.3,211.6 Z M118.7,212.2 C122,212.2 124.6,214.9 124.6,218.1 C124.6,221.4 121.9,224 118.7,224 C115.4,224 112.8,221.3 112.8,218.1 C112.8,214.9 115.4,212.2 118.7,212.2 L118.7,212.2 Z M132,212.8 L135.9,217.4 C136.7,257.2 168.1,269.5 167.8,269.6 L168.8,273.9 C167,274.1 129.9,257.2 132,212.8 L132,212.8 Z M118.7,214.4 C116.6,214.4 114.9,216.1 114.9,218.2 C114.9,220.3 116.6,222 118.7,222 C120.8,222 122.5,220.3 122.5,218.2 C122.5,216.1 120.8,214.4 118.7,214.4 L118.7,214.4 Z M118.7,216 C119.9,216 120.8,217 120.8,218.1 C120.8,219.3 119.9,220.2 118.7,220.2 C117.5,220.2 116.6,219.3 116.6,218.1 C116.6,217 117.5,216 118.7,216 L118.7,216 Z M138.8,219.6 C139.3,219.6 141.5,222.9 141.5,222.9 C141.5,222.9 139,223.8 138,222.7 C137,221.6 137.5,219.6 138.8,219.6 L138.8,219.6 Z M311,221.1 L316.8,225.1 C319.5,252 334.9,276.5 358.1,293.5 L358,300.2 C329.8,281.1 314.1,255.1 311,221.1 L311,221.1 Z M92.7,221.6 C92.8,221.6 92.9,221.6 93,221.6 C96.6,221.7 98.1,227.1 94.3,228.7 C91.9,229.7 89.3,228.3 89,225.8 C88.8,224.1 90.1,222.2 91.8,221.7 C92.1,221.6 92.4,221.6 92.7,221.6 L92.7,221.6 Z M141.3,225.1 C142.2,225.1 143.3,225.6 144.2,226.7 C146.8,229.6 146.7,230.4 144,231.5 C140.2,233 137.1,230.9 138.3,227.6 C139,226 140.1,225.1 141.3,225.1 L141.3,225.1 Z M102.5,225.3 C102.8,225.3 103.1,225.3 103.4,225.4 C106.2,226.5 100.1,237.6 96.1,238.7 C93.6,239.4 93,238.4 93.9,234.5 C94.7,230.2 99.5,225.3 102.5,225.3 L102.5,225.3 Z M120.3,225.5 C123.6,225.5 126.2,228.2 126.2,231.4 C126.2,234.7 123.5,237.3 120.3,237.3 C117,237.3 114.4,234.6 114.4,231.4 C114.4,228.2 117,225.5 120.3,225.5 L120.3,225.5 Z M120.3,227.7 C118.2,227.7 116.5,229.4 116.5,231.5 C116.5,233.6 118.2,235.3 120.3,235.3 C122.4,235.3 124.1,233.6 124.1,231.5 C124.1,229.4 122.4,227.7 120.3,227.7 L120.3,227.7 Z M105.4,228 C105.9,233.5 106.8,238.6 109.3,245.4 C107,241.7 103.7,239.9 100.6,237.8 C102.8,234.6 105.3,231.3 105.4,228 L105.4,228 Z M120.3,229.4 C121.5,229.4 122.4,230.4 122.4,231.5 C122.4,232.7 121.5,233.6 120.3,233.6 C119.1,233.6 118.2,232.6 118.2,231.5 C118.2,230.3 119.1,229.4 120.3,229.4 L120.3,229.4 Z M154,230 C160.2,229.9 164.6,235 164.3,239.9 C164.5,245.6 164.7,249.2 164.2,256.3 L159.2,247.1 C159.1,244.5 159.6,242.5 159.4,239.9 C158.8,232.9 152,233.9 151.6,234.6 L149.4,231.1 C151,230.4 152.5,230 154,230 L154,230 Z M175.8,230.7 C181.6,230.7 185,234 185.2,239.8 C185.5,250.9 184.9,276.4 184.9,276.4 L172.3,276.4 L165.4,259.4 C165.4,259.4 165.1,257.8 165.2,256.6 C165.6,251.1 165.4,245.1 165.5,240.1 C166.3,234.9 170.6,230.7 175.8,230.7 L175.8,230.7 Z M146.7,232.5 C147.5,232.5 148.3,232.7 148.8,233.3 C151.7,236.2 151.7,238.2 148.7,239.5 C144.8,241.3 142.8,240.9 141.4,238.3 C140.2,235.8 143.8,232.5 146.7,232.5 L146.7,232.5 Z M330,233.3 L333.2,235.4 C333.2,235.4 332.5,236.4 332.2,237.1 C330.4,240.2 333.5,242 337.7,240.4 C338.5,240.1 339.1,239.7 339.1,239.7 L341.7,241.5 C341.7,241.5 339.8,242.5 337.7,243.5 C332.4,246.1 328.6,245 327.3,240.5 C326.8,238.7 327.3,236.5 328.3,235.2 C328.8,234.4 330,233.3 330,233.3 L330,233.3 Z M195.1,233.7 C200,233.5 204.7,237.3 205.8,242.4 C206.3,244.8 205.7,276.4 205.7,276.4 L186.4,276.4 L186.7,243.2 C186.6,241.1 186.7,239 187.8,237.5 C190,234.9 192.6,233.7 195.1,233.7 L195.1,233.7 Z M175.1,235.1 C171.2,235.3 169,241.6 173,244.6 C174.7,245.8 174.7,246.1 173.8,250.3 C172.8,255.1 173.8,261.7 176.2,265.4 C178,268.5 177.7,266.9 176.7,264.2 C175.5,259.1 176.1,255.3 179,249.4 C181.6,244.4 184.2,236.7 175.8,235.3 C175.6,235.1 175.3,235.1 175.1,235.1 L175.1,235.1 Z M335.3,236.5 L337,237.7 C337,237.7 336.7,237.9 336.4,238.3 C335.7,239 334.3,239.1 333.9,238.6 C333.2,237.7 335.3,236.5 335.3,236.5 L335.3,236.5 Z M196.2,239 C192,238.9 189.3,246.6 194.6,248.5 C195.8,249.3 196,250.3 195.3,251.8 C194.3,253.8 193.3,258.4 193.4,260.3 C193.6,263.1 194.3,266.7 194.9,268 C196.3,271.5 196,270.1 195.7,266.1 C195.6,261.6 196.5,258.4 199.1,254.1 C202.2,249 206.5,240.6 196.7,239.1 C196.5,239 196.4,239 196.2,239 L196.2,239 Z M124.1,239 C127.4,239 130,241.7 130,244.9 C130,248.2 127.3,250.8 124.1,250.8 C120.8,250.8 118.2,248.1 118.2,244.9 C118.2,241.7 120.8,239 124.1,239 L124.1,239 Z M151.7,239.6 C152.7,239.6 153.5,240.3 154.4,241.7 C157,245.5 156.7,246.3 151.7,249 C146.5,251.9 142.9,244.6 148,241.3 C149.5,240.3 150.6,239.7 151.5,239.6 C151.5,239.6 151.6,239.6 151.7,239.6 L151.7,239.6 Z M97.3,239.9 C102.8,240 111.5,247.9 107.3,249 C106.7,249.2 105.9,249.3 105.6,249.3 C98.6,248.8 90.6,239.8 97.3,239.9 L97.3,239.9 Z M124.1,241.2 C122,241.2 120.3,242.9 120.3,245 C120.3,247.1 122,248.8 124.1,248.8 C126.2,248.8 127.9,247.1 127.9,245 C127.9,242.9 126.2,241.2 124.1,241.2 L124.1,241.2 Z M343.2,242.3 L346,244.2 C346,244.2 344.3,245 342.3,246 C336.9,248.9 335.3,251 337.2,252.9 C337.9,253.6 338.6,253.9 340.1,253.3 C343.8,251.9 347.3,249.3 350.8,247.3 L352.9,248.7 C352.9,248.6 344.7,254.5 340.2,257 C333.2,260.6 329.2,253.2 333.1,248.3 C336,245.3 339.2,244.4 343.2,242.3 L343.2,242.3 Z M124.1,242.8 C125.3,242.8 126.2,243.7 126.2,244.9 C126.2,246.1 125.3,247 124.1,247 C122.9,247 122,246.1 122,244.9 C122,243.8 123,242.8 124.1,242.8 L124.1,242.8 Z M347.5,244.8 L349,245.8 C349,245.8 348.8,245.9 344.2,248.5 C339.2,251.4 339,251.4 338.7,251 C338.5,250.9 338.8,249.7 340.3,248.6 C343.1,246.9 347.8,244.7 347.5,244.8 L347.5,244.8 Z M217.1,245 C220.5,244.9 224,246.6 226,250 C227,252.6 227.1,255.1 227.1,257.8 L227,276.4 L207.6,276.4 C207.6,276.4 206.7,263.7 207.6,253.2 C208.4,247.9 212.7,245.1 217.1,245 L217.1,245 Z M156.7,247.7 C157.9,247.6 158.8,248.8 160,251.4 C161.2,254 160.3,255.5 156.6,257 C156.1,257.2 155.6,257.3 155.4,257.3 C151.7,256.9 150.2,252.7 152.9,250.1 C154.6,248.7 155.8,247.8 156.7,247.7 L156.7,247.7 Z M354.3,249.6 L356,250.6 C356,250.6 355.1,251.4 348.9,256 C343.8,259.7 343.1,260.7 344.2,262.8 C345.1,264.5 346.9,264.3 349.5,262.3 C353.1,259.6 358.6,254.9 358.6,254.9 L358.8,258.1 C355.1,261.1 350.7,266.1 347.1,268 C340.3,271.4 335.4,262.1 341.6,257.6 C346.9,253.7 354.3,249.6 354.3,249.6 L354.3,249.6 Z M217.8,249.6 C212.7,249.6 210.8,257.1 216.3,258.7 C217.9,259.5 217.7,260 216.7,263.7 C216.1,266 215.9,268.8 216.2,270.6 C216.6,272.9 217.1,272.8 216.9,270.4 C216.9,269.1 218.3,265.5 219.7,263.3 C224.8,256.2 223.4,249.7 217.8,249.6 L217.8,249.6 Z M99.5,249.7 C102.8,249.7 104.7,254.4 101.8,256.4 C99.7,257.8 95.4,256.1 95.4,253.8 C95.4,251.9 96.9,250.1 98.8,249.7 C99,249.7 99.2,249.7 99.5,249.7 L99.5,249.7 Z M109.1,250.1 C110.2,250.1 110.8,251.6 110.8,254.7 C110.8,259.1 109.2,262.9 106.5,265.2 C102.6,268.4 101.7,259.6 105.4,253.8 C106.9,251.3 108.2,250.1 109.1,250.1 L109.1,250.1 Z M357.9,251.3 C358.9,251.3 358.7,252 357.6,252.8 C356.7,253.4 355.3,254.6 350.7,258.4 C349.9,259.1 348.7,260 348.1,260.4 C346.6,261.4 345.3,261.1 346,260 C346.8,258.8 357,251.3 357.9,251.3 L357.9,251.3 Z M130.1,251.5 C133.4,251.5 136,254.2 136,257.4 C136,260.7 133.3,263.3 130.1,263.3 C126.8,263.3 124.2,260.6 124.2,257.4 C124.1,254.1 126.8,251.5 130.1,251.5 L130.1,251.5 Z M130.1,253.6 C128,253.6 126.3,255.3 126.3,257.4 C126.3,259.5 128,261.2 130.1,261.2 C132.2,261.2 133.9,259.5 133.9,257.4 C133.9,255.3 132.2,253.6 130.1,253.6 L130.1,253.6 Z M58.9,253.7 C99.1,274 124.2,312.1 130.4,355.4 L149.9,324.4 L155.2,326.4 L126.7,372.8 L125.5,372.4 C125.4,327.1 102.8,284.2 58.8,260.6 L58.9,253.7 Z M130.1,255.3 C131.3,255.3 132.2,256.3 132.2,257.4 C132.2,258.6 131.2,259.5 130.1,259.5 C128.9,259.5 128,258.6 128,257.4 C127.9,256.3 128.9,255.3 130.1,255.3 L130.1,255.3 Z M113.5,255.5 C115.3,259.4 117.4,263.5 120.7,268.1 C117.4,264.9 113.7,265.1 110.1,264.6 L113.5,255.5 Z M161.3,256.4 C161.9,256.4 162.5,256.6 163,257.3 C164.7,259.6 165,261.7 163.8,262.8 C162.2,264.4 159.7,263.7 158.6,261.5 C157.5,259.2 159.4,256.5 161.3,256.4 L161.3,256.4 Z M358.5,259.5 L358.6,263 C358.6,263 357.8,263.9 357,264.6 C354.8,266.7 351.7,270 351.5,270.9 C350.8,273.7 353.5,274.7 356.2,272.7 C357.1,272 358.5,270.9 358.5,270.9 L358.5,275.2 C356.2,277.1 353.9,279 350.8,278.4 C349,277.9 347.4,276.4 347.1,274.6 C345.8,269.1 351.1,266.1 355.2,262.5 C356.5,261.4 358.5,259.5 358.5,259.5 L358.5,259.5 Z M138.4,262.6 C138.5,262.6 138.6,262.6 138.7,262.6 C142,262.6 144.6,265.3 144.6,268.5 C144.6,271.8 141.9,274.4 138.7,274.4 C135.4,274.4 132.8,271.7 132.8,268.5 C132.8,265.4 135.3,262.8 138.4,262.6 L138.4,262.6 Z M257.9,263.9 C261.1,263.9 262.9,268.2 260.2,270.7 C259.2,271.7 256.9,272.4 255.6,271.4 C251.9,269 254.6,264.1 257.9,263.9 L257.9,263.9 Z M251.4,267.4 C253.3,269.4 254.7,275.2 253.6,276.3 C251.2,278.8 244.1,270.4 244.5,264.9 C245.2,261.6 250.7,266.7 251.4,267.4 L251.4,267.4 Z M164.5,264.2 C165.8,264.2 166.1,265.4 165.8,266.1 C165.5,266.8 164.4,266.8 163.6,266.5 C162.1,266 162.8,264.2 164.5,264.2 L164.5,264.2 Z M138.7,264.8 C136.6,264.8 134.9,266.5 134.9,268.6 C134.9,270.7 136.6,272.4 138.7,272.4 C140.8,272.4 142.5,270.7 142.5,268.6 C142.5,266.4 140.8,264.8 138.7,264.8 L138.7,264.8 Z M110.4,266.4 C117.6,266.4 125.1,272.1 118.6,273.2 C113.7,274 110.5,273.1 106.7,269.6 C104.8,267.8 105.5,266.9 109,266.5 C109.5,266.4 110,266.4 110.4,266.4 L110.4,266.4 Z M138.7,266.4 C139.9,266.4 140.8,267.3 140.8,268.5 C140.8,269.7 139.9,270.6 138.7,270.6 C137.5,270.6 136.6,269.7 136.6,268.5 C136.6,267.4 137.6,266.4 138.7,266.4 L138.7,266.4 Z M148.7,271.8 C148.8,271.8 148.9,271.8 149,271.8 C152.3,271.8 154.9,274.5 154.9,277.7 C154.9,281 152.2,283.6 149,283.6 C145.7,283.6 143.1,280.9 143.1,277.7 C143,274.6 145.5,272 148.7,271.8 L148.7,271.8 Z M265.5,272.1 C267.2,272.1 268.7,272.4 269.5,273.2 C270.5,274.2 269,276 265.7,277.6 C261.9,279.4 255.4,279.2 255.4,277.2 C255.5,274.5 261.2,272.2 265.5,272.1 L265.5,272.1 Z M122.4,273.7 C125.7,273.7 126.6,283.9 123.7,288.8 C122.2,291.3 120.2,289.6 118.8,284.6 C117.6,280.5 119.9,273.6 122.4,273.7 L122.4,273.7 Z M149,274 C146.9,274 145.2,275.7 145.2,277.8 C145.2,279.9 146.9,281.6 149,281.6 C151.1,281.6 152.8,279.9 152.8,277.8 C152.8,275.6 151.1,274 149,274 L149,274 Z M272.2,274.6 C272.5,274.6 272.8,274.7 273.3,275 C276.9,276.8 279.5,285 277.6,288.7 C275.6,292.6 271.2,285.1 271.2,278 C271.2,275.7 271.4,274.7 272,274.7 C272.1,274.6 272.2,274.6 272.2,274.6 L272.2,274.6 Z M113,275.1 C113.1,275.1 113.2,275.1 113.2,275.1 C116.5,275.2 118.8,279.7 115.8,282 C114.5,283 112.4,283.2 111.1,282.4 C108.6,280.8 108.7,277 111.3,275.6 C111.9,275.3 112.5,275.2 113,275.1 L113,275.1 Z M149,275.6 C150.2,275.6 151.1,276.5 151.1,277.7 C151.1,278.9 150.2,279.8 149,279.8 C147.8,279.8 146.9,278.8 146.9,277.7 C146.9,276.6 147.8,275.6 149,275.6 L149,275.6 Z M126.8,276.3 C128.6,279 135.8,285.9 136.8,286.6 C133.6,285.6 130.3,286 127,286.4 C127.4,284 127.8,280 126.8,276.3 L126.8,276.3 Z M242.7,276.9 C291.6,288.3 321.5,340.2 309.6,388.9 C309.6,388.9 305.5,386.6 304.8,385.5 C306.5,377.1 307.6,363.7 305.4,350.3 C301.7,327.5 283.3,294.2 242.9,282.7 C242.5,281.3 242.7,276.9 242.7,276.9 L242.7,276.9 Z M269,277.3 C269.6,280.6 270.1,284 270.9,287 C267.5,284.5 263.6,282.4 259.6,280.7 C262.5,280 265.1,279.5 269,277.3 L269,277.3 Z M283.1,278.4 C285.1,278.4 287,279.7 287,282.1 C287,283.2 285.9,285.1 285,285.5 C281.7,287.2 278.4,284 279.8,280.6 C280.5,279.1 281.8,278.4 283.1,278.4 L283.1,278.4 Z M160.3,279.6 C163.6,279.6 166.2,282.3 166.2,285.5 C166.2,288.8 163.5,291.4 160.3,291.4 C157,291.4 154.4,288.7 154.4,285.5 C154.3,282.3 157,279.6 160.3,279.6 L160.3,279.6 Z M160.3,281.8 C158.2,281.8 156.5,283.5 156.5,285.6 C156.5,287.7 158.2,289.4 160.3,289.4 C162.4,289.4 164.1,287.7 164.1,285.6 C164.1,283.5 162.4,281.8 160.3,281.8 L160.3,281.8 Z M59.1,282.4 C83.4,296.7 105.2,327.2 106.8,361.7 L100.9,357.9 C98.4,334.7 86.5,309.4 58.9,288.7 C58.9,288.6 59,286.4 59.1,282.4 L59.1,282.4 Z M193.6,282.4 L225,282.4 L225,289.2 L234.4,284.3 L234.4,299.3 L225,293.6 L225,300.1 L193.6,300.1 L193.6,293.2 L184,297.9 L184.1,283 L193.6,288.3 L193.6,282.4 Z M160.3,283.5 C161.5,283.5 162.4,284.4 162.4,285.6 C162.4,286.8 161.5,287.7 160.3,287.7 C159.1,287.7 158.2,286.8 158.2,285.6 C158.2,284.4 159.1,283.5 160.3,283.5 L160.3,283.5 Z M172.6,284.6 C172.6,284.6 172.7,284.6 172.7,284.6 L173.1,286.8 C173,286.8 173,286.8 172.9,286.8 C170.8,286.8 169.1,288.5 169.1,290.6 C169.1,292.7 170.8,294.4 172.9,294.4 C173.4,294.4 173.9,294.3 174.3,294.1 L174.7,296.3 C174.1,296.5 173.5,296.6 172.9,296.6 C169.6,296.6 167,293.9 167,290.7 C167,287.4 169.5,284.8 172.6,284.6 L172.6,284.6 Z M243.6,285.4 C243.7,285.4 243.8,285.4 243.9,285.4 C247.2,285.4 249.8,288.1 249.8,291.3 C249.8,294.1 247.8,296.5 245.2,297.1 L244.8,295 C246.4,294.6 247.6,293.1 247.6,291.4 C247.6,289.3 245.9,287.6 243.8,287.6 C243.7,287.6 243.6,287.6 243.5,287.6 L243.1,285.5 C243.4,285.4 243.5,285.4 243.6,285.4 L243.6,285.4 Z M285.3,287.4 C292.6,287.4 295.7,291.7 289.7,293.4 C286.9,294.2 283.3,293.8 279.7,292.2 C276.6,290.9 280.8,287.4 285.3,287.4 L285.3,287.4 Z M132,287.8 C133.8,287.8 135.5,288.1 136.8,288.7 C139.9,290.2 139.8,291.1 136.5,293 C131.9,295.6 121.2,293 124.4,290 C125.9,288.6 129,287.8 132,287.8 L132,287.8 Z M173,288.5 C173.2,288.5 173.3,288.5 173.5,288.6 L174.2,292.5 C173.9,292.7 173.5,292.8 173.1,292.8 C171.9,292.8 171,291.9 171,290.7 C170.8,289.4 171.8,288.5 173,288.5 L173,288.5 Z M243.9,289.2 C245.1,289.2 246,290.2 246,291.3 C246,292.2 245.4,293 244.6,293.3 L243.9,289.2 Z M256.9,290.7 C260.2,290.7 262.8,293.4 262.8,296.6 C262.8,299.9 260.1,302.5 256.9,302.5 C253.6,302.5 251,299.8 251,296.6 C250.9,293.4 253.6,290.7 256.9,290.7 L256.9,290.7 Z M141.1,292.2 C141.4,292.2 141.8,292.3 142.3,292.7 C145.9,295.6 147.6,301.8 146.2,306.4 C144.9,310.8 139.3,303 139.3,296.8 C139.4,293.9 140,292.3 141.1,292.2 L141.1,292.2 Z M295.1,292.8 C295.6,292.8 296.1,293.2 296.6,294 C298.8,297.7 298.7,305.3 296.4,307.7 C295.1,309 294.6,308.8 293.3,306 C290.9,301.3 292.7,292.7 295.1,292.8 L295.1,292.8 Z M256.9,292.9 C254.8,292.9 253.1,294.6 253.1,296.7 C253.1,298.8 254.8,300.5 256.9,300.5 C259,300.5 260.7,298.8 260.7,296.7 C260.6,294.6 258.9,292.9 256.9,292.9 L256.9,292.9 Z M145.8,293.9 C150.3,296.7 154.9,299.3 159.7,301.5 C155.2,300.4 151.9,302 148.5,304 C149.1,300.2 147.9,297.2 145.8,293.9 L145.8,293.9 Z M280.7,294.7 C284,295.2 287.4,295.7 291.2,295 C290.5,298.3 290.2,301.6 290.5,305.1 C287.7,301.3 284.5,297.8 280.7,294.7 L280.7,294.7 Z M256.9,294.5 C258.1,294.5 259,295.5 259,296.6 C259,297.8 258.1,298.7 256.9,298.7 C255.7,298.7 254.8,297.7 254.8,296.6 C254.7,295.5 255.7,294.5 256.9,294.5 L256.9,294.5 Z M134.2,296 C134.9,296 135.6,296.2 136.3,296.6 C139.1,297.9 139.1,301.3 136.5,303 C133.1,305.2 128.7,301.3 130.8,298 C131.6,296.7 132.7,296 133.9,296 C134.1,296 134.1,296 134.2,296 L134.2,296 Z M268.8,298.5 C272.1,298.5 274.7,301.2 274.7,304.4 C274.7,307.7 272,310.3 268.8,310.3 C265.5,310.3 262.9,307.6 262.9,304.4 C262.8,301.2 265.5,298.5 268.8,298.5 L268.8,298.5 Z M303.6,299.5 C304.2,299.5 304.8,299.6 305.4,299.9 C307.5,301 308,303.8 306.3,305.5 C304.4,307.3 301.9,307 300.6,304.8 C299.1,302.3 301.1,299.5 303.6,299.5 L303.6,299.5 Z M246.2,300.4 C275.5,310.4 295.1,342.9 290.3,374.3 L286.7,370.9 C289.5,353.1 279.7,319.2 247.1,305.2 L246.2,300.4 Z M268.8,300.7 C266.7,300.7 265,302.4 265,304.5 C265,306.6 266.7,308.3 268.8,308.3 C270.9,308.3 272.6,306.6 272.6,304.5 C272.6,302.3 270.9,300.7 268.8,300.7 L268.8,300.7 Z M268.8,302.3 C270,302.3 270.9,303.3 270.9,304.4 C270.9,305.6 270,306.5 268.8,306.5 C267.6,306.5 266.7,305.6 266.7,304.4 C266.7,303.3 267.6,302.3 268.8,302.3 L268.8,302.3 Z M157.5,302.7 C159,302.8 161.5,302.6 162.1,304 C162.8,305.8 159.1,308.9 154.5,309.5 C152.6,309.6 148.6,310.1 147.7,308.7 C146.9,307 152.3,302.7 157.5,302.7 L157.5,302.7 Z M64.6,303.7 C68.6,303.5 73,308.8 69,313.1 C65.8,316.4 59.2,320.9 59.2,320.9 L59.2,318 C59.2,318 65.6,313.3 65.7,311.2 C65.7,308.7 63.7,307.4 61.4,308.8 C61,309.1 59.2,310.5 59.2,310.5 L59.3,305.6 C60.6,304.5 62.7,303.8 64.6,303.7 L64.6,303.7 Z M165.6,305 C168.5,305.1 175.3,315.6 173.6,317.7 C172.2,319.4 166.7,315.6 164.6,311.6 C163.5,309.4 163.8,305.5 165.2,305 C165.4,305 165.5,305 165.6,305 L165.6,305 Z M210.9,306.2 C210.9,306.2 211.2,330.6 209.8,332.9 C204.3,342.8 192.4,337.7 191.4,330.2 C190.7,325.7 191.1,306.2 191.1,306.2 L210.9,306.2 Z M212.6,306.2 L231.6,306.2 C231.6,306.2 231.5,340.5 230.8,342.5 C230.2,344.1 227.4,346.9 225.7,347.6 C220.1,350 214.2,346.6 212.7,340.1 C211.6,335.4 212.6,306.2 212.6,306.2 L212.6,306.2 Z M233.2,306.2 L245.8,306.2 C245.8,306.2 246.2,308 246.7,309.5 C247.6,312.1 250.5,319.6 250.9,320.1 C252.4,322.1 252.5,344.6 251,347.2 C245.4,355.5 236.2,353.1 232.8,343.9 C231.9,340.9 233.2,306.2 233.2,306.2 L233.2,306.2 Z M247.8,307.1 C270.4,317.8 287.7,340.6 285.5,369.7 L281.4,365.6 C282.9,345.5 267.6,320.3 249.7,312.8 L247.8,307.1 Z M278.9,307.8 C282.2,307.8 284.8,310.5 284.8,313.7 C284.8,317 282.1,319.6 278.9,319.6 C275.6,319.6 273,316.9 273,313.7 C273,310.4 275.7,307.8 278.9,307.8 L278.9,307.8 Z M301.2,308.4 C303.4,308.4 306.1,309.2 308.1,310.9 C310.5,312.9 310.9,314.5 309,315 C305.4,316.1 301,315 298.3,312.4 C295.8,309.8 298,308.3 301.2,308.4 L301.2,308.4 Z M278.9,309.9 C276.8,309.9 275.1,311.6 275.1,313.7 C275.1,315.8 276.8,317.5 278.9,317.5 C281,317.5 282.7,315.8 282.7,313.7 C282.7,311.6 281,309.9 278.9,309.9 L278.9,309.9 Z M160,310.4 C163.2,310.4 164.6,314.9 162.2,317.1 C161.2,318 158.5,318.2 157.3,317.5 C154,315.4 155.9,310.4 160,310.4 L160,310.4 Z M201.9,311.5 C200.8,314.5 199.2,317.9 197.8,320.2 C194.1,326.4 194.6,330.6 198.5,332.7 C204.3,335.8 208.5,327.5 202.8,324.2 C200.8,323.1 200.8,323 201.5,319.9 C202.3,316.2 202.5,311.6 201.9,311.5 L201.9,311.5 Z M278.9,311.6 C280.1,311.6 281,312.5 281,313.7 C281,314.9 280.1,315.8 278.9,315.8 C277.7,315.8 276.8,314.8 276.8,313.7 C276.8,312.5 277.8,311.6 278.9,311.6 L278.9,311.6 Z M222.2,312.8 C221.9,312.8 222.1,314.3 222.1,317.1 C222.1,321.5 221.7,322.9 218.9,328.9 C215.3,336.5 215.8,341.7 220.2,343.4 C223.7,344.7 227.1,342 227.1,338 C227.1,336.1 226.2,334.5 224.9,334.1 C223.7,334 222.4,333.5 222.5,332.9 C223.2,328.3 227.2,319.7 222.2,312.8 L222.2,312.8 Z M297.2,313.4 C300.1,315.3 303.1,317 307.5,317.2 C305.6,321.7 305.8,324.9 305.5,328.5 C303.6,323.7 300.8,318.4 297.2,313.4 L297.2,313.4 Z M73.3,314.1 C73.5,314.1 73.8,314.1 74,314.1 C76.8,314.5 79.2,318.1 78.4,320.8 C77.7,323.1 77.5,323.5 68.5,329.6 C63.5,332.9 63,333.1 63,333.1 L60.3,331.3 C60.3,331.3 62.6,329.8 66.2,327.4 C73.1,322.7 74.2,321.6 73.4,319.6 C72.6,317.3 70,317.8 65.9,321 C59.8,325.7 59.2,326 59.2,326 L59.2,323.2 C59.2,323.2 61.9,321.1 63,320.1 C65.8,318 69.7,314.2 73.3,314.1 L73.3,314.1 Z M252.7,315.3 C253.4,315.3 253.9,315.9 253.7,316.5 C253.6,316.8 253.2,317 252.7,317 C251.6,317 251.6,315.4 252.6,315.3 C252.6,315.3 252.6,315.3 252.7,315.3 L252.7,315.3 Z M313.6,318.6 C314.9,323 312.1,330.3 310.4,331.3 C308.6,333.1 307.5,331.4 307.1,326.8 C307.1,323 311.4,311.3 313.6,318.6 L313.6,318.6 Z M241.4,316.1 C242,322.4 242.2,327.7 239.2,332.8 C235.4,339.5 236.3,345.2 240.5,346.5 C244.6,347.7 248.2,344.8 247.5,340.8 C247.3,339.6 245.6,337.6 244.6,337.3 C243.3,337 243.2,336.2 243.9,333.7 C245.3,328.8 244.8,322.7 242.7,318.2 C242.4,317.6 241.7,316.1 241.4,316.1 L241.4,316.1 Z M255.2,318.2 C258.7,318.2 260.3,322.7 257.7,325.1 C256.3,326.4 255.3,325.8 253.8,322.6 C252.4,319.6 252.8,318.2 255.2,318.2 L255.2,318.2 Z M287.4,319.1 C290.7,319.1 293.3,321.8 293.3,325 C293.3,328.3 290.6,330.9 287.4,330.9 C284.2,330.9 281.5,328.2 281.5,325 C281.5,321.8 284.1,319.1 287.4,319.1 L287.4,319.1 Z M287.4,321.3 C285.3,321.3 283.6,323 283.6,325.1 C283.6,327.2 285.3,328.9 287.4,328.9 C289.5,328.9 291.2,327.2 291.2,325.1 C291.2,323 289.5,321.3 287.4,321.3 L287.4,321.3 Z M287.4,323 C288.6,323 289.5,323.9 289.5,325.1 C289.5,326.3 288.6,327.2 287.4,327.2 C286.2,327.2 285.3,326.2 285.3,325.1 C285.3,323.9 286.3,323 287.4,323 L287.4,323 Z M261.9,324.5 C262.4,324.5 262.9,324.6 263.3,324.8 C266.4,326.3 266.1,330.7 262.6,333.2 C260.4,334.8 259.5,334.3 257.4,330 C256.4,327.8 259.3,324.6 261.9,324.5 L261.9,324.5 Z M80.3,325 C80.6,325 80.9,325.1 81.2,325.1 C84.4,326 86.5,329.8 85.7,332.6 C83.9,337 77.9,338.5 73.3,340.4 L70.9,338.7 C70.9,338.7 74.3,336.8 77.5,335.3 C80.6,333.9 81,333.3 80.8,331.6 C80.4,328.1 78.7,328.3 71.1,332.3 C68,334 65.7,335.4 65.7,335.4 L64,334 C66.5,332.3 68,331.4 70.8,329.6 C75.4,326.5 78,325.1 79.9,325 C80.1,325 80.2,325 80.3,325 L80.3,325 Z M321.6,327.6 C322.7,331 320.4,333.9 317.1,332.6 C315.3,331.9 314,329.5 315.1,327.3 C316.5,324.9 320.8,325.3 321.6,327.6 L321.6,327.6 Z M253.5,326.4 L258.8,336 C258.8,336 258.9,338.7 258.9,340.2 C259.1,346.4 260.4,348.5 264.1,347.9 C264.4,347.9 265.7,347.5 265.7,347.5 L268,351.4 C268,351.4 265.5,352.5 264.8,352.6 C260.5,353.5 254.6,350.3 253.6,345.9 C252.8,341.8 253.5,326.4 253.5,326.4 L253.5,326.4 Z M78.4,330.4 C80,330.5 79.3,331.7 78.6,332.2 C75.5,333.8 72.5,335.5 69.2,337.4 L67,336 C67,336 68.7,335.1 69.9,334.3 C73.5,332.1 77.1,330.4 78.4,330.4 L78.4,330.4 Z M293.2,331.6 C296.5,331.6 299.1,334.3 299.1,337.5 C299.1,340.8 296.4,343.4 293.2,343.4 C289.9,343.4 287.3,340.7 287.3,337.5 C287.2,334.3 289.9,331.6 293.2,331.6 L293.2,331.6 Z M268,332.4 C269.4,332.4 270.5,332.9 271.2,334.2 C272.8,336.8 271.1,340.1 267.3,341.8 C265.1,342.8 264.8,342.6 262.5,339.2 C261,336.9 261,336.5 262.7,335 C264.6,333.3 266.5,332.5 268,332.4 L268,332.4 Z M59.3,332.9 L144.5,388 L142.1,392.1 L59.5,338 L59.3,332.9 Z M312.4,333.6 C317.6,333.7 324.3,339.7 321.9,342.1 C321.6,342.3 321.2,342.5 320.8,342.5 C313.4,342.1 305.3,333.5 312.4,333.6 L312.4,333.6 Z M293.2,333.8 C291.1,333.8 289.4,335.5 289.4,337.6 C289.4,339.7 291.1,341.4 293.2,341.4 C295.3,341.4 297,339.7 297,337.6 C297,335.5 295.3,333.8 293.2,333.8 L293.2,333.8 Z M179.4,334.8 L181.7,340.7 L139.3,408.2 L135.1,405.5 L179.4,334.8 Z M293.2,335.4 C294.4,335.4 295.3,336.3 295.3,337.5 C295.3,338.7 294.3,339.6 293.2,339.6 C292,339.6 291.1,338.6 291.1,337.5 C291.1,336.4 292,335.4 293.2,335.4 L293.2,335.4 Z M308.7,336.1 C310.8,340 314.2,342.3 318.2,344 C314.5,347.1 312.6,351 312.8,355.2 C311.8,349 311,342.8 308.7,336.1 L308.7,336.1 Z M84.7,338.2 C85.6,338.2 86.4,338.4 87.1,338.8 C95,344.3 87.7,349.6 87.1,349.2 L84.4,347.5 C85.3,346 87.4,343.9 84,341.9 C82.1,341.1 79.9,342.1 78.1,343.4 L75.3,341.5 C75.2,341.4 80.7,338.1 84.7,338.2 L84.7,338.2 Z M272,341.2 C272.3,341.2 272.6,341.2 272.9,341.3 C277.4,342.2 277.1,346.9 272.4,349.1 C269.7,350.4 269.3,350.1 266.9,346.1 C265.8,344.3 269.1,341.3 272,341.2 L272,341.2 Z M83.2,343 C83.7,343 84.3,343.4 84.4,343.8 C84.6,345.1 82.3,346.3 82.3,346.3 L79.6,344.5 C80.8,343.9 82,343.1 83.2,343 L83.2,343 Z M322.1,344.1 C322.7,344 323.2,344.4 323.4,345.1 C324.3,348.8 320.2,355.7 316.4,356.8 C314.2,357.5 313.5,356.4 314.3,353.4 C315.3,349.1 319.8,344.3 322.1,344.1 L322.1,344.1 Z M184.7,344.4 L191.6,349.4 L150.2,414.8 L143,410.5 L184.7,344.4 Z M297.4,344.9 C300.7,344.9 303.3,347.6 303.3,350.8 C303.3,354.1 300.6,356.7 297.4,356.7 C294.1,356.7 291.5,354 291.5,350.8 C291.4,347.6 294.1,344.9 297.4,344.9 L297.4,344.9 Z M297.4,347.1 C295.3,347.1 293.6,348.8 293.6,350.9 C293.6,353 295.3,354.7 297.4,354.7 C299.5,354.7 301.2,353 301.2,350.9 C301.1,348.8 299.4,347.1 297.4,347.1 L297.4,347.1 Z M297.4,348.8 C298.6,348.8 299.5,349.7 299.5,350.9 C299.5,352.1 298.6,353 297.4,353 C296.2,353 295.3,352 295.3,350.9 C295.2,349.7 296.2,348.8 297.4,348.8 L297.4,348.8 Z M202.3,349 C206.8,354.1 211.8,365.4 229.4,360 C235.4,364.9 243.7,367.7 253.9,362.2 L254,392.7 L175.8,392.8 L202.3,349 Z M59.4,349.8 L136.4,400.5 L134,404.7 L59.4,357 L59.4,349.8 Z M275.6,349.8 C275.7,349.8 275.7,349.8 275.8,349.8 C279.7,350.8 280.2,354.7 276.5,356.2 C274.5,357 274.1,356.8 272.3,354.1 C271.6,353 271.1,352.1 271.2,351.8 C271.5,351.1 274.5,349.8 275.6,349.8 L275.6,349.8 Z M325.1,354 C326.5,354 327.8,354.7 328.5,356.2 C329.5,358.4 328.9,360.2 326.9,361.4 C323.6,363.4 319.9,359.7 321.6,356.2 C322.3,354.7 323.7,354 325.1,354 L325.1,354 Z M276.8,358.1 C278.6,358.1 280.1,359.8 279.3,360.9 C278.7,361.6 278,361.4 277,360.3 C275.9,359 275.8,358.1 276.8,358.1 L276.8,358.1 Z M298.9,358.9 C302.2,358.9 304.8,361.6 304.8,364.8 C304.8,368.1 302.1,370.7 298.9,370.7 C295.6,370.7 293,368 293,364.8 C293,361.5 295.6,358.9 298.9,358.9 L298.9,358.9 Z M315.7,359.2 C320.2,359.2 326.4,366.7 325.3,370.8 C325,372.1 322.4,371.4 319.5,369.1 C315.4,366 312.8,359.2 315.7,359.2 L315.7,359.2 Z M298.9,361 C296.8,361 295.1,362.7 295.1,364.8 C295.1,366.9 296.8,368.6 298.9,368.6 C301,368.6 302.7,366.9 302.7,364.8 C302.7,362.7 301,361 298.9,361 L298.9,361 Z M313.3,361.8 C314.5,365.4 315.8,369.2 321.4,371.8 C312.7,375.8 311.1,382.6 312.4,391.4 L310.4,390.2 C312.2,382.3 313.6,373.4 313.3,361.8 L313.3,361.8 Z M298.9,362.7 C300.1,362.7 301,363.6 301,364.8 C301,366 300.1,366.9 298.9,366.9 C297.7,366.9 296.8,366 296.8,364.8 C296.8,363.6 297.8,362.7 298.9,362.7 L298.9,362.7 Z M297.8,372.2 C301.1,372.2 303.7,374.9 303.7,378.1 C303.7,380.2 302.6,382 301,383.1 L299.1,381.7 C300.5,381.2 301.5,379.8 301.5,378.2 C301.5,376.1 299.8,374.4 297.7,374.4 C295.7,374.4 294.1,375.9 293.9,377.9 L292,376.5 C292.9,374 295.1,372.2 297.8,372.2 L297.8,372.2 Z M324.9,373 C327.7,373 323.3,380.9 319.3,383 C316.2,384.6 313.4,384.8 313.4,383.3 C313.4,379.4 320.6,373 324.9,373 L324.9,373 Z M297.8,376 C299,376 299.9,377 299.9,378.1 C299.9,379.3 299,380.2 297.8,380.2 C296.6,380.1 295.7,379.2 295.7,378.1 C295.7,377 296.6,376 297.8,376 L297.8,376 Z M324,383.2 C325.4,383.2 326.8,383.8 327.4,385 C328.2,386.5 327.9,387.9 326.5,389.3 C323.1,392.7 318.4,389.2 320.7,384.9 C321.2,383.7 322.6,383.2 324,383.2 L324,383.2 Z M313,386.4 C317.8,386.6 321.4,392.5 320.5,395.8 C319.8,396.7 314.5,392.7 313.9,392.3 C313.3,391.1 313.3,389.2 313,386.4 L313,386.4 Z M306.5,390.1 L321.4,399.1 L306.5,408.7 L306.5,390.1 Z M173.6,394.5 L253.8,394.8 L253.8,398.2 L171.4,398.2 L173.6,394.5 Z M170.4,399.8 L175.8,399.8 L175.8,406.4 L168.4,406.4 L168.4,402.8 L170.4,399.8 Z M247.4,399.9 L253.9,399.9 L253.9,406.5 L247.4,406.5 L247.4,399.9 Z M183.8,400 L191.2,400 L191.2,406.6 L183.8,406.6 L183.8,400 Z M199.1,400 L207.1,400 L207.1,406.6 L199.1,406.6 L199.1,400 Z M215.4,400 L223.1,400 L223.1,406.6 L215.4,406.6 L215.4,400 Z M231.8,400.1 L239.1,400.1 L239.1,406.7 L231.8,406.7 L231.8,400.1 Z M165.1,408.2 L254,408.4 L254,412.3 L162.5,412.1 L165.1,408.2 Z M240.9,416.5 C250,416.4 255.2,426.5 248.2,433.6 C241.7,440.1 230.9,431.8 236.3,424.4 C239.3,420.3 246.8,423.6 244.9,428 C243.7,430.9 239.7,429.5 239.8,426.4 C239.8,425.2 238.9,426 238.8,427.3 C238.7,429 240.4,430.8 242.4,430.9 C247.7,430.9 248.4,423.9 243.4,421.4 C238.9,419.1 234.1,422 233,427.8 C232.9,428.4 232.1,430 231.6,431.1 C229.9,434.5 229.4,436.4 228.5,440.2 C228.1,440.7 226.9,441.4 226.1,441.9 C223.5,443.2 223.6,442.6 224.6,438.5 C227.4,426.4 231.9,418.6 237.5,417 C238.6,416.7 239.8,416.5 240.9,416.5 L240.9,416.5 Z M267.7,417.1 C273.3,417 277.5,421.6 278.2,425.1 C281.4,435.9 267,442.6 262,432.7 C259.2,427.1 265,420.4 270.3,423 C274.7,425.1 274.4,431.8 269.9,431.8 C267.5,431.9 266,429.7 267.4,428 C268.1,427.3 268.9,427.9 269.3,426.7 C269.4,426.2 268.8,425.8 267.1,426.2 C264.4,426.8 264.6,432.2 267.8,433.3 C272.5,434.9 276.5,430 274.3,425.1 C271.6,419.2 264.3,419.2 261,425.3 C260.5,426.2 259.8,427.5 259.3,428 C254.3,434.8 253.9,435.8 252.4,439.5 C252.3,439.9 252,440.2 251.5,440.1 C250.1,440.1 248.8,440.4 247.9,440.8 C247.3,440.6 248.1,438.3 248.2,438.1 C251.7,427.8 260.4,417.4 267.7,417.1 L267.7,417.1 Z M224.4,420.1 C223.2,422.2 219.7,428.8 217.2,438.7 C216.6,438.3 214.8,437.6 213.6,437.1 C213.1,436.9 213.5,436.4 213.5,435.5 C214.4,431 217.3,423.3 220.4,419.3 C221,418.9 225.4,418.7 224.4,420.1 L224.4,420.1 Z M229.5,422.1 C226.5,426 223.3,436.3 222.6,441.6 C222.5,442.4 222.4,443.3 222.3,443.6 C221.8,445.2 218.9,441.8 218.9,439.7 C218.9,436.1 222.9,425.2 225.7,421 C226.7,419.5 226.8,419.3 228.9,419.2 C232.3,419 230.8,420.4 229.5,422.1 L229.5,422.1 Z M81,419.5 C80.3,419.5 79.5,419.6 78.8,419.8 C74.4,420.9 69.2,425.5 68.7,430.5 C68.5,430.7 67.9,434.1 68.2,435.9 C69.7,442.5 73.5,447 78.3,453.6 C78.3,453.6 72.4,462.8 68.3,467.1 L78,481.1 C75.3,486.4 70.7,490.4 69.5,496.9 C67.7,505.5 72.2,513.8 81.7,514.6 C88.8,514.8 93.5,510 94.4,502.7 C94.8,497.9 92.8,491.8 85.6,482.2 C85.2,481.7 84.5,480.7 84.5,480.7 C84.5,480.7 85.3,479.7 85.7,479.1 C88.2,475.7 94.8,467.3 94.8,467.3 L85,453.4 C85,453.4 85.4,452.5 86.2,451.4 C94.2,440.4 95.7,434.9 94.3,429.4 C93.7,427.3 92.4,425.6 90.6,423.8 C87.6,420.8 84.2,419.4 81,419.5 L81,419.5 Z M80.7,420.8 C83.8,420.8 87.1,422 89.7,424.8 C95.7,431.1 95.2,436.5 87.4,448.1 C85.7,450.7 84,453.5 84,453.5 L93.9,467.2 C93.9,467.2 92.3,469.6 90.6,471.5 C86.1,476.8 83.5,480.6 83.5,480.6 C85.2,483.2 88,486 89.7,489.2 C91.8,492.8 93.1,496.3 93.5,499.6 C94.3,506.5 89.8,513.8 82.2,514 C74.8,514 69.1,507.9 69.3,500.1 C69.4,496.6 70.8,493.4 72.5,490.3 C74.3,487.1 78.4,481 78.4,481 L68.8,467 L78.9,453.5 C78.9,453.5 71.5,444.5 69.3,438 C67.5,430.6 70.9,426.4 71.4,425.7 C73.8,422.6 77.2,420.9 80.7,420.8 L80.7,420.8 Z M294.2,421.6 C299.9,428.1 303,437.4 304.3,445.4 C304.8,448.7 304.9,454.3 304.5,454.9 C303.6,456.1 301.6,455.4 301.7,454 C302.7,442.7 290.6,434.7 280.1,439.6 C272,443.4 267.7,452.1 269.7,463 C273.5,483.5 290.7,498.5 302.3,519.1 C306.4,526.1 307.4,530 307.4,529.9 C307.4,529.9 308.9,525.8 312.4,520 C320.7,504.8 332,494.9 340.3,479.7 C344.2,472.5 346.7,465.5 347.100514,459.1 C347.2,444.2 332.7,433 321.3,440.8 C316.8,443.6 313,448.9 312.4,453.3 C312.1,455.2 311.8,455.7 311,455.7 C309.1,455.7 309,454.9 310.6,446.1 C313,437.3 315.8,429 320.9,421.6 L294.2,421.6 L294.2,421.6 Z M74.5,440.5 C76,444.3 78.4,447.2 81.1,449.9 C83.6,447 86.4,443.1 88,439.4 C95.3,421.6 66.7,420.2 74.5,440.5 L74.5,440.5 Z M80.9,448.1 C77.3,443.9 74.7,440.4 74.5,434.8 C74.1,423.8 88.5,425 87.8,434.9 C87,440.3 84.2,443.7 80.9,448.1 L80.9,448.1 Z M259.7,430.8 C260,432.4 261.5,435 261.4,435.6 C260.7,437.2 259.7,438 258.2,440.7 C257.9,441.3 258,441.4 257.2,441.2 C256.5,441.1 255.1,440.7 254.4,440.5 C254,440.4 253.5,440.2 253.7,439.7 C255.2,436.5 256.7,432.8 259.7,430.8 L259.7,430.8 Z M235.8,435.5 L234.1,439.9 C233.9,440.4 233.9,440.4 233.4,440.3 C232.4,440.2 231.6,440.1 230.6,440.2 C228.5,439.9 232.5,432.1 233.1,430.9 C234,431.1 235.3,434.4 235.8,435.5 L235.8,435.5 Z M237.4,436.5 C237.4,436.5 237.5,436.5 237.5,436.5 C238.4,436.6 239.6,437.1 240.6,437.5 C241.1,437.7 241.1,437.7 240.9,438.4 C240.4,439.4 239.8,442.2 239.2,443.1 C239.2,443.2 236.2,441.3 235.3,441 C235.3,440.5 236.3,436.7 237.4,436.5 L237.4,436.5 Z M262.7,437.1 C263.7,437.1 264.9,438 265.6,438.5 C265.9,439.1 265.6,439.7 264.5,441.6 C263.5,443.3 262.5,445.1 262.3,444.9 C261.6,444.3 260.2,443.6 259.5,442.6 C259,441.9 260,440.1 260.6,439.2 C261.6,437.7 262.1,437.2 262.7,437.1 L262.7,437.1 Z M246.6,436.8 C247.5,437 246.1,441.7 245.8,442.3 C244.9,443.6 243.6,445.3 242.5,446 C242,446.3 240.3,445.3 240.3,444.2 C240.3,443.4 241.9,439.2 242.5,438 C242.6,437.8 245.6,436.9 246.6,436.8 L246.6,436.8 Z M209.4,438.6 C209.6,438.6 209.8,438.6 210,438.6 C213.6,438.5 217.3,440.3 219.6,444.2 C220.7,446.1 220.7,446.1 220.5,447.9 C219.9,452 220.1,454.8 221.2,457.3 C222.4,460.2 222.2,461.1 219.2,467.5 C216.2,473.9 212.5,481.7 209.7,488.9 C208.5,492 207.3,495.5 206.6,498.4 C206.1,500.2 203.9,499.7 201.7,499.6 C200.6,499.8 203.3,492.3 207.4,483.3 C210.6,476.1 215,468 216.8,460 C218.2,453.4 217.8,450.7 217,448 C214,440 203.4,442 203.5,449.3 C203.7,454.1 209.3,456.6 211.3,452 C211.6,449.8 210.6,451.1 209.7,452.2 C207.8,454.4 204.5,451.9 205,448.6 C205.7,444.3 211.3,442.8 214,446.3 C217,450.1 216.3,454 212,456.9 C207.6,460.1 203.6,458.3 201.3,454.9 C196.7,447.2 203.1,438.8 209.4,438.6 L209.4,438.6 Z M231.3,441.8 C235.7,441.9 240.5,445.6 241.2,448.5 C241.6,450.5 241,452.8 241.7,454.7 C242.3,456.2 242.9,457.1 242.4,458.5 C238.8,470.1 230.3,482.5 226,496.3 C225.5,497.3 225.1,497.4 224,497.7 C222.3,498.2 221.7,498.1 221.5,497.3 C221.3,496.5 221.9,494.9 222.9,491.9 C224.1,488.3 226.7,482.2 228.2,479.3 C231.8,472.6 233.8,468 236.3,462.3 C236.8,461.2 236.9,460.6 237.7,459.1 C241,452.5 237.3,446 230.5,445.9 C225.1,445.9 222.7,454.3 227.4,456.7 C232,459.1 235.4,452.8 231.3,450.6 C230.3,450.1 230.1,450.6 230.9,451.5 C232.7,453.7 231.1,456.6 228.6,455.4 C224.7,453.6 226.7,446.9 231.3,447.3 C238.3,447.9 239.3,458.1 232.1,460.7 C222.2,464.3 217,448.4 226.3,443 C227.9,442.2 229.6,441.8 231.3,441.8 L231.3,441.8 Z M252.1,442.1 C254.7,442 257.4,443 259.7,445.1 C265.2,450.4 263.8,458.6 254.4,474.4 C251.3,479.7 248.4,486.1 246.7,490.7 C246.3,491.9 246,492.5 245,493 C243.4,493.9 241.5,494 241.3,493.4 C240.7,491.8 245.3,481.8 253.5,466.1 C255.7,461.9 258.4,457.1 258.3,452.1 C257.8,448.1 254.5,445.3 250.1,446.6 C247.1,447.5 245.9,451.7 248.1,453.8 C249,454.7 250.1,455.1 250.9,455.1 C252.3,455.1 253.8,453.8 251.2,453.6 C248.4,453.6 247.5,450.1 249.8,448.5 C253.2,446.2 257.1,448.9 256.8,453.3 C256.2,462.2 243.2,460.9 242.9,451.7 C242.7,446 247.2,442.3 252.1,442.1 L252.1,442.1 Z M381.2,446 C384.4,448.3 386.8,452.5 387.3,456.4 C387.5,457.6 387.6,458.9 387.1,459.2 C386.5,459.5 386,459 384.6,457.3 C381.5,453.2 375.3,454.9 373.2,460.6 C371.2,466 373.3,472.1 381.6,484.1 C384.6,488.6 387.2,492.3 389.7,496.6 C391.5,492.2 394.4,487.6 397,483.7 C406.5,469.3 408.2,461.8 403.1,457 C399.8,454 394.5,453.9 392.7,457.8 C391.5,459.4 390.8,460.2 390.3,459.2 C390.1,458.8 390.1,457.5 390.2,456.6 C391.1,452 392.6,449 395.9,446 L381.2,446 Z M215.3,456.4 C217.3,456.2 213.9,466.8 208,478.7 C204.8,485.3 202.3,492.4 199.8,499.3 C199.1,500.2 195,500.4 195.1,499.4 C202.3,476.2 207.4,472.2 209.9,463.4 C210.3,461.9 210.6,459.7 210.7,459.5 C212.5,459 214.1,456.8 215.3,456.4 L215.3,456.4 Z M81.4,458 L73.7,468 L81.2,478.6 L89,468.5 L81.4,458 Z M247.4,461.1 C247.4,462.3 245.1,468.1 243.4,471.5 C235.9,486.6 234,490.7 232.7,494.8 C232.5,495.5 232.1,496 231.6,496.2 C230.7,496.6 228.1,497 227.8,496.7 C229.4,487.9 241.5,467.7 243.9,458.9 C244.9,458.8 247.3,460.2 247.4,461.1 L247.4,461.1 Z M253.4,460.1 C253.9,460.1 254.1,460.3 254,461 C253.8,462.1 252.5,464.7 250.2,469.2 C243.9,481.6 240.6,489 239.5,492.8 C239.3,493.7 239.1,494.4 238.7,494.6 C237.8,495.1 234.8,496.3 234.6,495 C235.5,489.4 239.3,485.7 248.8,462.3 C249.2,461.5 249.6,461.2 250.1,461.1 C251.2,460.8 252.2,460.2 253.4,460.1 L253.4,460.1 Z M227.4,464 C227.2,465.5 225.5,468.5 222.8,474.1 C218.2,483.4 215.3,490.3 213.5,496.5 C213.2,497.5 212.8,498.6 212.4,498.8 C211.7,499.3 208.3,499.2 208.3,499.2 C207.8,496.7 211.8,487.2 216.3,477.2 C218.7,471.8 221.5,466.4 223.4,461.5 C224.8,461.6 227.3,462.8 227.4,464 L227.4,464 Z M234.2,461.6 C235.5,461.6 234.5,463.9 231.3,470.3 C228.7,475.5 224.5,482.8 221.8,491.2 C221.1,493 220.3,495.3 220,496.3 C219.6,497.5 219.2,498.2 218.7,498.4 C217.7,498.9 215.4,498.9 214.9,498.4 C214.2,497.6 217.7,488.2 221.1,480.9 C224.1,474.8 226.2,469.9 228.8,464.3 C229.5,463.2 229.5,463.1 230.3,463 C231.8,462.8 233.4,461.8 234.2,461.6 L234.2,461.6 Z M81.5,462.8 L85.5,468.1 L80.9,473.9 L77,468.3 L81.5,462.8 Z M80.9,485.6 C80.9,485.6 79.2,487.5 77.5,490.6 C72.5,499 72.3,505.2 78.3,508.9 C80.8,510.2 84.1,509.9 86.2,508.1 C92.9,502.2 87.9,494.2 83.6,488.7 C82.4,487 80.9,485.6 80.9,485.6 L80.9,485.6 Z M81.2,487.7 C83.7,490.7 85.6,492.9 87.3,496.7 C89.2,501.7 88,505.7 84.2,507.5 C78.3,510.4 72.9,503.8 75.7,496.8 C77.8,491.6 81.2,487.7 81.2,487.7 L81.2,487.7 Z M247,497.7 C247.6,498.8 190.7,511.9 148.7,500.6 L123.2,537.6 L270.7,537.3 L247,497.7 Z M244.8,500.3 C244.8,500.3 258.5,524 265.2,535.6 L255.8,535.6 L242.3,506.8 C235.1,508.8 228,510.3 220.8,511.2 L225.6,535.7 L218.5,535.7 L214.5,512.3 C204.2,513.1 193.6,513.4 182.9,513.1 L178.3,535.7 L170.9,535.7 L175.6,513.3 C167.5,512.2 159.3,511.2 151,509.8 L137.1,535.7 L126.6,535.7 L148.4,503.1 C181.1,509.6 211.1,508.1 244.8,500.3 L244.8,500.3 Z M392.1,505.7 C385.7,505.7 378.9,509.2 376.9,516.6 C376.2,519 376.2,519 376.2,540 C376.2,557.4 376,561.6 376,561.6 L370.1,561.6 L370.1,568.5 L389.4,568.5 L389.4,561.6 L383,561.6 C383,561.6 382.9,540 382.9,526.4 C382.6,522.9 383,519.8 383.9,517.6 C387.3,509.7 399.4,511.4 400.8,518.2 C401.7,522.2 401.2,523.3 401.2,526.7 L407.9,526.7 C407.9,526.7 408.1,520.6 407.4,517.1 C406.5,509.2 399.7,505.7 392.6,505.9 C392.5,505.7 392.3,505.7 392.1,505.7 L392.1,505.7 Z M239.7,513 L250.4,535.6 L230.2,535.6 L226.5,515.4 L239.7,513 Z M153,514.7 L170.7,517 L166.1,535.7 L142.2,535.7 L153,514.7 Z M210.8,517.4 L213.2,535.6 L182.7,535.6 L186.1,517.8 L210.8,517.4 Z" id="Shape" fill="#000000" fill-rule="nonzero"></path>
        </g>
    </g>
</svg>