<?xml version="1.0" encoding="UTF-8"?>
<svg width="424px" height="591px" viewBox="0 0 424 591" version="1.1" xmlns="http://www.w3.org/2000/svg" xmlns:xlink="http://www.w3.org/1999/xlink">
    <!-- Generator: Sketch 61.2 (89653) - https://sketch.com -->
    <title>12C</title>
    <desc>Created with Sketch.</desc>
    <g id="Page-1" stroke="none" stroke-width="1" fill="none" fill-rule="evenodd">
        <g id="12C" transform="translate(1.000000, 1.000000)">
            <path d="M20.4,0.3 L401.8,0.3 C412.9,0.3 421.9,9.3 421.9,20.4 L421.9,569.1 C421.9,580.2 412.9,589.2 401.8,589.2 L20.4,589.2 C9.3,589.2 0.3,580.2 0.3,569.1 L0.3,20.4 C0.3,9.3 9.3,0.3 20.4,0.3 L20.4,0.3 Z" id="Path" fill="#FFFFFF" fill-rule="nonzero"></path>
            <path d="M20.4,0.3 L401.8,0.3 C412.9,0.3 421.9,9.3 421.9,20.4 L421.9,569.1 C421.9,580.2 412.9,589.2 401.8,589.2 L20.4,589.2 C9.3,589.2 0.3,580.2 0.3,569.1 L0.3,20.4 C0.3,9.3 9.3,0.3 20.4,0.3 L20.4,0.3 Z" id="Path" stroke="#000000" stroke-width="0.7974"></path>
            <path d="M225.6,534 C226.6,519 225.7,503 226.4,490.8 C225.9,489.9 227.6,487.6 227.7,487.6 C226.7,485.8 226.4,481.1 227.6,477 C237.4,439.7 255.2,410.6 273.4,383.5 C288.3,428.3 241.6,459.7 231.8,498.8 C228.5,512.4 229,521.8 227.8,534.1 L225.6,534 Z M147.9,534.6 L92.4,448.8 L104.5,442.9 L161.6,534.3 L147.9,534.6 Z M219.8,375.6 C220.3,378.1 222.2,379.4 224.3,378.3 C226.3,377.2 226.5,377.1 225.3,379.1 C222.5,383.4 228.1,387.5 231.7,383.9 C233,382.6 233.2,380.5 232,379.4 C230.7,378.2 230.4,377.5 232.3,378.5 C237.2,380.5 239.8,373.4 235.1,371.1 C233.9,370.5 231.5,371 230.6,372 C229.5,373.1 229.4,372.7 229.7,371.9 C229.9,371.4 230,370.5 230.4,369.5 C230.7,368.7 230.9,367.7 230.9,367.7 L225.9,367.8 C225.9,367.8 226.3,368.9 226.7,369.9 C227.1,370.8 227.2,371.5 227.4,371.9 C228.1,373.2 227.3,372.7 225.9,371.7 C224,370.3 221.6,370.7 220.3,372.5 C220,373.4 219.6,374.5 219.8,375.6 L219.8,375.6 Z M226.9,305.8 L237.6,305.5 L249.3,337.9 C239.9,353.5 237.4,371.1 248.3,388.9 L214.4,389 C222.4,362.1 223.7,333.6 226.9,305.8 L226.9,305.8 Z M238.1,348 C239.5,346.7 239.7,344.4 238.4,342.8 C236.8,340.9 237.1,340.8 239.3,342 C242.5,343.8 245.5,339.9 243.6,336.4 C242.4,334.2 238.6,333.7 237.1,335.7 C235.9,337.4 236,335.8 237,333.6 C237.4,332.8 237.8,331.3 237.8,331.3 L232.6,331.4 C232.6,331.4 233.3,332.9 233.6,333.8 C234.5,336.3 234.6,337.1 233.1,335.5 C229.9,332.8 226.2,334.8 226.2,338.6 C226.2,341.5 228.9,343.4 231.2,342 C232.6,341.2 233.2,341 231.7,342.9 C230.6,344.7 231,347 232.4,348.1 C234.6,349.3 236.7,349.3 238.1,348 L238.1,348 Z M166.6,358.1 C167,357.8 167.2,358 166.9,358.4 C166.7,358.8 166.1,359.3 165.7,359.8 C163.3,362.5 166.4,365.9 170.3,365.4 C173,365 174.5,360.9 172.5,359.2 C171.9,358.8 171.4,358.7 170.9,358.1 C170.9,357.9 171,357.7 171.2,357.8 C171.5,357.9 172.3,358.5 172.6,358.6 C175.1,359.3 176.9,358.2 177.5,356.5 C177.9,354.5 177.5,352.3 175.9,351.2 C174.4,350.2 172.1,350.5 170.8,352.2 C169.5,354 169.3,352.3 170.4,349.8 C170.8,348.9 171.1,347.6 171.1,347.6 L166.4,347.9 C166.4,347.9 166.7,348.9 167.1,350.1 C168.2,352.8 168.9,353.6 167.6,352.2 C161.8,348.8 159.9,353.4 159.8,355.3 C159.5,358.7 164.5,360.7 166.6,358.1 L166.6,358.1 Z M189.9,305.6 L198.5,305.6 C192,340 178.8,368.8 156.5,388.6 L114.5,388.5 L94.3,374.4 L102.1,364.3 C155.3,369.7 178,343.3 189.9,305.6 L189.9,305.6 Z M151.2,385.3 C153.7,384.2 154.8,381.4 153.1,379.4 C151.6,377.7 151.4,377.1 153.8,378.5 C156.9,380.3 159.9,376.7 158.4,373.2 C157.5,371 154.5,370.3 152.3,371.8 C150.4,373.2 150.5,372.6 151.4,370.4 C151.9,369.3 152.3,367.6 152.3,367.6 L147,367.7 C147,367.7 147.4,368.9 147.8,369.8 C148.7,371.8 149,372.7 148.6,372.7 C148.4,372.7 147.8,372.1 147.4,371.8 C146.4,370.8 143.5,370.7 142.4,371.7 C139.2,374.7 141,380 145,379 C147.6,378.4 148.2,377.4 146,379.8 C143.4,382.7 147.5,387 151.2,385.3 L151.2,385.3 Z M118,384.3 C120.2,383.3 120.9,380.8 119.7,379.1 C118.5,377.5 117.9,376.4 120,377.9 C122.9,379.4 125.4,377.4 125.4,374.1 C125.4,370.6 121.5,369 118.6,371.1 C118.1,371.5 117.5,371.8 117.4,371.8 C117.1,371.8 117.7,369.9 118.4,368.7 C118.7,368.2 119.2,367.1 119.2,367.1 L113.9,366.9 C113.9,366.9 114.2,368.3 114.6,369.4 C115.4,371.6 115.6,372.4 114.2,371.1 C110.2,367.4 106,372.1 107.7,376.2 C108.6,378.5 111.3,378.5 112.9,377.3 C114.3,376.2 113.6,377.7 112.6,378.8 C110,382.2 114,386.2 118,384.3 L118,384.3 Z M358.3,298 L358.6,304.4 L290.6,361.1 L287.8,356.7 L358.3,298 Z M105.4,309.9 C115.2,302.9 126.1,290.4 136.8,283.9 C144.7,302 126.3,319.7 105.4,309.9 L105.4,309.9 Z M285.1,305.4 C275.3,271.6 321.8,273.9 315.9,281 L285.1,305.4 Z M64.1,283.3 L131.4,228.4 L134.5,233 L63.5,291.2 L64.1,283.3 Z M248.4,227.9 C248.6,228.5 250.6,230.7 250.6,230.9 C250,230.5 246.6,228.5 244.9,230.4 C244.3,231.1 243.6,232.7 243.6,234.4 C244.3,237.5 247.8,238.5 250.3,236.4 C251,235.8 251.6,235.1 251.8,235.3 C251.9,235.5 251.5,236.6 251.2,237.4 C250.8,238.2 249.5,240 250.5,240 L255.3,240 C255.3,240 255.1,238.9 254.5,237.6 C253.4,235.3 253.5,234 254.8,235.7 C257.3,238.9 262.2,236.2 261.7,232.3 C261.3,229.5 258.5,227.9 256.4,229.2 C256.2,229.3 255.5,230 255.4,230 C255.1,230 255.8,228.9 256.3,228 C257.8,225 255.5,222.3 252,222.6 C250.9,222.7 249.6,223.4 249.6,223.5 C248.3,224.9 248,226.8 248.4,227.9 L248.4,227.9 Z M306.5,200.4 C313.2,206.6 320,211.1 326.7,215.1 L320.3,225.1 C277.2,221.1 245.9,238.1 232.9,284.3 L225.8,285.7 C228.5,256.9 238.1,228.4 266.6,200.5 L306.5,200.4 Z M265.3,207.3 C265.3,208.7 267.8,210.3 267.3,210.7 C267,210.8 265.5,209.5 264.9,209.5 C259.9,209 258.9,216.7 263.8,217.6 C264.8,217.8 266.8,217.2 267.4,216.7 C268.2,216.1 268.7,215.5 268.9,215.6 C269.2,215.7 268.5,217.1 268,218.1 C267.5,219.1 266.8,220.9 266.8,220.9 C268.8,221.2 270.7,221.3 272.5,220.9 C272.5,220.9 272,219.3 271.5,218.1 C270.9,216.5 270.7,215.5 271.2,215.6 C271.4,215.6 271.6,216.1 272,216.5 C274.4,218.6 278,217.7 279,214.4 C279.9,211.3 276.2,208.1 273.6,209.9 C272.7,210.5 272.7,210 273.6,208.7 C274.4,207.5 274.2,205.6 273.5,204.5 C270.5,201.5 265.1,203.5 265.3,207.3 L265.3,207.3 Z M305.8,216.5 C305.7,215.8 305.8,216 306.6,216.8 C308.9,219.2 312.8,218.8 313.8,215.7 C314.8,212.6 311.8,209 309.1,210.2 C307.7,210.8 307.7,210.6 308.5,209.6 C310.5,207 308.3,203.5 304.8,203.5 C301.6,203.5 299.8,206.6 301.3,209.2 C301.9,210.3 301.7,210.5 300.6,210 C297.4,208.4 294.3,213.6 296.7,216.6 C298.1,218.4 301.3,218.6 303.2,216.8 C304.2,215.9 304.2,216.3 303.5,218.3 C302.9,220 302.2,221.4 302.2,221.4 L307.8,221.4 C307.8,221.3 306.3,218.5 305.8,216.5 L305.8,216.5 Z M185.5,285.5 C185.5,285.5 177.2,262.3 174.3,251.2 C180.5,236.4 188.9,222 174.7,200.7 L209.3,200.6 C198.6,224.8 198.4,285.9 195.9,286.1 L185.5,285.5 Z M188.6,258.3 C188.6,258.3 186.9,255.9 186.8,254 C186.6,252.8 186.9,252.7 187.5,254 C190.6,257.4 194.7,254.1 194.8,251.1 C195.2,248.4 191.9,246 189.9,247.4 C188.5,248.4 188.1,248.1 189.3,246.3 C191.1,243.8 189.1,240.5 185.9,240.5 C181.7,240.5 180,244.5 183.1,247.3 C185.3,249.4 183.2,248.1 181.5,247.4 C178,246 175.7,249.5 177.3,253.1 C178.4,255.6 181.5,256.2 183.4,254.2 C184.4,253.1 185.3,252.5 184.8,254.1 C184.5,255.4 183,258.3 183,258.3 L188.6,258.3 Z M193.9,221.1 C193.9,221.1 191.9,218.5 191.5,216.6 C191.4,215.9 191.9,216.1 193,217.1 C196.7,220.3 201.8,214.6 198.4,211.1 C197.2,209.9 196,209.5 194.6,210.3 C192.9,211.2 193,210.8 193.9,209.8 C195.2,208.4 195.1,205.9 193.7,204.7 C189.9,201.3 183.9,206.3 187.4,210 C188.9,211.6 188.2,211.4 186.5,210.4 C183.3,208.5 179.8,213.7 182.2,216.8 C185,219.2 187.2,218 189.1,216.5 C189.5,216.3 189.9,216.2 189.9,216.4 C189.9,216.8 187.9,221.4 187.9,221.4 L193.9,221.1 Z M148.6,206.7 C146.5,206.6 145,186.9 147.6,180.6 C153.1,154.3 169.9,135.1 180.3,119 C197,95 195,55.1 195.7,56.7 L198,57 C198,57 196.2,80.4 197.2,90.9 C198.3,100.2 198.1,100.8 197.4,101.7 C197.2,102.6 197.5,105.1 197.3,106 C189.8,140.4 172.1,175.7 153.7,202.4 L148.6,206.7 Z M320.8,146.6 L264.3,57.4 L277.9,56.2 C282.9,64.2 332.1,140.4 332.1,140.4 L320.8,146.6 Z" id="Shape" fill="#D40000" fill-rule="nonzero"></path>
            <path d="M87.9,536.2 C94.3,512.6 76.9,457.8 66,450.6 C78.8,450.1 94.1,450.3 93.6,449.1 C93.6,449.1 147.9,534.5 147.5,535 C147.1,535.4 87.9,536.2 87.9,536.2 L87.9,536.2 Z M308,402.4 C294.8,400.5 300,389.6 308.5,388.5 C307.4,388.7 309.4,383.1 316.2,380.8 C317.7,378 319,373.2 320.4,371 C316.3,372.3 311.3,375.8 292.8,373.1 C294.4,364.3 312.2,362.8 318.6,364.2 C322.3,365.1 325.9,370.6 327.1,370.7 C338.5,368.8 353,379.1 348.6,389.6 C347.9,391.1 346.2,387.8 342.3,386.4 C329.9,381.9 329,375.2 326.2,372.2 C325.2,372 319.7,382.9 319.7,382.9 L321.4,390.3 C324.4,390 337.6,398.2 321.1,403.7 C316.6,419.2 308,408.2 308,402.4 L308,402.4 Z M339.2,332.3 C338.5,331.6 339.8,326.7 341.4,323.9 C342.3,322.4 344.4,321.4 345.6,321.6 C347.8,322 347.4,325.2 344.5,334.4 C344.5,335.7 341.5,335.9 339.2,332.3 L339.2,332.3 Z M77.1,267.4 C73.5,267.4 76.7,257.6 79,254.5 C79.7,253.5 82.6,255.6 82.8,257 C83,259.5 79.1,268.4 77.1,267.4 L77.1,267.4 Z M74.6,200.6 C79,201.7 86,206.1 89.3,208.5 C93.4,211.6 92.3,217.6 95.6,218.2 C97.8,217.1 101.9,207.2 101.9,207.2 C101.9,207.2 102.9,202.1 100,200.5 C92.8,196.6 92.9,192.4 93.3,192 C95.4,186.4 99.7,187.4 102,187.1 C102,184 101.9,177.6 108.3,178.3 C113.8,178.8 114.4,186.7 112,186.8 C112,186.7 122.4,185.3 122.3,192.2 C122.2,196 116,200.8 114.1,199 C114.1,199 115.1,206.5 105.7,209 C103.5,211.2 101.7,220.7 101.7,219.9 C107.4,214.8 116.2,213.6 130.2,215.4 C121.5,231.5 97.5,224 95.7,220.8 C83.8,217.3 72.5,212.5 74.6,200.6 L74.6,200.6 Z M177.9,162 C190.7,163.2 204.6,159.2 215.2,161.3 C216.4,161.5 217.7,163.3 218.4,163.7 C223.9,166.7 229.6,165.8 238.5,162.4 C240.7,161.6 281.1,161.9 281.1,161.9 C290.3,175.5 306.7,201.1 307.1,200.3 C307.1,200.3 284.7,200 274.3,200.7 C267,201.1 271.3,202.1 266.3,202.3 C230.9,228.9 224.2,286.3 224.2,286.3 C224.2,286.3 235.4,283.3 238.4,286.4 C252.3,245.7 278.7,227.2 315.5,230.8 C332.5,232.5 352.8,249.2 352.8,249.2 L316.4,278.8 C288.2,264.6 276.1,306.5 284.7,306.6 L358,246.7 C358,246.7 359.3,251.6 359.1,251.8 C353.9,258.7 266.5,329.6 266.5,329.6 L262.7,325.4 C262.7,325.4 260.3,327.5 259,329 C258.9,331.3 259.7,333.3 261.5,335.1 C244.2,349 243.6,374.5 256.4,388.4 C256.4,388.4 250.7,388.8 250.1,388.9 C242.9,390.1 235.5,354.7 249.7,338.2 C242.5,324.1 238.1,304.9 237.2,304 C237.4,306.3 225.8,305.5 225.8,305.5 C224.9,334.2 221.9,362.3 215,389.4 L268,390.5 L245.4,429.7 C245.4,429.7 220.1,429.1 209.1,428.3 C197.7,421.7 191.1,426.7 180.4,429.2 C165.2,429.6 142.8,428.9 142.8,429.2 C135.2,414.1 127,403 115.9,390.1 C114.5,387.7 161,389.2 161,389.2 C161,389.2 184.2,354.1 188.5,344.1 C191.8,336.3 199.2,308.1 199.2,308.1 C199.5,309.6 195,300.8 184.4,301 C175.6,359.4 106.2,379.1 64.5,341.5 L64.1,334.7 L156.1,260.1 L160.2,264.8 C159.3,264.1 103.7,310.4 104.6,310.1 C121.1,318.7 140.2,311.7 137.9,283.4 C151,274 162.5,263 173.9,251.7 C174.1,251.3 186.6,279.6 186.3,285.1 C193.5,282.7 197.7,287.7 197.6,286.9 C195,270.5 209.4,208.4 209.7,201.2 C201.7,200.6 191.2,200.9 174.6,200.2 C187.9,226 183.3,243.4 164.7,259.3 L160.8,254.4 C162.4,255.3 188,233.1 167.4,200 C166.5,200.1 156.5,199.1 156.5,199.1 C156.5,199.1 176.8,166.6 177.9,162 L177.9,162 Z M276.7,55.5 C276.7,55.5 334.8,54.1 334.8,55.8 C332.9,87 340.2,115.4 357.8,141.8 C357.8,141.8 332.1,140.9 332.6,141.2 L276.7,55.5 Z" id="Shape" fill="#E2CF00" fill-rule="nonzero"></path>
            <path d="M361.2,53.5 L59.3,53.1 L61.2,537.6 L362.7,537.6 L361.2,53.5 Z M333.6,55.4 C333.6,55.4 329.7,106.7 356.5,140.2 C340.2,137.7 330.8,140.2 321.3,146.9 L322.6,148.2 C335.7,140.1 346.8,142.3 358.2,143.5 L357.9,209.5 C357.8,212.7 344.6,211.3 336.2,205 C332.2,202.7 327.1,197.7 324.8,194 C324.1,192.9 323.4,191.8 323.2,191.5 C322.4,190.6 317.7,181.7 308.9,164.9 C304.5,156.4 298.6,144.7 293.8,135.6 C290.7,129.8 285,118.7 284.6,117.8 C283.8,116 277.5,103.7 275.1,99.3 C268.7,87.6 258.3,67.1 254.6,59.7 C253.8,57.8 252.5,56.9 254.8,57 C255.3,57 255.8,57 256.1,57.1 C256.5,57.3 257,56.4 257,56.4 L333.6,55.4 Z M64.8,332.8 L64.6,327.6 L152.3,255.3 L155.1,258.9 L64.8,332.8 Z M149.6,206.1 C149.2,206.2 148.9,206.4 148.4,206.5 C146.1,196.4 147.4,183 150.1,172.9 C154,158.9 161.2,147.7 169.2,136.4 C187.6,110.6 195.7,91.2 195.4,56.5 L198,56.8 C197.9,62.3 197.2,66.4 197,73.7 C196.7,81.5 196.8,87.4 197.6,95 C198,98.7 198.3,101.2 197.6,101.7 C197.3,101.9 197,103.2 197.3,103.7 C197.3,104.7 197.1,106.8 197.1,106.8 C193,127.4 170.4,180.3 149.6,206.1 L149.6,206.1 Z M160.5,253 L155.9,247.3 C155.9,247.3 152.3,244.4 155.5,241.2 C164.8,231.8 164.9,219.8 155.9,209 C155.3,207.6 158.7,200.7 158.7,200.7 L165.8,200.8 C176.8,214.2 179.8,237.9 160.5,253 L160.5,253 Z M167,199.7 C167.2,198.8 156.5,199.1 156.5,199.1 C163.1,189.2 168.8,179 174.3,168.8 C182.9,153.3 194.9,126.3 198.6,106.6 C201.4,129.6 205.4,163.6 225.1,165 C231.5,165.4 239,161 240.2,161.8 L281,161.5 C289.4,178.5 298.4,189.4 309,201 C316.7,205.4 326,208.8 335,211.1 C340.1,212.4 340.6,211.5 350.7,213 C353.4,213.4 357.4,212.3 357.4,212.3 C349.3,218.7 340,216.9 329.8,214.1 C329.2,213.9 328.6,213.8 328,213.6 L320.3,225.3 C303.1,221.2 247.7,224.1 233.1,284.3 C233.1,284.3 234.6,285.1 234.2,284.6 C245.8,232.4 294.7,221.9 318.1,227.1 L316.1,230.2 C277.4,225.5 245.8,249.7 238.3,284 L239,284.7 C253.5,232.8 314.6,213.6 352.5,249.6 L359.5,244.7 L359.3,251.4 L266.2,329.4 L262.5,325.5 C262.5,325.5 261.8,326 261.1,326.6 C258.7,328.6 257.7,329.1 258.4,330.2 C259.1,331.3 261.7,333.8 261.8,334.1 C246.4,346.7 241.5,371 256.1,387.9 C257.7,389.7 257.4,390.2 257.1,388.2 C243.9,373.9 245.6,348.5 262,336.5 L265.3,340.8 C258.1,356.7 254.2,381.4 273.2,383.5 C280,401.8 272.2,423.4 263.4,437.9 C254.1,454.6 242.9,468.5 235.9,486.7 C232.5,494.3 227.1,516.8 227.4,534 L225.4,534 C225.4,527 225.9,518.7 225.9,513.3 C226.2,487.4 226.1,488.9 226.7,488.2 C226.9,488 227.4,487.8 227.5,487.6 C227.6,487.3 227.1,486.8 226.9,486.2 C226.7,485.6 226.3,484.4 226.4,483.4 C226.4,482.4 227.3,481 227.2,480.7 C223.1,466.4 222.8,440.7 209.6,428.9 C203.1,423.4 194.5,423.1 183.4,427.7 C158.8,427.7 162.5,429 142.6,427.9 C134.4,412.9 124.4,398.3 113.7,387.4 C108.7,381.8 101.7,378.7 95.1,374.6 C97.7,369.6 100.7,365.9 104,363.6 C104.7,362.6 105.1,361.6 106,360.8 C172.9,367.2 187.4,302.5 184.3,304.1 L183.7,304.6 C165.4,371.3 100.3,368.9 67.6,340.1 C67.6,340.1 63,344.1 63,339.7 C63,335.7 64.4,334.5 64.4,334.5 L156.2,259.6 C157.9,260.7 159.7,264.2 160.4,263.8 C162.1,262.9 164.6,261.1 164.5,260 C164.4,259.2 161.1,254 161.1,254 C186,228.5 174.9,217.2 167,199.7 L167,199.7 Z M201.8,56.8 C202.2,56.8 202.7,57 203,57.5 C203.6,58.4 201.3,63.5 200,64.4 C198.7,65.3 198.6,64.3 199.5,59.3 C199.8,57.9 200.9,56.8 201.8,56.8 L201.8,56.8 Z M336.5,56.9 L357.8,56.9 L358,138.6 C342.1,116.2 334,90.5 336.5,56.9 L336.5,56.9 Z M207.5,57.1 C208,57.1 208.5,57.2 208.7,57.6 C209.2,59 206.1,64.9 202.3,69.9 C200.3,72.5 199.3,73.2 198.7,72.6 C198.2,71.4 198.2,70.1 200,68 C201.5,66.2 204.1,62.2 205.2,59.9 C205.6,58.4 206,57.2 207.5,57.1 L207.5,57.1 Z M229.4,57.4 C230,57.4 230.7,57.4 230.8,57.7 C234.5,65.3 241.5,72.1 248.7,75.8 C249.7,76.4 249.3,77.9 249.6,78.9 C241.6,77.7 231,66.3 228.2,58 C228.1,57.4 228.7,57.4 229.4,57.4 L229.4,57.4 Z M241.9,57.4 C243.5,59 246,61 246.6,62.8 C247,63.9 247.2,65.2 247,65.9 C245.6,66.8 238.7,58.7 238.9,57.8 C239.8,57.2 240.9,57.1 241.9,57.4 L241.9,57.4 Z M211.8,57.3 C212.5,57.3 213.5,57.3 213.7,57.8 C214.6,61.3 206.5,75 200.7,78.9 C198.6,80.3 198.5,79.9 198.7,77.6 C198.8,76 199,76.2 201.1,74.1 C204.1,71.2 207.5,66.7 209.3,62.7 C211.6,57.6 211,57.3 211.8,57.3 L211.8,57.3 Z M217.3,57.3 C218.1,57.3 218.8,57.6 219,57.9 C219.3,58.4 218.9,59.1 218.7,60 C216.1,67.5 209.5,78.2 201.8,84.3 C198.8,86.6 198.3,86.6 198.1,84.2 C198,82.8 198.6,82.4 200,81.4 C206.5,76.9 212.4,69 214.9,60.9 C215.4,59.3 215.2,57.9 216.1,57.5 C216.4,57.4 216.8,57.3 217.3,57.3 L217.3,57.3 Z M257.9,70.3 C258.2,70.8 260.5,74.3 258.6,73 C257.9,72.4 256.5,70.8 254.3,68.4 C249.2,62.6 249,62.9 249.1,61.5 C249.2,59.6 247.8,56.5 250.7,57.3 C253.6,60.6 255.4,66.1 257.9,70.3 L257.9,70.3 Z M234.4,57.4 C235,57.4 235.7,57.5 236.2,57.6 C239.6,64 247.9,69.6 247.8,69.5 C247.8,69.5 248,72.3 247.7,72.8 C247.5,73.7 234.6,63.8 233.1,57.9 C233.4,57.6 233.9,57.5 234.4,57.4 L234.4,57.4 Z M225.2,57.6 C228.2,63.2 234.5,75.9 249.3,81 C250.4,81.2 251.5,84.2 250.7,85.1 C242.6,82.7 227.9,74.8 222.9,57.7 C223.4,57.2 224.7,57.3 225.2,57.6 L225.2,57.6 Z M221.3,58.7 C220.8,58.7 228.3,80.3 249.6,86.7 C251.4,87.3 252.5,88.1 252.4,89.2 C252.3,90.6 252.3,90.7 250.3,89.7 C244.5,86.7 236.2,85.2 229.3,88.8 C228.2,89.4 227.1,90.8 228,91.8 C228.5,92.3 229.7,91.9 231.3,91.3 C239.3,88.2 251.7,90 253.9,94.9 C255.4,98.4 255.7,101 254.9,101.4 C254.3,101.7 253.2,100.6 251.2,98.9 C245.1,93.5 237.7,92 231.9,97.2 C230.6,98.3 229.4,98.1 228.9,98.6 C228.5,99.1 229,100.1 229.3,101 C229.7,102 229.7,102.3 229.3,103.2 C228.8,104.4 228.8,105.9 228.8,107 C228.9,109.7 230.8,112.1 236,115.8 C240.1,118.6 243.3,120.2 238.3,116.2 C229.7,109.2 228.2,106.4 233.7,108.8 C239.3,111 246.9,108.8 252.4,104.6 C254.3,104.6 255.4,104.3 256.3,105 C260.4,114.5 263.7,127.2 269.1,139.6 C262.7,146.9 240.2,164.7 224.2,164.1 C210.4,163.5 205.5,140.9 202.4,128.4 C201.4,123.1 200.2,117.7 200.3,110.2 C200.3,110.2 200.6,110 200.9,110.1 C203.2,110.5 207.2,110.8 209.2,110.4 C212.9,109.5 213.6,108.9 213.8,109.4 C214,110 212.5,111.5 209.8,113.3 C208.6,114.1 205.2,115.7 205.6,116 C206.4,116.5 210.5,114.4 211.2,113.8 C212.3,112.9 213,112.8 213.5,113.3 C214.1,113.9 214.2,113.3 212.2,118.2 C210,123.6 210.2,124.1 214.5,127.5 C216,128.7 217.3,129.8 217.7,130.3 C218.1,131 218.4,131.8 218.6,132 C219.3,133 218.9,131.4 218.5,128.9 C218,127.1 216.2,125.3 214.9,124.4 C212.6,122.8 212.9,121.2 214.9,115.7 C220.6,99.4 219.1,92.2 212.9,88.7 C210.1,87.1 202.2,87.5 199.7,89.6 C198.5,90.6 198.6,88.6 198.8,88.5 C213.9,78 217.4,68.1 221.3,58.7 L221.3,58.7 Z M250.2,66.6 C254.5,70.8 259.8,76.6 263,80.7 C264.8,82.9 265.7,85.1 267.1,87.4 C267.4,87.8 267.6,88.3 267.4,88.5 C267.3,88.6 266.7,88.2 266.4,88 C263.3,85.6 250.4,71 250.4,71 C249.8,68.5 249.4,67.7 250.2,66.6 L250.2,66.6 Z M252.8,76.6 C252.8,76.6 264,88.8 270.4,94.8 C271.7,97.4 274.1,101.3 274,101.9 C274,102.2 272.6,101.2 272.6,101.2 C265.5,94.7 259,87.4 252.2,80.4 C252.3,80.4 251.7,77.5 251.7,76.4 C251.8,75.7 252.5,76.4 252.8,76.6 L252.8,76.6 Z M277,107.9 C278.5,110.3 279.6,112.5 280.3,114 C281.5,116.3 281.1,116.3 280,115.5 C272,109 265.3,101 257.8,93.7 C256.8,92.7 254.9,90.5 254.9,90.5 C255,90.6 252.4,85.2 254,85.3 C255.2,85.8 256.1,87.1 256.8,88 C260.9,92.1 268.4,99.4 277,107.9 L277,107.9 Z M207.3,90.4 C210.6,90.3 213.8,91.2 215.5,93.2 C217,95 217.6,98 216.8,98.8 C216.3,99.3 214.4,97.8 214.4,97.8 C206.6,93.4 204,95.5 199.8,96.8 C199.2,97 198.6,95.4 199.3,93.8 C200.8,91.1 204.7,90.5 207.3,90.4 L207.3,90.4 Z M256.1,94.5 C264.4,102.8 272.8,112.1 281.8,119.2 C283.1,120.3 283.9,121 284.5,121.5 C285.7,123.9 288.4,129.4 288.4,129.4 C278.8,122.7 257.1,99.5 257.3,99.6 C257.6,99.9 255.6,95.5 256.1,94.5 L256.1,94.5 Z M239.9,95.9 C241.4,95.9 243.1,96.4 244.4,96.9 C248.6,98.6 251.2,100.3 246.9,99.7 C240.9,98.9 238.8,98.8 236.6,99.2 C232.5,99.9 232.2,100.3 231.8,99.7 C230.8,98 235.3,96 239.9,95.9 L239.9,95.9 Z M205.6,96.4 C207.1,96.4 208.8,96.7 210.4,97.4 C215.5,99.6 216.4,101.1 212.1,100.4 C209.8,100 205.7,100.1 202.7,100.8 C201.8,101 200.7,101.6 200.5,101.7 C199.4,102 199.2,101.2 199.6,99.9 C200.4,97.7 202.8,96.4 205.6,96.4 L205.6,96.4 Z M242.7,102.9 L243.8,103 C242.5,110.5 235,109.7 233,103.3 L234.1,103.3 C237.9,109.4 240.9,105.8 242.7,102.9 L242.7,102.9 Z M246.8,103.3 C250.2,103.3 250,105.3 246.4,106.7 C243.6,107.8 243.3,107.6 244.3,105.5 C245.4,103.6 245.3,103.3 246.8,103.3 L246.8,103.3 Z M211.3,103.6 C211.6,110.3 202.3,111.6 201.7,104.2 L202.6,104.2 C205.7,110 209.2,106.5 210.3,103.6 L211.3,103.6 Z M215.5,104.5 C216.6,105.2 215.9,106.2 213.6,107.6 C211.5,108.9 211,107.3 212.7,105.2 C213.4,104.5 214.6,103.9 215.5,104.5 L215.5,104.5 Z M231.7,104.5 C232.1,104.4 233.1,106.2 232.3,106.6 C231.8,106.9 231.1,106.1 231,105.6 C230.9,105.2 231.2,104.7 231.7,104.5 L231.7,104.5 Z M259.8,104.9 C266.1,111.8 272.4,118.7 290.8,133.7 C290.8,133.7 293.4,138.3 294,140.1 C293.6,140.7 293.3,140.6 292,140 C280,130.7 268.8,119.4 260.1,108.9 C259.7,107.5 258.7,106.1 259.8,104.9 L259.8,104.9 Z M200.2,105.6 C200.9,105.6 201.9,107.2 201.4,108.1 C200.9,108.4 200.2,107.9 199.9,107.5 C199.6,107.1 199.6,106.3 199.8,105.9 C199.9,105.7 200,105.6 200.2,105.6 L200.2,105.6 Z M262.5,115.2 C262.5,115 291.6,144.5 295.3,143.9 C297,144.9 301.4,153.3 301.4,153.3 C301.5,153.6 301.5,154.1 300.8,153.7 C295.9,151.3 275.3,134.2 264.7,121.4 C263.9,119.6 263,117.3 262.5,115.2 L262.5,115.2 Z M227.8,119.5 C232.9,122 230.7,127 225.3,123.8 C221.1,121.2 217.7,121 217.7,123.2 C217.7,124.1 218.9,125.3 220,125.3 C222.1,125.4 224,126.2 226,126.7 C229.2,127.4 231.6,126.5 232.4,124.6 C233.8,121.3 230.5,117.7 228.4,117.9 C226.3,118.1 226.9,119.1 227.8,119.5 L227.8,119.5 Z M268,127.6 C267.6,127.3 282.5,143.6 302.8,157 C303.6,157.9 305.5,162.6 305.9,163.2 C305.8,163.6 305.4,163.2 305.4,163.2 C295.2,157.3 281.7,145.6 268.9,132.3 C268.9,132.3 267.7,129.3 267.3,127.4 C267.5,127.3 267.8,127.4 268,127.6 L268,127.6 Z M234.3,133.4 C233.8,133.5 233.2,134.2 232.5,134.6 C230.9,135.5 230.5,135.7 226.6,134.5 C224.5,133.9 224.2,133.9 222.9,134.8 C221.8,135.6 221.2,135.7 220,135.2 C217.8,134.2 216.8,134.9 214.8,135.6 C212.9,136.3 212.2,135.5 210.5,135.1 C210.3,135.1 210.2,142.1 210.4,142.3 C210.5,142.4 212.2,141.2 213.2,140.8 C214.9,139.9 214.6,140.1 217.1,140.2 C220.7,140.8 224.3,140.6 226.7,139.7 C229.7,138.9 232.1,139 234.1,140.7 C235.4,141.7 237,141.6 236.1,139.7 C235.8,139 235,136.6 235.1,135.7 C235.2,134.3 234.9,133.5 234.3,133.4 C234.4,133.4 234.3,133.4 234.3,133.4 L234.3,133.4 Z M272.8,138.9 C279.6,145.5 288.1,155.5 307.9,167.1 C308.9,168.9 310.3,171.3 311.2,173.2 C311.3,173.7 311.2,174.2 310.6,174 C298.3,166.2 291.5,162.5 274.5,145.7 C273.4,144 272.3,141.1 271.4,138.8 C271.8,138 272.5,138.7 272.8,138.9 L272.8,138.9 Z M269.9,141.4 L277.5,155.6 L252,155.6 C258.5,151.7 264.7,146.5 269.9,141.4 L269.9,141.4 Z M227.6,141.7 C223.4,143.4 222.8,143.7 218.6,142.7 C216.2,142.1 216.8,143.5 218.1,144.1 C221.2,145.6 225.8,144.5 227.5,143.4 C228.6,142.6 229.3,141 227.6,141.7 L227.6,141.7 Z M223.3,146.1 C218.9,146.2 214.8,147.7 214.5,149.5 C214.4,149.8 214.8,150.2 215.5,149.8 C218.5,148 225.9,147.4 231.5,149.4 C232.4,149.7 232.6,149.2 231.6,148.4 C229.4,146.7 226.3,146 223.3,146.1 L223.3,146.1 Z M279.1,152.2 C287.4,159.8 295.3,166.9 313.1,177.1 C314.4,179.9 316.2,183.2 316.6,183.5 C299.9,175.4 281.8,159.4 281.8,159.4 C281.8,159.4 278.9,154.3 278.3,152.1 C278.1,151.4 278.8,152 279.1,152.2 L279.1,152.2 Z M284.7,164.1 C284.7,164.1 299.9,177 317.3,185.7 C318,186.4 319.7,190.5 320.3,191 C320.9,191.4 319.6,191.4 318.4,190.8 C309.3,186.6 289.8,173.2 289.8,173.2 C288,170.1 285.3,166.9 284.7,164.1 L284.7,164.1 Z M102.6,217.8 C104,214.8 105.4,211.5 106.3,208.8 C110.4,208.8 112.5,207.3 114,205.4 C116.1,205.3 117.7,205.4 120.6,205.3 C120.5,202.5 120.6,198.5 120.6,198.5 C123.5,195.5 125.5,192.1 121,186.8 C121,186.8 120.8,184.3 120.7,180.1 C118.6,179.8 114,180 114,180 C110.2,174.7 103.6,176 101.6,180 C101.6,180 98.6,180.2 96.5,180.2 C96.5,181.3 96.1,186.3 96.1,186.3 C96.1,186.3 87.3,192.3 96.4,199.3 L96.3,205.2 C98,205.3 99.2,205.2 101.4,205.6 C101.4,205.6 97.9,213.7 95.6,217.5 C94.8,217.7 95,217.3 94.1,214.6 C93,211.4 90.4,208 88.2,206.3 C85.2,204 81.2,203.3 78.4,201.3 C75.7,199.4 73.8,196.9 72.9,197.4 C72.6,198.4 72.3,203.9 73.3,207.4 C74.7,213.2 83.1,216.9 90.1,219.7 C90.6,220 91.1,220.6 91.1,220.8 C91.1,221.8 90.2,221.5 87.9,221.2 C84.4,220.9 83,221.8 81.8,224.8 C81.4,225.5 80.6,226.8 79.9,227.6 C79.2,228.4 78.5,229.2 78.4,229.6 C78.3,229.9 77.6,231.7 76.9,233.2 C76.5,234.1 75.7,235.1 75.7,236.5 C75.5,240.7 75.5,246.3 76.1,249.8 C76.6,252.4 79.8,253.9 81,254.1 C82.7,254.4 83,256.2 82.8,257.6 C81.5,264.7 77.4,269 76.1,266.7 C75.8,266.1 75.4,263.2 75.3,263.2 C75.2,263.2 74.6,265.7 74.8,266.7 C75.1,267.8 76.4,268.6 77.8,268.1 C79.8,267.4 81.4,265.4 82.6,260.9 C83.1,259.1 83.6,258 84.5,257.9 C86.1,258 88.5,261.3 88.5,261.3 C80.3,268.1 64.5,280.5 64.5,280.5 L63.8,56.9 L193.6,57.1 C194.3,74.8 192.2,89.7 185.8,105.5 C178.3,122.5 166.6,135.2 157.6,150.8 C146.8,169.7 143.3,189.3 147,209 C136,223.5 126.6,230.4 117.8,237.1 C117.8,237.1 111.2,230.1 107.5,226.2 C107.5,226.2 109.1,226.1 110.9,226 C119.3,225.1 128.4,223.9 131.9,215.1 C132.4,214.1 132.2,213.7 131.6,213.6 C125,214.5 119.3,213.6 115.6,213.8 C106.4,214.7 102.6,217.8 102.6,217.8 L102.6,217.8 Z M103.6,224.3 C103.6,224.3 93,219.3 92.3,219.1 C87.7,218.3 76.6,212.5 74.7,208.6 C74.5,208.1 73.8,200.9 73.7,199.5 C73.8,199 74,199 74.4,199.4 C75.6,200.2 80.2,203.2 81.9,204 C88.9,207.4 91.6,209.8 93.3,215 C93.7,216.3 94.2,217.6 94.4,217.9 C95,218.5 95.2,218.5 95.9,217.9 C98.9,214 100.3,210.8 101.7,206.6 C101.9,206.1 102.3,205.7 102,205 C101.4,203.2 100.1,200.8 101.5,199 C97.1,199.2 92.9,196 93.4,192.8 C94.6,186.8 97.1,187.9 101.8,187 C101.3,173.2 114.1,176.6 114.1,186.2 C128.3,187.4 121.6,200.5 113.3,198.5 C116.6,205.9 106.8,208.7 105.4,207.5 C104.8,209.9 101.1,217.6 100.3,220 C110.8,212.6 127.7,215.9 130.1,215.4 C124.2,227.9 104.2,224.8 103.6,224.3 L103.6,224.3 Z M292.5,177.3 C295.2,179.4 317.7,193.5 321.9,193.8 C321.9,193.8 323.9,196 325.5,198.1 C327,200 327.6,200.3 327.8,200.7 C328,201.1 327.2,201.1 327.1,201 C316.9,196.6 306.6,191.9 297.8,184.6 C296.6,183.6 296.3,183.1 295.8,182.4 C295,181.4 292.7,177.7 292.5,177.3 L292.5,177.3 Z M300,188.7 C310.3,194.5 319.1,200.1 328.5,203.2 C329.8,203.7 330.5,203.7 331.2,204.2 C331.9,204.7 334.7,206.4 335.4,206.8 C339.7,209.3 340.1,209.2 339.1,209.6 C337.9,210.1 330.4,207.9 324,205.5 C312.7,201.3 308.7,199 304.6,195.3 C303.7,194.4 299.4,189.3 300,188.7 L300,188.7 Z M94,221.1 C94.9,221.1 96.3,221.6 97.7,222.7 C99.2,223.9 103.1,226.4 104.6,227.1 C105.4,227.4 105.7,227.5 105.7,227.5 L115.9,239 L89.7,260.3 C89.7,260.3 87.6,258.1 86.9,257.4 C86.3,256.7 86.4,256.1 87.2,255.4 C87.8,254.8 87.9,253.4 87.8,252.8 C87.6,251.8 87.7,250.7 88.9,249.8 C89.9,249.1 90.1,247.8 90,247.4 C90,247.1 90.5,246.2 91.4,245.5 C93.2,244.2 93.8,242.5 93.2,240.6 C92.9,239.8 92.8,239.6 93.9,238.9 C95.8,237.7 96.2,236.5 96.4,234.7 C96.4,234.4 96.3,234.1 96.3,233.9 C95.9,232 97.6,232.5 99,234.9 C99.8,236.2 100,238.4 100.4,240.9 C100.9,243.8 101.2,244.6 101.3,244.2 C102.2,241.8 101.1,233 98.5,231.8 C94.6,230 91.3,226.5 92.3,225.1 C92.6,224.6 92.7,224.8 95.1,225.9 C96.5,226.5 97.8,227.1 98,227.1 C100.8,227.2 99.1,226 98.2,225.9 C97.1,225.8 93.9,223.8 93.5,223.1 C92.8,221.7 93.1,221.1 94,221.1 L94,221.1 Z M87.3,222.7 C89.9,222.7 90.4,223.4 90.4,225.6 C90.4,226.9 90.9,227.9 92.9,230.5 C93.7,231.6 94.3,232.4 94.2,232.8 C94.1,233.5 93.9,232.8 91,232.5 C90,232.4 89.5,232.4 89.1,232.9 C88.1,234.3 86.1,232.8 84.8,230.7 C81.9,225.5 83,222.7 87.3,222.7 L87.3,222.7 Z M136,225.7 L163.8,259.7 L160.7,262.1 L132.8,228.5 L136,225.7 Z M131.3,227.8 L134.3,232.8 C134.3,232.8 125.7,240.2 123.4,242.2 C105.1,257 63.8,290.7 63.8,290.7 L63.2,283.9 L131.3,227.8 Z M81.1,228.7 C81.6,228.7 82.3,229.4 83.1,230.7 C83.9,231.9 85.5,234.2 87.2,235.8 C90.6,238.9 90.9,238.6 88.2,238.9 C87.1,239 86.8,238.9 86.1,240.6 C84.1,243.1 78.1,234.1 79.5,230.6 C80.1,229.3 80.6,228.7 81.1,228.7 L81.1,228.7 Z M90.8,233.6 C91.3,233.6 92,233.8 92.7,234.2 C94.2,234.8 94.3,235.2 94,236.6 C93.8,237.9 92.7,238.3 90.7,236.5 C89.3,235 89.6,233.6 90.8,233.6 L90.8,233.6 Z M135.2,234.4 L138.5,238.6 L64.3,298.6 L64.3,291.7 C66.2,291.9 113.7,250.6 135.2,234.4 L135.2,234.4 Z M77.7,235.1 C77.9,235.1 78.2,235.7 79,237 C80.7,239.5 82.2,241.2 84,242.5 C85.7,243.8 85.8,244.4 84.7,244.5 C84.2,244.5 83.5,245 83.2,245.6 C82.5,246.8 82.4,246.5 81.3,245.9 C79.8,245 78.2,243.6 77.6,241.8 C77,240.1 77,237.5 77.4,235.6 C77.6,235.3 77.6,235.1 77.7,235.1 L77.7,235.1 Z M89.4,239.9 C91.3,239.8 92.6,242 91.4,243.8 C90.7,244.5 90.1,244.8 88.7,244 C86.9,242.9 86.5,241.3 88,240.3 C88.5,240 89,239.9 89.4,239.9 L89.4,239.9 Z M77.3,244.6 C77.7,244.6 78.4,245.2 79.6,246.4 C80.5,247.4 82.1,248.2 82.8,248.5 C84.2,249.3 84.3,249.6 83.5,250.2 C83.2,250.5 82.1,250.5 81.8,251.4 C81,253.9 77.3,251 77,247.4 C76.8,245.7 76.7,244.7 77.3,244.6 L77.3,244.6 Z M86.3,244.9 C88.7,245 89.8,247.8 87.9,249.1 C86.9,249.8 84.3,248.5 84,247.2 C83.9,246.4 85.4,244.9 86.3,244.9 L86.3,244.9 Z M141.6,247 C143,247 144.1,248.1 144.1,249.5 C144.1,250.9 143,252 141.6,252 C140.2,252 139.1,250.9 139.1,249.5 C139.1,248.1 140.3,247 141.6,247 L141.6,247 Z M134.2,248 C135.6,248 136.7,249.1 136.7,250.5 C136.7,251.9 135.6,253 134.2,253 C132.8,253 131.7,251.9 131.7,250.5 C131.7,249.1 132.8,248 134.2,248 L134.2,248 Z M84.5,251.3 C84.7,251.3 84.8,251.3 85,251.3 C87.3,251.4 87.4,253.6 86,254.7 C85.2,255.4 84.5,255.6 83.4,254.8 C81.5,253.4 82.2,251.5 84.5,251.3 L84.5,251.3 Z M139.7,255 C141.1,255 142.2,256.1 142.2,257.5 C142.2,258.9 141.1,260 139.7,260 C138.3,260 137.2,258.9 137.2,257.5 C137.2,256.1 138.4,255 139.7,255 L139.7,255 Z M357.8,255.1 L357.9,261.4 L270.2,334.3 L267.2,330.4 L357.8,255.1 Z M134.7,255.6 L128.2,270.2 L126.3,266.4 L121.4,266.4 L122.9,262.1 L120,258.6 L134.7,255.6 Z M272.7,316.2 L284.2,307 C279.2,281.9 299.1,272 317.9,279.2 L329.6,269.2 C307.9,250.9 256.8,263.3 272.7,316.2 L272.7,316.2 Z M116.6,267.2 C118,267.2 119.1,268.3 119.1,269.7 C119.1,271.1 118,272.2 116.6,272.2 C115.2,272.2 114.1,271.1 114.1,269.7 C114.1,268.3 115.2,267.2 116.6,267.2 L116.6,267.2 Z M109,267.8 C110.4,267.8 111.4,268.8 111.4,270.2 C111.4,271.6 110.4,272.8 109,272.8 C107.6,272.8 106.5,271.7 106.5,270.3 C106.6,268.9 107.7,267.8 109,267.8 L109,267.8 Z M149.2,272.9 L137.8,282.1 C140.8,306.1 129.1,318.3 104,310.1 L91.9,319.7 C124.6,342.2 167.5,313.1 149.2,272.9 L149.2,272.9 Z M114,275 C115.4,275 116.5,276.1 116.5,277.5 C116.5,278.9 115.4,280 114,280 C112.6,280 111.5,278.9 111.5,277.5 C111.5,276.1 112.6,275 114,275 L114,275 Z M354.6,275.6 C356,275.6 357.1,276.7 357.1,278.1 C357.1,279.5 356,280.6 354.6,280.6 C353.2,280.6 352.1,279.5 352.1,278.1 C352.2,276.8 353.3,275.6 354.6,275.6 L354.6,275.6 Z M108.8,276.2 L101.5,290.7 L99.7,286.3 L94.8,286.4 L96.4,281.3 L93.3,278.7 L108.8,276.2 Z M344.8,277.8 L347.1,281.6 L351.9,281.7 L350.1,285.3 L353.6,288.9 L338,292.7 L344.8,277.8 Z M91.4,288.3 C92.8,288.3 93.9,289.4 93.9,290.8 C93.9,292.2 92.8,293.3 91.4,293.3 C90,293.3 88.9,292.2 88.9,290.8 C88.9,289.4 90,288.3 91.4,288.3 L91.4,288.3 Z M84.2,288.5 C85.6,288.5 86.7,289.6 86.7,291 C86.7,292.4 85.6,293.5 84.2,293.5 C82.8,293.5 81.7,292.4 81.7,291 C81.7,289.7 82.8,288.5 84.2,288.5 L84.2,288.5 Z M332.7,290 C334.1,290 335.2,291.1 335.2,292.5 C335.2,293.9 334.1,295 332.7,295 C331.3,295 330.2,293.9 330.2,292.5 C330.2,291.1 331.4,290 332.7,290 L332.7,290 Z M357.8,290.4 L357.9,295.9 C335,316.1 286.9,355.1 286.9,355.1 L283.9,351.3 C284,351.3 332.9,311.3 357.8,290.4 L357.8,290.4 Z M89.2,295.8 C90.6,295.8 91.7,296.9 91.7,298.3 C91.7,299.7 90.6,300.8 89.2,300.8 C87.8,300.8 86.7,299.7 86.7,298.3 C86.7,296.9 87.8,295.8 89.2,295.8 L89.2,295.8 Z M337.8,296.4 C339.2,296.4 340.3,297.5 340.3,298.9 C340.3,300.3 339.2,301.4 337.8,301.4 C336.4,301.4 335.3,300.3 335.3,298.9 C335.3,297.5 336.4,296.4 337.8,296.4 L337.8,296.4 Z M330.8,296.8 C332.2,296.8 333.3,297.9 333.3,299.3 C333.3,300.7 332.2,301.8 330.8,301.8 C329.4,301.8 328.3,300.7 328.3,299.3 C328.3,297.9 329.4,296.8 330.8,296.8 L330.8,296.8 Z M358.5,297.7 L358.3,304.7 C336.1,323.6 290.8,361.2 290.9,361.2 L287.5,356.5 C287.5,356.5 337.2,313.7 358.5,297.7 L358.5,297.7 Z M84.6,296.7 L77.8,312.1 L74.8,307.9 L70.5,307.6 L71.5,303.4 L67.5,300.7 L84.6,296.7 Z M321.8,302.8 L326.2,302 L325.4,306.5 L328.5,309.7 L312.4,313.2 L320.2,298.8 L321.8,302.8 Z M345.9,378 C349.2,382.9 349,388.2 347.6,389 C346.2,388.2 344.9,386.8 343.4,386.1 C335.9,382.9 329.9,380.2 328.8,375.4 C324.8,364.7 343.2,373.9 345.9,378 L345.9,378 Z M306.5,349.4 L331.7,328.9 C331.7,328.9 335.6,330.9 336.3,331.8 C336.6,332.8 335.9,333.1 334.8,334 C334.3,334.6 334,335.2 334,336.5 C334,337.9 334.4,338.5 333.9,339.2 C332.9,339.1 332.2,340.4 332.2,341.4 C332.2,342.2 331.2,343 330.6,343.6 C329.6,344.6 329.2,344.8 328.6,348.3 C328.5,348.6 328.6,349.6 328.1,350 C326.6,350.1 325.6,353.7 324.9,353.9 C323.8,353.8 322.1,352.5 321.7,350.6 C321.4,349.3 321.5,346.9 321.8,345.4 C322.1,343.5 322.3,341.8 322.2,341.4 C321.9,340.4 321.2,341 321.2,342.4 C321.2,343 321,344.8 320.6,346.4 C320.2,348.1 319.2,350.3 319.7,351.6 C320.4,353.6 322.9,354.4 324,355.4 C327,358.1 327.6,359.5 328,360.1 C330.4,364.5 330.4,365.2 329.8,368.5 C329.5,370.4 327.6,370.1 326.5,369.3 C326.5,369.3 319.4,364.1 316.3,361.6 C311.8,357.8 308.5,353.8 306.5,349.4 L306.5,349.4 Z M316.1,363.5 C318.8,364.6 325.8,369.7 325.8,369.7 L319.4,383 C320.6,385.1 321,390.3 321,390.3 C329.1,389.7 333.5,403.3 320.9,402.1 C322.3,410.6 308.7,417.2 309.1,402 C294.9,403.1 299.7,387 308.4,390 C308.1,383.2 312.7,382.3 315.9,380.6 C318.5,377.6 320.1,370.9 320.1,370.9 L319.5,368.9 C316.8,373.6 305.4,374.9 292.8,372.5 C296.2,364.5 306.5,364.7 316.1,363.5 L316.1,363.5 Z M291,373.7 C290.6,375.3 290.6,375.3 292.5,375.1 C293.5,375 297.4,375 300.2,375.1 C305.3,375.5 313.2,375.5 317.2,372.5 C318,371.8 318.4,371.8 318.5,372.2 C318.8,374.2 315,380.6 315,380.6 L308.6,384.2 C308.6,384.2 306,384.3 302.7,384.2 L302.6,390 C300.1,391.5 295.7,397.9 302.7,402.9 L302.5,409.2 L308.7,409.3 C312.8,413.2 316.2,413.2 319.9,409.5 L327,409.5 L327,402.7 C330.5,399.9 331,395.1 327.4,391.2 L327.3,384.3 L321.8,384.3 C321.8,384.3 320.7,383.4 320.6,382.7 C320.6,382.2 324.6,374.5 325.4,373.4 C326.4,372 326.1,372.8 327.7,376.1 C330,380.8 332.2,382.8 338,385.6 C343.2,388.1 345,389.3 346.5,390.7 C347.7,391.8 348.4,391.5 348.9,389.8 C349.9,386 349.6,382.2 347.5,378.8 C343.1,371.5 335.4,371.2 334.2,369.5 C334,369.1 335.6,368.6 337.3,367.9 C340.2,366.1 344.4,360.8 345,358.7 C344.9,357.7 345.6,354.4 346.1,353.7 C346.7,352.4 346.7,351.8 346.7,348.4 C346.2,346.4 346.7,343.9 346.9,343 C347.2,341.2 346.2,339.1 344.9,336.6 C344.4,334.2 344.5,334.8 346.1,329.5 C346.3,328.6 348.1,321.1 345.9,320.6 C345.9,320.7 346.1,320.9 346.2,321 C346.6,321.8 346.8,325 346.4,325.9 C346.3,326.3 346,327.2 345.8,328 C344.5,334 343.7,335.5 342.4,334.2 C342.1,333.9 341,333.4 340.1,332.9 C338.5,331.8 338.6,331.3 339,329.3 C339.1,329 339.7,326.2 339.7,326.3 C339.3,327.2 339.1,329.7 338,330.3 C337.4,330.4 336.6,329.9 335.1,328.6 C334.5,328.1 333.2,327.2 333.2,327.2 C333.2,327.2 351.4,311.9 358.2,306.8 L358.1,534 L229.3,534.1 C227.7,520 231.9,501.4 238.9,482.8 C243.2,471.3 249.5,462.7 256.5,452.4 C269.9,432.7 280.1,412.7 276.2,387.4 C275.7,383.6 275.2,381.8 275.4,380.8 C277,377.7 283.5,368.4 288.3,364.6 C295.3,358.9 304.9,350.4 305.7,350.9 C308,355.4 310.7,359 314.4,361.7 C315,362.4 315.1,363 313.6,363.3 C304.1,363.1 294.2,365.2 291,373.7 L291,373.7 Z M67.3,309.1 C68.7,309.1 69.8,310.2 69.8,311.6 C69.8,313 68.7,314.1 67.3,314.1 C65.9,314.1 64.8,313 64.8,311.6 C64.8,310.2 65.9,309.1 67.3,309.1 L67.3,309.1 Z M308.2,309.7 C309.6,309.7 310.7,310.8 310.7,312.2 C310.7,313.6 309.6,314.7 308.2,314.7 C306.8,314.7 305.7,313.6 305.7,312.2 C305.7,310.8 306.8,309.7 308.2,309.7 L308.2,309.7 Z M313.6,316.5 C315,316.5 316.1,317.6 316.1,319 C316.1,320.4 315,321.5 313.6,321.5 C312.2,321.5 311.1,320.4 311.1,319 C311.1,317.6 312.2,316.5 313.6,316.5 L313.6,316.5 Z M305.5,317.5 C306.9,317.5 308,318.6 308,320 C308,321.4 306.9,322.5 305.5,322.5 C304.1,322.5 303,321.4 303,320 C303.1,318.7 304.2,317.5 305.5,317.5 L305.5,317.5 Z M296.7,323.2 L301.2,323 C300.6,324.6 300.3,326.3 300,327.9 L303.7,330.6 L287.9,333.3 L294.7,319.3 L296.7,323.2 Z M285.9,364.1 L259.3,329.7 L262.5,327.1 L289.4,361.1 L285.9,364.1 Z M282.6,330.7 C284,330.7 285.1,331.8 285.1,333.2 C285.1,334.6 284,335.7 282.6,335.7 C281.2,335.7 280.1,334.6 280.1,333.2 C280.1,331.8 281.2,330.7 282.6,330.7 L282.6,330.7 Z M338.6,334.5 C340.8,336.2 338.6,338.5 336.5,337.6 C334.7,336.8 334.8,335 336.3,334.3 C337.2,333.9 337.8,334 338.6,334.5 L338.6,334.5 Z M341.5,336.1 C343.7,336.1 346.2,341.4 345.7,342.9 C345,344.7 344.4,344.8 341.3,342.1 C338.2,339.5 338.2,339.4 339.4,338 C340.1,337.2 340.4,336.2 341.5,336.1 L341.5,336.1 Z M288.8,337.1 C290.2,337.1 291.3,338.2 291.3,339.6 C291.3,341 290.2,342.1 288.8,342.1 C287.4,342.1 286.3,341 286.3,339.6 C286.3,338.2 287.4,337.1 288.8,337.1 L288.8,337.1 Z M281.1,338 C282.5,338 283.6,339.1 283.6,340.5 C283.6,341.9 282.5,343 281.1,343 C279.7,343 278.6,341.9 278.6,340.5 C278.6,339.1 279.7,338 281.1,338 L281.1,338 Z M335.6,339.8 C338.1,340.2 338.7,342 337.6,343.4 C336.1,345.3 332.6,343.6 333.4,341.4 C333.8,340.3 334.7,339.8 335.6,339.8 L335.6,339.8 Z M340,342.6 C341,342.5 342.4,343.9 344,346 C345.8,348.5 345.9,349.3 345.4,350.8 C344.7,353 344.2,353.4 342.6,351.2 C342,350.4 340.6,348.5 339.6,347.5 C337.5,345.3 337.1,345.8 338.4,344.1 C339,343.4 339.4,342.7 340,342.6 L340,342.6 Z M334.2,345.2 C336.4,346.3 336.6,347.8 335.3,348.9 C333.8,349.7 331.1,348.7 330.5,347.2 C329.8,345 332.2,343.9 334.2,345.2 L334.2,345.2 Z M338,348.5 C339.2,348.4 340.3,349.7 341.8,352.2 C344.4,356.4 344.5,357.8 342.3,360.6 C340.7,362.6 340.5,362.7 339,359.5 C337.7,356.9 335.3,353.9 333.1,352.1 C332.2,351.3 331.8,350.3 332.5,350.2 C332.7,350.2 333.5,350.1 334.3,350.1 C335.5,350.1 335.9,349.9 336.6,349.3 C337,348.7 337.5,348.5 338,348.5 L338,348.5 Z M329,351.7 C330.2,351.6 331.6,352.3 332.8,353.6 C334.1,354.9 333.9,356.1 331.4,356.4 C330.3,356.8 327.2,354.8 327.2,353.5 C327.2,352.4 328,351.8 329,351.7 L329,351.7 Z M334.9,356.6 C335,356.6 335,356.6 335.1,356.6 C336.1,356.6 336.7,357.7 337.8,360 C339.6,363.6 339.1,365.6 336,367.2 C333.9,368.3 332.3,368.6 332,367.4 C331.9,367 331.9,366 331.8,365 C331.6,363.7 331.3,362.3 330.1,360.5 C328.2,357.6 327.9,356.6 330,357.5 C331.1,357.9 332.3,357.9 333.6,357.2 C334,356.8 334.4,356.6 334.9,356.6 L334.9,356.6 Z M324.3,362.4 C323.6,362.4 323.1,362.8 323.3,364 C324,364.3 325,364 325.8,364.3 C326.9,364.7 327.5,366.4 328.6,366.1 C328.8,364.7 325.9,362.4 324.3,362.4 L324.3,362.4 Z M109.3,387.5 C103.5,384.7 89.1,378.3 82.2,378.2 C69.4,374.6 68.5,376.2 64,375.1 C87.8,368.9 104.3,380.8 110.3,386.6 C113,389.4 111.5,388.6 109.3,387.5 L109.3,387.5 Z M124.5,443.7 C138.2,467.4 150.9,494.1 172.2,533.6 L170.2,534.2 L88.8,534.3 C92.8,490.6 69.2,449 67.6,450.6 C86,450.9 101.3,447.4 104.6,440.6 L102,440 C91.3,449.3 75.7,449.7 65,446.8 C65.2,424 64,400 64.7,377.3 C77.4,376.4 87.3,381 94.3,390.3 C106.1,405.8 114.1,425.6 124.5,443.7 L124.5,443.7 Z M87.2,380.7 C90.5,380.5 108.3,387.8 116.2,393.3 C118.4,395.6 121.6,399.6 121.7,400 C121.7,401 120.1,399.7 112.4,395.4 C106.6,392.1 100.5,389.5 94.7,387 C94.4,386.9 93.9,386.7 93.9,386.7 C93.9,386.7 93.5,386.2 92.7,385.6 C90.6,383.8 86.5,380.9 87.2,380.7 L87.2,380.7 Z M95.9,389 C95.7,389 113.6,395.4 127.8,406.7 C129.7,408.2 132,413.8 132,413.8 C130.7,411.4 108.3,398 100.4,394.9 C100.4,395 95.9,389 95.9,389 L95.9,389 Z M102.2,397.6 C103.2,397 129.3,412.4 133.1,416.4 C134.8,417.7 138.9,424.2 138.9,425.5 C138.9,426.7 137.6,425.7 135.3,423.5 C123.3,412.3 105.9,403.8 105.8,404 L102.2,397.6 Z M107,406.5 C119.2,411.7 134.6,424.1 142.4,431.6 C144.3,433.5 145.7,436.3 146,437.6 C146.2,438.4 145.8,438.3 145.6,438.8 C135.5,427.2 113.4,414.1 110.5,413 C110.5,413.7 108,408.5 107,406.5 L107,406.5 Z M147.7,442.5 C149.1,443.9 151.3,449 150.8,449.6 C150.5,449.9 150.6,449.7 150,449.3 C146.8,446.1 130.2,431.4 116.4,423.2 C115.1,422.5 110.8,415.7 111.7,415.6 C118.9,418 139.6,434.4 147.7,442.5 L147.7,442.5 Z M117.8,426.1 C118,426.1 118.5,426.4 119.2,426.8 C131.9,433.8 150.3,451.4 153.8,455.7 C154.6,457 155.8,459.4 155.8,460.9 C155.6,462.1 155.2,461.1 150,456 C141.7,447.9 132.3,440.1 122.2,433.5 C120.3,432.2 120.6,432 119.2,429.6 C117.8,427.2 117.3,426.1 117.8,426.1 L117.8,426.1 Z M199,426.4 C208.1,426.7 211.6,433.5 217.2,446.2 C221.8,458.7 223.7,470.1 223.9,479.2 C223.9,479.8 222.8,479.3 222.3,479.2 C219.9,478.6 216.8,477.9 213.3,478.8 C210.7,479.4 208.3,479.4 210.9,477.6 C211.7,477 214.1,474.9 215.3,474.1 C217.8,472.6 216.3,472.6 213.8,473.8 C211.9,474.7 210.7,475.9 209.9,476.1 C209.4,476.2 209.7,474.7 210.2,473.5 C212.8,467 213.6,463.2 209.7,462 C208.6,461.7 207.2,460.7 206.5,460 C206,459.5 205.5,457.4 205.3,457.3 C205.1,457.2 205,459.2 205,459.5 C205,460.5 206.3,462.7 208,463.8 C210.7,465.8 211.3,466.3 209.8,470.9 C207.7,477.4 207.3,479 206.9,480.5 C206.7,481.4 206.3,482.8 206,483.8 C205.2,487.5 205.3,490.7 205.4,493.8 C206.3,500.6 213.7,504 223.6,500.2 C224.5,499.8 224.9,500.2 224.9,500.2 C217,508.2 208.2,513.3 203,529.5 C196.4,516.1 187,505.7 171.4,501.5 L171.2,498.7 C176.6,501.3 187.2,504.9 193.9,500.9 C197.5,498.4 196.4,496.9 192,498.6 C186.8,500.6 177.4,500.4 172.8,497.7 C171.8,497.2 170.9,497.6 170.6,497.7 C170.4,496.1 168.1,490.2 168.4,488 C168.2,487.7 169.8,487.7 170.1,488.1 C171.4,489.8 178,495 184.8,494.6 C188.2,494.4 191,493.4 193.9,490.3 C194.2,490.1 195.3,489.9 195.5,489.7 C195.8,489.4 195.6,489 195.6,488.8 C195.5,488.6 195.1,487.9 194.8,487.2 C194.4,486.6 194.3,485.9 194.4,485.4 C194.4,485 194.7,484.7 194.9,484.5 C195.2,483.9 195.1,483.2 194.9,482.8 C194.3,482.4 194.4,481.6 194.7,481.3 C195.6,480.3 186.8,472.2 185,472.2 C184.4,472.2 184.7,473.4 186,474.2 C190.5,477.2 193.8,481.1 193.1,481.6 C192.5,482 190.5,481.1 188.5,480.6 C184.4,479.6 179.4,479 174,482.9 C172,484.6 166.7,484.8 166.7,484.8 C166.6,481.9 154.4,449.6 154.4,451 C158.8,445.8 172.8,433.5 186.8,428.2 C191.3,426.7 195.9,426 199,426.4 L199,426.4 Z M145.9,433.6 L171.3,434 C164.9,437.2 153.3,448.8 153.3,448.8 C150,442.1 149,438.8 145.9,433.6 L145.9,433.6 Z M123.9,437 C125.8,437 146,453.4 148.9,457.3 C149.2,457.8 151.3,459.9 153.4,462.1 C158.6,467.3 160.8,470.4 160.8,472.5 C160.8,473.5 159.9,472.9 158.5,471.3 C148,459.7 141.2,453.4 128.3,444.5 C126.9,443.7 122.3,437.7 123.9,437 C123.9,437 123.9,437 123.9,437 L123.9,437 Z M193,440 C192.4,440 192.5,440.5 192.8,441 C196,443.8 204.5,443.7 207.4,441.4 C210,439.3 206.6,440.4 205.5,440.9 C203,442 200.3,441.9 196.7,440.9 C194.7,440.4 193.5,440 193,440 L193,440 Z M200.8,444.6 C197.8,444.6 194.8,445.5 195.4,446.6 C195.7,447 196.5,447.7 198.4,446.7 C201.2,445.3 206.9,447.1 207.1,447.2 C207.7,447.4 205.2,445.6 204.4,445.2 C203.4,444.8 202.1,444.6 200.8,444.6 L200.8,444.6 Z M129.5,447.7 C140.3,454.3 153.6,467.6 161.5,477.1 C162.8,478.7 163.8,480.7 163.8,481.9 C163.8,483.6 163.5,482.7 156.2,475.4 C150.5,469.6 142,461.8 136.4,457.5 C133,455 132.4,454.7 130.8,451.8 C129.3,449 128.8,447.7 129.5,447.7 L129.5,447.7 Z M197.1,449.9 C195.1,450.9 192.4,450.7 189.7,449.8 C187.3,449 187.9,449.7 188.8,452.3 C189.2,453.5 189.5,455.2 189.5,455.4 C189.5,456 189.5,456 191.2,455.1 C192.7,454.3 193,454 196.1,454.7 C199.3,455.4 199.3,455.2 200.8,454.4 C202.1,453.7 202.4,453.3 203.3,453.7 C205,454.4 207,454.7 209.2,453.5 C210.9,452.6 211.5,453.2 212.3,453.6 C213.4,454.1 213.8,453.8 213.4,452.7 C213.2,452.3 212.9,450.4 212.9,449.9 C212.9,448.8 212.6,447.8 212.2,448 C210.5,448.9 209.1,449.8 207.5,449.7 C204.4,449.7 201.7,447.9 197.1,449.9 L197.1,449.9 Z M64.9,452.2 C91.9,485.9 87.2,534.4 86.3,534 L65.1,534.1 L64.9,452.2 Z M135.2,459 C146,466.6 158.8,479.8 166,488.9 C167.2,490.5 166.2,491 166.8,492.9 C167,493.6 165.8,492.6 162.4,488.9 C158.1,484.3 151.1,477.4 146.5,473.4 C141.4,469 140,467.9 138.9,466.4 C138,465.1 134.6,459.2 135.2,459 L135.2,459 Z M196,462.1 C195.9,462.1 195.8,462.1 195.7,462.1 C191.9,462.3 189.9,466.6 193.2,469.6 C194.4,470.7 196.4,471.4 196.4,470.8 C196.4,470.6 195.8,470 195.3,469.7 C192.6,467.6 192.8,464.3 196,464.3 C197.1,464.3 197.2,464.7 199.7,466.5 C202.7,468.6 206.1,468.6 206.1,466.5 C206.1,464.9 205.5,463.3 202.9,463.6 C202.2,463.7 201.3,463.7 200.5,463.5 C199.7,463.3 199.1,462.8 198.8,462.7 C197.7,462.3 196.8,462.1 196,462.1 L196,462.1 Z M142.3,472 C150.6,477.5 161.9,490.1 167.7,497.5 C169,499.2 169.1,501.2 168.6,502.2 C168.5,502.4 167.5,501.8 167.5,501.8 C160.8,493.9 153.2,486.7 145.7,479.4 C145.6,479.4 141.2,472.2 142.3,472 L142.3,472 Z M222.3,484 L220.5,484.9 C217.8,480.8 215.3,480.8 213.3,485.5 L212,485.2 C211,484.1 215.5,473.8 222.3,484 L222.3,484 Z M221.9,480.5 C222.6,480.5 223.9,480.9 224.3,481.7 C224.6,482.4 224.3,483.2 223.2,483.2 C223,483.2 222.1,482 221.6,481.2 C221.2,480.8 221.4,480.5 221.9,480.5 L221.9,480.5 Z M191.6,485.5 L189.6,485.6 C185.8,480.6 183,484 181.3,486 L179.2,485.7 C179.5,480.3 189.2,478.3 191.6,485.5 L191.6,485.5 Z M211,481.2 C211.3,481.2 211.6,481.3 211.9,481.4 C211.1,482.6 211,483.6 210.8,484.7 C210,485 208.9,485.7 208.1,484.8 C206.6,483.4 208.9,481.2 211,481.2 L211,481.2 Z M179.8,481.8 C180.7,481.8 180.5,481.7 180,482.3 C179.6,482.8 179,483.8 178.7,484.6 C178.6,485.2 178.5,485.4 177.9,485.4 C176.8,485.4 174.7,485.1 174.7,485.1 C174,484.3 177.4,481.9 179.8,481.8 L179.8,481.8 Z M191.9,482.5 C192.5,482.4 192.4,483.3 192.2,483.7 C191.8,484.2 191.6,484.3 191.4,483.7 C191.3,483.4 191.1,483.2 191,483 C190.7,482.6 190.7,482.6 191.1,482.5 C191.3,482.5 191.7,482.5 191.9,482.5 L191.9,482.5 Z M224.6,486.5 C226.9,486.4 225.4,490.4 222.1,491.3 C218.5,493.1 214.4,492.7 210.3,490.3 C207.9,488.9 207.2,487.5 209.3,488.1 C217.1,490.2 219,489.9 223.7,486.8 C223.9,486.6 224.2,486.5 224.6,486.5 L224.6,486.5 Z M149.4,485.6 C157.2,492.2 163,499.6 169.2,506.5 C170.4,508 171,509.5 170.8,510.5 C170.5,511.7 167.9,508.8 167.9,508.8 C168,508.8 152.7,492.6 152.7,492.6 C152.7,492.6 148.9,485.7 149.4,485.6 L149.4,485.6 Z M172.6,487.9 C173.1,487.9 174.2,488.2 175.9,488.6 C183.4,490.9 185.6,490.8 189.9,488.8 C192.6,487.5 193.8,487.7 192.6,489.6 C190.4,493.1 182.8,493.5 177.1,491.5 C175.6,491 174.3,490.1 172.8,489 C172.1,488.2 172,487.9 172.6,487.9 L172.6,487.9 Z M207.1,490.2 C207.6,490.2 208.4,490.7 209.4,491.3 C215.7,494.9 220.3,494.2 224.2,491.8 C224.9,491.2 225.3,491.5 225.4,492.1 C225.7,494.3 225.8,495.8 224.8,496.9 C224.2,497.5 223.3,497.8 221.8,498.3 C215.7,500.4 208.3,498.9 206.9,494.3 C206.4,491.9 206.2,490.3 207.1,490.2 L207.1,490.2 Z M157.4,500 C157.4,500 157.5,500 157.4,500 C157.9,500.1 158.9,501 160.5,502.8 C168.8,512.3 173.5,517.7 172.6,520.4 C172.5,520.4 172.5,521 172.1,520.7 C167.5,516.7 163.8,512.4 161,507.9 C158,502.9 156.7,500 157.4,500 L157.4,500 Z M224.7,506.6 C217.7,512 209.1,524.8 208.4,531.1 C208.3,532.3 208.4,533.2 207.9,533.6 C207.6,533.9 206.7,534 205.7,533.8 C205,533.7 205.2,533.6 205,532.9 C204.4,530 207.2,522.8 212.9,514.2 C215.9,509.7 222.7,503.6 224.6,503.6 C225.9,504.1 224.6,506.7 224.7,506.6 L224.7,506.6 Z M172.5,503.7 C173,503.7 173.8,503.9 174.8,504.4 C181.1,507.1 183.5,508.1 187.6,511.4 C195.2,517.6 203.7,532.4 201.2,533.8 C200.1,534.4 199.3,534 198.9,532.7 C198.8,532.4 198,530.4 197.1,528.6 C192,519.2 185.3,512.8 176,508.2 C172.5,506.5 172.2,506.7 171.9,505.3 C171.7,504.2 171.9,503.7 172.5,503.7 L172.5,503.7 Z M224.6,509.1 C225.2,509 225.4,510.2 225.2,512.5 C225,514.4 224.9,514.4 222.8,516.6 C219.4,519.3 215.4,525.8 213.6,532.3 C213.6,532.5 213.4,533 213.1,533.3 C212.2,534.1 211.1,533.7 210.4,533.7 C209.9,533.4 210,532.2 210.1,531.6 C211.6,525.7 215.4,518.4 221.4,512 C223,510.1 224,509.2 224.6,509.1 L224.6,509.1 Z M173.9,509.3 C177.2,509.2 189.1,518.1 193.9,525.9 C197,531 197.9,533.1 197.2,533.8 C196.8,534.2 195.1,534.2 194.2,533.9 C193.4,533.6 193.1,532.4 191.6,529.5 C187.7,522.1 182,516.8 175.9,513.9 C174.8,513.4 174.1,513 173.8,512.6 C173.4,511.9 172.8,509.5 173.9,509.3 L173.9,509.3 Z M175.7,515.9 C176.7,516.1 179.6,518 182,519.7 C186.3,522.8 192.7,532.3 191.4,533.7 C191,534.1 189.5,534.2 188.7,533.9 C184.1,525.8 178.2,521.9 175.8,519.7 C175.1,518.5 173.4,515.6 175.7,515.9 L175.7,515.9 Z M166.2,517.3 C166.4,517.3 167.2,518 168.6,519.6 C172.9,524.1 175.6,529.1 175,531.6 C174.5,533.7 173.8,532.6 169,523.2 C166.9,519.3 165.9,517.4 166.2,517.3 L166.2,517.3 Z M224.6,517.5 C224.7,520.1 224.5,520.7 224.2,522.1 C224,523 223.4,523.5 222.8,524.2 C221.3,526 219.7,529.1 218.9,531.7 C218.2,533.7 218.5,534.2 216,534 C214.8,533.8 215.1,533.5 215.6,532.2 C217.2,527.6 221,520.5 224.6,517.5 L224.6,517.5 Z M176.1,522.3 C176.2,521 187.6,532.5 186,533.7 C184.5,534 183.6,534 183,533.5 C181.8,530.8 176.4,525.6 176.4,525.6 L176.1,522.3 Z M224,525.9 C224,525.9 224,525.9 224,525.9 C224.6,526 224.3,533.1 223.9,533.6 C223.1,534 221.5,534 220.7,533.6 C220.2,533.3 220,532.8 220.2,532.3 C220.7,531 223.2,526.1 224,525.9 L224,525.9 Z M181,533.7 C180.6,534.3 178.4,534.4 177.6,533.7 C177.3,533.5 177.1,530 177.4,529.4 C178.2,528.8 181.2,532.9 181,533.7 L181,533.7 Z" id="Shape" fill="#131F67" fill-rule="nonzero"></path>
            <path d="M33,25.7 C24.1,25.9 19.7,33.3 19.7,40.7 L19.7,60.2 L14.4,60.2 L14.4,66.7 L19.7,66.7 C19.7,66.7 19.8,69.7 19.8,71.4 C19.7,80.2 22.8,85.5 28.9,86.9 C34.7,88 37.7,86.7 42.1,84.4 C43.7,85.1 44.8,86.4 46.5,86.6 C48.4,86.8 52.3,86.7 52.3,86.7 L52.2,80.1 L50.2,79.8 C46.4,79.7 44.8,78.4 45.2,76.1 C46,74.6 46.1,73.4 46.2,71.6 L46.2,38.6 C46.1,30.5 39.5,25.7 33,25.7 L33,25.7 Z M32.7,32.1 C36.9,32 40.4,37 40.4,42 L40.5,67.5 C40.6,69.1 40.4,70.7 39.7,71.8 C39.1,70.2 30.4,61.2 26,61.6 C26,61.6 25.8,62.1 25.7,50.9 C25.6,45.4 24.2,37.2 29.1,33.5 C30.3,32.5 31.5,32.1 32.7,32.1 L32.7,32.1 Z M262.1,54.2 L263.5,56.1 L255.2,56.1 C256.6,57.3 287.5,119.5 327.1,191.5 C333.6,204.1 346.1,208.7 360.6,209.2 L322.2,147.3 C326.3,145.1 334.4,139.1 339.3,140.2 C339.6,141.7 341.1,141.1 341.1,139.8 L342.9,139.8 L343.5,140.8 L351,140.8 L351.6,139.9 L358,140.8 C340.8,119.6 331.7,86.9 334.7,55 L277.6,55.1 L276.8,54.1 L262.1,54.2 Z M189.5,97.6 C183,118.5 167,135.8 157.5,153.1 C147.3,172 144.9,188.5 147.8,206.5 L149.7,206.7 C171.5,177 188.3,141.5 197.8,106.6 C198,105.8 197.7,104.5 197.8,103.7 C197.4,102.8 197.7,101.8 198,101.5 C198.6,100.9 198.4,98.7 197.9,94.9 C196.9,83.8 197.1,75.1 198,65 C198.7,57.3 198.7,56 198.7,56 L195,55.9 C195.6,69.3 193.9,85.5 189.5,97.6 L189.5,97.6 Z M279.2,57 L285.3,57.1 C286.2,75.8 302,78.2 304.4,78 C300.4,90.7 307,104.5 323.1,106.5 C319.4,118.2 325.9,133.7 338.8,133.3 L340.2,134.2 C339.4,135.9 339.2,139.4 339.2,139.4 C336.3,139.6 334.8,140 332.9,140.4 C316.3,115.3 279.2,57 279.2,57 L279.2,57 Z M333.6,57 C331.7,77.9 335.9,106.6 345.8,123.6 C345.8,123.6 345.5,124.7 345.3,125 C344.4,126.4 343.9,125.2 343.3,124.1 C341.2,120.2 337.3,119.6 335.5,121.8 C331.7,127 335.8,129.1 339,132 C325.9,131.2 321.5,116.7 324.5,109.6 C324.4,111 325.2,113 326.1,114.5 C329.8,120.1 335.2,115.4 333.6,110.9 C333,109.1 330.6,106 330.6,106 C330.6,106 333.8,105.5 335.1,104.7 C336.3,103.9 337.1,102.6 336.8,100.8 C336.6,99.3 336.5,98.7 335.7,97.4 C334.7,96.2 333,95.4 331.6,95.4 C328.9,95.6 328.6,97.4 326.8,98.7 C326.4,95.3 324.2,92.8 320.7,93.4 C318,93.9 316.1,96.7 317.7,100.3 C318.5,102.1 319.7,102.7 320.9,104.2 C302,102.1 304.1,79.7 306.2,80.1 C306.2,80.1 306.8,80 306.6,80.8 C305.5,86.3 312.3,89.6 315.3,85.6 C317.2,82.4 313.1,77.3 313.1,77.3 C313.1,77.3 315.8,76.7 317.1,76 C322,73.2 316.8,65 312.2,67 C310.6,67.7 310.2,69.2 308.6,70 C307.5,68.8 307.5,67.6 305.6,66.5 C300.4,63.6 297.2,70.4 300,73.4 C301.2,74.6 303.2,75.7 302.8,75.9 C286.7,73.9 286.9,57.1 287.3,57.2 L333.6,57 Z M195.6,57.1 L197.8,57.1 C197.1,67.1 195.7,80.2 196.7,89.9 C197.8,99.2 197.8,100.5 197.2,101.4 C196.3,102.4 196.8,102.9 196.9,103.7 C197.1,105.2 197.2,105.2 196.9,106.1 C195,113.9 192.5,122 189.3,130.1 C179,158.6 162.1,189.7 148.9,205.9 C148.9,205.8 148.3,206 148.3,205.9 C144.7,183.2 152.4,164.2 156.4,156.4 C164.6,140.6 177.4,127.2 185.1,110.7 C191.6,96.9 196.4,80 195.6,57.1 L195.6,57.1 Z M276.9,57 L330.7,140.7 L320.9,145.5 L265.8,57.2 L276.9,57 Z M114.7,65.8 C95.6,66.1 86.3,90.1 102.3,101.6 C105.2,103.7 106.1,104.9 105.3,105.7 C104.6,106.4 103.8,106.1 102.3,104.6 C89.9,92.4 70.6,99.1 68.8,116 C65.8,144.1 100.8,151.4 109.7,124.7 C112.3,117 113.4,125.3 110.9,133.5 C108.8,141 105.2,148.7 101,155.1 C100.3,156.2 99.3,157.5 99.3,157.5 L130,157.5 C130,157.5 129,156.2 127.6,154.6 C122,146.3 119,137 118,127.2 C117.8,124.4 117.9,122.3 118.4,122 C119.3,121.4 119.9,122.1 120.9,125.4 C122.9,132.2 126.8,137.7 131.1,139.8 C141.5,144.1 150,142.8 157.1,133.3 C172.5,112.8 147.3,87.5 129.4,104 C127.8,105.5 126.7,105.7 126.6,104.4 C126.5,103.8 127,103.2 129.2,101.1 C144.6,88.8 136.9,67.8 117.6,65.7 C116.6,65.8 115.7,65.8 114.7,65.8 L114.7,65.8 Z M37.1,78.6 C37.5,79.4 36.1,80.2 34.5,80.6 C30.2,81.8 25.9,79.1 25.8,72.9 C25.8,71 25.6,69 26.3,68.7 C28.3,67.8 35.9,76.2 37.1,78.6 L37.1,78.6 Z M308.5,73.4 C309.9,73.4 311,74.5 311,75.9 C311,77.3 309.9,78.4 308.5,78.4 C307.1,78.4 306,77.3 306,75.9 C305.9,74.5 307.1,73.4 308.5,73.4 L308.5,73.4 Z M32.1,95.5 C23.4,95.5 18.8,107.4 27.1,114.5 C28.6,115.7 29.1,116.9 29,117.1 C28.8,117.7 28.5,117.2 26.8,116 C19,110.5 9.6,115.4 10.4,123.3 C11.6,134.6 24.3,137.3 28.8,126.8 C29.6,125 30,124.4 30.4,124.4 C30.8,124.4 30.8,125.2 30.7,126.4 C29.9,131.3 27.5,136.5 24.8,140.6 L39,140.6 C36.1,136.2 34.9,131.9 34.1,126.5 C34,125.1 34.2,124.1 34.8,124.1 C35.2,124.1 35.4,124.6 36,127 C38.3,135.9 52.1,135.5 54.4,126.4 C57,116.3 47.4,109.1 39.6,115.5 C38.5,116.4 37.2,117.1 37,116.4 C36.9,116.2 37.6,114.9 38.9,113.8 C46.8,105.9 41.5,95.5 32.1,95.5 L32.1,95.5 Z M326.3,101.3 C327.7,101.3 328.9,102.4 328.9,103.9 C328.9,105.3 327.8,106.5 326.3,106.5 C324.9,106.5 323.7,105.4 323.7,103.9 C323.8,102.5 324.9,101.3 326.3,101.3 L326.3,101.3 Z M198,106.3 C198.9,109.9 180.9,164.7 155.3,199.6 L166.5,199.8 L166.9,201 C182.5,224.1 172.8,244.6 160.1,254.1 L164.5,259.9 L160.6,263.1 L156.7,258.4 C124.7,282.4 62.1,335.6 62.1,335.6 L62.5,344.1 L67.4,340.3 C99.1,371 166.4,369.3 184,305.9 L188.7,306 C178,352.4 134.6,370.6 101.9,362.9 L94.2,373.9 L96.3,375 C95.9,374.4 95.6,374.2 96.1,373.7 L102.6,365.3 C151.6,371.6 181.2,343.8 190.8,306.3 L197.1,306.4 C191.7,338 176.9,365.7 155.8,387.5 C140.6,387.4 113.8,387.1 113.8,387.1 C123.5,396.6 142.2,425.4 142.9,428.3 C142.9,428.3 162.1,428.9 182.6,428.4 C190.1,425 200.2,423.7 204.9,426 C213.2,430.2 220.9,445.6 224.4,470.4 C225.3,476.8 226.1,479.5 226.4,480.8 C226.4,481 227,481.2 227.1,481.2 C227.4,481 226.6,482.3 226.6,483.3 C226.6,484.3 226.6,485.7 227.1,486.2 C227.7,486.8 227.6,487.3 227.5,487.5 C227.4,487.7 226.3,488.7 226.3,488.7 C226.1,503.2 226.2,516.3 225.4,534.1 L228.2,534.1 C228.2,505.5 236.8,479 250.1,460.8 C258.2,448.8 266.7,436 271.5,423.7 C276.8,409.9 277.6,395.4 274.7,383.1 L272.7,383.2 C261,375.2 256.2,358.1 270.7,345.8 L265.6,339.2 C251.2,350.3 247.9,370.9 262.8,387.8 L257,387.8 C242.4,369.6 245.7,348.8 262.5,333.9 L258.7,329.1 L262.8,325.5 L266.5,329.5 L360.3,251.1 L360.2,242.5 L353,248.3 C310.9,209.4 248.5,236.7 239.3,283.6 L233.6,283.7 C245.6,233.2 289.8,219 321.8,225.7 L329.7,213.8 C322.6,211.8 315.6,206.6 309.4,200.5 C309.2,200.3 307.9,200.8 307.7,200.6 C307.5,200.4 308.5,199.7 308.3,199.5 C292.8,183.5 282.2,160.5 281.7,160.5 L240.5,160.4 C234.5,163.4 224.1,166.8 218.4,162.2 C206.2,152.4 202.1,132.5 200.4,119.7 C199.9,115.7 199.5,108.8 199.1,106.5 C198.9,106.3 198.4,106.2 198,106.3 L198,106.3 Z M344,128.4 C345.4,128.4 346.5,129.5 346.5,130.9 C346.5,132.3 345.4,133.4 344,133.4 C342.6,133.4 341.5,132.3 341.5,130.9 C341.5,129.5 342.6,128.4 344,128.4 L344,128.4 Z M349.4,131.3 C351.4,133.9 353.2,136.6 354.2,139.5 C353.2,139.5 352.4,139.8 351.3,138.9 C351.1,136 349.9,134.3 348.4,132.3 L349.4,131.3 Z M341.8,135 C342.6,135.4 343.3,138.5 342.7,139.1 C341.7,139.3 341,139.2 340.7,138.9 C340.2,138.1 341.2,135.2 341.8,135 L341.8,135 Z M178.1,162.3 L216.3,162.3 C222.9,167.4 229.4,166.7 238.9,162.6 L281.4,162.6 L283.8,167 L176,167 C176.6,165.5 178.1,162.3 178.1,162.3 L178.1,162.3 Z M174.9,169.2 L284.9,169.2 L287.7,173.7 L172.2,173.7 L174.9,169.2 Z M185.5,175.7 L197.8,175.7 L193.2,183.5 L180.5,183.5 L185.5,175.7 Z M212.9,175.7 L224.7,175.7 L219.5,183.5 L207.8,183.5 L212.9,175.7 Z M251,175.7 L246,183.5 L234,183.5 L239.1,175.8 L251,175.7 Z M265.8,175.7 L277.6,175.7 L273.2,183.5 L261,183.5 L265.8,175.7 Z M107.3,176.9 C99.6,176.8 101.1,187 101.8,186.6 C97,185.5 93.4,187.8 92.9,191.9 C92.4,195.2 95.6,199.8 101.2,199.1 C100.5,200 101.2,204.9 102,205.3 C102,205.3 102.1,206 99.2,212.1 C95.7,219.3 95,219.7 93.4,214.9 C91.7,209.8 89.1,207.2 82.3,203.9 C80.5,203 77.9,201.5 76.6,200.5 C73.5,198.2 73.5,198.2 73.7,202.9 C73.9,209 75.7,211.6 82.2,215.2 C85.4,216.9 91.4,219.4 92.5,219.4 C93.3,219.4 96.1,220.7 100.3,222.9 C101.1,223.3 103.9,224.9 107.5,225.2 C111.3,225.5 119.9,224.6 124.9,221.7 C127.7,220.1 128.8,218.6 130.8,214.5 C130.8,214.5 123.7,214.9 120.5,214 C113.8,213.6 110.5,214 105.4,216.6 C101.1,218.8 100.9,219.2 102.7,215.5 C103.5,213.8 104.3,211.9 105,209.9 C105.7,207.9 105.9,207.8 107.8,207.6 C111.9,207.2 114.2,204.8 114.6,200.7 C114.7,199.6 114.5,198.4 114.5,198.4 C117.3,198.8 123,197.4 122.8,191.7 C122.6,186.5 119,185.3 114.4,185 C114.8,182.6 112.8,176.9 107.3,176.9 L107.3,176.9 Z M107.4,178.5 C114.1,178.5 113.9,184.7 111,188.2 L107.4,185.3 L104.5,188 C101.5,185.9 101.5,178.4 107.4,178.5 L107.4,178.5 Z M290.8,178.5 L294.1,183.4 L287.3,183.4 L290.8,178.5 Z M165.7,185.5 L178.3,185.5 L173.2,192.6 L161.3,192.6 C161.3,192.7 164,188.1 165.7,185.5 L165.7,185.5 Z M205.5,185.5 L200.7,192.9 L189.7,192.9 L194.1,185.7 L205.5,185.5 Z M220.2,185.5 L231.6,185.5 L227.1,193.4 L215.8,193.4 L220.2,185.5 Z M247.1,185.5 L258.6,185.5 L253.9,193.4 L242.5,193.4 L247.1,185.5 Z M273.3,185.5 L285.2,185.5 L280.3,193.4 L268.8,193.4 L273.3,185.5 Z M107.6,187 L113.3,192.7 L107.8,198.2 L102.1,192.7 L107.6,187 Z M122,192.6 C121,199.2 114.6,198.9 112.8,195.6 L115.4,192.6 L112.2,189.5 C115.2,184.5 122.7,187.6 122,192.6 L122,192.6 Z M102.9,189.4 L99.8,192.8 L103.2,196 C101,199 92.7,198.8 94.4,191.5 C95.4,187 100.1,186.2 102.9,189.4 L102.9,189.4 Z M297.3,188.5 L300.8,193.3 L294.2,193.4 L297.3,188.5 Z M160.4,194.5 L301.6,195 L305.4,199.6 C256.1,200.4 207.9,198.8 157.5,198.8 L160.4,194.5 Z M110.8,197.5 C116.4,200.9 112.3,208.2 106.3,206.9 C101.8,204.9 100.9,200.3 104.9,197.6 L108.1,200.2 L110.8,197.5 Z M159.2,200.2 L155.3,200.2 L151.5,204.6 C165.7,219.5 165.2,232.5 152,243.8 L157.3,249.8 C172.2,237.1 175.5,217.2 159.2,200.2 L159.2,200.2 Z M173.8,200.8 C181.7,213.2 188.6,236.8 164.9,258.3 L162,254.8 C182.6,234.7 177.8,217.7 168.5,200.9 L173.8,200.8 Z M176,201.1 L208.1,201.2 C201.2,227.3 196.4,242.7 195.7,283.7 L186.4,283.8 C187.4,282.9 181.6,259.1 174.8,250.9 C189,226.7 181.3,213.1 176,201.1 L176,201.1 Z M75.2,201.2 C75.8,201.2 76.9,201.9 79.1,203.2 C81.1,204.4 83.7,205.9 84.9,206.6 C89.3,209.1 91.5,211.4 92.7,215 C93.6,217.7 93,217.7 90.4,215.2 C88.4,213.3 86.3,211.7 80.9,208.1 C79,206.8 78.4,207 79.5,208.6 C80.3,209.7 82,211 85.4,213.1 C87.9,214.6 91.3,217.6 91,218.1 C90.8,218.5 90.3,218.5 89.1,218 C88.5,217.7 86.8,217 85.1,216.4 C78.1,213.6 75.1,210.1 74.7,204.3 C74.7,202.1 74.5,201.2 75.2,201.2 L75.2,201.2 Z M221.4,201.3 C221.4,201.3 222.4,202.6 222.5,203.1 C222.8,204.3 221.6,205.3 218.1,206.9 C216.9,207.4 215.9,207.7 215.9,208.5 C216.1,210.2 219.3,212.7 218.9,215 C218.2,216.7 213.7,218.4 212.6,220.5 C212.6,221.9 215.5,224.1 215.1,226 C214.9,226.6 213.9,227.2 212.6,228.4 C209.8,230.8 209.6,231.2 210.6,233.1 C213,237.5 213.1,237.2 209.8,240.3 C206.5,243.5 206.6,243.4 208.1,246.2 C209.8,249.2 209.7,249 207.4,250.9 C205.2,252.8 205.3,253.1 206.4,255.4 C207.6,257.6 207.8,257.7 205.9,259.4 C203.6,261.4 203.2,261.6 204.8,264.2 C206.5,266.8 206.6,266.7 204.7,268.9 C202.9,270.9 202.7,271 203.7,272.4 C204.9,274.1 205.1,274.6 203.9,276.5 C202.5,278.6 202.5,278.4 203.8,280.3 C204.9,281.9 204.7,283.7 204.7,283.7 L200.7,283.7 C200.7,283.7 200.7,281.4 200.2,280.6 C199.1,278.6 199.1,277.9 200.4,276.1 C201.8,274.2 201.5,274.1 200.3,272.2 C199,270.3 199.2,270.3 200.9,268.2 C202.4,266.2 202.5,265.3 201.6,264.2 C199.5,261.6 199.5,260.4 201.6,258.7 C203.2,257.4 203.3,256.8 202,254.5 C200.7,252.3 200.5,252.1 203,249.8 C205.5,247.5 205.5,247.6 203.8,245 C202.2,242.5 202.3,242.3 204.9,239.9 C207.6,237.4 207.6,237.4 205.8,234.3 C204.2,231.4 204.1,231.4 207.3,228.6 C210.5,226 211.6,225.6 208.4,221.8 C206.6,218.8 207.9,218.5 210.8,217 C215.9,213.9 213.6,214.1 211.4,209.5 C209.6,206.4 210.6,206.4 213.8,204.8 C214.6,204.5 215.4,204.1 216.3,203.6 C218.4,202.4 217.3,201.4 217.3,201.4 L221.4,201.3 Z M228.1,201.3 L243.4,201.5 C225.7,224.1 217.1,253.1 214.1,283.7 L208.3,283.6 C207.9,259.8 215.4,230 228.1,201.3 L228.1,201.3 Z M306.7,201.9 C315.5,209.3 321.9,213.5 326.6,215.1 C326.6,215.1 320.4,225.3 320,225 C284.5,218.2 242.3,238.9 232.7,283.5 L227.1,283.5 C229.2,266 233.8,251.4 242.3,236.1 C250.7,221.3 258.5,212.6 270.2,201.7 L306.7,201.9 Z M245.6,201.5 L253.1,201.6 C253.1,201.6 254.5,203.3 255.2,203.9 C258.4,207.6 258.7,206.9 251.6,210.9 C247.1,213.5 245.1,214.6 244.8,215.7 C244.6,216.8 246.8,218.9 247,220.4 C247,220.6 240.8,224.7 239.7,225.3 C238.1,226.1 238.1,226.7 239.6,229.4 C241.4,232.5 241.2,232.4 237.4,235 C233.7,237.6 232.9,237.4 234.5,239.9 C236.7,243.5 235.7,244.3 230.5,247.1 C229.2,247.8 229.2,248.5 230.1,251 C231.4,254.4 231.7,254.1 229,255.9 C225.8,258.1 225.3,258.1 226,259.5 C228,263.4 228.8,264.3 226.1,265.6 C224,266.6 224,267.1 225.1,269.7 C226.3,272.3 226.6,272.2 224.5,273.6 C222.6,274.9 221.5,274.6 223.3,276.9 C224.8,278.6 224.6,280 223.4,281.1 C222.4,281.5 221.9,283.5 222.2,283.5 L219.6,283.6 C217.5,280.8 220,279.2 220.3,278.9 C220.6,278.3 220.2,277.8 219.4,276.3 C218.2,274.2 218.3,274 219.9,272.7 C221.6,271.5 221.6,271.8 220.5,269.1 C219.2,265.9 219.3,265.6 221.3,264.1 C223.3,262.7 223.3,262.3 222,259.6 C220.6,256.7 220.6,256.7 224.1,254.3 C226.6,252.6 226.6,252.7 225.3,249.6 C224.4,247.5 225,246.7 228.4,244.4 C230.3,243.1 230.5,242.8 229.6,241.2 C227.1,236.8 227.1,236.7 231.5,233.9 C235.1,231.6 235,231.4 233.7,228.3 C232.2,225 232.1,225.2 237,222.3 C241,219.9 241.3,220 239.6,217.1 C237.5,213.5 237.7,214.1 245.7,209.5 C248.6,207.5 251.2,208.2 248.3,204.8 C247.1,203.3 245.6,201.5 245.6,201.5 L245.6,201.5 Z M103.3,207.5 C103.9,207.5 104.3,208.2 104.3,209.4 C104.2,211.2 103.4,213 102.5,214.7 C100.8,218.3 99.1,221 98.2,221 C96.1,221 96.2,220.6 99,215.1 C100.3,212.6 101.6,209.7 101.8,209.2 C102.2,208 102.8,207.5 103.3,207.5 L103.3,207.5 Z M129.2,215.7 C129.2,223.4 105.1,227.3 103.9,223.4 C108.1,220.1 120.5,221.6 123.2,218.6 C120,218.4 115.7,218.9 112.8,219 C109.1,219.1 103.2,220.6 103.1,221.3 C102.7,219.3 109.4,215.5 114.7,215.2 C119.6,215 125,215.6 129.2,215.7 L129.2,215.7 Z M131.2,227.4 C131.2,227.4 84.2,266.3 61,285.1 L61.1,293.5 L135.4,232.6 L131.2,227.4 Z M131.1,229.3 L134.1,233 L64.3,289.9 L64.1,283.9 L131.1,229.3 Z M351.7,249.3 L349.2,252 C281,201.3 218.3,278.3 252.9,333.4 C252.6,334.1 250.2,335.9 250.2,335.9 C211.5,271.8 285.4,197 351.7,249.3 L351.7,249.3 Z M314.2,238.2 C318.1,238.2 325.2,240.9 328.2,244.5 C331.7,248.7 330.7,250.6 326.2,246.6 C321.4,243.1 317.5,242.3 324.1,246.4 C325.6,247.3 326.9,249.1 326.9,249.3 C327.2,250 325.9,249.3 320.4,247.2 C317.1,246 312.9,242.7 311.8,240.5 C311,238.9 312.1,238.2 314.2,238.2 L314.2,238.2 Z M299.8,238.3 C301,238.3 302.1,238.4 302.9,238.6 C307.8,240 309.3,240.7 311.1,242.1 C312.3,243.1 311.9,243.8 310.5,243.1 C308.8,242.4 303.5,240.8 302.5,240.9 C301.1,241 302.5,241.9 304.5,242.4 C308.9,243.5 311.1,244.6 307.9,244.7 C306.3,244.9 299.1,245 297.1,244.7 C293.8,244.3 288.9,241.3 290.1,240.3 C291.4,239.3 296.2,238.3 299.8,238.3 L299.8,238.3 Z M285.8,242.9 C291.6,243 294.7,245.1 288.4,245.6 C277.5,247.3 275.5,249.7 287.5,246.9 C290.3,246.2 290.2,247.3 288.3,248.2 C286.7,249 284.7,249.3 283.1,250.1 C280.1,251.3 273.3,251.6 270.7,250.6 C266.8,249.1 279.1,242.8 285.8,242.9 L285.8,242.9 Z M332.3,243.8 C335.2,243.9 341.5,248.1 344.2,252.1 C346,254.7 345.1,256.6 342.4,254.5 C341.9,254.1 337.9,250.7 337.7,250.7 C337.3,250.6 341,254 341.5,255 C342,255.8 343,257.7 341,257.7 C337.9,257.3 330.7,249.3 330.7,245.3 C330.8,244.3 331.4,243.8 332.3,243.8 L332.3,243.8 Z M296.1,246.1 C297.3,246.1 296.7,246.7 294.4,248.3 C290.2,251.2 292.4,250.6 297.3,248.1 C298.8,247.3 300.6,246.7 301.2,246.6 C301.8,246.5 302.6,246.3 302.9,246.2 C304.2,245.8 303.2,247.4 301.1,249.1 C296.6,252.7 291.6,255.5 288.1,256.4 C283.6,257.5 282.7,257.6 284.3,254.9 C286.9,250.5 290.7,247 294.4,246.3 C295.1,246.2 295.7,246.1 296.1,246.1 L296.1,246.1 Z M311.1,246.2 C313,246.2 315.2,246.5 318.9,247.3 C321.4,248.1 320.8,248.3 317.7,248.6 C312,249.2 314.4,249.9 319.9,249.8 C327.5,249.7 316.1,252.5 312.4,253.1 C309.5,253.2 308.7,253.1 302.4,251.9 C300,251.4 301.4,249.7 306,247.5 C307.8,246.7 309.2,246.2 311.1,246.2 L311.1,246.2 Z M358,247.2 L358.2,252.1 L266.2,329 L263.1,325.5 L358,247.2 Z M326.7,251.4 C330.4,251.4 335.7,253.9 335.1,255.4 C334.9,256 334.5,255.9 331.7,255.2 C329.9,254.7 326.6,254.2 327,254.6 C327.1,254.7 329.7,255.7 330.7,256 C333.9,256.8 337.8,258.6 337,259.2 C335.5,260.1 334.1,259.4 332.3,259.2 C327.9,258.6 320.6,256.3 319.4,255.2 C318,253.9 322.8,251.5 326.7,251.4 L326.7,251.4 Z M283.8,251.7 C284.5,251.7 284.7,252.3 284.1,253.2 C283.1,254.5 282.7,255.5 281.8,257.1 C278.7,261.9 276.8,263.7 273.8,265.6 C270.8,267.4 270.4,267.1 270.7,263.3 C271,259.3 273.9,255.1 277.9,253.2 C279.8,252.9 280.8,252.5 278.9,254.8 C275.5,258.9 277.8,258.5 281,253.8 C282.1,252.2 283.2,251.7 283.8,251.7 L283.8,251.7 Z M271.9,252.3 C273.9,252.3 274.6,253 272,254.2 C269.6,255.3 264.7,258.7 264.6,259.1 C264.4,259.7 266.2,258.7 269.2,257.1 C273.2,254.9 273.6,255 271.6,257.5 C269.4,260.3 264.1,263.9 260,265.2 C254.2,266.8 254.3,265.7 257.6,261.4 C260.7,256.7 263.3,254.5 267.3,253.2 C269,252.5 270.7,252.3 271.9,252.3 L271.9,252.3 Z M173.4,253 C194.5,289.3 182.8,326.3 158.3,345.1 C132.7,364.8 93,363.6 69.5,340 L72.8,336.9 C72.8,336.9 109.8,374.6 156.4,341.2 C180.1,324.2 189.8,284.1 170.3,256.2 L173.4,253 Z M79,253 C78.9,253 78.9,253 78.8,253 C78.1,253.5 75.4,261.3 74.9,264.6 C74.7,265.5 75,266.5 75.8,267.2 C76.4,267.7 77.2,267.4 77.5,267.3 C79.3,266.5 80.3,265.3 81.8,261.3 C82.8,259.1 83,256.6 82.8,255.7 C82.7,255.3 82.1,254.5 81.4,254 C80.6,253.6 79.5,253 79,253 L79,253 Z M79.4,254.7 C80.2,254.7 81.9,256.1 82.1,257 C82.1,258.7 81.1,261.5 80.4,261.1 C79.2,259.6 77.8,260.5 77.5,260 C77.3,258.3 78.4,256.1 79.2,254.7 C79.3,254.7 79.3,254.7 79.4,254.7 L79.4,254.7 Z M307,256 C316.4,256 325.7,258.7 332.5,264.8 L328.8,268.1 C312.8,256.7 294.1,260 283,267.7 C272,275.3 262.3,292.2 271.8,316.1 L268.4,319.2 C257.7,300 263.5,274.7 282.3,262.8 C288.9,258.6 297.5,256.2 306,256 C306.4,256 306.7,256 307,256 L307,256 Z M168.4,258.8 C168.7,258.8 169.1,259.7 169.1,260.9 C169,262.3 168.5,264.1 167.5,264.4 C166.4,264.8 165.8,261.7 165.8,261.7 C166.5,260.7 167.3,259.7 168.4,258.8 L168.4,258.8 Z M336.2,259.9 C336.6,259.9 336.9,259.9 337.3,259.9 C338.4,260 338.4,261 337.4,261.9 C336.3,262.9 335.8,262.9 334.7,262.1 C333.7,261.4 333.7,260.9 334.5,260.3 C334.9,260.1 335.6,259.9 336.2,259.9 L336.2,259.9 Z M156.2,260.1 L159.3,263.9 L148.5,272.6 L147.2,272.7 L64.8,341 L64.8,334.9 L156.2,260.1 Z M328.5,269.4 L317.3,278.7 C294.9,267 276.8,287.8 283.2,306.7 L273.5,315.1 C256.1,267.4 306.9,251.1 328.5,269.4 L328.5,269.4 Z M269.7,262.1 C269.8,262.1 269.8,262.1 269.7,262.1 C269.9,262.1 269.9,262.2 270,262.2 C270.4,262.6 269.6,268.9 269,270.1 C268.8,270.5 268.6,271.1 268.6,271.3 C268.6,271.8 266.5,276.2 264.9,279 C264.3,280.1 263.6,281.5 263.5,282.2 C262.2,288.5 259.4,278.4 260.4,272.6 C260.9,269.9 264.8,264.2 265.9,264.6 C266.5,264.8 266.4,265.2 265.4,267.4 C262.6,273.5 261.9,276.7 264.8,270.8 C268.3,263.9 269.2,262.2 269.7,262.1 L269.7,262.1 Z M78.9,262.2 C79.3,262.2 79.6,262.5 79.8,262.9 C79.9,263.3 80.1,264.2 79.8,264.6 C79.2,265.9 78,266.7 76.8,266.7 C76.3,266.7 75.7,266.2 75.6,265.6 C75.5,265.1 75.7,264.2 76.3,263.5 C77.3,262.7 78.2,262.2 78.9,262.2 L78.9,262.2 Z M164.4,262.6 C165.7,262.7 167.1,266.2 166.2,267.9 C165.5,269.2 165.3,269 164.1,266.4 C163.4,265 162.9,263.6 162.9,263.6 L164,262.7 C164.1,262.7 164.2,262.6 164.3,262.6 C164.4,262.6 164.4,262.6 164.4,262.6 L164.4,262.6 Z M162.2,264.1 C162.2,264.1 163.6,266.6 163.9,268.7 C164.1,269.9 164.1,269.7 162.7,269.2 C161.6,268.5 161.4,268.2 160.7,267.3 C160.3,266.5 159.8,266 159.8,266 L162.2,264.1 Z M170.6,264.7 C171.3,264.7 172.1,265.4 172.8,267.1 C175.4,273.7 175.2,281 172.2,284.5 C171.7,285.1 171.6,285.1 171,284.7 C170.5,284.4 170.5,281.3 170.9,280.4 C171,280.1 171.5,278.2 171.5,277.2 C171.6,274.7 170.9,274.4 170.6,276.7 C170.2,279.4 169.8,281.3 169.1,279.7 C168.7,278.9 168.5,278.1 168.3,277.2 C166.8,271.5 168.5,264.7 170.6,264.7 L170.6,264.7 Z M159.2,266.3 C159.2,266.3 161.7,269.5 162.7,270.7 C163.1,271.3 163.1,271.5 162.5,271.7 C161.5,272.1 158.2,269.9 156.9,269.2 C156.2,268.6 156.5,268.2 156.5,268.2 C157.4,267.6 158.3,266.9 159.2,266.3 L159.2,266.3 Z M258.3,266.5 C259.6,266.5 259.6,267 258.2,269 C250.2,280.5 251.8,278.8 256.9,272.5 C259.7,269 260.2,268.7 260.5,269.5 C260.7,270.1 257.4,276.9 255.6,279.3 C254.7,280.6 251.6,282.7 250.1,283.5 C246.3,285.4 246.7,284.7 248.1,279.9 C250,272.5 254.5,266.5 258.3,266.5 L258.3,266.5 Z M154.6,270.4 C176.5,324.9 116.5,348.8 89.5,323.6 L92.7,321.1 C130.4,346.6 167.5,305.7 150.5,273.7 C150.4,273.7 151.9,272.5 154.6,270.4 L154.6,270.4 Z M159.6,271.8 C163.2,272.2 168.5,278.8 168.8,282.4 C169.4,285 168.6,285.5 167.4,283.6 C165.2,279.6 165.5,282.1 167.3,286.1 C168.3,288.1 168.5,290.5 167.5,290.6 C166.1,290.3 163.1,285.5 162.2,283.6 C160,279.3 159.9,280 158.7,273.6 C158.4,272.4 158.7,271.8 159.6,271.8 L159.6,271.8 Z M148.7,273.5 C165.4,305.5 129.5,343.9 93,319.1 L103.9,310.4 C123,319.5 144.2,308.2 138.1,281.9 L148.7,273.5 Z M315.2,279.5 L285.1,304.6 C278.9,283.8 301.6,271.9 315.2,279.5 L315.2,279.5 Z M259.3,279.5 C260.3,279.3 261.1,285.6 261.3,294.4 C261.5,303 261.7,303.9 259,300.7 C257.9,299.4 256.5,298.2 255.9,297 C254.1,293.6 254.7,290.1 255.2,285.2 C255.7,280.6 257.3,281.3 257,286.1 C256.8,289.2 256.9,293.1 257.3,293.1 C257.5,293.1 257.5,292.8 257.4,292.4 C257.2,291.5 258.2,281.5 258.7,280.3 C258.9,279.8 259.1,279.5 259.3,279.5 L259.3,279.5 Z M176.3,283.3 C178.5,284.2 179.1,291.4 176.7,298.4 C175.7,301.4 174.1,303.4 171.8,304.6 C170.2,305.5 169.8,305.2 170.5,303.7 C171.9,301.2 172.6,298.7 173.2,295.5 C173.4,292.4 171.8,294.9 171.9,296.2 C170.6,302 168.9,302.9 169.2,296.8 C169.4,292.3 169.9,290.4 172.1,287.3 C173.1,285.7 174.3,283.6 176.3,283.3 L176.3,283.3 Z M251.8,284 C252.7,284 252.9,285.2 252.1,287.5 C251.5,289.1 249.7,294.4 249.9,294.4 C250,294.4 252.1,289.7 252.5,288.9 C253.2,287.6 253.4,287.4 254,287.5 C254.6,289.8 254,292.7 253.7,295.2 C252.5,301.5 248.2,308 246.5,306.1 C243.8,302.9 245.1,290.2 248.6,286.3 C250,284.7 251.1,284 251.8,284 L251.8,284 Z M137.2,285 C140.4,307.2 122.1,316.8 106.2,310 C106.5,309.9 137.2,285 137.2,285 L137.2,285 Z M212.2,285.4 L215.4,289.6 L221.3,289.9 L218.3,294.3 L221.3,300 L214.8,300.1 L211,304.4 L207.7,300.5 L202,300.2 L205.3,294.9 L202.6,289.8 L208.8,289.5 L212.2,285.4 Z M163.1,287.3 C163.8,287.3 167.5,292.1 167.8,293.8 C168.9,298 168.5,306.1 167,305.8 C165.3,300 166,297 165.4,297.7 C164.4,298.8 166,307.6 165.5,309.8 C165.2,310.4 164.3,309.7 163.3,308.3 C160.6,304.5 161,289.5 163.1,287.3 C163,287.3 163,287.3 163.1,287.3 L163.1,287.3 Z M358.8,296.3 L286.5,356.2 L290.7,361.6 L359,305.2 L358.8,296.3 Z M254.3,297.3 C254.6,297.2 255.3,297.7 256.7,299.2 C259.1,302.4 261.6,306.8 262.5,310.2 C262.9,311.5 263.4,313.2 263.7,314.1 C264.2,315.3 264.2,315.7 263.9,316 C262.6,317.5 257.4,313.7 255.7,309.9 C253.3,304.7 253.3,300 255.7,304.6 C256.6,306.3 257.6,308.7 257.6,307.7 C257.6,307.4 256.5,303.9 255.7,302.3 C255.3,301.4 253.5,297.5 254.3,297.3 L254.3,297.3 Z M358,298.8 L358.1,303.8 L290.7,360.1 L288.1,356.9 C288.1,356.9 351.6,304.1 358,298.8 L358,298.8 Z M252.8,301.8 C253.1,301.8 253.3,302.3 253.2,303.3 C252.9,306.6 252.1,313.7 252.3,314.3 C252.4,314.7 253.4,309.6 253.6,308.7 C254.8,304 256.5,315.3 255.5,320.3 C255.3,321.1 255,322.4 254.8,323.2 C254.6,324 254.1,325.3 253.8,325.7 C251.9,328.7 247.4,316.7 248.2,310.7 C248.6,306.9 251.7,301.7 252.8,301.8 L252.8,301.8 Z M174.9,304.5 C175.8,304.5 175.9,305.3 175.8,307.1 C175.3,313.3 171.1,319.9 166.6,321.6 C162.1,323.3 161.7,323 164.3,319.8 C166.3,317.3 167.6,314.8 167.2,314.4 C167,314.2 166.6,315.2 164.9,317.4 C162.8,320 162.5,317.8 164.4,313.9 C166,310.5 167.5,308.8 170.6,306.7 C172.8,305.3 174.1,304.5 174.9,304.5 L174.9,304.5 Z M215.9,306.4 C215,333.2 208.3,362.4 195.4,387.7 L183.3,387.7 C198.1,365.9 207.5,339 210.1,306.4 L215.9,306.4 Z M221.2,306.4 C221.2,306.4 223,308.3 223.7,309.5 C224.5,310.9 224.7,312.1 223.3,313.2 C221.6,314.7 220.9,314.1 223.7,317.7 C225.2,319.6 224.7,319.9 222.9,321.5 C221,323.1 220.9,323.2 222.7,325.5 C224.6,327.9 224.9,328.2 222.5,330.1 C220.3,331.8 220.3,332.1 222,334.8 C223.6,337.3 224.1,337.3 221,339.8 C218.4,342 218.3,341.4 220.8,345.4 C221.7,346.9 221.7,347 220,348.5 C215.9,352.2 216.1,351.9 216.7,352.9 C221.2,359.4 219.2,359.2 214.7,362.3 C213.8,363.1 214,363.9 216,367.2 C217.7,370 217.5,370.6 213.5,373.3 C209.3,376.2 209.2,376.5 211.3,379.5 C213.3,382.4 213.4,382.2 210.1,385.2 C208.6,386.5 207.4,387.8 207.4,387.8 L200,387.8 C200,387.8 201.6,386.4 202.6,385.6 C208.7,381.1 208.6,381.6 206.1,378.4 C203.8,375.5 204.1,375.3 206.3,373.7 C208,372.5 210.2,371.3 211.8,370.1 C212.7,369.5 212,368.9 210.5,366.1 C208.8,362.9 208.7,363.3 211.9,360.7 C215.3,357.9 215.4,358 213.5,354.4 C211.6,350.8 211.6,351.2 214,349.2 C217.5,346.4 217.6,346.5 215.8,343.2 C214.3,340.6 214.3,340.7 216.8,338.2 C219.3,335.7 219,335.9 217.5,333.6 C216,331.3 216.1,331 218.1,329.2 C220.2,327.3 219.9,327.4 218.2,325 C216.5,322.6 216.5,322.8 218.6,321 C219.7,320 220.8,319 220.8,318.6 C220.6,317.4 219.5,315.8 218.4,314.1 C218,313.5 218.8,313.3 220.1,311.9 C221.4,310.5 221.4,310.9 220.4,309 C219.9,308 218.8,306.3 218.8,306.3 L221.2,306.4 Z M201.4,306.5 L203.5,306.6 C203.5,306.6 203.9,307.1 204.3,307.6 C205.6,309 205.7,309.8 204.3,310.5 C203,311.2 203.5,312.2 204.6,313.8 C205.8,315.5 205.7,315.3 204.1,317 C202.4,318.4 201.5,318.8 203.4,321.4 C204.5,322.6 204.3,323.9 202.7,325 C201.4,325.8 199.3,326.5 201.5,329.7 C202.6,332 202.7,331.8 200.4,333.4 C197.4,335.5 196.8,335.2 198.2,338.3 C199.7,341.8 199.9,341.8 196.7,344.2 C193,346.9 192.9,347.1 194.4,350.4 C196,353.7 196,352.8 192.1,355.9 C189.2,358.1 188.6,358.2 189.4,360.1 C191,363.5 191.7,364.5 187,366.8 C181.6,369.5 181.4,369.7 183.9,373.8 C186,377.1 185.5,376.6 182.1,378.6 C177.1,381.5 174.9,382.7 174.8,383.6 C174.7,384.6 178.7,387.6 178.7,387.6 L171.7,387.8 C171.7,387.8 168.8,385.4 167.6,384.3 C164.5,381.2 164.4,382.2 174.9,377.2 C180.7,374.4 180.2,375 179.2,373.4 C176.4,368.6 176.3,368.1 181.5,365.5 C186,363.2 185.3,363.1 184.2,359.6 C183.2,356.6 183.4,356.9 185.8,355.1 C191.6,350.8 191.4,351.3 190.5,349.2 C189.6,347.1 188.9,346.2 189.6,345.2 C191.7,342.2 196.1,341.6 194.3,338 C193.5,335.7 193.2,335.2 195.7,333.2 C198,331.3 198,331.5 196.5,329 C194.7,326.7 195,326.3 197.6,324.5 C199.5,322.8 199.4,322.8 198.4,321.2 C197,318.9 197,318.8 199.1,317 C200.8,315.5 201.1,315.5 200,313.8 C198.6,311.6 198.8,311.2 200.7,310.1 C201.9,309.5 201.8,309.2 201.8,308.1 C202,307.7 201.4,306.5 201.4,306.5 L201.4,306.5 Z M227.5,306.6 L237.2,306.6 C240.3,324.5 245.7,331.9 248.8,337.6 C236.6,357.2 239.3,373.6 246.8,388 L216.2,387.9 C224,361 228,333.9 227.5,306.6 L227.5,306.6 Z M161.1,306.7 C161.5,306.7 161.7,307.2 162.3,308.3 C164.2,311.6 162.9,316.3 160,321.2 C157.9,324.9 157.5,322.1 158.5,316.8 C159.1,313.5 157.4,318.5 156.6,322.5 C156.2,324.7 155.1,326.4 154,326.3 C152.9,326.1 153.3,323.1 153.3,322.4 C153.5,317.6 155.3,314.2 158.8,309.4 C160.1,307.5 160.7,306.7 161.1,306.7 L161.1,306.7 Z M259.8,316.1 C260.3,316.1 260.9,316.3 261.7,316.7 C262.3,317.1 263.4,317.7 264.2,318.1 C266.9,319.6 267.1,320 265.8,321.5 C264.2,323.3 263.2,322.6 260.5,319.6 C258.7,317.6 258.7,316.1 259.8,316.1 L259.8,316.1 Z M258.9,320.1 C259.3,320.1 260.2,320.6 261.1,321.6 C262.9,323.6 262.6,325.3 260.7,324.8 C259.9,323.6 259.5,321.8 258.7,320.5 C258.6,320.3 258.7,320.1 258.9,320.1 L258.9,320.1 Z M345.4,320.4 C343.7,320.4 340.8,322.7 340.3,325 C338.6,332 338.6,331.7 340.1,332.7 C340.5,333 340.9,333.2 341.1,333.4 C342,334.1 343.2,335.2 343.3,334.9 C344.7,334.9 346.9,325.9 346.8,324.1 C346.9,322.1 347,321.9 346.5,321 C346.2,320.6 345.8,320.4 345.4,320.4 L345.4,320.4 Z M257.6,320.5 C257.7,320.5 257.9,320.5 258,320.7 C259.1,321.8 259.6,323.8 260.1,325.3 C260.1,325.6 260,326.1 259.8,326.4 C258.8,328.3 257.3,326.5 257.2,323.2 C257.2,321.4 257.3,320.6 257.6,320.5 L257.6,320.5 Z M345.1,321.9 C345.2,321.9 345.2,321.9 345.3,321.9 C346.5,321.9 346.3,323.1 344.7,324.9 C343.9,325.8 342.1,326.2 341.6,325.7 C340.8,324.9 342.5,322.6 344.4,322.1 C344.6,322 344.9,321.9 345.1,321.9 L345.1,321.9 Z M150.8,322.9 C150.9,322.9 150.9,322.9 151,322.9 C151.6,322.9 152.1,323.2 152.5,323.7 C153.3,324.6 152.9,326.1 152.6,327.3 C151.7,330.5 145.7,336.7 143.5,336.7 C142.2,336.5 147.6,329.7 147.7,328.5 C147.3,328.1 144,331.9 142.4,334.6 C141.7,335.8 140.9,337.3 140.5,337.6 C139.4,337.7 138.1,338.4 138.1,337.7 C138.3,334.3 145,326.9 147.2,324.8 C148.6,323.5 149.8,322.9 150.8,322.9 L150.8,322.9 Z M166.9,323.2 C172.1,323.1 161.9,334.4 155.3,336 C153.3,336.5 149.5,336.6 149.2,336.2 C148.9,335.8 149.2,335.4 150.1,335.2 C151.5,334.8 158.2,330.6 158.2,330.1 C158.2,329.5 155.4,330.5 153.1,332 C151.6,333 150.9,332.8 151.7,331.6 C155.4,326.2 160.6,323.3 166.9,323.2 L166.9,323.2 Z M256.1,323.2 C256.4,323.2 256.7,323.8 256.9,325.1 C257.8,327.5 257.9,328.2 257,328.9 C255.5,330.1 255.1,329.8 255.1,327 C255.1,324.7 255.6,323.2 256.1,323.2 L256.1,323.2 Z M86.3,326.4 C86.3,326.4 88.2,327.1 87.4,328 C86.9,328.6 84.5,328.1 84.5,327.9 L86.3,326.4 Z M345.2,326.5 C345.8,326.5 345.8,327 345.5,328.5 C345.3,329.3 344.6,333.2 343.3,334.3 C343.1,334.4 341.2,333.3 340.7,332.7 C340.5,332.5 339.7,331.9 339.6,331.5 C339.3,330.3 339.6,328.8 340.5,328 C340.9,327.7 341.6,327.5 341.9,327.5 C342.2,327.5 343.1,327.2 343.9,326.9 C344.5,326.7 344.9,326.5 345.2,326.5 L345.2,326.5 Z M86.9,329.2 C88.1,329.2 89.7,329.3 90.9,329.8 C94.7,330.9 101.7,334 102.7,335.1 C104.3,336.6 100.2,338.2 95.3,338.2 C92.7,338.2 92.2,337.7 88.6,335.5 C88.1,335.2 86,333.8 86.7,333.3 C87.4,332.6 89.4,333.5 91.9,334.8 C92.7,335.2 94.7,335.1 94.7,334.7 C94.7,334.3 89.7,332.4 86,331.2 C83.5,330.4 83.6,329.6 85.1,329.3 C85.6,329.3 86.2,329.2 86.9,329.2 L86.9,329.2 Z M82,330.9 C82,330.9 83,331.8 84.4,332.8 C85.9,333.9 87.5,335.2 88.7,337 C90.4,339.1 93.1,344.2 92.8,345.2 C92.1,347.3 84.9,343.6 79,337.7 C77.1,335.8 76,334.4 76,334.4 L78.2,332.4 C78.2,332.4 80.2,334.1 82.4,336.1 C86.7,339.9 86.6,338.6 82.3,334.6 C81.1,333.5 80,332.5 80,332.5 C80.2,331.7 80.9,331.1 82,330.9 L82,330.9 Z M257.5,331.1 C257.5,331.1 259.8,333.5 260.6,334.6 C246.6,348.3 241.3,367.4 254.8,387.7 L248.3,387.7 C236.3,363.8 242,345.8 257.5,331.1 L257.5,331.1 Z M139.3,331.7 C140.2,331.7 139.4,332.7 137.8,335.3 C134.9,340.2 134.3,341.4 129.7,342.7 C128.5,343 126.8,342.8 126.1,342.9 C124.1,343.2 125,342.9 128.1,340.9 C132.4,338.1 128.7,339.5 124.8,341.6 C122.5,342.8 120.1,342.7 119.9,342.1 C119.8,341.8 120.8,340.9 121.5,340.3 C127.5,334.9 129.4,335.2 135,333.2 C137.3,332.2 138.7,331.7 139.3,331.7 L139.3,331.7 Z M114.2,336.6 C116.4,336.6 118.4,336.8 120.2,337.2 C121.4,337.5 123.3,337.7 121.7,339.2 C119.8,340.9 114.8,343.3 111.1,343.5 C110.6,343.5 102.9,343 104.6,341.3 C104.9,341.1 106,341.2 106.9,341 C111.1,340.2 110,339.5 104.8,339.8 C98.3,340.2 98,339.5 102.9,338.1 C106.5,337.1 110.1,336.6 113.3,336.5 C113.5,336.6 113.8,336.6 114.2,336.6 L114.2,336.6 Z M149.1,337.1 C152,337.1 154.3,337.6 154.3,338.7 C154.3,340.5 148.8,344.5 145.2,345.2 C144.4,345.4 143.1,345.6 142.5,345.8 C141.2,346.1 134.3,345.8 133.6,345.6 C130.3,344.4 132.6,344 138.6,343.3 C141.2,343 142.5,342.3 142.5,341.8 C142.5,341.5 140.6,341.5 137.7,341.8 C134.5,342.2 135.1,341.3 139.1,339.2 C141.6,337.9 145.8,337.1 149.1,337.1 L149.1,337.1 Z M95.2,339.6 C95.6,339.6 96.6,339.9 98.2,340.6 C101.7,341.6 106.5,342.8 109.7,346.3 C112.3,348.9 113,349.7 112.4,350.6 C111.7,351.7 103.5,350.9 100.1,349.4 C97.8,348.4 95.1,346.3 93.9,344.5 C90.9,340.1 92.2,339 96,342 C100.6,345.7 101.3,346.1 102.1,345.9 C102.4,345.8 101.6,345.1 100.1,343.9 C96.2,341.1 94.4,339.6 95.2,339.6 L95.2,339.6 Z M123.6,344.3 C127.5,344.3 128.3,344.6 132,346.3 C136.7,348 135.5,349.4 127.2,351.5 C123,352.5 118.8,351.8 115.8,349.9 C109.1,345.8 109.5,344.9 117,346.8 C119.5,347.4 121.9,347.5 122.1,347.1 C122.2,346.7 119.2,346 116.8,345.2 C114.2,344.3 116.4,344.4 121.7,344.4 C122.5,344.3 123.1,344.3 123.6,344.3 L123.6,344.3 Z M316.7,362.1 C316.7,362.1 315.8,362.5 315.5,362.7 C315.2,362.9 312.9,363.1 310.3,363.3 C305.3,363.7 301.9,364.5 298.9,365.7 C294.3,367.5 291.3,373.2 291.3,373.2 C294.7,373 314.1,376.5 319.5,369.5 C320.6,368 316.6,380.5 314.5,381.1 C309.4,380.5 307.2,388.5 307.8,388.2 C302.6,390.2 298.7,391.4 300,397.3 C300.6,399.9 303.2,403 308.8,402.2 C307.3,412.6 320,415.3 321.4,402.8 C321.4,402.8 323.9,402.3 324.8,402.2 C330.6,400.8 332,392.4 323.5,389.7 C321.1,389 321,388.6 321,388.6 C321.4,386.7 321.3,384.7 319.9,382.5 C321.8,378 326.4,369.4 326.4,369.4 L316.7,362.1 Z M317.6,364.7 C318.8,366.3 312.7,368.8 306.2,369.4 C304.7,369.5 301.6,369.8 301.5,370 C300.8,371.2 314,370.3 318.2,368 C319.6,367.2 319.7,367.9 319.1,369.1 C314.3,375.2 302.8,373.7 293.7,372.7 C293.2,372.2 293.6,371.5 295.6,369.9 C299.3,366.9 302,365.9 307.8,365.3 C309.5,365.2 316.8,363.8 317.6,364.7 L317.6,364.7 Z M324.7,371.1 C323.9,373.7 319.5,381.8 319.5,381.8 C319,382.3 317.1,382.7 317.2,380.7 C317.2,378.5 321.3,369.5 322.4,369.3 C323.8,369.1 324.8,370.1 324.7,371.1 L324.7,371.1 Z M327.5,371.7 C328.8,381 335.8,383.2 342.6,386.1 C344.4,386.9 345.9,388.4 347.7,389.3 C351,384.7 347.3,375.9 341.4,373 C337,371 333.1,369.3 330.6,369.5 C329.1,369.7 327.5,370.6 327.5,371.7 L327.5,371.7 Z M331.1,371.1 C331.9,371.1 332.9,371.3 336.9,372.4 C342.9,374 347.1,378.4 348.2,384.2 C348.2,384.4 348.6,388.9 347.5,388.8 C346,388.4 345.1,386.8 342.6,385.8 C339.5,384.5 335.1,382.8 332.5,380.4 C330.3,378.4 329.2,376.3 328.9,374.5 C328.6,372.6 329.3,372.4 330.8,373.9 C334.3,376.7 337.8,377.7 341.3,380.4 C342.3,381.2 345.8,383.1 343.4,380.7 C341.8,379.1 337,376.2 334.5,375 C331,373.2 329.1,371.2 331.1,371.1 L331.1,371.1 Z M63,380.4 L102.9,442.8 C93.1,448 88.2,450.3 71.9,449 L72,449.8 L65.1,449.4 C77.1,468.1 91.8,492.5 87.6,535 L136.2,534.9 C136.2,534.9 137,535.6 137,535.7 C137.7,536.2 138.8,534.8 138.8,534.8 L160.7,534.7 L161.3,535.4 L171.5,535.3 C171.5,535.3 124.7,447.8 101.3,404.4 C91.7,387 81.7,379.3 63,380.4 L63,380.4 Z M314.6,382.5 C317.2,382.4 319.8,384.2 319.8,387.7 C319.8,389.5 318.3,392.1 318.3,392.1 L314.7,388.7 L311.3,392.1 C309.6,390.7 308.6,388.1 309.2,386.6 C310.3,384 312.6,382.5 314.6,382.5 L314.6,382.5 Z M273.4,383.7 C276.8,396.9 280.4,415 251.1,456.9 C233.8,481.7 228.1,505.1 227.4,533.7 L225.6,533.7 C226.4,518 226.5,489.6 226.5,489.6 L228.1,488.1 C228.1,488.1 227.4,486.9 227,485.5 C226.4,483.1 226.9,483.9 228.3,477.5 C234.5,446.5 273.4,383.7 273.4,383.7 L273.4,383.7 Z M117,389.7 L265.4,390.4 L263.4,394.3 L119.8,393.3 L117,389.7 Z M314.8,390.9 L320.3,396.3 L314.9,402.4 L309.2,396.5 L314.8,390.9 Z M310.3,393.1 L307.3,396.3 L309.9,399 C307.2,404.6 300.1,400.2 300.3,396 C300.6,391.2 306.4,389.1 310.3,393.1 L310.3,393.1 Z M319.8,399.5 L322.2,396.5 L319.5,393.5 C323.9,389.1 328.1,393 328.5,396.6 C329,400.5 322.9,404.9 319.8,399.5 L319.8,399.5 Z M144.1,395.8 L156.3,395.9 L151.8,404.4 L139.5,404.3 L144.1,395.8 Z M171.1,395.8 L182.3,395.8 L177.6,404.4 L166.3,404.4 L171.1,395.8 Z M197.5,395.8 L209.3,395.8 L204.5,404.4 L192.3,404.4 L197.5,395.8 Z M224,395.8 L236.1,395.8 L231.7,404.4 L219.1,404.4 L224,395.8 Z M251,395.8 L262.7,395.8 L258,404.4 L246,404.4 L251,395.8 Z M122,395.9 L129.8,395.9 L126.6,401.5 L122,395.9 Z M317.8,401.3 C322.3,404.9 319.2,410.8 314.5,410.9 C311.3,411 306.6,405.5 311.7,401.1 L315.1,404.2 L317.8,401.3 Z M152.6,405.8 L164,405.8 L159.7,413.5 L148.5,413.5 L152.6,405.8 Z M178,405.9 L190.5,405.9 L186.1,413.6 L174.2,413.6 L178,405.9 Z M204.8,405.9 L217.3,405.9 L213.2,413.6 L200.6,413.6 L204.8,405.9 Z M231.5,405.9 L243.9,405.9 L240.1,413.6 L227,413.6 L231.5,405.9 Z M129.6,406.2 L137.5,406.2 L134.1,412.4 L129.6,406.2 Z M135.5,415.2 L251.2,416.2 L249.2,420 L138.4,420 L135.5,415.2 Z M139.6,421.9 L248,422.2 L245.5,427.4 L208.1,427.2 C200.8,421.7 192.4,424.3 182.9,427.4 C182.9,427.4 154.2,427.7 143,427.4 L139.6,421.9 Z M291.7,435.1 C297.7,442.8 302,453.5 303.8,462 C305.5,470.7 303.7,474.9 301.4,467.3 C297.7,448.4 275.3,445.6 265.3,460.3 C251.4,480.7 275.8,505.4 293.2,488.8 C294.7,487.4 295.5,487 296,487.6 C296.6,488.3 296.2,488.9 293.1,492 C281,504.2 285.5,521.8 301.9,525.9 C325.2,531.7 339.3,503.2 318.9,489.7 C316.8,488.1 316.6,487.7 317.3,486.8 C318,486 318.6,486.1 320.5,487.8 C338,503.6 361.9,483 350.8,461.6 C342.3,445.1 318.6,448.2 312.9,466.5 C311.8,469.9 311.8,470.1 311.2,470.5 C308.8,470.6 310.5,462.6 310.8,460.4 C313.5,451 316.6,442.2 322.4,435 L291.7,435 L291.7,435.1 Z M103.5,443.9 L160.7,534.1 L148.1,534 L93.8,449.1 L103.5,443.9 Z M384.4,449.1 C384.8,449.4 390.1,464 389.1,465.4 C388.8,466.5 387.9,466.1 387.5,464.8 C384.2,452.2 368.5,454.3 368.7,467.4 C368.8,475.5 377.1,479 384.3,474 C385.4,473.3 385.9,473.2 385.9,474 C385.9,474.2 385.1,475.3 384,476.5 C378.2,483 380.4,491.9 388.2,493.8 C398.7,496.3 403.9,484.4 395.9,475.9 C394.7,474.7 393.8,473.5 393.8,473.4 C393.8,472.8 394.7,472.9 395.7,473.6 C403,479 411.9,475.4 411.8,467 C411.7,455.9 397.9,453 394.1,463.3 C393.2,465.8 392.7,466.5 392.2,466.1 C390.3,465.1 397.2,449.3 397.3,449.3 L384.4,449.1 Z M92.1,449.7 L146.1,534.1 C143.6,534 141.3,534.2 138.8,534.2 C139.8,518.4 127.1,511 119.7,510.7 C124.2,492.3 110.7,484.5 101.8,483.1 C105.4,459.2 85.6,455.8 85.3,456 C85.4,454 85,452.6 84.8,451 L92.1,449.7 Z M83.3,451.1 C83.2,451.6 84.3,456.4 82.2,455.5 L82.1,451.1 L83.3,451.1 Z M72,451.2 C72.8,454.4 74.4,455 76.6,457.1 C76.6,457.1 73.8,457.6 73.1,457.1 C71.9,456.3 69.5,451.1 69.5,451.1 L72,451.2 Z M80.4,456.6 C81.8,456.6 82.9,457.7 82.9,459.1 C82.9,460.5 81.8,461.6 80.4,461.6 C79,461.6 77.9,460.5 77.9,459.1 C77.9,457.7 79,456.6 80.4,456.6 L80.4,456.6 Z M85.3,458.5 C92.4,458 102.7,465.7 100,479.9 C99.5,478.9 99,476.7 97.8,475.2 C92.9,468.6 87.1,477.6 91,481.3 C92.9,483.1 93.8,483.8 93.6,484 C89.2,483.2 85.9,487 87.7,491.3 C90.7,496.9 94.9,493.9 97.4,490.6 C97.4,490.6 98.9,495.6 100.4,496.2 C102.7,497.2 105.8,495.9 106.9,493.2 C108.5,489.1 104.6,488 103.8,485.7 C112,486 122.5,498 117.7,508.4 C118.3,506 115.8,500.7 110.8,502.1 C108.3,503 107.5,506.6 109.5,510.3 C110.1,511.5 110.5,511.9 110.5,511.9 C110.5,511.9 108.4,512.2 107.8,512.5 C101.4,516.4 109.7,527.2 114.4,520.5 C114.9,519.7 115.7,518.8 115.7,518.8 C116.5,520.3 116.7,522.4 118.2,523.1 C124.1,526.1 126.7,519.8 124.3,516.7 C122.9,515 121.3,513 121.3,513 C121.1,511.9 139,516.6 136.8,534.1 L89.2,534 C93.6,507.2 82.9,476.4 77.5,467.1 L79.9,464 C80.5,465.2 81.5,468.1 83.2,468.6 C88.7,470.4 90.4,466.5 89.7,462.6 C89.2,460.5 86.2,458.8 85.3,458.5 L85.3,458.5 Z M97.9,483.7 C99.2,483.7 100.3,484.8 100.3,486.1 C100.3,487.4 99.3,488.5 97.9,488.5 C96.6,488.5 95.5,487.4 95.5,486.1 C95.6,484.8 96.6,483.7 97.9,483.7 L97.9,483.7 Z M380.8,505.5 C377.6,502.5 374.1,502.6 371,503 L370.8,509.7 C370.8,509.7 378.6,509.3 377.6,513.4 C377.3,514.2 376.9,516.9 376.9,516.9 L376.8,551 C378.1,566 397.4,569 402.1,554.8 C403,552.4 402.9,550.2 402.9,547.5 L402.9,529.5 L408.4,529.4 L408.2,523 L403.2,523.1 C403.6,514.1 402,505.5 395.7,503.4 C388.8,501.1 384.5,502.9 380.8,505.5 L380.8,505.5 Z M397.2,520.8 C394,521.4 389.5,515.4 385.9,511 C387.6,507.8 392.7,508.3 394.6,510.3 C397.4,513.3 397.2,518.6 397.2,520.8 L397.2,520.8 Z M115.8,511.7 C117.1,511.7 118.2,512.8 118.2,514.1 C118.2,515.4 117.1,516.5 115.8,516.5 C114.5,516.5 113.4,515.4 113.4,514.1 C113.4,512.8 114.5,511.7 115.8,511.7 L115.8,511.7 Z M383.3,517.5 C386.7,524.1 397,529.1 397.2,528.1 L397.3,546.2 C397.8,553.5 395.3,557 390.7,557.5 C382.6,557.6 382.7,547.6 382.7,542 L382.6,524.1 C382.6,521.9 382.4,519.2 383.3,517.5 L383.3,517.5 Z" id="Shape" fill="#000000" fill-rule="nonzero"></path>
        </g>
    </g>
</svg>