<?xml version="1.0" encoding="UTF-8"?>
<svg width="421px" height="587px" viewBox="0 0 421 587" version="1.1" xmlns="http://www.w3.org/2000/svg" xmlns:xlink="http://www.w3.org/1999/xlink">
    <!-- Generator: Sketch 61.2 (89653) - https://sketch.com -->
    <title>12D</title>
    <desc>Created with Sketch.</desc>
    <g id="Page-1" stroke="none" stroke-width="1" fill="none" fill-rule="evenodd">
        <g id="12D">
            <path d="M20.8,0.9 L400,0.9 C411.1,0.9 420,9.8 420,20.9 L420,566.4 C420,577.5 411.1,586.4 400,586.4 L20.8,586.4 C9.7,586.4 0.8,577.5 0.8,566.4 L0.8,20.9 C0.8,9.9 9.7,0.9 20.8,0.9 L20.8,0.9 Z" id="Path" fill="#FFFFFF" fill-rule="nonzero"></path>
            <path d="M20.8,0.9 L400,0.9 C411.1,0.9 420,9.8 420,20.9 L420,566.4 C420,577.5 411.1,586.4 400,586.4 L20.8,586.4 C9.7,586.4 0.8,577.5 0.8,566.4 L0.8,20.9 C0.8,9.9 9.7,0.9 20.8,0.9 L20.8,0.9 Z" id="Path" stroke="#000000" stroke-width="0.7974"></path>
            <path d="M264.1,50.6 C264.1,50.6 311.6,119.3 327.7,131.4 C328.9,132 348.7,128.2 348.7,128.2 C338.5,103.8 332,78.6 338.6,50.4 L264.1,50.6 Z M290.5,159.1 C257.8,168.3 225.1,177 189.6,162 L150.798669,199.5 C150.5,200.5 201,222.2 201.8,219.9 L189.4,259.6 L218.1,265.9 L231.3,223.6 C231.3,223.6 270.9,219.8 289.3,213.5 C303.3,208.7 317.7,205.2 330.2,194.8 C304.4,179.3 290.5,158.9 290.5,159.1 L290.5,159.1 Z M93.6,170.2 C81.2,162.6 71.5,178.3 80.6,186.1 C79.5,190.7 79.2,197.5 83.6,200.5 C87.7,203.1 95.2,200.4 96.3,200.4 C96.4,200.4 96.5,208.6 95.9,208.6 C94.7,208.6 90.3,204.8 87.5,204 C78.2,201.2 65.2,199.9 65.5,200.3 C65.9,201.1 63.2,203 73.5,209.5 C77.3,211.9 89.4,209.2 99.1,212.2 C105,214.1 110.8,217.1 113.9,215.6 C117.9,213.9 122.6,208.6 124.2,204.3 C124.6,199.6 100,209.8 101.5,210 L101.4,200.5 C111.3,201.6 120.3,194.4 110.5,182.1 C117.8,174.7 107.7,157.5 93.6,170.2 L93.6,170.2 Z M135,213.9 C110.6,238.5 60.7,284.7 60.7,284.7 L61.2,319.2 L109.9,362.8 C113.8,316.5 140.1,273.3 165.1,251.7 C167.5,245 140.3,216.2 135,213.9 L135,213.9 Z M308.9,222.4 C305.2,250.9 301.9,289.7 253.6,332.9 C262,347.2 272.6,361.7 288,368.6 C289.1,371 332.3,323.9 358.9,301.6 L358.8,271.4 L308.9,222.4 Z M91.2,228.5 C91.1,229.1 89.3,236.6 88.9,236.4 C88.9,236.8 93.8,234.6 94.4,232.5 C94.9,230.7 96,228.3 96.1,227.9 C94.9,220.2 92.8,225.7 91.2,228.5 L91.2,228.5 Z M73.4,248.4 C73.2,248.4 72.8,248.8 72.7,248.9 C71.7,249.5 70,259.3 70.6,260.3 C70.9,260.8 69.6,264.3 70.5,265.5 C71.4,266.7 76.5,266.1 77.3,264.1 C78.2,261.6 81.5,251.2 79,250.1 C77.6,249.5 74.6,248.4 73.4,248.4 L73.4,248.4 Z M340.2,330.9 C339.4,334.5 339.6,335.6 341.2,336.3 C344,337.5 345.3,336 347.5,330.2 C348.8,326.7 350,321.5 349,319.4 C343.6,315.7 340.8,328.2 340.2,330.9 L340.2,330.9 Z M209.4,322.5 C207.7,322.5 206.1,322.6 204.6,323 C190.3,326.3 191.4,351.2 189,361.1 C144.2,367.5 132.3,370.5 120,375.6 C100.9,383.4 94.9,388.2 89.8,392.2 C93,391.8 127.3,423.8 129,428.3 C126.8,422.1 195.3,407.1 231.8,422.2 C236.3,423.8 270.4,389.1 269.3,385.3 C273.7,377.6 226.3,368.9 220.4,364 C215.5,337.6 253.5,323.2 227.2,323.9 C222.3,324 215.4,322.5 209.4,322.5 L209.4,322.5 Z M328.6,352.2 C327.8,353.2 326.8,353.9 325.8,354.9 L323.3,358.2 L325.1,361.1 L329.8,356 L328.6,352.2 Z M295.2,385.3 C300.1,383.1 317.6,374.6 318.3,376.6 L317.9,385.1 C315.2,384.2 298,387.1 308,404.9 C301.7,419 315.7,426.3 325.5,417 C346,424 343.3,403.5 339.1,400.2 C342.4,395 338.2,384 336.1,383.9 C336.1,383.9 354,387.9 352.3,384.7 C351.5,383.2 350.5,380.7 346.5,378.1 C341.9,375 333.8,376.1 327.3,374.8 C320.3,373.3 315.8,370.8 310,370.5 C301.1,371.2 292.9,379 295.2,385.3 L295.2,385.3 Z M95.4,452.1 L70.7,458.7 C70.7,458.7 78.7,477.2 81.5,493.8 C84.9,514 82.2,536 82.2,536 L153.9,536.4 L95.4,452.1 Z" id="Shape" fill="#E2CF00" fill-rule="nonzero"></path>
            <path d="M387,566.5 C377.6,563.2 377.4,557.3 377,549.7 C376.4,538.2 376.5,526.1 378.2,516.8 C378.8,513.9 379.2,512.5 376.3,511.5 C374.7,511 373.2,511.2 371.6,510.9 L371.6,503.8 C374.6,503.6 377.3,503.6 379.9,505.1 C381,505.8 382.3,506.5 382.3,506.5 C386,503 395.7,502.5 400.3,506.8 C403.4,509.9 404.4,512.5 404.5,519.4 C404.6,524.5 404.5,524.9 404.5,524.9 L409.8,524.9 L409.8,531.8 L404.5,531.8 C404.5,531.8 404.6,535.2 404.5,542.6 C404.4,548.4 404.3,552.1 403.9,554.9 C402.2,564.6 393.7,568.7 387,566.5 L387,566.5 Z M397.3,554.7 C399.2,549.8 398.4,530.7 398.4,530.7 C390.5,527.6 387.1,522.8 383.8,519.4 C383.8,519.4 382.5,540.6 384.1,552 C385.5,561.5 394.1,562.9 397.3,554.7 L397.3,554.7 Z M397.3,522.5 C397.7,522.6 398.2,522.6 398.3,522.4 C398.9,520.7 397.9,513.5 396.1,512.1 C391.3,508.2 386.8,512.1 387,512.3 C389.3,515.4 392,518.8 395.4,521.5 C396,522 396.6,522.4 397.3,522.5 L397.3,522.5 Z M159.8,536.1 C128.3,491.2 99.2,448.5 60.5,401.4 C60.5,401.4 60.5,383.2 60.7,365.2 L179.6,535.7 L159.8,536.1 Z M269.9,477.4 C285.5,460.5 297.3,442.5 307.8,424 C319.7,445.2 333.6,462.5 348.8,476.7 C333.8,491.8 320.3,509.1 309.5,530.9 C300.8,514.4 289.4,497 269.9,477.4 L269.9,477.4 Z M373.3,472 C380,465 385.7,457.2 391,449 C397,457.5 400.6,463.8 408.6,472.8 C401.7,480.1 395.9,487.4 391.2,495.4 C385.6,486.3 379.7,477.8 373.3,472 L373.3,472 Z M223.5,463.6 C222.5,455.1 220.7,444.9 218.3,436.1 L240,415.6 C237.6,433.9 234,447.9 223.5,463.6 L223.5,463.6 Z M327.2,399.1 C332.1,405.6 323.9,409.1 320.8,406.3 C314.5,400.4 323.7,394.4 327.2,399.1 L327.2,399.1 Z M112,358.4 C108.4,360.7 118.5,302.1 146.1,271.9 C162.9,320.1 133.2,347.1 112,358.4 L112,358.4 Z M248.4,358.2 L230,353.2 L239.1,327.5 C239.1,327.5 256.3,331.5 254.9,336.9 C250.2,354.3 248.4,358.2 248.4,358.2 L248.4,358.2 Z M163.4,348.3 C168.4,340.1 172.1,331.1 175.6,321.9 L201.7,318.3 L186.6,347.7 L163.4,348.3 Z M274.1,312.3 C259.9,284 276.6,239.2 307.6,226.9 C306.4,255.6 297.5,284.6 274.1,312.3 L274.1,312.3 Z M178.5,304.3 C179.1,294.2 178,283.7 176.6,274.4 L241.3,283 L243.6,310.1 L178.5,304.3 Z M225.8,261.2 C228,252.6 229.9,245.4 234.2,238.4 C238.9,238.5 258,235.4 255.6,239.1 C250.4,245.7 247.9,256.5 244.5,263.3 C240.9,263 224.8,265.7 225.8,261.2 L225.8,261.2 Z M183,256.3 C176.5,254 167.5,253.4 164.1,248.3 L170.9,226.7 L191,232.9 L183,256.3 Z M239.5,50.6 L255.3,50.5 C255.3,50.5 331.2,147.6 359.6,185.3 C358.7,189.2 359.9,221.7 359.9,221.7 C319.7,165 239.5,50.6 239.5,50.6 L239.5,50.6 Z M94.1,186 C89.9,181.4 96.6,177.4 99.4,181.5 C101.9,185.1 96.3,188.4 94.1,186 L94.1,186 Z M179.2,170.1 C179.5,147.6 195.4,120.9 195.2,121.6 C195,121.6 197.5,143.6 200.5,150.5 C199.7,151.8 180,171.5 179.2,170.1 L179.2,170.1 Z M111.3,162.7 C98.9,139.1 84.1,121.2 71.1,108.6 C87.2,93.4 99.3,74.5 111.7,56 C121.9,75.5 135.2,93.2 150.2,110.1 C135.2,124.8 121,145.6 111.3,162.7 L111.3,162.7 Z M11.8,114.7 C19,107.5 29.8,91 29.6,91 C34.7,99.3 40.1,107.9 47.5,114.8 C47.4,114.7 36,127 30.2,138.5 C24.9,128.9 18,120.5 11.8,114.7 L11.8,114.7 Z M10.8,62.4 L10.8,55.4 L16,55.4 C16,55.4 15.9,56 16,46.5 C16.1,33.2 16.7,29.1 19.4,25.7 C26.6,16.6 39.7,19.4 43.1,30.8 C43.4,31.7 44,33.9 44,36.8 C44.2,44.4 44.2,56.9 43.9,64.7 C44,67.8 42.9,71.8 42.1,72.5 C42.5,75.3 46.9,75.9 49.6,75.6 L49.6,82.9 C49.6,82.9 46.8,83.2 43.5,82.9 C42.1,82.8 38.9,80.1 38.9,80.1 C38.9,80.1 33.8,83.6 29.2,83.5 C14.2,83.2 15.9,64.5 16,62.4 L10.8,62.4 Z M22.7,64.2 C22.7,64.2 22.7,66.8 22.9,68.6 C23.4,74.4 27.2,77.4 31,76.4 C32.9,75.8 34,74.7 34,74.7 C30.8,69.9 27,65.9 22.7,64.2 L22.7,64.2 Z M36.7,35.2 C35.1,26.5 26.9,25.1 23.8,32.5 C23.2,33.8 22.8,44.4 22.8,44.4 L22.9,56.8 C29.6,58.3 33.3,62.6 37.4,67.4003337 C37.3,67.5 38.1,45.1 36.7,35.2 L36.7,35.2 Z" id="Shape" fill="#D40000" fill-rule="nonzero"></path>
            <path d="M57.5,46.5 L56.9,538.6 L363.1,538.7 L363,47.3 L57.5,46.5 Z M337.3,50.3 C334.8,77.5 334.4,98.9 348.5,127.1 C345.9,129.8 326.7,130.5 320.7,133.7 C320.6,134.5 322.2,135.8 322.2,135.8 C328.5,132.9 353.3,130.2 353.3,130.2 C342.9,112.2 334.4,77.5 340.8,50.9 L358.6,51 L358.6,182 C358.6,182 360,207.3 360.5,221.6 C351,209.3 338.4,192.2 330.2,179.5 C320.2,165.5 309.1,149 297.7,133.5 C294.3,128.6 289.5,122.3 285.6,116.6 C279.5,107.8 274.4,101 268,91.5 C261.2,81.7 254.7,72.8 246.6,61.5 C239.7,51.8 239.4,50.7 239.4,50.7 L337.3,50.3 Z M220.2,50.9 C231.8,71 252.5,77.8 257.7,79.2 L260.7,83.6 C236.3,78.8 223.2,63.1 217.1,53.5 C216.6,52.7 216.7,51 216.7,51 L220.2,50.9 Z M208.7,50.9 C205.5,58.5 201,62.8 196.8,67.4 L196.9,62.5 C197,62.8 203.3,55.9 205.4,50.8 L208.7,50.8 L208.7,50.9 Z M214.3,50.9 C214.3,50.9 214.4,52.2 214,53.3 C211.5,61.2 196.3,76.2 196.8,74 L196.6,70.1 C196.5,70.3 208,59.2 211,50.9 L214.3,50.9 Z M203.3,50.9 C202.1,53.1 197.7,59.8 197.3,57.9 L197.7,50.9 L203.3,50.9 Z M238,50.9 C239.9,53.7 241.7,55.7 243.7,58.5 C244.1,59 244.3,59.7 244.2,59.9 C243.9,60.7 243,60.1 240.5,57.9 C236.4,54.2 233.6,50.9 233.6,50.9 L238,50.9 Z M222.6,50.9 L226.3,50.9 C234,63.8 247.9,70.6 252.7,72.1 C254,73.5 255.4,76.1 255.9,76.7 C243,73.1 228.5,62.2 222.6,50.9 L222.6,50.9 Z M231.7,50.8 C235.8,56.7 242.3,60.9 245.9,63.8 C247.9,65.3 250.4,68.5 250.2,69.1 C242.1,66.5 232.6,57.6 228.3,50.9 L231.7,50.8 Z M215.8,54.5 L218,58.1 C212.5,67.1 205.7,75.2 196.6,81.6 L196.5,76.9 C207,69.4 211.4,61.9 215.8,54.5 L215.8,54.5 Z M219.5,59.7 C226,68.5 240,82 262.5,86.1 C262.5,86.1 263.8,87.3 265.6,89.8 C268,93 268,93.1 268.3,98.4 C268.5,108.1 271.6,121.1 274.8,129.4 C274.4,131.5 274.1,132.5 270.2,137.7 C254.1,159.4 219.8,180 202.9,151.9 C197.3,142.9 196.7,125.7 196.4,114.9 C196.4,114.9 196.5,114.1 196.5,113.9 C196.9,111.9 197.5,112.3 200.5,113.1 C203.6,114.4 206.8,113.4 210.1,112.5 C213.8,111 214.1,112.2 210.5,115.5 C209.3,116.7 207.7,118.4 207.9,118.3 C208.1,118.2 210.2,117.4 211.1,116.7 C214,114.5 214.6,115.4 213.6,117.8 C209.1,128 208.3,128.4 214.6,131.2 C215.9,131.8 216.8,132.4 217.6,133.1 C221.9,137.2 220.4,135 219.2,133.1 C217.3,130.2 219,128.6 222.2,130.4 C224.3,131.6 227.1,132.6 228.6,132.1 C231.5,131.1 232.4,127.9 231.5,124.4 C230.8,122.5 226.8,119 227.7,122.6 C230.1,122.5 232.2,125.9 230.1,128.2 C228.5,130.3 225.7,129.2 221.4,126.3 C219,124.5 216.1,125.4 216.2,127.6 C216.3,129.1 214.2,128.7 212.8,126.9 C212,125.9 212.6,122.8 214,120 C222.9,102.1 215.4,84.7 200,89.6 C198.3,90.1 196.8,90.6 196.8,90.6 L196.7,83.7 C205.6,77.7 215,67.8 219.5,59.7 L219.5,59.7 Z M228.5,91.9 C226.2,94.7 227,97.2 232.1,94.7 C236.3,92.6 236.8,92.4 241.4,92.2 C247.8,92 253.6,94 260.8,98.4 C265.5,101.3 266.2,101.5 264.9,99.7 C261.1,92.4 238.4,81.3 228.5,91.9 L228.5,91.9 Z M206.6,92.7 C211.1,93.8 215.4,96.8 214.6,98 C214.3,98.4 214.1,98.5 213.5,98.2 C210.2,96.6 205,93.9 197.5,97.2 C196.7,97.6 196.2,97 196.2,96 C196.2,94.1 199.5,92.5 202.9,92.4 C204.2,92.4 205.6,92.4 206.6,92.7 L206.6,92.7 Z M232.6,98.4 C229.9,99.8 229,100.5 227.9,99.9 C225.2,98.4 225.8,99.6 227.4,102.5 C228.6,104.6 228.6,105 228.4,106.3 C228.2,107.7 228.2,107.7 229.6,109.2 C232.1,112.5 234.7,115.8 238.5,118.3 C239.7,119.1 241.3,120 241.4,120 C241.8,120 241.6,119.7 241,119.1 C236.1,114.4 232.3,110.2 237.2,112 C243,113.9 248.5,111.5 253,110 C254.8,109.4 256.8,109 257.2,109 C261.4,109 262.4,107.3 259.7,104.6 C250.7,94.5 243.2,92.2 232.6,98.4 L232.6,98.4 Z M254,100.3 C255.9,102 256.8,103 256.7,103.4 C256.5,103.9 255.1,103.1 252.7,101.8 C247.9,99.2 242.4,98.6 235.5,100.6 C230.2,102.1 231.8,99.7 237.7,97.4 C242.4,95.2 248.9,95.8 254,100.3 L254,100.3 Z M204.3,96.8 C208.4,96.7 212.6,98.1 215.4,100.5 C217.4,102.2 215.9,102.6 212.7,101.3 C207.9,99.3 203.8,99 199.8,100.8 C198.6,101.4 197.1,102.1 196.7,102 C196,101.6 195.8,100.2 196.3,99.3 C198,97.8 201.2,96.8 204.3,96.8 L204.3,96.8 Z M271.3,98.2 C271.6,98.2 272.1,98.7 272.7,99.6 C273.9,101.3 274,102.1 272.9,105.1 C271.7,108.7 271.2,108.2 270.9,103.1 C270.7,99.8 270.7,98.2 271.3,98.2 L271.3,98.2 Z M275.3,103.7 C275.8,103.6 276.3,104.5 277.2,106.1 C277.8,107.3 277.7,107.6 275.8,113.2 C275,115.5 274.3,117.3 274.3,117.4 C273.7,117.9 273.8,117.8 273.5,117.5 C272.2,115.8 272.3,112.4 273.4,108.4 C274.2,105.3 274.7,103.8 275.3,103.7 L275.3,103.7 Z M238.7,104.1 C238.8,104.1 239.8,104.3 239.8,104.3 C239.7,112.5 246,110.8 246.9,105 C246.9,105 248.5,104.8 248.7,105.2 C249.4,106.4 247.7,109.9 245.1,111.1 C243.2,111.9 240.6,111.7 239.1,110.3 C238.7,109.5 237.4,106.5 237.6,105.2 C237.8,104.5 238.3,104.1 238.7,104.1 L238.7,104.1 Z M234.9,105.1 C235,105.1 235,105.1 235.1,105.1 C235.7,105.1 236.2,105.3 236.4,106 L237.8,110.2 C236.8,111.4 233,109 233,107.2 C233,105.9 234,105.1 234.9,105.1 L234.9,105.1 Z M209.2,105.1 C210.2,105 210.5,105.1 210.6,106 C210.9,108.7 208.2,111.6 204.7,111.8 C201.3,112.2 199.5,109.5 199.6,107 C199.6,105.1 201.3,104.8 201.5,106.4 C202,110.8 205.8,111.1 207.6,108.6 C208.3,107.6 208.1,105.2 209.2,105.1 L209.2,105.1 Z M250.8,106 C251.1,106 251.4,106.1 252,106.3 C255.5,107.4 255.6,108 252.6,109 C249,110.3 248.8,110.4 249.6,108 C250.1,106.5 250.2,106 250.8,106 L250.8,106 Z M213.8,106.3 C216.4,106.5 216.6,108.6 214.3,109.4 C210.9,110.9 209.8,110.8 211.1,108.6 C211.8,107.1 212.5,106.4 213.8,106.3 L213.8,106.3 Z M197.6,107.1 C197.9,107.1 198.3,107.2 198.6,107.5 C199,108.7 199.7,109.6 200.2,110.8 C199.7,111.3 198.4,111.3 197.6,110.7 C196,109.4 196.3,107.1 197.6,107.1 L197.6,107.1 Z M279,109.7 C280,109.7 281,111.3 281.4,112.5 C277.9,117 278.4,125.4 277.6,128 C276.9,130.1 276.7,128.3 274.7,122.9 C273.9,120.7 277.9,110 278.8,109.7 C278.9,109.7 278.9,109.7 279,109.7 L279,109.7 Z M282.6,114.3 C283.4,114.7 284.4,115.8 284.6,117.4 C284.7,118.3 284.3,119.6 283.9,120.8 C283.2,123.7 282.2,129.2 281.9,134.3 C281.8,136.5 281.8,138.4 281.7,138.6 C280.6,140.7 278.4,135.1 278.6,130.7 C279.3,127.2 279.7,114.8 282.6,114.3 L282.6,114.3 Z M287.5,120.7 C288,121.4 288.3,121.9 288.5,122.5 C288.8,123.5 288.5,124.8 287.9,127.4 C286.3,134.4 286.5,141.9 287.6,149.6 C287.8,151.2 286.7,150.4 285,147.6 C284.1,146 283.5,143.9 283.2,141.4 C282.6,135.9 283.7,128.5 284.7,122.6 C285.1,120 285.4,117.7 287.5,120.7 L287.5,120.7 Z M290.2,124.9 L293,128.3 C293,128.3 291.8,136.1 291.8,140.3 C291.6,141.9 293.2,158.9 293.7,160.2 C292,158.3 291.2,157.1 289.3,154.7 C289.1,154.7 287.4,138 288.6,131.6 C289.3,127.7 290.2,124.9 290.2,124.9 L290.2,124.9 Z M294.6,131.7 C295.1,131.7 295.7,132.2 296.4,133.3 C297.1,134.3 297.4,135 297.5,136.2 C297.5,137.1 297.1,137.7 297.1,139.3 C297,148.5 298.3,157.3 299.8,165.7 C300.3,168.7 299.3,167.5 297.5,165.6 C295.9,163.9 295.8,163.2 295,160.7 C294.8,160.2 293.1,143.2 293.1,141.9 C293.2,136.6 293.3,133.6 293.9,132.4 C294.1,131.9 294.4,131.7 294.6,131.7 L294.6,131.7 Z M284.4,150.2 C284.4,150.2 281.1,151.9 280.3,151.3 C278.9,147.5 273.9,137.4 273.8,135.6 C273.9,135 275.9,132.4 275.9,132.4 C278.6,138.4 281.1,144.5 284.4,150.2 L284.4,150.2 Z M222.6,138.1 C221.6,139.3 220.4,138.8 218,137.7 C216.8,137.3 217,137.8 214.9,138.9 C213.3,139.7 212.8,139.7 211.7,139.7 C210.3,139.7 209.8,139.2 209.8,140.2 C209.8,140.7 209.7,143.1 209.4,144.4 C209,146.1 208.6,146.8 208.8,147.1 C209.5,147.7 210.1,147.3 211.6,145.9 C214,143.5 215.7,144.2 218.4,145.1 C221.5,146.1 222.1,146.5 225,145.5 C229,144.1 231.4,144.1 233,145.1 C235.8,146.8 236.6,146.7 235.4,142 C235,140.5 235,138.1 234.8,137.7 C234.5,137.2 233.8,138.6 233.1,139.1 C231.7,140 231,140 227.8,139 C226.1,138.3 224,136.3 222.6,138.1 L222.6,138.1 Z M273.2,138.7 C274.4,141.6 279.3,151.2 279.1,152.2 C278.2,153 276.9,153.7 276.1,152.9 C273.7,148.5 272.9,146.1 271,141.1 C270.5,140 272.3,136.9 273.2,138.7 L273.2,138.7 Z M299.3,138.3 C299.6,138.3 300.4,139 300.9,139.7 C302.6,141.9 302.7,142.2 302.7,144.6 C302.9,153.2 304,163.4 306.4,171.2 C306.9,172.7 307.8,174.6 307.7,174.9 C306.9,176.1 303.1,172.9 302,168.1 C300.4,161.9 299.5,155.5 299,151.4 C298.3,144 298.3,138.7 299.3,138.3 L299.3,138.3 Z M270.2,143.1 C271.6,145.8 273.4,150.4 274.5,153.2 C275,154.4 272.3,155.4 271.6,155 C270.5,154.2 270,151.9 269.2,150.5 C266.9,145.5 266.5,145.4 267.8,143.8 C268.7,142.6 269.6,141.3 270.2,143.1 L270.2,143.1 Z M304.8,146.2 C305,146.2 305.3,146.4 305.6,146.8 C307.1,148.5 308,149.8 308.4,151.1 C308.7,152 308.5,152.7 308.6,154.4 C308.9,158.8 310,164.8 313.3,177.1 C313.6,178.3 314.1,179.7 314,180.1 C313.7,182.4 310.4,178.7 309.4,174.9 C308.3,170.6 306.2,165.1 305.6,160.1 C304.4,152.1 303.7,146.2 304.8,146.2 L304.8,146.2 Z M267.3,149.4 C270.1,155.8 270.3,155.8 268.5,156.3 C266.7,156.8 266.6,156.7 264.4,152.3 C262.8,149.1 262.5,148.7 263.8,147.6 C265.9,145.2 266.4,147.5 267.3,149.4 L267.3,149.4 Z M229,147.9 C228.7,147.9 227.8,148.6 226.8,149 C224.5,149.9 220.5,150 218,149.2 C213.6,147.5 214.9,149.7 218.7,151.1 C221.7,152.1 227.6,151.3 228.5,149.5 C229.2,148.9 229.4,147.9 229,147.9 L229,147.9 Z M262.1,151.3 C264.6,155.1 265.3,156.6 264.9,156.9 C264.5,157.3 262.6,158 261.8,157.6 C260.8,157.1 259.9,154.8 259.5,152.9 C259.7,152.1 261.4,150.4 262.1,151.3 L262.1,151.3 Z M200.6,152.9 C201.7,152.9 204.6,156.7 204,157.4 C203.8,157.8 202.8,157.4 200.3,156.7 C199.5,156.4 197.6,156.2 198.2,154.9 C198.4,154.4 200.2,152.9 200.6,152.9 L200.6,152.9 Z M259.5,158.1 C259.3,158.7 257.4,158.9 256.6,158.9 C255.9,157.5 255.7,156.8 255.6,155.9 C255.9,155.3 257.1,153.9 257.8,154.2 C258.1,154.5 259.3,157.4 259.5,158.1 L259.5,158.1 Z M310.6,154.4 C311,154.4 311.7,155.1 312.7,156.5 C314.6,159.2 314.3,159 315.7,165.5 C317.2,172.9 319.1,178.1 321,185.7 C321,186.9 320.5,186.6 319.1,185.8 C316.8,184.4 316.1,182.9 315.4,178.9 C314.2,172.3 311.6,166.2 310.6,158.4 C310.1,155.8 310,154.4 310.6,154.4 L310.6,154.4 Z M253.5,157.1 C254.8,157.1 254.7,159.1 254.3,159.4 C253.3,160.3 250.6,160 250.2,160 C249.1,158.4 252.6,157.1 253.5,157.1 L253.5,157.1 Z M317.4,164.1 C317.8,164.2 318.9,165.6 320.8,168.4 C322.7,171.1 322.3,170.6 323.4,175 C325,181.1 327.7,185.5 329.2,191 C329.2,191.6 328.4,191.5 327.7,191.2 C326.3,190.6 325,189.6 323.8,188.6 C323,187.7 323,186.6 320.5,178.1 C319.6,175 319.4,174.3 318.3,169.6 C317.4,165.8 316.9,164 317.4,164.1 L317.4,164.1 Z M111.4,182.2 C117.9,194.1 115.5,199.4 101.6,201 C100.6,200.9 101.5,207.1 101.5,209.9 C108.5,205.9 116.9,205 124.6,202.5 C122.5,209.3 118.8,216.9 107.5,215.7 C95.8,206.6 81.9,212.1 72.6,208.4 C67.5,206.5 65.5,200.8 65.5,199.9 C71.6,200.5 78.5,201.8 84.5,201.4 C78,196.4 79.9,189.5 80.8,186.4 C73.2,176.8 79.5,166.1 90.5,168.6 C91.6,168.9 93.9,170 93.9,170 C104.5,160.4 116.8,169.4 111.4,182.2 L111.4,182.2 Z M326.1,176.5 C326.5,176.5 327.5,177.6 329.5,180.3 C335.3,188.4 340.3,195.9 340.2,196.3 C340,197.7 333.9,195.3 332.4,193.3 C330.7,191 325.8,179.3 325.8,177.5 C325.8,176.8 325.9,176.5 326.1,176.5 L326.1,176.5 Z M91.1,211 C94.1,211.4 94.9,211.7 94.9,212.9 C95.2,213.9 87.6,214 86.6,213.3 C85.8,212.7 86.8,211.4 87.6,211.1 C88.8,210.7 90,210.9 91.1,211 L91.1,211 Z M299,212.1 C256.9,232 239.6,284.9 260.9,325.5 L258,327.6 C237.2,284.7 252.7,238.8 286.5,215.6 C287.9,214.6 290.9,213.9 292.3,212.9 C292.3,212.9 278.5,216.1 273.8,217.9 C272.9,217.9 270.1,218.8 267.1,222.1 C264.5,224.5 256.3,235.8 256.6,236.2 L234.9,237.1 L234.9,237.9 L256.2,237.4 C234.2,273.6 239.6,308 253.2,332.1 L253.5,332.3 C254.3,332.8 256.4,331.3 260.7,327.2 C262.5,325.5 264.7,323.4 265.7,322.6 C268.4,320.2 272.2,316 274.8,312.9 C260,282.8 274.6,243.2 309.2,225.3 C309.3,224.3 308.8,221.3 308.8,221.3 C308.8,221.3 307.5,220.1 306.7,220.2 C268.2,237.2 252.7,279.3 268.4,317.7 L265.8,320.5 C246.1,280.8 267.2,231.2 304.1,217.1 C304.1,216.2 303.3,215.1 302.3,215.8 C262.5,234.3 245.2,281.4 264.7,321.6 L262.3,323.8 C240.1,279.8 263.5,230.4 300.1,213.6 C301,213.4 299,212.1 299,212.1 L299,212.1 Z M84.5,212.5 C84.5,212.5 84.2,214.8 85.1,215.6 C85.5,217.3 84.9,217.1 83.5,216.8 C80,216 82.7,218 85.6,219.6 C88.4,221.2 88,221.1 85.6,222.7 C83.9,223.7 84.1,224.1 84.3,224.9 C84.6,226.1 84.9,225.3 85.5,224.7 C86.9,223.4 88.1,223.1 89.4,223.1 C91.3,223.1 91.5,224.6 91.2,225.9 C90.4,228.4 87.8,228.3 85.7,227.7 C82.2,226.7 76.5,220.6 76.6,217.1 C76.3,213.7 80.7,212.4 84.5,212.5 L84.5,212.5 Z M100.2,213.3 C101.6,213.8 103.2,214.5 105.1,215.2 C107.7,216 110.3,217.4 112,218.5 C117.1,221.9 116.8,228.8 116.5,229.4 L90,254.5 C90,254.5 88.5,253.8 87.1,253 C82.6,250.7 81.6,249.5 84,248.3 C85.2,247.7 85.6,246.4 85.8,245.1 C86,243.4 85.9,243.7 87,242.9 C88.8,241.5 88.9,241 88.9,238.7 C88.9,237.2 89.1,236.5 89.6,235.6 C90,234.9 90.5,233.3 90.8,231.5 C90.9,231.2 90.9,230.5 90.9,230.2 C91.2,228.8 91.7,228.4 92,228.1 C92.3,227.8 92.8,226.7 93.1,225.8 C93.8,223.7 93.7,224 94.9,224.3 C96.6,224.6 96.4,225.6 96.2,227.3 C96.1,228.1 95.6,228.6 95.8,228.5 C96,228.3 97.1,227.8 97.3,227.7 C97.8,227.6 98.4,227.8 98.5,228.6 C98.6,229.1 98.4,230 98.4,230.7 C98.4,232.5 98.5,234.6 98.9,236 C100.9,242.8 100.5,241.9 99.8,236.2 C99.6,234.8 99.5,232.9 99.7,231.2 C99.8,230 100.2,228.6 100.6,227.8 C101.8,225.8 101.8,225.4 99.3,224.4 C98.4,224 96.8,223.4 96.4,222.7 C96,221.9 94.8,220.8 93.2,220.5 C89.4,219.6 87.2,215.9 87.7,215.4 C88.1,215 89.6,215.5 90.6,215.5 C94.1,215.6 94.8,215.4 96.4,214.1 C97.2,213.4 97.6,212.8 98.2,212.7 C98.8,212.6 99.7,213.1 100.2,213.3 L100.2,213.3 Z M280.7,217.4 C245.1,246.2 238.8,292.9 256.6,328.8 L253.5,331.2 C231.2,289 246.2,243.5 273.6,218.6 L280.7,217.4 Z M75,220.8 C75.6,220.7 76.3,221.7 78.8,224.3 C80.5,226.1 82.2,227.7 83.2,228.2 C85.3,229.2 84.8,228.8 83.1,230.4 C81.3,232.4 82.3,234.1 80.2,233.1 C74.7,230.5 70.8,222.8 74.4,221 C74.6,220.9 74.8,220.8 75,220.8 L75,220.8 Z M72.2,228.9 C72.3,228.9 72.5,228.9 72.6,228.9 C73.3,229.1 74.1,230.4 75,231.3 C77.5,233.8 78.6,234.9 80.6,235.7 C82.5,236.6 82.6,236.8 81.2,238.3 C80.7,238.8 80.4,239.5 80.3,239.9 C80.2,240.3 80.2,240.7 79.7,240.8 C77.5,241.2 70.4,236.9 70.1,233.9 C70.4,231 71.1,229 72.2,228.9 L72.2,228.9 Z M87.4,229.7 C88.6,229.7 89.4,230.8 89.4,232.6 C89.4,233.8 88.7,234.4 87.3,234.9 C84.3,236 82.4,233.9 84.5,231.5 C85.4,230.4 86.6,229.7 87.4,229.7 L87.4,229.7 Z M85.6,237 C87.9,237 88.6,238.9 86.9,240.6 C85.3,242.2 82.1,242.2 82.1,240.5 C82.1,239.1 84.1,237 85.6,237 L85.6,237 Z M71.3,239.3 C72.9,239.8 76.6,242.5 78.3,242.8 C78.4,243.7 77.3,244 78.8,245.7 C79.5,246.5 79.6,247 79,247.4 C77.1,248.4 70.5,245.2 70.1,241.9 C69.9,240.3 70.4,239.4 71.3,239.3 L71.3,239.3 Z M79.9,243.3 C82.2,243.4 84.7,243.5 84.5,244.5 C84.3,245.3 83.5,247.4 82.5,247 C82,246.8 81.5,246.3 81.2,246 C79.9,244.8 79.6,243.3 79.9,243.3 L79.9,243.3 Z M165.5,252.6 C172.1,258.6 196,320.9 146.1,366.3 L135.5,369.5 C183.4,331.9 175.4,278.5 162.5,255.4 C162.5,254.7 162.3,254.8 161.1,255.9 C160.1,256.8 159.9,257 160.4,257.2 C175,279.7 180.5,343.2 122.9,373.8 C121.9,374.8 123.9,374.7 123.9,374.7 C124,373.9 149.8,367.6 148,367.4 C172.1,346.1 193,295.4 166.9,251.2 C166.3,250.9 165.5,252.6 165.5,252.6 L165.5,252.6 Z M157.2,259.7 L156.9,261.1 C177.8,302.1 157.9,352.3 119,370.9 C119.6,371.4 120.4,371.7 121.1,372 C165.1,348.3 177.8,298.1 158.6,259.2 L157.2,259.7 Z M153.7,262.6 L153.5,264.1 C170.8,299 157.1,347.4 115.8,367.1 C115.4,369.2 115.8,368.6 117.7,368.5 C165.4,342.9 169.9,294.2 155,262.6 L153.7,262.6 Z M150.7,266.8 C149.4,268.6 146.9,269.5 146.1,271.8 C158.1,309.4 141.4,344.1 111.7,358.6 C111.7,360.4 110.4,365 113.6,364.3 C151.1,347.3 167.4,302.2 151,266.6 C150.9,266.6 150.7,266.8 150.7,266.8 L150.7,266.8 Z M339,337.7 C340.4,337.8 341.6,338.2 342.9,338.4 C347.6,339 350.6,342.4 348.5,344.5 C347.8,345.2 346.9,344.8 343.8,343.3 C342.4,342.6 342.2,342 341.9,340.4 C341.6,338.6 341.2,338.4 340.7,339.8 C340.2,341.2 339.7,342.1 338.1,341.8 C333.7,340.7 335.4,337.6 339,337.7 L339,337.7 Z M289.2,368.9 C278,362.6 264.2,351.1 256.3,338.1 C252.4,345.5 247.8,358.9 247.8,358.9 L230.2,354.1 L230,354.3 L247.3,359.3 L245.6,365.1 C245.4,365.7 242.7,372.3 242.7,372.3 L269.8,384.9 C268.1,387.5 266.3,389.2 264,391.7 C262.7,393.1 262.7,394.9 262.7,394.9 L300.3,359.1 C300.3,359.1 305.1,366.3 306.9,367.9 C308.6,369.4 309.1,369.8 307.1,370.3 C298.3,371.6 291.4,378.3 293.8,387.2 C294.2,388.2 295,387.8 296.6,386.8 C302.5,381.5 316.8,376.6 317.3,377.8 L317.4,383.5 C302,383.7 303.6,395.1 304.7,401.2 C304.7,401.3 300.2,405.2 300.2,405.2 C301.8,406 303.3,406.9 304.8,407.9 C303.4,415.5 309.9,426.4 322.6,420.8 C323.7,421.9 324.7,423 325.9,424.5 C327.2,423 328.7,419.5 328.7,419.5 C335,422.3 348,416 341.4,401.4 L345.1,397.9 L341.6,395.7 C341.5,392 340.9,388.7 338.7,385.4 C338.7,385.4 344.6,386.9 349,387.2 C351.7,387.4 354,387.5 353.8,385.9 C353.7,385.4 353.3,383.1 353.1,382.3 C351.8,378.5 345,375.7 338.4,375.3 C337.3,375.2 336.2,375.3 335.9,375 C335.5,374.5 336.2,373.7 337,373.8 C340.6,374.4 344.1,371.8 344.7,368.4 C344.8,367.8 345.6,366.7 346.6,365.5 C348.5,363.4 348.6,363.5 348.6,360.5 C348.6,358.4 348.9,358 349.9,356.6 C351.1,354.6 351.7,352.1 351.1,349.4 C350.9,348.6 350.1,347.4 350.8,345.3 C351.9,341.9 349.5,338.8 346.3,337 C346,336.9 346.1,337.2 345.9,337.4 C343,338.3 339.5,336.2 339.5,336.2 C338.8,335.8 342,317.3 348.6,318.9 C348.9,319.1 350.1,322.3 350.1,322.3 C350.7,322.3 350.5,316.8 346.6,317.5 C345.1,317.8 343.3,319.8 342.5,320.8 C339.4,324.7 339.4,327.3 338.3,331.5 C337.8,333.5 337.7,333.4 335,331.2 C333,329.7 332.1,329.2 332.8,328.3 C333.1,327.9 334.4,326.6 334.4,326.6 L358.4,303.5 L358.4,534.4 L222.8,534.4 L223.8,504.7 C226.3,483.8 221.9,440 218.5,435.9 C221.1,433 229.2,425.9 228.8,425.6 L227.7,425 L223.4,428.9 L212.8,425.7 C208.3,422.6 203.7,419.7 198.9,418.5 C191.1,416.5 176.1,422.9 176.1,423 C152.1,424.8 132.9,434.5 133.2,434.4 C132.2,433.4 130.8,430.4 130.7,430.4 C118.3,413.2 106.2,403.5 89.6,391.8 L110.7,380.2 L60.7,328 L60.3,285.7 L132.5,216.6 C132.9,215.4 155.5,232.6 164,246.6 C165.6,239.8 168.6,233.6 171.1,226.9 C171.4,226.3 185.5,232.1 189.7,232.4 C190.3,232.4 190.8,231.8 190.8,231.8 L172.2,225.7 L176,214.8 C176,214.8 177.3,211.8 175.8,211.3 C167.3,208.5 159.3,203.7 151.2,199.6 C151.2,199.6 155,195.4 155.1,195.2 C155.2,195 156.7,192.8 156.3,192 C152.2,196 118.5,227.3 118.5,227.3 C117.5,221.9 116,220.1 112.8,216.7 C114.6,216.6 117.4,214.8 119,213.7 C123.9,210.1 126.6,203.7 126,199.9 C121.3,201.4 117,203.2 111,204.3 C107.7,204.9 104.5,206.4 102.6,208 L102.3,202 C102.3,202.1 110.3,203.4 114,198 C117.2,193.4 115.9,188.1 115.1,185.4 C115.2,184.8 115,184.9 116.4,183.6 C117.4,182.7 119,181.5 119,181.5 C119.1,181.2 114.9,179.6 114.2,178.2 C115.3,167.1 106.5,162.8 99,164.8 C97.6,165.2 96.9,165.5 95.3,163.6 C95.1,163.3 93,161.2 93,161.2 C93,161.2 92.1,163.2 91.7,164.1 C90.2,167 89.8,166.1 86.6,166.3 C78.6,166.7 75,173.2 76.8,181.1 C77.2,183 77,182.7 75.8,185.1 C75.2,186.3 74.1,187.8 74.1,187.8 C74.1,187.8 75.6,188.6 76.6,189.1 C78.1,189.8 78.1,190.5 78.1,192 C78.3,195.2 79,197.4 80.9,200.2 C74.6,200.3 69.8,199.8 64.1,197.9 C65,206.7 71.4,209.9 79.3,211.2 C79.3,211.2 78.5,212 77.6,212.3 C75.7,212.8 74.6,214.5 74.6,215.9 C74.3,217.3 73.4,218.7 72.6,219.4 C71.4,220.5 70.4,222 70.8,224.9 C70.7,227 70.2,227.6 69.5,228.4 C68.3,230 67.8,231.6 68.2,233.7 C68.3,234.7 68.6,236.8 68.4,239 C68.1,242.6 69.4,244 71,246.6 C72.1,248.3 71.8,248.3 71.6,249.5 C71,252.4 70.4,253.9 69.7,256.1 C68.3,261 68.2,264.8 69.4,265.7 C71.2,267.1 73.2,266.7 74.1,266.4 C81.1,264.2 79.9,257.4 80.3,252.8 C80.5,251.6 80.9,251 81.3,251.1 C83.3,253.4 85.4,254.8 88.1,256.2 C78.8,265.7 72.7,271.5 60.9,281.8 L61.2,50.8 L195.6,50.8 C195.6,50.8 195.7,52.5 195.4,60.9 C194.8,77.9 194.1,95.7 195.2,113 C195.4,119 195.3,124.9 196.1,130.8 C196.9,136.6 197.3,142.8 200,148.2 C201.1,151.1 201.1,150.9 197,154.7 C195,156.6 193.2,158.6 193.3,158.9 C193.3,159 193.2,159.5 193.5,159.2 C193.7,159 195.2,157.5 195.4,157.4 C196.5,156.1 198.4,157.8 204.8,159.6 C206.1,160 207.8,161.1 209.2,162.1 C218.8,170.2 232.2,167.6 242.2,163.3 C245.1,162.1 245.7,161.9 250.3,161.4 C267.3,159.4 285.4,152 285.4,152 L287.6,155.6 C287.6,155.6 288.4,155.5 289,156.4 C298.8,174.8 330.6,195.9 330.1,194.9 L309.3,206.4 C324.5,225.1 359.1,256.9 359.1,256.9 L358.3,302.6 C349,310.1 340.8,318.6 332.6,326.9 C330.3,329.2 328.6,330.6 329.5,330.6 C331.6,330.3 333.5,332.4 335.2,333.8 C336.3,335 336,334.9 334.8,336.6 C333.9,337.8 333.6,338.1 333.6,339 C333.6,340.6 333.6,341.7 332.2,343 C331.3,344.1 330.8,344.9 330.6,346.2 C330.4,347.5 330.5,348.4 329.5,349.6 C327.9,349.9 327.8,352.2 328.1,353.2 C329.7,354.8 329,356.6 329.1,356.2 C326,359.6 322.7,362.6 324.8,357.8 C325.8,356 326.1,354.6 326.1,354.6 C326.1,354.6 324.6,356.2 323.8,356.9 C322.6,358 322.1,357.4 322.1,353.9 C321.9,351.3 320.8,347.6 320.4,346.9 C320.2,346.5 320.1,347.2 320.2,349.7 C320.4,353 320.8,354 319.6,357.3 C318,361.8 316.9,362.4 319.5,362.3 C321.9,362.1 324,362.1 325.1,363.6 C325.5,364.1 325.9,364.9 326.9,365.4 C328.9,366.5 330.5,367.7 331.6,368.9 C335.2,372.8 334.2,376.3 327.2,374 C323.5,372.7 325.9,371.2 329.9,371.5 C332.3,371.7 332.7,370.8 330.6,370.2 C326.7,369.5 326.1,369 323.5,372.1 C312.7,371 306.6,365 303.7,360.1 C302.5,358 302.1,357.6 303,356.5 C303.3,356 303.1,356.2 302.6,356.8 C302,357.4 300.5,358 299.9,358.4 C296.2,362 292.5,365.9 289.2,368.9 L289.2,368.9 Z M336.3,343.5 C338.1,343.7 338.1,345.3 336.5,346.8 C335,348 333.9,348.2 333,347.3 C331.4,345.7 333.4,343.5 336.3,343.5 L336.3,343.5 Z M341.6,344.6 C343.1,344.6 345,345.3 347.2,347.1 C349.9,349.3 350.5,354.7 348,355.6 C347,356 346.8,355.6 344.6,353.5 C343.1,352.1 341.5,350.8 339.9,350.1 C336.7,348.6 336.3,348 338.4,346.9 C338.9,346.7 339.5,346.1 339.7,345.7 C340.4,344.9 340.6,344.6 341.6,344.6 L341.6,344.6 Z M338.1,351.7 C338.5,351.7 339.1,352 340,352.5 C345.4,355.5 348.1,360.1 346.3,362.7 C345.1,364.4 343.1,363.8 341.6,361.3 C340.8,359.9 338.5,358.2 336,356.9 C333.1,355.4 333,355.2 335.1,354.2 C336,353.8 336.6,353.2 337,352.5 C337.5,351.6 337.6,351.7 338.1,351.7 L338.1,351.7 Z M339.9,362.8 C344,366.9 343.5,369.1 340.9,370.8 C339.1,371.9 336.2,372.2 335.2,371.3 C333.7,370 333.7,368.4 335.4,367.9 C337,367.6 336.4,366.9 334.9,366.5 C329.6,365 326.3,362.2 332.1,362.8 C333.8,363 335.4,361.7 336.2,360.7 C337.4,359.1 339.1,362.1 339.9,362.8 L339.9,362.8 Z M59.9,364.4 L179.7,535.9 L82.8,535.7 C82.8,535.7 82.4,534.4 83.2,524.2 C84.4,510.2 82.6,498.1 79.3,484.5 C79.7,484.4 74.7,468 70.7,459.9 C70,458.2 70.1,458 72.4,457.8 C79.3,456.7 86.6,455 93.5,452.1 C96.7,451.8 101.4,453.1 101.1,452.7 C101,452.5 97,448.8 97,448.8 C85.8,453.3 75.5,454.9 65.8,456 C78.7,478 83.3,507.8 79.4,534.7 L60.8,534.6 L60.7,402.5 L59.9,364.4 Z M81.3,389.8 C83,389.7 87.2,392.7 87.7,394.9 C87.8,395.4 88.9,398.1 90.1,400.7 C90.1,401.2 94.3,408.7 92.5,408 C88.9,403.1 82.4,394.7 80.7,390.6 C80.7,390.1 80.8,389.8 81.3,389.8 L81.3,389.8 Z M94.2,397.3 C94.4,398.5 95.7,401.8 96.7,403.9 C99.3,409.5 103.3,418.2 102.5,420.7 C101.9,422.4 102.5,422.3 101.1,420.2 C100.4,419.2 98.1,416.1 97.6,415.3 C96.3,413.5 97.2,415.2 96.4,412.3 C94.6,404.2 91.7,400 89.9,395.2 C89.2,393.1 93.4,396.4 94.2,397.3 L94.2,397.3 Z M96.5,398.5 C96.8,398.8 101.6,402.1 102.1,402.6 C103.8,408.6 110.5,427.8 108.8,431.2 C108.2,430.7 105.6,427.6 105.3,426 C104.5,416.8 101.6,410.2 98.5,403.4 C97.6,401.4 96.9,399.3 96.5,398.5 L96.5,398.5 Z M105.5,405.3 C107,406 108.6,407.7 109.4,409.2 C110,410.2 110.3,411.4 110.8,413.9 C112.5,421.7 115.8,429.7 114.3,438 C113.4,439.3 111.4,436.4 111.1,433.6 C110.1,424.4 109.3,419.9 106.1,409 C105.5,407 105.1,405.4 105.5,405.3 L105.5,405.3 Z M113.1,412.4 C113.4,412.4 114.1,413 115.2,414 C117.3,416 117.6,416.7 117.6,420.1 C117.7,425 119.3,430.6 119.6,435.5 C119.7,438.4 120.3,445.7 119.8,446.1 C119.2,447 116.4,443.8 116.6,439 C116.9,433.3 116.7,428.9 114.2,419 C113.1,414.5 112.5,412.6 113.1,412.4 C113,412.5 113.1,412.4 113.1,412.4 L113.1,412.4 Z M334.3,383.4 C342.9,388.9 339.8,399 338,400.3 C349.8,415.2 331.4,422.9 325.6,417.5 C317,426.1 302.1,418.9 307.9,404.8 C307.9,404.8 297.1,384.1 318.4,385.5 C318.4,385.5 318.8,377.1 318.2,376.8 C310.6,376.3 300.2,383.6 297.3,385.7 C295.7,386.7 295.3,386.2 295.3,386.2 C294.9,381.9 294.9,379.9 296.6,377.4 C299.7,373.2 304.8,371.8 311.5,370.3 C319.8,372.8 327.7,376.9 335.3,376.2 C339.5,376.2 343.8,376.9 347.9,379.1 C350.7,380.4 352.1,385.3 352.1,385.3 C347.8,387.5 334.3,383.4 334.3,383.4 L334.3,383.4 Z M330.3,352.7 C330.3,351.2 332,349.6 333.7,349.8 C336,350 336.3,352.7 334.3,353.6 C333.7,354.1 331.8,353.4 331.7,353.9 C331.8,354.8 330.9,354.4 330.7,354.1 C330.3,353.7 330.3,353.1 330.3,352.7 L330.3,352.7 Z M328.9,358.5 C329.7,357.9 330.4,357.9 331.3,357.8 C332.6,357.6 334.2,357.8 334.6,359.2 C335,360.5 332.4,361.3 330.4,361.3 C329.4,361.3 328.1,361.5 327.8,360.8 C327.5,360.1 328.5,358.9 328.9,358.5 L328.9,358.5 Z M69.7,264.1 C71.4,258.4 70.3,255.1 73.1,248.1 L79.8,250.3 C79.8,250.3 80.1,257.2 78.7,261.1 C77.4,265 73,268 69.7,264.1 L69.7,264.1 Z M119.7,419.4 C120.5,419.5 122.4,422.3 123.3,424.8 C124.1,427.1 123.8,430.1 124.4,432.6 C125.7,441.3 125.6,449.9 125.3,452.5 C125.1,453.8 124.3,453.3 123.1,452 C121.4,450.2 121.7,450.2 121.7,445.1 C121.7,440.8 120.8,430.1 120.3,428 C119.5,424 119.1,420.2 119.3,419.5 C119.4,419.4 119.5,419.4 119.7,419.4 L119.7,419.4 Z M198.1,420.4 C206.7,421.8 213.6,427.7 217.6,437.4 C221.4,447.3 222.3,460.7 222.9,473.1 C222.9,476.1 221.6,475.3 218.4,473.5 C214.9,471.8 214.2,472.3 209.1,473.5 C205.9,474.2 206.2,472.1 211.4,468.5 C213.2,467.3 215.3,465.8 214.6,465.6 C214.3,465.5 212.7,465.9 211.5,466.8 C206.4,470.9 205,472 206.4,467.9 C206.8,466.9 208,464.1 208.5,462.7 C210.4,457.6 208.2,455.5 201.9,452.3 C200.3,451.5 199.3,450.2 200.9,453 C202.2,455.3 199.5,457.1 196.2,454.5 C193.9,452.6 189.3,453.9 187.8,456.2 C186.4,458.5 187.1,462.7 190,464 C192.5,465.1 193.4,464.3 191,462.6 C187.9,460.4 188.5,456.8 192,456.8 C192.9,456.8 194.4,457.8 198.3,459.9 C201.1,461.4 203,460.8 203,458.5 C203,457 203.9,457.1 205.7,458 C208.1,459.2 207.9,460.3 206.6,463.7 C205.7,466.1 205.3,468.7 204.5,471.2 C202.4,479.5 202.2,488.9 204.4,491.8 C210.5,499.6 216.9,498.8 222.4,493.6 L222.2,502.1 C216.6,506.6 210,509.7 199.9,526.4 C196.4,522 181.2,503.8 156.9,499.7 L151.4,492.2 C151.5,491.7 147.3,464.4 144.6,455 C144.6,455 147.6,450.4 150.3,447.1 C161.2,433.6 179.6,418.2 198.1,420.4 L198.1,420.4 Z M166.3,428.2 C165.4,428.5 165.1,426.6 165.6,426.3 C166.7,426.2 167.1,426.2 168.2,426.3 C169.1,426.3 169.1,427.3 166.3,428.2 L166.3,428.2 Z M125.3,426.8 C126.5,427.7 128,430 129.4,432.1 C130.2,433.3 129.7,435.2 129.9,437.1 C130.1,439.8 130.4,444.3 130.6,447.1 C131,452.5 130.5,457 129.7,458.6 C128.9,460.5 127.3,459.2 126.9,456.5 C126.8,455.9 127.3,449.3 127.3,445.6 C127.3,439.5 125.7,431.8 125.3,426.8 L125.3,426.8 Z M162.1,426.7 C162.5,426.7 162.9,426.7 163.1,427 C164.4,428.7 164.9,429.7 163.8,430.6 C162.2,431.9 160.8,431.6 159.9,429.1 C159.3,427.4 160.7,426.8 162.1,426.7 L162.1,426.7 Z M157.2,428.2 C158.6,429.1 160,431.6 160.2,433.4 C160.1,433.9 159.7,434.3 158.7,435.1 C157.8,436 157.5,435.9 156.4,434.3 C154.8,431.7 154,430 154.3,429.2 C155.2,428.3 156.2,427.9 157.2,428.2 L157.2,428.2 Z M214.7,428.5 C217.1,428.7 219.4,429.8 221.7,430.3 L218.2,433.7 C217.2,432 216,430.3 214.7,428.5 L214.7,428.5 Z M152,430.3 C153.3,432 155.5,436.4 155.4,438 C155.1,438.6 154.6,439.1 154,439.4 C153.6,439.5 153.2,438.8 151.7,436.2 C149.2,431.7 148.4,430.5 149.7,429.9 C150.5,429.8 151.6,429.8 152,430.3 L152,430.3 Z M146.9,431.3 C148.3,432.6 151.7,439.2 151.8,441.1 C151.8,441.6 151.6,442.1 151.3,442.4 C149.2,444.7 149.7,444.3 146.5,437.8 C143.8,432.4 143.1,431.9 144.9,431.3 C145.3,431.3 146.3,431.1 146.9,431.3 L146.9,431.3 Z M141.8,433.1 C142.7,433.1 143,434.6 144.8,438.2 C147.8,444.9 149,445.8 148.3,446.5 C147.4,447.6 147,448.3 146.2,447 C144.4,444 142.6,440.2 140.9,436.9 C139.5,434.4 139.4,434.1 140.3,433.5 C140.7,433.2 141.5,433.1 141.8,433.1 L141.8,433.1 Z M195.9,435 C194.8,435.3 190.2,436.8 193,437 C193.6,437.1 195,436.7 196,436.6 C198.8,436.4 204.7,436.9 204.5,436.4 C204,434.4 197.4,434.6 195.9,435 L195.9,435 Z M137.9,435.6 C137.9,435.7 138.6,437 139.4,438.3 C143.7,446.6 146.1,449.7 145.3,451 C144.7,451.8 143.7,452.8 143.1,452.6 C142.2,452.2 140.9,449.5 137.9,443.3 C134.7,436.9 134.4,436.5 136,435.6 C136.6,435.3 137.5,435 137.9,435.6 L137.9,435.6 Z M133.6,438.6 C135.6,441.8 135.3,441.4 135.3,451.9 C135.3,458.4 134.4,462.6 133.4,464.2 C132.8,465 131.8,464.6 131.3,462.9 C131.1,462.1 131.7,461 131.8,459.9 C132.6,452.1 132,444.2 132,436.8 C132.6,436.6 133.2,438 133.6,438.6 L133.6,438.6 Z M184.6,441.1 C185.5,442.4 185.3,443.5 185.3,445.2 C185.3,447.7 185.5,447.9 187.2,446.6 C188.7,445.5 188.9,445.4 191.6,447.3 C193.2,448.4 195.3,448.5 196.6,447.3 C197.5,446.4 197.9,446.8 199.1,447.2 C200.5,448 200.8,448.1 203.8,446.7 C205.8,445.8 205.9,445.7 207,446.3 C209.1,448.1 209.4,447.5 209.1,445.1 C209.1,444.3 209.3,442.7 209.6,441.7 C210.6,437.5 209,437.4 206.8,440.1 C205.9,441.1 204,441.6 202.3,440.8 C199.7,439.6 195.7,440.1 192.8,440.6 C189.3,441.2 187.7,440.2 186.3,439 C185.5,438.3 183.7,437.7 183.5,438.2 C183.1,438.7 183.5,439.5 184.6,441.1 L184.6,441.1 Z M137.7,447 C138.1,446.9 138.8,448.2 139.8,451 C141.1,454.6 138.8,466.9 137.5,468.9 C136.8,469.9 136.3,470.6 134.9,468.6 C134.3,467.7 134.8,467.5 135.3,465 C136.2,461.3 136.9,455.3 137,452.6 C137,449 137.2,447.1 137.7,447 L137.7,447 Z M142.1,459 C142.4,459 142.8,459.7 143.3,461.1 C144,463 143.7,466.8 142.7,469.6 C142.2,471.3 141.6,473 140.7,474.5 C140.4,475.3 138.8,475 138.3,473.2 C138,472 139,470.6 139.5,468.7 C140,466.8 140.5,464.5 140.8,463.3 C141.3,460.4 141.6,459 142.1,459 L142.1,459 Z M176.6,464.5 C176.6,464.5 176.6,464.5 176.6,464.5 C176.5,464.5 176.5,464.5 176.5,464.5 C176.4,464.6 179.9,468.3 180.8,469.4 C181.3,469.8 185.4,474.8 182.8,473.7 C176.3,471 168.7,472.3 164,476.8 C163.4,477.4 162.9,476.8 161.1,476.7 C157.5,476.4 156.1,477.9 158.3,479.7 C158.6,480 159.3,480.1 159.7,480.5 C160,480.9 159.9,481.6 160.1,481.8 C167.1,491.1 180.2,493 188.4,486.9 C189.4,486.1 190,485.9 191,486.2 C192.9,486.8 193.1,485.2 191.4,482.9 C190.7,481.9 189.8,480.8 190.3,480.5 C191.3,479.6 191.8,478.1 190,477.6 C188.8,477.2 187.4,475.8 186.7,473.9 C185.9,471.6 177.9,464.6 176.6,464.5 L176.6,464.5 Z M144.7,468.6 C146.2,468.6 146.3,477.6 144.6,480.3 C143.7,481.3 141.7,479.4 142,477.4 C142.2,475.9 143.9,469.1 144.2,468.7 C144.4,468.6 144.6,468.6 144.7,468.6 L144.7,468.6 Z M175.9,474.2 C177.2,474.2 178.9,474.8 180.3,476 C181.1,476.7 182.4,479.6 181.8,480.8 C181.6,481.4 180.1,481.4 179.9,480.9 C179,474.9 174.2,474.1 172.7,479.6 C172.7,479.6 171.7,480.4 171.6,478.8 C171.9,475.8 173.4,474.2 175.9,474.2 L175.9,474.2 Z M214.8,474.7 C216.3,474.7 217.8,475.4 218.6,477.1 C219.1,478.2 219.2,479.2 219,479.7 C218.8,480.1 218.3,479.9 218.3,479.9 C215.8,473.2 212.5,476.3 211.3,480 C211.3,480 210,480.4 209.9,480 C209.7,479.6 209.8,478.8 210.3,477.8 C211.3,475.8 213.1,474.8 214.8,474.7 L214.8,474.7 Z M182,475.1 C182.9,475.1 184.4,475.8 185.5,476.9 C186.6,478 186.7,478.7 185.8,479.6 C185.3,480.1 183.3,480.6 182.9,479.7 L181.3,475.9 C181.1,475.5 181.6,475.2 182,475.1 L182,475.1 Z M170.2,475.3 C171.2,475.3 171.4,475.5 169.8,479.1 C169.5,479.9 165.6,478.8 166.3,477.3 C167.4,476.1 169.2,475.3 170.2,475.3 L170.2,475.3 Z M209.4,475.6 C209.8,475.6 210.1,475.6 210.2,475.8 C209.9,475.9 208.4,479.7 208.4,479.7 C207,479.5 205.3,479.7 205,478.6 C204.7,477.5 205.3,476.9 207.2,476.1 C207.9,475.9 208.8,475.6 209.4,475.6 L209.4,475.6 Z M220.9,476.6 C222.4,477.1 222.7,478.4 222.5,479.1 C222.4,479.6 221.7,479.6 221.2,479.2 C220.7,478.7 220,477.7 220.1,477.1 C220.2,476.4 220.4,476.4 220.9,476.6 L220.9,476.6 Z M147,480 C147.5,480.9 148.3,485.7 147.3,485.6 C146.4,485.3 145.9,483.9 145.8,482.6 C145.7,482.3 146.5,480.1 147,480 L147,480 Z M163.3,482.6 C163.7,482.5 164.8,482.9 166.4,483.8 C171.7,486.4 177.2,486.7 183,485.4 C186.3,484.5 187.2,484 187.7,484.6 C188.5,485.6 187.2,486.6 182.5,488.1 C177.3,489.8 172,489.5 164.9,484.6 C163,483.4 162.7,482.7 163.3,482.6 L163.3,482.6 Z M222.3,484 C223.2,485.6 220.2,487.2 218.7,487.6 C215.5,488.5 210.6,488.1 207.9,486.4 C207.7,486.2 207.4,486.1 207.2,485.9 C205,484.2 205.9,483 208.4,484.3 C211.1,485.7 216.5,485.9 219.4,484.5 C220.9,484 221.9,483.1 222.3,484 L222.3,484 Z M156.3,487 C156,487.1 156.5,487.8 157.5,488.9 C164.8,497.1 182.2,501.5 191.9,493.1 C195,490.2 194.5,488.9 189.7,491.2 C184.4,493 176.8,493.2 170.2,492.2 C167,491.8 161.7,490.5 159.1,488.6 C157.4,487.4 156.5,487 156.3,487 L156.3,487 Z M206.5,487.3 C206.9,487.3 207.7,487.5 209.4,488.4 C211.9,489.7 217.5,489.2 219.3,488.6 C223.2,487.2 224,489 220.3,491 C216.2,493.5 210.6,492.5 207.3,489.3 C206.3,488.4 205.7,487.3 206.2,487.2 C206.2,487.1 206.4,487.3 206.5,487.3 L206.5,487.3 Z M158.2,501.7 C172.5,503 194.2,517.2 202.6,534.3 L197.8,534.3 C189.3,520.9 176.3,510 160.8,506 C160.1,505.6 157.9,502.3 158.2,501.7 L158.2,501.7 Z M221.8,504.8 L221.1,509.5 C218.7,511.5 209.9,518.8 203.4,530.2 C202,530.1 201.4,528.5 201.6,527.4 C206.9,517.1 213.1,511.4 221.8,504.8 L221.8,504.8 Z M163.9,508.5 C167.2,508.3 188.6,519.8 195.8,534.3 L191.8,534.3 C183.7,523.7 174.7,516.9 166.7,514.1 C164.8,512.1 162.7,508.6 163.9,508.5 L163.9,508.5 Z M221.2,511.8 L221.2,518.2 C216.1,523.2 212.3,528.2 209.4,534.3 L205.4,534.3 C205.4,534.3 204.5,532.5 204.8,531.5 C209.3,523.4 213.6,517.4 221.2,511.8 L221.2,511.8 Z M188.7,534.3 L184.8,534.3 C181.6,529.7 176.7,525.3 172.3,522.7 C170.5,520.5 168.4,517.7 169.3,517.2 C169.3,515.6 186.4,527.1 188.7,534.3 L188.7,534.3 Z M221.2,521.4 L221.1,525.1 C218.5,528.4 216.3,531.2 214.2,534.4 L211,534.4 C214,527.9 221.5,519.6 221.2,521.4 L221.2,521.4 Z M177.1,528.5 C178.3,528.8 182.6,532.9 182.5,534.3 L180.6,534.2 C179.5,532.8 178.2,531.4 177.4,530 C176.9,529.2 176.6,528.3 177.1,528.5 L177.1,528.5 Z M220.5,529.6 C220.5,529.6 220.5,529.6 220.5,529.6 C220.5,529.6 220.5,534.3 220.5,534.3 L217.2,534.3 C216.8,534.3 218.8,530.8 220.5,529.6 L220.5,529.6 Z" id="Shape" fill="#131F67" fill-rule="nonzero"></path>
            <path d="M289,49.7 C272.9,49.7 256.6,49.8 238.4,50 L360.9,223.8 L361,185.2 L321.7,134.5 C330.6,131.7 341.6,129.8 350.2,129.1 C339.2,104.6 333.6,81.6 338.5,50.1 C321,49.8 305.1,49.7 289,49.7 L289,49.7 Z M336.4,50.8 C335.4,61.9 334.2,74.3 336.2,88.1 C329.8,85.8 328.3,89.7 327.3,90.2 C326.1,87.5 321.7,82.9 316.6,88.3 C314,91.1 315.3,96.4 321.3,98.8 C314.4,99.3 310.7,93.4 309.5,87.3 C305.7,84.9 301.8,82.5 301.4,74.1 L303.3,74.4 C302.7,80.3 308.8,83.3 312.3,80.5 C314.6,78.7 314.9,76 314,71.7 C315.9,71.3 320.2,69.5 319.1,63.9 C317.5,56.2 309.6,57.1 306,62.2 C303,58.5 297.5,57.8 295.3,63.6 C294.1,66.8 296.9,70.4 300.1,71.1 C293,72.5 289.4,62.7 289,56.1 L286.1,50.9 C305.2,50.8 313.6,50.8 336.4,50.8 L336.4,50.8 Z M240.4,51 L254.6,51 L358.4,185.4 L358.6,218.9 L240.4,51 Z M276.3,51 L278.6,51 C280.4,62.8 287.2,71.4 298.8,75.6 C299.4,85.3 304.1,98.4 321.7,102.8 C321.2,113.7 328.2,124.1 335.7,129.1 C335.7,129.1 333.7,129.6 332.1,129.7 C322,121.7 319.5,109.9 318.5,105.1 C318.2,104.4 317.2,104.2 316.4,104.1 C307.8,101.1 300.5,94 297.5,85.3 L295.6,76.8 C295.6,75.7 295.4,76.2 292.8,75.3 C286.1,72.8 280,65.6 277.2,57 C276,52.5 276.3,51 276.3,51 L276.3,51 Z M267.2,51.1 L275.2,51.1 C275.2,51.1 275.2,52.5 275.4,53.4 C276.5,61.9 284.1,72.5 291.8,76 C292.9,76.5 294.4,77.2 294.8,77.5 C297,91.4 303.3,99.8 316.6,105.5 C316.8,105.7 317.4,105.9 317.6,106.1 C319.4,114.7 323.4,124.6 330.9,130.1 L327.6,130.4 L267.2,51.1 Z M306.1,65.6 C307.9,65.6 309.4,67.1 309.4,68.9 C309.4,70.7 307.9,72.2 306.1,72.2 C304.3,72.2 302.8,70.8 302.8,68.9 C302.9,67.1 304.3,65.6 306.1,65.6 L306.1,65.6 Z M196.1,83.4 C196.3,83.9 151.5,121.8 155.9,193 L154.6,194.4 L154.9,194.9 C153.4,196.6 152,197.9 150.4,199.6 C159.7,205.5 175.9,212 175.9,211.8 L172.8,219 L192.1,225.3 L189.5,232.1 C189.5,232.1 176,227.6 170.5,225.8 C167.7,231.9 166.1,238.3 164.1,244.7 C163.9,245.2 163.5,245 162.8,244 C152.7,226.9 132.1,214.5 132.8,215.7 L59.6,285.1 L59.2,328 L109.8,380.2 C109.8,380.2 95.2,387.4 88.2,392.1 C93.6,396.5 99.7,399.9 105.1,404.1 C116.2,411.9 123.7,423.4 130.9,431.2 C164.8,414.4 198.9,415.3 228.4,425.5 C225,429.1 221.1,432.2 217.6,436.2 C226.2,458.7 223.4,503.3 223,504.6 C240.8,486.4 267.4,447.3 263.8,392.3 L271.3,384.8 C271.2,384.4 252.5,374.4 244.7,372.3 L246.9,365.5 L228.3,359.7 L230.4,354.3 L248.9,359.7 C252.4,351.1 256.1,339 256.1,339 C263.5,350.1 271.7,360.1 288.5,370.4 L361.3,300.8 L360.8,256 L311.3,206.5 L331.9,195.8 C329.9,194.2 327,192.7 325,191.1 C324.9,191 325.4,190.6 325.3,190.5 C324.8,190.1 324.4,189.8 323.9,189.4 C323.8,189.3 323.4,189.8 323.3,189.8 C316.3,184.9 309.3,180.1 303.8,174.2 C303.7,174.1 303.9,173.4 303.7,173.3 C300.8,170.2 298,167.4 295.1,164.4 C293.8,163 291.5,159.8 291.5,159.8 L291.4,158.7 L288.3,154.8 C278.2,160.8 235.3,175.7 193.7,159.1 L201.6,151.2 C199.5,146.1 198.1,140.5 197.6,135.8 C195.3,116.9 196.1,83.4 196.1,83.4 L196.1,83.4 Z M327.1,94 C329,94 330.5,95.5 330.5,97.4 C330.5,99.3 329,100.8 327.1,100.8 C325.2,100.8 323.7,99.3 323.7,97.4 C323.7,95.5 325.2,94 327.1,94 L327.1,94 Z M337.9,98.1 C339.7,106.7 343.5,119.1 347.4,127.5 L342.8,128 C339.1,125.6 335.1,122.1 334.7,117 C324.6,117.1 321.7,101.3 325.4,103.2 C324.9,108.6 328.8,110.7 332.6,110.2 C335.9,109.8 338.7,105.2 334.8,100.2 C336.5,99.5 337.4,99 337.9,98.1 L337.9,98.1 Z M195.1,123.4 C195.8,134.4 197.9,142.3 199.9,150.6 L180,169.4 C181.5,152.3 186.6,136.9 195.1,123.4 L195.1,123.4 Z M290.6,159.5 L293.1,163.1 C264.3,180 215.2,181.2 185.3,166.9 L189.3,163.1 C215.6,175.1 258.4,175.9 290.6,159.5 L290.6,159.5 Z M103.7,165.1 C100.8,165.1 97.4,166.2 93.9,168.9 C80.7,162.9 72.1,176.9 80.2,186.3 C79,193 78.1,194.3 83.1,201 C77.7,201.7 71,200.3 65.2,199.4 C66.2,209.3 80.4,211.6 86.3,210.5 C92.7,209.1 98.7,212.3 99,212.4 C102.8,213.5 105.1,215.3 108.8,216.1 C114.9,217.5 123.9,210.4 125.1,203.6 C125.2,202.7 125.5,201.9 125,201.7 C120.8,202.8 116.2,204.3 112.2,205.2 C108.2,206.2 105.2,207.1 102.2,209.5 L102,201.3 C122.7,202.3 113.7,182.6 112.5,181.8 C116.3,174 111.7,165.2 103.7,165.1 L103.7,165.1 Z M291.7,165.7 L296.2,176.5 L284.2,180.6 L281.1,170 L291.7,165.7 Z M102.8,166.1 C109.8,166.2 116.1,173.6 109.4,181.9 C122.5,193.4 105.7,205.8 97.7,197.2 C87.1,206.9 75.8,196.8 81.7,186.2 C70.4,176 84.3,162.4 93.9,171.2 C96.3,167.5 99.6,166 102.8,166.1 L102.8,166.1 Z M184.4,170 C186.1,170 187.5,171.4 187.5,173 C187.5,174.7 186.1,176 184.4,176 C182.7,176 181.4,174.6 181.4,173 C181.4,171.4 182.8,170 184.4,170 L184.4,170 Z M106.6,170.2 C106.4,170.2 106.2,170.3 106,170.5 C105.7,170.5 104.9,171.8 103.1,174 C99.9,177.7 99.5,177.8 99.5,177.8 C96.1,176.7 93.8,177.3 91.5,178.7 C91.5,178.7 88.9,178.2 85.4,175.2 C83.8,173.8 82.9,173.5 82.6,174.3 C82.3,175.1 83,175.8 86.2,178 C90.5,180.9 90.2,180.7 90.2,180.7 C89.9,183.3 90.4,185.4 91.3,187.3 C91.3,187.3 90.5,189.1 87.5,193.1 C86.6,194.2 85.9,195.5 85.9,195.8 C85.9,197.4 87.3,196.3 90.4,192.4 C91.6,190.8 93.3,188.6 93.3,188.6 C97,189.9 98.3,189.1 100.6,188.3 C100.6,188.3 101.4,188.9 103.4,190.5 C107.1,193.4 107.9,193.7 108.3,193.4 C108.9,192.9 108.8,192.7 107.4,191.7 C103.3,188.7 101.8,187 101.8,187 C102.6,183.7 101.7,181 100.8,179.3 C100.8,179.3 100.9,178.9 103.2,176.3 C104.9,174.4 107.3,171.4 107.1,170.9 C107.2,170.6 106.9,170.2 106.6,170.2 L106.6,170.2 Z M191.3,170.9 L202.1,174.2 L199.7,185.4 L188.2,181.7 L191.3,170.9 Z M269.2,173.7 L272.2,184.6 L261,187.6 L259.2,176 L269.2,173.7 Z M277.1,173.8 C278.8,173.8 280.2,175.2 280.2,176.9 C280.2,178.6 278.8,179.9 277.1,179.9 C275.4,179.9 274.1,178.5 274.1,176.9 C274,175.2 275.4,173.8 277.1,173.8 L277.1,173.8 Z M302.5,174.2 L311.9,182.6 L301.4,187.9 L296.4,177 L302.5,174.2 Z M213.8,176.7 L224.7,178 L224.3,189.8 L211.7,188.1 L213.8,176.7 Z M175.8,176.8 L188,182.1 L183.6,194.4 L171.1,189 L175.8,176.8 Z M207.2,177.7 C211.7,178.4 210.5,183.7 207.2,183.8 C205.5,183.8 204.2,182.4 204.2,180.8 C204.1,179.1 205.5,177.7 207.2,177.7 L207.2,177.7 Z M246.5,177.7 L248,189.5 L236.6,190.2 L236.4,178.2 L246.5,177.7 Z M254.4,179.1 C256.1,179.1 257.4,180.5 257.4,182.1 C257.4,183.8 256,185.2 254.4,185.2 C252.7,185.2 251.3,183.8 251.3,182.1 C251.3,180.5 252.7,179.1 254.4,179.1 L254.4,179.1 Z M96.3,180.2 C98,180.2 99.4,181.6 99.4,183.3 C99.4,185 98,186.4 96.3,186.4 C94.6,186.4 93.2,185 93.2,183.3 C93.1,181.6 94.5,180.2 96.3,180.2 L96.3,180.2 Z M230.7,180.1 C232.4,180.1 233.7,181.5 233.7,183.1 C233.7,184.8 232.3,186.1 230.7,186.1 C229,186.1 227.6,184.7 227.6,183.1 C227.7,181.4 229,180.1 230.7,180.1 L230.7,180.1 Z M284.2,180.8 L288.6,192.9 L276.2,196.9 L272.7,184.5 L284.2,180.8 Z M292.9,181.1 C294.6,181.1 295.9,182.5 295.9,184.2 C295.9,185.9 294.5,187.2 292.9,187.2 C291.2,187.2 289.8,185.8 289.8,184.2 C289.9,182.5 291.2,181.1 292.9,181.1 L292.9,181.1 Z M314.4,184.6 L322.4,190.3 L318.4,192.5 C317.4,190 315.5,187 314.4,184.6 L314.4,184.6 Z M199.8,185.7 L211.6,188.3 L209.8,200.7 L196.9,198.1 L199.8,185.7 Z M164.6,186.4 L170.9,189.4 L166.8,199.7 L156.6,194.3 L164.6,186.4 Z M192.7,187 C194.4,187 195.8,188.4 195.8,190.1 C195.8,191.8 194.4,193.1 192.7,193.1 C191,193.1 189.7,191.7 189.7,190.1 C189.6,188.4 191,187 192.7,187 L192.7,187 Z M261,187.7 L263.1,200.1 L249.8,202 L249,189.4 L261,187.7 Z M311,187.9 C312.7,187.9 314,189.3 314,191 C314,192.7 312.6,194 311,194 C309.3,194 308,192.6 308,191 C308,189.3 309.3,187.9 311,187.9 L311,187.9 Z M301.5,188 L306,199 L292.9,204.5 L289,193.6 L301.5,188 Z M268.2,188.8 C269.9,188.8 271.2,190.2 271.2,191.9 C271.2,193.6 269.8,194.9 268.2,194.9 C266.5,194.9 265.2,193.5 265.2,191.9 C265.2,190.2 266.5,188.8 268.2,188.8 L268.2,188.8 Z M224.1,190.1 L236.6,190.3 L236.5,202.8 L222.8,202.4 L224.1,190.1 Z M324.1,190.9 L329,194.3 C278.4,226.8 207.4,230.9 151.9,198.8 C151.9,198.8 154.2,196.5 155.5,195.2 C205.4,225.2 278.4,221 324.1,190.9 L324.1,190.9 Z M217.4,192.4 C219.1,192.4 220.4,193.8 220.4,195.4 C220.4,197.1 219,198.5 217.4,198.5 C215.7,198.5 214.3,197.1 214.3,195.4 C214.3,193.7 215.7,192.4 217.4,192.4 L217.4,192.4 Z M243,193 C244.7,193 246.1,194.4 246.1,196.1 C246.1,197.8 244.7,199.1 243,199.1 C241.3,199.1 240,197.7 240,196.1 C240,194.4 241.3,193 243,193 L243,193 Z M183.5,194.7 L196.6,198.5 L194.4,208.8 L180.1,204.7 L183.5,194.7 Z M174.9,194.8 C176.6,194.8 177.9,196.2 177.9,197.9 C177.9,199.6 176.5,200.9 174.9,200.9 C173.2,200.9 171.8,199.5 171.8,197.9 C171.8,196.2 173.2,194.8 174.9,194.8 L174.9,194.8 Z M276.2,197 L279.3,208.6 L264.9,211.7 L263.2,200.3 L276.2,197 Z M284.5,198.7 C286.2,198.7 287.5,200.1 287.5,201.7 C287.5,203.4 286.1,204.7 284.5,204.7 C282.8,204.7 281.4,203.3 281.4,201.7 C281.5,200 282.8,198.7 284.5,198.7 L284.5,198.7 Z M96,200.5 L96,208.6 C93.6,206.6 90.9,204.5 88.1,202.4 C91,202.5 93.6,201.7 96,200.5 L96,200.5 Z M66.3,200.7 C67,200.7 68.5,201.2 70.3,201.2 C76.2,201.2 87.1,203 90.4,205.7 C91.5,206.6 93.1,207.4 94,208.8 C94,209.5 93,209.5 91.6,208.6 C88.9,206.9 84.4,205.4 78.3,204.6 C77.2,204.5 77.1,204.5 77.1,205 C77.1,205.6 78.1,206 81.3,206.5 C85.4,207.2 86.3,207.6 87.2,207.8 C89.7,208.5 88.1,209.4 85.6,209.6 C75.3,210.6 67.6,206.1 66,201.1 C65.9,200.8 66,200.7 66.3,200.7 L66.3,200.7 Z M209.8,200.8 L222.8,202.5 L222.2,213.3 L208,211.7 L209.8,200.8 Z M99.6,201.8 C101.9,203.6 100.3,209 99.1,210.5 C98.3,211.4 96.4,210.9 96.4,209.7 C96.7,208.6 96.3,203.2 96.5,201.6 C97.4,201 98.8,201.2 99.6,201.8 L99.6,201.8 Z M249.8,202.3 L250.5,213.5 L236.4,214.1 L236.5,203.1 L249.8,202.3 Z M202.1,203 C203.8,203 205.1,204.4 205.1,206.1 C205.1,207.8 203.7,209.1 202.1,209.1 C200.4,209.1 199.1,207.7 199.1,206.1 C199,204.4 200.4,203 202.1,203 L202.1,203 Z M123.3,203.2 C123.8,211.4 111.2,217 106.5,214.5 C104.4,213.4 105.3,212.7 109.4,211.9 C114.8,210.5 118.3,209.1 118.3,208.1 C118.3,207.5 117.5,207.6 115.3,208.4 C111.9,209.5 108.4,210 105.2,211.5 C102.8,212.6 101.9,213 101.3,212.3 C100.2,210.9 105.5,207.5 111,206.5 C115.2,205.7 119.4,203.5 123.3,203.2 L123.3,203.2 Z M257.6,204.2 C259.3,204.2 260.6,205.6 260.6,207.2 C260.6,208.9 259.2,210.3 257.6,210.3 C255.9,210.3 254.5,208.9 254.5,207.2 C254.5,205.6 255.9,204.2 257.6,204.2 L257.6,204.2 Z M229.2,206.4 C230.9,206.4 232.2,207.8 232.2,209.5 C232.2,211.2 230.8,212.5 229.2,212.5 C227.5,212.5 226.1,211.1 226.1,209.5 C226.2,207.8 227.5,206.4 229.2,206.4 L229.2,206.4 Z M297.1,211.6 C317.5,231 339.8,253.4 358.3,271.8 C358.3,281.4 358.2,300.7 358.2,300.7 L287.8,367.6 C275,359.8 264.3,350.1 254.3,332.8 C255.4,331.8 256.4,331.2 257.3,330.2 L253.6,332.4 C240.6,311.6 235.1,270.2 257.2,237.1 L234.9,237.9 L238.5,230.3 L262.8,229 L272.6,218.5 C272.6,218.5 275.7,217.9 278.3,217.3 C280.9,216.7 286.1,215.2 289.9,214 C293.7,212.6 297,211.6 297.1,211.6 L297.1,211.6 Z M132.5,217 C132.5,217 153.5,228.4 165.1,251.2 C127.5,283.6 113.3,321.2 110.1,360.4 C89.6,341.3 79.3,330.7 60.8,312.1 L61.5,284.4 L132.5,217 Z M211.6,220.6 C206.2,232.2 201.5,244.9 197.3,258.5 L191.5,256.8 C191.5,256.8 195.3,255.2 196.9,254.2 L193.9,249.3 L199.6,246.9 L196.2,242.8 L202,239.4 L199.1,235.7 L204.4,233 L201.1,229.2 L206.7,226.1 L203.8,222.5 L211.6,220.6 Z M213.4,220.6 C213.4,220.6 214.1,220.7 215,220.9 C215.2,220.8 213.9,223.9 214.1,224 C216.1,224.4 216.3,224.3 216.9,224.5 L218.5,221.3 L221,221.8 C215.9,233.4 210.4,246.1 207.2,259.8 L204.2,259.2 C204.2,259.2 205.1,256.3 205.1,255.9 C204.7,255.8 203.1,255.1 202.5,254.9 C202.3,255.4 201.2,258.7 201.2,258.7 L198.8,258.6 C202.8,243.7 209.6,227.1 213.4,220.6 L213.4,220.6 Z M223.2,221.1 L228.5,225.5 L222.5,227.9 L225.6,232.1 L219.2,234.4 L222.9,238.7 L216.6,241 L220.4,246.2 L213.8,248.4 L218,253 L212,255.8 L215.6,259.3 C215.6,259.3 211.9,260.5 211.7,260.6 C211.1,260.8 208.6,260.1 208.6,260.1 C212.2,246.8 216.9,233.2 223.2,221.1 L223.2,221.1 Z M93.7,223.3 C92.2,224.3 93.1,226.3 91.2,228.1 C90.9,228.4 90.9,229.2 90.8,229.8 C90.7,230.3 89.3,236.1 89.3,236.1 C89.3,236.1 89.7,235.7 90.2,233.8 C90.7,232.2 91.1,229.2 91.4,228.7 C92.8,228.3 93,223.9 94.3,224.5 C95.1,224.8 95,225.6 94.5,227.3 C93.5,230.7 93.1,232.1 94.8,229.8 C97.3,226.8 97.6,224 94.7,223.5 C94.5,223.4 93.9,223.3 93.7,223.3 L93.7,223.3 Z M131.7,224.6 L65.9,286.4 L65.7,309.4 L88.6,332.6 L104.8,348.4 C110.7,313.1 124.2,279.5 157.6,250.3 C152.5,242.1 143.8,231.7 131.7,224.6 L131.7,224.6 Z M309.1,225.2 C270.4,243.4 261.6,280.6 273.5,314.4 C291.9,290.7 306.4,268.4 309.1,225.2 L309.1,225.2 Z M171.5,227.1 L189.1,232.7 L182.5,255.2 L166.7,250.4 L165.1,246.4 L171.5,227.1 Z M307.1,227.7 C305.4,257.8 294,287.3 274.3,310.4 C264.3,285.7 270.3,246.3 307.1,227.7 L307.1,227.7 Z M212.6,227.8 L211.5,230.6 L213.9,231.3 L214.9,228.5 L212.6,227.8 Z M210.1,234.5 L209.1,237.3 L211.6,238.1 L212.5,235.2 L210.1,234.5 Z M313.7,235 C308.3,276.8 285.7,314.9 261.8,334.3 C269.4,346.6 278.3,354.6 287.4,361.2 L354.6,296.8 L354.3,275.3 L313.7,235 Z M136,246.1 C135.6,247.6 135.4,248.4 135.4,248.4 C135.4,248.4 136.2,247.7 138.2,246.6 C151.4,240 147.1,250 140.9,253.7 C139.5,254.4 138.1,255.3 138.1,255.3 C138.1,255.3 139.4,255.6 140.9,255.9 C148.9,257.6 147.2,262.3 138.9,261.5 C137.7,261.4 136.2,261.2 136.2,261.2 C136.2,261.3 136.7,263 137.3,264.5 C140.1,271.6 134.9,272.1 131.4,267.6 C130.9,267 129.8,265.2 129.8,265.2 C129.8,265.2 129.5,266.5 129.3,267.8 C126.3,278.9 118.9,278.6 121.7,267.3 C122,266.1 122.5,264 122.5,264 C122.5,264 120.8,265 119,265.8 C109.5,270.1 107.9,265.7 116.6,259.3 C119.1,257.5 119.9,256.8 119.9,256.8 C118.4,256.7 117,256.4 115.7,256.1 C108.8,254.4 106.9,250.2 118,250.4 C119.6,250.4 121.3,250.5 121.3,250.5 C121.3,250.5 120.8,248.1 120.2,246.3 C117.5,238 122.9,237 127.5,244.5 C128.5,246.1 128.7,246.1 128.7,246.1 C128.6,246.1 129,243.3 130.1,240.6 C135.5,230.6 137.7,239.9 136,246.1 L136,246.1 Z M254.9,237.8 C250.3,246 246.3,254.1 244.3,262.5 L226.3,262.2 C227.5,254.7 230.7,246.9 234.5,238.6 C241.9,238.5 248.5,238.2 254.9,237.8 L254.9,237.8 Z M207.5,241.4 L206.5,244.4 L209.1,245.2 L210,242.3 L207.5,241.4 Z M73.2,247.1 C71.3,252.1 70.6,257.7 69.6,262.1 C69.2,264.7 69.6,265.8 71.2,266.3 C73.4,267.1 76.6,266 78.4,263.4 C79.4,262 80.1,259 80.3,253.8 L80.5,249.1 C77.6,248.7 75.7,247.9 73.2,247.1 L73.2,247.1 Z M205.1,247.7 L204.2,250.5 L206.7,251.4 L207.7,248.6 L205.1,247.7 Z M321.4,248.8 C324.5,248.9 325,249.1 327.8,250.8 L333.1,256.3 C331.7,257.6 330.8,259.5 330.8,261.6 C330.8,265.7 334.1,269 338.2,269 C340.2,269 343.4,266.9 343.4,266.9 L351.9,275.7 C345.8,278.4 339.9,270.2 339.6,270.2 C340.9,268.8 336.1,287 331.5,286.2 C327.3,285.5 331.6,269 331.6,269.4 C328.7,272.4 314.9,275.6 315.8,272.3 C317.7,265.6 328.1,263 329.5,261.9 C323.9,258.4 316.9,249.1 321.4,248.8 L321.4,248.8 Z M73.8,249 C75.6,249.1 76.8,249.3 78,249.8 C78.6,250 78.6,250.4 78.7,250.9 C78.7,252.9 79.2,258.7 77.4,258.7 C75.4,258.7 73.5,259.1 72.1,260.1 C71,260.9 70.7,260.3 71,258.2 C71.3,256.2 72.3,251.9 72.7,250.1 C72.7,249.5 73.3,248.9 73.8,249 L73.8,249 Z M128.7,249 C124.6,249 121.3,252.3 121.3,256.4 C121.3,260.5 124.6,263.8 128.7,263.8 C132.8,263.8 136.1,260.5 136.1,256.4 C136.1,252.3 132.8,249 128.7,249 L128.7,249 Z M128.7,251.6 C131.3,251.6 133.5,253.7 133.5,256.4 C133.5,259 131.4,261.2 128.7,261.2 C126.1,261.2 123.9,259.1 123.9,256.4 C123.9,253.8 126.1,251.6 128.7,251.6 L128.7,251.6 Z M166.7,251.7 C183.6,280.8 181.6,320.8 161.7,349.9 L183.1,348.4 L180.3,353.9 L157.5,356.1 C154,359.3 150.8,362.9 147.4,366.4 L147.4,367.6 C139.6,369.4 131.8,371.5 123.8,374.4 C119.6,370.3 111.7,362 111.7,361.8 L112.2,359.1 C166.4,331.4 150.6,275.9 146.8,271.4 C152.6,264.4 159.5,257.8 166.7,251.7 L166.7,251.7 Z M317.3,257 C319.5,257 321.3,258.8 321.3,261 C321.3,263.2 319.5,265 317.3,265 C315.1,265 313.3,263.2 313.3,261 C313.3,258.8 315.1,257 317.3,257 L317.3,257 Z M334.9,258.1 L341.6,265 C340.7,265.9 339.6,266.4 338.2,266.4 C335.6,266.4 333.4,264.3 333.4,261.6 C333.5,260.2 334,259 334.9,258.1 L334.9,258.1 Z M106,258.9 C108.2,258.9 110,260.7 110,262.9 C110,265.1 108.2,266.9 106,266.9 C103.8,266.9 102,265.1 102,262.9 C102,260.7 103.8,258.9 106,258.9 L106,258.9 Z M76.4,260.6 C78.3,261.2 77.8,263 75.4,264.5 C73.8,265.5 72.4,265.7 71,265 C68.5,263.6 73.9,259.7 76.4,260.6 L76.4,260.6 Z M107.2,270.3 L83.2,293.5 C84.7,289.7 84.8,285.8 84.9,282 C92.1,282.7 95.1,279.1 94.1,271.5 C98.7,271.8 103.5,271.3 107.2,270.3 L107.2,270.3 Z M145.6,273 C156.7,304.7 147.1,338.2 112.3,357.7 C113.7,327.3 126.4,298.2 145.6,273 L145.6,273 Z M177.2,275.8 C196.3,280.8 218,283.1 240.5,283.1 C240.7,291.7 241.1,300.7 242.8,309.5 C223.6,304.5 202.1,302.1 178.7,302.6 C179.8,293.5 178.2,283.2 177.2,275.8 L177.2,275.8 Z M318.7,280.5 L298.4,304.2 L299.3,291.2 C306.1,292.1 308.6,288.5 307.6,281.3 C311.2,281.8 314.9,281.2 318.7,280.5 L318.7,280.5 Z M121.3,281.8 L119.7,291.3 C115.6,291.4 111.7,292.9 111.7,301.9 L99.6,301.8 L121.3,281.8 Z M344.9,283.5 C347.1,283.5 348.9,285.3 348.9,287.5 C348.9,289.7 347.1,291.5 344.9,291.5 C342.7,291.5 340.9,289.7 340.9,287.5 C340.9,285.3 342.7,283.5 344.9,283.5 L344.9,283.5 Z M102.9,284.7 C105.1,284.7 106.9,286.5 106.9,288.7 C106.9,290.9 105.1,292.7 102.9,292.7 C100.7,292.7 98.9,290.9 98.9,288.7 C98.9,286.5 100.7,284.7 102.9,284.7 L102.9,284.7 Z M336,288.8 L333.9,303.2 C328.4,302.7 323.7,303.6 325.2,313.3 C320.5,312.8 314,313.9 309.7,314.3 L336,288.8 Z M316.1,291.4 C318.3,291.4 320.1,293.2 320.1,295.4 C320.1,297.6 318.3,299.4 316.1,299.4 C313.9,299.4 312.1,297.6 312.1,295.4 C312.2,293.2 313.9,291.4 316.1,291.4 L316.1,291.4 Z M73.7,294.5 C75.9,294.5 77.7,296.3 77.7,298.5 C77.7,300.7 75.9,302.5 73.7,302.5 C71.5,302.5 69.7,300.7 69.7,298.5 C69.7,296.3 71.5,294.5 73.7,294.5 L73.7,294.5 Z M86.9,299.2 C92,300.3 89.6,312.2 88.5,315.4 C88.4,315.5 102.7,307.9 103.5,311.3 C104.1,318 91.7,322.7 91.7,322.7 C91.7,322.7 100,329.9 100.3,334.5 C100.3,337.4 96.8,336.9 92.3,333.2 C90.4,331.3 88.9,329.8 87.5,328.5 C89.1,327.1 90,325.2 90,322.9 C90,318.8 86.7,315.5 82.6,315.5 C80.4,315.5 78.3,316.5 77,318.1 C75.9,317.1 74.7,315.9 73.1,314.4 C70.5,311.9 68.6,310 68.9,309.1 C72.4,306.7 79.3,313.2 79.9,313.8 C79.4,312.5 83.2,299.9 86.9,299.2 L86.9,299.2 Z M79.9,313.8 C79.9,313.9 80,313.9 80,313.9 C80.1,313.9 80,313.8 79.9,313.8 L79.9,313.8 Z M296.6,308.5 C299,308.5 298.9,314 298,316.8 C297.4,319 296.8,320.8 296.8,320.8 C296.8,320.8 298.8,319.2 299.7,318.8 C306.3,315.7 308.7,319.2 305.4,323.3 C303.8,325.4 301.6,325.8 299.9,327.6 C302.4,327.7 305.3,328.3 307.5,329.5 C309.2,330.5 310.5,331.7 310.5,332.5 C310.5,334.2 306.3,335.1 302.4,334.7 C300.7,334.7 297.6,333.8 297.6,333.8 C297.6,333.8 298.9,336 299.4,337.3 C300.9,341.3 300.3,346.1 298.2,346.1 C294.7,345.2 293,341.2 291.6,338.4 C290.5,341.5 289.4,344.9 286.9,347.2 C284.4,349.5 283.1,347.6 283.2,343.7 C283.3,342.1 284.4,337.5 284.4,337.5 C269.6,342.5 270.7,335.7 282.2,329.8 C275.1,326.4 270.7,323.3 282.9,322.6 C282.6,322.3 280.5,315.8 282.7,314.3 C284.8,312.9 289.3,317.7 289.5,318 C289.4,317.5 290.7,313.7 292.8,311.1 C294.5,309.2 295.7,308.5 296.6,308.5 L296.6,308.5 Z M347.8,318.3 C345.2,318.5 343.6,320.8 342.4,322.8 C342.2,323.2 341.7,323.3 341.5,323.9 C340.4,327.3 339.5,331.5 338.9,336.6 C340.5,337.3 344.2,338.4 345.9,337.8 C346.4,337.6 346.2,336.4 346.4,336 C351,324.3 351.4,318 347.8,318.3 L347.8,318.3 Z M82.6,318 C85.2,318 87.4,320.1 87.4,322.8 C87.4,324.3 86.7,325.7 85.6,326.6 C82.5,323.5 80.9,321.9 78.9,319.9 C79.8,318.7 81.1,318 82.6,318 L82.6,318 Z M348.7,320.3 C349.3,321.9 347.3,323.6 344.6,323.6 C343,323.6 342.5,323.8 343.2,322.4 C344,320.7 347.4,317.3 348.7,320.3 L348.7,320.3 Z M312.6,319.2 C314.8,319.2 316.6,321 316.6,323.2 C316.6,325.4 314.8,327.2 312.6,327.2 C310.4,327.2 308.6,325.4 308.6,323.2 C308.6,320.9 310.4,319.2 312.6,319.2 L312.6,319.2 Z M102.7,319.4 C104.9,319.4 106.7,321.2 106.7,323.4 C106.7,325.6 104.9,327.4 102.7,327.4 C100.5,327.4 98.7,325.6 98.7,323.4 C98.7,321.2 100.5,319.4 102.7,319.4 L102.7,319.4 Z M290.9,321.1 C286.8,321.1 283.5,324.4 283.5,328.5 C283.5,332.6 286.8,335.9 290.9,335.9 C295,335.9 298.3,332.6 298.3,328.5 C298.3,324.4 295,321.1 290.9,321.1 L290.9,321.1 Z M192.5,322 C190.6,330.5 187.6,338.6 183.8,346.6 C176.7,347 169,347.3 164,348.1 C172.4,333.3 172.6,329.9 175.8,322 L192.5,322 Z M204.7,323.2 C206.7,323.4 208.9,323.7 210.9,324.1 C207.3,336.9 202.5,349.9 196.3,362.6 L192.6,362 L190.8,359.8 L196.8,357.4 L192.2,352.7 L199.9,350.4 L195.2,345.7 L202.8,343.8 L198.7,338.9 L205.5,336.2 L201.2,330.6 L208.5,328.6 L204.7,323.2 Z M290.9,323.6 C293.5,323.6 295.7,325.7 295.7,328.4 C295.7,331 293.6,333.2 290.9,333.2 C288.3,333.2 286.1,331.1 286.1,328.4 C286.1,325.8 288.3,323.6 290.9,323.6 L290.9,323.6 Z M212.2,324.4 L214.7,324.8 L213.9,327.5 L216.8,328.1 L217.7,325.2 C217.7,325.2 220,325.4 220.3,325.6 C217.3,337.9 206.6,363.7 206.5,363.5 L203.7,363.1 L204.4,360.5 L201.8,360.1 L201.8,360.1 L200.6,362.9 L197.9,362.7 C204.6,347.6 209.1,336 212.2,324.4 L212.2,324.4 Z M346.6,325.3 C348.6,325.3 348.5,326.3 347,330.2 C345.6,333.8 345.1,335.2 344.4,335.7 C342.8,336.8 339.4,335.9 339.6,334.2 C340.5,328.8 340.8,326.5 342.2,325.8 C343.8,325.6 345.2,325.3 346.6,325.3 L346.6,325.3 Z M222.4,325.8 L229,327.1 L223.5,330.4 L227,334.5 L220.2,337.4 L224.3,341.7 L217.7,344.4 L221.7,349.1 L214.9,352 L219.5,356 L211.9,358.4 L214.8,362.8 L211.9,364.4 L208.4,363.8 C214.3,350 218.1,338.7 222.4,325.8 L222.4,325.8 Z M238.6,329.1 L251.5,332.6 L254.1,337.2 L248,357.7 L230.8,352.6 L238.6,329.1 Z M212.9,331 L211.7,334.4 L214.5,335 L215.6,331.5 L212.9,331 Z M210.4,338.8 L209.2,342.2 L211.9,342.7 L213.2,339.3 L210.4,338.8 Z M207.9,345.6 L206.6,349 L209.2,349.5 L210.4,346.1 L207.9,345.6 Z M329.4,351.7 C329.4,351.7 327.9,352.8 327.9,353.3 C328.2,354.1 328.9,355 328.8,355.8 C328.7,356.4 328,356.9 327.1,357.9 C324.7,360.7 323.8,360.4 325.2,357.4 C325.7,356.5 325.9,355.6 325.9,355.6 C325.3,356.4 324.9,357.3 324.5,358.1 C323.7,359.6 323,361.1 323,361.1 C324.5,361.6 325.6,362.8 326.6,363.5 C326.6,363.5 327.1,362.1 327.5,360.8 C328,359 329,358.2 330.1,357.6 C330.9,357.2 331.6,356.5 331.6,356.5 C330.1,355.1 330,353.2 329.4,351.7 L329.4,351.7 Z M205.2,352.5 L203.9,356.1 L206.5,356.7 L207.9,353.1 L205.2,352.5 Z M58.9,361.5 C58.7,375.7 59.1,385 58.6,400.3 L97,450.1 L91,452.1 C91,452.1 90.9,452.8 90.6,452.9 C82.4,455.2 69.1,457.4 69.1,457.4 C79,480 85.4,508.3 81,536.6 L180.4,536.3 L58.9,361.5 Z M269.2,385.5 L265.8,388.9 C215.2,361.5 145.6,361.6 94.7,394.8 L90.6,391.8 C146,356.3 214.3,356.5 269.2,385.5 L269.2,385.5 Z M60.7,366.5 L177.7,534.6 L164,534.8 L60.8,399.8 L60.7,366.5 Z M311.9,369.5 C311.9,369.5 308.5,370.4 305.7,371.3 C297.6,373.9 293.8,378.6 294.5,385.1 C294.7,387 295.2,387 298.5,384.9 C306.3,380 306.7,379.8 316.4,377 C317.2,376.8 318.2,376.9 318.2,376.9 L317.8,384.5 C301.7,384.4 302.6,397.2 307.2,403.9 C305.6,407 302,417.7 313.7,421.8 C319.5,423 325.7,418.2 325.5,418 C336.2,423.1 348.7,414.6 339,399.8 C342.7,393.4 340.1,388.6 336.6,384.5 C336.6,384.5 337.2,384.6 342.3,385.5 C350,386.9 353,386.7 353,386.7 C353,379.8 347.3,376.6 335.3,375.7 C326.8,376.9 311.9,369.5 311.9,369.5 L311.9,369.5 Z M182.4,370.3 C183,370.3 183.6,370.3 184.1,370.3 L183.5,382.2 L170.4,382.8 L169.5,371 C174.1,370.7 178.3,370.3 182.4,370.3 L182.4,370.3 Z M198,370.6 L212,372.3 L209.9,383.4 L197,382 L198,370.6 Z M311.4,370.7 C312.8,370.7 312.5,372.2 310.8,372.5 C308.3,373 301.8,376.8 301.8,377.7 C301.8,378.3 302.1,378.2 304.5,377 C305.7,376.4 308.1,375.3 310,374.6 C311.8,373.9 313.9,373.1 314.6,372.7 C316.8,371.7 317.8,372.4 317.1,374.3 C316.6,375.5 316.4,375.6 311.3,377.2 C306.7,378.6 305.9,379 303,380.9 C301.9,381.6 300,382.7 298.7,383.3 C295.7,384.8 295.1,384.9 295.1,382.8 C294.9,376.7 301.7,372 310.9,370.7 C311.3,370.8 311.4,370.7 311.4,370.7 L311.4,370.7 Z M190.4,372.2 C192.2,372.2 193.6,373.6 193.6,375.4 C193.6,377.2 192.2,378.6 190.4,378.6 C188.6,378.6 187.2,377.2 187.2,375.4 C187.2,373.6 188.6,372.2 190.4,372.2 L190.4,372.2 Z M155.7,373 L156.7,383.8 L143.9,387.1 L141,376 C145.9,374.8 150.8,373.9 155.7,373 L155.7,373 Z M321.3,373.8 C324.8,374.3 324.5,382.4 322.7,383.8 C319.9,385.8 318.2,381.6 319.5,376.1 C319.8,374.5 320.4,373.9 321.3,373.8 L321.3,373.8 Z M163,374.3 C164.8,374.3 166.2,375.7 166.2,377.5 C166.2,379.3 164.8,380.7 163,380.7 C161.2,380.7 159.8,379.3 159.8,377.5 C159.8,375.7 161.3,374.3 163,374.3 L163,374.3 Z M225.8,375.2 L240.3,379.2 L236.8,390.4 L223.2,386.6 L225.8,375.2 Z M217.9,375.4 C219.7,375.4 221.1,376.8 221.1,378.6 C221.1,380.4 219.7,381.8 217.9,381.8 C216.1,381.8 214.7,380.4 214.7,378.6 C214.7,376.8 216.1,375.4 217.9,375.4 L217.9,375.4 Z M336.7,376.4 C343,376.5 351.2,379.6 351.2,384.5 C351.1,385.9 338.1,384 332.1,381.6 C330,380.8 327.4,378.1 327.4,377 C327.4,376.4 328.7,376.4 329.2,377 C330,378 333,379.1 339.9,380.8 C345.2,382.1 345.7,382.2 345.7,381.4 C345.7,380.7 342.6,379.7 339.2,379.1 C337.5,378.8 335.9,378.3 333.3,378.1 C332.1,378.1 331.8,377.3 332.8,376.8 C333.9,376.5 335.3,376.4 336.7,376.4 L336.7,376.4 Z M325.7,378.9 C327.3,379.6 327.9,381.1 328.7,381.9 C327.6,382.4 327.1,382.9 325.4,383.1 C325.4,381.9 325.1,380.5 325.7,378.9 L325.7,378.9 Z M135.4,379.7 C137.2,379.7 138.6,381.1 138.6,382.9 C138.6,384.7 137.2,386.1 135.4,386.1 C133.6,386.1 132.2,384.7 132.2,382.9 C132.2,381.2 133.7,379.7 135.4,379.7 L135.4,379.7 Z M126.9,380.6 L130.3,391.6 L118,397 L113.6,386.1 C117.9,383.8 122.5,382.2 126.9,380.6 L126.9,380.6 Z M183.6,382.4 C183.6,382.4 193.4,382.4 196.8,382.5 L196,394.9 L183.8,395 L183.6,382.4 Z M170.6,383.1 L171.3,395.5 L159.5,397.1 L157.2,384.6 L170.6,383.1 Z M244.9,383.2 C246.7,383.2 248.1,384.6 248.1,386.4 C248.1,388.2 246.7,389.6 244.9,389.6 C243.1,389.6 241.7,388.2 241.7,386.4 C241.7,384.6 243.1,383.2 244.9,383.2 L244.9,383.2 Z M329.9,383.5 C337.1,383.5 343.9,391.8 336.8,400.4 C348.4,409.3 335.8,424.3 325.5,415.6 C310.8,430 302.6,410.5 308.7,405.3 C299.7,390.6 310.7,381.3 322.1,387.8 C324.3,384.7 327.1,383.5 329.9,383.5 L329.9,383.5 Z M210.1,383.9 L223,386.8 L220.4,399.1 L207.8,396.5 L210.1,383.9 Z M252.8,384.2 L264.6,390.1 L255.5,398.9 L248.7,395.5 L252.8,384.2 Z M177.2,385.5 C179,385.5 180.4,386.9 180.4,388.7 C180.4,390.5 179,391.9 177.2,391.9 C175.4,391.9 174,390.5 174,388.7 C174,387 175.5,385.5 177.2,385.5 L177.2,385.5 Z M202.7,386 C204.5,386 205.9,387.4 205.9,389.2 C205.9,391 204.5,392.4 202.7,392.4 C198,391.6 199.3,386.1 202.7,386 L202.7,386 Z M144,387.7 L146.9,399.9 L135,403.9 L130.7,392 L144,387.7 Z M152.2,388.6 C154,388.6 155.4,390 155.4,391.8 C155.4,393.6 154,395 152.2,395 C150.4,395 149,393.6 149,391.8 C149,390 150.4,388.6 152.2,388.6 L152.2,388.6 Z M329,394.3 C328.1,395.4 326.9,396.7 326.9,396.7 C323.9,395.5 321,396 319.1,397.3 C319.1,397.3 317.1,395.7 315.2,394.2 C312,391.6 310.9,391 310.9,392.1 C310.9,392.3 312,393.4 313.3,394.6 C317,397.7 317.7,398.8 317.7,398.8 C316.8,401.6 316.8,403.9 318.5,406.2 C318.5,406.2 318.6,406.5 317.3,407.9 C315,410.4 312.6,414.2 313.1,414.7 C313.8,415.4 315.7,413.7 318.2,410.4 C319.9,408.1 320.5,408 320.5,408 C323.5,408.8 325.1,409.5 328.1,407.1 C328.1,407.1 329.2,407.4 331.5,409.3 C335,412.2 336.2,412.8 336.6,411.8 C336.9,411 336.4,410.5 333.5,408.2 C331.6,406.7 329.4,405 329.4,405 C330,404 330.5,400.3 328.3,397.8 C328.3,397.8 328.4,398 331.6,393.8 C333.7,391.1 334.1,390.7 333.4,390.1 C332.4,389 329.3,393.9 329,394.3 L329,394.3 Z M236.9,390.7 L248.5,395.6 L244.3,407.8 L233.1,403.2 L236.9,390.7 Z M108.8,391.6 C110.6,391.6 112,393 112,394.8 C112,396.6 110.6,398 108.8,398 C107,398 105.6,396.6 105.6,394.8 C105.6,393 107.1,391.6 108.8,391.6 L108.8,391.6 Z M227.9,391.9 C229.7,391.9 231.1,393.3 231.1,395.1 C231.1,396.8 229.7,398.3 227.9,398.3 C226.1,398.3 224.7,396.9 224.7,395.1 C224.7,393.3 226.1,391.9 227.9,391.9 L227.9,391.9 Z M100.7,392.8 L104.5,402.2 L95.8,395.7 L100.7,392.8 Z M196.2,395.2 L207.8,396.6 L206,407.6 L196,406.7 L196.2,395.2 Z M183.5,395.2 L183.4,406.5 L172.4,407 L171.5,395.7 L183.5,395.2 Z M126.9,397.3 C128.7,397.3 130.1,398.7 130.1,400.5 C130.1,402.3 128.7,403.7 126.9,403.7 C125.1,403.7 123.7,402.3 123.7,400.5 C123.7,398.7 125.2,397.3 126.9,397.3 L126.9,397.3 Z M118.1,397.5 L122.6,408.9 L115.7,412.3 L106.4,403.5 L118.1,397.5 Z M159.6,397.7 L161.4,408.6 L149.9,411.4 L147.1,400.4 L159.6,397.7 Z M323.7,397.8 C326.2,397.8 328.2,399.8 328.2,402.3 C328.2,404.8 326.2,406.8 323.7,406.8 C321.2,406.8 319.2,404.8 319.2,402.3 C319.1,399.8 321.2,397.8 323.7,397.8 L323.7,397.8 Z M189.3,398.1 C191.1,398.1 192.5,399.5 192.5,401.3 C192.5,403.1 191.1,404.5 189.3,404.5 C187.6,404.5 186.1,403.1 186.1,401.3 C186.2,399.5 187.6,398.1 189.3,398.1 L189.3,398.1 Z M220.6,399.3 L232.8,403.3 L228.7,413.1 L218.1,410.2 L220.6,399.3 Z M166.3,399.7 C168.1,399.7 169.5,401.1 169.5,402.9 C169.5,404.7 168.1,406.1 166.3,406.1 C164.6,406.1 163.1,404.7 163.1,402.9 C163.2,401.1 164.6,399.7 166.3,399.7 L166.3,399.7 Z M212.9,400.9 C214.7,400.9 216.1,402.3 216.1,404.1 C216.1,405.9 214.7,407.3 212.9,407.3 C211.1,407.3 209.7,405.9 209.7,404.1 C209.7,402.3 211.1,400.9 212.9,400.9 L212.9,400.9 Z M135.2,404.6 L139.4,414.3 L127.9,419.3 L122.9,409.4 L135.2,404.6 Z M143.3,405.2 C145.1,405.2 146.5,406.6 146.5,408.4 C146.5,410.2 145.1,411.6 143.3,411.6 C141.5,411.6 140.1,410.2 140.1,408.4 C140.1,406.6 141.6,405.2 143.3,405.2 L143.3,405.2 Z M185.7,408.1 C204.6,408.1 221.7,412 235.4,417.7 L231.3,421.5 C186.9,406.2 157.8,413.1 128,426.2 L125,422.5 C146.1,412.2 166.8,408.1 185.7,408.1 L185.7,408.1 Z M236,408.2 C237.8,408.2 239.2,409.6 239.2,411.4 C239.2,413.2 237.8,414.6 236,414.6 C234.2,414.6 232.8,413.2 232.8,411.4 C232.8,409.6 234.3,408.2 236,408.2 L236,408.2 Z M120.2,415.2 C122.7,415.4 123,420.1 121.8,418.7 L119,415.4 C119.4,415.2 119.8,415.1 120.2,415.2 L120.2,415.2 Z M239,417.1 C238.9,420.7 235.5,444.9 224,461.5 C223.3,453.1 221.3,443 219,436.3 C219,436.4 231.4,424.9 239,417.1 L239,417.1 Z M91.5,453.8 L151.5,534.7 L145.2,534.6 C143.9,528.7 142,522.6 138.2,518 C135.2,514.3 132.4,511.5 127,509 C123.7,507.5 123.3,507.8 123.1,505.3 C122.1,491.1 110.6,482.2 101.9,478.9 C101,470.3 97.2,461.9 87.5,454.8 L91.5,453.8 Z M85.6,455.7 C91.1,459.5 97.1,462.7 100.3,477.6 C100.5,480.7 100.7,480.4 103.2,481.3 C112.8,484.1 121.1,495.6 121.8,505.7 C121.8,508.7 122.8,509 126.5,510.6 C131.1,512.5 135.9,516.6 138.5,520.6 C142.5,526.4 143.9,535.1 143.6,534.7 L140.3,534.7 C137.9,519.9 128.6,514 118.8,511.2 C119.6,490.3 103.3,483.8 97.6,482.8 C97.9,467.7 88.2,461.5 81.9,456.5 C83.2,456 85.6,455.7 85.6,455.7 L85.6,455.7 Z M75.9,457.8 C80.8,459.4 84.5,466.2 84.2,469.4 C90.7,470.2 97.5,476.5 96,483 C95.5,483.3 94.8,483.3 94,482.6 C95.7,470 76.9,476.2 84.4,485.4 L81,487.6 C78.3,475 74.9,467.8 71.3,458.6 C72.6,458.2 75.9,457.8 75.9,457.8 L75.9,457.8 Z M91.6,484.3 C93.3,484.3 94.6,485.7 94.6,487.3 C94.6,488.9 93.2,490.3 91.6,490.3 C89.9,490.3 88.6,488.9 88.6,487.3 C88.6,485.7 89.9,484.3 91.6,484.3 L91.6,484.3 Z M107.8,498 C115,500 117.3,507.3 117.1,510 L115.5,510 C113,498.4 99.8,504.7 105.3,513.9 C98.3,516.5 98.8,523 100.9,525.6 C103.8,529.1 111.1,529 113.3,523.6 C120.1,532.5 129.6,522.5 121.3,514.3 C128.1,516.8 129.2,526 128.2,528.8 C131.4,529.9 135,534.9 134.5,534.9 L83.3,534.9 C83.3,534.9 85.8,514.3 83.1,498.7 C86.5,499.5 88.8,500.3 92.7,495.8 C99,501 103.6,497.1 103.3,492.6 C102.8,489.4 101.2,487.8 98.5,486.2 C104,484.6 108.2,494.2 107.8,498 L107.8,498 Z M113.5,512.5 C115.2,512.5 116.6,513.9 116.6,515.6 C116.6,517.3 115.2,518.7 113.5,518.7 C111.8,518.7 110.4,517.3 110.4,515.6 C110.3,513.9 111.8,512.5 113.5,512.5 L113.5,512.5 Z" id="Shape" fill="#000000" fill-rule="nonzero"></path>
        </g>
    </g>
</svg>