<?xml version="1.0" encoding="UTF-8"?>
<svg width="413px" height="576px" viewBox="0 0 413 576" version="1.1" xmlns="http://www.w3.org/2000/svg" xmlns:xlink="http://www.w3.org/1999/xlink">
    <!-- Generator: Sketch 61.2 (89653) - https://sketch.com -->
    <title>12H</title>
    <desc>Created with Sketch.</desc>
    <g id="Page-1" stroke="none" stroke-width="1" fill="none" fill-rule="evenodd">
        <g id="12H">
            <path d="M20.1,0.9 L392.3,0.9 C403.2,0.9 411.9,9.6 411.9,20.5 L411.9,556 C411.9,566.9 403.2,575.6 392.3,575.6 L20.1,575.6 C9.2,575.6 0.5,566.9 0.5,556 L0.5,20.5 C0.5,9.7 9.2,0.9 20.1,0.9 L20.1,0.9 Z" id="Path" fill="#FFFFFF" fill-rule="nonzero"></path>
            <path d="M20.1,0.9 L392.3,0.9 C403.2,0.9 411.9,9.6 411.9,20.5 L411.9,556 C411.9,566.9 403.2,575.6 392.3,575.6 L20.1,575.6 C9.2,575.6 0.5,566.9 0.5,556 L0.5,20.5 C0.5,9.7 9.2,0.9 20.1,0.9 L20.1,0.9 Z" id="Path" stroke="#000000" stroke-width="0.7974"></path>
            <path d="M355.7,46 L54.9,46.1 L56.7,529 L358.6,528.4 C356.2,367.4 356,206.7 355.7,46 L355.7,46 Z M320.2,50.1 L351.9,50.3 L351.9,236 C351.9,236 349.9,235.9 350.1,234.6 C350.3,232.9 350.1,229.6 348.9,228.2 C348.4,227.6 347.5,226.7 347.2,226.1 C346.4,224.4 345,222.7 343.9,222.3 C343.4,222.1 342.7,221.9 342.6,221.6 C342.5,221.2 342.3,220.1 342.1,219 C341.5,216.3 341,216.4 342.7,213.8 C348.6,204.6 350.8,196.1 350.1,187.8 C349.9,185.2 349.2,181.8 348.9,181.3 C343.2,187 339.1,194 335.2,199.2 C334.3,191.8 334.5,186.2 334.3,180.2 C337.3,179.3 339.2,177.7 340.5,173.6 C340.5,173.6 343.7,176.1 345.7,175.8 L344.4,171 C353.1,168.3 354.3,157 344,154.6 L344.9,148.6 C344.9,148.6 341.8,149.6 340.4,150.3 C339.7,150.6 339.5,150.4 339.1,149.4 C334.3,141.9 326.9,143.5 323.6,150.9 L319.6,149.2 C320,151.2 320.6,153.3 320.2,155.3 C311.8,159.1 313.9,169.3 320.6,170.7 L320,175.5 L325.1,173.9 C325.8,176.1 325.5,177.5 329.5,180 C329.4,190 329.2,196.3 329.5,205.3 C324.2,199.9 319.2,196.2 310.2,193.4 C310.2,193.4 310.1,195.6 310.6,198.8 C310.8,199.9 310.7,199.7 310.2,199.7 C309,199.7 303.8,191.3 303.8,191.3 C303.8,191.3 303.2,191.3 302.7,191.8 C302.1,192.4 303.5,193.6 305.5,196.5 C307.8,200 307.6,199.8 305.8,201.4 C295.4,210.3 280.3,244 282.8,247.2 C276.2,247.6 250.5,260.2 245.8,286.2 C245.5,287.4 245,288.9 245,288.9 L237.6,287 C242.1,265.7 252.2,222.4 252.2,222.4 C252.2,222.4 259.3,220.4 263.5,219.9 L263.5,218.2 L253.7,220.5 L254.2,216.8 L263.5,215 L263.5,214.1 L253.7,215.4 L255.3,209.2 C255.3,209.2 233.3,212.4 225.4,212.2 C225.4,212.2 225.4,226.3 225.4,243.4 C223.8,256 223.1,280.6 223.1,280.6 L214.3,275.5 C213.3,257.5 213.1,211.9 213.1,211.9 L183.4,207.2 L184.4,214.3 C159.8,204.6 135.1,195.6 117,176.5 C128.2,167.9 146.8,159.4 146.8,159.4 L146.2,158 C100.3,181.7 83.3,198.1 60.2,218.5 L59.6,50.2 L184.9,50.1 L184.5,80.8 C184.5,80.8 184.3,81.6 184.1,81.9 C182.6,89.3 187,102.6 186.1,109 C186.5,111 186.4,114.7 186.4,114.7 C178.9,124.9 175,134.7 171.6,146.6 C170.3,147.1 168.4,148.2 167.1,148.5 L166.7,150.1 C169.6,148.5 178,145.9 178,145.9 C215.1,164 242.3,159.5 271.5,146.1 C266.8,162.4 277,183.2 293.6,187.5 C295.5,188 298.8,188.4 300.6,187.9 C302.5,187.4 296.4,173.5 293.7,173 C285.7,169.5 282.4,161.3 283.2,152 L281.9,149.8 C279.2,161.2 285.7,172.8 294.8,175.6 L297.2,180.9 C280.8,176 273.8,160.6 279.3,145.4 C279.4,135.9 273.3,131.7 270.4,127.7 C256.1,122.3 253.5,109.1 256,98.4 C262.6,101.2 251.5,89 251.5,89 C246.6,99.6 244.6,113 255.7,126.5 C248.5,136.1 239.1,143.7 228.7,150.1 C213.5,158.1 202,152.7 194.7,135.1 C190.3,124.5 188.7,114 188.7,102.9 C188.7,96.1 188.8,95.9 191.4,97 C193.8,98.1 199,98.2 202.1,96.6 C206.3,94.4 206.1,95.7 201.5,100.5 C200.2,101.8 198.9,103 198.9,103.2 C198.9,104.6 200.9,103.4 203.7,100.6 C204.7,99.6 205.5,98.6 205.8,98.6 C206.2,98.6 206.1,99.9 205.7,101.3 C205.5,101.9 205,104.2 204.5,106.4 C204,108.7 203.4,111.3 203.1,112.3 C201.8,116.2 202.2,118.1 206,119.9 C208,120.9 211.4,124.1 211.4,124.1 C211.4,124.1 210.6,120.5 210.9,119.4 C211.3,118 212.9,119 214.6,119.8 C218.3,121.6 220.4,121.6 222.4,120 C225.1,117.7 224.4,112.6 221,111.3 C218.5,110.3 218.1,111.2 220.6,113 C224.3,115.6 220.1,119.6 217,117.1 C214.5,115.2 210.2,114.9 209.8,116.6 C209.3,118.1 208.9,117.9 207.2,116.9 C204.5,115.3 204.5,115.1 206.7,106.5 C210.9,90.3 210.5,84.3 204.9,79.4 C200.8,75.7 193.9,74.1 186.9,78.1 L186.9,72.6 C197.3,68.4 204.9,61.6 211,50.1 L212.2,50.1 C218.3,63.2 228.1,72.7 246.6,79.6 C253.8,86.7 237.4,59.1 242.7,70.4 C232.9,66.6 224.2,59.3 219.4,50.1 L222.1,50.1 C224.9,54.2 230.6,61.6 240.8,66.7 C241.7,67.5 242.6,66.7 242.6,66.7 C242.6,66.7 234.1,53.4 232.7,50.2 L317.8,49.6 C315.1,70.3 311.3,92.9 326.3,133.2 C319.3,129.5 291.1,137.4 296.1,138.9 C298.6,136 316.5,131.8 329.8,134.9 C328.2,134.1 309.1,89.6 320.2,50.1 L320.2,50.1 Z M263.5,215 L263.6,218.2 L264.3,218 L263.9,214.8 L263.5,215 Z M186.7,50.2 L190.4,50.2 C189.6,51.9 188.4,53.2 186.6,54.2 L186.7,50.2 Z M193.1,50.2 L197.1,50.2 C194,55.2 190.6,58.2 186.6,60.6 L186.7,56.7 C189,54.6 191.2,52.5 193.1,50.2 L193.1,50.2 Z M199.7,50.2 L203.4,50.2 C198.4,57.9 193.2,63.1 186.6,66.4 L186.6,63.2 C190.7,60 196.5,55.4 199.7,50.2 L199.7,50.2 Z M205.4,50.2 L208.4,50.2 C203.2,60 196.1,66.8 186.6,70.6 L186.6,68.2 C196.9,62.7 201.5,56.5 205.4,50.2 L205.4,50.2 Z M213.6,50.2 L217.2,50.2 C222.1,60 232.4,69.3 243.7,73.4 L245.4,77.4 C230.6,72 220.7,64.2 213.6,50.2 L213.6,50.2 Z M224,50.2 L226.6,50.2 C229.3,54 232.6,57 236.4,59.6 L238.7,64.1 C233.6,60.6 227.8,56.4 224,50.2 L224,50.2 Z M228.7,50.2 L231.6,50.4 L235.4,56.7 C232.9,55.2 231,52.3 228.7,50.2 L228.7,50.2 Z M225.4,75.7 C221.5,75.7 217.9,76.8 215.3,78.9 C212.6,81.1 214.6,83.6 218.5,81.7 C225.2,78.6 233,80 241.3,84.6 C248.3,88.4 245.9,84.4 239.3,80.2 C234.8,77.1 229.9,75.7 225.4,75.7 L225.4,75.7 Z M193.7,80.7 C199.4,80.7 205.8,83.2 206,86.6 C202.2,83.5 194.7,81.9 187.5,85.2 C186.9,85.1 186.9,83.1 187.2,82.4 C188.8,81.2 191.2,80.7 193.7,80.7 L193.7,80.7 Z M228,82.8 C224.4,82.8 221.2,83.7 219.6,85.8 C218.8,86.8 218.6,86.9 217.8,86.7 C216.1,86.4 216.2,87.4 218.1,90 C219,91.3 218.9,92.7 217.6,94.5 C216.2,96.5 216.5,96.6 220.7,98.6 C223.9,100.2 226.5,102.4 229.4,104.2 C231.5,105.4 231.9,104.3 230,102.8 C229.3,102.3 227.4,100.9 225.6,99.7 C222.6,97.8 220.4,95.8 222.8,96.7 C223.9,97 224.2,97.2 225.4,97.4 C228.5,98.1 231.5,98.4 234.1,97.9 C236,97.5 238.4,96.3 240.4,94.6 C240.9,94.4 241.4,94.6 242.6,94.7 C247.3,94.9 246.3,93.5 239.5,89.8 C232.8,86.2 227.6,85.5 223.3,87.5 C221.5,88.3 220.5,88.6 220.7,88 C221,87.4 221.5,86.8 222.3,86.3 C229.2,82.2 234.8,85.6 240.8,88.7 C243.4,90.3 244.1,90.7 244.4,90.2 C244.8,89.6 241.5,87.2 237,85 C234.5,83.6 231.1,82.8 228,82.8 L228,82.8 Z M205.9,87.6 C207.1,88.1 206.5,89.4 205.5,89 C199.1,86.1 197.8,84.7 190.2,87.4 C187.7,88.3 186.7,87.5 189.8,86.2 C196.5,83.4 201.4,85.3 205.9,87.6 L205.9,87.6 Z M201.5,91 C199.8,99.8 191,97.1 192,91 L193.6,91 C193.7,96.3 199,96.3 199.9,91.1 L201.5,91 Z M252.3,91 L254.6,96 C249.5,108.7 256.4,125.7 271.6,129.8 C271.6,129.8 274,133.6 273.6,134 C245.2,127.8 247.4,100.6 252.3,91 L252.3,91 Z M225.3,91.3 L226.1,91.3 C228.6,97.4 232.1,93.9 232.8,91.3 L234.6,91.3 C234.1,97.8 224.5,98.9 225.3,91.3 L225.3,91.3 Z M203.3,91.5 C204.5,91.4 204.8,93.1 204.5,93.4 C204.4,93.5 202.3,95.5 202,94.3 C201.7,92.6 202.9,91.6 203.3,91.5 L203.3,91.5 Z M190,91.7 C190.1,91.7 190.2,91.7 190.3,91.7 C191,92.2 191.3,93.9 190.9,94.7 C190.5,95.1 188.8,94.5 188.4,93.9 C188,93 188.6,91.7 190,91.7 L190,91.7 Z M236.3,92.3 C236.9,92.3 238.4,93 238.3,93.7 C238.3,93.9 236.1,95.5 235.6,95.2 C234.7,94.7 236,92.4 236.1,92.3 C236.1,92.3 236.2,92.3 236.3,92.3 L236.3,92.3 Z M223.7,92.6 C223.7,92.6 223.7,92.6 223.7,92.6 C223.9,92.7 225.3,93.6 224.1,95.2 C224,95.3 222.5,94.8 222.4,94.6 C222.3,93.6 223.5,92.6 223.7,92.6 L223.7,92.6 Z M258.2,103.7 C257.8,111 259.7,118.1 267.7,122.6 L266,119.5 C264,117.9 259.7,113.2 260.2,107.7 L258.2,103.7 Z M186.8,116.7 L187.7,121.5 C183.3,128.8 180,135.9 177.2,144.3 L173.1,145.8 C176.4,135.2 179.4,126.9 186.8,116.7 L186.8,116.7 Z M188.6,124.2 L189.8,128.3 C187.7,132.3 185.4,136.7 184,141.9 L179.4,143.6 C181.4,136.7 184.4,130 188.6,124.2 L188.6,124.2 Z M203,125.9 C202.9,125.9 202.9,125.9 202.8,125.9 C202.7,126.7 202.8,129 202.9,132.6 C202.9,133.3 203.6,133 205.6,132 C207.3,131.1 207.1,131 208.8,131.6 C213.3,133.2 215.4,132.5 217.2,132 C219.9,131.3 221,131.6 222.6,132.5 C223.5,133 224.7,133.4 224.9,133.5 C226.1,134 225.7,133.4 224.8,130 C223.8,126.2 224.3,125.8 222.7,126.8 C222.4,127 221.4,127.5 220.9,127.6 C219.6,127.8 217.4,126.1 216,126.6 C212.8,127.9 212.8,127.5 209.9,126.8 C208.4,126.4 207,127.3 205.7,127.6 C205,127.8 204.1,125.9 203,125.9 L203,125.9 Z M257.3,127.8 C262.7,132.7 268.2,134.4 274.2,136.3 C273.5,138.8 272,141.5 271.4,144.7 C240.1,161.2 208.7,160.7 179.1,145.7 L194.5,139.8 C202.9,154.4 213.7,158.2 225.8,153.5 C239.2,147.3 249.3,138.5 257.3,127.8 L257.3,127.8 Z M190.5,130.7 L191.8,134.3 L189.8,139.7 L186,141.2 C186.8,137.5 188.2,134.5 190.5,130.7 L190.5,130.7 Z M218.7,134.9 C217.8,134.9 216.4,135.6 213.1,135.6 C211.4,135.6 210,135.5 209.3,135.6 C207.9,135.9 209.5,136.5 212.7,137.4 C215.9,138.3 219.7,136.9 220.2,135.6 C220.3,135.2 219.9,134.8 218.7,134.9 L218.7,134.9 Z M192.7,136.6 L193.5,138.4 L192.1,138.9 L192.7,136.6 Z M275.8,137.7 L278.1,143 C274.1,151.8 271.4,175.7 298.4,183.2 L299.6,186.6 C281.2,187 262.8,163.6 275.8,137.7 L275.8,137.7 Z M214,139.5 C211.4,139.5 208.6,140.1 206.8,141.5 C205.2,142.8 207.2,143.6 209.2,142.6 C211.9,141.3 216.4,141.4 219.1,143 C221.1,144.4 222.2,144.1 220.8,142 C219.8,140.4 217,139.5 214,139.5 L214,139.5 Z M331.9,145.399262 C339,145.3 339.7,155.4 338.3,156.3 C338.7,156.2 339.9,155.8 341.6,155.8 C346.8,155.9 349.5,158.8 349.8,163 C350.1,167.2 346.9,169.5 342.3,169.3 C340.6,169.2 339.4,169 339.5,169.3 C340.4,172.6 339.3,177.7 334.9,179 C334.4,179.1 333.7,179.9 333.6,180.1 C333.3,185.4 334.8,203.7 334.8,203.7 C334.8,203.7 343.1,189.7 345,187.6 C348.7,182.6 349.3,183.1 349.3,191.4 C348.7,202.9 346.8,205.6 340.1,215.2 C337.2,219.4 330.3,217.2 330.9,220 C331,220.6 332.2,221.7 333.3,222.8 C334,223.5 334.7,223.9 336.4,223.8 C339.3,223.7 340.5,223.1 338.7,225.7 C337.3,227.7 332.4,228.1 331.9,229.2 C330.6,231.6 331.5,231.1 329.3,233.2 C327.6,235 328.2,234.1 329,235.6 C330.2,237.5 329.7,241.4 328.5,244 C327.5,246.1 327.6,247.7 327.6,247.7 C327.6,247.9 330.3,244.9 331.1,241.5 C331.8,238.7 332.6,237.2 332.6,238.8 C332.6,240.8 332.9,243.5 334.8,244.6 C336.2,245.4 336.4,246.2 336.2,247.3 C336,248.3 337.1,249.3 338.2,250.2 C338.5,250.5 339.3,250.8 339.2,251.4 C338.9,253.1 339.6,255.2 340.9,255.5 C341.5,255.8 345.1,255.5 345.7,253.4 C345.6,252.7 345.7,250.1 344.3,249.9 C343.3,249.4 343.4,249.2 344.9,248.2 C347.2,246.8 348.9,245.8 350,245.6 C351.5,245.4 353,243.7 353,243.7 L353.3,353.7 L304.8,395.4 C293.3,385.8 280.7,376.1 267.4,368.9 L262.8,366.2 L264.4,364.1 L256.4,353.6 L265.4,346.4 L267.7,349.3 L263.4,353.4 L269.8,360.5 L284.2,346.5 L274.7,337.4 L279.6,328.2 L282.7,329.7 L280.3,335.5 L287.5,340.1 L296.5,322.2 L285.1,317 L288,305 L291.5,305.4 L290.3,314.1 L299.2,315.9 L302.8,295.5 L289.7,293.2 L290.8,281.6 L294.5,281.6 L294,288 L303.2,289.3 L304.9,271.5 L292.1,269.4 L293.8,255.7 L296.7,256.1 L296.1,264.6 L305.5,266.2 C306.5,260.5 307.4,253.2 308.9,247.6 L296.8,243.1 L301.1,231.6 L303.8,232.5 L301.4,238.8 L310.3,242.6 L317.8,227.7 L307.3,220.2 C309.7,216.3 312,212.6 315.4,209.4 L317.5,211.2 C317.5,211.2 316.7,211.9 315.6,213.5 C314.2,215.5 313.7,216.5 313.9,217 C314.1,217.5 320.6,222.3 321.1,222.3 C321.7,222.3 323.8,220.3 324.9,219 C326.1,217.6 326.7,217.5 328,218.3 C328.2,218.5 328.6,218.8 328.8,219.1 C329.1,219.4 329.2,219.7 329.2,220 C329.2,220.2 329.2,220.4 329.1,220.5 C329.2,220.4 329.4,220.2 329.9,220 C330.8,219.5 328.2,217.2 326.1,216 C319.8,212.4 312.3,205.7 310.6,197.3 C310,193.5 319.7,198.1 326.4,204.8 C327.4,205.8 331.2,209.5 331.2,209.5 C330.6,199.8 329.8,189.9 330.3,180.1 L328.8,179.1 C326.7,177.7 325.9,175.3 325.7,172.9 C325.6,171.3 327,170.4 323.8,170.5 C317.1,170.6 313.3,164.3 317.3,158.9 C318.7,156.9 324.9,155.9 324.9,156 C323.7,149.2 328.4,145.8 331.9,145.399262 L331.9,145.399262 Z M329.5,220.2 C329.3,220.3 329.4,220.3 329.5,220.2 L329.5,220.2 Z M338.3,156.3 C338.2,156.3 338.1,156.4 338.1,156.4 C338.2,156.3 338.3,156.3 338.3,156.3 L338.3,156.3 Z M115.8,177.3 C134.5,193 146.4,203.6 184.4,215.4 L185.3,221 C163.4,216 139.6,205.8 111.3,180.4 L115.8,177.3 Z M110.2,180.9 C122,191.9 134.1,200.3 146.4,207.4 L150.7,210 L148.5,212.3 L155.7,222.7 L146.4,230.3 L144.2,228.1 L149,223.3 L142.1,216.5 L128,230.7 L137.6,239.2 L132,247.8 L130,246.9 L133,240.9 L124.1,236 L114.1,254.4 L126.8,260.2 L123.9,271.5 L120.9,271.4 L121.9,262.6 L112.3,260.9 L109.1,281.6 L121.4,283.5 L121.1,295.4 L117.8,295.4 L118,288.7 L108.3,288.3 L107.4,305.6 L119.4,307.2 L118.2,321.3 L115.3,320.5 L115.6,311.4 L106.5,310.5 L103.4,329.9 L115.7,333.4 L111.4,345.5 L108.7,344 L110.5,337.8 C108.2,336.8 101.9,334.2 101.9,334.2 L93.9,349.3 L104.3,356.4 L97.9,367.7 L95.4,366 L99.8,359.4 L91.1,354 L86.2,360.7 C84.1,358.9 80.3,356.4 78.9,354.7 C77.4,353.3 76.2,353.1 74.2,353.6 C72.6,354 71.1,354.2 71.5,353.7 C71.7,353.4 74.6,351.4 79.1,348.6 C80.4,347.8 81.4,347.1 81.3,346.4 C81.3,345.9 82,345 82.9,344.5 C83.9,343.9 83.7,343.3 83.5,342.7 C82.6,339.3 83.2,334 84.9,330.5 C86,328.1 86.4,327.7 85.7,327.7 C83.5,328 80.8,336 80.3,338.2 C80.1,338 79.9,335.9 79.7,335.1 C79.4,333.6 79.2,332.7 78,332.5 C76.6,332.2 77,331.5 76.9,330.4 C76.7,328.7 75.9,327.6 74.4,327 C73,326.4 72.8,326.2 72.9,324.8 C72.9,323.7 71.7,321.8 70.9,321.2 L66,322.9 C65.6,324.2 66.1,325.9 66.9,326.5 C69.3,328.8 65.8,328.8 63.3,330.3 C62.6,330.7 61.8,331.7 61.3,331.4 C59.7,330.9 59.9,335.6 58.3,335 L59,222.7 C72,209.2 110.2,180.9 110.2,180.9 L110.2,180.9 Z M307.9,200.7 L309.8,202.8 C304,209.4 299.7,216.1 295.1,224.4 C291.1,231.4 287.7,241.3 285.9,252.1 C284.5,258.7 284.3,265.4 283.4,272.1 C282.5,279.3 282.4,289.1 281,296.8 C278.4,317.8 272.5,329 259.7,340.9 C254.1,346.1 236.5,356 236.1,355.900752 L232,354.9 C267.9,336.5 276.9,323.8 280.8,280.3 C281.4,225.6 306.2,204.4 307.9,200.7 L307.9,200.7 Z M311.4,204.4 L313.3,206.3 L302.8,221 L313.1,228.3 L309,237.9 L305.9,236.7 L308.1,230.2 L299.4,226.5 L292.4,245.5 L304.8,249.4 L302.8,261.8 L300.3,261.1 L300.3,252.6 L291.1,250.7 L288.4,272 L302,274 L301,285 L297.8,284.8 L297.7,278.3 L288.3,277.8 L286.1,296.2 L299.4,298.5 L297,311.6 L294.2,310.9 L294.8,302.3 L285.9,301.1 L280.7,318.8 L291.9,324.5 L286.4,335.8 L284,334.1 L287.1,327.4 L278.4,323.1 L270,337.7 L279.2,346.7 L270.3,356.1 L268.3,353.5 L272.9,348.5 L266,341.7 L251.7,353.1 L259,362.7 L258,364 L250.4,361 L246.8,356.2 L242.5,358.1 L239.1,356.8 C260.3,345.7 274.1,332.8 279.8,313.4 C282.9,302.7 283.8,290.9 284.9,279.1 C285.4,273 286,266.8 286.9,260.7 C287.9,250.8 289.5,242.5 293.5,232.9 C298.2,221.4 304.1,213.2 311.4,204.4 L311.4,204.4 Z M197.4,211.7 L212,219.4 L211.8,224.5 L198.4,217.8 L197.4,211.7 Z M201.5,211.8 L211.9,213.2 L211.9,217.4 L201.5,211.8 Z M154.7,212 L160.8,214.7 L165.9,220.6 L169.7,218.1 L173.9,219.7 C160.7,226.5 149,234.6 139.9,248.6 C129.7,264.2 128.6,284.6 127.3,304.3 C125.1,331.5 120.5,350.5 102.4,372.6 L99.7,370.9 L109.4,355.4 L98.4,348.3 L103.4,339.1 L105.9,340 L103.9,345.4 L113,350.2 L120,330.7 L107.2,326.7 L109.4,314.5 L112.6,314.8 L111.7,323.5 L120.9,324.9 L123.5,304.3 L111.2,302.4 L111.5,291.5 L114.5,291.8 L114.5,298.4 L124.2,298.9 L125,280.1 L112.9,278.8 L114.4,265.5 L117.8,265.8 L117,273.8 L126.3,275.1 L130.7,257.9 L118.6,252.4 L125.1,240.8 L128,242.1 L125,248.5 L133.4,252.6 L142.2,239.1 L132.8,230.1 L142,220.5 L144.3,222.7 L139.3,228.4 L146.2,234.8 L159.9,223.3 L153.2,213.2 L154.7,212 Z M241.8,212.6 L241.4,217.4 L226.8,225.7 L226.8,221 L241.8,212.6 Z M320.1,212.8 L323.3,214.8 L321,217.6 L318.2,215.8 L320.1,212.8 Z M235.7,213.5 L227,218.5 L227,213.5 L235.7,213.5 Z M338.7,218.2 C339.2,218.2 339.6,218.3 339.9,218.5 C340.8,219.1 340.6,220.5 339.7,221.2 C338.4,222.1 334.9,222 334.5,221.1 C333.9,219.7 336.7,218.1 338.7,218.2 L338.7,218.2 Z M199.3,220.2 L211.8,227 L211.8,231.8 L199.7,225.2 L199.3,220.2 Z M240.1,220.3 L239.4,226.5 L226.5,233.3 L226.4,227.9 L240.1,220.3 Z M177.6,220.4 L182.7,221.7 C163.7,230.2 144.9,242.5 137.6,264 C135.3,270.4 133.8,277.6 132.8,286.7 C132.3,296.4 131.1,305.9 130.6,313.9 C129.7,330.3 124.3,352.5 105.6,376.1 L103.8,374.7 C115.2,360.6 121.2,347.8 124.9,334.3 C130.7,312.8 127.8,289.1 134,267.5 C137.8,254.3 145.6,242.6 157.4,232.4 C165.7,226.1 177.6,220.4 177.6,220.4 L177.6,220.4 Z M186.3,222.2 C186.3,222.2 186.4,222.2 186.3,222.2 C191,237.8 196.7,266.1 196.7,266.1 C184.5,260.2 164.1,261.3 164.1,261.3 C164.1,261.3 152.7,246.5 150.4,245.3 C159.6,233 184.5,222.3 186.3,222.2 L186.3,222.2 Z M343.6,224.7 C346.4,224.6 346.2,228.9 342.6,231.8 C340.8,233.3 339.9,233.1 338.6,231.9 C338.2,231.4 337.1,231 336.2,231.1 C334.2,231.1 338.2,227 341.7,225.3 C342.4,224.9 343.1,224.7 343.6,224.7 L343.6,224.7 Z M200.8,228.2 L212,233.9 L212.1,238.6 L201.8,233 L200.8,228.2 Z M238.6,228.8 L238,234 L226.4,240.1 L226.5,235.3 L238.6,228.8 Z M347.5,230.7 C347.9,230.7 348.2,230.8 348.5,231.1 C350.1,232.9 347.1,238.2 343.7,239.8 C342.4,240.4 341.6,240.3 340.5,239.4 C340,238.9 339.2,238.3 338.7,238.4 C336.7,238.6 337.8,236.4 339.4,236.3 C339.8,236.3 342.6,234.2 344.6,232.5 C346,231.3 346.9,230.8 347.5,230.7 L347.5,230.7 Z M335.7,232.8 C338.2,232.7 339.1,234.8 336.1,235.7 C334,236.3 332.9,235.9 332.9,234.5 C333.3,233 334.6,232.9 335.7,232.8 L335.7,232.8 Z M202.3,235.6 L212.2,240.6 L212.2,245.7 L203.1,241 L202.3,235.6 Z M237.8,236.3 L237.1,241.1 L226.4,246.6 L226.4,242.6 L237.8,236.3 Z M349.7,238.3 C350.4,238.3 350.6,239.1 350.6,240.4 C350.6,242.6 349.1,244.7 346.9,245.7 C345.3,246.4 344.1,246.4 343.3,245.5 C342.9,245.1 342.4,244.8 342.2,244.8 C338.8,244.7 339.3,243.8 342.6,242.4 C343.8,241.9 346,240.3 347.1,239.6 C348.3,238.7 349.2,238.3 349.7,238.3 L349.7,238.3 Z M337,239.9 C338.7,239.9 340.2,241.1 339.2,241.9 C338.5,242.5 335.7,242.8 335.2,242.3 C334.3,241.2 335.2,239.9 337,239.9 L337,239.9 Z M203.9,243.3 L212.4,247.9 L212.4,252.7 L204.3,248.1 L203.9,243.3 Z M236.3,243.7 L236.1,248.7 L226.4,253.5 L226.3,248.8 L236.3,243.7 Z M340.7,245.7 C342.3,245.8 342.1,247.4 340.8,248.2 C339.8,248.9 338.5,248.5 338,247.7 C336.9,245.5 339.5,245.8 340.7,245.7 L340.7,245.7 Z M344,250.8 C344.3,251.3 344.1,252.3 343.6,252.6 C342.9,252.9 341,252.6 340.7,252 C340.5,251.6 340.5,251.3 341,250.9 C341.8,250.4 343.5,249.9 344,250.8 L344,250.8 Z M205.2,250.9 L212.4,254.8 L212.4,259.6 L205.8,255.7 L205.2,250.9 Z M235.2,251 L234.8,255.6 L226.4,259.8 L226.5,255.3 L235.2,251 Z M147.3,253.9 C149.1,253.9 150.5,255.1 149.4,257.2 C148.7,258.5 148.2,258.9 145.4,261 C144.2,261.8 143.2,262.6 143.1,262.7 C143,262.8 142.3,263.3 141.8,263.7 C139.2,265.5 140.1,261.8 143.3,256.3 C144.2,254.6 145.9,253.9 147.3,253.9 L147.3,253.9 Z M234.5,258 L233.8,263 L226.3,266.8 L226.3,262 L234.5,258 Z M206.3,258.5 L212.4,261.5 L212.5,266.4 L207,263.5 L206.3,258.5 Z M279.2,258.9 C279.4,258.9 279.6,259 279.7,259.1 C280.2,259.8 280.3,262.8 279.8,264.5 C278.9,266.5 277.3,261.4 277.5,260.2 C277.8,259.6 278.6,258.9 279.2,258.9 L279.2,258.9 Z M151.6,259.8 C154.1,259.8 155.8,261.4 155,263.9 C154,266.3 148.5,267.8 146,269.5 C144.4,270.3 144,269.4 144.5,268 C144.7,267.3 144.9,266.8 143.7,266.6 C140.7,266.2 142.5,264.7 148.1,261 C149.2,260.2 150.5,259.8 151.6,259.8 L151.6,259.8 Z M273.4,261.4 C274.3,261.4 275.3,261.9 276.4,263.1 C278.3,265.2 279.7,269.5 278.6,270.7 C277.8,270.6 277.4,271.8 277.4,272.3 C277.3,273.7 274.8,271.2 272.4,267.2 C270.5,263.9 271.4,261.4 273.4,261.4 L273.4,261.4 Z M171.1,262.1 C178.6,262 192.9,263.6 212.7,276 C215.2,277.6 217.7,279.3 220.6,280.7 C228.1,284.7 234.3,287.5 244,289.3 L243.7,294.3 C243.6,295.9 246.2,305 245,310.2 C243.2,310.2 246.7,311.7 246.7,311.7 L249,316.4 C249,316.4 237.1,316.3 231.7,315.2 C223,313.8 207.1,306.4 199.5,300.6 C191.5,294.8 179.5,289.9 169.2,288 L169.1,283.7 C169.1,283.7 168.1,269 167.3,266.9 L165.4,262.2 C165.7,262.5 167.7,262.1 171.1,262.1 L171.1,262.1 Z M233.5,265.3 L232.9,270.2 L226.3,273.3 L226.3,269.1 L233.5,265.3 Z M266.4,265.5 C268.2,265.5 271,267.7 274.2,272 C274.9,273 275.5,273.8 275.6,274.4 C275.7,274.9 275.4,275.2 274.8,275.2 C273.5,275 273.1,274.5 272.7,276.1 C272.6,276.5 272.8,277.2 272.4,277.1 C270.2,276.4 263.8,270 264.2,267.9 C264.5,266.3 265.3,265.5 266.4,265.5 L266.4,265.5 Z M207.7,265.9 L212.5,268.5 L212.7,273.4 L208.4,271.6 L207.7,265.9 Z M156.1,267.4 C157.6,267.4 158.5,267.9 159,269.1 C160.1,271.9 158.1,273.5 152.2,274.8 C147,276 147.2,276.1 147.9,274.2 C148.4,272.9 146.8,272.8 145.9,272.5 C144.4,271.9 145.6,271.8 150,269.6 C152.6,268.1 154.6,267.4 156.1,267.4 L156.1,267.4 Z M138.9,268.7 C139,268.7 139.2,268.8 139.5,269.1 C147,278.2 145.1,291.4 135.6,298 C134.5,298.7 134.5,298.1 134.6,296.6 L134.8,293.9 C134.8,293.4 145.7,286.7 137.7,271.9 L138.4,269.8 C138.6,269.1 138.7,268.7 138.9,268.7 L138.9,268.7 Z M261.5,271.5 C264.5,271.5 272.8,279 269.2,279.3 C268.8,279.3 268.9,279.9 268.9,280.2 C268.9,280.5 268.9,281.2 268.8,281.4 C268.5,282.1 267.6,281.9 266.1,281.1 C262.3,278.9 261.5,278.1 260.2,276.9 C257.6,274.5 258.3,271.5 261.5,271.5 L261.5,271.5 Z M232.2,272.8 L232.1,276.9 L226.2,279.8 L226.2,276.1 L232.2,272.8 Z M157.2,275.7 C161.2,275.6 163.4,279.5 159.5,281.6 C157.9,282.4 152.7,281.8 150.2,281.6 C147.5,281.4 149.1,280.5 149.2,280.3 C149.6,279.7 149.9,279.6 148.4,278.7 C147.3,277.5 146.6,277.2 149.5,276.8 C150.9,276.6 154.2,276.3 155.4,275.9 C156,275.8 156.6,275.7 157.2,275.7 L157.2,275.7 Z M278.5,276.7 C278.8,276.7 278.8,277.2 278.6,278.4 L278.4,281.1 C276.6,281.4 267.6,292.6 274.9,305.6 L274.3,307.9 C274,309 273.9,309.2 273,308.5 C267.5,304.7 265.7,285.4 277.1,277.4 C277.8,277 278.2,276.7 278.5,276.7 L278.5,276.7 Z M257.1,278.9 C258.2,278.9 259.5,279.2 260.9,279.9 C264.4,281.5 266.7,282.8 267.2,283.6 C267.5,284.1 267,284.6 266.3,284.8 C265.5,285 265.4,285.4 265.6,286.4 C265.6,287 265.7,287.6 265,287.7 C263.7,287.8 260.7,286.8 257.7,285.2 C252.6,282.4 253.3,278.9 257.1,278.9 L257.1,278.9 Z M231.2,279 L231.2,283.9 L226.3,281.7 L231.2,279 Z M149.6,283.2 C150.1,283.2 150.8,283.3 151.7,283.5 C152.8,283.7 154.5,283.8 155.4,283.8 C160.9,283.7 163.2,287.6 158.7,289.5 C157.4,290 156.9,290 153.5,289 C151.9,288.5 149.9,288 149,287.8 C147.4,287.3 146.8,286.8 147.9,286.4 C148.9,286.1 149,285.4 148.4,284.4 C148.2,283.6 148.5,283.2 149.6,283.2 L149.6,283.2 Z M278.4,283.2 C277.6,290.9 277,296.8 275.8,304.3 C275,304 269,289.9 278.4,283.2 L278.4,283.2 Z M255.1,286.9 C256.9,286.9 260,287.6 262.9,288.8 C265.5,289.8 265.8,290 264,290.8 C262.9,291.3 263.1,291.7 263.4,292.4 C263.9,292.9 264.8,294 263.4,293.8 C261.7,293.9 257.1,293.7 255.7,293.4 C251.5,292.7 250.4,288.9 253.8,287.1 C254.1,287 254.5,286.9 255.1,286.9 L255.1,286.9 Z M147.8,288.8 C148.2,288.8 148.9,289 150.2,289.4 C157.7,291.8 160.7,294.6 157.1,297.4 C156,298.2 154.4,297.9 151.3,296.1 C148.1,294.3 146.5,293.3 145.9,292.7 C145.3,292.1 145.6,291.4 146.5,291.4 C147.7,291.5 147.6,290.9 147.5,289.8 C147.3,289.2 147.3,288.8 147.8,288.8 L147.8,288.8 Z M168,289.5 L173.8,290.8 L159.4,353.6 C159.5,354.3 154.7,354.1 148.4,356.7 C148.1,357.1 148.2,357.5 148.2,357.5 L158.1,355.8 L157.2,360.3 L148.2,362 L148,363.3 L158.3,361.4 C158.3,361.4 157.9,365.7 157.6,367.3 C157.6,367.3 176.8,364.5 184,363.8 C185.1,363.7 187.1,363.7 187.1,363.7 C187.1,363.7 187.3,314.1 187.3,308.7 C187.3,302.9 187.3,295.9 187.3,295.9 L197.2,301.5 L198.8,364 L229.9,369.1 C227.5,357.4 295.9,400.8 295.9,400.8 L284.4,406.8 C282.7,408.1 267.9,416.2 267.9,416.2 L266.5,418.1 C290.3,407 326.4,383.9 352.4,358.5 L353,523.7 L228.2,524.2 C228.2,524.2 228.2,516.2 228.2,508.7 L228.3,494.9 C227.8,486 229.3,476.3 226.6,468.9 L226.1,461.1 C233.8,452.2 238,440.9 241.6,429.3 C241.6,429.3 245.3,427.9 247.1,427.2 L247.7,424.9 C244.1,426.7 235.9,429.8 235.9,429.8 C236.8,429.1 218.4,421.4 207.1,419.6 C188.4,416.6 163.3,419.7 143.2,429.6 C142.2,430.3 141.8,430.3 142,429.4 C146.7,412.5 136.9,395.5 119.6,390.6 C115.9,389.6 113,389.6 113,389.6 L113.3,391.1 C141.4,394.3 148,424 137.2,437.8 C134.4,442.4 133.9,443.7 139.9,443.5 C164,443.3 172.3,470.2 161.4,485.1 C161.4,485 162.3,486.8 162.3,486.8 C169.1,477.8 171,460.6 158.8,448.5 C167.8,438.5 185,422.5 199.9,423.4 C205.3,423.7 210.7,430.3 214.2,435.5 C221.7,446.6 223.7,462.1 224.2,470.9 C224.3,473.2 224.6,474.9 224.6,476.1 C224.6,479.6 223.9,479.2 221.7,478.6 C218.8,477.9 214.9,477.8 212,478.7 C207.3,480.1 208.1,479.3 212.2,474.2 C214.6,471.2 215,470.2 214,470 C213.7,469.9 212.6,471 211.3,473.1 C207.2,479.4 207.5,476.8 210.5,467 C212.4,460.6 212.2,460.2 207,456.2 C205.3,454.9 203.1,453.6 202.9,453.2 C201.9,451.1 201.5,453.7 202.4,455.5 C203.3,457.2 201.4,458 198.2,456.2 C190.6,452 185.7,460.5 192.4,464.2 C194,465.1 194.9,464.3 193.7,463.2 C189.5,459.4 192.4,456.1 198.1,459.5 C201.4,461.5 202.6,460.8 203.7,458.4 C204.3,457.4 209.4,461 209.4,462.4 C209.4,463.3 208.8,466.3 208.2,468.2 C206.6,473.8 206.1,475.5 205.4,479.1 C204.1,485.7 204.2,489 205.5,491.9 C208.6,498.4 216.2,501.4 222.9,498.8 C223.9,498.4 225.7,498.1 225.7,498.1 L225.8,502.8 C212.7,507.8 203.2,523.3 203.6,523.8 L198.9,523.8 C192.7,511.4 181.7,502.2 167.8,497 C167.8,497 166.1,494.2 167.6,499.3 C167.7,501.3 169.8,504.2 171.6,505.2 C178.2,508.6 187,514.5 191.8,523.8 L188.5,523.9 C184.5,517.7 179.2,513.6 174.2,509.9 C173,509.7 175.1,521.1 179.8,524.6 L94.1,526.1 C100,503.2 101.1,477.9 87.4,444.6 C98.7,445.3 108.8,442.9 118.1,438.8 L117.3,436.4 C106.8,441.4 95.2,442.4 83.7,441.2 C92.5,457.4 100.1,491.4 92.7,524.1 L61.3,524.3 L60.9,346.1 C60.9,346.1 62.1,347.2 62.5,347.6 C63.5,348.6 64.2,350.1 64.4,351.1 C64.8,352.5 65.1,352.6 67.1,354 C68,354.7 68.6,355.3 68.6,355.7 C68.5,356.1 68.5,357.4 69.2,358.1 C70.9,360.2 70.6,361.5 69.3,362.9 C63.3,369.2 59.5,382.4 62.5,396.3 C69.7,391.5 77,378.9 77.2,378.9 L77.9,396.1 C77.3,396 72.9,398.5 72.9,401.9 C70.9,402.5 68.5,401.5 66.5,400.9 L67.9,406 C60.6,408.9 60.2,419 68.7,421.8 C68.7,421.8 67.9,425.7 67.3,427.8 L72.8,427 C76,436.6 88.3,433.5 88.3,426.8 C88.3,426.8 92.1,428.2 93.5,428.8 L92.1,422.3 C106.1,415.3 95.6,406.2 92.4,406.3 C92.4,404.5 93.3,403.9 94.1,401.8 L88.4,402.2 C87.4,398.8 83.6,396.1 83.4,396.4 L82.6,371.8 C86.9,375.5 91.1,379.4 96.7,382.3 C101.9,385 102.5,384.4 101.7,379.7 C101.4,377.6 101.4,376.2 101.4,376.2 C103.4,376.7 108.3,383.1 108.1,386.3 C109.9,388.7 111.5,382.3 106.9,376.9 C119.3,363.9 128.8,342.4 130.8,327.7 L147.3,321.1 L147.5,318.9 C159.1,311.8 164.9,301.4 168,289.5 L168,289.5 Z M181.8,293.4 L185.6,295.1 L181.3,297.2 L181.8,293.4 Z M145.2,294.4 C145.9,294.7 147,295.5 148.6,296.6 C151.8,299 153.7,300.6 153.8,302 C153.8,302.7 153.3,303.6 152.5,304.1 C150.5,305.1 148.7,304.3 144.5,300 C143.1,298.6 142.2,297.9 141.8,297.3 C141.3,296.6 141.7,295.9 142.5,296.2 C145.8,297.6 142.8,293.3 145.2,294.4 L145.2,294.4 Z M261.5,295.3 C262.2,295.3 262.8,295.3 263.1,295.4 C264,295.6 264.3,296.1 263.7,296.6 C262.8,297.4 263.1,298.2 264,298.6 C264.6,298.9 264.4,299.5 263.6,299.9 C263.2,300.1 262.5,300.4 261.6,300.7 C256.4,302.3 252.6,301.8 251.6,299.4 C250.5,296.6 252.7,295.3 259,295.3 C259.9,295.3 260.8,295.3 261.5,295.3 L261.5,295.3 Z M186,297 L186,300.7 L180.6,303.3 L181.2,299.5 L186,297 Z M140.3,298.1 C140.8,298.1 141.6,298.9 142.7,300.2 C147.9,306.6 148.6,307.8 146.9,309.5 C144.9,311.5 142.1,309.6 139,304 C138.6,303.3 138.1,302.3 137.8,301.9 C136.7,300.6 137.2,300.2 138.6,300.3 C139.4,300.4 139.7,300.1 139.8,299.3 C139.7,298.5 139.9,298.1 140.3,298.1 L140.3,298.1 Z M264.6,301.3 C265.5,301.3 265.5,301.6 265,302.7 C264.7,303.7 264.1,304 265.5,304.6 C265.7,304.7 266.2,305.3 265.8,305.6 C264.7,306.3 259.9,308.5 258.1,309.1 C254.7,310.2 252.6,307.5 254.6,304.7 C255.4,303.5 261.2,301.5 264.1,301.3 C264.3,301.3 264.5,301.3 264.6,301.3 L264.6,301.3 Z M137.6,305 C141,310.1 141.5,312.5 139.2,314 C137.8,315.1 134.7,313.5 134,310.2 C133.5,307.7 133.2,305 134,302.9 C135.3,299.8 137.2,304.5 137.6,305 L137.6,305 Z M186,302.9 L186,306.9 L179.5,310.2 L180.1,305.8 L186,302.9 Z M199.3,303 L205.5,307 L205.9,310.4 L199.5,306.9 L199.3,303 Z M267.9,307 C268.1,307 268.2,307.1 268.2,307.3 C268.2,307.8 268.1,309.5 269,309.6 C270.8,309.9 270.4,310.5 268.8,311.8 C267.1,313.3 265.5,315.1 263.4,316.2 C258.1,318.2 256.4,312.5 261.4,309.6 C263.1,308.6 264.7,307.9 265.9,307.6 C266.9,307.3 267.6,307 267.9,307 L267.9,307 Z M199.5,309.1 L206.6,313.3 L206.8,317.5 L199.7,313.9 L199.5,309.1 Z M185.7,309.5 L185.7,313.2 L178.7,317.2 L179.3,313.1 L185.7,309.5 Z M214.6,312.5 C216.6,313.4 241.9,320.4 250.2,318 C250.2,318 257.4,328.3 262.7,332 C254.5,344 226.7,355.9 226.7,355.9 L214.6,312.5 Z M271.5,312.7 C272,312.7 272.1,313.1 272.1,314 C272,316.5 267.9,325.7 264.6,321 C263.7,319.2 264.6,317.4 267.5,315.3 C269.7,313.6 270.9,312.7 271.5,312.7 L271.5,312.7 Z M133.8,314.2 C134.4,314.9 134.1,317 132.8,316.8 C132.4,316.8 132.4,314.6 132.6,313.5 C133,313.3 133.6,313.9 133.8,314.2 L133.8,314.2 Z M185.8,315.3 L185.8,320 L177.5,324.5 L178.4,319.3 L185.8,315.3 Z M199.5,316 L207.7,320.4 L208.7,325.6 L199.6,320.9 L199.5,316 Z M185.8,322.3 L185.8,327 L176.5,331.8 L177.1,327.2 L185.8,322.3 Z M199.6,322.8 L208.7,328 L209.9,332.9 L199.7,327.6 L199.6,322.8 Z M70.1,322.9 C71.6,322.9 72.1,324.5 71,325.5 C70.3,326.2 68.1,326 67.9,325.5 C66.9,324.6 68.3,322.9 70.1,322.9 L70.1,322.9 Z M72.9,327.9 C73.1,327.9 73.3,327.9 73.5,327.9 C74.6,328.2 75.3,329.7 74.6,330.6 C73.4,332.2 70.2,331.1 70.6,329 C70.7,328.5 71.9,327.9 72.9,327.9 L72.9,327.9 Z M185.7,329.5 L185.7,333.7 L175.6,339 L176.2,334.3 L185.7,329.5 Z M199.9,330 L210.3,335.6 L211.1,340.3 L199.9,334.5 L199.9,330 Z M67.9,330.2 C68.4,330.2 68.8,330.3 69,330.7 C69.2,331 69.4,331.9 70.1,332.3 C71.5,333.1 71.6,333.3 69,334.4 C67.9,334.9 65.8,336.3 65.1,336.8 C62.8,338.3 61.9,337.8 61.7,336 C61.6,333.7 65.7,330.3 67.9,330.2 L67.9,330.2 Z M75.7,333.6 C76.2,333.6 76.7,333.7 77.1,333.9 C78,334.5 78,335.6 77.2,336.2 C75.3,337.4 72.3,335.7 73.9,334.3 C74.3,333.9 75,333.6 75.7,333.6 L75.7,333.6 Z M185.6,335.9 L185.7,341.3 L174.5,347.2 L175.2,341.7 L185.6,335.9 Z M70.2,336.5 C70.9,336.5 71.6,336.6 72.3,337.1 C73,337.9 73.8,338.2 74.2,338.2 C76.1,338.3 75.5,339 73.5,339.9 C70.7,341.2 68.7,342.8 66.7,344.6 C64.6,346.5 64.5,347 63.8,346.2 C61.2,343.3 66.2,336.8 70.2,336.5 L70.2,336.5 Z M200.1,336.6 L211.9,343 L212.9,348.5 L200.1,341.4 L200.1,336.6 Z M77.9,340.4 C78.4,340.4 78.8,340.5 79.2,340.8 C80,341.5 79.6,342.8 78.4,343.4 C77.4,343.9 75.8,343.7 75.3,343.2 C74.2,342.1 76.2,340.5 77.9,340.4 L77.9,340.4 Z M72.2,343.2 C72.9,343.1 73.6,344 74.2,345 C74.4,345.2 75.2,345.1 75.8,345.1 C78,345.1 78.3,346.1 76.2,347.2 C75.6,347.6 73.5,349.1 72.1,350.3 C68.4,353.8 66.4,353 66.9,349.4 C67.3,346 70.3,343.4 72.2,343.2 L72.2,343.2 Z M200.1,343.5 L213.1,350.6 L214.4,356.5 L200.1,348.8 L200.1,343.5 Z M185.7,343.6 L185.6,349 L173.4,355.5 L174.4,350 L185.7,343.6 Z M200.3,350.5 L214.9,359.3 L215.4,365 L200.3,356.3 L200.3,350.5 Z M185.7,351.5 L185.7,356.8 L172.2,363.7 L172.9,358.7 L185.7,351.5 Z M75.8,355 C76.2,355 76.5,355 76.7,355.2 C78.3,355.9 77.9,357.2 75.5,358.5 C73.1,359.8 72.2,359.6 71.7,358.1 C71.3,356.8 73.9,355 75.8,355 L75.8,355 Z M228,355.7 C253.3,361.5 278.2,374 302.2,395.9 L297.2,399.5 C297.2,399.5 276.1,375.4 229.2,361.3 L228,355.7 Z M200.4,358.2 L207.4,362.3 L207.4,363.4 L200.4,362.8 L200.4,358.2 Z M80.7,358.2 C81.2,358.2 81.7,358.5 84.2,359.7 C94.3,367 98.3,371.4 100.8,379.4 C102.3,384.2 102.3,384 97.3,381.4 C92.7,378.9 86.3,374.8 82.2,369.6 C81.5,382 83,397.5 83,397.5 C89.3,400.6 87.3,408.7 87.2,408.7 C103.4,404.3 99.9,425.7 87.8,421.1 C90.7,437.2 72.3,435.9 74.2,422.1 C59.6,421.5 62.2,405.6 74.3,407.8 C73,402.9 74.8,399.5 79.3,397.4 L78.6,376.4 C78.6,376.4 66.7,393.5 64.7,393.3 C63.5,393.1 61.8,391.2 64.7,376.2 C66.2,368.4 74.5,358.9 79.2,358.6 C80,358.3 80.4,358.2 80.7,358.2 L80.7,358.2 Z M92.3,358.4 L94.4,359.9 L92.4,363.5 L90.2,361.9 L92.3,358.4 Z M185.7,359.4 L185.6,362.6 L179,363 L185.7,359.4 Z M113.6,395 C112.6,395 115.3,395.6 116.9,397.2 C132.4,399.6 141.8,418.5 134.7,432.2 C133.8,432.8 135.2,435.8 136,434.7 C143.5,424 137.9,397.7 115.9,395.2 C114.7,395.1 114,395 113.6,395 L113.6,395 Z M119.5,402.2 C118.3,405.6 117.9,406.4 121.1,405 C126.7,407.1 132.8,416.2 130.9,425.4 C130.3,426.5 131.4,424.7 132.1,427.7 C134.8,421.1 132.1,406.5 119.5,402.2 L119.5,402.2 Z M190.9,419.3 C206.7,419.3 222.4,422.7 234.8,429.9 C230.6,432.3 217.1,435.5 217.1,435.5 C209.5,427 205.6,418.5 191.9,422.8 C177.5,426.5 164.6,439 157.3,447.2 C150,442.8 146,441.8 139.6,441.4 C139.2,441.4 138.7,443 139.1,440.4 C141,437.5 142.2,434.3 143.5,431 C157,423.4 174.1,419.4 190.9,419.3 L190.9,419.3 Z M240.1,430.3 C236.9,440.5 232.9,450.5 226,459.4 L225.1,455 C231.6,445 234.7,436 236.1,432 L240.1,430.3 Z M234,432.9 C234.4,433.5 227.7,449.5 224.4,452.4 L223.1,448.3 C225.8,444.2 229.8,434.4 229.7,434.3 L234,432.9 Z M193.1,432.9 C192.9,432.9 192.8,433.1 192.8,433.5 C192.8,435 194.3,436.1 197.1,436.8 C200.9,437.6 206.1,436.3 206.1,434.6 C206.1,433.6 205.4,433.5 203.2,434.5 C200.5,435.8 198.1,435.5 194.6,433.6 C193.9,433.2 193.4,432.9 193.1,432.9 L193.1,432.9 Z M226.6,435.5 C225.6,439.4 224,442.2 222,445.2 L221.4,443.2 C222.8,441 223.7,438.4 224.8,436 L226.6,435.5 Z M222.7,436.7 C222.2,438 221.6,439.6 220.5,440.8 L219,437.6 L222.7,436.7 Z M198.9,439.7 C196.4,439.7 193.8,440.6 193.6,441.9 C193.5,442.6 194.5,442.3 199.2,441.7 C201.7,441.4 202.9,442.9 205.2,442.7 C206.4,442.6 205.3,441.5 204.9,441.2 C203.6,440.1 201.1,439.6 198.9,439.7 L198.9,439.7 Z M188,442.6 C187.7,442.6 188,443.3 189,445 C189.5,445.9 189.6,447.7 189.7,448.9 C189.6,451.7 189.6,451.6 191,450 C191.9,449.1 193.6,449.3 196.3,450 C198,450.5 198.5,450.6 199.7,449.9 C201.1,449 201.4,449.5 202.6,449.7 C203.8,449.9 204.8,449.5 206.1,449.1 C207.7,448.7 208,448.8 209.3,449.1 C211.4,450.1 211.1,450 211.2,446.5 C211.4,443 211.2,442.8 209.2,444 C207.3,445.1 205.9,445.6 202.9,444.6 C199.7,443.5 199.2,443.8 196.9,444.4 C194.1,445.2 192.8,445.5 190.6,444.2 C189.3,443.3 188.3,442.6 188,442.6 L188,442.6 Z M142.7,447.9 L143.9,449.9 C155.1,453.9 162.7,463.1 158.2,478.5 L159.3,480.2 C164.9,464.6 158.5,451.8 142.7,447.9 L142.7,447.9 Z M146.2,454.4 L147.7,457.5 C156.1,461.6 155.6,472.8 155.2,472.4 L156.5,475.3 C158.6,468.1 154.8,457.4 146.2,454.4 L146.2,454.4 Z M181.4,471.2 C181.1,471.2 180.9,471.3 180.8,471.5 C180.6,472.1 181.2,472.4 185.1,475.1 C188.4,477.4 191,479.1 190.8,479.4 C190.7,479.6 188.6,479.1 187.1,478.7 C183.2,477.6 177.6,478.9 174.4,481.2 C173.6,481.7 172.2,481.1 171.1,480.8 C170.6,480.7 169.6,480.5 169.1,480.7 C166.7,481.3 169,483.6 174.9,486.6 C182.1,490.3 186,490.6 190.4,488.4 C193.3,486.9 194.4,488 191.2,489.7 C185.6,492.7 180.3,491.8 171.5,485.7 C167.4,482.9 165.8,483.4 169.3,486 C175.4,490.8 187.3,496.7 194.6,489.5 C194.9,489.4 195.5,489.5 195.9,489.5 C197.4,489.5 197.5,489 195.9,486.5 C194.9,485 193,483.4 195.4,481.6 C197.2,480.2 197,479.5 194.9,478.9 C194.3,478.8 194.4,479.1 193.5,478.4 C188.2,474.3 183.2,471.2 181.4,471.2 L181.4,471.2 Z M183.6,479.4 C185.8,479.5 187.9,481.1 188.6,484.1 C188.7,484.4 188.7,484.6 188.7,484.9 L187,485 C185.5,478.9 180.9,480.9 180.4,484.5 L178.7,484.3 C179.3,480.9 181.5,479.3 183.6,479.4 L183.6,479.4 Z M221.7,484.6 L220.5,484.8 C219.7,482.6 216.1,479.5 214.3,485 L212.8,484.9 C213.9,477.5 220.6,478.6 221.7,484.6 L221.7,484.6 Z M212.3,481.5 C212.8,482.2 211.9,483.4 211.4,484 C210.9,484.5 209.8,484.1 209.4,483.6 C209,483.1 209.3,482.1 210,481.7 C210.7,481.3 211.8,481 212.3,481.5 L212.3,481.5 Z M190.8,481.7 C191.3,482.9 189.9,483.7 189.7,483.3 C189.4,483.2 189,481.3 189.2,481.2 C189.7,481.2 190.6,481.3 190.8,481.7 L190.8,481.7 Z M223.2,481.5 C224,481.6 224.8,481.9 225,482.8 C225,483.4 224.3,484 223.6,484 C223.3,484 222,483.1 222.2,481.7 C222.4,481.3 222.7,481.5 223.2,481.5 L223.2,481.5 Z M178.2,481.9 C178.5,482.3 178,483.6 177.8,483.7 C177.7,483.8 176.1,483.7 176.1,483.6 C176.1,483.5 175.9,482.5 176.4,481.9 C176.9,481.6 177.9,481.4 178.2,481.9 L178.2,481.9 Z M208.2,485.9 C208.4,485.9 208.7,486 209,486.2 C213.6,489.2 219.6,490.6 223.8,488.4 C224.8,487.9 225.4,487.9 225.4,488.4 C225.4,488.9 224.3,489.9 222.4,490.5 C218,491.8 210.7,490.1 208.2,487.4 C207.4,486.6 207.6,485.9 208.2,485.9 L208.2,485.9 Z M167.7,489 C167.3,489 167.1,489.2 167.2,489.8 C167.5,491.6 179.9,498.7 185,499.6 C189.2,500.4 192.5,500 195.1,498.5 C201.4,494.8 199.8,489.9 193.6,493.6 C189.5,496.1 178.9,494.9 172.7,491.3 C170,489.9 168.4,489.1 167.7,489 L167.7,489 Z M223.4,491.6 C225,490.9 225.6,490.7 226,491 C227.6,492.3 225,494.4 220.2,495.2 C216.4,495.8 214.1,495.9 209.8,492.7 C206.4,490.2 208,489 210,490.1 C215,493.2 218.8,493.3 223.4,491.6 L223.4,491.6 Z M168.8,499.4 C179.7,503.3 192.2,512.8 197.7,524.2 L194.3,524.2 C190.5,517.7 183.1,509.3 170.9,503.5 C169.8,502.6 169.2,501 168.8,499.4 L168.8,499.4 Z M226.2,504.8 L226.2,508.4 C219.4,511.8 213.8,517 209.5,524.3 L205.7,524.2 C210.1,516.4 216.6,509.2 226.2,504.8 L226.2,504.8 Z M226.2,510.2 L226.2,514.6 C221.9,517.1 218.4,520.4 215.9,524.2 L211.4,524.2 C215,518.1 219.9,513.2 226.2,510.2 L226.2,510.2 Z M176.1,513.6 C179.4,515.5 184.7,520.5 186.7,524.3 L185,524.4 C183.2,522.1 180.4,519.6 178.1,517.5 C176.6,515.8 176.1,513.6 176.1,513.6 L176.1,513.6 Z M226.2,516.4 C226.3,516.4 226.3,516.4 226.2,516.5 L226.2,520 C226.2,520.1 223,522.2 221.6,524.2 L217.9,524.2 C220.4,519.7 225.7,516.4 226.2,516.4 L226.2,516.4 Z M226.2,522.3 L226.2,524.3 L223.9,524.3 C224,524 225.3,522.6 226.2,522.3 L226.2,522.3 Z M181.2,522.8 C181.9,523.2 182.4,524.5 182.4,524.5 L181.8,524.6 L181.2,522.8 Z" id="Shape" fill="#131F67" fill-rule="nonzero"></path>
            <path d="M87.7,445.3 C95.3,445.5 111.4,442.7 111.1,443 C111.1,443 160.9,525.8 158.9,524.9 C158.3,525.9 95.1,525.9 95.1,525.9 C93.7,525.9 108.5,495.2 87.7,445.3 L87.7,445.3 Z M110.3,387 C134.6,366.9 160,366.7 187.3,364 L187.9,295.7 L197.8,301.6 L198,364.2 C234,366.9 265.1,380.1 291.801725,403.2 C292.1,403.7 253.2,424.5 236.1,430.1 C222.9,420.4 187.9,414.2 164.7,421.7 C158.3,423.8 150.5,427 142.9,429.5 C148.4,396.5 122.6,391.6 113.6,390.1 C112.4,389.8 111.1,387.4 110.3,387 L110.3,387 Z M79.1,397.7 C79.5,390.7 79.1,383.6 78.5,376.5 C78.4,374.9 64.3,397.9 63.5,392.3 C61.5,378.3 68.5,360.6 79.4,358.4 C80.5,356.9 102.1,370.3 101.1,381.9 C100.8,385.7 81.8,369.2 81.7,370.2 C81.3,372.1 82.3,397.9 82.9,397.9 C88.4,401 87.2,404.9 87.8,408.2 C91.5,407.2 97.7,408.5 98.4,413 C98.1,422.3 87.8,421.8 87.8,421.8 C89.2,426.3 87.3,433.4 80.7,433 C76.1,433.2 72.5,426.2 74.3,422.1 C73.7,423.1 62.4,420.6 64.1,413.9 C65,410.4 66.7,406.6 74.1,408.2 C73.7,403.7 74.8,399.3 79.1,397.7 L79.1,397.7 Z M99.7,316.4 C98.7,316 61.5,314.1 61.5,314.1 L63.4,223.5 C82.4,179.9 153.9,200.3 142.5,209.6 C108.3,231.9 103.1,272.7 99.7,316.4 L99.7,316.4 Z M168.3,279.1 L167.2,269 C164.3,262.8 243.3,299.2 244.2,300 L246.5,310.7 C246.9,315.5 196.2,291.7 168.3,279.1 L168.3,279.1 Z M312,261.4 C310.8,302.1 304.6,329.6 280.9,362.8 C280.2,363.9 273.6,366.7 273.1,367.6 C276.5,372.9 295.8,380.8 304.7,385 L351,357.4 C351.5,357.4 349.4,260.8 349.4,260.8 L312,261.4 Z M329.5,217.2 C323.3,216.3 308.8,201.2 311.8,196.7 C311.9,193.3 329.8,206.3 331.7,209.8 C330.8,208.8 330.7,177.9 330.4,179.2 C329.7,179.6 324.9,176.1 326.2,169.7 C317.9,170.9 315.4,165.6 315.7,163.1 C316.2,157.9 321.7,156.3 325.2,155.6 C324,148.4 328.7,146.1 330.7,145.7 C334,145.2 339.6,146.9 338.2,156.2 C342.1,155.6 349.3,155.6 349.7,162.7 C350.1,169 345.7,170.7 339.4,169 C340.5,176.2 337.5,178.2 333.3,179.7 C333.6,182.7 334.7,202.9 334.7,202.9 C334.7,202.9 347.3,183.7 348.2,185.3 C350.7,191.3 346.1,222.1 329.5,217.2 L329.5,217.2 Z M271.4,146.3 C265.3,164.1 282.3,192.2 295.9,188.1 C298.9,187.6 304.5,189.2 302.6,190.8 C279.5,209.5 225.5,213.4 225.5,212.6 C226.1,235.6 225,258.6 224.5,281.6 L214.7,275.7 C214.4,254.7 213.8,233.5 213.4,212.5 C178.8,208 147.7,196.8 123.2,173.1 C139.5,161 159,153.5 177.7,145.8 C201,158 233.8,165.1 271.4,146.3 L271.4,146.3 Z M254.3,53.6 C253.2,53.1 258,49.5 258,49.5 C258,49.5 298.2,50 318.1,49.8 C310.8,79.6 316,106.3 325.4,131.9 C325.4,131.9 303.2,133.9 302.7,134.5 C302,135.1 254.8,54.3 254.3,53.6 L254.3,53.6 Z" id="Shape" fill="#E2CF00" fill-rule="nonzero"></path>
            <path d="M371,547.7 C370.4,545.9 370.3,545.7 370.2,529 C370.1,512.1 370.1,510.3 371,506.8 C372.7,502.4 367.6,502.4 364.4,501.9 L364.4,495 C368.2,494.5 372.8,495.6 374.4,497.8 C378.3,495.1 380.9,494.6 383.6,494.7 C392.8,494.7 396.8,500.4 396.5,511.3 C396.5,513.1 396.8,515.4 396.8,515.4 L401.7,515.4 L401.7,522.4 L396.5,522.4 C396.5,522.4 397.3,539.7 396.2,545.8 C392.8,559.4 375.9,560.3 371,547.7 L371,547.7 Z M389.7,545.3 C390.6,543.2 390.4,544.1 390.5,528.2 L390.5,520.9 C383.2,519.2 376.8,510.5 376.9,510.5 C376.9,510.5 376.8,509.7 376.7,526.2 C376.6,544.9 377.3,546 381.2,549 C385,551.1 388.2,548.7 389.7,545.3 L389.7,545.3 Z M379.5,503.2 C381.7,506.3 384.5,509.5 387.7,512 C388.9,513 390.6,513.3 390.6,513.3 C390.6,513.3 390.5,511.2 390.5,510.1 C390.6,503.7 385.9,498.6 379.5,503.2 L379.5,503.2 Z M158.3,524.7 L111,442.6 L118.9,439.5 L169.8,524.4 L158.3,524.7 Z M287.1,513.4 C268.9,510.5 263.7,487.6 277.1,466 C283.4,455.5 310,416.6 308.4,417.9 C307.6,417.2 328.8,448 339.4,463.9 C349.5,480.6 354.8,507.9 330.1,512.9 C320.6,514.8 310.8,509.1 310.4,498.1 C310.3,496.5 309.7,495.3 308.8,495.3 C308,495.3 307.5,496.4 307.5,497.4 C307.3,507.9 297.9,515.1 287.1,513.4 L287.1,513.4 Z M372.6,486.4 C364.5,483.7 363,473.9 369.1,462.8 C374.1,454 376.6,451.7 381.2,442.9 C383.1,439.3 383.3,439.2 384.7,441.7 C388.1,447.3 391.8,453.4 394.9,458.2 C402.9,470.6 404.3,479.3 399.1,484.5 C394.5,489.2 384.7,486.5 384.6,480.4 C384.6,480.1 384.5,479.6 384.3,479.3 C383.9,478.6 383.2,479.1 383.2,480 C383.2,484.4 377.3,488 372.6,486.4 L372.6,486.4 Z M73.5,414.8 L81.1,407.8 L87.9,415.7 L80.8,421.8 L73.5,414.8 Z M229.6,369.1 L228.6,363.2 C256.6,370.1 279.5,384.4 296,400.1 L292.1,403 C293.3,402.7 252.3,372 229.6,369.1 L229.6,369.1 Z M148.3,363.4 L157.2,362.1 L156.9,367 L148.5,368.9 L148.3,363.4 Z M312.2,359.9 L307.4,355.5 L310.5,351.4 L315.7,354.7 L312.2,359.9 Z M147.7,319.7 C159.7,314 169.1,291.1 167.9,289.5 L174.5,291.1 L159.4,354 L148,356 C147.9,344 147.7,331.7 147.7,319.7 L147.7,319.7 Z M226.8,355.3 C222.7,342.1 214.7,312.1 214.7,312.1 C215,313.1 240.8,320.4 250,317.7 C253.9,323.1 258.2,327.8 262.8,332.1 C253.2,341.5 241.4,349.3 226.8,355.3 L226.8,355.3 Z M334.8,307.1 L330.6,303.3 L333.8,297.5 L339.8,302.2 L334.8,307.1 Z M275.5,304.5 C271.8,297.8 271.5,290.3 278.4,282.9 L275.5,304.5 Z M134.5,291.6 C134.2,290.9 136.1,275.2 136.5,274.5 C137.3,273.3 138.8,277.7 139.5,281.1 C140.4,285.3 135.6,294.1 134.5,291.6 L134.5,291.6 Z M238.2,286.7 C238.2,286.7 248.2,240.5 252.5,222.3 L264.7,219.2 L263.1,257.2 C253.1,266.1 244.8,287.5 244.8,287.5 L238.2,286.7 Z M76.4,278.7 C74.7,277.3 71.3,274.7 72.8,273.5 C73.6,272.8 76.7,270.2 77.6,270.5 C79.2,271.1 82.4,273.2 81.2,274.8 C80.2,276 77.4,279.5 76.4,278.7 L76.4,278.7 Z M164.2,261 L151,245.5 C159.2,234.1 172.8,227.5 187.2,222.3 L197,265.7 C185.9,262.5 174,258.8 164.2,261 L164.2,261 Z M96.8,223.1 C95,221.8 97.8,219.5 99.4,218 C101.3,216.2 105.5,220.3 104.3,222.5 C103.6,223.9 101.8,227 100.7,226.9 C100,226.9 97.4,223.6 96.8,223.1 L96.8,223.1 Z M255.9,209.2 L264.4,208 L263.8,213.8 L254.8,215.2 L255.9,209.2 Z M117.1,176.4 L122.3,173.1 C140.7,189.6 161.1,201 183.2,207.5 L184.7,214.6 C159.8,206.9 136.1,195.3 117.1,176.4 L117.1,176.4 Z M332.3,169.8 L325.5,163.1 L331.6,156.3 L338.9,162.6 C336.5,166.2 332.3,169.8 332.3,169.8 L332.3,169.8 Z M103.4,157.3 C94.9,144.3 85.2,130.4 77.6,119 C64.9,100 61.5,87.1 65.5,75.5 C72.1,56.4 100,57.4 102.1,76.8 C102.5,80.8 104.4,80.4 104.9,76.3 C107.6,54.7 140.4,57.5 142.4,80.5 C144.5,100 131,115.2 123.5,125.5 C116.8,136.1 109.1,146.1 103.4,157.3 L103.4,157.3 Z M22.6,126.4 C17.1,117.1 1.9,96.2 16.4,89.8 C21.5,87.5 28.1,91.6 28.1,95.9 C28.1,97.9 29.2,98 29.4,95.9 C30.5,87.4 42.5,86.7 46.3,95 C49.6,104.8 43.7,113.8 35.4,126.4 C33.5,129.3 29.1,137.2 29.1,137.2 L22.6,126.4 Z M293.6,137.6 L242.4,50.2 L252,50.2 L301.7,134.2 L293.6,137.6 Z M15.9,61.1 L10.7,61.1 L10.7,54.1 L15.9,54.1 C15.9,54.1 15.9,50.3 16.1,43.7 C16.4,29.5 16.8,27.3 21,23.5 C29.2,15.8 43,22.1 42.9,33.7 C42.7,50 42.8,65.6 42.4,67.8 C41.5,71.7 41.5,71.9 41.8,72.6 C42.5,74 48.8,74.6 48.8,74.2 L48.8,81 C44,81.4 42.1,80.9 38.3,78.3 C35.9,80.6 28.7,82.8 22.9,80.2 C18.3,78.1 15,72.9 15.9,61.1 L15.9,61.1 Z M33.5,73.3 C30.9,69.6 26.6,64.6 22.5,62.8 C22.3,67 22.6,70.6 24.1,72.5 C26.5,75.5 30.4,76.2 33.5,73.3 L33.5,73.3 Z M35.7,32.9 C33.8,27.6 28.9,25.8 25.2,29.1 C23,31.2 22.6,33.4 22.5,45.2 C22.5,52.5 22.5,55.6 22.5,55.6 C29.5,57.8 36.1,65.9 36,65.8 L36.2,43.6 C36.3,40 36.2,36.4 35.7,32.9 L35.7,32.9 Z" id="Shape" fill="#D40000" fill-rule="nonzero"></path>
            <path d="M243,48.5 L230.8,48.5 L300,187.8 C300,187.8 298.1,188.1 294.5,187.1 C277.9,182.7 267.6,165.2 271.4,148 C271.8,146.7 271.9,145.5 271.9,145.5 C229,164.9 202.5,157.8 177.8,145.4 L167.2,149.4 C167.9,143 175.8,119.1 187.6,107.8 L187.6,95.7 L187.3,90 L186.4,79.7 C168.9,96.2 148.4,122.2 145.8,159.1 C145.8,159.1 129.8,167.3 116.2,176.4 C117,176.3 137.4,201.5 186.6,215.6 L184.4,207.6 C191.7,209.7 202.1,211.3 212.5,212.6 L213.9,275.6 L225.7,282.6 L226.1,212.8 C226.5,213.1 244.8,212.2 254.7,209.8 L253.3,216.5 L263.1,214.6 L263.1,219.5 L252.4,222 L237,287.3 L245.9,289.3 C248.5,276.2 255.1,265.5 264.6,259 L264.5,256.5 C270.6,252.1 283.3,248.6 283.4,248.7 C287.7,227.5 297.8,212.9 308.5,198.9 L303.4,192 L323,184.8 L295.8,138.6 C306.2,131.4 327,134.1 327,134.1 C318.1,110.1 310.3,85.4 319.1,49.1 L243.5,49.2 L243,48.5 Z M267.8,50 C267.8,56.1 259.9,55.4 258.9,50 L267.8,50 Z M316.3,49.8 C311.5,77.6 313.1,104.7 324.2,130.4 C324.2,130.4 322.6,130.5 322.4,130.5 C322.2,130.5 322.6,129.1 322.5,128.7 C322.3,127.7 320.7,128.2 319.3,129.1 C318.7,129.5 318,129.9 317.6,130.2 C316.2,130.9 309.2,130.8 309.2,130.8 C311.5,129.3 314.7,124.9 312.8,122.4 C312.4,121.9 312.1,122.1 311.7,122.8 C309.7,126.3 308.7,126.9 306.1,126.9 C301.9,126.8 298.9,124.3 299.3,120.4 C299.6,116.6 305.2,114.6 304.4,118.3 C304.2,121.6 307.4,122.2 308,118.9 C308.2,117.7 308,118.2 308.3,116.8 C314.8,113.4 311.2,106.3 305.1,107.8 C303.7,108.2 303.5,108.3 302.5,107.8 C300.6,106.8 299.1,107.1 298.4,108.5 C297.8,109.7 298.7,110.6 300.1,110.6 C301.5,110.6 301.8,111.3 301.8,112.2 C301.8,114.2 298.3,115.2 296,114 C289.9,110.9 292.2,102.9 299.2,102.9 C301.3,102.9 302.2,103 302.3,102.6 C302.6,101.3 299.3,99.1 297.4,99.4 C295.8,99.7 294.9,100.1 295.7,98 C296.2,95.9 296.2,94.9 295.8,93.3 C294.7,91 294.7,92.2 294,94 C291.7,97.8 288.2,98.7 285.2,96.6 C282.4,94.6 282.5,90.9 285.1,88.3 C286.9,86.5 288.9,87.7 287.8,89.8 C287.3,90.6 287.7,91.7 288.5,91.9 C290.2,92.3 291.2,91.3 291.2,89.3 C291.2,88.2 290.8,87.9 292.9,86.8 C298.1,83.8 294.2,75.7 288.4,78.3 C287.1,78.9 286.8,79.4 286.2,79.2 C283.8,76.9 280.3,79.8 282.3,81.4 C283.2,81.8 284.3,82 284.6,82 C285.1,82.3 284.9,83 284.2,83.9 C281.8,86.8 276.3,85.3 275,81.3 C273.5,76.6 278.3,71.7 281.9,74.4 C283,75.2 283.9,75.3 283.9,74.1 C283.9,72.2 281.6,70.1 278.6,70.3 C275.6,70.5 275.9,70.9 277.6,68.2 C278.8,65.8 278.6,63.4 277.6,62 C276.8,60.9 275.9,60.7 276,61.8 C276.7,65.4 272.4,68.9 269,67.3 C265.7,65.8 264,62.1 265.6,58.8 C267.1,55.8 270.8,55.5 270.2,58.7 C269.9,60.7 271.5,61.8 273,60.6 C273.5,60.2 273.7,59.8 273.7,58.5 C273.7,57 273.1,56.6 274.1,55.7 C276.6,55.4 276.7,50.1 276.4,49.9 L316.3,49.8 Z M272,50 C273.6,50 274.9,50.5 274.9,52.1 C274.9,53.7 273.6,54.9 272.1,54.9 C270.5,54.9 269.2,53.6 269.2,52.1 C269.2,50.6 270.4,50 272,50 L272,50 Z M244.1,50.2 L250.4,50.2 L300.3,133.4 L294.4,136.3 L244.1,50.2 Z M254.5,53.1 C257.5,54.8 260.3,56.3 264.1,56.6 C263,58.9 262,61.3 261.8,65.5 L254.5,53.1 Z M264.7,69.9 C267.8,71 270.5,72.7 275.5,71 C272.8,73.4 271.3,76.3 270.1,79.3 L264.7,69.9 Z M290.6,79.9 C292.1,79.9 293.2,81.1 293.2,82.5 C293.2,83.9 292,85.1 290.6,85.1 C289.1,85.1 288,83.9 288,82.5 C288,81.1 289.2,79.9 290.6,79.9 L290.6,79.9 Z M274.5,86.5 C276.7,87.3 279.1,87.9 281.6,87.7 C280.3,89.5 279.9,92.1 279.8,95.2 L274.5,86.5 Z M282.1,99.6 C284.2,100.6 286.6,102.1 290.9,101.6 C288,106.5 288.6,107.8 288.4,109.9 L282.1,99.6 Z M307.1,109.3 C308.6,109.3 309.9,110.5 309.9,112.1 C309.9,113.6 308.7,114.9 307.1,114.9 C305.6,114.9 304.3,113.7 304.3,112.1 C304.4,110.5 305.6,109.3 307.1,109.3 L307.1,109.3 Z M291.6,115.5 C293.5,116.6 297.2,117.2 297.3,116.9 C297.1,116.7 296.2,120.5 296.1,122.9 L291.6,115.5 Z M300.3,129.7 C303,131.3 306,131.1 307.7,131.3 C305.8,131.7 304.1,132.1 302.1,132.9 L300.3,129.7 Z M331.9,145.2 C325.4,145.6 323.9,150.6 324.7,155.6 C319.8,154.8 314.3,159.5 315.8,165.2 C317.3,170.6 322.3,170.8 325.8,170.4 C325.5,171.7 324.8,176.1 330.1,179.9 L330.8,208 C330.8,208 328.5,205.8 326.9,204.3 C320.2,197.6 310.1,192.8 310.7,196.5 C310.8,197.1 311,198.5 311.2,199.6 C312.3,206 320.8,212.9 326.7,216.3 C328.8,217.5 330.1,218.7 330.1,218.7 C319.2,230.4 313.3,242.8 311.9,255.1 C310.5,266.6 309.4,276.9 308.4,287.4 C304,340.3 281.3,353.5 280.2,356.1 L279.8,363.1 L273.5,362.6 L266.2,368.9 C290.1,381.3 304,396.2 303.8,396.4 C322.9,383.9 339.3,370 354.9,355.7 L354.6,238 C354.6,238 353.3,238.5 353,238.5 C351.8,238.5 351.7,239 351.3,241.3 C351.1,242.5 350.4,243.6 349.8,244.4 C348.7,245.9 349.1,245.1 350.5,245.7 C353.6,246.9 349.6,252.5 345.2,253.2 C342.1,253.7 340.3,254.3 339.8,255 C333.2,260.8 326.6,261.7 321.7,259.6 C319.3,258.6 316.6,257 315.7,254.5 C313.7,248.7 317.9,240.4 320.4,235.6 C325,226.8 332.6,220.2 332.6,220.2 L331.4,218.8 C331.4,218.8 332.9,218.8 333.2,218.7 C339.8,216.3 340.2,216.3 341.4,214.5 C342.6,212.8 345.6,207.8 346.3,206.2 C349.7,197.4 350.1,196.9 350.1,191.1 C350.1,186.4 349.8,183.3 348.9,183.1 C343.7,187.1 338.5,196.3 335.5,201.8 C334.4,193.7 334.1,179.6 334.1,179.6 C335.2,178.4 341.4,179.1 340,169 C345.5,171.5 351.2,167.7 351,162.4 C350.6,154.2 344.3,154.5 339.2,155.5 C341.3,150.9 336.6,144.9 331.9,145.2 L331.9,145.2 Z M331.8,145.9 C338.6,146.1 339.9,153.6 335.8,157.8 C335.8,157.8 333.1,155.7 331.7,154.6 C330.4,155.7 330,156.6 328.5,157.7 C326.7,156.4 325.7,154.1 325.7,151.9 C325.7,148.4 329.2,145.8 331.8,145.9 L331.8,145.9 Z M177.7,146.1 C205,161.4 239.2,162.4 270.5,146.9 L270.1,149.5 L266.7,151.4 L268.6,155 L269.7,154.5 L269.7,156.9 C243.9,170.9 200.6,173.7 166.7,150.6 L169.7,149.2 C169.7,149.2 170.4,149.7 171,150.1 C172.2,150.9 174.3,152.1 175.6,152.7 L177.6,149.7 C177.6,149.7 174.5,147.8 174.8,147.7 L177.7,146.1 Z M180.1,150.8 L178.5,154.4 L182.4,156.5 L183.9,152.9 L180.1,150.8 Z M165.3,151.2 C207.3,177.6 246.5,169.7 270,158.9 L270.3,161.7 C240,174.6 200.1,178.1 162.1,152.5 L165.3,151.2 Z M264.2,152.9 L260.5,154.4 L262,157.8 L265.8,156.2 L264.2,152.9 Z M160.3,153.6 C194.5,175.6 231.1,179.9 270.6,163.8 L272.1,168 C233.6,183.4 193.1,181.7 156,155.4 L160.3,153.6 Z M186.5,153.7 L185,157.4 L189.2,159 L190.4,155.4 L186.5,153.7 Z M258.4,155.2 L254.7,156.4 L255.9,159.9 L259.7,158.6 L258.4,155.2 Z M193,156.2 L192.1,159.9 L196.4,161.1 L197.2,157.4 L193,156.2 Z M349.4,162.3 C350,168.6 340.6,171.7 337.1,165.8 L340.2,162 L337.4,159.4 C341.2,153.5 348.9,156.4 349.4,162.3 L349.4,162.3 Z M155,156.4 L165.2,163.4 L157.8,174.9 L146.8,167.5 L155,156.4 Z M331.6,156.7 L338.1,162.3 L332.2,169.3 L326.1,163.2 L331.6,156.7 Z M327.6,158.6 L324,162.8 L327.9,167 C323.2,172 316.3,168.9 316.3,162.8 C316.4,158.2 323.5,153.7 327.6,158.6 L327.6,158.6 Z M252.2,157 L248.3,158.2 L249.2,161.6 L253.2,160.5 L252.2,157 Z M199.7,158.1 L199,161.8 L203.5,162.8 L204.3,159.1 L199.7,158.1 Z M245.7,158.7 L241.6,159.6 L242.3,163.2 L246.4,162.3 L245.7,158.7 Z M332,159.6 L328.6,162.9 L332,166.4 L335.4,162.9 L332,159.6 Z M206.9,159.7 L206.4,163.4 L211.1,164 L211.5,160.3 L206.9,159.7 Z M238.4,160.2 L234.2,160.7 L234.6,164.3 L239,163.7 L238.4,160.2 Z M213.5,160.6 L213.4,164.4 L217.5,164.7 L217.5,160.9 L213.5,160.6 Z M231.6,161 L227.5,161.2 L227.5,164.9 L231.7,164.6 L231.6,161 Z M156.5,161 C154.1,161 152.1,163 152.1,165.4 C152.1,167.8 154.1,169.8 156.5,169.8 C158.9,169.8 160.9,167.8 160.9,165.4 C160.9,163 158.9,161 156.5,161 L156.5,161 Z M224.7,161.1 L220.6,161.1 L220.6,164.8 L224.8,164.8 L224.7,161.1 Z M332,161.1 L333.8,162.9 L332,164.7 L330.2,162.9 L332,161.1 Z M156.5,162.5 C158.1,162.5 159.4,163.8 159.4,165.4 C159.4,167 158.1,168.3 156.5,168.3 C154.9,168.3 153.6,167 153.6,165.4 C153.6,163.8 154.9,162.5 156.5,162.5 L156.5,162.5 Z M140.9,162.8 L146.7,167.5 C144.8,171.1 139,178.6 139,178.6 L128.2,170 L133.8,166.8 C133.5,167.4 133.3,168.1 133.3,168.8 C133.3,171.2 135.2,173.1 137.6,173.1 C140,173.1 141.9,171.2 141.9,168.8 C141.9,166.5 140.1,164.7 137.9,164.5 L140.9,162.8 Z M137.6,165.8 C139.2,165.8 140.5,167.1 140.5,168.7 C140.5,170.3 139.2,171.6 137.6,171.6 C136,171.6 134.7,170.3 134.7,168.7 C134.7,167.1 136,165.8 137.6,165.8 L137.6,165.8 Z M335.8,167.2 C335.8,167.2 337.4,167.8 337.8,168.4 C340.9,173.2 337.7,178.9 332.4,178.8 C326.3,178.7 324.7,171 328.9,167.9 L332.3,171.1 L335.8,167.2 Z M176.6,169.1 L188.7,173.7 L184.1,186.8 L170.9,181.4 L176.6,169.1 Z M127,170.5 C176.2,214.9 246.2,218.1 297.1,188.6 L300.2,188.5 L301.8,190.2 C243.9,224.5 171.8,217 123.2,172.9 L127,170.5 Z M262.6,173.1 L266.5,186.1 L253.2,189.6 L250.2,176.5 L262.6,173.1 Z M122,173.6 C137,188 158.1,200.6 182.9,207.8 L183.5,213.1 C157.1,205.2 137.2,194.6 117.9,176.3 L122,173.6 Z M179.8,173.8 C177.4,173.8 175.5,175.7 175.5,178.1 C175.5,180.5 177.4,182.4 179.8,182.4 C182.2,182.4 184.1,180.5 184.1,178.1 C184.1,175.7 182.2,173.8 179.8,173.8 L179.8,173.8 Z M158.3,174.8 L170.7,181.4 L164.5,193.8 L151.3,186.7 L158.3,174.8 Z M179.8,175.2 C181.4,175.2 182.7,176.5 182.7,178.1 C182.7,179.7 181.4,181 179.8,181 C178.2,181 176.9,179.7 176.9,178.1 C176.9,176.5 178.2,175.2 179.8,175.2 L179.8,175.2 Z M200.4,177 L212.4,178.7 L211.9,192 L197.9,190.3 C198.4,185.7 200.4,177 200.4,177 L200.4,177 Z M258.2,177.3 C255.8,177.3 253.9,179.2 253.9,181.6 C253.9,184 255.8,185.9 258.2,185.9 C260.6,185.9 262.5,184 262.5,181.6 C262.5,179.3 260.6,177.3 258.2,177.3 L258.2,177.3 Z M258.1,178.8 C259.7,178.8 261,180.1 261,181.7 C261,183.3 259.7,184.6 258.1,184.6 C256.5,184.6 255.2,183.3 255.2,181.7 C255.2,180 256.5,178.8 258.1,178.8 L258.1,178.8 Z M160.8,178.9 C158.4,178.9 156.5,180.8 156.5,183.2 C156.5,185.6 158.4,187.5 160.8,187.5 C163.2,187.5 165.1,185.6 165.1,183.2 C165.2,180.9 163.2,178.9 160.8,178.9 L160.8,178.9 Z M237.3,179 L239,192.3 L225.9,192.9 L225.1,179.6 L237.3,179 Z M331,180.1 L332.9,180.1 C333.1,191.6 334,204.8 335.3,214.6 C335.5,216.1 335.6,216.5 335.4,216.8 C334.1,219.1 332.6,216.2 332,209.7 C331.8,207.9 331.6,205.3 331.4,203.6 C330.8,198.4 331,180.1 331,180.1 L331,180.1 Z M110.1,180.3 C90.5,192.6 57.8,221.8 58,222.5 L58.1,335 L60.7,335.1 L62.8,331 C59.5,330.2 60.5,324 66.7,322.8 C67.8,322.6 71,321.5 71.8,320.9 C76.6,317.3 84.3,315.1 89.7,316.6 C97.6,318.6 99.2,324.4 95.4,334.5 C92.4,342.5 86.5,352.6 80.9,355.5 C80.4,355.7 79.5,356.2 79.5,356.2 C79.5,356.2 80.8,357.4 81.3,357.7 C96.7,348.8 104.4,317 104,297.2 C104.6,276.9 108.1,256.6 116.3,241.8 C129.8,217.3 147.7,207.5 147.600417,207.4 C147.600417,207.5 123.5,192.8 110.1,180.3 L110.1,180.3 Z M160.8,180.4 C162.4,180.4 163.7,181.7 163.7,183.3 C163.7,184.9 162.4,186.2 160.8,186.2 C159.2,186.2 157.9,184.9 157.9,183.3 C157.9,181.7 159.2,180.4 160.8,180.4 L160.8,180.4 Z M280.1,180.8 L284.8,193.2 L271.8,198.5 L267.1,185.5 L280.1,180.8 Z M205.6,180.9 C203.2,180.9 201.3,182.8 201.3,185.2 C201.3,187.6 203.2,189.5 205.6,189.5 C208,189.5 209.9,187.6 209.9,185.2 C210,182.8 208,180.9 205.6,180.9 L205.6,180.9 Z M232,182 C229.6,182 227.7,183.9 227.7,186.3 C227.7,188.7 229.6,190.6 232,190.6 C234.4,190.6 236.3,188.7 236.3,186.3 C236.3,183.9 234.3,182 232,182 L232,182 Z M205.6,182.3 C207.2,182.3 208.5,183.6 208.5,185.2 C208.5,186.8 207.2,188.1 205.6,188.1 C204,188.1 202.7,186.8 202.7,185.2 C202.7,183.6 204,182.3 205.6,182.3 L205.6,182.3 Z M231.9,183.4 C233.5,183.4 234.8,184.7 234.8,186.3 C234.8,187.9 233.5,189.2 231.9,189.2 C230.3,189.2 229,187.9 229,186.3 C229,184.7 230.3,183.4 231.9,183.4 L231.9,183.4 Z M276,184.9 C273.6,184.9 271.7,186.8 271.7,189.2 C271.7,191.6 273.6,193.5 276,193.5 C278.4,193.5 280.3,191.6 280.3,189.2 C280.3,186.8 278.3,184.9 276,184.9 L276,184.9 Z M275.9,186.3 C277.5,186.3 278.8,187.6 278.8,189.2 C278.8,190.8 277.5,192.1 275.9,192.1 C274.3,192.1 273,190.8 273,189.2 C273,187.6 274.3,186.3 275.9,186.3 L275.9,186.3 Z M184.4,186.5 L197.3,189.8 L194.3,203.4 L179.7,199.5 L184.4,186.5 Z M348.1,186.1 C350.2,192.7 346.3,201.2 346.1,201.8 C343.8,208.5 340.9,213.9 339.9,214.2 C339,214.5 338.6,214.3 338.6,213.5 C338.6,212.2 341.5,203.7 343.8,198.2 C344.4,196.9 345.6,192.8 345.7,192.1 C345.7,191.1 344.7,192.7 343.6,195.3 C341.5,200.4 338.5,205.9 337.8,210.9 C337.3,215 336.5,214.4 336,209.5 C335.2,202.8 336.7,199.3 344.2,190 C346.1,187.9 348,185.6 348.1,186.1 L348.1,186.1 Z M253.1,189.6 L256.8,202.9 L241.5,205.5 L239.1,192 L253.1,189.6 Z M189.1,190.9 C186.7,190.9 184.8,192.8 184.8,195.2 C184.8,197.6 186.7,199.5 189.1,199.5 C191.5,199.5 193.4,197.6 193.4,195.2 C193.4,192.9 191.5,190.9 189.1,190.9 L189.1,190.9 Z M211.9,191.8 L225.7,192.6 L225.8,206.4 L210.8,205.8 L211.9,191.8 Z M189.1,192.4 C190.7,192.4 192,193.7 192,195.3 C192,196.9 190.7,198.2 189.1,198.2 C187.5,198.2 186.2,196.9 186.2,195.3 C186.2,193.6 187.5,192.4 189.1,192.4 L189.1,192.4 Z M247.1,193.6 C244.7,193.6 242.8,195.5 242.8,197.9 C242.8,200.3 244.7,202.2 247.1,202.2 C249.5,202.2 251.4,200.3 251.4,197.9 C251.4,195.5 249.5,193.6 247.1,193.6 L247.1,193.6 Z M218.4,194.7 C216,194.7 214.1,196.6 214.1,199 C214.1,201.4 216,203.3 218.4,203.3 C220.8,203.3 222.7,201.4 222.7,199 C222.8,196.6 220.8,194.7 218.4,194.7 L218.4,194.7 Z M247.1,195 C248.7,195 250,196.3 250,197.9 C250,199.5 248.7,200.8 247.1,200.8 C245.5,200.8 244.2,199.5 244.2,197.9 C244.2,196.3 245.5,195 247.1,195 L247.1,195 Z M218.4,196.1 C220,196.1 221.3,197.4 221.3,199 C221.3,200.6 220,201.9 218.4,201.9 C216.8,201.9 215.5,200.6 215.5,199 C215.5,197.4 216.8,196.1 218.4,196.1 L218.4,196.1 Z M312.8,196.9 C313,196.9 313.3,196.9 313.5,196.9 C316.6,196.9 327,204.4 329.7,208.9 C331.9,212.9 330.8,214.5 328.2,210.9 C324.7,207 318.2,201.2 317.4,201.2 C316.5,201.2 317.7,202.5 321.9,206.5 C326,210.5 330.3,215.7 330.3,216.6 C330.3,217.2 329.5,217.1 328.3,216.4 C325.7,214.8 323.5,213.2 322.4,212.2 C321.7,211.6 320.4,210.4 319.5,209.6 C315.7,206.2 311.3,198.5 312.5,197 C312.5,197 312.6,196.9 312.8,196.9 L312.8,196.9 Z M119.7,198 C122.4,197.9 125.4,199.6 125.5,202.7 C125.6,204.9 125.7,205.1 127.7,205.1 C129.6,205.1 135.1,205.8 135.1,205.8 L135.1,211.9 C135.1,211.9 132.5,211.9 129.4,211.7 C124.2,211.5 124.2,211.4 123.6,213.7 C123.3,214.6 123,215.1 121.9,215.7 C117.2,218.8 112.8,213.2 115.7,208 C116.7,206.2 116.7,205.6 116.1,204.5 C114.6,201.6 116.5,198.2 119.7,198 L119.7,198 Z M120.8,201.2 C120.2,201.2 119.6,201.5 119,202 C118.2,202.8 118.2,204.9 119,206.2 C119.7,207.4 119.7,207.7 118.9,208.5 C117.4,209.9 117.4,212.7 118.8,213.7 C120.1,214.7 121.6,213.4 121.6,211.5 C121.6,209.4 123.1,209.4 123.1,209.4 L132.8,209.6 L132.8,208 L125.7,207.6 C124.7,207.6 123.7,207.5 122.9,207 C122.1,206.5 121.2,205.5 122.1,204.3 C123.4,202.7 122.3,201.2 120.8,201.2 L120.8,201.2 Z M99.7,204.8 L104.3,212.6 L109.7,212.8 L110.2,217.6 L116.7,221.8 L110,225.7 L109.7,230.5 L104.6,231.1 L99.9,237 L95.4,231.1 L90.4,231.1 L90.3,226.2 L83.4,221.8 L90.9,217.6 L90.8,212 L96.1,211.6 L99.7,204.8 Z M262.8,208.4 L263,213.1 L255.4,214.4 L256.4,209.6 L262.8,208.4 Z M214.4,213.1 L224.6,213.4 L224,279.9 C224,279.9 222,279.9 221.6,279.9 L221.6,277.3 L218.3,277.4 L215,275.4 L214.4,213.1 Z M99.7,214.8 L93.7,222.4 L100.9,228.7 L107.3,221.3 L99.7,214.8 Z M217.4,215.8 L217.4,218.9 L221.7,218.9 L221.7,215.8 L217.4,215.8 Z M99.9,218.5 L104.1,221.6 L100.9,225.8 L96.8,222.3 L99.9,218.5 Z M263,220.2 L262.9,256.6 C248.9,267.6 244.5,286.9 244.5,286.9 L238.8,286.6 L253.3,222.5 L263,220.2 Z M187.1,221 C174.5,227 161.8,231.5 149.3,245.8 C154.1,250.2 159.2,254.6 163.8,262 C174.2,260.5 185.8,262.3 198.4,267.3 L187.1,221 Z M217.4,221.8 L217.4,225 L221.7,225 L221.7,221.8 L217.4,221.8 Z M75.9,226.4 C76.2,227.4 76.3,228.4 76.3,228.4 C85.5,227.6 83.2,238.3 77.3,238.7 C76.6,238.8 77.9,240.6 79.2,241.2 C82.7,242.7 85.2,241.7 87.5,238.7 C89.3,236.4 89.4,236 89.4,236 L95.1,239 C95.1,239 95.3,238.9 94.3,241.5 C92.5,246.3 95.1,252.1 97.2,247.8 C98.3,245.5 101.5,244.2 103.8,245.2 C106.4,246.3 107.3,251 105.5,253.9 C104.9,254.8 104.9,255 105.3,255.8 C105.8,257 106.1,260.2 105.6,261.3 C104.9,262.6 104.1,262.9 102.5,261.8 C100.3,260.3 99.2,259.7 95.4,258.7 C88.8,257.5 87.5,255.2 84.9,249.8 C77.1,252.1 65.5,247.3 67,235.7 C67.7,233.2 67.9,228.3 66.6,227.3 C64.1,225.3 66.8,222.5 70.7,222.1 C73.8,221.7 75.3,224.6 75.9,226.4 L75.9,226.4 Z M186,223 L196.1,265.4 C185,261.3 174.1,258.2 164.4,260.5 C160,253.5 156.2,250 151.3,245.4 C160.9,233.9 173,227.5 186,223 L186,223 Z M71.5,225.1 C70.8,225.1 70.1,225.4 69.3,226.1 C69.3,226.1 70,226.7 70.4,227.5 C71,228.7 71,228.7 70.3,231.5 C67.2,242.5 74.5,249.8 84.9,246.7 C87.5,245.9 87.4,246 88.1,249 C89.3,254 92.8,256.5 99.8,257.4 C100.2,257.5 100.9,257.6 101.5,257.9 C104.6,259.8 103.3,257.3 102.5,256.2 C101.9,255.4 100.8,254.6 100.8,254.6 C100.8,254.6 101.7,254 102.2,253.8 C104.2,252.8 104.9,248.7 103.3,247.8 C101.8,247 99.3,248.2 99.3,249.7 C99.3,252.5 95.8,252.8 92.8,250.5 C88.9,247.6 92.4,240.1 92.4,240.1 L90.2,239.1 C90.5,239.4 85.5,246.4 79.5,243.9 C75.3,242.2 72.3,237.3 74.2,235.9 C75.6,235.5 77.4,236.3 78.4,235.5 C80.6,233.8 78.8,230.8 75.7,230.9 C75,230.9 73.6,231.2 73.6,231.2 C73.8,229.8 74.1,228.8 73.9,227.5 C73.7,226.2 72.7,225.1 71.5,225.1 L71.5,225.1 Z M217.4,228.3 L217.4,230.9 L221.6,230.9 L221.6,228.3 L217.4,228.3 Z M217.4,233.7 L217.4,236.4 L221.7,236.4 L221.7,233.7 L217.4,233.7 Z M217.4,239.5 L217.4,242.3 L221.7,242.3 L221.7,239.5 L217.4,239.5 Z M217.4,244.9 L217.4,247.8 L221.7,247.8 L221.7,244.9 L217.4,244.9 Z M217.4,250.4 L217.4,253.1 L221.7,253.1 L221.7,250.4 L217.4,250.4 Z M217.4,255.9 L217.4,258.6 L221.7,258.6 L221.7,255.9 L217.4,255.9 Z M78.6,258.6 L82.2,264.7 L86.5,264.9 L86.7,269.1 L94,274.7 L87.7,279.2 L87.2,283.7 L82.2,283.9 L78.1,290.8 L73.1,284.8 L69.1,284.2 L68.6,278.7 L62.4,274.1 L68.2,269.4 L68.7,264.5 L73.5,264.9 L78.6,258.6 Z M314.9,261.5 C315.3,261.5 315.7,261.6 316.2,261.8 C317.7,262.6 318.2,262.7 322.1,262.9 C326.6,263.1 328.3,263.5 330.5,265 C331.9,265.9 331.9,265.9 333.4,264.9 C339.8,260.7 347.1,264.5 347.6,272.4 C347.7,274.5 347.9,275.3 348.8,277 C349.4,278.2 349.9,279.1 349.6,279.9 C348.6,282.3 343.7,282.4 341,278.9 C340.5,278.4 340,278.1 339.4,278.1 C338.1,278.6 334.7,275.9 334.7,275.8 C334.4,277.7 334.2,279.1 333.9,281.8 L327.9,281.7 C327.9,281.7 327.8,280.6 327.5,276.8 C327.2,272.4 326.1,271.1 324.7,273.5 C322.3,277.6 315.9,275.8 315.5,270.9 C315.4,269.3 315.3,269 314.4,268.4 C311.3,266.3 312.1,261.4 314.9,261.5 L314.9,261.5 Z M217.4,261.7 L217.4,264.1 L221.7,264.1 L221.7,261.7 L217.4,261.7 Z M315.5,264.3 C314.3,264.4 315,266.5 317,267.6 C318.1,268.2 318.1,268.2 318,270.2 C317.7,273.7 321.1,275.4 322.6,272.5 C322.9,272 323,271.4 322.9,270.9 C322.3,268.4 327.8,269.1 329.1,271.7 C329.4,272.3 329.7,273.9 329.9,275.5 C330.1,277 330.1,278.8 330.1,278.8 L331.9,278.8 C331.9,278.8 331.9,277.7 332,276.7 C332.4,272.4 334.4,269.6 336.9,269.6 C338,269.6 338.1,269.8 337.3,271.2 C336,273.6 337.2,275.4 340.3,275.4 C342.2,275.4 342.2,275.4 343,276.8 C343.8,278.3 344.4,278.8 345.1,278.5 C345.6,278.3 345.6,278.6 344.9,273.4 C343.9,265.7 339.4,263.6 333.2,268 C331.5,269.2 331.1,269.2 329.5,267.7 C327.2,265.5 325.7,264.9 321.2,264.8 C319,264.7 316.9,264.5 316.5,264.3 C316,264.3 315.8,264.3 315.5,264.3 L315.5,264.3 Z M168.9,266.5 C167.9,266.5 166.7,266.7 165.7,266.8 C166.8,272.7 167.4,278.7 167.9,284.6 C173.1,283.7 179.8,284.5 188.7,288.7 C194.2,291.2 200.8,295.6 207.8,300.5 C215.4,305.8 224.2,309 231.8,310.6 C241,312.6 248.4,312.4 248.2,312 C247.8,312.1 244.9,297.4 245.3,294.3 C232.6,293.1 220.3,288.4 210.9,282 C198.4,273.6 184,266.2 168.9,266.5 L168.9,266.5 Z M217.4,267 L217.4,269.5 L221.7,269.5 L221.7,267 L217.4,267 Z M77.3,267.5 L70.5,274.5 L77.9,281.5 L84.1,274.4 L77.3,267.5 Z M77.1,270.7 L80.9,274.4 L77.8,278.3 L73.5,274.6 L77.1,270.7 Z M172.4,271.3 C173.3,271.3 174.2,271.9 177.2,273.6 C179.7,275.3 181.7,276.4 181,273.7 C181.6,272.9 184.3,275.5 187.6,277 C191.5,280.1 191.6,279.4 192.1,277.8 C192.6,276.7 193.4,277.4 196.5,280.3 C200.6,284.1 200.3,284.1 201.1,283.2 C202,281.4 202.4,281.4 205.7,285.3 C209.2,289.2 209.9,290 210.7,288.4 C211.9,287.5 212.4,288.4 217.2,292.8 C219.5,295.1 220.1,294.8 220.5,293.2 C220.9,291.6 221.1,291.9 225,295.1 C229.6,298.8 230,299 230.2,297.8 C230.5,295.8 231.9,296.5 236.6,299.9 C239.4,301.9 240.5,302.5 241.1,302 C241.7,300.9 239.6,298.8 244.1,300.8 L245.4,307.5 L243.8,307 C242.8,306.7 240.7,306 241.5,308.1 C242,309.3 240.8,309.2 237.3,307 C232.2,304 231.3,303.3 230.9,303.9 C230.2,306.2 230.3,306.3 226.9,303.6 C222.9,300.6 222.1,299.7 221.5,300.8 C221.4,303.1 220.3,302.6 216.6,299.4 C213.4,296.6 212.8,295.2 211.4,297.3 C211,298 210.6,297.8 210.1,297.5 C208.3,296.1 204.6,292.2 203.5,291.1 C202.7,290.2 202.2,290.5 201.5,291.2 C200.9,291.9 200.8,291.7 198.8,289.8 C193.9,285.3 193,284.2 192.3,284.8 C191.7,285.8 192.3,287.3 188.5,284.3 C183.8,280.9 181.8,279.4 182.1,281.6 C181.3,282.6 181.9,282.8 177.2,280.2 C172.7,277.7 172.2,277 171.5,277.8 C171.1,279.1 169.6,278.7 169.6,278.6 L168.7,271.8 L170.3,271.8 C170.1,271.9 171.7,271.3 172.4,271.3 L172.4,271.3 Z M136.6,271.8 C136.2,272.8 133.8,278.9 133.8,294.3 C134.1,294.7 139.9,288.7 140.2,283.2 C140.4,278 136.6,271.8 136.6,271.8 L136.6,271.8 Z M217.4,272.3 L217.4,275.1 L221.7,275.1 L221.7,272.3 L217.4,272.3 Z M136.9,274.5 C142.3,283.1 136.4,291.2 134.9,291.8 C134.8,285.3 135.8,279.2 136.9,274.5 L136.9,274.5 Z M279.3,281.7 C270.4,287.3 271.8,302.5 276.2,306.4 C276.5,306.5 279.3,290 279.3,281.7 L279.3,281.7 Z M278.1,283.6 L275.7,303.2 C272.5,299.7 272,289.4 278.1,283.6 L278.1,283.6 Z M334.3,286.9 L339,292.8 L343.2,293.1 L344.1,297.4 L350.2,302.4 L344.1,306.5 L343.6,311.2 L339,311.7 L334.5,318.8 L330.1,311.8 L325.9,311.4 L325.8,306.8 L319.2,301.9 L325.5,298.1 L325.6,292.9 L330.6,292.9 L334.3,286.9 Z M167.4,288.7 C164.4,302.9 157.2,312.7 147.2,319.2 L147.3,320.6 L130.3,327.4 C126.6,344.8 119.9,361.7 105.8,377.6 L109.7,385.6 L90.7,392.1 L117.9,438.7 C119.8,438.7 104.7,445.8 86.6,444 C98.1,472.1 100.5,501.3 94.1,526.8 L183.1,526.4 L115.1,393 L114,390.8 C113.1,389 150.1,396 142.3,430.4 C142.2,431.2 142.5,431.3 142.9,431 C150.1,424.8 198,407.6 236.2,430.3 L247.6,425.6 C242.2,444.5 236,457.5 225.7,469 L227.5,495.9 C245.8,480.9 265.7,453.3 268.4,416.7 C276.7,412.7 283.8,408.1 291.5,403.8 L292.5,404.1 L297.5,401.1 C281.5,383.6 248.9,366.9 228,362.5 L229.2,368.4 C217.7,365.3 209,364.6 200.1,363.7 L198.7,301 L187.1,294.1 L186.7,363.2 C178,363.6 158,367 158,367 L158.9,361.1 L149.8,363 L149.6,357.2 L159.9,354.2 L174.9,290.7 L167.4,288.7 Z M168.7,290.2 L173.5,291.2 L158.7,353.5 C158.7,353.5 150.4,355.8 149.9,355.5 C149.2,343.8 149,320 149,320 C163.5,307.7 165.8,299.1 168.7,290.2 L168.7,290.2 Z M66.9,294.7 C69.1,294.7 71.5,296.3 71.7,297.8 C72.1,298.7 72.4,299.1 73,299.2 C76.7,299.7 76.9,300.7 77,302.9 C76.5,307 79.2,303.6 80,299.5 C80.1,299.1 80,295.9 80,295.9 L84.6,295.9 C84.6,295.9 84.8,299.2 84.8,299.7 C85.2,302.9 86.6,305.5 87.5,303.8 C90.7,298 98.1,301 96.9,306.5 C96.6,307.8 96.6,307.9 97.5,308.9 C99,310.5 99.5,312.3 99,313.8 C98.5,315.3 97.5,315.5 95.3,314.6 C94.3,314.2 93,314 89.6,313.9 C84.8,313.8 84.5,313.7 82.7,311.9 L81.5,310.8 L79.5,312 C76.1,314 73.1,314 69.5,312.2 C67.2,311 65.8,308.2 65.5,303.7 C65.4,301.3 64.8,299.6 63.3,299.1 C62.5,298.4 63.4,296.9 64.7,295.5 C65.4,294.9 66.1,294.7 66.9,294.7 L66.9,294.7 Z M333.9,295.4 L327.6,303.2 L335.1,309.9 L342.1,301.7 L333.9,295.4 Z M188.2,296.5 L196.9,301.5 L198,363.3 L188.1,363 L188.2,296.5 Z M67.1,297.4 C66.4,297.5 66.8,298.5 67.3,300.2 C67.7,301.6 67.9,302.6 67.7,303.6 C66.8,310.4 74.5,313.8 80.1,309.1 C81.6,307.4 81.8,307.5 83.1,309.3 C84.6,311.2 86.9,311.9 91.6,311.6 C93.7,311.5 95.2,312.6 96.1,311.9 C96.8,311.4 96.1,310.1 94.8,309.4 C94,308.9 94,308.9 94.1,307.3 C94.5,303.3 91.2,302.2 88.8,305.6 C86.9,308.4 83.9,306.5 83,301.9 C82.4,298.3 82,298.4 81.6,301.5 C81.1,305.3 76.2,309.4 74.2,307.5 C73.6,307 73.7,307.1 74.2,305.2 C74.9,302.8 74.3,301.9 71.7,301.2 C71.3,301.1 70.8,300.7 70.6,300.4 C69.3,298.1 69.4,297.4 67.1,297.4 L67.1,297.4 Z M334.6,298.8 L338.6,302.2 L335.1,306.3 L330.9,303 L334.6,298.8 Z M190.9,301 L190.9,303.9 L194.6,303.9 L194.6,301 L190.9,301 Z M190.9,306.9 L190.9,310 L194.6,310 L194.6,306.9 L190.9,306.9 Z M213.4,310.4 C217.6,325.9 221.8,341.4 226,356.9 C230,355.3 252.9,345.1 263.8,332.1 C263.4,332.1 254,322.9 250.7,316.9 C239.7,318.8 227.3,316.5 213.4,310.4 L213.4,310.4 Z M190.9,312.3 L190.9,315.2 L194.6,315.2 L194.6,312.3 L190.9,312.3 Z M215.7,313.1 C225.6,316 238.2,320.1 249.8,318 C252.8,323.4 257.1,327.8 262,331.9 C253.2,341.5 240.5,348.8 227.3,354.4 L215.7,313.1 Z M309.4,314.2 C309.9,314.2 310.4,314.4 310.9,314.8 C312.5,316.2 313.7,316.7 316.8,317.2 C321.9,318 325.9,321.2 327,325.5 C327.5,327.3 327.7,327.4 330.3,326.8 C340,324.4 347.5,332.4 345.2,343.1 C344.4,346.8 344.1,347.3 345.3,348.8 C347.8,351.5 348.3,351.5 345.6,353.8 C343.1,356 338.3,354.9 337.2,351.4 C336.2,349.4 336.2,349.3 334.6,349 C328.3,348 328.5,339.2 334.5,338.2 C335,338.1 335.4,338.2 335.6,338.1 C337.3,337.3 333.8,333.3 330.8,334 C327.2,334.7 325.4,337 324,340.6 L318.4,337.4 C319.8,334.5 320.9,330.7 319.6,328.4 C318.6,326.4 317.3,326.4 317,328.3 C316.1,332.7 310.6,334.1 307,330.4 C305,328.4 304.7,326.2 306.2,323.3 C307.2,321.4 307.2,321.3 306.8,320.5 C305.3,317.7 307.2,314.2 309.4,314.2 L309.4,314.2 Z M190.9,317.8 L190.9,320.8 L194.6,320.8 L194.6,317.8 L190.9,317.8 Z M310.1,318 C308.9,318 309,319.1 310,320.5 C310.9,321.4 311.1,321.9 309.8,322.7 C308.2,324.2 307.8,326.5 308.9,328.2 C310.6,330.8 314.5,329.4 314.1,326.3 C313.8,324.1 315.5,323.2 318.2,324 C322.1,325.2 324,329.6 322.4,334 C322.1,334.8 321.5,336.8 321.5,336.8 L322.7,337.5 C322.7,337.5 324.1,335.3 324.6,334.6 C329,329.1 339.6,331.9 338.4,338.7 C338.2,340.8 338.2,341.1 335.9,340.5 C334.3,339.7 332.8,341.4 332.9,343.4 C333,345.3 334.6,346.8 336.9,346.5 C338.7,346.2 339.1,346.2 339,348.6 C339.2,350.3 339.8,351.4 340.9,351.9 C343.6,353 344.9,351.5 342.8,349.3 C341.5,347.9 341.6,345.9 342.4,343.9 C343.4,341.6 342.9,336.4 341.4,333.5 C339.3,329.3 333.3,327.6 328.3,329.7 C326,330.9 325.8,331.2 325.5,329.1 C324.2,323.8 320.2,319.8 315.3,319.4 C313.3,319.4 311.3,318.3 310.1,318 L310.1,318 Z M190.9,323.5 L190.9,326.3 L194.6,326.3 L194.6,323.5 L190.9,323.5 Z M190.9,328.9 L190.9,331.9 L194.6,331.9 L194.6,328.9 L190.9,328.9 Z M190.9,334.8 L190.9,337.9 C190.9,337.9 192.9,337.8 194.6,337.9 L194.6,334.8 L190.9,334.8 Z M312.6,339.7 L316.7,345.7 L321.2,346 L321.7,350.9 L328.5,355.2 L322.6,358.9 L322.6,363.6 L316.9,364.1 L311.9,370.7 L307.6,364.8 L303.3,364.8 L302.3,359.6 L294.7,355.8 L302.4,351.4 L302.2,345.9 L307.5,345.9 L312.6,339.7 Z M190.9,340.4 L190.9,343.5 L194.6,343.5 L194.6,340.4 L190.9,340.4 Z M190.9,346.1 L190.9,349.2 L194.6,349.2 L194.6,346.1 L190.9,346.1 Z M310.4,348.4 L304.6,356.2 L312.5,362.7 L318.8,354.8 L310.4,348.4 Z M190.9,351.6 L190.9,355 L194.6,355 L194.6,351.6 L190.9,351.6 Z M311,352 L315.1,355.1 L312.2,358.8 L308.2,355.7 L311,352 Z M190.9,357.8 L190.9,360.6 L194.6,360.6 L194.6,357.8 L190.9,357.8 Z M80,358.2 C72.8,358.2 66,369.9 64.4,375.4 C62.5,382.5 62.2,395.2 64,395.6 C70.4,391 73.5,383.1 78.3,377.2 C79.1,384 78.9,397.1 78.9,397.1 C78.9,397.1 76,398.6 74.5,401 C73.4,403 73,405.4 74,407.6 C70.4,406.4 63.9,407.7 63.6,414.4 C63.8,423.7 74,422.4 74,422.3 C73.8,422.3 72,432.2 81,433.3 C84.2,433.7 89.9,431.3 88.2,422.3 C93.9,423.2 98.8,420.1 98.9,414.6 C99,410.8 96.1,407.6 91.2,407.6 C90.2,407.6 88,408.1 88,408.1 C88.1,407.6 90,401.7 83.4,397.5 L82.4,370.5 C82.4,370.5 84.7,373 85.7,373.9 C90.1,377.9 93,380 98,382.7 C102.9,385.3 102.3,384.7 101.5,379.7 C99.2,372.3 94.3,366.7 84,359.7 C82.6,358.6 81.3,358.2 80,358.2 L80,358.2 Z M80.7,358.7 L82.1,396.8 L80,396.8 L78.2,358.7 L80.7,358.7 Z M292.2,360 C292.4,360 292.6,360 292.8,360 C297.4,360.4 298.6,365.6 296.6,367.9 C295.8,368.8 295.5,369 295.9,369.6 C297.9,372.1 296.8,376.1 294.8,376.7 C288.5,378.6 287.6,375.2 287.6,371.2 L277.9,370.8 L278,365.1 L288.7,365.3 C287.8,362.8 289.3,360.1 292.2,360 L292.2,360 Z M76.2,360.1 C76.2,360.1 76.3,360.1 76.3,360.1 C77.3,360.2 76.3,362.9 73.5,367 C71.6,369.8 69,374.6 68.2,376.6 C66.5,380.9 65.3,388.6 66.5,387.2 C67.5,384 67.6,382.6 68.5,380.3 C69.7,377.3 75.2,367.3 76.3,366.3 C77.2,365.5 77.5,366 77.5,368.8 C77.4,375.1 74.5,381.7 67.3,389.5 C66.1,390.8 64.5,392.2 64.4,392.2 C63.7,392.2 63.7,390.8 63.7,387.8 C63.7,375.9 68.2,365.2 75,360.7 C75.5,360.3 75.9,360.1 76.2,360.1 L76.2,360.1 Z M83.4,360.6 C86.5,361.5 92.1,366.5 94.4,369.1 C97.1,372 100.7,380 100,381.2 C99.8,381.7 99.3,381.7 97.8,380.8 C87.9,375.2 80.7,368.3 82.6,366.1 C83.1,365.5 85.3,366.8 88.1,369.4 C90,371.1 92,372.9 93.8,374.6 C96.6,377.4 97.2,377.8 95.5,374.7 C94,371.9 89.7,367.3 84.5,363.4 C82.5,361.9 82,360.6 83.4,360.6 L83.4,360.6 Z M292.8,362.2 C292.7,362.2 292.5,362.2 292.4,362.3 C290.4,363.1 291.2,365.7 291.1,367.6 L280.3,367.2 L280.2,368.7 L290.3,369.2 C290.5,370.7 289.7,374 291,374.6 C293.8,375.8 295.4,372.1 293,370 C292.1,369.2 291.2,368.9 293.6,367.8 C295.2,366.5 295.4,363.9 294.1,362.7 C293.7,362.4 293.2,362.2 292.8,362.2 L292.8,362.2 Z M156.7,362.7 L156.2,366.7 L150,368.3 L149.8,364 L156.7,362.7 Z M230.3,364.1 C253.3,370.3 278.9,384.4 295.6,400.3 L292.3,402.5 C275,386.5 252.2,374.4 231.3,368.4 L230.3,364.1 Z M190.6,364.7 C228.5,364.6 263.1,379.3 291,403.2 L286.4,406.1 C260.9,385.1 232.7,371 194.8,369.4 C170,368.3 141.7,374.7 113.8,390 L111.7,386.2 C138.8,371.3 165.4,364.8 190.6,364.7 L190.6,364.7 Z M187.6,370.4 L202.5,370.8 L201.6,384.6 L188,384.2 L187.6,370.4 Z M171.5,371.4 L173.6,384.8 L160.6,387.2 L156.9,373.8 L171.5,371.4 Z M218.8,373.2 L233.6,377.2 L228.7,390.8 L215.7,387.1 L218.8,373.2 Z M195,373.4 C192.6,373.4 190.7,375.3 190.7,377.7 C190.7,380.1 192.6,382 195,382 C197.4,382 199.3,380.1 199.3,377.7 C199.3,375.3 197.4,373.4 195,373.4 L195,373.4 Z M195,374.8 C196.6,374.8 197.8,376 197.8,377.6 C197.8,379.1 196.5,380.4 195,380.4 C193.4,380.4 192.2,379.1 192.2,377.6 C192.2,376.1 193.4,374.8 195,374.8 L195,374.8 Z M165.6,374.9 C163.2,374.9 161.3,376.8 161.3,379.2 C161.3,381.5 163.2,383.5 165.6,383.5 C168,383.5 169.9,381.6 169.9,379.2 C169.8,376.8 167.9,374.9 165.6,374.9 L165.6,374.9 Z M165.6,376.3 C167.2,376.3 168.4,377.6 168.4,379.1 C168.4,380.6 167.1,381.9 165.6,381.9 C164,381.9 162.8,380.6 162.8,379.1 C162.8,377.6 164,376.3 165.6,376.3 L165.6,376.3 Z M224.3,378 C221.9,378 220,379.9 220,382.3 C220,384.7 221.9,386.6 224.3,386.6 C226.6,386.6 228.6,384.7 228.6,382.3 C228.6,379.9 226.6,378 224.3,378 L224.3,378 Z M141.7,378.5 L146.1,391.5 L133.5,396.6 L128.8,383.7 L141.7,378.5 Z M224.3,379.5 C225.9,379.5 227.1,380.8 227.1,382.3 C227.1,383.8 225.8,385.1 224.3,385.1 C222.7,385.1 221.5,383.8 221.5,382.3 C221.5,380.8 222.7,379.5 224.3,379.5 L224.3,379.5 Z M248.9,382.6 L262.2,389.7 L255.3,402.2 L242.9,395.7 L248.9,382.6 Z M137.2,383.8 C134.8,383.8 132.9,385.7 132.9,388.1 C132.9,390.5 134.8,392.4 137.2,392.4 C139.6,392.4 141.5,390.5 141.5,388.1 C141.5,385.7 139.6,383.8 137.2,383.8 L137.2,383.8 Z M187.6,384.2 L188.2,397.4 L176.4,398.2 L174.2,385.1 L187.6,384.2 Z M201.8,384.9 L215.3,386.8 L212.1,399.5 L199.9,397.5 L201.8,384.9 Z M137.2,385.2 C138.8,385.2 140,386.5 140,388 C140,389.5 138.7,390.8 137.2,390.8 C135.6,390.8 134.4,389.5 134.4,388 C134.4,386.5 135.6,385.2 137.2,385.2 L137.2,385.2 Z M181.3,386.9 C178.9,386.9 177,388.8 177,391.2 C177,393.6 178.9,395.5 181.3,395.5 C183.6,395.5 185.6,393.6 185.6,391.2 C185.6,388.8 183.7,386.9 181.3,386.9 L181.3,386.9 Z M159.8,387.5 L163.3,400.3 L150.3,404 L146.3,391.7 L159.8,387.5 Z M206.9,387.7 C204.6,387.7 202.6,389.6 202.6,392 C202.6,394.4 204.5,396.3 206.9,396.3 C209.3,396.3 211.2,394.4 211.2,392 C211.2,389.6 209.3,387.7 206.9,387.7 L206.9,387.7 Z M181.3,388.4 C182.9,388.4 184.1,389.6 184.1,391.2 C184.1,392.7 182.8,394 181.3,394 C179.8,394 178.5,392.7 178.5,391.2 C178.5,389.7 179.8,388.4 181.3,388.4 L181.3,388.4 Z M206.9,389.1 C208.5,389.1 209.7,390.4 209.7,391.9 C209.7,393.4 208.4,394.7 206.9,394.7 C205.3,394.7 204.1,393.4 204.1,391.9 C204.1,390.4 205.4,389.1 206.9,389.1 L206.9,389.1 Z M252.5,389.2 C250.1,389.2 248.2,391.1 248.2,393.5 C248.2,395.8 250.1,397.8 252.5,397.8 C254.8,397.8 256.8,395.9 256.8,393.5 C256.8,391.1 254.9,389.2 252.5,389.2 L252.5,389.2 Z M229.5,390.4 L242.5,394.9 L237.3,407.1 L224.9,402.4 L229.5,390.4 Z M252.5,390.6 C254.1,390.6 255.3,391.8 255.3,393.4 C255.3,394.9 254,396.2 252.5,396.2 C250.9,396.2 249.7,394.9 249.7,393.4 C249.7,391.9 250.9,390.6 252.5,390.6 L252.5,390.6 Z M154.6,391.1 C152.2,391.1 150.3,393 150.3,395.4 C150.3,397.8 152.2,399.7 154.6,399.7 C157,399.7 158.9,397.8 158.9,395.4 C158.9,393 157,391.1 154.6,391.1 L154.6,391.1 Z M154.6,392.6 C156.2,392.6 157.4,393.8 157.4,395.4 C157.4,396.9 156.1,398.2 154.6,398.2 C153,398.2 151.8,396.9 151.8,395.4 C151.8,393.8 153.1,392.6 154.6,392.6 L154.6,392.6 Z M233.5,395.1 C231.2,395.1 229.2,397 229.2,399.4 C229.2,401.8 231.1,403.7 233.5,403.7 C235.9,403.7 237.8,401.8 237.8,399.4 C237.8,397 235.8,395.1 233.5,395.1 L233.5,395.1 Z M233.5,396.5 C235.1,396.5 236.3,397.7 236.3,399.3 C236.3,400.8 235,402.1 233.5,402.1 C231.9,402.1 230.7,400.8 230.7,399.3 C230.6,397.8 231.9,396.5 233.5,396.5 L233.5,396.5 Z M81.1,398 C84.5,398.1 87.1,401.2 87.2,404.4 C87.3,406.8 84.2,410 84.2,410 L80.6,406.7 L77.2,409.9 C76.6,410.1 73.9,405.5 74.8,403.2 C75.8,400.1 78,397.9 81.1,398 L81.1,398 Z M274.5,398 L284.8,406.4 C284.8,406.4 280.3,409.1 279.4,409.6 C279.5,409.2 279.6,408.8 279.6,408.4 C279.6,406.1 277.7,404.1 275.3,404.1 C273,404.1 271,406 271,408.4 C271,410.4 272.4,412.1 274.3,412.6 C273.2,413.2 271.8,414 271.8,414 L266.4,409.4 L274.5,398 Z M258.2,420.6 L253.6,422.5 C225.5,404.1 187.2,394 143.3,412.5 L141.8,408.9 C174.4,395.3 215.5,391 258.2,420.6 L258.2,420.6 Z M255.7,402.1 L266.7,408.9 L259.7,419.7 L248.9,412.8 L255.7,402.1 Z M252.4,423 L247.8,424.7 C213.5,402.7 177,403.9 144.4,417.1 L143.9,414 C182.3,397.4 220.8,402.7 252.4,423 L252.4,423 Z M275.3,405.7 C276.9,405.7 278.1,406.9 278.1,408.5 C278.1,410 276.8,411.3 275.3,411.3 C273.7,411.3 272.5,410 272.5,408.5 C272.5,407 273.8,405.7 275.3,405.7 L275.3,405.7 Z M76.1,410.8 L72.3,414.6 L75.8,418.5 C75.8,418.5 74.7,419.4 73.9,419.9 C69.3,422.4 64.4,418.5 64.6,414.2 C64.9,408.1 72.3,405.1 76.1,410.8 L76.1,410.8 Z M257.3,407.8 C255,407.8 253,409.7 253,412.1 C253,414.4 254.9,416.4 257.3,416.4 C259.7,416.4 261.6,414.5 261.6,412.1 C261.6,409.8 259.6,407.8 257.3,407.8 L257.3,407.8 Z M91.5,408 C94.9,408 97.5,410.6 97.8,413.6 C98.1,416 96.8,418.3 94.1,419.9 C90.5,422.1 86.2,418.5 86.3,418.3 L89.4,415.3 L85.7,411.5 C85.7,411.5 88.2,408 91.5,408 L91.5,408 Z M80.9,408.8 L87.2,415.1 L80.6,421.3 L74.5,415.1 L80.9,408.8 Z M246.4,425.4 L242.9,427 L238.1,424.1 L236.7,426.8 L239.4,428.5 L236.6,429.5 C204.6,411.5 168.4,416.7 144.4,428.7 C144.4,428.7 144.6,426.9 144.6,426.9 L147.2,425.6 L146.2,422.3 L144.8,422.7 L144.7,419 C179,403.5 217.9,407.1 246.4,425.4 L246.4,425.4 Z M257.3,409.3 C258.9,409.3 260.1,410.5 260.1,412.1 C260.1,413.6 258.8,414.9 257.3,414.9 C255.7,414.9 254.5,413.6 254.5,412.1 C254.5,410.6 255.7,409.3 257.3,409.3 L257.3,409.3 Z M80.7,411.6 L77.4,414.9 L80.7,418.4 L83.9,415 L80.7,411.6 Z M185.5,412.3 L181.1,412.5 L181.3,416.1 L185.6,416 L185.5,412.3 Z M188.5,412.3 L188.6,415.9 L192.6,415.9 L192.6,412.4 L188.5,412.3 Z M195.5,412.4 L195.3,416 L199.3,416.2 L199.6,412.7 L195.5,412.4 Z M178.5,412.8 L174,413.3 L174.5,416.9 L178.7,416.4 L178.5,412.8 Z M202.9,412.9 L202.6,416.6 L206.7,417.1 L207.3,413.6 L202.9,412.9 Z M80.8,412.9 L82.8,415 L80.9,416.9 L78.8,414.9 L80.8,412.9 Z M170.9,414 L166.6,414.7 L167.1,418.4 L171.3,417.6 L170.9,414 Z M210.2,414 L209.5,417.4 L213.5,418.4 L214.2,414.9 L210.2,414 Z M163.8,415.5 L160.2,416.5 L161,420.1 L164.9,419.2 L163.8,415.5 Z M217.1,415.6 L216.3,419.1 L220.4,420.2 L221.2,416.9 L217.1,415.6 Z M157.8,417.4 L154,418.8 L155,422.1 L158.9,420.8 L157.8,417.4 Z M224.2,417.7 L222.9,421 L226.5,422.4 L228.1,419.4 L224.2,417.7 Z M151.5,419.7 L147.9,421.2 L149.4,424.5 L152.8,422.9 L151.5,419.7 Z M77.1,419.8 L80.8,423.4 L85.1,419.5 C88.9,422.9 88.8,430.7 82.1,432 C76.2,433.2 70.9,424.4 77.1,419.8 L77.1,419.8 Z M230.7,420.5 L229.3,423.6 L233.2,425.3 L234.6,422.3 L230.7,420.5 Z M118.6,440.2 L168.2,524.5 L160.4,524.3 L112.4,442.8 L118.6,440.2 Z M110.4,443.4 L113.1,447.7 C107.7,443.4 99.8,447 100.2,452.4 C100.5,454.8 102.5,456.3 102.5,454 C102.3,451.6 105.7,449.5 108.2,449.6 C112.8,449.7 115.6,455.6 112.4,458.5 C110.3,460.4 107.5,460.3 108.4,457.7 C108.5,456.8 108.5,456.5 108,456.1 C106.7,454.9 104.2,456.5 104.8,458.2 C105.2,459.3 105.3,459.6 103.9,460.5 C98.6,464.2 102.3,471.5 108.7,468.2 C110,467.7 110.5,467.7 111.1,467.9 C113.8,468.9 115.6,466.6 113,465.4 C111.5,464.7 111.5,463.5 112.9,462.6 C115.9,460.6 120.6,463.7 120.6,467.7 C120.6,470.5 116.8,472.6 113.2,471.8 C111.1,471.3 110.8,472.8 112.8,474.3 C116.6,477.2 122.3,474.8 124,469.6 C124.5,468 124.5,467.6 124.5,467.6 L129.6,476 C129.6,476 128,475.3 127.1,475 C122.3,473.5 117,476.6 117,480.9 C117,482.9 118.2,483.7 118.8,482.1 C120.3,478.5 123.7,477.1 127.1,478.6 C130.3,480 131.7,483.2 130.5,486.1 C129.2,489.1 124.9,490 125.3,487.1 C125.5,485.8 124.7,484.9 123.3,485.1 C122.8,485.2 122,486.7 122.2,487.5 C122.4,488.2 122.3,488.4 120.4,489.8 C116,493.3 119.4,498.9 124.9,497.2 C125.8,496.9 126.2,497 127,497.4 C129,498.4 131.1,497.8 131.1,496.2 C131.1,495.1 130.6,494.7 129.4,494.7 C127.5,494.7 127.9,492.6 130,491.5 C135.3,488.9 140.6,495.5 137.4,500.7 C136,502.9 135.1,503.1 130.2,502.6 C129.4,502.5 129,503.1 129.5,503.7 C131,505.8 135.3,506.4 137.8,505.3 C140.5,504.1 142.2,501 142.4,497.6 L148,507.3 C143.7,502.8 136.2,504.5 135,511 C135,512.6 136.5,513.5 137,512.1 C139.2,506.3 147.8,508.1 147.8,514.4 C147.8,515.4 147.6,516 146.9,516.9 C145.3,519.9 141.3,520.7 142,518 C142.3,517.2 141.7,516.3 140.6,516 C139.5,515.8 138.8,516.6 138.8,518.3 C138.8,519.5 138.8,519.9 138.8,519.9 C136.8,520.7 135.5,522.4 135.1,524.8 L96.2,524.9 C100.8,498 99.7,473.6 90.9,450.6 C90.1,448.6 89,445.7 89,445.7 L95.9,445.9 C97.6,447.3 103.8,446.8 106.3,444.6 L110.4,443.4 Z M117,454 L121,461.2 C119.3,460.2 117.7,459.6 115.1,459.4 C116.4,457.4 116.6,455.6 117,454 L117,454 Z M106.5,461.7 C108,461.7 109.1,462.9 109.1,464.3 C109.1,465.8 107.9,466.9 106.5,466.9 C105,466.9 103.8,465.7 103.8,464.3 C103.8,462.9 105,461.7 106.5,461.7 L106.5,461.7 Z M134.1,483.2 L138,490.1 C136.1,489.3 134.5,488.5 131.6,488.4 C132.7,487.2 133.6,485.1 134.1,483.2 L134.1,483.2 Z M123,490.6 C124.4,490.6 125.5,491.7 125.5,493.1 C125.5,494.5 124.4,495.6 123,495.6 C121.6,495.6 120.5,494.5 120.5,493.1 C120.5,491.7 121.6,490.6 123,490.6 L123,490.6 Z M151,512 L156.7,522.1 C154.5,520.8 152,519.2 149,519.5 C150.5,516.5 151.3,514.8 151,512 L151,512 Z M143.4,524.7 L137.3,524.7 C138.5,519.3 143.5,520.7 143.4,524.7 L143.4,524.7 Z M149.2,522.1 C151.3,522.2 153.1,522.9 154.2,524.7 L146.5,524.7 C146.5,524.7 146.6,522.1 149.2,522.1 L149.2,522.1 Z" id="Shape" fill="#0E0C07" fill-rule="nonzero"></path>
        </g>
    </g>
</svg>