<?xml version="1.0" encoding="UTF-8"?>
<svg width="420px" height="586px" viewBox="0 0 420 586" version="1.1" xmlns="http://www.w3.org/2000/svg" xmlns:xlink="http://www.w3.org/1999/xlink">
    <!-- Generator: Sketch 61.2 (89653) - https://sketch.com -->
    <title>12S</title>
    <desc>Created with Sketch.</desc>
    <g id="Page-1" stroke="none" stroke-width="1" fill="none" fill-rule="evenodd">
        <g id="12S">
            <path d="M20.3,0.7 L399,0.7 C410,0.7 418.9,9.6 418.9,20.6 L418.9,565.4 C418.9,576.4 410,585.3 399,585.3 L20.3,585.3 C9.3,585.3 0.399165497,576.4 0.399165497,565.4 L0.399165497,20.7 C0.3,9.6 9.2,0.7 20.3,0.7 L20.3,0.7 Z" id="Path" fill="#FFFFFF" fill-rule="nonzero"></path>
            <path d="M20.3,0.7 L399,0.7 C410,0.7 418.9,9.6 418.9,20.6 L418.9,565.4 C418.9,576.4 410,585.3 399,585.3 L20.3,585.3 C9.3,585.3 0.399165497,576.4 0.399165497,565.4 L0.399165497,20.7 C0.3,9.6 9.2,0.7 20.3,0.7 L20.3,0.7 Z" id="Path" stroke="#000000" stroke-width="0.7974"></path>
            <path d="M191.9,534.4 L235.4,454.9 C235.4,454.9 245.9,458.9 258.3,462.1 C246.5,492.9 257.2,526.3 258.2,533.6 C259,539.8 191.9,534.4 191.9,534.4 L191.9,534.4 Z M72.2,398.6 C69.7,364.8 69.6,332.2 75.2,305.2 C75.3,304.8 59.7,295.7 61.3,294.7 C63.8,293.1 94.6,277 94.6,277 C94.6,277 96.7,278.2 98.5,278 C99.9,277.9 101.2,276.6 100.7,275.2 C99.4,272 97.1,264 98.5,255.9 C99.3,251.3 101.8,246.2 104.4,243 C110.2,236 123.5,239.7 127.3,239.6 C129.7,239.5 137.2,213.6 125.4,208.8 C122.2,207.5 114.7,225.1 119.9,229.1 C120.7,229.7 109.5,223.2 100.9,219.3 C100.1,218.9 96.6,216.2 95.8,212.7 C94.8,208.3 108.9,199.7 106.2,194.7 C102.2,187.4 91.7,176.5 87.3,179.5 C83.1,183.3 73,191.1 73.1,196.4 C76.3,206 84.2,206.6 88.4,215.7 C89.5,217.7 97.2,225.9 97.2,225.9 C94.3,230.3 99,238.1 99.2,236.9 L62.6,221 C62.6,221 71,284.1 62.1,293.5 C61.2,294.5 69.9,291 70.1,291.6 C72.8,295 102.3,313.8 110.8,320.5 C125.8,299.5 131.3,290.3 150.7,271.7 C154.9,268.2 164.4,261.8 169.8,254.1 C174.2,247.9 176,240.9 175.2,235.5 C174.2,228.5 173.6,223.7 169.2,218.1 C159.2,205.2 143.3,192.9 143.6,192.7 L149,188.3 C149,188.3 168.6,204.5 176.9,216.4 C182.5,224.4 180,233.6 184.8,235.3 C186,235.7 193.9,235 196.5,235.5 C196.8,235.6 254.1,276 243.8,278.3 C229.4,281.5 206.5,279.4 206.5,279.4 C190.1,263.4 182.2,258.1 172.4,263.2 C172.4,263.2 147.7,284.8 133.4,301.8 C125.3,311.5 118.5,323.5 113,331.3 C110.9,334.3 84.6,309.1 84.9,312.1 C88.8,339.6 91,372.7 88,395.1 C85.9,414.2 83.1,434.6 81.8,452.2 C81.8,452.2 86.2,450.9 89.6,452.1 C91.4,452.7 92.7,454.4 92.9,456.3 C93.9,464.7 83.1,462.7 82.8,462 C82.8,462 88.8,474.9 88.8,474.9 C88.8,474.9 79.5,491 79.7,490.3 C79.9,489.9 71.2,476 71.2,476 C71.2,476 77.8,464.4 78.6,462 C79.1,460.6 69.1,466.8 68.4,457.8 C67.6,448.7 79.3,451.1 78.7,452.3 C77.4,433.7 74.2,414.4 72.2,398.6 L72.2,398.6 Z M209.4,439.3 C193.6,432.7 174.4,435.1 161.3,430.8 C156,428.1 149.4,427.2 144.3,427.7 C136,428.6 132.9,433.1 132.9,433.1 L107.6,409.5 C107.6,409.5 116.5,329.8 129.8,313.7 C134,308.6 147.7,308.2 149.1,325.4 C149.6,332.1 168.5,345.2 187.3,362.5 C211.2,384.5 241.7,408.5 243.7,409.8 C244.8,410.5 214.2,437.2 213.7,438 C212.2,440.3 212.3,440.4 209.4,439.3 L209.4,439.3 Z M270.2,261 C240.1,230.4 177.2,175.6 177.2,175.6 L206.6,146.9 C222.1,151.5 237.9,155.4 255.9,155.5 C256,155.6 275.6,164.4 286,155.5 L313.2,177 C313.2,177 301.9,236.3 295.3,257 C295.4,265.2 291.9,275.7 283.7,276.3 C277,276.8 272.2,268 270.2,261 L270.2,261 Z M331,190.1 C334.1,170.8 334.8,156.8 337,134.3 C323.1,138 323.4,119.9 336.9,124.8 L330.7,111.2 L339.8,95.9 L348.2,110.4 L341,123.3 C356,124 352.4,138 339.5,134.6 C341.9,156.1 347.3,177.9 347,199.2 C351.8,233.4 344.2,282.4 343,282 L357.6,292.1 L355.1,366.4 L332,356.3 L325.1,360.9 C327.3,365.3 330.1,369.5 331.1,374.2 C331.1,374.2 347,387.3 344.8,391.4 C345.8,392 333.5,408.4 329.8,407.9 C322.9,407.1 314.8,398.2 312.5,391.8 C310.5,385.4 326.8,379.1 324.7,374.4 C322.3,368.8 316.1,366.1 310.6,364.5 C303,362.2 299.6,356.2 299.2,356.2 C299.2,356.2 296.3,379.9 293.4,378.1 C282,370.5 289.8,346.2 291.9,346.9 C291.9,346.9 296.9,348 302.7,348.6 C323.4,350.8 322,325.3 318,313 C317,310.1 318.6,310.1 318.4,310 C317.4,309.7 321.8,309.9 325.4,308.8 C335.5,305.8 350.9,295.6 350.9,295.6 C350.9,295.6 342.4,290.3 337.9,287.6 C325.7,280.2 307.2,267.3 307.2,267.3 C307.2,267.3 295.6,287.1 281.5,301.1 C271.2,311.4 259.3,324.1 252.4,328 C252,328.2 239.4,343.4 245.4,361.1 C250.6,376.3 275.4,392.6 275.2,393.7 L270.3,398.4 C269.2,398.4 239.7,375.3 237.4,362.1 C236.8,358.9 229.8,358.2 220.9,351.4 C204,338.7 178.6,317.3 174.7,308.8 C173.9,307 176,307.5 180.1,307.4 C190.5,307.2 212.7,308 212.7,308 L233,324.5 L245.7,325.2 C246.5,325.9 247,321.9 258.1,313.5 C279.4,297.6 305.8,256.8 305.8,256.8 C305.8,256.8 333.7,276.4 333.7,276.4 C331.6,247.8 327.7,215.7 331,190.1 L331,190.1 Z M229.3,50.8 C229.3,50.8 200.3,105.3 184.4,130.9 L161.9,124.4 C171.3,99.4 162.3,51.6 159.9,50.4 L229.3,50.8 Z" id="Shape" fill="#E2CF00" fill-rule="nonzero"></path>
            <path d="M56.3,47.6 L58,538.1 L362.5,537.9 L361.6,47.6 L56.3,47.6 Z M267.9,403 C282.3,389.6 296.6,378.5 310,370.4 C315.2,367.3 316.8,366.8 318.8,368.7 C322.1,371.7 324.2,374.3 323.1,376.5 C322.9,377 322.1,377.8 322.1,377.8 L314.1,374.8 L316.7,383.9 C309.5,386.8 309.6,394.6 316.6,398.7 L311.8,409.7 L322.9,404.8 C323.3,407.2 331.2,413 336.1,404.8 L346.1,409.7 L342.6,397.4 C345.9,394.3 347.8,389.3 342.6,384.7 L345,375.1 L336,378 C333.7,374.9 332.4,375.1 331.9,374.3 C331.7,373.2 331.7,370.5 330.2,368 C329,365.9 327.5,363.8 326.2,362.2 C325.5,361 326.1,360.9 329.7,359 C331.4,358.1 332.8,357.2 332.8,357.2 C332.8,357.2 350.6,366.1 357.9,369.5 L358.3,533.8 L260.7,533.5 C249.7,500.7 257.6,472.4 260.5,460.5 C255.4,460.1 229,451.5 228.2,448.6 C238.7,431.9 252.9,416.8 267.9,403 L267.9,403 Z M78,450.8 C65.3,446.7 65.1,462 71.6,463.2 C73.3,463.5 75,463.8 77.7,462.9 C78.4,463 70.1,475.7 70.1,475.7 C70.1,475.7 76.7,487.7 79.9,492.9 L89.9,475.1 L83.3,462.8 C93.6,468 98.9,452.5 88.1,450.4 C85.5,450 82.6,451.3 82.6,451.3 L88.3,398 C92.9,401.1 101.2,407.3 101.2,407.3 C103.1,436.6 101.7,461.1 118.1,503.8 L118.3,533.5 L62,533.5 L61.8,378.4 L71.7,385.5 C71.9,386.4 70.1,385.8 71.1,396.6 C71.9,406.5 74.9,423.4 78,450.8 L78,450.8 Z M280.3,52.2 C280.7,52.8 280.7,53.8 281.1,55.1 C283.4,62.7 291.3,71.8 297.6,74.2 C299.8,75 300.7,76.3 299.4,77.6 C297.8,79.2 291.1,74.8 286.2,69.1 C281.7,63.9 278.8,59.6 278.1,56.3 C277.7,54.4 277.5,53.1 277.8,52.1 C278.6,51 279.6,51.3 280.3,52.2 L280.3,52.2 Z M288.1,51.3 C288.9,51.3 290.1,52.3 290.7,54.1 C292.3,58.4 294.9,61.6 298.8,64.4 C299.9,65.1 300.3,66.2 299.7,66.9 C299.5,67.1 299.2,67.3 298.9,67.3 C295.8,68.2 287.6,58.7 287,52.9 C287.1,51.6 287.5,51.3 288.1,51.3 L288.1,51.3 Z M298.3,51.5 C299.9,51.5 300.7,54.9 299.8,56.7 C299.2,57.3 297.8,56.4 296.6,54.1 C295.5,52.2 296,51.5 298.3,51.5 L298.3,51.5 Z M292.8,51.5 C293.2,51.5 293.9,51.3 294.3,51.8 C294.9,55.4 297.6,57.9 299.8,60 C300.2,60.7 300.3,62.1 299.5,62.5 C297.6,63.3 292,56.9 291.9,53.2 C291.9,52.1 292.3,51.5 292.8,51.5 L292.8,51.5 Z M285.6,53.8 C287.6,60.3 292.4,65.6 296.7,68.3 C299.8,70.3 301,71.4 299.5,72.4 C299.2,72.6 298.8,72.8 298.7,72.8 C291.5,70.1 282.7,59.7 282.4,52.3 C284,50.3 285.4,52.5 285.6,53.8 L285.6,53.8 Z M260.8,81.9 C257,81.9 252.4,82.8 248.6,84.5 C243.4,86.9 242.1,88.4 242.8,89 C243.3,89.4 246.7,88 248.4,87.7 C257.5,85.4 263.8,84.9 269.7,87.5 C274.3,89.5 274.3,88.6 271.2,85.2 C269,82.9 265,81.9 260.8,81.9 L260.8,81.9 Z M292.9,86.9 C295.9,86.9 299,87.6 300.1,89 C301,93.5 298.7,91.5 296.8,90.6 C294.2,89.4 291.1,88.3 288.3,88.8 C286.5,89.1 286.4,89 287.5,88.4 C289,87.4 291.2,86.9 292.9,86.9 L292.9,86.9 Z M257.2,88.7 C248.6,89.4 245.6,93.7 240.1,98.2 C237.8,99.9 238.3,101.3 241.1,100.8 C244.5,100.2 245.9,100.4 250.6,102 C255.7,103.7 259.4,104.5 262.2,103.4 C267.5,101.4 267.1,101.7 259.5,109.1 C255.4,112.4 257.1,112.2 261.2,109.4 C264.2,107 266.3,105.4 267,104.1 C267.3,103.4 267.3,101.1 267.9,101.1 C269.8,101.1 268.8,98.7 267.1,97.7 C265.9,96.9 266.2,96 267.7,94.4 C270.1,91.9 269.3,90.8 266.7,92.4 C266.3,92.6 266,91.9 264.5,90.9 C261.9,89.4 259.8,88.7 257.2,88.7 L257.2,88.7 Z M263.4,91.9 C265.5,93.6 264.6,94.1 260,94.1 C256.2,94.1 252.9,94.5 248.3,96 C243.1,97.7 242.8,97.8 245.8,95.2 C250.1,91.6 258.6,88 263.4,91.9 L263.4,91.9 Z M290.3,90.4 C292.4,90.4 294.1,90.6 295.7,91.5 C300,93.9 301,96 296.2,94.3 C293.2,93.2 289.1,93.4 286.3,94.2 C283.4,95 282.9,95.3 283.3,93.7 C283.7,91.8 286.8,90.5 290.3,90.4 L290.3,90.4 Z M256.2,97.5 C257.2,102.7 261.1,101 261.5,97.9 L262.9,97.9 C262.3,102 256.7,105.5 254.5,97.5 C254.9,97.5 257,97.6 256.2,97.5 L256.2,97.5 Z M287.3,97.6 L288.4,97.6 C289.1,101.5 292.8,102.8 294.4,97.9 L295.7,97.9 C294.7,106.1 285.9,102.1 287.3,97.6 L287.3,97.6 Z M253.2,97.9 C253.9,98.1 254.2,100.1 254.1,100.6 C253.9,101.7 250.4,100.5 249.7,99.5 C250.4,98.8 252.1,97.6 253.2,97.9 L253.2,97.9 Z M300.1,98.8 L300.1,100.2 C298.5,100.6 297.8,101.5 296.4,101.2 C296.5,100.3 296.3,99 297.2,97.9 C298.2,97.4 299.5,98.1 300.1,98.8 L300.1,98.8 Z M265.3,100.5 C264.6,101.1 263.6,101.1 263.6,101.1 C263.4,99.7 263.2,98.2 264.9,98.2 C266.1,98.5 266,99.9 265.3,100.5 L265.3,100.5 Z M285.2,98.2 C285.8,98.2 286.5,99.7 286.6,100.6 C286.4,102 282.9,101.5 282.9,100 C282.9,99.4 284.4,98.2 285.2,98.2 L285.2,98.2 Z M252.8,152.8 C250.1,151.4 229.3,138.8 224,116.5 L222.9,118.8 C225.2,124.1 228.5,132.8 228.5,132.8 C228.4,132 229.4,138.6 231.5,149.7 C230.4,149.7 229.1,149.4 227.9,149.1 C225.2,138.9 224.5,130.9 222.2,120.9 L221.2,123.7 C221.2,123.7 224.1,141.6 226.1,148.6 C225,148.5 222.9,148 222.9,148 C221.3,140.4 220,135.4 218.5,127.8 L217.1,129.6 C219.1,135.8 219.9,141.4 220.9,147.3 C219.5,147.1 218.1,147 216.8,146.2 C216.8,146.2 214.7,135.3 214.4,135.2 C213.6,136 213.3,137 213.3,137 C213.2,136.9 215.1,143 215,145.5 C213.7,145.3 211.4,144.6 209.7,144.1 C208.8,144.7 208.4,145.6 207.7,146.5 C208.5,150 256.1,157.4 253.3,154.6 C253.3,154.9 274.3,163.8 286,156.2 C286,156.2 306.4,171.3 314.4,177.4 C314.4,178.1 317.2,181.3 320,183.3 L328.1,189.5 C330.5,191.3 331.4,190 331.7,186.6 C332.1,182.8 334.9,157 335.5,151.5 C337.9,133 337.9,133.2 335.1,134 C330.8,135.3 326.9,133.6 326.9,129.2 C326.9,126.5 328.1,124.3 331,123.2 C331.8,122.9 332.9,122.9 334.1,122.9 C334.6,123 335.7,123.1 335.8,123.1 C337.2,123 330.5,110.9 330.5,110.9 C330.5,110.9 336.9,99.5 339.9,95.3 L348.2,110.3 L341.4,123.5 C354.6,122.5 353.3,139.1 340.4,133.5 C340.4,133.5 340.3,138.4 340.3,138.1 C340.4,136.7 340.4,135.5 340.8,135.2 C353.3,139.9 355.8,121.7 342.4,122.6 C344.6,118.7 347.1,114.8 349.4,110.5 L339.7,92.8 L328.7,111.1 L334.2,122.5 C333,122.2 332,122.4 330.6,122.5 C322.5,124.2 324.2,137.3 333.5,135.5 C334.6,135.3 336.2,134.5 336.2,134.5 L330.2,188 C330.2,188 329.6,188.5 327.2,186.7 C324.4,184.7 318.6,180.3 318.2,179.9 C320.3,145.7 311.7,109.7 302,87.2 C301.4,85.5 301.7,51.5 301.7,51.5 L357.1,51.6 L357.3,209.2 C354.4,207.4 351.3,205 348.3,202.9 C347.4,202.2 346.9,201.3 347.2,199.9 C346.2,202 346.8,202.9 346.8,202.9 L359,212.7 L358.8,368 C358.8,368 339,357.8 326.9,352.9 C321.4,350.7 321.2,351.3 321.2,351.3 C321.2,351.3 325.1,360 324,361.6 C326.6,364.1 331,369.4 331.2,374.5 C333.5,376.5 334.2,376.8 336,379.7 L343.3,377.1 L341.6,384.7 C349.4,390.2 341.9,397.5 340.4,396.8 C340.4,396.8 343.8,404.2 344.6,407.5 C343.4,407.4 337.2,404.1 335.5,403.3 C331,412.1 323.5,404.7 323.4,403.4 L315,407.1 L318,397.5 C312.6,394.2 309,389.3 317.7,383.9 L315.7,376.4 L322.9,379.2 C322.9,379.2 324.2,377.1 325.3,375.5 C322.6,363.8 304.9,366 299.3,355.5 C299.3,355.5 297.9,368.6 296.5,373.4 C295.9,386 287.1,373.3 287.1,360 C287.1,357 290.9,346.9 292.2,346.4 C293.5,346.2 306.1,352.3 314.6,346.3 C318.5,342.3 325.1,331 318.7,313.3 C316.6,309.2 322.7,308.7 324.7,310.1 C324.7,310.1 343.1,300.5 351.5,295.8 C337.5,288.1 308.5,267.7 308.5,266.8 C304.6,272.9 300.2,278.1 294,286.8 C283.9,298.7 276,310 263.2,319.5 C245.2,332.6 240.9,345.8 246,361.4 C248,368.1 252.1,374.9 258.8,377.3 C262.2,380.7 275.9,393.7 275.9,393.7 C253,414.5 237.3,431.7 226.2,450.6 C235.5,455.5 258,462.6 258,462.6 C249.7,490.3 253.5,512.3 259,534.402367 C259,534.402367 193.8,534.5 160,533.4 C159.7,533.7 156.1,533.5 156,533.3 C155.9,530.8 162.1,524 164,525 C165.1,524.3 167.3,524.2 166.6,522.5 C161.9,521.9 154.9,530 154.6,533.3 L151.8,533.3 C151.2,532.8 156.8,519.7 168.1,518.6 C167.7,518.7 171.3,516.2 168.4,516.9 C155.3,518.5 149.2,533 149.5,533.2 L147.5,533.2 C152,518.9 163.6,514.4 170.3,513.7 C170.4,514 172.5,514.2 171.9,511.7 C157,514.3 149.6,520.7 146,533.2 L143.3,533.2 C145.2,520.5 158.2,509.5 173,509.8 C173.6,510.1 175.7,510.9 173.8,507.7 C157.5,509.5 149.3,515 142.6,529 C136.6,513.4 119.9,506 119.7,506 C119.7,506 119.3,501.6 120.2,501.8 C134.4,507 139.8,494.6 139.3,487.4 C139,483.4 139.2,481.2 137.9,475.4 C136.7,470.3 135.8,466.8 135.9,464.6 C136,462.4 136.7,461.9 138.3,461.2 C141.3,459.8 143.3,454.8 142.6,454.2 C141,457.8 136.9,458.5 135,460.9 C133.5,462.9 134.1,466.1 136.9,477.2 C138.6,484 136.6,480.9 132.7,478.7 L130.1,477.2 C131.8,479 133.7,480.7 135.4,482.4 C137,483.8 136.1,484.7 133.8,483.9 C130.5,482.3 124.3,483 121.9,485 C121,485.7 120.6,485.6 120.4,485 C119.3,467.7 121.2,457.1 126.9,444.1 C130.6,435.3 136.1,428.7 143.5,428.2 C150.9,427.6 161.6,430.2 171.3,436.8 C182.7,444.5 193.7,456.3 194.9,470.7 C194.9,470.9 195.8,469.5 196.2,468.7 C196.7,467 194.8,461.8 191.9,455.9 C191.3,451.4 189.8,443.6 188.6,438.2 C189.5,437.8 191.5,438 192,438.7 C194.1,447.5 195.6,454.3 197.4,466.1 C197.4,467.2 198.9,464.4 198.9,463.6 C198.6,461.8 193.7,438.8 193.8,439.3 C193.8,438.5 198.5,439.5 197.8,440.3 C197.8,440.3 201.3,459.6 201.6,459 L202.8,457.4 C202.8,457.4 199.4,443.3 199.9,440.5 C200.2,440.1 202.8,440.9 203.6,441.4 C204.6,442.8 205.3,447.8 205.7,451.3 C206.9,452.2 207.1,449.6 207,448.9 C206.1,447.5 205.2,442.4 205.9,442.2 C206.4,442 209.4,443.2 210,443.7 C210.7,444.3 213.3,440.7 212.6,440.1 C198.5,434.7 180.8,431.6 167.4,431.4 C164.3,431.4 163.1,431 158.3,429.3 C146.2,424.9 136.1,429.3 134.7,430.7 C119.9,420.4 103.4,406 90.2,396.9 C89.6,396.5 88.1,396.3 87.9,396.3 C85.8,412.3 84.3,430.7 82.6,445.5 C81.9,451.3 81.8,451.8 82.1,452 C82.3,452.1 82.8,451.9 83,451.8 C87.3,450.2 91.2,451.2 93.3,455.2 C94.3,460.8 89.5,464.5 84.3,461.8 C82.4,460.8 82.1,461 83,462.9 C84.5,466.3 88.9,475.1 88.9,475.1 C88.9,475.1 83,487.1 80,490.4 C77.1,485.7 73.4,481 71.8,475.9 C74.1,471.4 78.4,465.7 79.7,461.3 C79.5,461.2 78.3,461.3 77.5,461.7 C70,465.3 68.8,458.6 68.9,456.2 C69.1,451.3 73.4,450.3 79.6,452.5 C72.9,408 71.5,382.6 73.2,385.4 C73.2,385.4 65.1,379.6 61.1,375.7 L60.4,51.5 L157.2,51.6 C167.1,78.1 164.4,109.9 158.5,126.4 C169,128.3 179.6,130.8 191.5,137.7 C171.3,167.3 139.6,199.3 105.3,219.8 C103.4,220.7 97,216.7 96.2,212.8 C96,211.9 96.5,210.1 97.6,210.1 C100.1,210.9 102.6,212 105,213 C105,213 101.6,204.4 103.2,203.1 C104.3,202.4 105.2,201.8 105.9,201.1 C108.4,197.9 108.2,194.3 105.6,191.5 C104.5,190.4 103.3,189.6 102.7,189.4 C102.7,189.4 105.1,182.7 106.3,179.5 L96.8,182.6 C93.7,178.3 88,175 83.8,181.4 C83,183.1 83.2,182.8 77.3,180.2 C74,178.7 71.9,178 71.9,178 C73.2,181.7 74.8,185.2 76.2,189.6 C69.6,193.8 71.1,200.8 76.7,203 L73.8,212.5 C73.8,212.5 80,210.2 83.4,209.3 C83.4,209.3 86.4,212.3 87.2,215.1 C88.7,219.9 92.1,223.4 94.3,225.4 C90.7,228 88.9,228.9 84.9,230.9 L98.9,236.5 C98,233.5 96.2,231.4 96,227.6 C95.8,224.4 95.7,224.3 93.6,222.2 C90.2,219.3 89.7,215.4 87.8,212.2 C86.5,211.4 85.4,209.8 84.4,208 C82.3,208.2 77.5,210.6 76.6,209.7 C75.5,208.5 78.5,202.4 78.2,201.8 C75.7,201.6 68.9,196.2 77.1,190.3 L74.5,180.6 C74.5,180.6 80.7,183.3 83.7,184.8 C85.8,175.1 95.2,179.8 96.7,183.9 C96.7,183.9 104.2,181.4 103.7,183.4 C103.5,185.2 102.3,189.7 102.3,189.7 C109,195.7 107.6,198.6 102.2,202.5 C102.1,205.7 103.4,210.6 103.4,210.6 C103.4,210.6 99.6,208.9 97.1,208.2 C96.1,209.2 95,211 95.1,212 C96.8,219.5 106.1,221.6 119.9,229.3 C120.4,224.4 123.7,217.8 124.1,211.9 C124.3,207.6 124.5,207.6 127.5,208.9 C135.4,214.6 133,230.3 130.1,236.7 C128.4,240.3 128.1,240.2 124.8,239.2 C120.2,237.7 112.1,238.3 107.7,239.8 C101.5,242.3 98.6,256.1 98.6,260.3 C98.5,264.3 98.8,268.2 100.9,273.1 C101.8,276.2 100.2,278.7 97.3,277.8 C96.7,277.6 95.1,277 95.1,277 L68.5,290.8 L73.5,293.7 C73.5,293.7 69.8,291.5 72.1,290.3 L94.9,278.4 C99.1,280.1 98.6,280.4 101.3,277.5 C102.9,275.8 103.8,275.8 106,276 C119.5,277.3 125.4,275.3 127.7,269.7 C128,268.9 127.9,268.9 129.3,268.2 C131.8,267.2 133,265.4 133.2,263.2 C133.3,261.7 133.9,261.5 135,260.5 C137.1,258.6 137.5,256.2 136.2,253.7 C135.6,252.5 135.1,252.2 135.4,251 C135.8,249 135.1,246.9 133.1,244.6 C130.9,242 130.9,242.5 135.1,238.5 C143.4,230.6 150.7,224.6 158.7,217.5 C164.2,212.6 163.6,213 165.8,215.2 C173.7,223.4 176.8,236.2 173.2,247.5 C173,248 173,248 173.4,247.5 C175.6,245 175.7,232.2 173.8,226.6 C171.5,219.7 169.2,216 161.5,209.2 C156.7,204.9 143.6,192.3 143.6,192.3 C162.6,175.8 183.1,155.3 194.6,136.4 C188.7,130.1 161.4,124.2 161.4,124.2 C164.8,117.1 171.5,85.4 160,50.3 L258.2,51.4 L261.7,51.6 C261.7,51.6 262.2,51.4 262.5,51.3 C263.4,51.1 263.9,51.7 263.7,52.8 C263,55.5 259,61.8 256.3,61.2 C255.1,60.7 255.4,63.1 254.9,64.1 C259.3,63.5 264.4,58 265.7,52.5 C266.4,51.3 266.9,51.2 267.6,51.4 C268.4,51.7 268.2,52.4 267.3,55.1 C264.6,61.8 259,67.9 252.5,67.3 L251.7,69.6 C260.4,69.5 267.2,61.3 269.2,55.2 C270.6,51.6 270.6,51.1 272,51.4 C273.2,52.5 272.4,54 272,55.3 C267.6,69.3 255.6,73.1 249.6,72.4 C250.3,69.4 248,72.5 249,74.1 C261.9,75 272.1,63.8 273.6,54.3 C274.3,51.7 275.5,50.8 276.2,52 C276.6,53.1 276.5,54.2 276.3,55.2 C272.8,70.2 256.8,78.8 247,76.3 C246.2,75.7 242.8,77.4 246.9,78.7 C266.7,78 272.8,67.8 277.3,58.7 C282.7,66.8 287.1,75.2 300,80.1 C300,80.1 301.3,82.9 300.3,83.6 C299.8,83.9 298.9,83.8 297.8,83.6 C282.1,81.1 276.9,95.7 283.6,117.7 C285.4,123.7 284.6,122.8 280.7,126.5 C278.8,128.3 277.9,131.5 278.4,131.5 C279.1,131.1 279.3,130.1 280.9,128.7 C281.6,128.1 283.1,127.5 284.2,126.8 C287.1,125.1 287.1,124 286,120 C285.2,117 283.3,108 283.3,107.1 C283.3,105.4 283.7,105.5 285.9,107.1 C288.9,109.3 290.6,109.2 287,106.3 C285.6,105.2 284.7,104.3 284.2,103.7 C283.6,102.8 284,102.3 285.2,102.7 C290.6,104.4 295.3,104.3 300.5,101.1 C301.1,115.6 299.1,137.5 287,153.2 C277.1,163.9 259.3,156 252.8,152.8 L252.8,152.8 Z M267,119.5 C266.6,119.5 265.3,119.8 264.5,120.2 C260.9,122.2 261.8,129.5 265.7,130.5 C267.3,130.9 268.7,131.1 271.3,129.9 C272.9,129.1 275.1,128.6 275.7,128.8 C277,129.3 277.4,128.2 277.7,126.9 C278.3,124 273.6,124 269.8,126.9 C265,130.7 261.4,125.1 265.9,120.9 C267.4,120 267.4,119.5 267,119.5 L267,119.5 Z M230.1,135 L234.1,139.6 L236.6,150.6 C235.1,150.9 233.2,150 233.2,150 C232,145.1 230.8,140.1 230.1,135 L230.1,135 Z M284.4,137.8 C284.4,137.8 284.3,137.8 284.3,137.8 C284.1,137.9 283.4,138.2 282.4,138.3 C281.8,138.4 280.9,137.9 280.3,138 C278.6,138.1 276.9,138.6 276.5,138.8 C276,139 275.4,139.1 275,138.8 C273.7,138 269.9,138.3 268.7,138.9 C267.3,139.5 265.8,139.5 264.7,138.9 C264.2,138.7 263.7,138 263.6,138.1 C263.4,138.3 262.7,141.4 262.5,142.6 C262.5,143 262.2,143.7 262.4,143.8 C262.6,143.9 263.3,143.2 264.2,142.8 C266,141.9 268,141.9 271.6,142.8 C276,143.9 277.7,143.6 280.3,142.2 C282.4,141.1 283.6,140.9 285,141.3 C285.3,141.4 286.2,141.9 286.4,141.7 C286.6,141.5 286,140.2 285.4,138.9 C284.9,138.1 284.7,137.7 284.4,137.8 L284.4,137.8 Z M237.1,142.7 C241,146.4 240.7,146 243.1,147.8 L243,151.3 C243,151.3 240,151.4 238.5,150.9 C238,149.6 236,142.8 237.1,142.7 L237.1,142.7 Z M268.8,145.1 C269.1,145.3 269.4,145.5 270,145.6 C276.1,147.9 269.7,147.3 269.1,149.5 C269.1,149.7 269.4,149.7 269.7,149.6 C271.8,148.8 277,148.2 279.3,148.7 C282.3,149.7 282.5,149 279.6,147.5 C277.5,146.7 280.1,146.1 280.9,145.3 C282.7,144.1 281.5,143.7 279.2,144.8 C276.9,145.9 272.8,145.9 270.9,144.8 C270.1,144.4 269.3,144 268.9,144 C268,144 268.4,144.9 268.8,145.1 L268.8,145.1 Z M244.6,149 L248.2,151.8 L244.5,151.4 L244.6,149 Z M163.2,219.6 C162.5,219.6 161.9,220.2 161.9,220.9 C161.9,221.6 162.5,222.2 163.2,222.2 C163.9,222.2 164.5,221.6 164.5,220.9 C164.6,220.2 164,219.6 163.2,219.6 L163.2,219.6 Z M168,221 L151.5,228.8 L155.8,230.3 L155.8,234.8 L159.8,233.5 L161.5,237.7 L168,221 Z M168.8,224.6 C168.1,224.6 167.5,225.2 167.5,225.9 C167.5,226.6 168.1,227.2 168.8,227.2 C169.5,227.2 170.1,226.6 170.1,225.9 C170.1,225.2 169.5,224.6 168.8,224.6 L168.8,224.6 Z M147.9,232.6 C147.2,232.6 146.6,233.2 146.6,233.9 C146.6,234.6 147.2,235.2 147.9,235.2 C148.6,235.2 149.2,234.6 149.2,233.9 C149.2,233.2 148.6,232.6 147.9,232.6 L147.9,232.6 Z M152.9,235.1 L134.4,243.6 L139.9,245.3 L138.5,250.9 L143,249 L145.5,252.8 L152.9,235.1 Z M153.5,239.1 C152.8,239.1 152.2,239.7 152.2,240.4 C152.2,241.1 152.8,241.7 153.5,241.7 C154.2,241.7 154.8,241.1 154.8,240.4 C154.8,239.7 154.2,239.1 153.5,239.1 L153.5,239.1 Z M116.8,240 C123.8,240 131.6,242.6 134.2,248.6 C134.9,251.6 132,253.4 125.7,251.6 C115.4,248.8 113.4,248.4 115.2,250.2 C115.4,250.4 115.9,251 117.4,251.5 C121.3,252.8 128.8,254.4 130.8,254.2 C133.6,253.8 135.5,255.1 134.8,257.4 C134,260 130.4,261.1 125,260.3 C119.4,259.5 116.3,258.9 114.4,258.3 C112,257.6 111.9,257.6 113.1,259.3 C113.7,260.2 113.7,260.9 114.6,261 C118.3,260.8 122.2,261.5 125.7,261.8 C131.8,262.3 132.8,264.1 128.3,266.7 C126.2,268 119.8,267.6 116.2,266.3 C113.6,265.4 107.7,264 110,265.8 C110.5,266.2 110.4,267.3 111.3,267.6 C114.4,268 123.3,268.7 124.7,269.9 C125.6,270.7 123.6,272.8 119.4,273.8 C113.2,275 103.9,274.5 101.4,272.8 C96.8,263.5 99.3,248.4 106.4,242.4 C108.7,241 112.6,240 116.8,240 L116.8,240 Z M157.6,244.8 C156.9,244.8 156.3,245.4 156.3,246.1 C156.3,246.8 156.9,247.4 157.6,247.4 C158.3,247.4 158.9,246.8 158.9,246.1 C158.9,245.4 158.3,244.8 157.6,244.8 L157.6,244.8 Z M163.1,246.2 L144,255.7 L148.8,257.1 L147.7,262.7 L152.2,260.9 L154.9,264.6 L163.1,246.2 Z M163.2,250.9 C162.5,250.9 161.9,251.5 161.9,252.2 C161.9,252.9 162.5,253.5 163.2,253.5 C163.9,253.5 164.5,252.9 164.5,252.2 C164.5,251.5 163.9,250.9 163.2,250.9 L163.2,250.9 Z M174.3,262.1 C165.8,270.3 156.3,276.9 147.6,284.9 L149.5,284.8 L154.3,280.5 L288.1,280.1 L285,284.7 L286.3,285.3 C286.3,285.3 290.3,279.4 290,279.1 C260.6,279.2 237.9,279.1 205.7,279.3 C199.8,273.5 193.6,268 187.5,262.5 L174.3,262.1 Z M133.6,267.4 C132.9,267.4 132.3,268 132.3,268.7 C132.3,269.4 132.9,270 133.6,270 C134.3,270 134.9,269.4 134.9,268.7 C134.9,268 134.4,267.4 133.6,267.4 L133.6,267.4 Z M308.3,268.4 C319.9,277 333.6,287.5 344.9,293.7 C349.4,295.7 349,296.3 344.4,298.5 C339.9,301.3 332.3,305 326,308.2 C323.3,309.2 322.1,307.9 320.1,308.2 C318.7,308.6 318.3,308.8 317.5,309.9 C316.1,311.7 316.5,311.6 309.2,311.3 C301.8,311 298.8,311.1 297.2,311.9 C295.7,312.7 293.1,315.3 293.1,316.4 C293.1,317.4 292.3,318.8 290.7,319.3 C288.9,319.7 286.9,321.1 287,323.3 C286.5,324.9 285.5,325.7 284.6,326.6 C282.5,328.7 282.7,330.4 283.3,332.4 C283.6,333.3 284,333.1 283.8,335.7 C283.3,341.7 282.9,341.2 289.3,345.6 L256.6,374.1 C255.8,374.7 255.6,374.6 254.9,374.2 C250.9,371.2 248.1,366.4 246.5,361.5 C241,346.3 247.7,333.8 256.7,326.2 C259.8,323.5 264,320.4 265.1,319.6 C282.1,305.1 296.8,284.8 308.3,268.4 L308.3,268.4 Z M138.5,269.5 L119.8,278.3 L125.8,279.3 L124.7,284.5 L129.1,282.9 L131.4,287.3 L138.5,269.5 Z M139.7,273.6 C139,273.6 138.4,274.2 138.4,274.9 C138.4,275.6 139,276.2 139.7,276.2 C140.4,276.2 141,275.6 141,274.9 C141,274.2 140.4,273.6 139.7,273.6 L139.7,273.6 Z M310.8,279.4 L308.7,274.4 C308.7,274.4 302.8,288.9 301.6,293.9 C306.6,291.3 321.2,283.9 321.2,283.9 L314.9,282.7 L315.6,277 L310.8,279.4 Z M97.5,280.3 C96.8,280.3 96.2,280.9 96.2,281.6 C96.2,282.3 96.8,282.9 97.5,282.9 C98.2,282.9 98.8,282.3 98.8,281.6 C98.8,280.9 98.2,280.3 97.5,280.3 L97.5,280.3 Z M103.2,281.5 C103.2,281.5 89.3,288 83,290.8 L88.8,292 L87.8,297.7 L93.1,295.6 L95.2,301.2 L103.2,281.5 Z M103.9,285.8 C103.2,285.8 102.6,286.4 102.6,287.1 C102.6,287.8 103.2,288.4 103.9,288.4 C104.6,288.4 105.2,287.8 105.2,287.1 C105.2,286.4 104.7,285.8 103.9,285.8 L103.9,285.8 Z M300.6,286.7 C299.9,286.7 299.3,287.3 299.3,288 C299.3,288.7 299.9,289.3 300.6,289.3 C301.3,289.3 301.9,288.7 301.9,288 C301.9,287.3 301.3,286.7 300.6,286.7 L300.6,286.7 Z M323.3,287.9 L316.7,306.3 L334.6,297.3 L329.7,296 L329.7,291.4 L325.7,292.6 L323.3,287.9 Z M111.9,292.4 C111.2,292.4 110.6,293 110.6,293.7 C110.6,294.4 111.2,295 111.9,295 C112.6,295 113.2,294.4 113.2,293.7 C113.2,292.9 112.6,292.4 111.9,292.4 L111.9,292.4 Z M307.5,292.7 C306.8,292.7 306.2,293.3 306.2,294 C306.2,294.7 306.8,295.3 307.5,295.3 C308.2,295.3 308.8,294.7 308.8,294 C308.9,293.3 308.3,292.7 307.5,292.7 L307.5,292.7 Z M117.4,294 L98.4,303.2 L104.3,304.6 L103.6,310.5 L108.4,307.8 L111,313.2 L117.4,294 Z M118.6,297.9 C117.9,297.9 117.4,298.5 117.4,299.2 C117.4,299.9 118,300.5 118.7,300.5 C119.4,300.5 120,299.9 120,299.2 C119.9,298.5 119.3,297.9 118.6,297.9 L118.6,297.9 Z M315.7,299.1 C315,299.1 314.4,299.7 314.4,300.4 C314.4,301.1 315,301.7 315.7,301.7 C316.4,301.7 317,301.1 317,300.4 C317,299.7 316.4,299.1 315.7,299.1 L315.7,299.1 Z M289.5,305.2 L287.7,300.3 L280.7,318.4 L299.6,309.8 L293.6,308.4 L293.7,303.7 L289.5,305.2 Z M270.4,301.3 C270.2,301.3 270,301.3 270,301.5 C270,301.9 265.2,306.6 265.2,306.6 L209.5,307.1 C209.6,307.1 214.1,308.4 214.1,308.4 C221.4,314.2 232.8,324.6 232.8,324.6 L246.6,324 C254.3,316.5 265.8,310.8 270.9,301.5 C270.9,301.3 270.6,301.3 270.4,301.3 L270.4,301.3 Z M322.6,305 C321.9,305 321.3,305.6 321.3,306.3 C321.3,307 321.9,307.6 322.6,307.6 C323.3,307.6 323.9,307 323.9,306.3 C323.9,305.6 323.3,305 322.6,305 L322.6,305 Z M279.6,311.3 C278.9,311.3 278.3,311.9 278.3,312.6 C278.3,313.3 278.9,313.9 279.6,313.9 C280.3,313.9 280.9,313.3 280.9,312.6 C280.9,311.9 280.3,311.3 279.6,311.3 L279.6,311.3 Z M307.8,313.2 C311.8,313.2 315.6,313.3 316.6,314.1 C322.8,319.3 319.8,343.6 312.1,346.6 C303.6,348.5 297.7,348.9 290.3,344 C288.2,343 284,339.9 284.9,337.3 C286,334.2 289.1,334.4 297.8,337.1 C301,338.1 302.7,337.9 303.6,337.3 C304.4,336.7 303.4,336.1 301.7,336.1 C301,336.1 298.2,335.4 295.8,334.7 C292.5,333.7 291.5,333.4 289.4,333.2 C285.8,333 284.7,332.8 284.7,330.6 C284.7,326.5 290.5,325.9 301,328.3 C302.3,328.6 304.6,328.9 305.1,328.9 C305.5,329.1 304.3,327.5 304.1,326.6 C303.7,326.3 303,326.1 301.2,326.1 C294.4,325.4 288.7,325 288.6,324.1 C288,319.7 296.8,318.5 305.9,322 C308.2,322.9 308.3,322.5 308.3,321.9 C308.3,320.6 304.3,318.4 298.6,318.5 C293,318.6 293.8,315.7 298.4,313.5 C300,312.9 303.9,313.2 307.8,313.2 L307.8,313.2 Z M286.1,317.9 C285.4,317.9 284.8,318.5 284.8,319.2 C284.8,319.9 285.4,320.5 286.1,320.5 C286.8,320.5 287.4,319.9 287.4,319.2 C287.4,318.5 286.8,317.9 286.1,317.9 L286.1,317.9 Z M265.8,327 L264.6,322.1 L256.9,341.2 L276.2,331.3 L269.8,330.1 L270.4,326.1 L265.8,327 Z M256,334.7 C255.3,334.7 254.7,335.3 254.7,336 C254.7,336.7 255.3,337.3 256,337.3 C256.7,337.3 257.3,336.7 257.3,336 C257.3,335.3 256.7,334.7 256,334.7 L256,334.7 Z M275.2,340.1 L273.6,335.5 L267.1,352.1 L283.6,344.7 L278.7,343.4 L279.4,338.4 L275.2,340.1 Z M262.1,340.1 C261.4,340.1 260.8,340.7 260.8,341.4 C260.8,342.1 261.4,342.7 262.1,342.7 C262.8,342.7 263.4,342.1 263.4,341.4 C263.4,340.7 262.8,340.1 262.1,340.1 L262.1,340.1 Z M266.3,346.5 C265.6,346.5 265,347.1 265,347.8 C265,348.5 265.6,349.1 266.3,349.1 C267,349.1 267.6,348.5 267.6,347.8 C267.6,347 267,346.5 266.3,346.5 L266.3,346.5 Z M258,350.4 L252.4,366.1 L267.9,358.6 L263.4,357.1 C263.4,357.1 263.6,353.6 263.2,353.7 C262.9,353.8 260,354.6 260,354.6 L258,350.4 Z M271.8,352.2 C271.1,352.2 270.5,352.8 270.5,353.5 C270.5,354.2 271.1,354.8 271.8,354.8 C272.5,354.8 273.1,354.2 273.1,353.5 C273.1,352.8 272.5,352.2 271.8,352.2 L271.8,352.2 Z M251.3,359.8 C250.6,359.8 250,360.4 250,361.1 C250,361.8 250.6,362.4 251.3,362.4 C252,362.4 252.6,361.8 252.6,361.1 C252.6,360.4 252,359.8 251.3,359.8 L251.3,359.8 Z M257.2,365.9 C256.5,365.9 255.9,366.5 255.9,367.2 C255.9,367.9 256.5,368.5 257.2,368.5 C257.9,368.5 258.5,367.9 258.5,367.2 C258.5,366.5 257.9,365.9 257.2,365.9 L257.2,365.9 Z M175.4,438.3 C174.7,438.4 172.8,436.7 172.5,435.9 C173.6,435.6 174.6,435.8 175.2,436.3 C175.7,436.8 176,438 175.4,438.3 L175.4,438.3 Z M181,437.2 C180.7,439.1 181.9,442.6 181.7,443.4 C181.1,443.7 178,440.4 177.2,439.6 C177,438.5 177.2,437.1 177.3,436.5 C178.4,436.3 180.3,436.4 181,437.2 L181,437.2 Z M186.6,438.2 C187.3,442.5 189.1,449.3 188.8,451.6 C188.5,451.4 186.1,449 184.4,446.5 C183.8,445 182.8,439.8 182.9,437.3 C184.1,437.2 185.7,437.4 186.6,438.2 L186.6,438.2 Z M149.4,437.7 C147.5,438.7 145.3,439.4 142.6,439.4 C140.4,439.4 136.7,438.3 137.1,438.5 C138.1,440.3 140.7,439.3 140.7,440.5 C140,441.6 138.3,441.5 137.5,442.6 C137.3,442.9 137.7,443.1 139,443 C142.7,441.3 147.5,441.4 151.8,442.8 C152.7,443 152.1,442.1 151.8,441.9 C151.2,441.5 150.3,441 149.5,440.9 C145.7,440.2 147.3,439.8 149.9,438.7 C151.8,438 152.2,436.4 149.4,437.7 L149.4,437.7 Z M157.6,443.1 C157.1,443.1 155.8,443.8 154.4,444.4 C152,445.3 149.8,445.1 146.7,444.2 C143.9,443.4 142.9,443.7 140.2,445 C138.4,446.2 136.4,446.5 134.9,445.7 C133,444.6 133,445 134,447.6 C134.2,448.2 133.8,450.2 134.6,450.7 C135.2,451.1 135.9,449.9 136.4,449.7 C136.9,449.5 139.9,450.9 141.6,449.4 C144.6,448.3 145.5,450.1 147.6,449.9 C151,448.7 153.1,447.5 156,449.8 C156.2,448.9 156.8,444.3 157.9,443.1 C157.8,443.1 157.8,443.1 157.6,443.1 L157.6,443.1 Z M151.5,456.6 C149.1,456.6 147.8,458.1 144.6,457.8 C142.1,457.6 141.2,459.8 142.3,461.4 C143,462.5 144,462.7 147.4,461.2 C148.8,460.6 150.8,459.1 151.9,459.3 C155.2,459.6 156,462.9 153.3,465.6 C151.9,466.4 151.9,467.3 152.3,467.3 C153.4,467.3 155.6,466 156.1,464.5 C157.6,460.3 155.1,456.5 151.5,456.6 L151.5,456.6 Z M162.4,475.8 C159.2,476.5 154.7,480.1 153.2,482.4 C151.8,484.7 150.4,487.3 151.4,488.5 C152.2,489.5 153.4,490.6 153.5,491.1 C153.6,491.6 152.9,492.1 152.3,492.8 C149.5,495.9 150.2,496.1 154.1,494.1 C156.1,493.1 157,492.7 158.3,493 C162,494 166.7,493.3 169.9,492.1 C171.3,491.6 172.7,490.8 172.8,491.2 C167,497.6 159.8,496 157.2,495.6 C156.8,495.5 156.4,495.5 156.4,495.7 C156.4,496 157.1,496.7 158.7,497.4 C161.4,498.6 167.7,497.3 171.7,494.4 C179.6,489.2 183.9,484.3 177.7,486.4 C174.8,487.3 173.8,487.2 170.3,485.6 C165.1,483.2 161.1,482.6 156.8,484.1 C151.3,486 155.5,481.5 161.7,477.6 C163,476.8 163.2,475.8 162.4,475.8 L162.4,475.8 Z M133,489.3 L131.2,489.3 C129.9,484.9 126.8,484.9 125.4,489.3 L123.9,489.2 C125.4,483.7 131,482.6 133,489.3 L133,489.3 Z M165.3,489.6 L163.9,489.7 C163.1,487 160.2,484.7 158.1,489.1 L157.2,488.9 C158.9,481.9 165.6,485.8 165.3,489.6 L165.3,489.6 Z M156.2,485.6 C157.1,485.6 157.3,486.6 156.3,488.1 C155.6,489.2 154.8,489.1 154,488.3 C153.3,487.6 153.3,487.4 154.1,486.7 C155,486 155.7,485.6 156.2,485.6 L156.2,485.6 Z M166.3,485.7 C166.7,485.7 167.4,486 168.2,486.3 C170.3,487 170.7,487.6 169.9,488.4 C169.1,489.2 167.5,489.5 166.8,489 C166.8,488 165.7,487.1 165.7,486.1 C165.6,485.8 165.9,485.7 166.3,485.7 L166.3,485.7 Z M133.8,485.7 C135.2,485.6 137.2,486.5 137,487.3 C136.9,488.2 135.4,488.8 134.3,488.9 C133.5,489 133.5,488.7 133.3,488.1 C133.1,487.6 132.9,487 132.7,486.5 C132.5,485.6 133.1,485.7 133.8,485.7 L133.8,485.7 Z M124,486 C124,486 123.2,488.4 122.8,489.2 C119.8,489 120.1,487.7 121.5,486.8 C122.3,486.2 123.1,486.2 124,486 L124,486 Z M121.7,491.7 C122.2,491.7 122.9,492.2 123.9,492.5 C126.6,493.4 131,493.3 134.4,492.5 C136.1,492.1 136.8,491.6 137.2,491.9 C137.8,492.4 137.2,494 134.8,495 C131.7,496.1 127,496.8 123.4,494.9 C120.2,493.3 119.9,491.7 121.7,491.7 L121.7,491.7 Z M120.8,495.1 C123.6,497 126.4,497.5 129.9,497.2 C135.1,497 136,496.4 131.6,498.7 C127.5,500.8 121.3,500.5 120.1,498.1 C119.5,496.8 119.9,495.2 120.8,495.1 L120.8,495.1 Z M146.1,498.2 C146.1,498.2 146.1,498.3 146.1,498.2 C146.5,501 151.2,503.6 153.5,504.2 C158.3,506.3 166,504.2 171.7,501.7 C175.9,499.9 177.4,497.2 172.4,498.7 C164.4,501.2 154.2,501.4 149.2,499.5 C147.5,498.8 146.4,498.2 146.1,498.2 L146.1,498.2 Z M119.6,508.8 C129.7,511.1 141.9,526.6 141.8,533.4 L138.5,533.4 C133.5,516.1 120.7,512.4 119.4,511.3 C118.9,509.2 119.6,508.7 119.6,508.8 L119.6,508.8 Z M119.4,513.2 C131.4,518.5 135.6,527.8 137.4,533.4 L134,533.4 C131.4,525.6 126.7,520.1 119.4,516.7 C118.9,515.6 119.4,513.2 119.4,513.2 L119.4,513.2 Z M119.4,518.5 C125.5,520.3 131,528.4 132.5,533.4 L129.4,533.4 C127.2,527.8 124.1,524.2 119.3,522.1 C119.1,521 119.1,519.8 119.4,518.5 L119.4,518.5 Z M119.3,524 C122.2,524.6 127.1,529.1 127.8,533.4 L125,533.4 C124,530.4 120.9,527.7 119.4,526.6 C119.3,526.1 119.3,524 119.3,524 L119.3,524 Z M119.6,528.6 C119.9,528.4 124.2,532.3 123.5,533.4 L119.6,533.4 C119.6,532.2 119.6,528.6 119.6,528.6 L119.6,528.6 Z" id="Shape" fill="#131F67" fill-rule="nonzero"></path>
            <path d="M229.4,51.5 C222.1,65.7 184.6,129.4 184.2,131.6 L193.8,135.8 L240.4,51.8 C240.5,51.9 230.8,51.5 229.4,51.5 L229.4,51.5 Z M339.5,104.8 L335.1,110.9 L338.8,117.6 L342.6,111 L339.5,104.8 Z M168.2,168.7 C168.2,168.7 154.8,182.1 149.5,188.3 C160.8,199.6 182.4,213.7 182.5,235.5 L197.4,235.6 L245.6,278.7 C245.6,278.7 289.2,279 290,278.8 C290.9,278.6 306.4,256.4 306.4,256.4 L334.1,276.6 C334.1,276.6 332.8,254.9 331.7,241.6 C331.4,232.7 331.1,227.2 337.6,223.3 C328.7,219 329.2,211.2 335.8,205.5 C333.6,202.5 330.4,201.9 329.9,191.3 C328.5,189.8 327.2,189 325.5,187.7 L323.7,189.3 C318,194.5 314.1,199.7 313.4,203.1 C312.2,209.6 318.8,214.1 322.6,209.3 C323.7,208 324.6,208.3 324.6,210.1 C324.6,213.7 320.1,215.7 316.4,213.8 C315.5,213.4 314.7,213.1 314.7,213.2 C314.6,213.3 318.4,222.8 319.5,224.9 C321.2,228.4 322.2,231.9 322.3,235.6 C322.4,239.5 322.4,240 320.5,246.8 C318.8,253.2 319.6,257 322.7,257 C324.4,257 324.4,258.7 322.6,259.3 C318.9,260.6 316.6,257.9 316.4,252 C316.3,248.4 316.3,248.3 314.4,249.2 C308,252.2 301.1,246.8 304.1,241.2 C304.7,240 305.5,240.4 305.9,242.1 C306.6,245.3 308.3,246.6 311.3,246.6 C318.2,246.6 321.1,236.8 317.1,227.1 C316.3,225.1 315.9,225.2 314.8,227.7 C313.2,231.6 310.4,232.7 308.1,230.5 C307.3,229.7 307,228.5 307.5,228.4 C307.6,228.4 308.4,228.4 309.2,228.3 C313.2,228.2 314.6,224.3 312.7,218.4 C311,213.3 310.8,212.3 310.3,209.5 C309.5,205.2 310.1,201.9 312.2,197.7 C312.6,197 314.9,194.3 317.9,191.4 C320.9,188.4 323.5,186.1 323.5,186.1 C323.5,186.1 322,184.8 319.9,183.3 C315.6,180.1 314.8,179.5 314.8,179.5 C314.8,179.5 294.3,235.8 295.7,257.7 C293.1,286.6 271.9,278.6 270.3,258.6 L168.2,168.7 Z M167.3,177.199194 C174.3,177.1 178.9,186.3 181.6,205.6 C182.5,212 186.4,220.9 189.2,223 C196.3,228.3 207.4,224.2 207.4,216.3 C207.4,206.4 193.5,204.9 193.3,214.8 C193.3,217.1 192.1,217.3 190.9,215 C189.9,213 190.8,209.3 192.8,207.5 C194.1,206.3 194,206.1 191.5,204.7 C183,200 179.5,193.1 184,190.1 C186,188.8 188.7,190.4 187.4,192.2 C185.5,194.9 185.4,195.4 187.1,197.6 C188.9,200.2 191.1,201.4 196.3,203 C200.6,204.3 201.4,204.5 203.4,205.4 C209.3,208.1 212,214 209.9,219.7 C209.4,221 208.9,222.4 208.9,222.7 C208.7,223.3 209,223.3 213.2,222.8 C219.8,221.9 227.1,224.3 230.7,228.4 C232.6,230.6 234.2,235.6 234.2,239.8 C234.2,240.6 234.5,242.4 234.8,243.8 C235.1,245.2 235.5,247.6 235.7,249.1 C237.4,263.4 249.3,270.7 254.5,260.6 C257.7,254.3 250.3,247.9 246.4,253.8 C245.1,255.9 243.7,254.9 244.4,252.5 C245.9,247.7 251.8,246.9 255.9,250.9 C258.1,253.1 259.1,258 258.1,261.1 C257.5,262.7 257.6,262.8 258.8,262.4 C261.5,261.4 266.2,262.4 267.9,264.2 C271.9,268.4 271.1,273.5 266.2,275.2 C264,275.9 261.5,275.2 260.6,272.6 C260.2,270.7 261.5,270.2 262.5,271.8 C264.3,274.8 268.4,272.4 267.4,268.9 C266.3,264.9 262.9,264 256.6,266.2 C246.5,269.7 243.3,269.4 238.5,264.6 C235.1,261.2 233.8,258.2 232.8,251.7 C231.8,244.5 231.7,244.3 229.9,245.8 C221.4,253.1 210.1,242.1 217.3,234.9 C219.5,232.7 221.2,234.6 219.2,237.1 C216.3,240.7 220.1,245.8 224.9,244.6 C233.6,242.4 231.8,229.7 222.4,226.7 C219.5,225.8 211.6,226.2 205.5,227.5 C188.5,231.2 181,224 177.5,200.5 C177.1,197.8 176.6,195.7 175,189.8 C173.1,182.8 166.6,179 163,182.8 C160.2,185.8 161.7,189.9 165.6,189.9 C169.5,189.9 168.3,192.6 164.2,193 C157.1,193.6 155.9,181.8 162.7,178.4 C164.3,177.6 165.8,177.199194 167.3,177.199194 L167.3,177.199194 Z M74.6,181.5 L76.8,189.9 L85.6,192.4 L82.8,184.4 L74.6,181.5 Z M97.1,184 L94.7,191.6 L101.4,190 L103.6,182.1 L97.1,184 Z M169.3,196.5 C170.7,196.5 171.8,197.6 171.8,199 C171.8,200.4 170.7,201.5 169.3,201.5 C167.9,201.5 166.8,200.4 166.8,199 C166.8,197.6 167.9,196.5 169.3,196.5 L169.3,196.5 Z M84.7,201 L77.8,203.4 L76.5,209.4 L83.7,207.5 L84.7,201 Z M101.2,202.9 L95.6,201.9 L97.2,208.1 L103.2,210.5 L101.2,202.9 Z M346.7,202.5 L343.1,205.3 C353.7,214.5 342.3,223.4 341.9,222.8 C349.6,227.9 348.2,235.9 347.2,243.2 C345.4,256.3 344.7,268.6 342.7,282 C342.7,282 351.9,288.4 358.1,290.8 C358.2,290.8 358.1,212.2 358.1,212.2 L346.7,202.5 Z M215.9,214.3 C217.3,214.3 218.4,215.4 218.4,216.8 C218.4,218.2 217.3,219.3 215.9,219.3 C214.5,219.3 213.4,218.2 213.4,216.8 C213.4,215.4 214.5,214.3 215.9,214.3 L215.9,214.3 Z M60.9,220.8 L61.2,294.1 L76.4,267 L66,255 L75,245.4 L60.9,220.8 Z M208.7,231.9 C210.1,231.9 211.2,233 211.2,234.4 C211.2,235.8 210.1,236.9 208.7,236.9 C207.3,236.9 206.2,235.8 206.2,234.4 C206.2,233.1 207.3,231.9 208.7,231.9 L208.7,231.9 Z M243.2,239.4 C244.6,239.4 245.7,240.5 245.7,241.9 C245.7,243.3 244.6,244.4 243.2,244.4 C241.8,244.4 240.7,243.3 240.7,241.9 C240.6,240.6 241.8,239.4 243.2,239.4 L243.2,239.4 Z M341.9,321.1 L353.1,332.5 L344.4,343.3 L358.1,366.6 L357.9,294.6 L341.9,321.1 Z M60.8,297.1 L61.3,376 L73.2,384.7 L76.2,381.8 C68.5,373.6 73.1,367.5 78.9,363.9 C68.7,361.5 71.8,347.9 72.4,341.7 C72.1,330 76.4,316.7 75.1,305.5 L60.8,297.1 Z M129.4,308 L112.3,331.8 C112.3,331.8 93.5,317.6 84.1,311.2 C85.1,321.5 86,334.6 87.3,345.6 C90.4,361.7 82.4,362 82.3,363.6 C95,373.2 84.3,382.3 82.4,381.8 C89.2,385.5 88.6,396.7 88.6,396.7 L91.8,398.5 C91.8,398.5 92.8,397.9 93.3,397.6 C96.7,395.8 102.3,389.2 103.6,384.8 C105.8,377.4 99.4,371.3 95.4,376.9 C93.4,379.6 91.8,377.8 93.5,374.6 C95,371.7 98.8,370.3 101.4,371.6 C102.9,372.4 102.6,370.3 100.3,364.5 C99.5,362.5 98.9,360.4 97.8,356.1 C96.7,351.9 97.2,346.9 99,341.8 C101.6,334.4 100.7,329.8 96.5,329.4 C94.2,329.2 94,328.5 95.8,327.4 C99.9,325.1 103.9,328.4 103.7,334 C103.6,337 103.6,337.1 105.2,336.4 C113.3,333.2 119.6,341.5 114,348 C112.3,350 111.2,348.7 112.3,346.1 C114,342 112.4,339.1 108.3,339.1 C102.3,339.1 99,347.3 101.4,356.3 C102.1,359.1 102.2,359.2 104.2,357.3 C106,355.6 107.3,355.1 108.6,355.5 C111.4,356.3 112.2,359.3 109.5,359 C104.8,358.4 103.6,363.2 106.3,371.9 C109.8,383.4 106.3,392.7 95.9,399.4 C95.4,399.7 94.6,400.4 94.6,400.4 C98.6,403.9 101.1,406 106.4,409.2 L125.2,333.4 C125.2,333.4 124.9,329.1 124.4,327.1 C124.4,306.8 143.4,304.8 149.3,323.3 C149.9,325.1 152.9,329.6 152.9,329.6 L251.7,417.3 C251.7,417.3 270.1,399.5 269.901619,399 C255.9,384.9 236.9,374.9 236.3,352.5 C232.9,352.4 221.7,352.6 221.7,352.6 L173.6,308.5 C158.5,308.6 145.1,307.5 129.4,308 L129.4,308 Z M156.4,309.7 C159,309.6 161.7,311 161.7,313.2 C161.7,315.1 160.4,315.5 159.4,314 C157.9,311.8 156.2,311.7 154.5,313.5 C149.7,318.6 157.2,323.2 165.8,320.5 C171.1,318.8 173.6,318.4 175.6,318.8 C183.7,320.4 187.7,325.9 188.4,336.6 C188.7,342 188.7,342 191.1,339.9 C196.8,334.7 205.1,337.6 206.4,345.3 C207,348.6 203.4,352.8 200,352.8 C198.7,352.8 198.9,351.4 200.3,350.7 C203.8,349.1 203.9,343.6 200.5,341.5 C196,338.7 190.2,343.1 190.3,349.2 C190.4,356.5 195.9,359.9 206.7,359.3 C208.3,359.2 212.3,359 215.5,358.9 C220.7,358.7 226.2,357.7 231.5,361.7 C237,366.1 240.7,374.8 242.3,387.4 C244.8,402.9 246.7,407.1 251.9,407.5 C255,407.7 257.6,405.1 257.6,402 C257.6,399.8 254.7,397.9 252.6,398.7 C250,399.6 249.5,396.7 252,395.7 C255.6,394.2 259.9,397.1 260.9,401.6 C261.5,404.2 258.5,409.2 255.4,410.5 C247.3,413.8 241.6,407.1 239.7,392.2 C238.5,385.4 237.9,380.7 235.8,374.9 C231.9,364.1 225.4,359.7 218.4,362.9 C210.5,366.5 212,378.4 220.5,378.3 C225.1,378.7 226.1,375.3 226.2,371.6 C226.3,368.9 229.3,371.4 229.6,373.3 C229.8,375.5 227.8,378.3 226.1,379.6 C223.2,381.5 224.3,381.4 227.2,382.2 C235.1,383.7 240.9,394.1 236.2,397.6 C233.8,399.1 231.2,396.9 232.9,394.7 C235.6,391.3 231,385.9 222.7,384 C211.8,381.6 207.5,373.5 211.4,365.2 C212.7,362.4 212.8,362.5 207.5,362.8 C195.8,363.5 191.7,361.9 187.8,355.1 C186.6,353.1 186.1,350.3 185.8,344.9 C185.4,335.2 184.5,329.2 183.2,327.5 C177.1,319.1 164.5,321.6 166.1,330.9 C166.9,335.8 172,337.3 175.4,333.8 C178,331.1 179.2,333.6 176.7,336.4 C170.6,343.1 160,335.3 163.1,326.3 C163.8,324.3 163.9,324.3 160,324.2 C151.3,324 147.2,316.5 152.8,311.2 C153.6,310.2 155,309.7 156.4,309.7 L156.4,309.7 Z M177.3,341.6 C178.7,341.6 179.8,342.7 179.8,344.1 C179.8,345.5 178.7,346.6 177.3,346.6 C175.9,346.6 174.8,345.5 174.8,344.1 C174.8,342.8 176,341.6 177.3,341.6 L177.3,341.6 Z M212.3,350.6 C213.7,350.6 214.8,351.7 214.8,353.1 C214.8,354.5 213.7,355.6 212.3,355.6 C210.9,355.6 209.8,354.5 209.8,353.1 C209.8,351.7 210.9,350.6 212.3,350.6 L212.3,350.6 Z M204.8,367.1 C206.2,367.1 207.3,368.2 207.3,369.6 C207.3,371 206.2,372.1 204.8,372.1 C203.4,372.1 202.3,371 202.3,369.6 C202.3,368.2 203.4,367.1 204.8,367.1 L204.8,367.1 Z M316,376.9 L317.6,384.4 L323.4,385.9 L322.5,379.5 L316,376.9 Z M336.2,379.5 L336.1,383.9 L341.3,384.5 L343.1,376.9 L336.2,379.5 Z M249.7,386.1 C251.1,386.1 252.2,387.2 252.2,388.6 C252.2,390 251.1,391.1 249.7,391.1 C248.3,391.1 247.2,390 247.2,388.6 C247.2,387.3 248.3,386.1 249.7,386.1 L249.7,386.1 Z M323.7,396.4 L317.6,398.1 L314.7,406.5 L322.5,403.7 L323.7,396.4 Z M335.6,397.2 L336.4,403.4 L343.9,406.8 L341.4,397.9 L335.6,397.2 Z M225.5,450.3 L179.2,534.1 L191.9,533.9 L235.6,454.9 L225.5,450.3 Z M79.8,470.6 L75.7,476.1 L79.6,482.5 L84.1,476.1 L79.8,470.6 Z" id="Shape" fill="#D40000" fill-rule="nonzero"></path>
            <path d="M29.4,21.9 C23.7,21.9 18,25.8 16.4,33.2 C16,34.9 15.9,37.7 15.8,45.8 C15.6,57.8 15.5,56.8 15.5,56.8 L10.4,56.7 L10.7,63.4 L16.2,63.4 C16.2,63.4 16.1,63.8 16.2,67.6 C16.6,77 18.1,80.3 23.4,82.8 C27,84.5 33.6,84.5 36.7,82.1 C38.5,80.9 38.7,81 40.9,82.3 C45.5,85.1 49.3,83.6 49.3,83.6 L49,76.9 C41.8,76.8 40.8,75.1 42.7,70.4 C42.8,70.1 42.8,69.5 42.9,68.7 C43.4,61.1 43.2,35.5 42.4,32.5 C40.5,25.5 34.8,21.9 29.4,21.9 L29.4,21.9 Z M28.8,28.6 C31.4,28.6 34.1,30.4 35.3,33.7 C36.6,37.2 36.6,36.9 36.9,58.3 C37.1,68.8 36.6,68.8 36.6,68.8 C32.6,63.4 27.5,59.5 21.8,57.6 C21.8,57.6 21.9,58.1 21.8,47.7 C21.7,37 21.8,34.7 23.4,31.9 C24.8,29.7 26.8,28.6 28.8,28.6 L28.8,28.6 Z M158.5,49.4 C167,75.3 167.8,100.8 160.4,125.3 C164.6,125.5 183,130.2 193.2,136.5 C191.3,141.3 162.6,176.6 143.1,192.6 C148.6,198.1 154.7,203.6 161.2,209.6 C170.9,218.8 174.3,225.1 175,237.1 C174.9,242.9 172.8,250 169.2,255 C166.4,258.8 163.5,261.7 157.6,265.6 C152,269.2 144,277 134,288.5 C130.2,292.9 123.7,300.8 118.4,308.4 C116.4,311.2 110.4,319.8 110.4,319.8 C90.5,303.6 69.3,291.1 68.8,291.2 C68.8,291.2 90.2,279.8 94.7,277.4 C98.2,279.6 102.9,277.7 100.6,272.8 C96.3,261.7 99.3,250.2 104.6,242.2 C105.9,240.3 108.9,239.1 113.9,238.8 C116.1,238.7 118.3,238.7 120.6,238.7 C121.4,238.7 123.6,239 124.9,239.7 C129,241.9 129.8,239.1 132.3,229.5 C134.8,220 130.8,207.9 125,207.9 C123.6,207.9 122.9,208.4 123.2,211.8 C123.4,214.4 122.8,215.7 122.1,217.3 C120.7,220.8 119.9,224.3 119.4,228.9 C120.2,229.1 114,222.7 104.3,220.2 C97.9,219.4 94.7,211.5 95,211.5 C95,211.5 96,209.4 96.8,208.5 C99,209.5 101.1,210.8 103.7,211.5 C103.7,211.5 103.1,208.3 102.9,207.5 C101.7,203.1 101.8,202.4 103.5,201.5 C107.7,199.2 108.2,195.2 104.9,191.5 C104.1,190.6 103.4,190 102.2,189.5 L104.3,181.2 C104.3,181.2 102.4,181.6 100.9,182.1 C96.5,183.4 96.8,183.5 94.9,181.3 C90.8,176.6 84.5,177.5 83.6,182.9 C83.5,183.5 83.2,184.4 83.2,184.4 L73.8,179.8 C74.1,182 76.5,189.5 76.5,189.5 C68.3,195.9 75.2,201.6 77.5,202.2 C77.5,202.2 75.6,208.3 74.9,210.9 L84.2,208.2 C85,210 85.9,211.3 87.9,212.6 C88.4,217.8 92.4,222.1 95.2,224.6 C95.2,224.6 95.6,226.5 95.4,227.7 C94.8,230.7 97.9,235.6 98.4,235.8 C85.6,230.6 72.3,224.3 59.5,218.2 L60.3,376 C60.3,376 63.3,378.7 69.2,382.9 C72,384.9 72,384.9 71.5,387.3 C70.7,390.4 70.9,392.8 73.6,413.2 C75,424 76.5,435.2 77.9,445.2 C78.7,450.9 78.5,451.5 76.5,450.7 C74.2,449.8 70.9,450.4 69.4,452.2 C65.7,456.4 68.7,463.1 74.1,463 C75.3,462.9 76.2,462.6 77.2,461.8 C79.3,460.7 78.9,462 76.1,466.4 C69.7,476.3 70,475 72.7,479.7 C77.9,488.7 79.2,490.8 79.5,491.2 C79.9,491.6 80.2,490.7 82.2,487.1 C83.2,485.2 85,481.9 86.5,479.4 C89.4,474.3 89.5,475.2 85.8,468.5 C81.8,461.2 81.7,460.8 84.1,462.1 C85,462.6 86.2,462.9 87.1,463 C91.8,463 92.8,460.9 93.3,457 C93.3,452 89.3,449.7 83.8,451.6 C82.9,451.9 82,452 82,452 L87.8,397 L90.9,399.3 L91.9,398.7 L89.2,396.4 C89.8,387.6 86.9,384.5 83.7,382.3 C94.2,376.3 89.7,366.9 82.7,364 C82.7,364 87.2,361.3 88.1,358.6 C88.9,356.1 88.6,352.2 87.7,345.2 C87,334.4 84.7,312.1 84.7,312.1 C93.9,319 103.3,326.4 112.2,333.4 L130,308.7 L172.8,309 C172.8,309 205.3,338.6 221.7,353.6 L235.8,353.7 C235.8,353.7 236,355.2 236.1,356.2 C237.4,370.8 247.2,380.8 256.1,387.8 C259.7,391.1 268.7,399.6 268.7,399.6 L252.1,416.4 L150.2,325.4 C150.2,325.4 149.7,324.1 149.5,323.3 C147.1,313.7 140.8,309.6 135,310.3 C128.9,311 123.7,317 124,327.2 C124,328.8 124.6,331.6 124.6,331.6 L106,408.9 C106,408.9 98.6,403.2 94.5,400.5 L93.6,401 L104.5,409.2 L105.3,408.9 L108.4,411.3 L108.6,412.9 C118.1,419.4 134.3,431.5 134.3,431.5 C141.9,425.8 149.9,427.7 158,429.9 C158,429.9 163.8,431.9 166.9,431.8 C182.7,432.2 196.7,435.2 211.3,440.5 L157.8,535.3 L259.7,535.5 C254.7,515.7 249.3,495.5 258.9,461.7 C248.9,459.7 226.5,450.7 226.5,450.7 C226.5,450.7 226.4,450.2 227.3,449 C231.4,443.1 241.9,427.1 251.7,417.8 C252.9,416.9 269.9,400.4 270.1,399.9 C270.2,399.6 270.6,398.5 271.3,398.1 C272.9,397.1 277,393.1 277,393.1 L255.7,374.6 C255.7,374.6 254.8,374.5 254.5,374.3 C251.5,372.6 246.1,363.3 244.8,357.1 C241.8,342.8 247.4,331.5 263.3,319.8 C278.8,309.2 308.2,268 308.3,267.1 C324.1,280.2 336.5,287 350.5,295.6 C342.1,300.4 335.2,303.7 329.3,306.9 C325.5,309.1 324.9,309.5 321.7,308.6 C319.9,308.3 318.2,309 317.8,310.3 C317.4,311.4 317.4,313 317.8,313.2 C323.3,321.9 321,342.3 313.5,346.3 C307,349.7 300.7,348.8 295.4,346.8 C291.4,345.5 291.4,345.5 289.6,349.2 C285.6,357.6 285.4,364.7 289,372.8 C292,379.3 296.4,382.2 297,373.5 C297.3,368.4 299.6,362.4 299.5,356.8 C304,361.8 307.1,364.1 314.5,366.2 C319.5,367 324.8,373.2 324.7,375.8 C323.3,377.2 322.9,379 322.7,378.8 C320.3,378 315,375.8 315,375.8 L317.2,383.7 C317.2,383.7 316.8,384.1 315.7,384.6 C310.7,387.1 311.1,394 316.3,396.7 C317.4,397.3 317.4,397.5 317,399 C316.4,402.3 314.9,404.4 314.2,407.7 C314.2,407.7 314.9,407.7 320.9,405 L323.2,403.9 L324.6,405.4 C327.7,408.7 331.4,408.7 334.6,405.3 L336.1,403.8 L340.2,405.9 C344.1,407.9 345.1,408.3 345.1,408.3 C345.1,408.3 342.9,399.6 342.4,398.6 C342.2,398.1 341.7,397.5 341.4,397.4 C340.9,397.2 340.9,397.1 342.4,395.9 C346.1,392.9 346.5,388.8 343.3,385.7 C342.1,384.5 341.9,384.3 341.9,384.3 L343.8,376.2 L335.8,378.9 C334.5,376.2 332.5,375 331.2,374.4 C331.1,370.8 330.6,367 324.4,361.3 C326.5,359.4 324,354.7 321.9,352 C325.4,353.2 334.2,356.9 334.2,356.9 L335.5,356.8 L339.7,358.8 L340.2,359.6 C340.2,359.6 353.4,365.8 359.5,368.8 C359.5,368.5 359.4,361.9 359.4,290 C359.4,247.1 359.5,211.9 359.4,211.6 C359.3,211.4 357.9,210.3 356.4,209.1 C353.6,207 353,206.6 349.5,204.2 C346.7,202.3 346.9,202.3 347.4,200.1 C348.1,197.6 348.1,194.2 347.2,187.7 C346.5,182.9 344.1,166.2 342.5,152.7 C341.3,143.2 341.1,141.1 340.8,139.6 C340.3,135.8 340.8,134.1 340.8,134 C354.1,139.8 355.1,120.7 341.8,123.3 C341.8,123.3 343.4,120.2 346.5,114.8 C349.3,110.1 349.2,110.5 347,106.7 C346,104.9 344.5,102.2 343.7,100.7 C341.6,96.7 339.7,94.3 339.7,94.3 L330,111.2 L335.7,122.9 C335.7,122.9 334.8,123 334,122.9 C329.1,122 325.6,127 326.8,130.8 C328.1,134.6 331.8,135.7 335,134.1 C337.5,133.1 337.5,132.9 335.3,151.4 C334.6,156.9 331.8,182.6 331.4,186.4 C331.1,189 331,189.7 329.9,189.1 C328.5,188.5 327.7,187.6 326.2,186.7 L325.4,187.4 C326.7,188.4 328.2,189.7 329.7,191.2 C329.3,198 329.5,201.9 335.1,205.3 C324.8,211.7 330.8,221.6 336.9,223.1 C333.3,224 329.8,228.6 330.6,237.8 L333.5,275.7 L305.7,255 L289.4,278.4 L246.3,278.5 L197.7,234.7 C197.7,234.7 187.1,234.6 182.7,234.5 C183.2,234.3 181.8,221 174.8,212.3 C167.2,203.2 149.8,188.2 149.8,188.2 L168.1,169.7 L270.7,262 C270.7,262 271.2,264.6 271.5,265.7 C274.9,280.3 291.5,281.1 295,266.3 C295.6,263.9 296.3,258.3 296,257.7 C295.9,257.5 296.4,255.1 297.1,252.3 C302.6,230.7 307.3,212 312.7,191.3 C313.4,188.4 314.2,185.3 314.5,184.2 C315.4,180 315.3,180 319.7,183.3 C322.4,185.3 323.5,186.1 323.5,186.1 L324.4,185.2 C321.4,182.9 316.2,179.1 316.2,179.1 L316.3,177.5 C299.7,165.6 296.2,162.4 286.4,154.6 C278.8,161.3 267.8,158.6 261,156.2 C259.2,155.5 254.9,154.4 254.9,154.4 C237.9,154.4 222.9,151.1 208.7,146.5 L263.2,49.4 L242.1,49.4 L241.4,50.2 L230.4,50.2 L230.4,49.4 L158.5,49.4 Z M220.7,51.6 L228.2,51.7 L184,130.5 L179.3,128.7 C179.3,128.7 179.7,128.5 179.7,125.2 C179.7,121.6 178.9,120.1 177.3,118 C176,116.2 175.4,116.1 179.3,116.6 C187.3,117.7 193.1,109 189.9,102.1 C188.7,99.5 188.8,99.3 192.1,99 C201.1,98.1 204.6,86.7 198.2,81 C196.9,79.8 197.5,79.1 199.9,79.6 C207.7,81.3 213.7,72.7 210.6,65.9 C209.6,64 210.5,63.7 211.9,63.5 C218.7,62 220.9,56.8 220.7,51.6 L220.7,51.6 Z M161.2,51.6 L195.7,51.6 C191,58.7 199.2,62.9 200.3,62.4 C192.9,66.5 194.9,72.2 198.8,74.2 C202.5,76.1 208.2,74.4 206.7,66.1 L208.5,65.3 C210.3,67.3 212.1,79.9 198.4,78.2 C196,77.9 194.6,80.2 196.7,81.4 C207.5,93.9 190.6,99.3 189.8,97.3 L189.7,95.2 C194.3,96 200.2,90.1 195,84.9 C192.1,81.9 183.6,83.4 185,92.4 C180,84.9 174.5,87.2 173,91.1 C171.9,94.2 173.3,98.4 178.3,99.1 C172.7,103.8 175.4,109 179.3,110.2 C183.5,111.5 187.9,109.7 186.7,102.1 C186.8,101.4 188.2,101.6 188.4,101.6 C192.8,112.5 182.3,116.5 176.7,114.3 C174.6,113.5 173.5,116.7 175.7,118.4 C179.1,120.9 178,128.1 177.6,128.1 C171.3,125.7 162.3,124 162.7,124.1 C168.8,100.3 168.4,76.2 161.2,51.6 L161.2,51.6 Z M216.3,51.6 L219.4,51.6 C219.4,56.1 217.5,61.6 209.9,62.4 C209.9,61.2 209.8,60.1 209.5,58.8 C212.4,58.2 216.2,59 216.3,51.6 L216.3,51.6 Z M229.9,51.9 L239.9,51.9 L193,135.1 L185.5,131.3 L229.9,51.9 Z M205.4,58.2 C207.2,58.2 208.6,59.6 208.6,61.4 C208.6,63.2 207.2,64.6 205.4,64.6 C203.6,64.6 202.2,63.2 202.2,61.4 C202.2,59.6 203.6,58.2 205.4,58.2 L205.4,58.2 Z M107.6,59.7 C100.1,79.2 85.7,90.9 75.1,110.5 C64.1,130.4 69.1,147.5 84.6,150.7 C92.8,152.4 102.3,144.4 103.5,135.8 C103.8,133.7 104.1,133.1 105.1,133.1 C106.5,133.1 106.4,136.7 105.5,141.6 C103.3,154.5 98.9,162.4 95.5,167.3 L122.4,167.1 C116.9,160.5 112.7,151.7 111.8,140.7 C111.1,134.7 111.6,132.1 113.5,133.2 C114.1,133.5 114.3,134.1 114.6,137.2 C115.6,147.9 126.7,153.7 135.8,149 C148.3,142.4 147.9,130.1 145.1,121.1 C136.6,97.5 117.6,82 107.6,59.7 L107.6,59.7 Z M25.4,67 C28.6,69.7 31.8,72.8 34,75.6 C30.9,77.8 27.6,78 25.6,76.8 C23.3,75.6 22.4,72.7 22.2,67.8 C22.1,65.2 23,65.1 25.4,67 L25.4,67 Z M29.3,92.8 C29.4,92.8 24.4,102.9 20.8,108.4 C18.2,113.2 11.8,121.6 13.5,128.3 C15.5,135.3 22.9,137 26.9,131.7 C28.8,129.2 29.2,129.5 29.1,132.3 C29.1,137.7 26.2,140.7 24.1,143.4 L37.7,143.5 C34.8,140 32.2,137.2 31.9,132.5 C31.9,130.7 32.4,129.4 33.7,131.4 C35.1,132.8 36.3,135.3 40.1,134.6 C44.1,133.9 47.5,128.7 46.7,123.8 C45.6,118 42,112.3 38.4,107.4 C35.3,103 29.1,93 29.3,92.8 L29.3,92.8 Z M185.4,94.5 C187,94.5 188.3,95.8 188.3,97.4 C188.3,99 187,100.4 185.4,100.4 C183.8,100.4 182.5,99.1 182.5,97.4 C182.4,95.8 183.7,94.5 185.4,94.5 L185.4,94.5 Z M339.7,96.8 L347.6,110.6 L338.5,126.6 L330.9,111.2 L339.7,96.8 Z M339.5,101.5 L333.9,110.7 L339,120.1 L344.8,111.1 L339.5,101.5 Z M339.6,105.5 L342.5,111.1 L339,116.7 L336.1,110.7 L339.6,105.5 Z M332,124.2 C332.6,124.2 333.2,124.3 333.9,124.6 C339.2,126.8 337.5,135 331.8,134.5 C331,134.4 330.1,134 329.3,133.6 C325.4,130.3 327.8,124.2 332,124.2 L332,124.2 Z M345,124.4 C349.7,124.5 352.5,131 347.6,134 C345.2,135.3 341.7,134.5 340.3,132.2 C339.1,130.2 339.6,126.8 342.3,125.1 C343.2,124.6 344.2,124.3 345,124.4 L345,124.4 Z M338.5,133.6 C339,133.6 339.5,135.9 339.9,139.8 C340.1,141.2 340.5,144.8 340.9,147.7 C341.3,150.6 341.7,153.9 341.8,155.1 C341.9,156.2 342,157.3 342.1,157.6 C342.2,157.8 342.4,159.3 342.5,160.9 C342.7,162.5 342.9,164.7 343,165.9 C343.1,167.1 343.4,169.6 343.7,171.5 C346.4,191.2 347,197.4 346.4,199.1 C344.7,205 336.7,205.4 333.4,202 C330.9,199.4 330.5,196.6 331.5,189.2 C332.1,184.9 332.3,182.8 334,166.5 C334.4,162.7 335,157.6 335.3,155.2 C335.6,152.8 335.9,150 336,148.9 C336.1,147.8 336.4,145.4 336.6,143.6 C336.8,141.8 337.4,138.1 337.6,136.7 C337.9,134.6 338.2,133.6 338.5,133.6 L338.5,133.6 Z M207.5,148.2 C207.5,148.2 233.1,156.6 252.6,156.3 C255.5,156.3 255.9,156.3 259.5,157.4 C261.6,158.1 264.9,159 266.9,159.5 C272.9,160.7 278.2,160.3 282.9,158.4 C283.6,158.1 284.7,157.2 285.8,157.5 C286.5,157.7 287.4,159 287.4,159 C270.3,163.5 230.4,162.7 205.6,152.2 L207.5,148.2 Z M339.2,150.9 C339.1,150.9 339,151.1 338.9,151.3 C338.5,152 338.8,156.3 340.4,170 C343.4,196.3 343.3,196.9 339.8,199.6 C338,201 337.8,201.5 338.6,202 C339.2,202.4 339.2,202.4 340.5,202 C343.5,201.2 344.8,198.8 344.7,193.9 C344.7,190.2 344.6,189.7 343.5,180.5 C343.1,177.3 342.5,172.8 342.3,170.5 C340.2,154.2 339.7,150.8 339.2,150.9 L339.2,150.9 Z M204.9,153.7 C230.4,162.8 257.1,165.4 289.2,160.5 C289.2,160.5 292.3,162.5 293.8,163.5 L292.7,163.8 L293.2,168.2 L298.7,167.3 C298.7,167.3 301.6,169.6 303.8,171.1 C275.2,179.8 228.9,178.3 200.4,165.7 C199.3,165.1 198.7,164.6 198.7,164.6 C199.3,163.1 200.1,162.2 200.8,161.3 L206,162.8 L207.5,158 L203.5,156.5 L204.9,153.7 Z M211.6,159.4 L209.9,164.1 L217.2,166.3 L218.4,161.5 L211.6,159.4 Z M222.8,162.3 L221.8,167.6 L229.1,169 L230,163.8 L222.8,162.3 Z M234.9,164.8 L234.3,169.9 L242.1,170.7 L242.6,165.5 L234.9,164.8 Z M288.2,164.8 L281.6,165.5 L282,170 L288.7,169.2 L288.2,164.8 Z M276.5,166.2 L270,166.6 L270.2,171.3 L276.8,170.9 L276.5,166.2 Z M247,166.3 L247,171.3 L253.7,171.6 L253.8,166.4 L247,166.3 Z M265.5,166.9 L259.3,166.9 L259.3,171.7 L265.5,171.7 L265.5,166.9 Z M193.8,167.7 C194.5,167.7 196,169.2 196.6,170.8 C197.8,174.1 197.3,177.7 195.3,178.9 C192.7,180.5 189.6,178 191.4,175.7 C191.7,175.3 192.2,174.9 192.6,174.8 C194,174.4 194.3,172.2 193.5,168.5 C193.4,168 193.5,167.7 193.8,167.7 L193.8,167.7 Z M203.7,169 C231.3,178 262.6,181.1 294.9,174.5 C294.9,174.5 279.6,237 279.3,237 L203.7,169 Z M190.1,169.2 C191.6,169.2 191.8,171.7 190.5,173 C188.8,174.7 185.6,173.3 186.3,171.2 C186.5,170.6 189.2,169.2 190.1,169.2 L190.1,169.2 Z M198.1,170.6 C198.4,170.6 199,171.2 199.9,172.4 C203,176.6 203.2,181.2 200.5,183.4 C197.2,185.9 194.9,182 197.6,178.6 C198.3,177.7 198.4,176.1 198,172.5 C197.7,171.3 197.8,170.7 198.1,170.6 L198.1,170.6 Z M305.1,172.1 C305.5,172.1 306.1,172.4 307.4,173 C309.4,174 310.1,175.4 309.1,176.5 C307.7,178.2 303.9,174.9 304.6,172.6 C304.7,172.3 304.8,172.1 305.1,172.1 L305.1,172.1 Z M302.1,174.3 C302.6,174.3 303.4,175.3 304.3,177.1 C304.9,178.3 305.2,178.6 306.2,179 C308.6,179.9 309,182.3 306.9,183 C304.6,183.8 303,182.2 301.9,178.2 C301.3,175.6 301.5,174.2 302.1,174.3 L302.1,174.3 Z M203.4,176.1 C203.7,176.1 204.4,176.9 205.4,178.4 C208.5,183 207.4,191.7 203.5,193.7 C201.8,194.6 200.6,194.4 199.2,193 C197.2,191 197.7,189.4 200.7,188.3 C203.2,187.4 204.1,184.5 203.3,179.2 C203,177.1 203,176.1 203.4,176.1 L203.4,176.1 Z M218.1,177.5 C237,193 254,209.7 275.9,229.2 C281.1,213.2 288.7,179.9 288.7,179.8 C287.9,180.4 251.9,185.5 218.1,177.5 L218.1,177.5 Z M300.4,177.5 C300.7,177.5 301.6,179.8 302.1,182 C302.6,183.9 304.4,187.2 305.2,187.3 C308.9,187.9 310.5,190 308.7,191.8 C307.4,193.1 304.4,192.4 303,190.3 C300.4,186.5 298.6,177.5 300.4,177.5 L300.4,177.5 Z M90,179.7 C92.2,179.7 94.4,181.1 94.9,184 C95.5,187.4 93.6,189.8 92,189.5 C90.2,188.8 89.6,186 89.6,186 C89.6,186 89.2,188.3 88.5,189.4 C86.9,191.8 83.6,188.2 84.2,184.8 C84.8,181.4 87.5,179.7 90,179.7 L90,179.7 Z M224.2,180.6 C244.7,183.7 262.4,184.5 286.9,181.8 L275.4,226.6 L224.2,180.6 Z M208.7,180.6 C209,180.6 209.6,181.2 210.6,182.2 C213.8,185.6 214.7,190.2 212.6,192.6 C211.3,194 210.5,194.2 209.1,193.3 C207.4,192.1 207.3,190.4 208.8,189.5 C210.2,188.8 210.4,187.1 209.2,184 C208.5,181.7 208.3,180.6 208.7,180.6 L208.7,180.6 Z M74.8,181.8 L82.3,184.9 L85,191.2 L77.5,189.3 L74.8,181.8 Z M103.1,182.6 L100.9,188.9 L95.1,191.1 L97.3,184.3 L103.1,182.6 Z M298.8,184 C299.1,184 299.5,184.8 300,186.4 C301.2,190.5 301.8,191.5 302.9,192 C304.7,192.9 304.9,195.1 303.1,195.9 C302,196.4 301.6,196.3 300.8,195.3 C299.6,193.7 298.6,190.6 298.4,187.9 C298.3,185.3 298.5,184 298.8,184 L298.8,184 Z M215.3,186.8 C215.5,186.8 215.8,187.1 216.3,187.7 C219.2,191.2 219.5,196.5 216.9,198.1 C214.4,199.6 210.8,196.5 213,194.6 C213.2,194.4 213.7,194.1 214,193.8 C214.6,193.3 214.7,193.1 214.7,190.1 C214.9,187.8 215,186.8 215.3,186.8 L215.3,186.8 Z M237.5,187.2 L273.4,219.8 L281.6,187.5 C267.4,188.8 252.6,188.4 237.5,187.2 L237.5,187.2 Z M149.2,188.8 C160.5,200.8 175.4,210.5 178.9,222.4 C185.2,238.8 180.6,257.8 165.8,268.7 C157.6,274.9 149.6,281.4 143,289.2 C132.1,300.8 124.8,313.5 117.5,322.8 C116.3,324.3 113,329.2 113,329.2 C113,329.2 111.4,331 106.1,326.5 C91.9,313.9 77.1,304.8 61.9,296.1 L68.3,292.5 C80.9,299.7 96.6,310 110.8,321.9 C110.8,321.9 122,305.5 125.6,300.8 C130.8,294.1 134.4,289.7 139.3,284.5 C151.7,269.2 164.4,264.2 169.7,256.5 C177.5,245.2 177.8,231.8 171.4,220.3 C165.1,209.4 152.8,201.9 144.7,192.8 L149.2,188.8 Z M256.9,189.7 L270.9,189.7 C270.9,189.7 268.8,191.4 267.3,192.5 C266.3,193.2 265.1,193.1 263,192.2 C260.9,191.3 256.9,189.7 256.9,189.7 L256.9,189.7 Z M273,189.7 L276.3,189.8 C273.9,192.9 271.3,194.9 268.1,197.6 C267.7,197.8 267.4,197.9 266.5,197.5 C259.8,195.3 253.6,192.5 247.1,189.8 L252.9,189.8 C252.9,189.8 255.7,190.7 259.9,192.4 C264.7,194.4 266,195 267.8,193.8 C269.6,192.7 271.1,190.8 273,189.7 L273,189.7 Z M279.6,189.7 L278.4,194 C276.4,196.4 272.5,199.3 269.2,202 C268.4,202.4 268.4,202.5 265.1,201.2 C252.6,196.3 246.6,193.2 246.6,193.2 L244.1,190.9 C244.1,190.9 247.4,191.8 249.5,192.7 C251,193.3 253.5,194.2 255,194.8 C256.6,195.4 260.1,196.9 262.4,197.8 C267.8,199.9 267.5,200 272.7,195.4 C278.3,190.5 279.6,189.7 279.6,189.7 L279.6,189.7 Z M90.6,190.1 L96,196.3 L88.7,202.4 L83.2,195.9 L90.6,190.1 Z M297.2,190.1 C298.5,192.4 299.3,195.2 301.3,197.2 C302.8,198.7 303.2,199.8 302.3,200.6 C299.9,202.1 299.5,199.7 298.8,198.2 C297.5,195.4 296,191.8 297.2,190.1 L297.2,190.1 Z M100.3,190.7 C100.4,190.7 100.6,190.7 100.7,190.7 C106.5,190.8 107.9,199.4 102.4,201.4 C100.4,202.1 98.2,201.8 97,200.6 C95.8,199.4 95.7,198.4 96.5,197.8 C97.8,196.9 100.8,196.8 100.8,196.8 C100.8,196.8 98.1,195.9 96.9,195.2 C94.4,194 96.5,190.9 100.3,190.7 L100.3,190.7 Z M219.9,190.7 C220.2,190.7 220.8,191.4 221.6,192.7 C224.5,197.5 224.4,206.7 221.3,209.1 C219.7,210.3 217.7,210.1 216.4,208.7 C214.6,206.8 215.2,204.8 217.8,203.7 C220.3,202.6 220.8,200.1 219.8,194 C219.4,191.8 219.4,190.7 219.9,190.7 L219.9,190.7 Z M78.9,190.9 C80.6,190.8 82.3,191.5 83.1,192.9 C83.7,193.9 83.4,194.6 82.3,195.2 C80.9,195.8 78.2,196.3 78.2,196.3 C78.2,196.3 80.8,196.7 82.4,197.4 C84.4,198.3 84.2,199.9 81.3,201.2 C75.8,203.8 70.5,196.6 75.1,192.5 C76.2,191.5 77.6,190.9 78.9,190.9 L78.9,190.9 Z M224.6,194.4 C224.6,194.4 224.7,194.4 224.7,194.4 C225.2,194.5 226.1,195.2 227.1,196.5 C230.4,200.9 231,207.4 228.2,208.7 C225.2,210.1 223.1,207.3 225.2,204.8 C226.7,203.1 226.5,200.5 224.5,195.5 C224.2,194.8 224.3,194.4 224.6,194.4 L224.6,194.4 Z M295.9,194.6 C296.2,194.6 296.6,195.6 297.4,197.8 C299.1,202.5 300.5,204.4 302.2,204.4 C304.4,204.4 305.5,207.4 303.8,208.6 C300.4,211 296,205.2 295.7,197.9 C295.6,195.7 295.6,194.6 295.9,194.6 L295.9,194.6 Z M278,196.9 L277,200.7 C277,200.7 274.7,202.9 273,204.4 C270.4,206.7 269.7,207.1 267.7,206.4 C264.5,205.3 261.4,204.3 258,203.3 L250.3,197 L267.8,203.8 C267.8,203.8 269.3,204.2 269.9,203.7 C272.2,201.4 274.8,199.6 278,196.9 L278,196.9 Z M294.5,200.5 C294.7,200.4 294.9,200.7 295.1,201.4 C295.9,205 297,207.6 298,208 C299.2,208.5 299.7,209.6 299.2,210.7 C297.7,213.8 293.8,208.3 293.8,203.1 C293.8,201.6 294.2,200.6 294.5,200.5 L294.5,200.5 Z M231.3,200.7 C231.5,200.7 231.9,201 232.4,201.5 C234.8,203.9 235.6,210.6 233.6,212.6 C230.8,215.4 227.8,211.2 230.5,208.3 C231.2,207.5 231.2,207.5 231,204 C231,201.7 231,200.8 231.3,200.7 L231.3,200.7 Z M84.6,201.4 L82.7,207.7 L76.6,209.3 L78,204.1 L84.6,201.4 Z M91.9,202 C92.4,202 92.9,202.2 93.5,202.6 C96,204.4 96.2,207.4 95,209.7 C93.9,211.9 91.6,212.5 89.5,212.3 C86.7,212 84.5,210 84.7,207 C84.7,205.5 85.4,203.8 86.4,203.1 C87.1,202.6 87.7,202.8 88.3,203.8 C88.9,204.8 89.9,207.1 89.9,207.1 C89.9,207.1 89.9,204.7 90.3,203.5 C90.5,202.6 91.1,202.1 91.9,202 L91.9,202 Z M96.5,202.6 L100.9,204.1 L102.6,210 L97.7,208.1 L96.5,202.6 Z M346.4,203.7 C346.4,203.7 347.7,204.2 353.6,209 C355.1,210.2 357.6,212.5 357.6,212.5 L357.5,290.2 C357.5,290.2 345.7,283.8 344.2,282.3 C343.4,281.4 343.8,279 344.1,274.6 C345.5,263 346,254.1 347.5,243.3 C348.5,231.3 350.9,227.9 342.8,222.8 C351.4,217.4 349,208.9 343.6,205.4 L346.4,203.7 Z M275.9,204 L275.1,207.6 C272.3,212.5 269.7,212.2 265.3,210 L260.1,205.6 C263.5,206.3 265.3,207.4 268.6,208.4 C270.2,208.8 270.8,208.6 272,207.5 C273.4,206.2 274.4,205.3 275.9,204 L275.9,204 Z M237.1,205.9 C238.9,207.8 239.3,209.7 239.2,214.4 C238.9,217.8 239,220.2 236.3,222.1 C235,223 232.6,223 231.6,222.1 C229.1,220.4 230.5,217.1 233.7,216.9 C235.8,216.9 236.6,210.1 235.4,205.9 C235.2,205.2 235.3,204.8 235.6,204.8 C236,204.9 236.6,205.3 237.1,205.9 L237.1,205.9 Z M292.7,205.6 C293.1,205.6 293.8,206.6 294.2,208.3 C294.8,210.7 295.7,212.1 297,212.8 C298.7,213.7 299.3,215.4 298.2,216.3 C296,218.3 293.8,215.9 293.1,210.9 C293,210.3 292,205.7 292.7,205.6 L292.7,205.6 Z M339.5,206.5 C344.4,206.6 347.1,210 347.1,214.1 C347,217.1 345.4,220.1 342.4,221.3 C335.3,223.4 331.4,218.6 331.4,214 C331.5,210.2 334.6,206.4 339.5,206.5 L339.5,206.5 Z M241.4,209.1 C245.5,213.2 245.7,221.9 241.7,221.9 C236.9,220.3 240.6,217.5 240.7,216.7 C241.1,213.7 240.4,211.8 239.7,208.9 C239.3,207.4 240.9,208.7 241.4,209.1 L241.4,209.1 Z M339.7,208.8 C338.8,208.8 338.9,209.6 340.5,211 C343.3,213.5 342,218 338.3,218 C336.6,218 336.2,219.1 337.7,219.7 C343.3,222 347.1,213.4 342.1,209.9 C341.1,209.1 340.2,208.8 339.7,208.8 L339.7,208.8 Z M125.4,209.9 C129.9,211.4 131.5,220 131.6,223.1 C131.8,228.4 129.3,237 127.1,238.7 C121.4,243.2 118.8,227.4 123.6,217.2 C124,216.4 124.6,215.2 124.4,213.2 C124.2,211.1 124.6,209.9 125.4,209.9 L125.4,209.9 Z M274.4,210.7 C274.4,210.7 273.8,213.3 273.2,214.7 C272.5,216.3 272,216.4 270.4,215 C269.5,214.2 268,212.6 268,212.6 C269.4,212.8 270.7,213.6 271.9,213 C273.2,212.3 274.2,211.1 274.4,210.7 L274.4,210.7 Z M291.5,210.9 C291.8,210.9 292.2,211.8 292.8,213.6 C294.3,218.5 295.6,220.3 297.6,220.3 C300.8,220.3 301.5,224.2 298.5,225.2 C297.4,225.6 297,225.6 295.6,225.2 C293.4,224.6 290.5,217.3 290.9,213.6 C291,211.7 291.2,210.8 291.5,210.9 L291.5,210.9 Z M93,213.7 C94.2,213.7 94.6,214.3 95.3,215.7 C96.1,217.3 98.2,219.4 99.9,220.3 C104.1,222.4 108.6,224 112.8,226.1 C118.2,228.8 123.1,237.2 119.8,238.1 C118.6,238.4 117.2,238.4 116,238.3 C115.6,238.1 114.8,237.2 114.3,236.3 C111.8,232.2 107.2,228.3 100.1,226.4 C95.1,225.1 90.6,218.9 89.6,216 C89.3,215.2 89.3,214.7 90,214.5 C91.3,214 92.3,213.7 93,213.7 L93,213.7 Z M246.1,214.2 C246.3,214.2 246.7,214.4 247.2,215 C250.2,218.2 250.6,224.1 247.9,225.7 C245,227.5 242.4,224.5 244.7,222 C245.7,220.9 245.7,220.9 245.7,217.5 C245.6,215.2 245.7,214.3 246.1,214.2 L246.1,214.2 Z M289.7,217.9 C290.1,217.9 290.6,218.9 291.3,220.9 C292.2,223.7 292.4,223.9 293.4,224.4 C295.2,225.3 295.5,226.7 294.2,228 C291.7,230.5 289.3,226.5 289.3,220.1 C289.2,218.7 289.4,217.9 289.7,217.9 L289.7,217.9 Z M250.5,218.4 C250.7,218.4 251.3,218.9 251.8,219.5 C255.5,223.8 254.7,234 250.6,235.6 C249.2,236.1 248.8,236.1 248,235.8 C244.9,234.5 245.3,231.3 249.1,229.2 C251.9,227.6 249.9,218.4 250.5,218.4 L250.5,218.4 Z M62.8,221.6 L78,229.1 C78,229.1 82.2,237.8 84.1,241.1 C85.4,243.4 88,245.6 85.3,247.1 C80.7,250.2 78.1,252 78.2,253.9 C78.2,255.5 80.2,257 82.8,260.1 C86.5,264.5 86.5,263.5 83.1,270.2 C80.5,274.9 78.3,285.5 78.3,285.5 L63,293.4 C67.5,282.5 72.9,273.3 78.9,266.6 C74.4,263.3 70.7,259.8 66.8,255.3 C69.7,251.4 73.5,248.3 77,244.9 C69.8,236.8 65.3,229.1 62.8,221.6 L62.8,221.6 Z M254.5,221.7 C254.5,221.7 254.6,221.7 254.5,221.7 C255.2,221.7 256.7,223.3 257.9,225.9 C259.5,229.2 259.7,233.3 258.2,234.8 C255.7,237.3 252.4,234.1 254.7,231.4 C256.4,230.2 255.9,227.2 254.6,224 C254.1,222.5 254.2,221.8 254.5,221.7 L254.5,221.7 Z M61.1,223.2 C65,231.6 69.5,238.4 74,244.8 L64.1,255.2 C67.1,258.7 70.8,262.5 76,266.9 C69.7,273.9 65.5,283.8 61.3,293.2 L61.1,223.2 Z M288,223.4 C288.3,223.4 288.8,224.4 289.3,226.5 C289.9,229.1 290.4,229.7 291.9,230.4 C294.3,231.4 294.3,233.7 292,234.6 C291.1,234.9 289.5,234 288.9,232.9 C288,231.3 287.6,229.1 287.6,227.1 C287.4,224.6 287.6,223.3 288,223.4 L288,223.4 Z M342.7,224.9 C346.4,225.9 347.8,229.7 347.1,236.6 C346.1,245.9 345,256.2 344.1,264.7 C343,274.5 342.4,279.6 342.2,280 C341.4,281.2 341.3,276.6 341.9,271.5 C342.7,264.2 343.2,257.8 343.9,250.4 C345.5,234.1 345.1,229 342.2,227.5 C339.9,226.3 338.9,227 340.6,228.6 C343.8,231.1 343.7,232.1 340.3,272.2 C340,276.3 339.8,279.3 339.8,279.3 L335.5,276.6 C335.5,276.6 335.2,273.2 334.8,268 C333.8,258.2 333.2,247.8 332.6,238.4 C331.9,228.4 333.8,224.9 340,224.7 C340.7,224.6 341.8,224.7 342.7,224.9 L342.7,224.9 Z M262.7,230.7 C263.2,232 265.3,241.9 259.8,239 C258.3,238.2 258.2,236.9 259.3,235.6 C260.5,234.2 260.8,232.2 260.2,229.2 C259.8,227.4 259.4,226 259.4,226 C260.4,226.5 262.5,230.4 262.7,230.7 L262.7,230.7 Z M98.1,227.6 C102.8,228.5 107.9,231.2 111.2,234.6 C113.3,236.8 113.2,238.5 109.9,238.7 C106.8,239.2 106.7,239.7 105.3,238.4 C104.6,237.9 103.3,236.6 101.9,236.4 C97.3,235.8 94.9,227 98.1,227.6 L98.1,227.6 Z M287.1,230.2 C287.6,231 287.6,232.6 288.1,233.7 C288.8,236.8 290.9,239.1 292.9,238.8 C294.2,238.6 296,239 296.2,240.6 C296.6,241.9 295.9,243.2 294.5,243.7 C292.9,244.3 291.1,243.9 289.7,242.7 C286.7,240 284.9,231.2 287.1,230.2 L287.1,230.2 Z M264.6,230.3 C266.3,230.9 268.4,236.3 268.7,240.6 C268.7,243.7 268.2,247.5 265.6,248.9 C263.9,249.8 262.2,249.3 261.4,247.9 C260.5,246.1 261.2,244.3 263.1,243.4 C265.4,242.3 266.2,237.6 264.8,232.9 C264.6,232.2 263.5,230 264.6,230.3 L264.6,230.3 Z M85.7,232.6 L98.1,238.9 C96.3,241.4 94.9,243.6 93.9,246.2 C90,241.7 87.9,237.2 85.7,232.6 L85.7,232.6 Z M269.2,234.7 C269.4,234.7 270.1,235.4 270.7,236 C273.8,239 275.1,244.4 273.3,246.4 C271.8,248 269.2,247.9 268.8,246.2 C268.6,245.4 269.5,243.9 269.9,243.1 C270.5,242 270.6,238.9 269.7,236.6 C269.3,235.6 268.9,234.7 269.2,234.7 L269.2,234.7 Z M183.4,235.9 L197.4,236.4 L244.2,278.5 L239.8,278.4 L196.8,239.2 L183.4,239.2 L183.4,235.9 Z M103,243.5 C97.7,252 96.2,262.6 99.5,272.1 C102,278.8 96.6,279.2 94.3,274.8 C92.6,271.5 91.6,265.7 92.1,259.6 C92.8,249.7 97.4,239.7 101.1,238.5 C104.8,237.3 104,242.2 103,243.5 L103,243.5 Z M294.6,263.9 C293.2,270.5 290.6,273.8 286.8,275.2 C271.5,280.8 264.9,250 279,242.7 C292.6,238.2 296.5,255.2 294.6,263.9 L294.6,263.9 Z M182.5,243.8 L195.7,244.1 C207.7,255 220.6,265.2 233.4,278.5 L227.2,278.5 C227.2,278.5 225.4,276.8 224.9,276.4 C213.3,266 204.7,257.6 193.5,247.9 L181.8,247.6 L182.5,243.8 Z M283,245.8 C275.9,246.1 275.3,255.7 275.5,259.4 C276,264.7 278.1,272.4 284.8,271.8 C289.7,271.3 292,265.5 291.5,258.5 C291.1,252 288.4,245.8 283,245.8 L283,245.8 Z M181.3,249 L192.8,249.3 C203,258.2 213.7,267.8 224.4,278.5 L219.4,278.5 C219.4,278.5 218.1,277.2 217.7,276.8 C209,269 200.2,260.3 191.8,253.2 L179.8,252.7 L181.3,249 Z M283.2,249.4 C285.2,250.2 285.6,255.1 283.8,257.1 C282.6,258.5 279.8,255.8 279.6,252.5 C279.4,250.5 281.4,248.7 283.2,249.4 L283.2,249.4 Z M92.3,250 C91.4,253.2 90.8,256.8 90.4,260.6 L85.6,254.5 L92.3,250 Z M286.8,255.9 C288,255.9 288.9,256.9 288.9,258 C288.9,259.2 287.9,260.1 286.8,260.1 C285.7,260.1 284.7,259.1 284.7,258 C284.7,256.9 285.7,255.9 286.8,255.9 L286.8,255.9 Z M189.8,257 L212.8,278.6 L206.2,278.7 L187.3,261.6 L175.3,261.1 L177.6,257 L189.8,257 Z M279.3,257.4 C280.5,257.4 281.4,258.4 281.4,259.5 C281.4,260.7 280.4,261.6 279.3,261.6 C278.1,261.6 277.2,260.6 277.2,259.5 C277.2,258.3 278.1,257.4 279.3,257.4 L279.3,257.4 Z M306.7,257.4 C319.7,267.5 338,280.9 357,291.7 C357,291.7 353.9,294.2 351,295 C336.2,286.8 318.6,275.3 307.7,266 C297.4,281.2 277.6,308.8 260,321.5 C248.9,329.4 243.3,339.2 243.3,350.7 C243.3,362.5 247.5,370.2 259.2,379.9 C266.7,386.2 274.9,394.1 274.9,394.1 L270.6,397.8 C269.9,397.7 258,387.5 246,375.4 C239.4,368.8 236.5,354.2 237.6,346.3 C239.1,335.6 242.7,328 252.8,319.7 C256.7,316.7 260.6,314.3 264,310.9 C295.5,277.4 306.7,257.4 306.7,257.4 L306.7,257.4 Z M285.7,262.9 C286.9,265.3 287.5,268.5 283.8,268.8 C281.6,268.9 280.3,265.2 282.2,262 C283.7,259.4 285,261.6 285.7,262.9 L285.7,262.9 Z M174.7,262.3 L187.1,262.7 C187.1,262.7 199.3,273.4 205.5,279.3 L247.1,279.3 C270,279.3 288.8,279.4 288.9,279.5 C289.2,279.8 285.9,284.1 285.9,284.1 L148.6,284.2 C148.6,284.2 157.1,276.7 160.1,274.5 C165.7,270.8 170.6,267.3 174.7,262.3 L174.7,262.3 Z M90.6,267.4 C91.5,270.7 92.2,274.1 93.8,277.2 L84.3,282.3 C86.1,277.2 88.1,272.4 90.6,267.4 L90.6,267.4 Z M355.3,295 C353.4,300.2 348.5,310.7 342.5,318.7 C341.3,320.2 340.5,321.4 340.5,321.4 L352.2,332.6 L342,343.3 C347.7,349.2 352.5,358.3 355,365.5 C350.4,363.7 347.8,362.6 342.2,359.4 C340.6,355.4 339,351.1 337.2,347.4 C333.1,339 333.1,339.8 336.5,337.4 C341.4,333.8 342.9,332.9 341.6,331.1 C340.7,329.8 334.9,322.9 334.5,322.7 C334,322.4 334.2,321.4 335.2,319.7 C338.6,313.6 341.3,306.9 343.1,301 L355.3,295 Z M357.5,295.4 L357.8,365.9 C353.6,357.5 349.3,348.9 344.4,343.5 C344.2,343.1 355,332.6 355,332.6 C351.1,328.9 348.8,326.8 343.2,321.7 C348.6,314 352.9,303.9 357.5,295.4 L357.5,295.4 Z M61.4,297.9 L74.8,305.7 C74.1,315.6 73.2,328.7 71.8,341.9 C70.6,352.2 70.2,357 72,359.8 C73.5,361.9 77.7,364.2 77.7,364.2 C70.7,367 67.9,375.5 75.8,381.7 C75.8,381.7 73.9,383.2 73,384.1 L62,375.9 L61.4,297.9 Z M270.9,301.4 C267.6,305.1 262.3,310.7 258.3,313.3 C252.9,316.8 245.4,323.6 245.8,323.7 C245.8,323.7 237.9,323.7 232.6,323.5 L214.2,307.1 C214.2,307.1 214.9,306.9 189.8,307.1 C157.4,307.4 131.2,307 131.2,307 L134.9,301.8 L270.9,301.4 Z M336.6,304.7 C334.8,310.5 332,315.9 328.4,321 C327.6,317.4 327.1,313.6 325.4,310.6 L336.6,304.7 Z M76.5,306.5 L78.1,307.6 C78.1,307.6 77.1,319.8 76.8,323.3 C76.2,329.9 76,335.8 75.4,342.5 C74.2,355.8 74.4,357.8 77,359.8 C79,361.3 80.4,360.6 78.6,358.7 C77.4,357.2 77.4,357.2 77.1,355 C76.9,353.5 76.9,351.2 77.2,344.9 C79.2,309.8 79.6,308.6 79.6,308.6 L83.6,311.2 C83.4,311.7 87.3,346.6 86.9,355.3 C86.4,365.4 72.8,363.2 72.1,355.7 C71.8,354 74.4,325.5 74.4,325.5 L76.5,306.5 Z M187.8,308.6 L193.2,308.8 L226.2,339.2 L237.5,339.5 L236.5,343.3 L225.6,343.3 L187.8,308.6 Z M208.3,308.6 L213.5,308.6 L232.4,325.7 L244,325.9 L241.8,329.2 L230.2,328.9 L208.3,308.6 Z M201.8,308.6 L229.8,333.8 L239.3,334.3 L237.8,337.7 L226.5,337.4 L195.1,308.6 L201.8,308.6 Z M174.8,308.7 L180.6,308.7 L224.3,348 L235.8,348.2 L235.6,351.7 L221.8,351.6 L174.8,308.7 Z M321.9,309.8 C324.2,310.4 325.3,312.6 327,320.9 C328.9,330.6 324.8,346.2 319.6,349.2 C316.9,351.3 314,349.1 315.9,346.3 C322,337.4 322.8,322.8 319.2,314.6 C318.1,312 319.3,309.3 321.9,309.8 L321.9,309.8 Z M136.5,311.2 C150.5,311.4 154.1,340 140.3,344.1 C131.4,345.4 126.8,337.3 125.5,330.1 C124,321 128,311.1 136.5,311.2 L136.5,311.2 Z M128.8,328.5 C129.6,334.2 133.2,340.8 138.4,340.3 C145.2,339.6 146.1,330.5 145.4,325.9 C144.6,320.4 141.5,315.4 136.7,315.1 C129.4,314.6 128.2,324 128.8,328.5 L128.8,328.5 Z M136.3,317.3 C138.3,317.3 139.7,319.9 139.1,323.1 C138.8,325.2 138,327.8 135.6,326 C134.5,325 133.5,322.1 133.8,319.9 C134,318.5 134.7,317.3 136.3,317.3 L136.3,317.3 Z M328.8,323.9 L335.4,331.5 L328,336.7 C329,332.7 329.3,328.5 328.8,323.9 L328.8,323.9 Z M141.1,324.6 C142.3,324.6 143.2,325.6 143.2,326.7 C143.2,327.8 142.2,328.8 141.1,328.8 C139.9,328.8 139,327.8 139,326.7 C139,325.6 139.9,324.6 141.1,324.6 L141.1,324.6 Z M133.4,325.9 C134.6,325.9 135.5,326.9 135.5,328 C135.5,329.1 134.5,330.1 133.4,330.1 C132.2,330.1 131.2,329.1 131.2,328 C131.2,326.9 132.2,325.9 133.4,325.9 L133.4,325.9 Z M137.7,328.7 C138.8,329 139.5,330 140,330.9 C141.4,333 141.6,335.7 140.6,336.8 C138.5,339.2 135.3,336.6 135.7,332.9 C136.1,330.1 136.8,328.4 137.7,328.7 L137.7,328.7 Z M156.1,337 C159.2,337 160,340.6 157.4,342.4 C155.7,343.5 155.3,347.3 156.4,352.5 C157.3,356.2 156.8,356.8 154.6,353.4 C150.7,347.3 151.6,337 156.1,337 L156.1,337 Z M148.9,339 C151.6,338.9 152.4,341 150.9,342.5 C150,343.5 150.1,346.2 151.1,348.4 C152.5,351.6 152.2,352.6 149.5,349.5 C145.7,345.5 145.8,339.1 148.9,339 L148.9,339 Z M326.6,340.6 C329.6,344.7 332.4,349.9 334.8,355.9 L321.6,349.8 L326.6,340.6 Z M133.3,356.9 C132.4,355.8 131.9,352.3 131.1,350.8 C130.5,349 130,348 129,348 C123.4,348.5 123.6,343.1 126.8,342.1 C133.6,340 136,356.1 133.3,356.9 L133.3,356.9 Z M161.1,351.5 C160.1,354.3 160.8,356 161,359 C161.2,360.4 161.2,360.7 160.1,359.7 C157.4,357.4 156,349.5 158.4,348 C161.7,346 162.6,349.3 161.1,351.5 L161.1,351.5 Z M293.6,347.7 C294.9,347.6 296.4,348.6 297.1,350.5 C298.1,353.2 298.1,359.7 297.5,363.2 C296.7,368.5 295.4,373.4 294.9,377.1 C293,379.3 288.4,371.5 288,365.2 C287.3,360.3 289,350 292.8,347.9 C293,347.8 293.3,347.8 293.6,347.7 L293.6,347.7 Z M311.4,348.6 C312.6,348.6 312.3,348.9 313.2,349.8 C314.5,351.2 315,351.5 316.9,352.1 C320.7,353.3 324.9,358.6 323.3,360.2 C322,361.2 318.6,359.3 317.4,358.9 C316.1,358.5 314.5,357.9 313.9,357.7 C310.7,356.6 306.1,350.8 307.6,349.6 C308.2,348.9 310.6,348.6 311.4,348.6 L311.4,348.6 Z M302.2,349.6 C304.6,349.6 305.2,350.2 306.5,352.7 C308.5,356.5 312.2,359.1 317.6,360.6 C324.5,362.7 330.4,366.7 330.1,374 C328.5,374 326.8,374.1 325.2,374.6 C323.3,369.3 318.6,366.2 314.5,365.3 C305.1,363.2 296.4,353.7 298.9,349.9 C300,349.4 301.1,349.5 302.2,349.6 L302.2,349.6 Z M140.3,350 L221.4,420.6 C187.2,407.9 155.8,408.2 125.5,412.9 L140.3,350 Z M174.9,354.7 C174.8,356.9 171.7,357.4 171.1,357.9 C169.6,359.2 169.8,363 170.4,367.5 C170.9,370.2 170.2,370 168.8,368 C166.3,364.3 166.4,357.9 168,354.1 C170.2,349.2 175.1,351.6 174.9,354.7 L174.9,354.7 Z M128.3,351.2 C131.4,351.5 132.3,355.8 132.4,358.6 C132.4,362.5 131.3,362.3 130.7,358.6 C130.4,357 129.9,356.3 128.6,355.9 C125.5,355 125.3,351.2 128.3,351.2 L128.3,351.2 Z M166,355.6 C165.2,356.5 165.2,360.6 165.9,363.3 C166.3,364.8 165.6,364.9 164.5,363.7 C161.1,359.8 160.8,353.1 164,351.8 C166.5,351.2 167.1,354.3 166,355.6 L166,355.6 Z M130.9,363.4 C131,367.3 130.1,367.7 128.9,363.9 C128.6,363 128.1,362.2 127.7,361.9 C125.5,360.4 125.1,359.2 126.4,357.9 C129.5,355.4 130.8,362.3 130.9,363.4 L130.9,363.4 Z M142.7,360 L131.7,406.9 C158.7,404.6 171,404.2 200,409.8 L142.7,360 Z M175.5,360.8 C177.1,361.2 177.7,363.4 175.8,365.4 C175.2,366.2 174.6,367.5 175.4,370.8 C176.5,375.3 174.7,373.9 172.5,369.6 C171.1,366.8 171.7,359.8 175.5,360.8 L175.5,360.8 Z M123.8,360.9 C126.7,360.9 129.5,365.7 129.5,370.9 C129.5,375.1 128.9,374.8 127.4,370.8 C126.3,368.1 125.4,367.2 123.4,366.5 C119.6,365.2 119.9,360.9 123.8,360.9 L123.8,360.9 Z M143.6,362.3 L194.5,406.8 C173.7,403.5 153.2,403.2 133.3,405.7 L143.6,362.3 Z M186,363.9 C190,363.9 191.6,368.8 186.7,370.6 C183.8,371.6 185,377.5 185.6,381 C185.8,382.3 185.4,382.4 184.5,381.2 C181.4,376.7 179.7,365.3 186,363.9 L186,363.9 Z M180.6,369.5 C179.9,370.6 179.8,371.9 180.3,374.1 C181.6,378.9 181.9,379.7 179.2,377.3 C176.4,374.3 175.1,368.3 177.5,366.6 C180.2,364.6 182.6,366.8 180.6,369.5 L180.6,369.5 Z M80,365.8 C84.7,365.8 88.2,368.8 88,373.1 C87.8,377.8 84.9,380.8 80.5,381 C75.7,381.3 72.7,377.4 72.6,373.4 C72.5,369.9 74.7,365.8 80,365.8 L80,365.8 Z M79.9,367.7 C74.5,367.7 72.5,374.8 76.9,378.1 C78.8,379.5 80.3,379.1 78.8,377.6 C75.8,374.8 77,370.1 80.9,369.3 C82.9,368.8 82.1,367.7 79.9,367.7 L79.9,367.7 Z M145.8,368.9 L139.3,400.5 C152.6,398.4 168.7,399.1 181.2,400.2 L145.8,368.9 Z M123.8,370.1 C127,369.9 128,374.8 128,376.7 C128,379.2 127.7,380.5 127.2,379.2 C126.1,376 125,374.3 123.9,374.3 C123.3,374.1 122.7,373.9 122.2,373.3 C121.1,371.8 122.2,370.2 123.8,370.1 L123.8,370.1 Z M146.4,371.4 L150.7,375 C147.9,373.8 145.6,376.9 145.6,376.9 L146.4,371.4 Z M190.5,377.3 C189.3,378.9 189.3,382.2 190.2,386 C190.5,387.1 189.5,386.3 188.5,385 C186.6,382.6 185.7,379.7 186,377.4 C186.4,371.6 193.9,372.7 190.5,377.3 L190.5,377.3 Z M122.6,374.5 C125.4,374.8 126.4,380.6 126.4,382.4 C126.3,384.2 125.9,385.5 125.5,384.4 C124.8,382 123.3,378.5 122,377.7 C119.9,376.3 120.5,374.7 122.6,374.5 L122.6,374.5 Z M335.3,381 C335.4,383.1 334.5,385.2 333.3,385.8 C332,386.5 331.2,385.6 330.5,383.2 C329.9,381.5 329.7,380.8 329.7,380.8 C329.7,380.8 329.2,383 329.1,383.4 C328.1,386.4 324.8,386.4 323.5,383.1 C322,379.2 326.1,375.2 329.2,375.3 C332.6,375.5 335.1,377.7 335.3,381 L335.3,381 Z M149.8,376.6 C150.8,376.6 154.6,378.3 154.6,378.3 L158.4,381.6 C158.4,381.6 154.9,380.1 153.7,379.7 C150.8,378.7 150.8,378.7 148.5,380.6 C146.1,382.6 144.1,384 144.1,384 L144.9,379.7 C144.8,379.8 148.3,376.6 149.8,376.6 L149.8,376.6 Z M125.1,387.2 C125.7,391.7 124.4,392.1 123.2,387.8 C122.1,384.1 121.1,382.8 119.3,382.8 C116,383.3 114.9,378.4 117.9,377.4 C123.4,375.8 124.8,385.4 125.1,387.2 L125.1,387.2 Z M316.4,377.2 L321.6,379.6 L322.7,384.9 L318,383.7 L316.4,377.2 Z M201,377.7 C206,376.3 206.6,382.5 202.8,383.4 C200.5,384 200.5,387.5 201.2,392.8 C201.3,394 201.7,395.4 201.6,395.6 C201.2,396.5 200.1,395.1 198.5,391.8 C196,385.7 196.8,378.9 201,377.7 L201,377.7 Z M342.6,377.6 L341.2,383.8 L336.8,383.5 L336.6,379.7 L342.6,377.6 Z M195.9,381.7 C193.5,385.2 195.7,388.3 196.2,391 C196.3,392.6 194.3,391 193.1,388.7 C190.7,383.9 190.5,380.1 192.7,378.3 C195.8,376.6 197.2,379.8 195.9,381.7 L195.9,381.7 Z M151.2,380.8 C152,380.8 153.2,381.3 155.6,382.2 C157.4,382.9 161.6,384.6 161.6,384.6 L167.2,389.5 C167.2,389.5 162.3,387.7 158.9,386.3 C151.2,383.1 152.3,383 146.3,387.6 C144.6,388.9 142.7,390.4 142.7,390.4 L143.4,386.5 C143.4,386.5 145.7,384.2 148.5,382.2 C149.8,381.2 150.4,380.8 151.2,380.8 L151.2,380.8 Z M80,382.7 C83.9,382.6 86.5,385.7 87.4,389.2 C87.9,391.2 87.5,393.1 87.4,395 C84.7,415.7 83.5,435 81,454.2 C80.7,455.1 80.4,454.8 80,453.1 C77.1,435.7 75.2,416.6 72.8,399.4 C72.2,393 70.6,384.5 78.7,382.9 C79.2,382.7 79.6,382.7 80,382.7 L80,382.7 Z M79.7,385 C78,385.1 75.9,386.3 75.2,387.8 C73.7,390.9 74.1,397.3 76.9,416.4 C77.1,418 77.5,420.6 77.6,422.3 C78.1,427.4 78.8,431.4 79.2,432.1 C80.1,433.5 80.2,432 79.6,427 C79.3,424.5 78.8,420.6 78.6,418.4 C77.3,409.4 77.1,402.9 76.3,394.7 C75.9,390.6 77.5,387.7 80.6,386.8 C82.3,386.4 82.3,385.6 80.8,385.1 C80.5,385 80.2,385 79.7,385 L79.7,385 Z M339,385.2 C344.7,385.2 346.8,393.2 341.2,396.1 C339.1,397.1 335.6,396.7 334.8,395 C334.4,393.7 334.8,392.9 335.9,392.4 C337.2,391.7 339,391.2 339,391.2 C339,391.2 336,390.6 335.1,389.2 C333.3,386 336.6,385.3 339,385.2 L339,385.2 Z M123.6,393.9 C123.5,395.4 122.8,394.8 122.6,393.9 C122,391.9 120.7,389.7 119.6,388.8 C118.3,387.7 118,386.3 118.9,385.4 C122.1,382.5 123.5,392.9 123.6,393.9 L123.6,393.9 Z M317.8,385.2 C319.3,385.2 321.3,385.7 322.5,386.9 C324.1,388.5 324,389.1 321.3,390.1 C320,390.6 319.1,391 319.1,391 C319.1,391 320.3,391.5 321.2,391.7 C323.8,392.6 323.7,394.1 321.3,395.9 C318,398.3 312.8,395.1 312.8,390.8 C312.9,387.4 315,385.3 317.8,385.2 L317.8,385.2 Z M329.9,385.2 L335.1,391 L329,397.3 L323.3,391 L329.9,385.2 Z M152.2,385.7 C152.3,385.7 152.3,385.7 152.4,385.7 C154,385.7 156.6,386.8 162.9,389.4 C166.4,390.8 170.4,392.4 170.4,392.4 L176.1,397.4 C176.1,397.4 168.3,394.9 165.6,393.6 C165,393.3 163.7,392.8 162.7,392.4 C161.7,392 159.2,391 157.2,390.2 C152.8,388.5 152.8,388.4 151.3,389.7 C150.7,390.2 149.1,391.4 147.9,392.4 C146.7,393.3 144.8,394.7 143.9,395.5 C142.7,396.4 141.3,397.7 141.3,397.7 L142.2,392.8 C142.2,392.8 143,392 144.5,390.9 C145.7,390 147.7,388.4 149,387.5 C150.4,386.4 151.1,385.8 152.2,385.7 L152.2,385.7 Z M208.3,390 C208.5,391 208.4,391.2 207.2,392.4 C205.7,393.9 205.5,396.4 206.6,399.5 C206.9,400.4 207.3,401.4 207.2,401.5 C205.6,403.1 201.6,393.2 202.5,390.3 C203.7,386.9 207.5,386.8 208.3,390 L208.3,390 Z M118.5,390.4 C119.6,390.3 120.8,391.2 121.4,392.9 C123.1,397.6 122.1,403.4 120.3,398 C119.9,396.9 119.1,395.6 118.5,395 C117.9,394.4 116.5,393.6 116.6,392.6 C116.8,391.2 117.6,390.5 118.5,390.4 L118.5,390.4 Z M153.5,390.6 C154.2,390.6 155.1,391 156.7,391.6 C158.2,392.2 162.4,393.6 164.8,394.5 C168.5,395.9 172.4,397.8 172.4,397.8 L164,397.3 C164,397.3 161.2,396.4 159.5,395.7 C153.4,393.2 153.7,393.2 150.7,395.5 C149.6,396.3 148.2,397.7 148.2,397.7 L143.9,397.9 C143.9,397.9 145.9,395.8 148.8,393.6 C149.7,392.9 151,391.9 151.7,391.4 C152.4,390.8 152.9,390.5 153.5,390.6 L153.5,390.6 Z M219,392.2 C221.3,391.8 222.6,394 222.5,395.4 C222.3,396.9 220.9,398.4 218.8,398.9 C218.3,400.6 217,404.5 217.8,410.2 C218.4,412.9 217.3,413 216.1,410.4 C214.1,406.1 211.4,393.7 219,392.2 L219,392.2 Z M212.4,396.8 C211.4,398.9 211.1,400.6 211.6,403.3 C212.2,406.3 212.3,407 210.7,405.1 C207.4,400.8 207,393.8 210,393.1 C212.8,392.3 213.4,395.5 212.4,396.8 L212.4,396.8 Z M114.7,393.6 C119.8,394.4 121.3,403.1 120.6,406.8 C119.3,411.3 119.3,408.3 118.9,406.4 C117.7,401.9 116.2,399.4 114.7,399.2 C110.4,398.4 111,393 114.7,393.6 L114.7,393.6 Z M153.7,395.3 C153.8,395.3 153.9,395.3 153.9,395.3 C155.6,395.6 160.1,397 158.1,397.4 L151.5,397.4 C150.3,397.5 152.4,395.4 153.7,395.3 L153.7,395.3 Z M331.7,396.7 C332.3,396.6 333.2,397.4 334.2,398.4 C336.6,400.8 335.5,404.6 332.3,406.4 C327.3,409.3 321.6,403.8 324.4,398.8 C325.9,396 327.7,396.5 329.2,400.4 C329.5,400.9 329.2,399.9 329.7,398.7 C330.3,397.6 331,396.8 331.7,396.7 L331.7,396.7 Z M323.3,397 L321.8,403 L315.7,405.9 L317.9,398.5 L323.3,397 Z M335.9,398 L340.7,398.4 L343.4,406.2 L336.4,403.2 L335.9,398 Z M221.5,402.5 C225,402.6 225.4,406 223.4,407.4 C222.3,408.5 221.9,410.1 222.1,412.6 C222.2,413.7 222.4,415.1 222.4,415.2 C222.4,415.7 221.9,415.7 221.3,415 C217.6,410.9 218.1,402.3 221.5,402.5 L221.5,402.5 Z M115,403.8 C117.2,403.8 119.8,410.2 118.5,412.7 C117.7,414.1 117,413.8 116.7,412.1 C116.5,410.9 115.8,409.2 114,408.9 C111.4,408 112.2,403.8 115,403.8 L115,403.8 Z M228,407.6 C229.7,408.5 229.9,410.4 228.3,411.5 C227.1,412.4 226.8,413.1 226.6,415.4 C227,420.6 224,417.3 223.8,412.5 C223.6,410 225,406.1 228,407.6 L228,407.6 Z M113.1,409.2 C114.7,409.2 116.6,412.1 116.2,413.8 C116,415.1 115.3,414.9 114.3,413.9 C113.9,413.6 113.1,413.3 112.7,413.2 C110.3,412.4 110.7,409.2 113.1,409.2 L113.1,409.2 Z M158.6,411.4 C180.3,411.3 202.8,414.7 221.5,422.2 L220,425 L215.1,423.3 L213.4,427.8 L217.4,429.3 L215.5,433.4 C193.4,426.1 169.6,420.7 130,426.6 C128,425.2 124.5,422.5 124.5,422.5 L127.7,421.8 L127.3,417.4 L119.3,418.8 L117,416.4 C129.4,413.2 143.8,411.5 158.6,411.4 L158.6,411.4 Z M231.3,412.4 C233.4,412.4 234.7,414.7 233.1,415.7 C232,416.4 229.7,416.6 229.2,416 C228.2,414.9 229.6,412.4 231.3,412.4 L231.3,412.4 Z M155.6,415.1 L155.5,419.7 L162,419.5 L162.1,415.2 L155.6,415.1 Z M167,415.2 L167,419.7 L173.3,419.9 L173.6,415.5 L167,415.2 Z M150.4,415.5 L144,416 L144.2,420.2 L150.6,419.9 L150.4,415.5 Z M179.1,416.2 L178.9,420.5 L185.3,421.2 L185.8,416.8 L179.1,416.2 Z M138.5,416.4 L132.1,417.2 L132.7,421.5 L139,420.8 L138.5,416.4 Z M191.5,417.8 L190.9,422.3 L196.9,423.2 L197.7,418.9 L191.5,417.8 Z M297.1,419.1 C300,423.2 302.8,426.6 304.7,431.2 C307.2,437 308.8,444.7 308.8,450.9 C308.8,454.7 306.2,453.9 305.6,450 C303.3,433.6 283.5,431.1 275.8,446.3 C273.8,450.6 273.4,456 274.5,462 C278.3,483.2 305,503.7 313.4,526 C329.2,493.7 343,488.7 350.2,462.4 C356,442.2 336.3,427.2 322.1,440.3 C319.5,442.7 317.1,447.2 316.8,450.1 C316.2,454.8 314.1,454.1 313.9,450.2 C313.8,446.1 315.6,438.2 318.1,431.2 C319.4,427.5 321.4,422.9 324.1,419.1 L297.1,419.1 L297.1,419.1 Z M203.5,420.4 L202.9,425 L209,426.3 L209.8,422.1 L203.5,420.4 Z M160.2,425.6 C180.5,425.6 199,429.1 214.6,435 C214.6,435 212.6,439.4 211.9,439.8 C200.7,435.3 181.7,431.2 168.8,431 C164.1,430.8 163,430.7 161.3,430.1 C151.5,426.9 142.8,425.5 134.8,430.2 L131.5,427.9 C141.4,426.4 151,425.6 160.2,425.6 L160.2,425.6 Z M382.2,442.6 C382.2,442.6 383.3,444.1 384.1,445 C387.2,448.8 389.2,455.6 387.1,455.6 C386.6,455.6 386.3,455.1 385.6,454.4 C382.8,450.2 377.2,451.7 375,454.8 C372.8,458 372.5,463.1 374.2,466.8 C379.8,478.4 390.6,491.7 390.5,493.2 C396.3,480.3 401,476.7 405.3,467.2 C406.8,462.5 406.8,459.8 405.7,456.2 C404.1,451.3 396.2,449.1 393.4,454.2 C392.5,455.8 391.7,456.2 391.1,455.6 C389.8,454.3 392,447.3 394.6,444.4 C395.1,443.9 395.9,442.6 395.9,442.6 L382.2,442.6 Z M74.5,451.6 C79.1,451.7 81.3,458.8 76.4,461.8 C75.1,462.5 73.4,462.4 72,461.8 C68,459.9 67.7,454 72.4,452.1 C73.1,451.8 73.8,451.6 74.5,451.6 L74.5,451.6 Z M226.2,451.9 C227.9,452.9 234,455.6 234,455.6 L190.9,533.5 L180.5,533.6 L226.2,451.9 Z M87.1,452.1 C89.7,451.8 91.5,454 92.2,455.9 C93.1,458.4 91.5,462.9 86.9,462.7 C81.7,462.3 79.4,452.9 87.1,452.1 L87.1,452.1 Z M235.4,456.1 C236.6,456.7 240.7,457.4 241.1,458.2 C241.3,458.6 240.9,459.4 240.9,460.4 C240.7,462.9 241.3,465.6 242.8,467.8 C245.3,471.2 242.6,469.6 240.1,469.6 C234.6,468.2 227.5,475.7 230.2,483.5 C230.8,485.2 230.7,485.3 227.7,486.3 C221,488.4 218,495.5 221.3,501.9 C223,505.2 223,505.1 220.1,505.3 C211.8,506 207.1,513.3 210.5,520.8 C211,522 210.7,522.3 208.9,522.6 C203.3,523.6 200.7,528.3 200,533.5 L192.5,533.6 L235.4,456.1 Z M242.5,458.9 L256.8,462.8 C250.9,483 250,506.5 257.2,533.6 L224.3,533.6 C228.9,529.5 227.1,523.8 221.7,522.6 C226.9,519.6 226.9,511.7 220.7,510.8 C215.2,510 212.4,515.1 214.9,520.4 L212.6,521 C212.6,521 211.6,519.7 211.3,519 C209.2,513 213.6,507 220.9,507 C225.4,507 226.4,505.7 223.9,502.9 C219.4,497.9 220.8,490.9 226.7,488.2 C229.4,486.9 231,487.8 231,487.8 L231.1,491.1 C231.1,491.1 230,491.2 229.2,491.4 C222.7,492.4 223.9,502.7 230.5,502.6 C234.1,502.6 236.7,499.8 236.7,495.9 C236.7,494.8 236.7,493.2 236.7,493.2 C240,498.9 245.7,499.3 248.2,494.7 C251.1,489.3 245.9,485.8 240.7,486.4 C240.7,486.4 241.8,485.7 242.5,485.3 C248,482.5 246.1,474.3 240,474.3 C235.8,474.3 233.4,478.2 234.7,482.3 C234.9,483 235.4,484 235.4,484 L232.9,484.6 C232.9,484.6 232.3,484.2 232.1,483.8 C227.8,477.1 234.7,469.7 243.4,471.4 C246.6,472.4 246.5,470.2 244.7,468.2 C242.5,465.3 241.1,462.1 242.5,458.9 L242.5,458.9 Z M80.8,461.8 L88.3,475 L79.9,490.2 L71.6,476 L80.8,461.8 Z M80.1,468.7 L74.9,475.9 L80,484.1 L84.8,475.8 L80.1,468.7 Z M79.8,471.4 L83.2,475.9 L79.8,481.5 L76.5,476.3 L79.8,471.4 Z M235.1,485.7 C236.7,485.7 238,487 238,488.6 C238,490.2 236.7,491.5 235.1,491.5 C233.5,491.5 232.2,490.2 232.2,488.6 C232.2,486.9 233.5,485.7 235.1,485.7 L235.1,485.7 Z M391.1,501.4 C388.9,501.5 386.5,502.1 384.1,503.4 C381.4,504.8 381.4,504.8 380.4,504.1 C377.9,502.4 377.1,502 374.2,502 C372.4,502 371.2,502.1 371.2,502.1 L371.4,508.9 C377.6,508.7 379.2,510.8 378,514.5 C376.7,516.2 377,540.4 377.4,549.7 C377.3,554.3 379.3,558.7 382.2,561.3 C386.6,565.2 394.4,564.9 398.9,561.6 C401.9,559.4 403.4,555.8 404,552.1 C404.3,544.5 404.1,536.9 404.1,529.3 L409,529.3 L408.9,522.4 L404.1,522.1 C404.1,522.1 404.2,522.3 404,517.2 C404.3,506.5 398.9,501.5 391.6,501.2 C391.4,501.4 391.3,501.4 391.1,501.4 L391.1,501.4 Z M390.8,508.3 C394.8,508.6 396.5,510.2 397.4,513.6 C398.1,516 398.3,518.9 397.8,519.8 C396.9,521.3 393.4,518.7 388.9,513.2 C387.4,511.3 386.7,510.4 386.7,510.4 C387.4,508.8 389.3,508.2 390.8,508.3 L390.8,508.3 Z M383.5,517.5 C387.7,521.1 388.3,524.7 398.1,528.2 C398.1,528.2 398.4,527.8 398.2,539.8 C398,553.1 397.2,555.8 393.2,556.9 C389.7,557.8 386.5,556.2 385,552.9 C383.5,549.5 383.2,541.4 383.2,525.9 C383.3,520.4 383.5,517.5 383.5,517.5 L383.5,517.5 Z M214.8,521.6 C216.4,521.6 217.8,522.9 217.8,524.6 C217.8,526.2 216.5,527.6 214.8,527.6 C213.1,527.6 211.8,526.3 211.8,524.6 C211.9,522.9 213.2,521.6 214.8,521.6 L214.8,521.6 Z M210.3,523.6 C210,523.7 210.3,526.3 211,527.4 C206.7,527.7 205.6,530.9 205.2,533.7 L201.4,533.7 C202,524.3 210.1,524.1 210.3,523.6 L210.3,523.6 Z" id="Shape" fill="#000000" fill-rule="nonzero"></path>
        </g>
    </g>
</svg>