<?xml version="1.0" encoding="UTF-8"?>
<svg width="411px" height="573px" viewBox="0 0 411 573" version="1.1" xmlns="http://www.w3.org/2000/svg" xmlns:xlink="http://www.w3.org/1999/xlink">
    <!-- Generator: Sketch 61.2 (89653) - https://sketch.com -->
    <title>13C</title>
    <desc>Created with Sketch.</desc>
    <g id="Page-1" stroke="none" stroke-width="1" fill="none" fill-rule="evenodd">
        <g id="13C" transform="translate(1.000000, 0.000000)">
            <path d="M19.7,0.9 L389.5,0.9 C400.3,0.9 409,9.6 409,20.4 L409,552.4 C409,563.2 400.3,571.9 389.5,571.9 L19.7,571.9 C8.9,571.9 0.2,563.2 0.2,552.4 L0.2,20.4 C0.2,9.6 8.9,0.9 19.7,0.9 L19.7,0.9 Z" id="Path" fill="#FFFFFF" fill-rule="nonzero"></path>
            <path d="M19.7,0.9 L389.5,0.9 C400.3,0.9 409,9.6 409,20.4 L409,552.4 C409,563.2 400.3,571.9 389.5,571.9 L19.7,571.9 C8.9,571.9 0.2,563.2 0.2,552.4 L0.2,20.4 C0.2,9.6 8.9,0.9 19.7,0.9 L19.7,0.9 Z" id="Path" stroke="#000000" stroke-width="0.7974"></path>
            <path d="M294.6,55.9 L147.2,56.6 L165.9,92.1 C204.2,88.7 237.8,91.7 272.8,92.9 L294.6,55.9 Z M193.9,180.6 C193.7,180.8 187.8,182.4 188.4,183.7 C204,217.1 211,244.3 217.5,278.7 C220.8,276 226.1,276.1 226.1,276.1 C223.5,263.3 239.6,261.8 239.7,275.1 C242.8,275.8 246,275.8 248.7,278.9 C250,241.3 263.8,201.6 280.6,175.6 C260.8,183.5 232,203 232,203 C232,203 207.7,193.1 193.9,180.6 L193.9,180.6 Z M314.4,184.6 C288,209.6 277.7,279.2 279.6,280.1 C245.6,279 235.3,316.4 264.8,336.7 C263.6,340.6 260.8,343.8 258.5,347.3 C261.5,349 264.9,349.4 268.2,349.8 C270.7,352.8 273.2,356.2 275.9,356.5 C278.9,354.6 281,351.9 283.4,349.5 C286.5,348.7 289.5,347.8 292.5,346.5 C289.9,342.9 286.8,339.2 286.8,335.9 C312.4,317.8 308.9,293.3 285.8,280.7 C292.7,239.3 302.7,212.9 314.4,194.1 L314.4,184.6 Z M132.6,216.6 C129.2,218.2 127.4,221.7 125,224.4 C121.7,224.6 118.4,225.7 115.3,227.1 C115.3,227.1 122.9,237.7 122.5,238.2 C97.7,254.4 97.9,278.2 121.7,293.8 C125.7,327.6 97,381 95.6,379.5 L95.5,390.5 C115.5,368.4 126.8,328.3 128.8,295.3 C169.6,292.6 171,253.2 143,238.4 C140.8,236.4 150.1,227.3 150.1,227.3 C147.8,225 143.8,224.7 140.4,224.4 C138.1,221.8 136.2,219.2 132.6,216.6 L132.6,216.6 Z M305.2,243.8 C311,256.6 332,241 335.7,247.8 C338.7,251.7 345.1,252.1 344.8,245.5 C343.6,239 339.3,237.6 322.5,240.4 C316.1,241.5 313.5,242.1 313.5,239.2 C309,234 305.2,241.2 305.2,243.8 L305.2,243.8 Z M324.8,262.5 C320.1,262.5 319.3,281 319.3,286.5 C305.6,308.1 347.4,305.7 329.3,282.1 C329.9,279 327,274 327.1,271.8 C325.6,271.7 325,263.3 324.8,262.5 L324.8,262.5 Z M83.8,273.7 C76.4,273.9 68.2,280.7 80.1,290.5 C80.9,290.8 79.7,292.8 80.1,296 C83.5,303.2 82.5,313.9 85,312.3 C87.9,310.4 90.3,302.4 89.7,291.3 C89.7,290.6 88.7,289.8 88.9,289 C95.6,277.9 90,273.5 83.8,273.7 L83.8,273.7 Z M159.7,294.4 C157.8,330.5 148.9,366 128.9,396.7 C146.2,388.7 162.9,378.3 179.1,369.4 L217,392.8 C219.2,391.9 220.7,391.4 222.2,390 C204.7,364.5 199.3,327.7 191.7,294.5 C188.8,296.5 183.4,297.6 183.4,297.6 C183,309.1 170.9,312.9 168.4,297.8 L159.7,294.4 Z M68.2,322.6 C64.2,322.9 61.1,332.9 72.6,334.3 C80.7,335.4 91,331.5 96.2,333.3 C102.2,342.8 107.5,328.8 99.6,326.5 C91,324 73.6,330.4 71.7,325 C70.6,323.2 69.3,322.5 68.2,322.6 L68.2,322.6 Z M136.9,479 L114,519.4 L260.1,518.5 L241.1,480 C241.4,479.5 177.3,487.6 136.9,479 L136.9,479 Z" id="Shape" fill="#E2CF00" fill-rule="nonzero"></path>
            <path d="M168.6,95.5 L171,101.2 C202.4,97.4 235.2,93.5 268.1,101.8 C268.1,101.8 270.5,96.6 270.5,96.2 C239.9,88.4 171.4,90.4 168.6,95.5 L168.6,95.5 Z M200.4,175.1 L230.3,194.4 C230.3,194.4 244.6,184.3 250.7,180 L247,174.6 C234.4,202.4 212.2,180.4 203.8,167.3 C203.8,167.3 201.5,172.4 200.4,175.1 L200.4,175.1 Z M280.6,184.4 C282.7,184.4 283.8,185.2 284.9,187.3 C286.1,189.7 286.5,189.1 285.8,186.1 C284.6,181.4 289.6,178.4 294.3,181.5 C297.7,183.8 297.5,189.2 293.8,190.2 C290.8,191 290.7,191.8 293.4,191.7 C298.1,191.5 299.4,197.7 296,200.8 C292.2,204.3 287.2,201.8 286.8,197.4 C286.6,196.1 286.3,196.2 285.9,196.9 C284.7,198.9 284.6,201.6 284.8,204 L277.9,199.7 C280.4,198.5 281.9,197.7 283.7,195.9 C283.9,195.7 284.1,195.5 284.1,195.4 C284.1,195.2 283.3,195.5 281.9,195.6 C277.7,196 274.5,193.3 275.3,189.4 C276,185.9 277.7,184.5 280.6,184.4 L280.6,184.4 Z M250,293.4 C257.6,284.8 266.9,279.2 280,280 C281.7,243.8 294.2,211.6 314.3,182.6 L292.2,169.3 L283.3,174.7 C262,204.9 248.9,243.3 250,293.4 L250,293.4 Z M84.2,208.8 C84.2,208.8 69.2,220 62.3,225.4 L62.6,325.3 L64.5,326 C64.6,326.2 64.3,324.5 65.2,323.7 C65.9,323.1 67.1,322.3 67.8,322.1 C69.7,321.4 69.8,320.1 68,319 C66.6,318.1 66.1,316.8 66.2,314.6 C66.3,313 66.2,312.7 65.6,311.6 C64.8,310.3 64.7,308.6 65.4,306.9 C65.7,306.1 65.7,305.9 65.1,304.8 C64.4,303.4 64.3,301.9 64.8,300.3 C65,299.7 65.1,298.4 65.1,297.3 C65,293.3 68.3,290.7 74.4,289.9 C76.8,289.6 76.8,289.5 75.8,287.5 C69.7,276.3 83.5,270.4 84.5,272.2 L84.2,208.8 Z M273.1,214.3 C278.7,214.2 283.3,218.7 283.4,224.3 C283.5,229.9 279,234.5 273.4,234.6 C267.8,234.7 263.2,230.2 263.1,224.6 C263,219 267.5,214.4 273.1,214.3 L273.1,214.3 Z M273.2,216.2 C268.7,216.3 265.1,220 265.2,224.4 C265.3,228.9 268.9,232.5 273.4,232.4 C277.9,232.3 281.5,228.6 281.4,224.2 C281.4,219.7 277.7,216.1 273.2,216.2 L273.2,216.2 Z M273.4,218.7 C276.4,218.7 279,221.1 279,224.1 C279,227.1 276.6,229.7 273.6,229.7 C270.6,229.7 268.1,227.3 268,224.3 C268,221.3 270.4,218.8 273.4,218.7 L273.4,218.7 Z M72,222.9 C72.4,222.9 72.8,223 73.3,223.1 C75.8,223.9 76.7,226.1 75.3,228.2 C74.2,229.9 74.3,230 76.2,229.3 C77.7,228.8 78.4,228.9 79.6,230.1 C83.1,233.6 77.9,239.4 74.5,235.9 C72.8,234.2 72.6,234.7 73.8,237.7 C74.2,238.7 74.8,240.2 74.8,240.2 L69.8,240.1 C69.8,240.1 70.6,238.1 70.9,237.1 C71.8,234.8 71.8,234.5 70,235.9 C65.9,239.1 61.3,233.6 65,230 C65.8,229.3 67,229.2 68.7,229.9 C69.9,230.4 70.1,230.1 69.2,228.9 C67.2,226.4 69.1,223 72,222.9 L72,222.9 Z M176.1,231.9 C174.1,245.3 175.8,264.1 175.8,274.1 C181.2,275.1 181.3,278.8 182.1,283.5 C184.7,282.6 190.5,286.5 191.3,286.1 C192,272.5 184.9,233.1 176.1,231.9 L176.1,231.9 Z M266.6,245.3 C274.3,245.9 272.8,251.9 270.6,254.3 C269.5,255.6 269.7,256.1 270.9,255.4 C274.2,253.4 276.8,254.9 277.8,258.3 C279.6,264.1 272,269.1 268.6,263.9 C267.4,262.1 266.7,262.5 267,264.4 C267.2,266.2 268.9,269.9 268.9,269.9 L261.3,269.2 C261.3,269.2 263.6,265.3 264,264.3 C264.8,262.1 264.4,261.6 262.8,263.3 C258.1,267.6 251.5,262.1 254.5,256.3 C256,253.5 258.8,252.5 261.8,254.8 C263.8,256.1 264.3,255.6 262.5,253.9 C259,250.9 262,244.9 266.6,245.3 L266.6,245.3 Z M72.3,250 C72.4,250 72.5,250 72.6,250 C73.3,250 73.9,250.2 74.6,250.6 C76.5,251.7 77,253.8 75.8,255.6 C75.1,256.6 75.3,257.3 76.1,256.6 C77.2,255.7 79.5,256.3 80.4,257.7 C82.7,261.4 78.2,266.2 75.3,263.1 C74,261.7 73.5,261.7 73.7,262.6 C74.1,264.3 75.2,267.1 75.2,267.1 L69.9,267.2 C69.9,267.2 71,264.2 71.3,262.7 C71.5,261.5 71,261.7 69.8,263.1 C68.6,264.5 67.5,264.6 65.9,263.6 C62.1,261.1 65.1,254.5 69.1,256.7 C70.5,257.5 70.7,257 69.6,255.6 C67.7,253 69.7,250.1 72.3,250 L72.3,250 Z M345.3,247.7 C336.8,256.5 339.5,251.3 343.4,258 C343.4,262.4 346,265.9 344,272.8 C343.3,274.2 343.3,274.8 343.6,276.2 C343,283.9 336.8,283.8 330.8,285 C331.8,284.9 340.3,300.7 324.4,301.9 L324.6,365.8 L349.5,347.4 L349.4,247.6 L345.3,247.6 L345.3,247.7 Z M158.4,281.4 C151.3,286 141.4,297.3 128.9,294.9 C127.4,334.8 114.3,365.7 95.6,392.2 C102,396 109.1,400.6 115.7,403.5 C121.3,400.6 124.4,399.4 129.9,394.9 C152.4,360.3 159.5,322.4 158.4,281.4 L158.4,281.4 Z M217,288.7 C218.3,309.2 221.6,328.6 232.3,344.2 L233,300.7 C229.2,299.8 226.1,297.3 225,290.4 L217,288.7 Z M140,300.8 L147.1,301 C147.1,301 145.5,304.2 144.8,306 C144,308.2 144.4,308.6 146,307.1 C148.1,305.1 151.5,304.9 153.3,306.7 C158,311.4 153.1,319.1 147.5,315.7 C145.1,314.2 144.7,314.7 146.6,316.8 C150.3,320.2 146.4,325.1 142.1,325.2 C139,325.2 137,322.7 136.7,320 C136.6,318.3 137.4,316.5 138.9,315.7 C140.5,314.8 139.3,314.3 137.6,315.2 C132.1,318.2 128.4,310.5 132.5,306.2 C134.9,303.7 137.5,303.9 139.9,306.3 C141.6,308 142.2,307.8 141.7,305.8 C141.4,303.6 140,300.8 140,300.8 L140,300.8 Z M332.2,306.8 L337.3,306.8 C336.8,308.1 336.1,309.4 335.7,310.6 C335.3,312 335.6,312.1 336.9,310.8 C340.4,308.4 344.2,310.8 343.4,314.5 C342.9,317.1 340.7,318.3 338.2,317.2 C336,316.2 336.7,316.6 338,318.1 C339.5,319.9 339.1,322 337.1,323.4 C333.6,325.9 329,321.8 331.3,318.2 C332.7,316.1 332,316.3 330.8,317.3 C328.9,318.7 326.1,316.7 326.1,314.1 C325.9,310.3 329.8,308.1 332.5,310.8 C333.8,311.9 334.1,311.8 333.5,310.2 C333.1,309.2 332.9,307.9 332.2,306.8 L332.2,306.8 Z M332.5,334.7 L337.9,334.7 C337.9,334.7 337.8,335.1 337,336.6 C336,338.4 336.2,340.3 337.2,339 C338.9,336.9 342.5,337.5 343.7,340.1 C345.1,343.2 342.4,346.6 339.6,345.3 C337.8,344.5 337.7,344.6 338.9,346.4 C340.1,348.1 339.6,350.2 337.6,351.4 C333.8,353.8 329.3,349 332.5,346 C333.3,345.2 333.1,344.8 332.1,345.3 C328,347.5 324.9,342 328.5,338.7 C330,337.3 331.2,337.4 333.7,339.1 C334.5,339.6 334.6,339.1 334.1,337.7 C333,335.3 332.5,334.7 332.5,334.7 L332.5,334.7 Z M134,338 C140,337.9 144.8,342.7 144.9,348.6 C145,354.6 140.2,359.5 134.3,359.5 C128.3,359.6 123.4,354.8 123.4,348.9 C123.3,343 128,338.1 134,338 L134,338 Z M134.1,340 C129.2,340.1 125.3,344.1 125.4,349 C125.5,353.9 129.5,357.8 134.4,357.7 C139.3,357.6 143.2,353.6 143.1,348.7 C143,343.8 139,339.9 134.1,340 L134.1,340 Z M134.2,343.4 C137.2,343.4 139.7,345.8 139.7,348.8 C139.7,351.8 137.4,354.3 134.3,354.3 C131.3,354.3 128.8,351.9 128.8,348.9 C128.8,345.9 131.2,343.4 134.2,343.4 L134.2,343.4 Z M120.6,369.5 L126.8,372.5 C126.8,372.5 123.9,374.9 122.7,376.1 C121.2,377.7 121.3,378.4 123.3,377.7 C127.2,376.2 131,378.4 131.1,382.4 C131.2,387.7 124.9,390.3 121.8,386.3 C120.9,385.1 119.8,384.6 120.2,385.6 C121.2,388 120.6,391 118.8,392.2 C117.4,393.2 114.8,393.5 113.4,392.8 C108.9,390.4 108.6,385.2 113,383.1 C115.2,382.1 115.3,381.1 113.1,381.6 C108.6,382.7 106,377.3 109.2,373.6 C112.6,369.7 118.2,370.5 118.8,376.3 C118.9,377.3 119.6,376.6 119.9,375 C120.6,373.9 120.6,369.5 120.6,369.5 L120.6,369.5 Z M178.6,378.3 C178.6,378.3 155.8,391.3 156.5,391.8 C156.6,391.9 161.6,398.8 161.6,398.8 C172.9,373.2 200,394.4 204.3,407.5 C205.2,408.1 205.4,407.9 206.4,408.4 C206.5,407.5 208.4,398.4 208.4,398.4 L178.6,378.3 Z M142.1,472.4 C141,473.8 137.1,477.9 137.6,478 C171.1,485.2 205.6,484.6 240.8,480.8 L238.1,472.4 C203.4,481.3 142.1,472.4 142.1,472.4 L142.1,472.4 Z" id="Shape" fill="#D40000" fill-rule="nonzero"></path>
            <path d="M57.6,52.5 L59.7,523.2 L353.5,522.2 L351.7,52 L57.6,52.5 Z M146.9,55.9 L293.4,55.3 C286.5,73.1 266.7,101.3 267.7,101.4 C237.2,96.4 205.8,93.8 170.6,101.3 L146.9,55.9 Z M61,57 L143.2,56.9 L170.3,105.5 C170.3,105.5 171.9,108.5 170.9,111.7 C169.9,115.2 169,116.7 168,118.5 C168.1,117.5 160.2,116.5 160.8,123.3 C161.3,127.9 167.1,130.5 171.4,126.9 C172.1,126.8 172.1,127.5 171.9,128.6 C171.5,131.2 168.7,139.6 166.8,140.1 C157.1,132.1 153.6,146.7 160.1,149.6 C163.9,151.3 169.7,149.9 172.5,145.3 C174.6,141.8 174.4,142.4 175,146.6 C175.2,148.2 175.6,150 175.8,150.8 C176.4,153.4 175.8,153.9 171.5,155 C168,156.4 164.5,157.1 160.9,157.9 C154.3,159 151,163.9 150.8,170 C150.8,171.3 150.8,171.9 150.5,172.3 C122.7,182.8 93.2,197.6 62.3,222.8 L61,57 Z M247.4,172.5 C246.4,170.8 243,161.9 242.1,158.1 C239.7,140 239.2,118.6 236.7,101.8 L240.1,102.2 C240.1,102.2 241.4,107.1 242.7,120.2 C243.4,126.7 244.1,140.3 244.7,146.5 C245.6,155.8 249.7,170.6 252.3,174.3 C256.5,180.4 265,176.5 262.2,169.2 C260.7,165.4 255,166.1 255.8,170 C255.8,170.7 256.3,169.5 257.2,168.8 C259.7,167.9 262.4,170.4 261,173.5 C259.2,177.4 253.9,175.6 252.1,170.7 C250,164.8 257.1,160.3 262.4,163.9 C268.3,167.9 268.3,178.2 263.6,181.4 C255.5,184.3 250,178.5 247.4,172.5 L247.4,172.5 Z M267.2,180 C266.9,179.8 267.2,179.2 267.6,177.7 C269.1,172.2 268.2,167.9 264.6,163.8 C262.6,161.5 261.9,161.1 262.9,160.7 C265.1,159.8 270,163.4 271.3,166.9 C272.6,170.3 273,173.9 271.1,177.7 C269.9,178.6 267.8,180.2 267.2,180 L267.2,180 Z M273.3,176.3 C273.3,175.7 273.7,173.6 273.8,172.6 C274.2,168.7 272.4,164.8 269.2,161.8 C266.5,159.2 266.3,159 268.8,158.9 C275.3,158.8 279.5,169.4 276.5,174.6 C275.7,175.4 273.4,177.1 273.3,176.3 L273.3,176.3 Z M278.8,172.7 C280.7,163.7 272,157.7 271.8,158 C272.2,156 275.7,157.1 276.9,157.9 C281.3,160.9 283.8,168.6 281.1,173 C280.8,173.5 280.4,173.9 280,174.1 C279.1,174.7 278.6,175.1 278.4,174.7 C278.3,174.5 278.8,173.2 278.8,172.7 L278.8,172.7 Z M202.2,143.5 C203.1,142.6 203.4,142.6 205.1,143.2 C210.6,145.3 215,141.3 213.7,137.2 C213.2,135.7 211.2,134.1 209.9,134 C207.8,133.8 207.8,134.9 210,135.7 C212.7,136.7 213,139.6 210.6,140.9 C207.8,142.8 203.1,138 199.7,138.4 C198.1,138.9 197,140.4 198,142.3 C198.8,143.6 201.2,144.4 202.2,143.5 L202.2,143.5 Z M196.1,143 C194.2,142.1 193.5,142.1 193.8,140.1 C194,138.7 196,129.5 196.9,126 C199.7,115.4 197.1,109.5 189.2,107.1 C183.9,105.5 179.3,106.3 173.9,109.2 L172.9,106.2 C195.6,100.3 234.4,101.6 234.2,101.8 C235,104.9 235.3,107.9 235.5,111 C235.5,111 228.2,107.4 224.5,106.3 C218.7,104.5 209.4,106.5 207.8,109.8 C206.9,111.7 207.4,113 211.3,110.9 C217.7,107.4 230.8,110.1 235.4,113.7 C236.5,114.5 236.4,114.7 236.4,115.7 C236.4,117.2 236.5,117.3 234.4,116.2 C223.4,110.6 214,111.2 210.7,118.6 C209.9,118.4 207.1,117.9 207.1,117.9 L210.2,122.4 L210.8,127.1 C210.8,127.1 215.8,129.9 218.6,131.1 C221.3,132.2 219.8,131 216.4,128.7 C214,127 215.9,126.5 217.5,127.1 C220.8,127.9 225.7,128.8 231.3,125.3 C233,124.2 237,125.1 237.1,125.6 C237.1,125.6 237.6,129.8 238.2,138.4 C238.5,142.5 239,147.8 239.2,150 C240.1,156.6 240.3,157 236.8,153.8 C235.6,152.7 233.7,151 233.7,151.1 C233.3,153.2 238.4,156.8 239.6,158 C241.4,159.9 242.9,164.7 242.2,165 C241.7,165.2 236.8,161 233,157.3 C231.6,155.9 229.4,154 229.3,154.1 C228.5,154.6 231.7,158.3 234.8,161 C238.3,164.2 238.8,164.5 237.6,165 C235.4,165.9 233.4,164.8 228.1,160.4 C227.6,160 225.6,158.5 225.5,158.6 C225,159.2 229.9,163.9 231,164.3 C233.1,165 233.7,167 232,167.8 C230.9,168.3 226.8,166.1 223.6,163.3 C223,162.8 221.4,161.9 221.3,162 C220.7,162.4 224.3,165.6 227.8,167.7 C231.2,169.7 231.8,170.3 230.9,172 C230.1,173.8 222.6,169.7 218.9,165.5 C218.1,164.6 217.5,164.2 217.6,164.5 C219.2,169 224.6,172.2 228.6,173.5 C229.3,173.7 230.3,174 230.8,174.4 C231.9,175.3 231.7,176.2 230.5,176.8 C226.2,178 219.5,172.8 214.7,167.4 C214.1,167.2 214.5,167.9 214.6,168.1 C218.6,174.5 226.3,179.3 230.9,178.4 C233.6,177.9 235.8,178.7 235.8,179.6 C235.8,180.3 234.3,181.5 231.4,181.7 C224.8,182.2 214.6,175 208.6,165.8 C208.4,165.5 208.2,165.4 208.2,165.6 C208,167.5 211.8,172.3 214.6,175 C223.1,183.1 231.1,185.8 237.4,181.3 C240.9,178.6 244.3,172.6 239.1,170.6 C236.3,169.5 234.5,173.4 236.9,172.3 C240,171.9 240.7,173.6 240.3,175.1 C239.5,177.8 236.8,178.2 234.7,177.1 C230.9,175.1 231.7,168.1 236.6,166.9 C241,165.8 244.8,169.6 245.3,173.1 C246.1,178.6 239.9,184.5 234.9,186 C218,191 204.8,167.5 204.7,167 C203.9,165.4 202.8,164.5 202.2,166.4 C201.5,169.2 197.7,177.2 195.6,177.2 C196.2,174.3 198.9,169.6 198.3,165.4 C197.2,168.8 194.8,176.2 190.2,180.1 C189,181.2 185.6,182.4 187.9,179.7 C190.8,175.7 194.5,170.1 193.8,164.9 C193,166.1 192.6,169 191.7,171 C189.5,175.9 184.7,181.7 181.6,182.6 C179.3,183.3 179.5,182.5 181.9,180 C184.5,177.3 189,169.4 188.7,166 C188.6,164.5 184,179 175.4,183 C173.1,183.8 171.8,182.8 171.8,182.8 C175.2,180.9 184.5,171.7 183.6,161.2 C183.6,161.2 183.1,162.7 182.4,165.1 C179.2,175.1 172.5,181.6 167.2,182.1 C163,182.5 160,180.8 161.1,180.1 C166.6,180.1 171.1,178.3 174.6,172.9 C178.2,167.5 179.5,158.8 177.3,149.5 C175.4,141.2 174.9,133.7 174.2,125.7 C180.2,127.7 186.2,129.1 192.1,126.8 C191.5,129.2 190.5,129.5 189,131.3 C187.9,132.6 188.3,132.9 192.6,129.8 C193.9,128.9 194.3,128.2 194.6,128.4 C195,128.8 194.4,131.2 193.1,136.1 C191.2,143.4 191.7,143.9 198.7,146.7 C200,147.2 200.5,147.7 201,148.3 C201.2,148.6 202.4,150.6 202.5,150.7 C202.8,150.9 202.7,148.6 202.5,148 C202.1,146.5 201.3,145.3 200.6,144.9 C199.4,143.6 197.4,143.5 196.1,143 L196.1,143 Z M328.7,238.3 L328.8,230.7 L336.2,235.9 L336.1,238.4 L328.7,238.3 Z M316.1,239.9 L315.8,99.5 C315.8,99.5 321.5,95.7 324.3,93.9 C326.1,99.5 326.1,111.4 325.4,116.7 C324.3,120.2 323.8,135.6 325.1,143.4 C326.1,149.6 325.9,160 325,164.9 C324.6,166.8 324.9,175.9 325.6,184.3 C326.1,190.7 326,196.5 325.2,199.9 C324.6,202.5 324.8,211.9 325.5,215.5 C326.5,220.8 326.7,237.9 326.2,238.8 C325,240.2 315.5,240.4 316.1,239.9 L316.1,239.9 Z M327.3,93 C327.3,93 333,96.8 335.8,98.6 L335.8,104.7 L327.6,99.3 L327.3,93 Z M242.2,102.8 L245.7,103 C247.1,110.3 247.7,118.6 248.3,127 C248.5,139.8 250.1,153.4 253.1,162.3 L250.5,165 C246.1,154.8 245.7,138.8 244.8,127.9 C244.4,115.6 242.3,102.9 242.2,102.8 L242.2,102.8 Z M328,101.5 L335.7,106.7 L335.8,113.3 L328.1,108.2 L328,101.5 Z M247.3,103.3 L250.4,103.6 C251.3,112.3 252.8,118.2 253.3,127.7 C254,140.1 256.2,150.2 257.5,159.9 L255.2,160.7 C253.7,161.4 251.1,150 249.9,126.9 C249.6,119.9 248.4,112 247.3,103.3 L247.3,103.3 Z M252,103.6 L255.7,104.3 C257.3,126.3 259.9,146.9 262.6,158.7 L259.4,158.9 C255.4,142 255.2,122.5 252,103.6 L252,103.6 Z M257.4,104.4 L260.8,105 C264.9,155.3 267.4,154.6 268.2,156.6 L264.5,158.1 C260.5,143.6 259.7,123.2 257.4,104.4 L257.4,104.4 Z M272.8,153.7 C272.2,155.4 270.8,155.2 269.3,155.4 C267.6,150.8 266.6,145.3 265.9,139.9 C264.4,128.1 263.8,117 262.2,105.3 L266.3,105.7 C266.1,105.8 269.2,146.9 272.8,153.7 L272.8,153.7 Z M185.6,109.6 C190.9,109.9 195.4,112.3 195.8,115.8 C195.9,116.6 195.3,116.2 194.5,115.7 C189.9,112.2 184.7,111.1 178.4,113.3 C177,113.8 175.9,114.6 175.3,114.5 C174.7,114.1 174.6,113.3 175,112.6 C176.4,110 182.9,109.5 185.6,109.6 L185.6,109.6 Z M173.2,116.6 C173.3,122.1 172,125.2 169.1,126.5 C165.6,128 161.1,124.7 163.3,121 C164.9,118.2 167.8,119 168.3,122 L172.8,112.1 C172.7,112.1 173.2,115.2 173.2,116.6 L173.2,116.6 Z M335.8,115.7 L335.7,121.4 L327.5,115.9 L328.1,110.4 L335.8,115.7 Z M190.1,115 C194.1,116.6 195.6,118.6 195.8,119.4 C195.6,120 195.2,119.6 192.2,118 C187.6,115.2 181.7,114.8 176.5,118.3 C175.2,118.6 175.1,117.8 176.4,116.4 C180.3,113.3 185.8,113.3 190.1,115 L190.1,115 Z M220.8,113.9 C224.4,113.8 228.6,114.7 232.2,116.5 C233.8,117.3 235.2,117.8 236.2,118.7 C237,119.1 237.1,121 236.5,121.2 C236,121.3 235.1,120.9 233.7,119.9 C225.2,114.4 219,115 214.1,118.4 C213.8,118.6 213,118.8 212.6,118.8 C211.7,118.7 211.6,118.3 212,117.8 C214.4,115.3 217.8,114 220.8,113.9 L220.8,113.9 Z M327.6,117.9 L335.8,123.7 L335.8,129.4 L327,123.3 L327.6,117.9 Z M178.9,120.2 L180.1,120.2 C182.9,127 186.4,123.5 187.9,120.8 L189.4,121 C187.1,130.2 177.8,125.4 178.9,120.2 L178.9,120.2 Z M176.9,121.1 C178.3,121.3 178.2,122.8 178.6,123.9 C179.5,126.4 175.9,124.3 175.3,123.7 C174.3,122.6 175.8,121.2 176.9,121.1 L176.9,121.1 Z M217.7,120.9 C221.3,126.3 223.3,123.1 225.3,120.7 L226.3,121 C226,124.9 219.5,129 216.4,120.9 L217.7,120.9 Z M228.6,121.5 C229,121.5 229.7,121.8 230.4,122.1 C232.3,122.9 232.2,123.5 230.1,124.4 C226.7,125.9 225.5,126.1 226.5,124 C227.1,122.9 227.5,121.6 228.6,121.5 L228.6,121.5 Z M215.1,122.3 C216,122.9 216.5,123.6 216.6,124.8 C216.7,125.6 214,124.7 214,123.4 C214.1,122.6 214.5,121.9 215.1,122.3 L215.1,122.3 Z M191.3,122.6 C193.1,123.3 192.9,124.1 191.6,124.9 C189.4,126.1 188.4,125.9 189.9,124 C190.5,123 190.7,122.6 191.3,122.6 L191.3,122.6 Z M327,125.4 L335.9,131.7 L335.8,137.5 L326.9,131.4 C326.5,128.9 326.9,127.3 327,125.4 L327,125.4 Z M172.9,134.4 C173.3,134.4 173.5,135.8 173.6,137.9 C173.8,141.3 170.3,146 166.8,147.7 C162.6,149.7 158.1,146.9 158.8,142.8 C159.5,139 164.8,138.9 165,142.4 C164.5,143.3 165.2,144.1 165.5,144 C166.9,143.6 170.1,140.7 171.4,137.5 C171.9,136.2 172.2,134.9 172.6,134.6 C172.8,134.4 172.9,134.4 172.9,134.4 L172.9,134.4 Z M326.8,133.3 L335.7,139.8 L335.7,145.5 L326.9,139.4 C326.6,136.9 326.7,135.1 326.8,133.3 L326.8,133.3 Z M218.7,142.4 C218,143.5 218.6,145.6 220,143.8 C223.6,139.7 228.7,144.8 225.9,148.1 C223.4,151.1 220.3,150.1 213.8,147.6 C209.1,145.8 208.3,146.4 207.2,147.7 C206.2,148.8 206.7,150.9 208,150.9 C211.8,151.8 215.2,152.6 219.1,153.4 C227.5,155.1 232.6,144.3 224.9,140.4 C223.1,139.5 219.3,140.8 218.7,142.4 L218.7,142.4 Z M181.7,143.6 C178.4,146.5 181.1,154.2 185.9,154.9 C186.9,155 188.4,155 190.1,154.5 C193.5,153.5 197.2,151.5 197.3,150.4 C198,145.1 190.1,149.9 189.1,150.5 C186.6,152 184,151.8 182.7,150 C179.7,146 185,141.4 188.3,146.3 C189.1,147.5 188.8,145.4 187.9,144 C186.7,142 183.5,142.1 181.7,143.6 L181.7,143.6 Z M327.4,141.9 L335.8,147.8 L335.8,153.3 L327.7,147.4 L327.4,141.9 Z M328,150 L335.9,155.7 L336,161.4 L327.7,155.9 C327.9,153.9 328,151.9 328,150 L328,150 Z M283.5,153.3 C290.5,153.4 294.4,163.7 290.7,168 C289.6,169.3 288.7,169.6 288.2,169.1 C288.1,169 288.3,167.8 288.3,166.5 C288.5,162.3 287.6,159.5 284.6,156.3 C282.5,154.1 281.6,153.3 283.5,153.3 L283.5,153.3 Z M197.7,154.9 C196.4,155.4 195,156.3 193.9,156.1 C192.8,155.9 192.3,156.4 191.9,157.2 C190.3,160.4 190.8,161.4 194,159.6 C195.5,158.7 196,159 200.1,159.8 C203,160.3 204.9,160.3 207.4,159.6 C210.5,158.8 212.4,158.7 214,159.6 C215.6,160.5 216.7,161.7 216.7,160.7 C216.5,159.6 215.5,156.6 215.3,155.7 C215.2,155.2 214.4,155.6 213.7,155.7 C211.1,155.9 208,153.5 206,154.8 C204.4,155.8 204.2,156.1 202,154.8 C200.2,153.8 199.1,154.4 197.7,154.9 L197.7,154.9 Z M281.7,155.6 C286.4,159.5 287.6,163 287.2,165.9 C287,168 286.8,170.3 284.8,171.5 C284.4,171.7 283.9,171.8 283.3,171.9 C284.9,166 283,160.7 276.3,155 C278.2,154.1 280.2,154.4 281.7,155.6 L281.7,155.6 Z M175.1,155.6 C175.3,155.6 175.5,155.6 175.8,155.7 C176.6,156 176.7,158.1 176.1,158.8 C175.5,159.5 174.9,158.9 174.2,157.2 C173.7,156.3 174.2,155.6 175.1,155.6 L175.1,155.6 Z M170.8,157.3 C172.5,157.3 173.2,158.8 173.5,160.1 C173.7,161.2 173.4,164.4 172.5,163.3 C172.3,162.6 171.3,160.4 170.6,159.9 C168.9,158.6 169.1,157.3 170.8,157.3 L170.8,157.3 Z M165.9,158.9 C166.1,158.9 166.5,158.9 166.9,159 C169.6,159.4 171.7,163.7 171,166.2 C169.6,168.8 169,167.1 168.6,164.7 C168.2,163.7 167.1,162.2 166.5,161.4 C165.1,159.7 164.8,158.9 165.9,158.9 L165.9,158.9 Z M327.8,157.6 L336,163.5 L336,169.8 L327.4,164 C327.6,161.8 327.7,159.7 327.8,157.6 L327.8,157.6 Z M160.6,160.2 C164.6,160.2 168,164.9 166.8,169.4 C165.2,174.1 157.4,173.1 158.7,168.4 C159.1,167.1 160.5,166.1 161.9,166.9 C163.9,168.1 163.7,166.1 162.4,165.4 C160.5,164.3 157.8,165 157.2,167.2 C155.1,174.9 165,177.5 170.3,169.6 C172.3,166.7 174.4,163.6 175.6,162.3 C176.7,161.1 176.9,161.2 176.7,162.8 C176,169.9 171.1,178.8 161.8,178.3 C152.8,177.4 149.9,167.9 156.8,161.9 C158,160.9 159.2,160.4 160.3,160.3 C160.3,160.2 160.5,160.2 160.6,160.2 L160.6,160.2 Z M208.5,160.6 C205.2,162.2 202.2,162.8 198.9,161.4 C196.5,160.4 196.5,161.5 197.6,162.4 C200.6,165 206.1,163.8 208.5,162.4 C209.3,161.9 209.5,160.5 208.5,160.6 L208.5,160.6 Z M336,171.9 L336,177.6 L326.8,171.5 C326.7,170.1 326.8,168.1 327.1,165.9 L336,171.9 Z M327.2,173.9 L335.9,179.6 L336.1,185.3 L327.6,180.1 L327.2,173.9 Z M327.8,181.8 L336.1,187.6 L336.2,193.8 L328,188.4 L327.8,181.8 Z M124.8,188.3 L119.7,203.7 L123,203.9 L125.3,208 L127.6,203.8 L131.1,203.5 L124.8,188.3 Z M328.1,190.4 L336.1,195.9 L336.2,201.6 L327.9,195.8 L328.1,190.4 Z M327.8,197.4 L336,203.3 L336.2,209.4 L326.9,203.2 L327.8,197.4 Z M143.8,200.8 L138.8,217.3 L141.6,216.9 L144.3,221.3 L147,217.3 L149.5,217.4 L143.8,200.8 Z M105.8,202 L101,218.4 L104.2,218.4 L106.9,222.5 L109.3,218.5 L112.9,218.4 L105.8,202 Z M326.7,205 L336.3,211.8 L336.4,218.2 L327,211.9 L326.7,205 Z M336.3,220.3 L336.4,225.9 L328.3,220.1 L327.4,213.8 L336.3,220.3 Z M164,221.3 L158.1,237.9 L162.1,237.9 L164.5,241.9 L166.4,237.9 L169.6,237.9 L164,221.3 Z M328.8,223 L336.3,228.2 L336.2,234 L328.8,229 L328.8,223 Z M186,290.3 L181.7,286.2 C181.6,285.9 185.2,284.1 187.4,285.2 C190.3,286.6 191.8,291.9 188.5,294.6 C185.9,296.8 182,295 181.9,294.7 L186,290.3 Z M182.2,283.5 C182.3,277.1 178.9,275.5 176.1,274.2 C176.1,274.2 175.6,233.8 175.7,232.6 C175.7,232.8 175,228.2 174.9,228 L174.2,227.8 C174.3,231.9 174.6,273.9 174.5,274.1 C169.3,274.7 167.9,278.2 167.4,282.9 C163.3,282.6 160.7,285 160.6,285.4 C159.1,283.3 160.3,280.6 159.1,278.5 C154,294.8 168.2,299.7 168.5,297.6 C169.5,309.7 182.8,311.8 182.3,297.2 C198.5,296.3 193.1,281.6 182.2,283.5 L182.2,283.5 Z M106.7,232.8 L100.9,249.1 L105,248.6 L106.5,251.6 C113,245.8 116.3,254.7 113,247.1 L106.7,232.8 Z M327.8,261.8 C328.6,261.7 329.5,262.4 329.7,263.3 C329.8,266.1 326.1,265.4 326,263.7 C326,262.5 327.1,261.9 327.8,261.8 L327.8,261.8 Z M330.2,279.7 C331.8,278.4 334.3,279.1 334.4,281.1 C334.4,282.8 332.4,283.4 330.9,282.4 C329.7,282 329.6,280.4 330.2,279.7 L330.2,279.7 Z M330.4,284.6 C339.1,285.3 345.7,279.3 342.9,275.1 C345.3,272.1 343.3,270.4 344,268.8 C345.8,266.9 344.3,262.8 343.8,262.8 C343.4,257.3 341.8,256.6 339.5,253.7 C338.8,252.9 341.2,252 342.1,250.6 C339.7,251.5 337.3,249.7 337.3,249.3 L336.3,248 C320.1,248.8 305.6,249.9 306.1,271.9 C303.8,281.2 307.7,289.5 319,287 C321.5,284.8 319.8,281.6 319.5,280 C318.5,275.8 319.7,273 320,271 C321,264.9 325.5,259.2 325.9,268.8 C326.7,267.6 326.3,267.4 327.6,266.9 C330.7,265.8 330.7,268.9 330.1,270.2 C329.7,270.8 329.1,270.8 328.4,270.7 C327.5,270.6 326.3,270.3 326.3,269.9 C326.1,270.9 327.9,272.8 327.7,273.7 C327.5,274.6 327.5,274.6 328.1,273.9 C332.1,271.2 334.4,277.4 328.8,276.7 C331.7,278 327.6,282.4 330.4,284.6 L330.4,284.6 Z M324.7,251.1 C327.8,250.9 328.5,250.9 328.4,252.5 C329,255.5 329.7,256.9 333.6,256.5 C337.5,256 338.7,255.7 334.8,258.1 C332.8,259 332.2,259.1 329.8,258.9 C327.4,258.7 327.6,258.4 326.3,259.3 C325.5,259.7 324.7,260.3 324.1,260.4 C323.2,260.6 321.6,260.9 321.6,260.9 C320.7,265.5 319.3,267.8 317.4,270 C314.7,273.1 313.3,273.6 316.6,273.4 C317.8,273.5 317.2,272.9 317.7,277.8 C317.9,279.5 318.2,281.6 318.5,282.2 C319.4,284.5 319.5,285.6 316.2,285.7 C308,286.3 306.1,278.4 307.2,274.3 C307.3,273.7 307.7,271.5 307.7,269.9 C307.7,269 307.6,268.2 307.6,267.3 C307.8,259.7 309.6,257.7 316.3,252.8 C318.3,251.4 322,251.1 324.7,251.1 L324.7,251.1 Z M331.9,251.5 C335.7,251.4 339.3,253.2 337.5,254.4 C336.3,255.2 332.1,254.8 330.9,254 C329.3,252.9 329.9,251.5 331.9,251.5 L331.9,251.5 Z M163.3,257.9 L161.8,260.6 L160.2,273 L160.5,275.5 L163.6,279.6 L166.1,275.4 L170,275.5 L163.3,257.9 Z M340,256.7 C342.4,257.2 342.5,259.4 341.9,260.8 C340.5,263.8 331.4,265.3 331.4,265.3 C331.3,264 331.5,262.8 330.6,261.3 C330.6,261.3 336.7,259.7 338,258.5 C338.8,257.7 339.4,256.7 340,256.7 L340,256.7 Z M341.9,263.6 C342.8,263.6 343.3,264.3 343.5,265.6 C343.6,266.3 343.3,266.9 342.8,267.7 C340.5,270.2 333.9,272 331.6,271.3 C331.4,271.1 331.8,268.4 332,267.2 C335.1,267.3 340.4,264.5 341.9,263.6 L341.9,263.6 Z M248.7,279.1 C245.6,274.6 238.7,275.3 239.4,275.6 C239.5,271.7 238.8,266.4 232.9,265.9 C227,265.5 224,273.2 226.2,276.5 C222.6,275 217.1,278.8 217.1,279.1 C216.6,279.1 212.5,290.2 225.1,290.7 C226.3,295.9 228.2,298.4 232.3,300.6 L232.4,343.1 L233.8,345 L233.9,300.4 C240.4,300.1 241.2,292.7 240.7,291 C243.6,291.1 246.2,290.5 248.4,288.9 L249.2,296.2 C249.2,296.2 250.7,293.6 250.4,292.3 C247.6,250.5 262.7,205.3 282.5,176 C283.6,174.8 283.9,173.3 284.4,173.3 C289.2,170.7 292.3,168.9 292.3,168.9 C300.3,172.7 314.5,182 314.5,182 L314.7,241.5 C314.5,240.9 341.2,238.5 340.8,239.2 C340.8,239.2 338.5,238.3 338.4,236.7 L337.7,97.4 L326,89.7 C326,89.7 316.4,96 313.7,98.1 L314,180.1 L293.3,167.9 C293.3,167.9 293.6,165 293.7,164.1 C293.4,152.9 287.9,149.2 277.4,152.5 C276,152.9 275,153.3 274.3,152.8 C269.9,139.9 267.9,106.1 267.9,106.1 L297.4,56.1 L347.5,55.8 L348.4,246.9 L349.8,348.3 C349.8,348.3 335.3,359.2 327.6,364.3 C326,365.3 324.9,365.1 324.7,364.6 C324.5,364.2 324.3,337.8 324.2,321.9 C324.1,308.6 324.3,301.4 324.3,301.4 C324.3,301.4 320.6,300.6 319.7,300.5 C319.3,300.5 318.9,300.6 319.5,301 C320.4,301.6 322.8,302.4 322.8,302.4 L323.3,366 C323.3,366 313.4,372.7 308.9,375.5 C305.6,377.6 295.1,382.8 288.9,385.9 C286.5,387.1 284.1,388 283.8,388.2 C275.3,391.8 267.7,394.4 260.7,398.1 C255.8,400.1 256.1,398.1 255,396.6 C244.9,386.6 231.8,386 221.2,390.6 C219.6,391.2 217.5,391.7 216.1,392.7 C215.7,393 215,393.3 214.6,393.4 C213.7,393.6 212.7,394 211.8,394.7 C210.3,395.9 209.3,397.9 208.4,399.8 C207.9,401 206.2,406.7 206,408.3 C206,408.6 206.5,408.5 206.6,408.6 C206.7,408.7 208.2,401.8 208.9,400.5 C210.2,397.7 211.9,396 212.8,395.8 C213.2,395.7 213.6,396.4 213,397.3 C211.9,399.3 211,403.4 210.8,405.3 C210.6,407 210.5,408.4 210.8,408.5 C210.9,408.6 212.4,403.2 213.1,401.4 C214.9,396.5 216,394.5 217.8,393.4 C219.6,392.3 220,392.5 219.7,393.6 C217.1,398.8 216,402.7 215.5,408.1 C215.4,409.2 216,409.2 216.4,407.4 C217.8,401.6 219.8,393.8 224.5,391.5 C226.5,390.6 227.4,390.6 227.2,391.3 C221.6,398.4 220.2,406.2 220.3,408.7 C220.3,409.5 220.7,409.4 221.4,407.5 C223.3,400.5 226.1,394.6 229.4,391.7 C230.7,390.6 232.3,390.3 233.6,390.1 C237.6,389.6 237.7,391.1 234.2,393.1 C230.3,395.4 225.8,403.7 225.3,409.9 C225.1,412 225.9,412.3 226.4,409.4 C228.7,397 239.3,388.8 247.8,392.6 C251.6,394.3 252.3,396.7 249,395.6 C242.3,393.5 234.8,398.2 231.7,404.9 C228.9,410.9 229,414.1 230.9,422.2 C232.2,429.7 234.8,439.2 234,446.5 C233.1,447.9 230.1,445.9 226.7,445.5 C224.6,445.1 222.1,445 219.9,445.8 C218,446.5 216.9,446.7 216.6,445.7 C216.5,445.4 218.1,443.8 218.8,442.9 C219.9,441.5 219.3,441.3 217.7,442.8 C216.9,443.6 215.3,445.3 214.8,445.4 C213.8,445.6 213.8,444.5 214.6,441.6 C217.4,430.4 216.7,430.3 211.8,428 C207,426.2 208.5,425.2 206.4,423.4 C204.9,424.6 208.4,430 212.3,431.1 C215.5,432.1 215.1,433.7 213.7,438.1 C212.3,444.3 209.8,452.4 211.3,457.9 C214.3,469.4 226,469.2 234.9,464.5 L236,467.4 C228.4,470.5 188.5,473.1 175.1,471.5 C174.1,467.9 174,466.9 173.5,462.6 C173.5,462.6 181.8,466.4 186,467 C191.2,467.8 199.2,467.9 201.2,463.1 C201.8,461.7 201.2,460.5 199.4,461.3 C196.1,462.8 190.5,463.9 186,463.6 C182.2,463.4 176.8,461.8 174.4,460.4 C173.3,459.7 172.3,458.4 173.2,456.8 C174,456.6 175,457.5 175.6,457.8 C182.5,461.3 186.2,461.9 190.7,460.6 C194.1,459.6 198.7,455.9 197.5,454.9 C196.3,455.3 192.5,458.5 189.9,459.2 C184.5,460.6 178.7,458.4 173.1,454.8 C171.4,453.3 172.2,452.2 174.3,453.4 C182.7,457.6 186.2,460.4 194.3,454.5 C196.1,453.2 197.1,453.3 198.2,454.1 C202.4,457.8 202.4,455.7 199.3,451.8 C198.6,450.9 198,449.7 197.6,448.4 C197.3,447.4 197.2,446.5 196.7,445.8 C195.8,444.7 194,444.2 192.1,443.3 C189.3,442.1 188.3,442.7 190.4,443.7 C194,445.5 195.8,447.4 191.3,446.4 C187.2,444.6 180.3,445.6 176.4,448.3 C173.4,449.8 172,451.4 171.3,448 C169.8,441 171.3,431.5 169.2,419.2 C168.8,416.9 168.4,415.4 168.8,415.1 C169.4,414.7 171,416.2 172.9,418.9 C173.8,420.1 175.5,422.5 175.5,422 C175.6,419.4 171.5,414.5 168.2,412.6 C166.4,411.5 165.1,406.7 167.2,407.8 C168.8,408.6 177.2,416 178.8,418.6 C179.5,419.8 180.2,419 179.4,417.6 C178.9,416.7 177,414.2 175,412.3 C171.6,409 171.2,409.1 171.9,408.5 C173.2,407.2 176,408.9 180.9,413.4 C182.2,415 183.8,416.4 183.6,415.6 C184.1,414.4 179.2,409.1 176.2,407.6 C175.7,407.2 175.6,406.9 175.6,406.2 C175.9,403.7 181.6,407.4 186.3,411.7 C188.1,413.3 186.6,410.3 184.6,408.2 C183,406.6 180.4,404.6 178.7,403.9 C177,403.2 176.8,401.7 178.2,401 C182.9,400.8 187.8,405.6 190.7,409.4 C191.5,410.4 192.2,411.2 191.4,409.3 C188.7,403.4 183.1,400 179.2,399.3 C176.1,398.7 176.1,395.9 179.1,396.2 C182.4,396.6 187.7,399.5 192.2,404 C193.5,405.3 195.7,408.3 195.3,406.6 C195.3,406.1 193.9,404.2 192.3,402.4 C188.6,398.7 184.3,395.5 179.8,394.5 C177.7,393.9 171.4,395.1 171.3,394 C171.3,393.2 172,392.7 174,392 C181.8,389.4 193.2,396.1 199.5,406.4 C199.9,407.1 200.8,407.5 200.8,407.3 C197.8,398.9 188.4,391.2 180.9,389.9 C175.8,389.1 170.7,390.4 168.3,393.8 C165.6,397.7 166.6,402.8 170.7,402.4 C172.9,402.2 172.7,401 172.7,400.9 C172.5,400.7 171.3,401.3 170.5,401.2 C167.7,400.7 168,395.6 172.1,396.1 C176.8,396.7 177.5,404.1 172.2,405.7 C167.3,407.1 165.5,404.9 164.2,402.3 C162.2,398.4 164.3,392.2 167.8,389.8 C177.4,383.1 189.6,388.7 196.5,395.4 C199.9,398.7 202.4,402.6 204,406.8 C204.4,407.8 205.1,407.7 204.9,406.7 C195.2,382 166.3,379.3 162,398.3 C162,398.3 161.8,398.9 159.1,394.9 C154.6,388.5 147.8,387.1 139.5,391.4 C131.1,394.5 128.3,396.6 122.5,399.6 C121.7,399.9 116.3,403.6 115.4,402.8 C107.2,397.3 100,395.5 96.1,391.5 C96.2,390.8 95.5,379.7 95.5,379.7 L95.7,331.9 C95.8,331.4 91.3,332.2 84,333.4 C64.4,337.3 66.2,327 63.6,326.3 C62.2,326 62.3,326.6 62,289.7 C61.9,279 61.7,260.2 61.5,247.9 C61.3,235.6 61.3,225.3 61.4,225.1 C61.5,224.9 62.6,223.9 63.9,223 C68.7,219.6 71.3,217.6 81.8,209.6 C84.2,207.8 84.8,207.5 84.8,207.5 C86,229.7 84.9,252.9 85.5,272 L86.4,272 L86.1,208 C84.3,207.5 127.2,182.4 150.7,174.3 C151.1,174.1 152.2,174.6 152.2,174.6 C165.7,191.1 201.2,186.1 204.1,166 C210,178.3 235.8,202.1 247.6,173.4 C247.6,173.4 251.9,181.7 255.5,182.2 C263.8,183.3 264.7,182 282.8,173.2 C261.6,205.4 250.2,238.7 248.7,279.1 L248.7,279.1 Z M237.6,271.3 C238.1,272.7 238.2,274.5 237.8,275.9 C237.3,277 236.5,277 236.5,277 L232.5,273.6 L228.6,277.2 C228.6,277.2 226.2,274.8 227.5,271.4 C230,266.7 235.8,267.6 237.6,271.3 L237.6,271.3 Z M341.6,270.7 C344.2,270.5 342.9,273.5 339,275.5 C336.6,276.8 334.6,277.1 333.8,276.7 C333.3,275.3 333.7,274 334,273.5 C335.6,272.6 340.1,271.2 341.6,270.7 L341.6,270.7 Z M175.3,276.3 C178.2,276.2 180.6,278.3 180.7,281.9 C180.7,283.4 180,284.8 180,284.8 L175.2,281.3 L171.6,285.2 C171,285.4 168.7,282.6 170.3,279.6 C171.4,277.4 173.4,276.4 175.3,276.3 L175.3,276.3 Z M244.4,278 C248.4,279.8 249.1,285.4 245.2,287.6 C243.3,288.6 240.4,289.2 239.1,287.1 L243.1,282.8 L238.6,279 C238.3,278.8 242,276.9 244.4,278 L244.4,278 Z M340.9,276.5 C341.6,276.5 341.8,276.8 342,277.4 C342.6,279.2 341.1,281.1 338.7,281.7 C336.4,282.2 336.6,282.5 335.5,280.5 C334.7,278.9 334.4,279 335.8,278.5 C337.3,277.9 339,277.3 340.9,276.5 L340.9,276.5 Z M226.6,279.3 C226.6,279.3 223.7,282.2 222.5,283.4 L226.8,287.9 C227,288.4 221.9,290.8 219.1,287.3 C217.3,285 218.3,280.7 220.8,279.2 C223.4,277.5 227.1,278.8 226.6,279.3 L226.6,279.3 Z M232.7,278.7 C235.2,278.7 237.3,280.7 237.4,283.2 C237.4,285.7 235.4,287.8 232.9,287.9 C230.4,287.9 228.3,285.9 228.2,283.4 C228.2,280.9 230.2,278.8 232.7,278.7 L232.7,278.7 Z M170,286.5 L165.9,290.8 L170.4,295.6 C170.4,295.6 166.9,296.2 165.6,295.9 C159.5,294.8 160.1,287.7 164.8,285.8 C166.8,285.1 168.2,285.4 170,286.5 L170,286.5 Z M89.2,287.9 C89.2,287.9 90,297 90.7,300.1 C90.2,303.7 87.9,306.1 86.9,309.7 C86.3,311.3 84.3,313.5 83.9,311.2 C82.4,308.4 83.8,304.9 82.6,302.9 C82,301 82.2,299.9 81.7,298 C80.8,296.4 80.1,295.6 80.2,294.2 C80,287.8 78.3,289 75.5,289.6 C73.1,290.4 70,290.7 68.1,292.1 C64,295 66.2,296.6 64.7,300.9 C64.9,302.8 65.4,303.5 65.1,305.1 C63.5,312.8 66.4,312.2 66.3,312.3 C65.1,314.1 66.6,318 67.2,317.8 C70.7,318.7 69.4,321.2 70.6,322.6 C71.8,323.9 71.7,324.6 76.5,324.7 C85.2,325.4 99.1,324.1 102.1,313.5 C104,298.5 106.7,285.2 89.2,287.9 L89.2,287.9 Z M176,286.5 C178.4,286.5 180.5,288.4 180.5,290.9 C180.5,293.4 178.6,295.4 176.1,295.4 C173.7,295.4 171.6,293.5 171.6,291 C171.6,288.5 173.5,286.5 176,286.5 L176,286.5 Z M93.1,288.8 C94.7,288.8 96.7,289.1 98.3,290.7 C101.7,294 101.9,297 100.3,309.6 C99.9,313.2 98.6,316.1 97,317.4 C93.7,320 89.6,321.9 86.2,322.7 C84.4,323.1 82.9,323.1 81.7,323.1 C80.4,323.1 79.6,322.5 79.6,321.4 C79.9,318.5 76.9,318.2 75.1,318.3 C72,318.4 71.7,318.7 73.6,317.3 C75.8,315.6 80.9,315.6 81.9,316.6 C83.9,314.6 86,314.4 88.5,314.1 C88.1,313.5 87.2,311.3 87.8,309.9 C89.1,307.6 91.3,303.5 93.6,302 C95.9,299 93.9,300.4 92.5,300.4 C91.7,300.4 91.8,300.2 91.6,299.6 C91,297.3 90.2,292.9 90.2,290.3 C90.2,289 91.4,288.8 93.1,288.8 L93.1,288.8 Z M78.5,292 C79.4,292.8 79.4,293.9 78.4,294.7 C77.3,295.6 75.2,295.1 75.1,293.3 C75.3,291.6 77.4,291.1 78.5,292 L78.5,292 Z M233,298.3 C229.3,298.5 226.2,294.5 227.6,290.6 C228.4,289.5 228.7,289.7 228.7,289.7 L232.9,293.5 L237,289.2 C240.4,293.2 237.5,298 233,298.3 L233,298.3 Z M73.9,292.2 C73.6,293.4 74,294.5 74,295.1 C73.3,295.6 70.1,296.5 68.4,297.4 C67.2,297.8 66.4,296.7 66.6,295.7 C67,293.8 69.8,292.6 71.8,292 C72.5,291.8 73.5,291.8 73.9,292.2 L73.9,292.2 Z M74.6,297.5 C75.7,297.4 75.4,299.8 75,301.1 C74.6,302 73.3,302 72.2,302 C70.2,302.1 67.7,304.4 66.7,304 C66.3,303.8 66.1,302.9 66,302.3 C66.3,299.1 71.7,297.9 74.6,297.5 L74.6,297.5 Z M80.6,301 C80.2,301.6 79,301.8 78,301.5 C76.3,301 76.1,298.7 77.5,297.8 C80.1,297 81.7,299.4 80.6,301 L80.6,301 Z M244.9,295.5 L242.6,298.9 L239.2,298.8 L244.7,315.8 L247.3,309.2 C247.6,306.1 248.1,303.1 248.4,300 L244.9,295.5 Z M171.9,296.9 L176.3,300.5 L180.1,296.7 C182.9,302.9 179.7,305.8 176.2,305.7 C172.5,305.6 168.4,302 171.9,296.9 L171.9,296.9 Z M75.7,303.4 C77.1,303.1 76.5,306.9 76.3,307 C75.4,307.3 71.6,307.8 70,309.2 C66.6,311.9 65.1,310.2 66.7,307 C68.2,305.1 73.7,303.4 75.7,303.4 L75.7,303.4 Z M80.1,303.6 C81.6,303.5 82.7,305.1 81.8,306.8 C80.5,308 78.3,307.1 78.3,305.4 C78.3,304.3 79.1,303.6 80.1,303.6 L80.1,303.6 Z M77.8,313.1 C78,314 77.7,313.7 76.1,314.2 C75.2,314.5 73.8,315 72.4,315.8 C70.3,316.9 69.7,317.4 68.9,317.3 C68.3,317.2 67.6,316.9 67.4,316.3 C66.7,313.9 68.6,311.4 73.2,309.7 C74.2,309.4 75.9,309.1 76.5,309 C78.1,309 76.5,311.4 77.8,313.1 L77.8,313.1 Z M80.6,309.5 C82.8,309.5 83.2,312.4 81.6,312.9 C77.6,313.9 78,309.5 80.6,309.5 L80.6,309.5 Z M77.8,320.3 C78.4,320.9 78.5,321.9 77.8,322.4 C76.5,323 71.6,322.5 71.5,321.1 C71.5,320.2 73.1,319.9 74.7,319.8 C76.3,319.8 77.3,319.8 77.8,320.3 L77.8,320.3 Z M300.6,321.8 L296.5,327.2 L302,340.9 L307,324.4 L303.1,326 L300.6,321.8 Z M70.6,335.9 C71.5,378 71.4,474.3 71.4,474.3 L83.4,482.4 L96,473.3 C95.9,443 95.7,422 95.6,393.9 L114.1,404 C114.1,404 114.7,404.8 114.6,408.6 C113.3,419.1 123.5,425.9 130.2,421.7 C132.8,420.6 133,420.4 133.6,421.2 C135.1,423.5 136.8,433.1 137.1,439.3 C137.5,448.6 140,467.5 140.6,467.6 L110.5,518.5 L63.5,519 L63,329.6 C65.4,332.5 66.5,334.4 70.6,335.9 L70.6,335.9 Z M245,331.8 L242.7,335.2 L240,335.2 L244.8,352.8 L250.6,335.6 L247.4,335.2 L245,331.8 Z M94.5,472.2 C94.5,472.2 88.7,476.4 86.8,477.6 C85.8,478 85.3,478 85.1,477.1 C84.8,475.9 85.3,473.8 85.7,470.1 C86.1,466.8 86.1,466.6 85.5,461.8 C84.9,456.8 84.9,456.6 85.3,450.1 C85.8,442.8 85.9,435.7 85.4,431.3 C84.8,427.1 84.9,417.6 85.3,412.3 C85.8,405.8 85.6,400.1 84.8,395.3 C83.3,386.9 83,384 84.6,377.6 C85.2,375.2 85.5,374 85.4,370 C85.3,365.6 85.2,364.1 83.6,354.4 C82.7,348.8 82.6,348 83.5,339.1 C83.7,337.3 83.7,336.1 84.4,335.5 C85.2,334.8 93.5,334.3 93.5,334.3 L94.5,472.2 Z M72.5,336 L81.6,335.9 C80.9,338.7 80.7,340.9 80.7,343 L72.6,337.7 L72.5,336 Z M72.7,339.7 L80.7,344.9 C80.7,347.1 80.5,349.2 80.9,351.4 L72.8,346 L72.7,339.7 Z M72.7,347.9 L81.2,353.7 C81.5,356 82.2,358.3 82.5,360.3 L72.8,353.7 L72.7,347.9 Z M349.2,350.2 L349.6,518.1 L264.5,518.5 L237.5,466.7 C237.5,466.7 237.8,461.9 238.4,459.5 C239.2,456.6 239.4,455.9 240.5,455.8 C243.5,457.4 246.9,455.3 247.9,453 C249.2,450.2 246.6,445.9 242.6,445 C240.9,444.6 239,445.4 237,446.8 C235.9,447.7 235.6,447.8 235.4,447 C234.9,445.2 236.5,440.2 239.4,435.9 C241,433.5 241.5,432.8 242,433.7 C244.1,437.4 248.7,436.6 250.4,434.5 C252.5,432 252,426.3 247.3,424.8 C238.1,421.9 233.8,431.1 234,431.1 L232,420 C243.1,417.3 249.5,416.3 253,413 C255.8,410.4 257.1,405.8 256.8,401.7 C256.8,401.7 287.7,389.2 302.1,381.4 C327.2,368 349.2,350.2 349.2,350.2 L349.2,350.2 Z M302.2,351.5 L299.9,355.5 L296.7,355.5 L303.2,372.5 L308.2,354.8 L305.1,355.1 L302.2,351.5 Z M73.1,356.3 L82.9,363.1 C83.1,365.3 83.4,367.2 83.1,369.7 L72.8,362.9 L73.1,356.3 Z M264.2,354.2 L261.8,357.4 L259,357.1 L264.5,373.9 C266.2,369.1 267.7,362.5 269.4,357.6 L266.8,357.7 L264.2,354.2 Z M72.9,365 L83,371.7 C83,373.8 83.1,375.7 82.4,377.2 L72.8,371.1 L72.9,365 Z M283.2,365.9 L280.7,370.6 L277.4,370.2 L283.3,386.3 L289.7,370.4 L285.7,370.6 L283.2,365.9 Z M72.9,372.8 L81.7,379.3 C81.8,379.4 81.2,382.2 81.3,383.9 L72.9,378.8 L72.9,372.8 Z M73.2,380.8 L81.4,386.4 C81.4,388.5 81.6,390.5 81.9,392.4 L73,386.6 L73.2,380.8 Z M73,388.9 L82.5,395.6 L83,401 L73,394.7 L73,388.9 Z M151,391.1 C160.1,394.5 168.6,411.8 168.4,434.2 C168.2,449.7 172.9,471.9 172.8,471.7 C172.8,471.7 170.2,472.1 169.4,471.5 C166,460.1 164.8,448 164.3,438.1 C163.9,429.8 163.4,421.7 162.9,419.8 C161.4,413.1 159.8,405.3 155.5,400.2 C152.2,396.4 148.4,395.7 146.1,400 C144.2,403.5 148.2,409.4 151.4,407.4 C152.2,407 152.7,406.2 151.6,406.2 C148.2,406.7 146,402 148.1,399.8 C151.9,395.9 158.4,404.6 155.4,409.4 C154.1,411.5 150.5,411.8 147.7,411.1 C141.4,408.1 139.9,400.7 142,395.8 C143.6,392.1 147.1,389.8 151,391.1 L151,391.1 Z M140,393.4 C140.7,393.4 140.2,394.8 139.6,396.9 C138,402 141,409.9 145.2,411.5 C146.5,412.3 146.4,412.7 145.5,413.1 C142.8,414.6 137.8,410 136.5,404.9 C135.6,401.2 135.8,396.8 137.6,395 C138.6,394 139.3,393.5 139.9,393.4 C139.9,393.4 140,393.4 140,393.4 L140,393.4 Z M72.9,396.4 L83,403 C83.5,405.1 83.3,407.3 82.9,409.5 L72.8,402.4 L72.9,396.4 Z M134,396.3 C134.8,396.3 134.5,397.5 134.3,399.8 C133.8,405.1 135.5,409 139.2,412.2 C140.8,413.6 141.2,414 140.5,414.7 C139.5,415.7 136.8,414.4 134.6,412.1 C130.6,407.9 129.3,400.1 132.4,397.3 C133.1,396.6 133.6,396.3 134,396.3 L134,396.3 Z M246.5,397.2 C250.8,397 254.5,398.7 254.9,404 C255.5,411.7 248.3,416 243.3,411.5 C238.8,407 243.4,400.1 248.6,403.3 C251.2,405 248.1,408.7 246,406.8 C245,405.9 244.6,406.5 245.3,407.5 C247.4,410.6 251.4,408 251.1,405.3 C250.5,400 244,400.1 241.5,402.1 C238.1,404.9 235.2,409.1 233,412.2 C231.2,414.8 230.8,414.8 231.1,411.5 C231.7,402.9 239.8,397.5 246.5,397.2 L246.5,397.2 Z M128.8,398.9 C129.5,398.9 129.2,399.9 129.3,402.4 C129.6,408.9 132.3,413 135.8,415.3 C137,416.6 135.5,417.5 133.3,416.9 C128.3,415.4 123.2,404.6 127.4,399.9 C127.9,399.3 128.4,398.9 128.8,398.9 L128.8,398.9 Z M123.9,401 C124.6,401 124.2,402.4 124.3,405.1 C124.4,410.8 126.2,413.6 130.5,417.1 C131.9,418.2 132.1,418.1 131.5,418.7 C130,420.4 125.1,418 123,414.6 C120.5,410.5 120.1,404.3 122.5,402 C123,401.4 123.5,401.1 123.9,401 L123.9,401 Z M119,403.8 C119.6,403.8 119.3,404.8 119.3,407.3 C119.5,413.3 120.9,416.3 124.7,419.1 C127.1,420.8 127.7,420.3 126.9,421 C125.6,422.2 122.1,421.2 119.5,419 C115.6,415.7 114.4,407.5 117.7,404.6 C118.3,404.1 118.7,403.8 119,403.8 L119,403.8 Z M73.1,404.7 L82.8,411.4 L82.5,417.1 L72.8,410.6 L73.1,404.7 Z M243.1,415.3 C239.1,414.5 237.6,411.6 238.1,408.4 C238.3,407.3 238.9,406.7 239.6,408.1 C240.2,410.3 241.7,413.5 243.7,414.1 C244.6,414.3 243.9,415.5 243.1,415.3 L243.1,415.3 Z M158,408.6 C162.5,419.8 162.4,432.1 163.1,443.7 C164.1,459.1 166.8,469.5 167.7,471.3 C167.7,471.3 163.3,471.3 163.1,470.7 C163.1,470.7 159,450.3 159.6,440.1 C159.6,428.8 157.4,418.8 156.1,414.4 C154.7,410.4 154.6,413.1 158,408.6 L158,408.6 Z M73,413 L82.4,419.1 C82.3,421.2 82.2,423.3 82.3,425.4 L73.1,418.9 L73,413 Z M198.8,412.5 C198.8,412.8 200.2,413.1 202.3,412.6 C204.6,412 207,412.1 208.8,412.6 C210.7,413.1 210.9,412.5 209.2,411.8 C208.4,411.4 207,410.6 205,410.6 C203,410.6 198.8,411.7 198.8,412.5 L198.8,412.5 Z M236.7,412.2 C236.9,412.6 237.6,413.6 238.3,414.3 C239.5,415.7 239.8,415.7 239.3,416.3 C238,417.6 235.4,415.7 235.1,413.3 C234.8,411.5 235.7,410.4 236.7,412.2 L236.7,412.2 Z M153,412.7 C157.4,418.9 158,433.5 158.1,443.9 C158.2,453.2 161.3,470.4 161.6,470.3 C160.7,470.8 159.5,470.6 158.4,470.2 C157.3,468.7 156.6,464.6 155.3,453.5 C155,450.6 154.3,441.5 154.2,434.2 C154.1,427.7 150.5,413.7 150.5,413.7 C150.5,413.7 151.7,412.7 153,412.7 L153,412.7 Z M148.1,414.3 C152.1,423.2 152.7,432 152.9,442.7 C153.1,452.8 155.3,464.7 156.2,469.9 C154.9,470 153.4,470.2 152.9,469.6 C152.5,469.1 152.3,468.3 152.1,467.4 C150.3,458.6 149.9,449.1 149.3,441.1 C148.5,428.6 148.3,425.5 146.5,419.3 C145.5,415.8 145.1,415.8 145.9,415.2 C146.5,414.5 147.6,414.3 148.1,414.3 L148.1,414.3 Z M192.9,416.3 C193,420.4 193.5,418.7 195,418.1 C196.1,418 197,418.6 199,419.4 C201.6,420.4 201.4,420.7 203.2,419.8 C204.3,419.3 205.2,419.1 205.8,419.5 C207.9,421.2 210.7,420.3 212.3,418.9 C213.5,418.3 214.8,418.6 215.9,418.7 C217.4,418.8 217,417.9 217.2,416 C217.4,414.3 216.7,414.2 215,414.7 C213.2,415.3 211.5,415.4 210,414.9 C206.1,413.7 203.2,414.5 201.3,414.8 C196.7,415.5 196.5,415 195.5,414.4 C194.7,413.9 193.5,413 193,413 C192.4,413 192.5,414.5 192.9,416.3 L192.9,416.3 Z M233.4,414.4 C233.8,414.2 234,414.8 234.6,415.6 C235.6,416.9 235.9,417.5 235.1,417.7 C232.9,418 232.3,417.8 232.4,416.4 C232.4,415.2 232.7,414.8 233.4,414.4 L233.4,414.4 Z M143.4,416.4 C146.7,419.7 147.5,438.3 147.9,442.3 C149.1,464 151.2,467.1 150.1,468.7 C148.9,468.7 148.4,469.1 147.6,468 C144.8,460.1 144.9,451.9 144.5,443.6 C143.9,432.6 142.8,426.7 141.2,421.2 C140.2,417.6 140.2,417.5 142,416.5 C142.4,416.5 143.1,416.4 143.4,416.4 L143.4,416.4 Z M139,419 C140.2,421.6 142.5,433.6 142.8,444 C143.1,452.2 145,468.3 145.4,468.4 C144.2,468.5 142.8,468.3 142.2,467.4 C138.6,451.6 139.8,436.2 135.6,420.3 C135.8,419.4 137.1,418.1 139,419 L139,419 Z M73.2,420.9 L82.9,427.9 L83.1,433.8 L73.2,426.8 L73.2,420.9 Z M217.4,420.2 C211.9,422.3 210.5,424.1 211.4,425.6 C212.1,426.9 214.3,426.4 220.1,424 C224.5,422.2 225.8,423 226.7,425.7 C226.7,429.8 222.7,430.2 220.5,429.7 C219.5,429.7 219.7,429.7 220.7,431 C225.2,434.5 230.8,427.6 228,423.2 C225.8,419.2 222.1,418.1 217.4,420.2 L217.4,420.2 Z M183,421.8 C178.5,425.3 180.1,431.7 183.9,432.7 C184.9,433.2 186.5,433 187.1,432.6 C187.7,432.2 187.7,431.6 186.5,431.4 C183,430.8 181,428.3 182.7,425.7 C184.3,423.2 187.4,423.7 193.2,426.2 C198.2,428.4 200.5,427.7 201,425.1 C201.3,424 200.9,422.9 198.5,422.8 C191.8,422.5 187.4,418.4 183,421.8 L183,421.8 Z M243.5,431.6 C243.2,429.8 240.2,431.6 238.2,434.9 C236.3,438.1 236.1,438.6 235.7,435.2 C235.1,430.2 240.3,426.3 243.5,426.2 C247.4,425.8 249.9,427.9 250,430.4 C250.1,435.4 244.3,435.5 243.5,431.6 L243.5,431.6 Z M73,428.7 L83.3,435.8 C83.3,435.8 83.6,439.6 83.4,441.6 L73,435 L73,428.7 Z M196.3,431.1 C191.8,434.1 194.5,439.7 197.6,440.3 C200.9,441 201.1,438.7 197.9,438 C196.1,437.3 195.7,435.6 196.4,434.4 C198,431.8 200.8,433.5 202.5,434.3 C206.2,436.1 208.2,436.7 209.3,435.5 C211.4,433.3 209.5,429.4 206.8,430.8 C206.1,431.2 205.5,431.5 203.9,431.1 C201.5,430.5 198.6,430 196.3,431.1 L196.3,431.1 Z M73,437.1 L83.1,444 L82.8,450.1 L73.3,443.1 L73,437.1 Z M73.3,445.5 L82.8,452.3 C82.7,454.9 82.7,455.9 82.8,457.6 L73.2,451.4 L73.3,445.5 Z M241.3,446.8 C248.9,447.5 246.4,456.3 241.1,453.9 C239.7,452.8 239.2,452.9 237.7,456.8 C235.7,461.7 235.2,461.3 235.5,455.6 C235.7,450.1 238.2,446.8 241.3,446.8 L241.3,446.8 Z M181.3,448.1 C181.5,448.1 181.6,448.1 181.7,448.2 C182.2,448.8 180.7,451.1 179.4,452.4 C178.4,453 176.1,451.3 176.7,450.5 C177.3,449.7 180.1,448.2 181.3,448.1 L181.3,448.1 Z M191.5,452.6 L190.1,452.8 C188,448.2 183.8,449.3 182.4,453.5 L180.5,453.3 C182.5,448.1 189.2,444.9 191.5,452.6 L191.5,452.6 Z M229.8,453.7 L227.5,453.8 C225.4,448.8 222.5,448.1 220,453 L218.2,452.5 C221.3,446.2 226.5,445.7 229.8,453.7 L229.8,453.7 Z M218.3,448 C219.5,447.9 219.3,448.5 218.1,450.2 C217,451.7 216.8,451.9 215.7,451.1 C213.9,449.7 216.9,448.1 218.3,448 L218.3,448 Z M229.2,448.2 C229.4,448.2 229.7,448.2 230,448.3 C232.4,448.9 233.5,450 232.3,451.5 C231.6,452.4 230.9,452.8 230.4,452.2 C228.8,449.4 227.9,448.1 229.2,448.2 L229.2,448.2 Z M193.3,449.7 C193.5,450.7 192.8,451.4 191.9,450.6 C191.5,450.3 191.2,449.7 191.3,449.3 C191.9,448.7 193.2,449.2 193.3,449.7 L193.3,449.7 Z M73.2,453.1 L83,460.1 C83.3,462.6 83.4,464.4 83.4,466.1 L73.3,459.4 L73.2,453.1 Z M215.6,455.2 C221.2,459.1 227.8,459 232,455.6 C232.9,454.8 233.7,454.8 233.7,455.5 C233.1,458.2 225.9,461.7 220.3,459.7 C217.2,458.6 214.7,457.6 212.7,454.7 C211.5,452.9 214,454.1 215.6,455.2 L215.6,455.2 Z M213.2,457.1 C221.4,464.2 228,462.2 232.9,458.6 C233.6,458.4 233.6,459.1 233.8,460.3 C234,461.9 232.7,462.6 229.1,463.7 C222.2,465.8 214.1,463.5 212.7,458.9 C212.6,458 212.3,456.9 213.2,457.1 L213.2,457.1 Z M73.1,461.4 L83,468.2 L82.7,473.4 L73,466.9 L73.1,461.4 Z M73.3,469.3 L82.7,475.6 L82.7,479.9 L73.6,473.4 L73.3,469.3 Z M141.2,471.3 C181.1,480.3 209.4,476 237.1,471.2 L261.7,519.4 L113.5,519.6 C123.3,503.9 131.3,486.8 141.2,471.3 L141.2,471.3 Z" id="Shape" fill="#131F67" fill-rule="nonzero"></path>
            <path d="M13.6,26.1 L13.6,31.4 L19,31.4 L19,77 L13.6,77 L13.6,82.7 L29.2,82.7 L29.2,77 L25.1,77 L25.1,64 L31.4,55.3 L40.8,77 L34.8,77 L34.8,82.7 L51.8,82.7 L51.8,77 L47.7,77 L35.2,49.2 L47.1,31.2 L51.5,31.3 L51.5,26 L34.6,26 L34.6,31.3 L39.5,31.3 L25.1,53.4 L25.1,31.3 L29.4,31.3 L29.4,26 L13.6,26 L13.6,26.1 Z M145,54.3 L152.4,68.1 L152.4,68.8 L156.5,76.8 L157.1,77.2 L158,78.9 L158.1,79.7 L160.4,83.3 L160.4,84.1 L170.1,102.1 C178.1,99.1 243.6,93.8 267.8,102.5 L271.3,96.5 L272.1,96.5 L278.3,85.6 L278.2,84.7 L280.3,82.3 L280.6,81.2 L287.5,70.4 L287.5,68.7 L296.1,54.4 L145,54.3 Z M293.2,56.4 C293.2,56.4 288.7,65 286.4,68.5 C284.5,67 279.1,68 279.4,73.7 C270.6,70.3 268.4,80.9 275.3,83.3 C271.8,86.4 268.4,82.9 265.8,80.5 C263.2,81.1 257.8,83.1 254.8,77.4 C254.8,77.4 256.1,78.1 257.3,78.8 C264.5,81 265.1,71.2 259.7,69.7 C259,69.5 257.8,69.4 257.8,69.4 C259.6,61.9 248,59.3 247.8,68.3 C247.8,68.3 246.4,68.1 245.4,68.3 C239.2,69.4 240.7,78.5 246.9,78.1 C247.8,78 248.5,78.2 248.5,78.2 C248.4,79.6 240.8,82.4 235.3,77.4 C232.7,79.4 228.6,81.9 223.2,76.9 C226.7,76.8 230.1,75.7 230.1,71.8 C230.1,69.2 227.7,66.9 224.4,66.7 C224.2,63.8 222,61 219.2,60.8 C215.8,61 214,63.8 214,66.7 C211.1,67 208.3,69.6 209,72.5 C209.9,76.5 213,77 216.5,76.3 C212.2,83.2 205.2,79.6 203,77.4 C200.4,79.8 195.9,83.1 190.4,78.6 C193.4,78.1 196.6,76.4 196.1,72.3 C195.7,69.1 192,68.1 190.5,68.3 C190.5,66.2 188.9,62.6 185.1,63 C180.9,63.4 181.2,68.7 181.2,68.7 C177.8,68.4 175.3,72.5 176.2,75 C177.4,78.1 179.9,79.1 184.5,78.3 C179.1,83.3 175.7,81.4 172.8,80.3 C170.2,83 166.8,83.9 163.2,81.5 C171.1,81.9 169.9,67.9 160.5,72.9 C159.7,70.3 158.5,67 153.5,67.8 L147.9,57 L293.2,56.4 Z M111.7,65.2992707 C111.3,65.2992707 110.9,65.2992707 110.5,65.4 C95.3,66.4 89.7,76.9 90.4,86.3 C90.9,92.6 94.3,98 99.3,100.9 C101.4,102.5 101.9,103.2 101.5,103.9 C101.1,104.8 100.5,104.7 99.2,103.6 C81.8,87 57.4,106.5 68.2,128 C76.8,145.1 100.9,141.2 106.1,121.9 C106.5,120.4 107.2,119.7 107.9,120.1 C108.4,120.4 108,122.4 107.6,125.4 C107.6,136.3 96.3,153.5 95.6,154.1 L125.4,154.1 C118.6,144.8 114.6,135.6 113.7,122.3 C113.6,118.3 115.1,119.1 116.4,123.7 C122.2,144.6 148.7,144.4 154.8,124 C160.4,105 139.3,89.2 125.3,102 C123.3,103.8 121.9,104.2 121.9,102.8 C121.9,102.2 123.8,100.1 125.5,98.8 C129,96.1 131.9,91 131.9,85.8 C132.1,75.4 124.3,65.2 111.7,65.2992707 L111.7,65.2992707 Z M219.4,70.2 C219.8,70.2 220.2,70.3 220.6,70.5 C221.8,71.1 222.1,72.2 221.3,73.9 C221,74.5 220.6,75.1 220.7,75.7 C229.4,91.8 248.7,84.6 250.5,77.1 C250.6,76.6 250.4,76.1 250.1,75.6 C249.4,74.4 249.5,73.4 250.4,72.5 C252.4,70.7 255.4,72.8 254.2,75.2 C253.9,75.8 253.6,76.5 253.8,77.4 C258.7,88.6 268.6,89.5 276.8,85 C273,91.8 258.2,96 252.1,79.6 C242.2,93 226.5,92.7 219.4,77.6 C213,93 193.7,93.4 186.7,80.6 C180.3,95.3 165.5,91.9 161.3,82.8 C175.1,92.8 184.2,82.4 185.8,77.9 C185.8,77.9 185.5,77.4 185,77 C183.2,75.3 183.3,73.2 185.1,72.4 C187.4,71.4 189.6,73.6 188.4,75.8 C188.1,76.4 187.8,76.6 188,77.1 C192.3,87.1 213.4,90 217.7,76 C217.8,75.2 217.8,74.5 217.4,73.8 C216.4,72.1 217.7,70.2 219.4,70.2 L219.4,70.2 Z M157.7,75.8 C161,76 160.1,78.9 159.4,79.1 L157.7,75.8 Z M281.4,77.6 C281.4,77.7 279.3,81.3 279.3,81.3 C278.3,79.6 278.5,77.4 281.4,77.6 L281.4,77.6 Z M270.2,96.1 C270.2,96.1 268.1,100.8 267.4,101.2 C227.9,91.1 172.9,99.9 171.5,100.9 L169.1,96.3 C203.6,89.4 238.1,90.8 270.2,96.1 L270.2,96.1 Z M31.3,94.5 C30.1,94.5 28.8,94.8 27.5,95.4 C20.6,98.5 20.1,106.4 26.2,112.6 C27.2,113.6 28,114.5 28,114.7 C28,115.4 27.3,115.3 25.6,114.3 C16.2,108.6 7,115.4 10.8,125.3 C13.9,133.2 26.1,132 28,123.6 C28.2,122.5 29.1,121.8 29.4,122.4 C29.7,122.9 28.8,127.2 27.9,129.6 C26.7,132.7 26,134.4 25.3,135.7 C24.4,137.3 24.4,137.8 25,137.9 C26,138.1 36.7,137.8 36.7,137.6 C36.7,137.5 36.3,136.4 35.7,135.3 C33.6,130.8 31.9,123.1 32.9,122.2 C33.5,121.7 33.7,122 34.4,124.2 C38.2,135.5 52.5,132.8 52.2,120.8 C52,112.6 44.6,109.1 37.8,113.9 C36.3,115 35.8,115.1 35.7,114.2 C35.6,113.9 35.9,113.5 36.5,113.1 C45.1,107.3 39.9,94.4 31.3,94.5 L31.3,94.5 Z M203.5,166 C199.7,180.7 190.5,182.2 179.3,184 C165.5,186.2 156.5,181.2 152.3,173.5 C152.3,173.5 132.6,181 125.4,185.3 C140.4,192.2 160.2,207.4 171.4,224.6 C175.4,229.9 175.2,228.7 175.2,240.2 C175.2,265.2 175.2,274.5 175.2,274.5 C181.4,275.4 181.7,279.7 181.4,284.5 C186.4,282.3 191.1,285 191.1,289.7 C191.1,298.3 182.6,296 180.9,295 C183.7,302.6 180.4,305.7 177.1,306.1 C173,306.6 168.4,304.6 169.7,295.9 C165.3,297.6 159.7,294.5 158.9,289.3 L158.7,280.5 C169.6,259.9 155.9,243.1 143,237.6 C143,237.6 146.7,230 151.4,227.9 C151.9,227.8 148.5,222.9 142.9,223.9 C140.3,224 140.9,223.9 138.5,220.8 C133.7,214.6 131.4,214.1 126.7,220.8 C124.6,223.7 124.1,223.8 121.7,223.9 C119,224 114.9,225.9 114,227.6 C113.8,228 114.8,228.4 116.3,230 C118.3,232.4 121.4,235.6 120.9,238.9 C110.3,243.2 92.6,262.2 111.2,286.5 L97.8,286.7 L97.2,200.2 L87.9,205.4 L88.3,273.1 L85.6,272.2 C85.8,250.6 85.5,229 84.8,207.4 L60.2,225.3 L61.3,326.9 L63.9,327.5 C65.8,341.3 93.3,331.7 94.9,332.9 L95.2,389.3 L94,392.1 L115.8,404 L135.8,393.6 C135.8,393.6 138.5,393.1 139.5,392.6 C147.8,388.2 154,389.2 158.5,395.6 C161.3,399.6 161.8,400.1 161.8,400.1 C163.5,388.7 173.6,384.5 183.4,387.5 C190.6,389.7 200.5,396.9 203.5,405.7 C203.5,405.7 204,407 204.6,407.6 L205,407.8 C205,407.6 204.5,406.5 204.4,405.9 C194.3,382.6 165.7,379.1 161.3,398.1 L157.3,392.4 L178.5,379.4 L207.5,398.5 C207.5,398.5 206.1,405.2 206,408.1 L206.5,408.3 C206.6,407.9 206.8,406.5 207,405.7 C207.5,402.5 208.3,399.9 209.4,397.8 C210.1,396.6 210.9,395.6 211.8,394.8 C213.5,393.8 215.1,393.9 216.9,392.2 L212.7,389 L212.6,378.8 L221.1,390.7 C223.8,390.1 234.2,387 240.4,390.4 C241.1,390.6 250.2,388 255.8,400.7 L283,389.4 C283,389.4 284.7,388.4 284.8,388.2 C257.7,378.2 230.3,342.7 232.9,342.2 C232.9,342.2 232.8,338.6 233,329.6 C233.2,319.7 233.1,309.5 233.3,299.5 C224.1,296.5 226.4,289.1 226.4,289.1 C220.8,290.3 220,289.2 218.6,288.3 L217.6,278.9 C220.9,276.1 222.9,275.8 227,276.7 C227,276.7 225,272.6 226.8,269.2 C228.3,266.5 232.4,264.9 235.7,266.7 C239.9,269.6 238.6,275.6 238,276.4 C242.4,274.4 247.7,276.6 249,280.9 C249.7,268.1 250.8,253.8 253.3,242.7 C258,222.6 265.8,201.6 275.4,185 C277,182.2 279,179.5 280.6,176.9 C282.1,174.6 282.8,173.1 282.8,173.1 C282.8,173.1 280.7,174.2 278.5,174.9 C275.4,175.7 273,176.6 272.6,176.9 C270.3,178.8 267.3,180.3 264.8,181.4 C256.1,184.8 250.2,179.7 246.6,172 C244.6,181.8 235.6,190.1 222.3,184.9 C214.8,180.9 212.5,178.4 205.5,168 C205,167.3 203.5,166 203.5,166 L203.5,166 Z M203.8,167.6 C208.8,177.4 216.2,184.3 223.4,187.1 C236.3,191.3 244.8,183.1 247.2,175.5 L249.7,179.7 L230.2,193.5 L200.8,174.8 C201.2,174.5 203.8,167.9 203.8,167.6 L203.8,167.6 Z M292.3,168.3 L283.6,173.4 C283.6,173.4 277.8,182.8 275.8,186.3 C265.6,204.3 258,223.9 254,243.3 C252.4,250.4 250.7,263.4 250.1,269.7 C249.2,279.7 249.2,283.8 249.5,292.9 L250.2,293.6 C250.2,293.6 249.1,295.5 248.4,297.1 C246.3,301.4 245.8,303.8 245.9,308.8 C246.2,320.3 253.2,331.3 263,335.7 C263.6,335.9 264.3,336.3 264.3,336.3 C264.3,336.3 262.6,340.9 259.5,344.1 C257.5,346.3 257,346.4 257.7,347.4 C258.7,348.9 262,350.1 266,350.1 C267.4,350.1 267.4,350.1 270.1,352.9 C275.2,358.5 276.8,358.4 281.5,352 C282.9,350.1 283.7,349.7 285.7,349.6 C288.7,349.5 294.2,347.1 294.1,346 C290.4,344.4 286.1,336 286.8,335.9 C307,325.2 311.2,303.1 296.5,286.9 L310.6,286.7 L311.1,374.9 C313.9,373.1 320.1,369.1 320.1,369.1 L319.9,300.5 C320.9,300.7 321.9,301.4 323.7,301.7 L324.3,366.6 C324.3,366.6 326.1,365.9 327.7,364.8 C335.6,359.6 350.9,347.7 350.9,347.7 L350.4,247.7 L348.4,247.7 L348.7,347.6 L324.9,365 L324.7,302.9 C324.7,302.9 326.6,302.6 327.3,302.5 C334.3,301.5 337.5,292.6 332.9,286.8 C331.2,284.7 332.4,284.9 335.9,284.2 C342.1,283.7 345.5,279 343.7,275.6 C342.9,274.2 343.9,274.3 344.6,273 C345,271.9 344.9,270.6 344.8,269.5 C344.6,268.1 345.1,267.5 345.5,266.6 C346.1,265.2 345.5,263.7 344.6,262.4 C343.6,261 343.9,259.6 343.9,258.7 C343.9,256.7 343.1,256.4 341,254.4 C339.4,252.9 340.7,252.6 343.1,251.4 C346.9,249.5 347.1,242.6 342.1,239.7 C339.4,238.1 334.6,238.3 324,239.9 C320,240.5 315.3,241 315.3,241 C315.3,241 315.3,201.9 315,181.8 L292.3,168.3 Z M292.3,169.7 C292.3,169.7 313.7,182.2 313.600349,182.6 C306.4,192.5 279.6,231.7 279.4,279.2 C259.7,276.7 251.7,292.1 250.7,292.1 C248.1,234 271.7,192.4 283.8,174.7 L292.3,169.7 Z M278.8,177.3 L278.7,178.7 L274.5,185 L274.4,178.7 L278.8,177.3 Z M272.2,179.6 L272.4,189.8 L263.7,196.4 L263.2,185.7 L272.2,179.6 Z M191.6,181.9 L196.1,185 L195.9,195.1 L189.2,182.9 L191.6,181.9 Z M314,185.3 L314,192.6 C296.8,216.8 287.8,244.4 285.1,279.4 L280.9,279.3 C282.1,244.5 293.8,212.8 314,185.3 L314,185.3 Z M197.8,186.1 L208.4,193 L207.9,204.6 L198.3,198.4 L197.4,196 L197.8,186.1 Z M261.9,186.6 L261.9,197.4 L253.7,203.5 L253.3,192.8 L261.9,186.6 Z M162.8,189.4 C164,189.4 165,190.3 165.2,192 C166.1,199.1 171.5,197.1 172.8,199.2 C173.3,199.9 172.1,200.6 168.4,200.3 C161.6,199.8 156.6,194.3 160.1,190.6 C161,189.8 162,189.4 162.8,189.4 L162.8,189.4 Z M210,194 L219,199.8 L219,211.7 L210.1,206.3 L210,194 Z M251.2,194 L251.9,204.5 L242,211.1 L241.7,200.7 L251.2,194 Z M270,194.1 L264.3,206.2 L231.2,230 L203.7,212.2 L198.6,200.5 L230.7,221.4 L270,194.1 Z M180.7,198.9 C189.5,198.8 196.3,208.1 198.6,216.3 C200.3,221.7 200.5,223.7 200.7,232.3 C200.9,241.1 201.2,242.6 202.8,243.8 C203.8,244.6 204.1,244.4 204.2,242.8 C204.5,239.4 208.6,241.5 208.7,245.1 C208.8,249.1 204.3,250.4 201.1,247.3 C199.4,245.7 199.3,245.7 198.8,248.9 C198.4,251.1 195.9,264.6 202.4,268 C203.6,268.1 203.9,267.1 203,266 C201.2,263.7 204.8,261.1 207.8,262.5 C211.4,264.3 211,270 207.2,272 C202.8,274.3 197.2,271.7 194.6,266.1 C192.7,262 192.7,256.2 194.6,247.7 C195.5,243.8 195.9,241.3 196.1,238.3 C196.2,237.3 196.3,236.2 196.4,235.9 C196.6,235 196.2,234.9 194.6,235.7 C190.3,237.8 185.7,236.3 184.5,232.4 C183.1,227.7 188.4,222.9 191.6,225.8 C192.8,226.9 192.7,228.1 191.2,228.8 C188.7,230.1 189.5,233.3 192.2,232.7 C201.1,230 193,205.1 182.9,203.3 C176.3,202.2 171.1,209.7 175.9,213.7 C177.8,215.3 179.7,214.4 179.3,212.2 C178.7,209.1 182.9,209.4 184.4,212.6 C186.9,217.8 180.5,222 174.4,219.2 C163.5,212.9 170.9,199.1 180.7,198.9 L180.7,198.9 Z M220.6,200.8 L229.5,206.8 L229.6,218.4 L220.8,213.2 L220.6,200.8 Z M240.2,201.8 L240.2,212.4 L231.6,218.6 L231.6,207.3 L240.2,201.8 Z M263.2,208.8 L258.8,221 L231.1,239.9 L208.3,225.6 L204.4,214.3 L231.3,231.7 L263.2,208.8 Z M83.7,209.7 L83.7,271.5 C74.7,271.9 69.6,280.8 76.3,289.1 C76.3,289.1 75.1,289.2 73.8,289.4 C67.7,290.2 63.7,293.5 64.5,297.4 C64.8,298.6 64.5,299.8 64.2,300.4 C63.7,302 63.8,303.2 64.5,304.6 C65.1,305.7 65,306.1 64.7,306.9 C64,308.6 64.2,310 65,311.3 C66,312.3 65.7,313.1 65.6,314.6 C65.4,316.8 65.8,317.7 67.2,318.6 C69,319.7 69.7,321.5 67.6,321.4 C66.6,321.3 63,324.8 63,324.8 L62.7,225.6 L83.7,209.7 Z M132.3,217.6 C133.9,217.6 135.6,219.6 137.9,223 C139.3,225.4 139.4,225.1 142.6,225 C145.9,225.2 148,226.1 148.9,227.1 C149.2,227.5 148.3,227.6 146.2,229.7 C144,231.9 143.7,232.8 142.2,235.3 C141.7,236.2 140.5,236.3 140,235.5 C139.6,234.8 140.7,232.7 142.8,230.1 C145.7,227.3 145.1,227 140.8,227.4 C137.8,227.7 137.5,227.6 136.3,225.7 C132.9,218.9 131.1,219.2 127.8,225.9 C126.9,227.8 127.3,227.7 123.4,227.4 C120.4,227.2 119.6,227.9 121.3,229.5 C124,231.7 125,236.9 124.9,236.8 L122.8,237 C122.8,237 122.2,235.8 121.9,235.1 C121.3,233.6 119.8,231.4 118.2,229.6 C115.9,227.1 117.2,225.7 122.3,225.2 C125.2,224.9 125.2,224.9 126.6,222.9 C129.1,219.7 130.7,217.6 132.3,217.6 L132.3,217.6 Z M257.8,223.8 L254.8,234.3 L231.2,250.8 L212,238.1 L209.5,228.2 L231.6,242.2 L257.8,223.8 Z M176.4,232.1 C176.4,232.1 183.2,245.4 185.7,254 C187.9,261.5 190.8,283.2 190.1,284.5 C188.4,282.2 182.9,282.7 182.8,282.7 C183.3,280.2 181.2,275 176.5,274 L176.4,232.1 Z M254.1,237 L251.7,247.4 L231.6,261.9 L215,250.6 L212.8,240.6 L231.1,252.9 L254.1,237 Z M137.2,237.6 L139.8,238.5 L140.3,257.3 L160.4,260.6 L160.9,263.8 L137.6,260 C137.4,252 137.2,237.6 137.2,237.6 L137.2,237.6 Z M127,238.1 L127.6,259.9 C127.4,259.8 110.8,262.2 104.5,263.9 L104.9,260.9 C104.9,260.9 116.4,258.4 124.7,257.4 C124.7,251.3 124.7,244.9 124.6,238.7 L127,238.1 Z M314.1,242.2 C314.1,242.2 316.8,242.5 322.7,241.4 C337.8,238.8 341.9,239.8 343.8,244.5 C345.9,251.7 338,251.9 336.6,247.3 C335.7,244.3 332.5,245 321.6,247.5 C312.3,249.7 306.5,247.9 306.6,242.7 C306.7,237.3 312.9,236.8 314.1,242.2 L314.1,242.2 Z M190.1,238.2 C192,238.2 193.5,239.7 193.5,241.5 C193.5,243.4 192,244.9 190.2,244.9 C188.3,244.9 186.8,243.4 186.8,241.6 C186.7,239.8 188.2,238.2 190.1,238.2 L190.1,238.2 Z M141.1,238.8 L143.5,239.5 C143.5,239.5 143.8,253.7 143.9,253.8 C149,254.9 159.8,256.9 159.8,256.9 L160.4,259.7 C155.9,258.6 141.5,256.3 141.5,256.3 C141,250.2 141.1,238.8 141.1,238.8 L141.1,238.8 Z M123.7,239.1 C123.7,239.1 123.7,250.5 123.5,256.6 C123.6,256.5 111.3,258.6 105.1,259.8 L105.6,257.5 C110.5,256.4 115.9,255.3 121.3,254.1 C121.2,249.6 121.2,239.8 121.2,239.8 L123.7,239.1 Z M132.4,241.5 C133.9,241.5 135.1,242.7 135.2,244.2 C135.2,245.7 134,246.9 132.5,246.9 C131,246.9 129.8,245.7 129.8,244.2 C129.7,242.8 130.9,241.5 132.4,241.5 L132.4,241.5 Z M336.6,248.6 C338.3,251.1 339.7,251 341.3,250.8 C340.9,250.9 338.9,252.1 339.1,252.5 C339.2,252.7 338.3,255.8 339.6,255.9 C344.6,256.4 342.1,261.6 342.7,262.4 C344.1,263.9 345,264.9 344.1,266.8 C343.3,268.5 342.1,268.5 343,269.9 C345,272.9 342.2,273.5 342.5,275.6 C342.7,276.8 343.1,278.5 342.7,279.5 C341.3,282.4 336.5,284 331.1,284.3 C330.3,284.3 330.9,283.1 330.6,282.3 C329.3,281.5 330,280 330.4,279.1 C330.8,277.9 330.8,277.9 330,277.2 C327.7,275.8 327.8,275.1 328,274.1 C328.5,271.1 328,270.8 327.1,270.3 C325.9,269.7 326.1,268.4 326.6,266.8 C327,265.7 326.7,265.4 326.2,264.3 C325.9,263.7 325.8,263.4 325.8,263 C326,261.4 324.6,261.4 322.6,263 C320.9,265.9 320.4,269.7 319.3,272.1 C318.5,273.9 318.4,275.9 319.3,280.1 C321.2,286.6 319.8,287.7 312.5,286.3 C307,284.9 305.4,279.1 306.9,271.9 C307.1,270.7 307.1,269.6 307,268.7 C306.4,263.8 307.7,259 311.1,255.8 C316.8,250.4 319.7,249.6 331.5,250.3 C336.1,250.6 336.5,250.9 336.5,250.9 C336.5,250.9 336.4,248.6 336.6,248.6 L336.6,248.6 Z M251.1,250.1 L249.7,260.1 L238.6,268 C233.4,263.9 229.3,265.2 225.6,269.7 C222.7,268.2 216.8,264.2 216.8,264.2 L215.3,252.8 L231.5,264 L251.1,250.1 Z M132.7,252.5 C134.2,252.5 135.4,253.7 135.4,255.2 C135.4,256.7 134.2,257.9 132.7,258 C131.2,258 130,256.8 129.9,255.3 C130,253.7 131.2,252.5 132.7,252.5 L132.7,252.5 Z M249.2,262.8 L248.6,272.5 L244.6,275.5 L240.6,275.1 L239.7,269.1 L249.2,262.8 Z M132.6,262.8 C134.1,262.8 135.3,264 135.4,265.5 C135.4,267 134.2,268.2 132.7,268.2 C131.2,268.2 130,267 130,265.5 C129.9,264.1 131.1,262.9 132.6,262.8 L132.6,262.8 Z M143.5,263.1 C145,263.1 146.2,264.3 146.2,265.8 C146.2,267.3 145,268.5 143.5,268.6 C142,268.6 140.8,267.4 140.7,265.9 C140.8,264.4 142,263.2 143.5,263.1 L143.5,263.1 Z M121.8,263.7 C123.3,263.7 124.5,264.9 124.6,266.4 C124.6,267.9 123.4,269.1 121.9,269.2 C120.4,269.2 119.2,268 119.1,266.5 C119.1,264.9 120.3,263.7 121.8,263.7 L121.8,263.7 Z M323.6,264.1 C324.4,264 325.5,265.2 324.9,266.9 C324.2,268.8 324.7,269.5 325.9,271.1 C326.9,272.4 326.8,272.6 326.6,273.5 C326.4,279.1 330,276.7 328.4,280.7 C328.1,281.6 328.5,282.8 328.7,283.9 C328.4,282.9 321.7,283 321.2,284 C320.3,283.9 319.1,277.6 320,276.8 C320.1,276.8 320.8,277.9 321.2,278.5 C322.1,280 322.3,279.9 322,278.2 C320.9,271.2 321.5,264.1 323.6,264.1 L323.6,264.1 Z M154.5,264.6 C156,264.6 157.2,265.8 157.3,267.3 C157.3,268.8 156.1,270 154.6,270 C153.1,270 151.9,268.8 151.9,267.3 C151.8,265.8 153,264.6 154.5,264.6 L154.5,264.6 Z M110.5,265.1 C112,265.1 113.2,266.3 113.2,267.8 C113.2,269.3 112,270.5 110.5,270.5 C109,270.5 107.8,269.3 107.7,267.8 C107.8,266.3 109,265.1 110.5,265.1 L110.5,265.1 Z M216.9,265.9 L225,271.2 C225.1,272.9 224.9,275.2 225.5,276 C220.2,275.5 217.5,278.5 217.5,278.5 L216.9,265.9 Z M133.5,270.2 C142.4,270.3 151,271.7 159,274.3 L158.4,277.2 C142.4,273.1 124.5,272.9 107.4,277.4 L106.1,274.4 C114.7,271.7 123.4,270.4 131.8,270.3 C132.3,270.2 132.9,270.2 133.5,270.2 L133.5,270.2 Z M83.2,274.1 C85.5,274.1 87.9,274.9 89.6,276.8 C92.8,280.3 91.2,286.9 86.8,289 C80.1,292.1 73.2,285.5 76,278.6 C77.1,275.7 80.2,274.2 83.2,274.1 L83.2,274.1 Z M248.3,275 L248.2,277.9 L246.2,276.2 L248.3,275 Z M205.8,275.1 C208.7,275.1 211.2,277.4 211.2,280.4 C211.2,283.3 208.9,285.8 206,285.8 C203.1,285.8 200.6,283.5 200.6,280.5 C200.5,277.5 202.9,275.1 205.8,275.1 L205.8,275.1 Z M83.3,275.3 C82.6,275.3 81.4,275.6 80.8,276.1 C79.4,277.4 80.8,277.5 82.7,277.8 C86,278.4 86.9,281.3 86.6,284.4 C86.3,287.2 87.3,287.2 88,286.1 C91.2,281.8 88.6,275.6 83.3,275.3 L83.3,275.3 Z M237.9,276.7 C237.8,276.7 237.7,276.8 237.7,276.8 C237.8,276.8 237.8,276.7 237.9,276.7 L237.9,276.7 Z M132.6,278.3 C136.6,278.2 137,284.8 133.5,292.1 C132.4,294.3 131.9,294 130.7,290.7 C127.9,282.5 128.5,278.4 132.6,278.3 L132.6,278.3 Z M141.8,278.5 C142.6,278.5 143.3,278.8 143.9,279.4 C146,281.8 144.4,285.8 138.7,291.9 C137.3,293.4 136.6,293.9 136.1,294 C134.7,294 134.7,293.8 136.3,288.5 C137,286.2 137.7,283.6 137.9,282.8 C138.4,280.3 140.1,278.6 141.8,278.5 L141.8,278.5 Z M127.4,284.4 C127.8,286.2 128.5,288.7 128.9,290 C129.3,291.3 129.6,292.5 129.6,292.7 C129.3,293.7 126.7,292.3 124.9,290.2 C121.2,286 119.8,282.3 120.5,280.3 C121.6,278.7 124.5,278 125.8,279.4 C127.1,280.8 127.3,283.9 127.4,284.4 L127.4,284.4 Z M152.6,280.2 C156.5,282.5 152,287.7 143.4,292 C139.7,293.8 140,293 142.8,289.4 C143.9,288 145.3,285.7 146,284.4 C147.5,281.2 149.1,278.2 152.6,280.2 L152.6,280.2 Z M114.1,280.2 C115.3,280.2 116.6,281.5 118.9,284.9 C119.9,286.4 121.6,288.5 122.6,289.6 C123.6,290.7 124.4,291.8 124.4,292 C124,294.4 112,286.9 111.1,283.8 C110.9,281.9 112.4,280.2 114.1,280.2 L114.1,280.2 Z M286.3,287 C288.5,291.5 288.7,294.2 286.9,295.3 C284.4,296.7 281.1,294.5 281,291.4 C281,290.3 279.9,286.6 278.9,284.2 C278.1,282.2 278,281 278.6,280.9 C281.2,281.2 285.2,284.9 286.3,287 L286.3,287 Z M271.9,283.6 C271.1,286.1 270.2,290.1 270.2,291.3 C270.2,291.8 269.9,292.7 269.6,293.4 C267.4,297.9 262.2,294.2 264.1,289.5 C265.8,285.2 270.2,280.8 272,280.6 C273.1,280.5 272,283.3 271.9,283.6 L271.9,283.6 Z M275.4,281.2 C276.3,281.1 277,283 278.1,286.2 C279.6,290.5 279.6,293.9 277.9,295.3 C274.4,298.4 270.7,293.9 272.1,288.3 C273.3,283.8 274.4,281.3 275.4,281.2 L275.4,281.2 Z M157.8,282 C162.2,346.2 129.2,395.6 126.9,396.9 L115.7,403 L96.1,392.3 C116.5,364.4 128.6,332.4 129.6,295.2 C148.4,297.1 158.1,282 157.8,282 L157.8,282 Z M265.8,282.2 C267.2,281.8 266.2,283 264.9,285 C263.4,287.1 261.6,292.8 260.1,293.7 C256.7,295.3 252.9,292.2 255,289.6 C256.7,287.1 262.2,283.1 265.8,282.2 L265.8,282.2 Z M285.7,282.6 C286.2,282.6 287.2,283 288.6,283.6 C295.6,287 299,291.5 296,293.7 C293.9,295.2 291.7,294 289.6,290.1 C288.9,288.7 287.6,286.7 286.7,285.6 C285.2,283.6 284.9,282.6 285.7,282.6 L285.7,282.6 Z M325.1,284.9 C329.6,284.8 333.3,288.4 333.4,292.9 C333.5,297.4 329.9,301.1 325.4,301.2 C320.9,301.3 317.2,297.7 317.1,293.2 C317,288.7 320.6,285 325.1,284.9 L325.1,284.9 Z M322.6,287 C317.3,289.3 318.9,297.6 323.5,298.8 C325.4,299.3 327.8,298.5 326.8,297.6 C320.8,295.7 320.7,291.3 323.2,288 C323.5,287.6 323,286.8 322.6,287 L322.6,287 Z M102.3,298.4 C102.1,303.1 103.1,308.5 100.9,313.6 C97.5,321.4 86.6,325 80.8,324.3 C79.6,323.8 78.2,323.3 77,323.8 C76.3,324.1 75.4,324.1 74.6,323.7 C73.8,323.4 73.1,323.8 72.4,323.6 C71.6,323 70.2,321.7 70.3,320.8 C70.6,319.4 70.5,318.4 68.9,318 C66.7,317.4 66.3,316.2 66.9,312.7 C67,311.9 67.2,311.6 66.7,311.3 C65.1,310.2 64.5,308.2 65.5,306.1 C66.2,304.9 66.7,304 65.5,303.1 C65,302 65.1,301.6 66.2,300.1 C67.3,298.8 67.5,298.6 66.8,297.4 C65.2,294.8 67,292.9 69.2,291.8 C72.2,290.6 74.7,290 77.8,289.6 C79,289.7 78.9,290.7 79.6,291.7 C80.6,293.3 79.2,295.6 80,296.4 C81.2,297 81.8,298.1 81.7,299 C81.7,301.2 81.8,302 82.4,302.9 C83.1,303.9 83.3,305.8 82.7,307.1 C82.2,308.2 82.2,308.2 82.9,308.8 C83.6,309.5 84,312.8 83.7,312.7 L86.7,312.4 C86.4,312.7 87.8,306.2 91.3,301.1 C91.1,297.1 89.6,293.5 89.7,288.2 C97.2,285.6 102.6,291.9 102.3,298.4 L102.3,298.4 Z M218.4,289.5 C219.5,290.3 224.8,291.8 225,291.7 C224.8,294.3 226.4,299.2 232,300.9 C232.1,308.1 232,341 232,341 C224.2,328 219.4,311.2 218.4,289.5 L218.4,289.5 Z M88.3,290.7 C88.3,290.7 88.6,291.6 88.9,293.5 C89.4,297.3 88.9,297.8 87.9,295.2 C86.7,292.2 86.7,294.5 88,301.4 C88.3,303.1 88.3,303.5 87.9,304.6 C87.6,305.3 87.2,306.9 86.8,308.2 C85.7,312 85.1,313.1 84.1,310.1 C83.5,308.6 83.1,308.3 83.5,307.1 C84,305.6 83.9,304.5 82.9,303 C82.7,302.8 82.4,302.2 82.3,300.7 C82.6,297.2 81,297.2 80.7,296.3 C80.8,294.9 80.1,291.6 81.1,291.7 C81.9,291.8 84.7,291.8 86,291.4 C86.5,291.1 88.3,290.7 88.3,290.7 L88.3,290.7 Z M204.2,291.1 C207.1,291.1 209.5,293.4 209.5,296.3 C209.5,299.2 207.2,301.6 204.4,301.6 C201.5,301.6 199.1,299.3 199.1,296.5 C199,293.5 201.3,291.1 204.2,291.1 L204.2,291.1 Z M123.5,294.3 L127.5,295.1 C128.4,295.4 127.7,350 96,389.5 L95.7,380.4 C110.8,358.4 121.6,331.6 123.5,294.3 L123.5,294.3 Z M190.7,295.4 L191.4,308.4 C189.2,306.5 183.5,302.9 183.5,302.9 L183.5,298.1 C183.6,298.1 188.4,298.5 190.7,295.4 L190.7,295.4 Z M160.1,295.6 C161.1,296 161.9,296.9 162.7,297.6 L160.1,299.3 L160.1,295.6 Z M250.9,296.3 C268,301.4 284.9,301.2 301.5,297.5 L302.6,300.7 C284.5,305.6 266.6,305.3 248.7,299.6 L250.9,296.3 Z M168,298.7 L168.9,304.3 L159.2,310.5 L159.7,302 L164.7,298.7 L168,298.7 Z M253.5,303.4 C255.1,303.4 256.3,304.6 256.4,306.2 C256.4,307.8 255.2,309 253.6,309.1 C252,309.1 250.8,307.9 250.7,306.3 C250.7,304.7 251.9,303.4 253.5,303.4 L253.5,303.4 Z M297.5,303.6 C299.1,303.6 300.3,304.8 300.4,306.4 C300.4,308 299.2,309.2 297.6,309.3 C296,309.3 294.8,308.1 294.7,306.5 C294.7,304.9 295.9,303.7 297.5,303.6 L297.5,303.6 Z M215.1,312.4 C216.4,316.9 216.1,326.9 214.5,333.8 C214,335.8 213.7,343.1 213.7,343.1 C213.4,343.5 223.4,334.8 226.6,346.2 C227.7,350.1 223.2,353.8 220.2,352.7 C219.6,352.5 219.8,350.6 220.4,349.4 C222.1,346 217.3,344.3 214.6,347.2 C208.3,354.1 214.8,371.7 224.6,373.4 C232.7,374.8 239.3,366.7 233.8,361.9 C231.4,359.8 227.6,362.7 229.4,365.4 C231.3,368.3 227.8,369.4 225.2,366.8 C220.7,362.2 225.8,355.2 232.6,356.8 C243.5,359.3 241.3,376.3 229.8,377.3 C221.1,378 215.2,374.2 211.5,367.5 C208,361 207.8,355.8 209.4,344.5 C210.3,337.7 209.6,332.1 207.7,332.1 C206.7,332.1 205.9,332.6 205.7,333.8 C205.4,336.3 205.1,336.7 203.5,335.8 C201.5,334.7 200.4,331 203.7,328.5 C207,326 211.3,329.9 211.1,330.6 C211.2,330.5 211.5,329.8 211.9,326.9 C213.3,317.5 210.1,307.5 206.2,309.1 C205.3,309.4 205.4,309.8 206.6,310.5 C209.2,312 206.9,315.8 203.6,315.4 C198.9,314.9 197.9,308.3 202,305.4 C208.4,302 213.7,307.5 215.1,312.4 L215.1,312.4 Z M183.2,304.6 C183.2,304.6 191.5,309.7 192,311 C192.3,311.8 192.6,319.1 192.6,319.1 L178.2,310.1 L157.5,322.9 C157.8,320.1 159.3,312.9 159.3,312.9 L170.3,305.9 C170.3,306.2 177.9,311.2 183.2,304.6 L183.2,304.6 Z M286.4,305 C288,305 289.2,306.2 289.3,307.8 C289.3,309.4 288.1,310.6 286.5,310.7 C284.9,310.7 283.7,309.5 283.6,307.9 C283.6,306.4 284.9,305.1 286.4,305 L286.4,305 Z M264.4,305.1 C266,305.1 267.3,306.3 267.3,307.9 C267.3,309.5 266.1,310.8 264.5,310.8 C262.9,310.8 261.7,309.6 261.6,308 C261.6,306.4 262.8,305.1 264.4,305.1 L264.4,305.1 Z M275.5,305.7 C277.1,305.7 278.4,306.9 278.4,308.5 C278.4,310.1 277.2,311.3 275.6,311.4 C274,311.4 272.8,310.2 272.7,308.6 C272.7,307 273.9,305.8 275.5,305.7 L275.5,305.7 Z M247.8,309.7 C255.3,311.3 262.8,312.9 270,313.6 L270.3,335.6 L268.2,335.5 L267.9,315.8 C261,315.3 254.4,313.8 248.3,312.2 L247.8,309.7 Z M303.4,310.4 L303,313 C303,313 290,315.2 283.3,316.1 C283.2,320.5 283.2,335.4 283.2,335.4 L280.6,335.9 L280.6,313.5 C288.3,312.6 296,311.8 303.4,310.4 L303.4,310.4 Z M178.1,311.7 L193.4,321.8 L195.2,332.5 L177.4,320.7 C177.4,320.7 161.3,331.6 155.3,335.6 L157.1,325.5 L178.1,311.7 Z M248.5,313.7 C254.6,315 260.8,316.4 266.9,316.9 L267.2,334.6 L264.4,333.8 L264.2,319.4 C259.4,319 254.5,318.1 249.5,317 L248.5,313.7 Z M302.8,314.2 L302.3,316.6 C302.3,316.6 292.5,318.1 287.4,319 C287,319.1 287.1,334.6 287.1,334.6 L284.7,335 L284.4,316.9 L302.8,314.2 Z M275.3,316.2 C276.9,316.2 278.1,317.4 278.2,319 C278.2,320.6 277,321.8 275.4,321.9 C273.8,321.9 272.6,320.7 272.5,319.1 C272.5,317.5 273.7,316.2 275.3,316.2 L275.3,316.2 Z M177.8,322.6 L195.8,334.8 C195.8,334.8 197.9,341.1 198.3,344.7 L177.6,331.3 L151.6,348.5 L154.6,337.9 L177.8,322.6 Z M68.6,323 C69.7,323 70.7,323.7 71.3,325.4 C72.1,327.7 73.5,328.4 77.4,328.3 C84.9,327.9 92.8,324.3 100,327 C103.5,328.3 104.7,333.4 101.8,334.7 C98.7,336.1 97.3,335.2 96.2,332.8 C95.2,331.8 93.9,331.9 87.2,333.1 C84.2,333.6 80.7,334 77.8,334.2 C70.3,334.8 66.1,332.4 65.2,328 C64.4,325.1 66.8,322.9 68.6,323 L68.6,323 Z M275.1,327.1 C276.7,327.1 277.9,328.3 278,329.9 C278,331.5 276.8,332.7 275.2,332.8 C273.6,332.8 272.4,331.6 272.3,330 C272.3,328.4 273.6,327.1 275.1,327.1 L275.1,327.1 Z M219.9,330.5 C221.9,330.5 223.6,332.1 223.6,334.1 C223.6,336.1 222,337.8 220,337.8 C218,337.8 216.3,336.2 216.3,334.2 C216.2,332.2 217.9,330.6 219.9,330.5 L219.9,330.5 Z M177.9,333.1 C177.9,333.1 192.7,343 199.6,347.6 L203.4,358.5 L178.1,342.1 L147.2,362.2 L150.9,351 L177.9,333.1 Z M285,336.5 C286.3,340.1 288.8,342.9 291.4,345.7 C291.4,345.7 290,348.4 284.8,348.3 C282,348.2 281.8,348.6 280.9,350.5 C279.3,352.9 278,354.5 277,355.3 C275.2,356.7 271.8,354.6 269.1,350.4 C268.1,348.9 267.7,348.5 264.6,348.6 C259.9,348.7 258.2,347.4 260.7,345.3 C262.8,342.7 264.3,339.9 266.2,337.2 L268.3,337.4 C268.4,337.7 266.7,342.9 264.2,345.1 C263,346.5 264.7,347 267.7,346.4 C269.6,345.8 270.1,346 271.5,349 C274.5,354.6 276,354.3 279.5,348.6 C280.7,346.1 280.7,345.8 284,346.6 C287.6,347 288.7,346.5 287.2,345.3 C284.2,342.8 282.6,336.8 282.6,336.8 L285,336.5 Z M178,344 C178,344 204.8,361.6 204.8,361.2 L210.2,373.9 L178.7,352.9 L140.2,377.9 L146,365.4 L178,344 Z M179,355.5 L188.4,361.6 L188.4,372.7 L178.8,366.3 L179,355.5 Z M176.6,355.8 L176.8,366.7 L168.4,371.7 L167.9,361.4 L176.6,355.8 Z M166,362.9 L165.9,363.3 L166.1,363.4 L166.2,363.4 L166.5,373.2 L156.8,379.9 L156.8,368.8 L166,362.9 Z M190.7,363 L199.5,368.9 L199.9,380.6 L190.4,374.3 L190.7,363 Z M201.6,370.2 L210.4,376.3 L210.7,388 L201.7,381.9 L201.6,370.2 Z M154.9,370.2 L154.9,381 L146.1,387.1 L145.7,376.1 L154.9,370.2 Z M247.7,384.2 C246,386 245.3,385.8 243.8,382.8 C242.3,379.7 239.9,378.2 236.6,378.3 C232.4,378.4 235.1,375.6 239.6,375.3 C247.4,374.9 251.4,380.1 247.7,384.2 L247.7,384.2 Z M143.7,377.8 L143.9,388.7 L135.2,393.2 L134.9,388.1 L139.4,380.2 L143.7,377.8 Z M132.4,392.3 L132.7,394.3 L131.1,394.9 L132.4,392.3 Z M283.1,419.5 C284.2,420.2 294.3,434.8 295,450.6 C295.4,454.8 293.6,455.6 292.7,451.6 C291.2,445.1 287.2,439.5 281.9,436.6 C255.3,426.7 243.9,460.1 261.5,473.6 C267.7,478.1 279.8,477.6 284,471.4 C285.3,469.5 286.6,469.7 286.8,470.9 C286.9,471.5 286.6,471.9 284.9,473.4 C278.3,479.3 274.4,487.6 276.5,493.8 C279.3,501.9 286.8,507.5 295.6,508.8 C305,510.2 314.7,503.6 317.6,495 C320.2,487.1 317.9,480.5 310.6,473.9 C307.2,470.8 307,470.5 307.7,469.8 C308.4,469.1 308.8,469.3 310.5,470.9 C315.7,476 325.5,478.7 331.9,475.7 C342.2,470.9 346.6,454.9 339.6,444.4 C335.3,435.9 323.7,432.7 314,437.4 C308.8,439.9 304.3,445.8 302.9,451.7 C302.3,454.3 300.8,454.8 300.5,452.4 C301.2,442.8 302.6,436.5 313.1,419.7 L283.1,419.5 Z M371.6,436 C371.6,436 375.4,443.9 376,448.1 C376.4,451.2 376.5,452.4 375.7,452.4 C375.4,452.4 374.8,450.9 374.5,449.8 C372.4,440.3 358.7,440.5 356.7,449.9 C354.7,459.5 363.4,466.4 371,460.4 C374.1,458.2 374.3,459.2 371.2,462.4 C365.2,468.4 367.9,476.7 375.4,479 C385.6,482 391.9,469.6 383.2,461.7 C382.1,460.6 381.1,459.4 381.1,459.2 C381.1,458.6 381.9,458.5 382.4,459.2 C387.4,464.4 397.4,462.8 398.9,456.1 C401.8,443.6 385.6,438.2 381.1,449.4 C380,452.2 380.2,452.6 379.6,452 C379.3,451.7 379.4,450.5 379.7,449 C380.4,445.8 384.9,436.2 384.9,436.2 L371.6,436 Z M237.5,470.5 C200.7,478.4 165.5,475.6 140.2,470.9 L128.6,490.7 L127.8,490.7 L124.8,495.8 L125.1,496.4 C125.1,496.4 115.5,514.8 111.5,520.6 C158.7,520.1 262.4,519.9 262.4,519.9 L256.1,507.2 L256.4,506.9 L250.2,493.6 L248.2,491.3 C248.2,491.3 247,488.9 246,486.3 C245.1,483.9 241.5,477.4 241.5,477.4 L241,477.4 L237.5,470.5 Z M141.6,473.3 C142.1,473.7 188.7,482.5 237,473.4 L239.6,477.8 C197.3,487.5 136.2,478.2 138.6,477.3 L141.6,473.3 Z M142.4,482 C146.7,481.8 151,484.1 153.9,488 C154.8,489.2 156.3,492.8 156.3,492.8 C156.3,492.8 158.3,489.4 160.3,487.7 C163.3,485.1 167.3,483 172.9,483.2 C178.1,483.4 183.9,486.2 189.1,494.4 C190.4,489.7 207.6,473.6 221.7,493.6 C223.3,488.3 230.9,477.7 243.1,485.1 C243.9,486.9 244.8,488.9 244.8,488.9 C237.6,483.8 225.6,487.2 222.8,495.1 C222.5,496.1 222.9,496.6 223.2,497.5 C226.9,502.8 217.2,502.7 220.1,498.4 C220.6,497.4 220.7,496.6 219.8,495.3 C217.5,491.9 210.7,487.6 205.7,487.8 C199.9,487.9 193.5,491.8 191.3,495.3 C190.5,496.6 190.3,497.9 191,499 C191.5,500.1 191.3,501.1 190.5,501.8 C188.5,503.4 186,501.6 187,499.1 C187.6,498 187.5,496.7 186.2,494.9 C183.6,491.2 177.5,487.4 172.3,487.5 C164.7,487.7 157.1,493.1 157.6,497.6 C157.8,499.6 157.3,500.3 155.7,500.1 C153.8,499.8 153.5,498 154.9,496.5 C155.1,496 155.4,494.8 154.8,494 C146.8,483.2 134.9,486.3 132.1,488.8 C134.9,484.2 138.6,482.1 142.4,482 L142.4,482 Z M135.3,489.5 C138.3,489.5 141.5,491.8 142.5,493.6 C143.2,492.8 150,489.6 153.3,494.2 C144.7,493.5 144.6,502.7 150.9,503.6 C148,512.4 161,513 160.2,504.7 C169.9,506.1 168.7,493.8 159.6,495.1 C164.4,491.6 167.7,492.7 173.4,496.7 C175.3,494.2 183.3,491.8 185.2,496.2 C176.1,495.6 177.7,506.1 184.4,506.2 C182.4,513.5 195.7,516.2 193.7,505.3 C202.2,505.9 200.9,494.5 192.8,495.4 C193.4,493.3 201.6,492.4 205.3,496.4 C208.6,493.4 212.3,491.3 219,495.6 C209.9,494.1 209.8,505.9 218.2,505.2 C217.4,513 229.3,513.1 227.3,504.1 C236.4,501.7 231.4,491.9 224.7,494.6 C227.7,491.1 232.7,492.7 234.7,493.4 C240.9,486.3 246.3,492.2 246.3,492.2 C235.5,491.1 237.9,506.4 248.4,500.8 C248.4,503.9 249.7,506.7 254,507.1 L259.1,517.6 L115,518.5 L122.9,504.5 C123.7,504.8 128.3,505.2 129.3,499.8 C138.8,502.8 139.4,491.8 132.3,490 C133.3,489.7 134.3,489.5 135.3,489.5 L135.3,489.5 Z M358.3,490.8 L358.3,496.1 L362.5,496.1 L374.5,523.1 L363,542 L358.6,542 L358.6,546.8 L375.4,546.8 L375.4,542 L369.8,542 L385.2,519.8 L385.2,542 L380.6,542 L380.6,546.8 L395.9,546.8 L395.9,542.1 L390.9,542.1 L390.9,496.2 L395.9,496.2 L395.9,490.9 L380.6,490.9 L380.6,496.2 L385.2,496.2 L385.2,509.8 L378.7,518.2 L368.9,496.2 L375.4,496.2 L375.4,490.9 L358.3,490.9 L358.3,490.8 Z M129.6,493.5 C130.5,495 129.8,496 128.1,496 C128.2,496 129.2,494.5 129.6,493.5 L129.6,493.5 Z M248.2,495.4 L249.1,497.4 C248.1,497 248,496.5 248.2,495.4 L248.2,495.4 Z" id="Shape" fill="#000000" fill-rule="nonzero"></path>
        </g>
    </g>
</svg>