<?xml version="1.0" encoding="UTF-8"?>
<svg width="415px" height="579px" viewBox="0 0 415 579" version="1.1" xmlns="http://www.w3.org/2000/svg" xmlns:xlink="http://www.w3.org/1999/xlink">
    <!-- Generator: Sketch 61.2 (89653) - https://sketch.com -->
    <title>13D</title>
    <desc>Created with Sketch.</desc>
    <g id="Page-1" stroke="none" stroke-width="1" fill="none" fill-rule="evenodd">
        <g id="13D">
            <path d="M20.1,0.9 L394.3,0.9 C405.2,0.9 414,9.7 414,20.6 L414,558.9 C414,569.8 405.2,578.6 394.3,578.6 L20.1,578.6 C9.2,578.6 0.4,569.8 0.4,558.9 L0.4,20.6 C0.4,9.7 9.1,0.9 20.1,0.9 L20.1,0.9 Z" id="Path" fill="#FFFFFF" fill-rule="nonzero"></path>
            <path d="M20.1,0.9 L394.3,0.9 C405.2,0.9 414,9.7 414,20.6 L414,558.9 C414,569.8 405.2,578.6 394.3,578.6 L20.1,578.6 C9.2,578.6 0.4,569.8 0.4,558.9 L0.4,20.6 C0.4,9.7 9.1,0.9 20.1,0.9 L20.1,0.9 Z" id="Path" stroke="#000000" stroke-width="0.7974"></path>
            <path d="M54.3,47 C54.5,193.6 56,373.8 56.1,533.4 L359.4,533.3 L357.4,47.7 L54.3,47 Z M143.9,50.1 C196.2,51.5 248.9,50 301.6,50.4 C301.6,50.4 282.4,83.8 276.6,94.3 C275.3,96.6 275.2,98.2 275.9,99.2 C277,100.7 276.9,103.2 275.7,104.6 C275.2,105.2 275,105.6 274.9,106 C274.9,106.4 275.2,106.8 275.5,107.4 C276.4,110.6 274,112.8 271.5,113.8 C269.8,114.5 266,114.9 263.2,114.8 C245.7,114 211.4,99.2 197.3,98 C187.5,95.3 174.8,96.2 164.4,96.8 C162.4,96.9 162.8,92.3 162.8,92.3 C161.1,77.2 150.3,64 143.9,50.1 L143.9,50.1 Z M304.5,51.5 L353.9,51.6 L354.1,59.6 L333.3,80.9 C331.3,82.9 329.8,84.5 329.8,84.5 L329.7,103.7 C315.5,96.1 312.7,87 310.1,76.9 C286.4,94.4 285.3,132.7 311.2,152.4 C311.4,143.8 317.9,127 329.5,125.8 L329.7,192.5 L315.5,178.6 L284.6,179 C289.7,170.7 289.8,164.2 286.5,156.4 C280.9,143.7 272.4,114.8 273,114.9 C273,114.9 273.3,114.3 274,114.1 C276.6,113.5 278.2,111.1 277.5,108.1 C277.4,107.1 277.4,107.4 278,106.1 C280.5,101.8 277.5,97.2 277.5,97.2 L304.5,51.5 Z M140.5,51.9 L159.1,85.4 C159.1,85.4 158.9,86.9 159,87.8 C159.1,89.1 159.6,90.3 160.3,91.5 C160.8,92.3 161.1,93.4 161.3,94.4 C161.5,96.1 161.5,96.1 163.9,98.3 C164.4,98.8 164.5,99.1 164.3,99.5 C163.5,101.5 164,105.7 165.6,110.7 C167.6,117 168.1,116.9 164.4,125.3 C163.6,127.1 162.7,129.4 161.7,131.6 C157.1,141.1 156.4,143.7 164.3,148.8 C166.5,150.2 167.2,151.5 166.6,154.3 C166.2,156.5 166.1,158 167.1,159.2 C167.8,160 168.4,160.1 168.3,160.8 C168.2,161.2 167.7,163.1 167.8,164.7 C168.3,168.9 163.4,175.1 159,177.3 C158.1,177.9 157.9,177.2 157.4,176.3 C152.8,168.2 141.3,171.5 140.6,181.1 C140.4,183.6 140.5,184.7 139.8,185.3 C139.6,185.5 138.9,185.9 138.9,185.9 C138.9,185.9 121.8,197.1 110.8,202.8 C110.1,203.2 109.5,203.8 109,203.9 C108.4,204 108,203.9 107.6,203.5 C103.6,195.8 105.8,186.8 106.1,183.6 C106,182.5 105,182.3 103.6,182.2 C101.1,182.2 97.5,184.7 96.8,187 C96.1,189 95.7,190.3 95.1,190.3 C94.5,190.3 94.2,189.5 92.7,186.6 C89.6,180.6 89.1,179.9 86.2,176.4 C83.9,173.6 81.9,173.3 79.6,175.3 C78,176.7 78.1,175.5 76.7,174.8 C74.4,173.2 70.9,174.6 70.8,176.9 C70.7,178.8 70.7,180.2 68.8,180.3 C66.7,180.4 65.8,183.2 66.4,187 C66.7,189 66.8,189.4 66.2,190.1 C64.2,192.5 63.9,194.2 65,197.6 C68.2,207.3 72.8,213.8 77.1,222.6 C77.1,222.6 66.1,228.9 59.5,232.5 L59.3,52 L140.5,51.9 Z M354.9,61.5 L355.2,218.2 L331.5,194.9 C331.5,194.9 331,164.9 331.1,152.6 C331.1,140.3 331.3,128 331.3,125.8 C331.2,123.5 331.4,113.8 331.5,103.8 C331.7,82.9 329.7,85.5 333.6,81.5 L354.9,61.5 Z M308.6,80.2 L309.9,84 C300,89.7 287.8,121.4 310.1,144.6 L309.6,149.4 C286.3,128.3 290.6,97.9 308.6,80.2 L308.6,80.2 Z M310.3,84.7 C313.7,91.7 317.6,97.9 322.9,101.8 C320.1,108.6 318.8,116.1 323.7,126.2 C320.3,128.1 315.6,133 310.8,143.1 C293.1,125.3 297,99.5 310.3,84.7 L310.3,84.7 Z M179.4,98 C189.2,98 199.3,99.6 208.7,102.4 C214.6,132.1 224.9,152.1 224.9,163.8 C224.9,163.8 224.1,163.7 222.3,162.4 C218.1,159.3 212.5,161 209.5,164.9 C206.7,168.6 209.5,173.7 208.1,175.9 C205.4,179.9 198.3,187.4 197.1,187.1 C196.2,186.9 196.4,186.5 199.4,181.9 C202.5,177.1 205,172.7 203.9,171.6 C203.5,171.1 203.2,172.1 200.9,176.2 C195.4,185.8 190.5,191.7 188.6,191 C187.7,190.6 188.2,189.8 192.3,184.4 C196.9,178.3 198.2,174.5 197.7,172.8 C197.3,171.5 196.6,173.6 194.7,177.3 C192.7,181.3 189,185.7 186,189.9 C185.1,191.4 183.8,192.3 182.3,193 C181.1,193.5 179.3,194.3 178.2,194.2 C177.6,194.1 178,193.8 178.8,193.1 C184.7,187 189.8,180.3 192.6,173.8 C193,172.9 192.4,171.7 191.7,172.6 C187.3,180.4 181.1,190.1 174.5,194.3 C173.1,195.2 170.9,196 169,195.8 C165.7,195.7 166.9,195 169.9,193.1 C176.3,189 185.3,177.2 186.7,173 C187,172 186.7,171.5 186,171.5 C180.7,179.9 173.8,189.2 165.7,193.1 C161.3,195.2 155.8,195.6 153.1,194.3 C151.1,193.3 151.6,193 155.1,192.8 C163.6,192 173.5,184 178.4,175.6 C181.3,171 179.2,172 176,176.5 C170.4,184.2 159.3,191.5 152.4,190.9 C145.4,190.5 141.4,185.1 142.3,180.5 C142.8,177.7 144.8,174.8 148.7,174 C155.4,172.6 159.7,183.2 153.6,185.2 C151.5,185.9 150.7,185.4 151.5,184.5 C156,182.5 154,177.1 150.2,176.5 C147.8,176.1 145,177.8 144.9,181.5 C145,184.3 147.3,187 151.9,187.1 C157.3,187.2 165.7,183.3 170.8,176 C174.4,170.5 171.1,172.4 168.4,176 C166,179.2 158.4,183.8 157.8,183.6 L158.1,179.9 C158.2,180.6 169.9,172.6 169.2,166.6 C168.8,162.3 169.4,161 173.9,161 C177.2,161 181.5,162.2 182.7,163.7 C184,165.2 185.4,165.7 184.8,163.1 C183.8,158.9 185,158.2 182.6,159 C180.9,159.5 179.5,158.2 177.8,157 C176,155.7 173.6,155.1 170.9,155.2 C168.8,155.3 167.9,155.1 168.2,153.2 C168.4,151.8 168.7,150.6 168.3,149.7 C167.6,148.2 165.1,146.7 162.1,144.6 C158.6,142.1 159.3,141.9 166.7,124.9 C169.8,117.8 169.8,116.3 167.9,111 C165,102.7 164.5,99.3 170,98.2 C173,98.2 176.2,98 179.4,98 L179.4,98 Z M210.6,102.8 L213.5,103.6 C213.5,103.6 222.4,134 227.5,148.9 C229,153.4 230.2,159.6 230.5,165.3 C230.4,173.2 225.9,178.9 220.5,179.5 C216.6,179.9 212.5,177.9 210.6,173.7 C209,169.6 210.2,164.8 214.9,163.2 C222.9,160.3 228.8,170.6 220.9,173.7 C216.8,175.3 212.9,172.4 214.8,169 C216.1,166.6 219.7,166.9 220.6,169.3 C221.3,171.9 222.4,170.7 222,168.9 C220.5,163.2 213.2,164.5 212.6,169.8 C212.6,176.3 219.7,177.8 224,174.2 C227.3,171.3 227.6,166 226.8,161.4 C225.7,151.9 220.3,139.6 216.5,125.5 C214.4,118.4 211.6,110 210.6,102.8 L210.6,102.8 Z M324.2,103.2 L329.6,105.3 L329.5,123 L325,124.6 C318.9,115.4 323.8,103.2 324.2,103.2 L324.2,103.2 Z M215.6,104.3 L219.5,105.8 C221.7,118.3 231.8,142.1 235.4,159.9 C236.4,170.6 236.6,173.7 229.3,179.4 L229.3,179.3 L225.4,179.3 C225.4,179.3 225.4,179.1 227.1,177.8 C236.6,170.7 230.9,155.1 227.3,143.1 C221.1,123.9 215.5,104.3 215.6,104.3 L215.6,104.3 Z M178.9,105.5 C178.4,105.5 177.9,105.5 177.4,105.6 C171.5,105.9 170.5,106.3 170.5,107.6 C170.5,110 171.5,111.1 177,110.5 C181.8,110 188.7,110.7 193.4,112.8 C198.8,115.1 200.1,115.7 202.1,116.7 C207,119.2 206.1,116.7 201.7,113.8 C192.6,107.8 186.4,105.5 178.9,105.5 L178.9,105.5 Z M221.6,106.4 L225.3,107.8 C225.3,107.8 226.3,110.7 226.6,112.3 C230.2,128.2 239.9,146.1 241.1,164.7 C241.4,170.8 240.3,176.5 235.8,179.2 L232.4,179.2 C236,175.6 238.4,174.6 237.4,162.1 C235.9,146.2 225.3,126.2 221.6,106.4 L221.6,106.4 Z M228.1,109 L231.5,110.3 C235.4,131.8 254.8,163.9 242.5,179.4 L239.4,179.4 C242.2,175.1 243.3,171.3 242.9,165.5 C241.7,145.9 231.7,127 228.1,109 L228.1,109 Z M233.8,111 L237.5,112.1 C242.5,133.9 261.5,169.5 247.9,179.4 L245.2,179.3 C255.5,160.1 240,140.3 233.8,111 L233.8,111 Z M240.2,113 C241.3,113.6 242.9,113.9 244.2,114.3 C248.1,130.8 255.1,146.9 258.3,162.3 C259.4,170.7 257.5,177 252.3,179.4 L251.2,179.4 C255.9,172.3 255,163.3 252.5,153.5 C249,140.3 242.4,125.9 240.2,113 L240.2,113 Z M182.6,113.3 C180.9,113.3 179.1,113.5 177.2,114.1 C175.3,114.8 175.5,116.3 177.3,116 C177.9,115.9 179,115.7 179.7,115.6 C184.1,114.8 189.5,116.4 196,120.4 C197.6,121.4 199.3,122.3 199.7,122.6 C200.9,123.5 202.2,123.5 201.7,122.3 C201.5,121.8 199,119.9 196.8,118.6 C192.1,115.8 187.7,113.3 182.6,113.3 L182.6,113.3 Z M246.4,114.7 L250.1,115.3 C257,147.2 272.2,166.9 259.2,178.8 L256,178.8 C259.6,175.2 261.2,169.5 260,162.7 C258.8,155.8 255.2,144.9 252.3,135.3 C248.9,124.2 246.1,114.8 246.4,114.7 L246.4,114.7 Z M251.7,115.6 L254.8,116.2 C258.5,129.1 264.7,145.2 268.4,158.6 C270.7,166.8 269.8,176.9 264.6,178.8 L262,178.8 C266.4,173 267,166.9 265,159.1 C260.9,143 254.8,129 251.7,115.6 L251.7,115.6 Z M271,115.6 C274.1,129 281.7,149.5 284.4,156.6 C288,163.8 286.9,174.5 281.5,178.7 L278.9,178.8 C282,175.9 283.1,171 282.6,165.9 C281.2,151.5 271,131.7 267.4,116.4 L271,115.6 Z M257.3,116.3 L260.5,116.6 C263.7,130.6 270,144.3 274.1,158.3 C274.9,161.5 275.5,165.3 275.2,168.2 C274.6,174.2 272.2,178.9 270,178.9 L267.8,178.9 C272.3,173.5 272.1,166.1 270.2,158.2 C267,145.1 259.2,129.4 257.3,116.3 L257.3,116.3 Z M173.5,116.3 C172.2,116.3 172.1,117.5 174.3,119.4 C175.6,120.5 175.5,120.2 175.4,120.9 C175.1,124 175.6,126.9 176.9,123.7 C177.2,122.8 177.7,121.9 178.2,122 C179.1,122.3 178.7,124 179.1,124.9 C179.9,126.4 179,126.8 177.2,126.3 C175.9,126 175.8,126.7 174.9,127.6 C173.4,129.2 173.7,130.2 175.9,129.7 C176.3,129.6 176.6,129.7 176.9,129.8 C177.6,130 178.2,130.4 179.9,131.7 C182.1,133.3 185.1,135.5 187.1,135.9 C190.3,136.4 189.6,134.9 187,133.9 C184.8,133 182,130.7 182,130 C182,129.5 182.7,129.8 186.7,128.7 C188.4,128.2 190.9,127.2 191.9,126.7 C193.6,125.9 193.7,125.9 196.3,126 C200.8,126.1 201.5,126 198.4,123.6 C192,118.8 183.4,115.7 178.9,117.7 C177.5,118.3 177.6,117.9 176.6,117.4 C175.2,116.7 174.2,116.3 173.5,116.3 L173.5,116.3 Z M265.5,116.8 C270,134 278.6,149.3 280.7,165.6 C281.2,170.3 280.4,174.8 276.5,178.7 L273.9,178.7 C273.5,178.7 277.5,172.5 277.2,167.1 C277.3,164.3 277,161.2 276.2,158.2 C271.1,143.7 266.2,130.6 262.3,116.8 L265.5,116.8 Z M185,122.4 C185,122.4 185.1,122.4 185,122.4 C186.3,122.6 186.3,123.1 186,123.7 C185.5,124.6 184.6,126.4 184.6,126.4 C184.6,126.4 183.4,126.6 183.1,126.3 C182.6,125.7 184.2,122.5 185,122.4 L185,122.4 Z M188.1,122.9 C188.2,122.9 188.4,123 188.7,123.1 C189.9,123.6 191.9,124.5 191,125.2 C190,126.1 186,126.4 186.2,126.1 L187.5,123.6 C187.7,123.1 187.9,122.9 188.1,122.9 L188.1,122.9 Z M175.8,137.9 C175.7,137.9 175.6,137.9 175.5,138 C175.3,138.1 175.8,139.1 176.6,140.1 C180.1,144.9 175.2,146.3 171.7,143.7 C168.4,141.1 163.3,141.4 164,144.1 C164.3,145.1 164,145.5 165.9,145.5 C167.5,145.5 168,145.6 169.4,146.6 C175.1,150.5 182.4,145.3 178.8,139.7 C178.2,138.8 176.5,137.9 175.8,137.9 L175.8,137.9 Z M189.8,145.4 C187.7,145.4 186.5,146.9 189,147.4 C198.2,149 192,158.6 185.5,153.7 C179.7,148.4 171.9,148.5 171.8,152.2 C171.8,153.1 171.8,153.2 173.2,153.4 C176.5,154 181.3,155.5 183.2,156.4 C184.3,157 185.4,157.5 185.8,157.5 C189.7,158.9 194.7,157.1 195.7,153.8 C196.5,150.9 195.8,145.4 189.8,145.4 L189.8,145.4 Z M74.6,176.1 C75.8,176.1 77.1,177.2 78.1,178.8 C80.3,182.4 82.9,188.6 84.5,191.9 C84.9,192.7 84.9,193.5 84.9,193.9 C85,195.9 85.7,196.6 86.9,195.7 C88,194.8 89.7,193.4 87.8,193.1 C85.9,191.7 84.9,189.6 86,188.3 C86.9,187.4 86.5,186.8 85.8,186.7 C83.2,186.7 79.2,178.8 81.1,177.1 C83.6,174.8 86.4,177.6 92.3,189.4 C94.9,194.6 95,200.2 92.8,197.4 C92,196.7 92.2,197.1 91.3,199.3 C90.6,201 90.1,201.8 87.5,204.2 C84.4,207.2 82.5,209.5 82.5,210.1 C82.4,211.1 84.2,210.2 85.5,208.4 C88.4,205.5 88.6,204.8 88.5,208.6 C88.5,212 88.3,212.7 88.9,212.7 C89.9,212.7 90.4,209.9 90.8,206.6 C91.3,203.6 92.9,202.1 95.4,200.5 C96.1,200 96.1,199.7 96,198.4 C95.5,194.2 97.9,186.4 99,188.3 C99.2,188.7 99.6,189.7 99.9,190.5 C100.1,191.6 100.8,192.9 101.9,192.9 C103.2,193.9 103.2,194.4 103.7,198 C103.9,199.2 104.4,201 104.7,201.9 C105.4,203.7 106,204.7 105.6,205.2 C105.4,205.5 104.8,205.9 104.8,205.9 L83.3,218.6 C83.3,218.6 81.6,219.5 81,219.8 C79.3,220.6 78.3,220 77.4,218.7 C72.8,211.9 69.7,204.3 66.5,197.3 C64.6,193.1 66.5,190.4 68.9,193.7 C69.9,195 69.4,195.8 68.9,198.4 C68.8,198.9 69.2,198.7 70,198.8 C71.3,198.7 71.9,199.8 71.8,201.7 C71,204.4 72.1,203 72.6,202.8 C73.6,202.8 73.8,203.4 74.4,204.5 C74.7,206.1 75.4,205.6 76.5,204.6 C77.3,203.7 77.3,203.7 75.6,201.7 C72.7,198.5 68.6,191.3 67.5,186.9 C67.2,185.7 67.3,184.7 67.5,184.1 C68.8,181.1 70.7,181.1 72.7,185.3 C73,186 73.7,187.2 74.2,187.9 C75,189 75.5,190 75.4,191.8 C74.8,193.3 74.7,193.3 75.2,193.5 C76.5,194 78.8,196.3 78.9,198.4 C79,200.5 79.4,201.6 81,200.4 C82.9,199 82.1,198.4 80.2,196.6 C78.2,194.3 78.1,192.3 79.3,190.6 C79.5,190 79.4,189.9 78.7,189.9 C76.4,190.1 74.2,187.2 75.8,185.1 C76.5,183.8 76.4,183.5 75.4,183.5 C74.9,183.5 74,183.6 73.6,183.3 C72.9,182 71.5,180.3 71.5,178.8 C72.5,176.9 73.5,176 74.6,176.1 L74.6,176.1 Z M209.3,176.2 C213,178.5 216.7,180.9 220.9,182 C211.2,199.5 195.6,208.8 182.5,212.5 C182.9,214.7 183.3,217 185.4,218.3 C185.3,218 184.4,214 184.6,213.2 C202.6,208.6 218.4,191 222.5,181.9 L301.6,181 C243,237.2 240.6,316.4 288.5,382.7 L283,385.9 C246.2,330.7 246.5,277.5 257.6,241.9 C265.4,216.7 279.5,197.4 290.2,186.3 C290.2,186.3 247.3,185.7 226,186.5 C222.9,191.2 220,195.1 215.9,199.6 C215.9,199.6 226.7,189.1 226.5,187.3 C246.3,187.3 266.7,186.2 286.4,187.5 C263.3,215.2 251.9,243.7 249.9,270.6 C249.8,274.1 249.6,272.1 248.5,273.4 L244.9,279.1 L242,273.2 C240,272.6 236.1,273.6 234.4,273 C226.3,309.3 234.5,353 245.2,381.6 C245.2,381.6 242.5,383.1 239.2,382.8 C235.6,382 234.7,383 231.6,383.6 C228,384.3 226.7,384.3 225.9,385.2 C225.5,385.7 224.7,386.4 223.7,386.9 C214.9,390.1 204.6,402.1 204.6,401.9 L194.9,397.6 C203.8,380.1 214.3,373.8 232.6,366.1 L230.9,358.3 C211.3,365.6 198.9,374.3 189.1,391.3 C177.2,391.1 128.9,390.8 128.9,390.9 C148.6,368.5 164.1,334.7 165.8,308.4 C166.2,303.3 165.5,305.7 167.8,304.2 L171.4,300 L174.2,304.2 C174.2,304.2 176.2,306.8 177.5,304.6 C181.1,267.9 177.3,226 159.6,196.8 C162.7,196.6 165.9,196.5 168.9,198.3 C175.8,214 179.9,233.3 181.7,247.8 C183.9,266.2 183.6,286.9 181.3,304.5 L182.5,304.7 C185.9,281.8 184.8,257.5 181.6,236.2 C180,225.1 174.7,207.8 171.1,199.8 C170.1,197.6 169.3,197 170.3,196.7 C191.6,194.8 201.6,187.7 209.3,176.2 L209.3,176.2 Z M149.5,178.1 C151.1,178.1 152.5,179.4 152.5,181.1 C152.5,182.7 151.2,184.1 149.5,184.1 C147.8,184.1 146.5,182.8 146.5,181.1 C146.5,179.4 147.9,178.1 149.5,178.1 L149.5,178.1 Z M311.6,179.6 C305.3,185.3 300.2,191.2 294.9,197.5 C310.7,219.2 328.2,242.7 342.9,261.5 C342.9,261.5 348,258.5 348,258.1 C348,257.9 347.6,256.9 347.5,257.1 C347.3,257.6 343.4,259.8 343.4,259.8 L296.8,198.6 C296.8,198.6 299.3,195.6 300.1,194.6 C303.7,193.4 313.8,180.9 314.3,181.2 C322.2,187.3 346,212.9 355.2,220.8 L355.3,292 C354.4,294.9 328.9,305.8 311,346.8 C302,351.9 292,354.6 282.7,359 C282.7,359 285.1,362.7 286.2,363.7 C284.8,360.6 284.5,360 287.7,358.7 L354.8,331.3 L354.7,336.8 L353.6,346.3 C335.3,357.6 319.9,362.3 294.8,379.3 C293,379.7 291.6,381.4 289.7,381.5 C225.5,286.9 266.5,215.6 304,179.8 L311.6,179.6 Z M102.4,184.5 C104.2,184.5 103.7,188.6 103.1,190 C101.8,191 100.5,190.1 100.5,188.2 C100.5,187.6 100.4,187 100.2,186.9 C99.3,186.2 100.9,184.4 102.4,184.5 L102.4,184.5 Z M141.6,187 C143.1,188.1 143.6,189.6 144.2,191.1 C142.2,190.8 136.9,189.3 139.4,188.1 L141.6,187 Z M131.9,192.3 C178.2,262.4 176.2,336.8 124.5,393.2 L189.9,393.1 C198.2,376.7 212.1,366.7 229.9,360.5 L231.4,365.7 C211,372.2 200.7,383.1 192.5,398.2 L114.5,398.2 C144.5,365.9 158.2,338.7 160.4,301.8 C162.5,266.7 153.5,234.7 126.4,196.1 L131.9,192.3 Z M145,193.1 L155.9,198.3 L154.3,209.5 L142.9,204.2 L145,193.1 Z M125.3,196.2 C183.7,284.6 158.7,346.8 112,398.5 L103.4,398.6 L83.4,380 L83.8,493.1 C83.8,493.1 64.3,512.2 62,514.5 C59.8,516.6 58.1,513.4 58.1,513.4 L58.2,363.5 L59.1,357.6 L59.4,325.3 L71.8,318.7 L118.5,379.9 C118.5,379.9 116.6,382.7 115.8,383.2 C115.2,383.5 115.6,384.1 116.1,384 C117.4,383.8 121.1,379.6 120.4,379 C103.5,358 72,317 72,317 L58.9,323.8 C58.9,323.8 59.3,297 59,286.7 C59.5,284.3 61.3,284.9 62.5,283.8 C77.6,274.1 88.2,262.3 94.8,250.8 C95.3,249.9 98.2,244.8 98.5,244.3 C99.5,242.6 102.1,237.4 103.5,234.1 C104.3,232.2 105.2,230 105.5,229.7 C114.6,226.7 124.1,222.5 133.2,218.8 L120.1,199 L125.3,196.2 Z M89.5,197.4 C89,197.4 87.7,198 86.1,199.5 C83,202.3 78.8,207 78.8,207.9 C79.6,208.2 80.4,207.7 81.1,207 C83.7,203.1 87.8,201.6 90.1,198.2 C90.4,197.6 90.1,197.4 89.5,197.4 L89.5,197.4 Z M118.9,201.5 C118.9,201.5 128,214.7 130.3,218.2 C106.4,227.7 81.4,240.2 59.3,248.2 L59.3,242.9 L62.8,233.4 L118.9,201.5 Z M154.5,210.2 L163.4,214.8 L160.9,224.9 L151.9,219.9 L154.5,210.2 Z M161.8,227 L169.1,232.3 L165.8,240.8 L158.4,235.7 L161.8,227 Z M101.9,233.2 C101.9,233.2 100.8,237.2 98.9,240.7 C89.8,256.5 80.9,270.5 62.6,282.7 C61.9,282.1 59.9,278.6 59.9,278.6 L59.7,273.9 C69.4,266.1 77.8,260.3 90.7,237.4 L94.4,235.9 L97.6,237.3 L99.8,233.5 L101.9,233.2 Z M140.1,233.3 C131.6,251.3 123.3,269.8 109.8,283.8 L146.7,335.3 C158.9,298.9 154.4,264.8 140.1,233.3 L140.1,233.3 Z M93.7,237.2 L91.9,240.3 L95,242.1 L96.8,239 L93.7,237.2 Z M88.7,237.5 C82,252.5 72,264 58.8,272.2 L58.3,250.3 L88.7,237.5 Z M91,242 L89.2,245.1 L92.3,246.9 L94.1,243.8 L91,242 Z M166.5,242.6 L173.1,248.9 L169.1,255.9 L162.3,250.3 L166.5,242.6 Z M268.4,245.7 C268.4,245.7 268.4,245.7 268.4,245.7 C256.7,282.1 260.2,316.8 276.2,347 C284.1,327.4 290.5,314.3 305.9,293.5 C296.5,281.1 269.3,245.3 268.4,245.7 L268.4,245.7 Z M88.4,246.3 L86.5,249.3 L89.5,251.2 L91.4,248.2 L88.4,246.3 Z M139.4,250.5 C149.9,275.7 149,298.4 143.4,318.1 L117.1,284.8 C126.8,272.9 133.2,261.6 139.4,250.5 L139.4,250.5 Z M85.7,250.6 L83.7,253.5 L86.6,255.5 L88.6,252.6 L85.7,250.6 Z M82.8,254.8 L80.6,257.6 L83.4,259.8 L85.6,257 L82.8,254.8 Z M169.5,257.8 L175.5,263.5 L171.7,270.8 L165.6,265.3 L169.5,257.8 Z M79.3,259.2 L77,261.9 L79.7,264.2 L82,261.5 L79.3,259.2 Z M271.6,260 L298.2,294.3 C289.3,304.9 281.9,317.3 275.3,330.8 C267.9,307.5 264.6,284.7 271.6,260 L271.6,260 Z M75.6,263.4 L73.1,266 L75.7,268.5 L78.2,265.9 L75.6,263.4 Z M137.6,266.9 L125.4,284.5 L139.3,302.3 C140.9,292.6 141.2,281.4 137.6,266.9 L137.6,266.9 Z M71.6,267.4 L69,269.8 L71.4,272.4 L74,270 L71.6,267.4 Z M67.8,270.9 L65,273.1 L67.2,275.8 L69.9,273.6 L67.8,270.9 Z M171.6,272.7 L176.6,278.5 L171.5,284.5 L166.8,279.2 L171.6,272.7 Z M235,273.7 L238.4,273.8 C232.8,328.6 243.8,356.4 253.4,380.5 C253.4,380.5 253.4,381.5 253.1,381.8 C251.5,382.3 248.3,382.9 245.8,380.7 C232.8,347.2 229.9,306.1 235,273.7 L235,273.7 Z M63.3,274.4 L60.4,276.5 L62.5,279.4 L65.4,277.3 L63.3,274.4 Z M275.8,276.4 C274.9,276.4 274.2,299 277.4,310 L289.6,293.4 L275.8,276.4 Z M244.1,280.1 L248.2,285.6 L243.9,291.5 L239.5,285.9 L244.1,280.1 Z M60,281.6 C60.2,281.6 60.5,282.1 61.2,282.6 C61.8,283.2 61.7,283.2 61,283.7 C59.9,284.6 59.6,284.4 59.6,283.1 C59.8,282 59.9,281.6 60,281.6 L60,281.6 Z M171.8,285.7 L176.3,292.2 L171.3,298.6 L167,291.8 L171.8,285.7 Z M243.8,293.9 L248.6,299.7 L244.5,306.1 L239.3,300 L243.8,293.9 Z M353.9,295.1 L354.3,301.8 L352.7,299.4 L349.7,301.7 L351.8,304.5 L354.4,302.4 L354.6,305.1 C337.8,317.2 330.6,331.1 323.8,341.5 L320.8,342.8 L317.4,341.7 L315.7,344.7 L312.8,345.4 C312.7,345.4 318.7,332.6 328.9,319.6 C337.9,308.1 353.9,295 353.9,295.1 L353.9,295.1 Z M355.9,305.6 L356,329.4 L326,341 C333.8,327.7 343,315.4 355.9,305.6 L355.9,305.6 Z M348.4,302.7 L345.7,304.9 L348.1,307.6 L350.8,305.4 L348.4,302.7 Z M344.2,306.3 L341.6,308.6 L344.1,311.2 L346.7,308.8 L344.2,306.3 Z M244.1,307.6 L249.8,313.6 L245.7,320.7 L239.8,315.1 L244.1,307.6 Z M340,310.1 L337.5,312.6 L340.2,315.2 L342.7,312.7 L340,310.1 Z M336.1,314.1 L333.7,316.7 L336.6,319.2 L339,316.6 L336.1,314.1 Z M332.2,318.6 L330,321.4 L333,323.7 L335.2,320.9 L332.2,318.6 Z M246,322.9 L253.1,327.5 L249.6,335.9 L242.5,330.5 L246,322.9 Z M328.7,322.9 L326.6,325.8 L329.8,328 L331.9,325 L328.7,322.9 Z M325.5,327.4 L323.6,330.4 L326.8,332.5 L328.7,329.4 L325.5,327.4 Z M322.7,331.9 L320.9,335 L324.2,336.9 L326,333.8 L322.7,331.9 Z M320.1,336.6 L318.3,339.7 L322,341.3 L323.5,338.4 L320.1,336.6 Z M249.9,338.5 L257.1,343.4 L253.9,352.2 L246.3,346.8 L249.9,338.5 Z M354.8,347.1 L355.2,528.4 L275.5,528.7 C275.5,528.7 271.8,522.2 264,507 C260.7,500.6 257.9,497.9 257.6,492.8 C257.9,489.8 256.5,486.4 254.1,485.1 C253.3,484.6 251.9,485.2 252.4,483.9 C252.9,482.5 251.4,480.3 250.9,479.9 C250.4,479.1 250.7,478.9 250.7,475.9 C250.6,473 250.5,471.8 249.9,469.6 C248.3,464 248,461.2 248.9,458.3 C251.3,451 253.7,445.4 256.9,438.5 C258.7,434.5 258.5,432.9 252.8,430 C248.6,427.8 248,427.8 248.5,424.7 C248.7,423.2 249,422.3 248.7,421.6 C248.5,421.2 247.8,420.5 247.4,420.2 C246.8,419.7 247,418.8 247.6,418 C248.2,417.3 248.2,416.3 247.6,414.6 C246.4,411 249.1,406.3 254,403 C256.2,401.6 256.1,401.9 258.4,404.2 C265.1,411.2 275,406.8 275,396.9 C275,393.8 274,394 276.9,392.6 C286.8,386.3 307,374.9 306.9,375.2 C308.2,377.9 308.7,380.2 309.5,383.1 C310.2,385.6 310.1,385.8 309.9,390.6 C309.7,395 309.5,396 310.6,396.3 C316.4,396.9 317.8,394.9 318.9,391.1 C319.4,389.4 320.3,389.8 320.9,390.5 C323.1,394.5 325.9,398.8 327.8,401.6 C330.1,405.3 334,407.1 336,405.4 C336.4,404 336.8,403.9 339.4,404.5 C342.5,405.2 344.3,403.5 344.6,401.2 C344.7,400.3 344,400.3 345.7,399.4 C349.9,396.3 348.3,392.1 347.7,389.6 C347.8,389.7 349.5,388.6 349.5,386.2 C349.7,373.9 339,356.2 339.3,356.7 L354.8,347.1 Z M254.2,354.2 L262.7,358.3 L260.7,368.4 L252,364.5 L254.2,354.2 Z M336.5,358 C341.4,363.7 344.9,373.1 346.7,379.2 C347.6,382.3 347.7,385.7 346.9,386.2 C346.1,386.7 345.7,386.2 345.9,384.3 C346,382.8 346.1,381.6 345.4,381.6 C343.5,382.1 343.4,379.2 343.6,378.6 C343.7,378.2 344,377.8 344.1,377.6 C344.6,376.5 343.3,376.6 342.1,376.6 C341,376.6 340.7,375.9 340.7,374.9 C340.7,373.7 339.1,374 338.2,374.9 C337.4,375.7 337.6,376.7 338.7,377.3 C340.3,378.3 341.8,380.6 345.4,388.8 C347.5,393.5 346.9,396.9 344.4,396.8 C342.6,396.8 340.6,391.9 338.9,388.4 C338.5,387.5 339.5,386.5 339.9,386 C340.9,384.7 340.7,384.3 339.3,384.3 C338,384.3 337.4,384.4 336.6,382.7 C336.3,382.1 336.1,381.1 336.2,380.5 C336.9,378.7 335.5,378.2 334.1,378.9 C332.4,379.6 332.4,381.2 335,383.7 C336.7,386.5 336.3,386.3 334.6,388.2 C334.3,388.9 334.5,389.3 335.2,389.3 C337.3,388.7 339.5,392.4 338.9,393.7 C338.3,394.2 336.5,396.2 338.2,395.9 C341.6,395 343.7,399.9 341.7,401.6 C338.7,403.1 338,402.6 333.4,393.5 C332,390.6 330.3,387.6 330,387.3 C329.8,387 329.7,386.1 329.7,385.5 C329.9,383.8 329.2,383.5 327.8,384.1 C326.7,384.4 325.7,385.2 327.1,386.1 C328.7,388.9 329.3,389.3 328.4,390 C326.4,391.6 327.3,391.5 329.5,392 C330.6,392.3 331.2,392.9 331.5,393.6 C332.7,396.2 334.7,399.9 334.9,400.6 C335.6,402.5 334.3,403.4 332.7,403.3 C330.9,403.3 330.1,402 329.3,400.8 C326.1,396.4 323.8,392 320.5,386.9 L320.9,382.2 C320.9,382.2 321.8,382.4 322.2,382.1 C323.1,381.6 323.7,380.2 324.2,378.2 C325.1,376.5 330.1,372.6 332.1,370.5 C332.5,370.3 332.8,369.9 332.8,369.6 C332.8,368.8 330.6,369.3 329.2,371 C327.1,372.9 326.2,372.2 326.3,369.8 C326.1,366.8 324.3,368.3 324.2,371.2 C324,373.5 323.2,374.9 321.6,376.1 C318.6,378.5 319.1,377.9 319.2,381.2 C319.4,387 317.2,391.8 315.7,388.7 C315.2,387.6 314.6,386.3 313.3,386.2 C312.4,386.2 311.9,385.2 311.4,383 C310.6,379.3 309.6,377 308.6,373.6 L336.5,358 Z M261.5,370.5 L271.2,374.4 L269.4,384.6 L259.7,380.9 L261.5,370.5 Z M335.9,371.5 C335.8,371.5 335.8,371.5 335.7,371.6 C332.9,373.7 330.4,376 327.4,377.8 C326.3,378.5 325,380.2 325,380.6 C325,381.1 326.3,381 327.6,380.5 C328.8,380 335.9,373.3 335.9,372.7 C336.4,372.1 336.3,371.5 335.9,371.5 L335.9,371.5 Z M246.3,383.9 C248.6,383.9 247.3,384.6 242.2,388.1 C237.3,391.5 229.2,402.3 228.2,406.3 C227.8,408.1 228.9,408.3 230.2,405.8 C236.2,394.3 247.4,383.9 257.8,384.3 C262.9,384.5 265.6,385.9 261.4,386.5 C249.9,387.9 241.3,394.5 233.8,407.5 C233.8,407.8 234.5,407.8 235.3,407.3 C242.2,398.9 249.9,387.8 263.5,388.7 C273.3,389.3 276.1,401 268,404.9 C260.9,408.4 254.3,399.9 260.2,394.9 C262.1,393.3 263.3,394 261.5,395.7 C257.6,399.3 262.4,405.6 267.2,403.2 C270.1,402 271.3,397.8 268.7,394.6 C263,387.6 250.6,392.9 242,404.3 C241.1,405.5 240.3,408.1 241.1,407.8 C242.4,407.3 243.2,406.2 244,405 C247.1,400.7 249.4,398.6 253.6,396.3 C256.8,394.5 257,394.9 255.8,397.9 C255.3,399.2 254.9,399.6 253.6,400.4 C248.4,404 245.1,408.8 245,411.8 C244.9,414 246.5,416.9 244.8,417.5 C241.8,418.9 233.6,417.8 231.4,414.9 C229.8,412.9 229.2,414 230.4,417.3 C231.2,419.5 231.2,420.7 232.3,420.5 C233.8,419.7 234.8,419.9 237.7,421.5 C239.1,422.3 241.6,423 243.1,423.3 C245.9,423.9 246.4,423.7 246.4,424.9 C246.4,425.3 246.5,426.3 246.4,427 C245.9,430.6 249,431.8 253.1,434.2 C255.5,435.6 254.6,437 251.8,443.9 C250.4,447 249.1,451.2 247.3,454.3 C245.6,457.8 245.5,461.7 246.6,466.1 C248.6,474.3 250,478.5 246.5,479.2 C237.4,480.6 217.2,480.5 206.2,476.3 C203.4,455.2 188.5,423.8 190.4,415.7 C194.2,421.5 210.2,419.9 205.4,403.8 C205.4,403.8 206.7,401.8 209.3,399.2 C216,392.4 217.7,391.3 214.5,397.3 C212,401.9 208.9,407.9 208.8,409.1 C208.7,410 209.5,410.2 210,409.5 C210.4,408.9 210.9,407.6 211.3,406.6 C215.3,397.2 222.1,388.8 226.9,386.7 C228.1,386.2 228,386.7 227.2,387.8 C221.6,394.7 217.4,401.1 214.4,409.4 C214.3,410.3 215.5,410.6 215.9,409.8 C221.1,398.9 222.7,396.4 229.1,388.7 C231.6,385.7 234,384.2 235.8,384.3 C237.4,384.4 236.9,384.7 235.4,386.3 C234.3,387.5 232.6,389.2 229.8,392.7 C225,398.8 220.1,408.6 221.9,408.1 C222.2,408.9 223.7,406.3 225,403.8 C228.5,397.9 232.3,390.1 240.6,385 C242.8,384.3 244.7,383.9 246.3,383.9 L246.3,383.9 Z M84.7,385.8 L99.6,400.7 L129.5,400.3 C124.6,408 127.2,419.9 129.9,426.8 C135.2,440.4 143.1,462.9 142.5,463.3 C142.5,463.3 138.1,464.4 137.7,467.2 C137.1,471.3 138.9,471 136.3,474.7 C135.7,475.5 136.1,477.1 136.7,478.3 C137.1,479.2 137.5,480.6 136.7,481.7 L110.3,528.8 L60.3,529 L60.3,519.6 L85.4,494.2 L85.1,475.5 C98.8,479.6 103.5,493.7 104.7,504.2 C129.4,481.6 128.8,447.7 105.4,426.3 C100.8,448.8 84.5,453.5 84.9,453.1 L84.7,385.8 Z M270.9,388.4 C272.5,388.5 274.7,388.8 276.1,389.6 C275.1,390.2 274.4,390.9 273.7,391.6 C273,390.2 271.9,389.4 270.9,388.4 L270.9,388.4 Z M312.4,388.6 C313.7,388.6 315.4,392.5 314.4,393.4 C313.9,393.9 312.2,394.1 311.5,393.7 C310.8,393.2 311.2,388.6 312.4,388.6 L312.4,388.6 Z M265.2,395.4 C266.9,395.4 268.3,396.8 268.3,398.5 C268.3,400.2 266.9,401.6 265.2,401.6 C263.5,401.6 262.1,400.2 262.1,398.5 C262.1,396.8 263.5,395.4 265.2,395.4 L265.2,395.4 Z M133.5,399.8 L135.7,399.8 C131.6,405.3 131.1,410 132.5,416.8 C134.1,424.5 146.5,453.2 147.3,461.2 C147.3,461.6 147.4,462.6 147.4,462.6 L144.3,462.8 C144.3,462.8 144.1,462 144,461.7 C139.7,447.4 135.5,436.4 132.5,428 C129.6,418.9 125.1,405.6 133.5,399.8 L133.5,399.8 Z M149.9,399.9 C149.9,399.9 149.9,399.9 149.9,399.9 L152.1,399.9 C152,399.9 148.9,406.7 148.7,410.8 C148.4,415.4 149.6,420.5 151.1,425.4 C154.7,436.2 160,448.1 163,461.7 C163,461.9 163.4,463.2 163.4,463.2 L160.2,462.8 C160.2,462.8 159.9,461.4 159.8,461.2 C157.6,449.2 151.5,436.8 147.8,425.1 C145.9,419.7 144.6,413.2 145.3,408.2 C145.7,404.6 149.2,399.9 149.9,399.9 L149.9,399.9 Z M175.9,399.9 C173.6,403.4 171.5,407.9 171.4,411.3 C171.3,417.8 173.2,423.2 175,428.9 C180.8,446.5 183.6,455.7 186.5,469.9 L183.4,468.6 C183.4,468.6 183.3,467.8 183.2,467.6 C181.6,458.8 181.5,459.5 171.8,429.8 C169.5,422.7 167.4,416.4 167.8,410.5 C167.9,407.1 170.8,400.4 174,399.9 L175.9,399.9 Z M179.6,399.9 L182.5,399.9 C182.5,399.9 180.9,401.6 180.5,402.2 C175.5,409.1 176.9,416.6 179.4,425.5 C182.8,437.7 189.2,451.4 192.5,470.1 C192.6,470.5 192.5,472.3 192.5,472.3 L189.1,470.9 C186,453.8 178.3,436.1 174.6,420.7 C172.4,411.7 173.1,406 178.1,401 C179.3,400 179.6,399.9 179.6,399.9 L179.6,399.9 Z M144.6,400 L146.7,400 C146.7,400 143.1,405.9 143.1,409.4 C142.5,415.6 144.7,422.5 147.3,429.7 C151.3,440.7 156.5,454.1 158.1,461.2 C158.2,461.5 158.4,462.7 158.4,462.7 L154.7,462.5 C154.7,462.5 154.5,460.8 154.3,460 C150,444.9 145.8,435.1 140.8,421.3 C140,419.2 138.8,410.9 140.3,405.6 C141.4,401.3 144.6,400 144.6,400 L144.6,400 Z M138.8,400 L141.1,400.1 C141.1,400.1 140.8,400.7 139.9,402.2 C135.7,409.8 137.6,416.8 140.2,424.6 C143.7,435 149.2,447.7 152.6,459.7 C152.8,460.4 153.1,462.4 153.1,462.4 L149.8,462.4 C149.8,462.4 149.1,460 149.1,459.7 C147.2,448.6 137.1,430 134.4,415.9 C132.9,408.3 134.1,403.6 138.8,400 L138.8,400 Z M169.9,400 C169.9,400 166.2,406.3 165.9,409.9 C165.2,416.8 167.4,422.5 169.9,430.3 C174.2,443.8 180.3,459.6 180.9,466.8 C180.9,467 181,467.9 181,467.9 L177.2,466.6 C177.2,466.6 177,465.8 177,465.6 C173.7,452.5 169.8,439.5 164.6,424.9 C163.3,419.9 161.6,415 161.8,410.7 C162.6,405 163.5,403.5 166.9,400.1 L169.9,400 Z M186.4,400 L189.4,400.1 C189.4,400.1 188.5,400.6 186.3,402.9 C174.3,413.8 193.7,444.7 198.2,472.8 C198.2,473.1 198.4,474.2 198.4,474.2 L195.1,473 C194.8,471.6 194.5,469.9 194.2,468.4 C190.6,454 185.7,439.3 181.3,425.9 C178.8,416.1 177.9,407.5 182.4,402.7 C183.8,400.9 186.4,400 186.4,400 L186.4,400 Z M155.2,400 L158.4,400.1 C156.1,403 154.7,407.6 154.6,411.6 C154.5,416.4 155.8,421.1 157.3,426 C160.5,436.1 165.2,447.1 168.3,460.8 C168.5,461.7 168.6,462.3 168.7,462.7 C168.8,463.3 169.2,464.3 169.2,464.3 L165.8,463.6 C165.8,463.6 165.4,462.7 165.2,462.2 C164.9,461.5 164.5,460.6 164.3,459.6 C162.7,452.5 156.6,436.3 152.9,425 C150,417.9 149.2,405.4 155.2,400 L155.2,400 Z M195.6,400.1 C199.7,399.9 203.5,403.5 204.3,406.7 C205.2,410.2 204.1,414.1 200.2,416.1 C194,419.3 187.2,410.8 192.2,406.2 C195.9,402.7 201.4,405.3 200.2,409.8 C199.4,412.7 195,412.9 194.3,410 C194.1,409 193.6,408 193.3,408.6 C191,414 198.7,416.5 201.9,411.5 C203.8,407.5 200.2,402.3 194.9,403.3 C187.6,404.6 186.8,413.9 189.8,424.7 C194,441.8 204.1,464.7 204.1,475.3 C204.1,475.4 204.1,475.9 204.1,475.9 L200.9,474.9 C200.9,474.9 200.9,474.7 200.9,474.6 C199,459.9 188,435.5 184.9,416.8 C183.5,408.3 186.9,402.1 194.4,400.4 C194.7,400.2 195.1,400.2 195.6,400.1 L195.6,400.1 Z M163.9,400.3 C161.7,403.3 160.2,407.8 160.1,411 C160,415.7 161.7,420.3 163.1,425.2 C166.6,437.3 174.9,459.7 174.6,463.9 C174.7,464.3 174.9,465.7 174.9,465.7 L171.7,464.8 C171.7,464.8 171.6,464.6 171.3,464 C170.2,459.8 165.2,442 159.5,426.6 C157.3,420.4 156.3,415.6 156.4,411.5 C156.9,405.8 158.5,403.5 161,400.3 L163.9,400.3 Z M224.7,420.4 C216.4,420.9 217.2,431 222.3,432.7 C224.1,433.2 225.2,432.8 225.5,432.4 C225.8,431.9 225.5,431.2 224.3,431.1 C220.8,430 219.6,425.9 222.7,424.1 C224.4,423.2 227.2,423.8 230.5,426.2 C236.4,430.6 243.6,430.8 242.7,426.4 C242.5,425.3 242,425.2 237.7,424.6 C234.2,424.1 232.6,423 231.1,422.2 C228.6,420.9 226.5,420.3 224.7,420.4 L224.7,420.4 Z M106.2,429.8 C127.6,450.7 124.4,483.4 106.1,499.8 C105.7,498.5 104.9,495.2 104.8,495.3 C118.5,481 125,457.6 105.1,433.6 C105.3,433.6 105.7,431.8 106.2,429.8 L106.2,429.8 Z M240.2,430.3 C240,430.3 239.8,430.3 239.7,430.4 C234.2,431.9 233,437.4 236.6,439.6 C238.8,441 240.5,440.1 237.7,438.5 C235.4,437.1 236.5,433.3 239.4,433.4 C240.6,433.4 241.5,433.9 244.7,436.3 C247.3,438.2 249.7,438.4 250.3,435.8 C250.6,434.2 250.1,433.6 248.5,434 C247.8,434.2 247.3,433.7 246.3,433.1 C244,431.4 241.6,430.3 240.2,430.3 L240.2,430.3 Z M104,434.4 C123.3,456.8 117.1,480.1 104.1,493.8 C100.5,483.3 91.8,476.7 91.8,476.7 C95.1,469.4 97.1,461.8 90.9,452.1 C96.6,446.9 101.4,441.2 104,434.4 L104,434.4 Z M229.2,442.6 C228.3,442.6 228.6,443.5 230.7,444.9 C235.8,448.4 236.2,449 231.3,448.9 C230.1,448.8 228.1,449.7 227,450.1 C220.6,452.2 220.3,452.1 217.2,451.3 C216.2,451.1 215.1,450.6 214.7,451 C214,451.6 213.2,452 214.1,453 C214.7,453.7 215.9,454.2 217.4,455 C224.9,459.3 225.5,460.3 234.3,460.5 C235.3,460.5 235.8,460 236.4,460 C237.8,460 238.6,460.3 240,461.7 C242.7,464.1 242.8,462.4 241.2,459.2 C240.4,457.5 239.7,457.1 240.1,455.9 C241,453 239.7,452.4 238,455 C236.7,457 236.6,457 235.3,454.4 C233.7,451.2 234.4,449.7 236.9,451.8 C238.8,453.4 239.2,452.2 240,450.9 C241,449.2 240.8,447.8 239.1,447.9 C238.1,448 237.2,447.5 236.4,446.7 C234.9,445.1 232,443.1 229.2,442.6 L229.2,442.6 Z M231.3,451.3 C231.5,451.3 231.6,451.4 231.7,451.6 C231.7,452.7 231,454.8 230.4,456 C230.2,456.5 229.9,456.6 229.4,456.7 C227.9,457 227.8,456.5 228,455.6 C228.6,454.1 229,452 231,451.4 C231.2,451.3 231.2,451.3 231.3,451.3 L231.3,451.3 Z M227.4,452 C228,452 228,452.2 227.8,452.8 C227.4,453.8 226.6,454.7 226,455.4 C224.8,456.2 222.8,453.8 223.6,453.1 C224.8,452.6 225.8,452.1 227.1,452 C227.2,452 227.3,452 227.4,452 L227.4,452 Z M89.4,453.6 C89.7,453.6 90.1,453.7 90.4,453.8 C95.1,460.1 94.8,469.7 91.1,475 C90.8,475.4 90.6,475.5 90.1,475.3 C88.5,474.4 86.6,474 85.1,473.5 L85.1,455.1 C86.6,454.7 87.9,453.6 89.4,453.6 L89.4,453.6 Z M212.3,455.1 C211.9,455.1 211.8,455.4 212.2,455.8 C219,460.7 228.4,466.4 237,464.2 C237.8,464 238.4,463.6 238.3,462.8 C238.2,462.3 237.3,461.9 236.4,462.1 C234.4,462.6 230.6,462.7 229.1,462.4 C223.2,461.4 217.9,457.6 213.4,455.4 C212.9,455.2 212.5,455.1 212.3,455.1 L212.3,455.1 Z M210.3,459.8 C210,459.8 210,460.1 210.2,460.7 C211.2,463.5 220.8,470.2 228.4,472.4 C234.9,474.3 244.3,472.4 243.8,469.3 C243.5,467.7 242.3,467.3 238.2,467.8 C229,469.6 220.2,465.8 213.5,461.7 C211.6,460.5 210.7,459.8 210.3,459.8 L210.3,459.8 Z M150.2,463.7 C154.2,463.6 158.2,464 162.5,464.7 C170.9,466.1 180.5,468.7 188.7,472.5 C202.6,477.7 220.1,481.8 235,481.2 C238.6,481.3 245.2,481 246.4,480.6 C249.7,479.9 250.6,480.6 251.4,484.7 C251.5,485.6 251.8,485.8 253,486.6 C254.8,487.8 254.5,489 254.2,491.6 C254,493.8 255.4,495.1 260.7,505 C266.8,516.3 272.7,529.4 272.7,529.4 C219.2,529.4 168.2,527.4 113.4,529.1 C118.3,517.4 131.7,496.4 140.2,479.5 C138.2,474.3 140.7,473.4 139.6,472.2 C137.9,469.3 139.1,465.3 142.7,464.3 C145.4,463.9 147.8,463.7 150.2,463.7 L150.2,463.7 Z" id="Shape" fill="#131F67" fill-rule="nonzero"></path>
            <path d="M114.2,529.3 C114.2,529.3 131.7,493.9 139.1,483.3 C149.7,469.8 197.7,489.1 221.5,494 C231.2,495.9 253.7,495 253.7,495 L272.5,528.9 L114.2,529.3 Z M77.8,489.1 L77.1,378.8 L82.6,382.2 L83.8,493 L60.1,515.7 L60,509 L77.8,489.1 Z M92.2,476.5 C97.9,465.1 91.5,451.2 91.5,451.2 C94.8,452 103.9,434.7 104.7,435.2 C118.7,452.3 121.1,477.9 104,493.7 C99.8,482.7 92.2,476.5 92.2,476.5 L92.2,476.5 Z M102.6,398.4 C113.2,387.5 121.6,379.1 130.1,367 C130.8,366 85.3,308.2 86,307.2 C93,299.4 102.4,293.7 109.7,284.4 C109.7,284.4 147,333.2 147.9,332.8 C151.7,317.5 154.4,303.7 153.7,287.7 C151.4,246.8 133.9,221.8 133.8,222.3 C127.9,259.9 69.8,316.7 58.4,312.7 L58.3,286.5 C59,287.8 95.1,263.3 104.6,230.9 C105.3,228.6 133.3,219.6 133.1,219.3 C131.9,216.3 119.7,198.9 119.7,198.9 C119.7,198.9 124.6,196.6 125.2,196.6 C141.1,216.3 153.1,242.4 157.1,267.1 C162,293.8 165.2,343.9 111.8,398.7 L102.6,398.4 Z M263,329.4 C254.6,303.4 254.9,276.5 258.7,257.7 C264.6,223.7 286.1,199.3 303.3,180.7 L310.8,180.7 C310.8,180.7 301.9,190 298.6,193.3 C293,199.7 284.9,213.1 284.9,213.1 L329.5,271.4 L354.9,265.9 C354.9,265.9 354.1,292 354.9,292 C335.1,308.4 320.9,323.2 310.7,347 C304.4,349.3 283.7,358.2 283.7,358.2 C273.8,355.8 313,294.4 305.6,293.3 C302.5,290.8 268.5,244.9 267.9,245 C252.2,293 267.5,343.3 295.1,378.5 C292,380.5 289.1,382.1 289.4,381.6 C277.7,365.5 267.3,346 263,329.4 L263,329.4 Z M181.4,305.4 C183.2,308.1 191.1,246.9 170.2,197.8 C172.2,196.3 189.4,193 189.4,193 L194,207.7 L182.3,212.7 L184.5,219.6 C193.6,215.2 213.4,208.6 225.5,188.5 C225.5,188.5 284.5,188 285.8,188.1 C287,188.2 273.8,200.9 261.2,226.6 C255.5,238.4 250.9,253.6 249.9,271.4 C249.7,274.9 236.4,254.8 236.4,254.8 C239.7,237.8 248.6,221.1 257.4,204.4 C257.4,204.4 243.8,203.6 234.4,203.9 C219.7,220 210.4,228.5 188.2,236.2 C196.3,262.2 245.9,274.7 234.9,272.3 C232.6,271.8 229.8,296.2 232.2,323.7 C232.7,345.7 244.5,382.3 244.9,382.1 C244.9,382.1 237,383.9 236.4,382.6 C237.7,382.3 224.7,385.6 224.7,385.6 L220,371.9 L232.6,366.1 L230.6,358.4 C230.5,358.4 202.7,366.8 189.1,391.1 L128.1,391.2 C151.6,365.7 161.2,340.4 166.3,307 C171.2,307.8 181.4,305.4 181.4,305.4 L181.4,305.4 Z M331.5,85 C339.2,78.6 354.6,61.9 354.6,61.9 L354.8,70.5 L337.3,88.7 L337.5,200.9 L331.6,195.2 L331.5,85 Z M323.4,126 C320.3,127.5 314,134.9 311,143.2 C290.8,125.1 299.1,91.9 310.2,85 C313.4,92.3 322.7,101.9 322.5,101.7 C320.3,109.2 318.7,116.9 323.4,126 L323.4,126 Z M144.2,50.7 L300.3,51 C291.4,68.5 283.2,82.7 273.8,100 C268.9,105.9 162.3,80.8 161.8,83.3 L144.2,50.7 Z" id="Shape" fill="#E2CF00" fill-rule="nonzero"></path>
            <path d="M364.2,559.8 L364.2,554.6 L369.3,554.6 L381.6,536 L368.9,506.7 L364,506.7 L364,500.9 L382.4,500.9 L382.4,506.7 L375.9,506.7 L385.6,529.6 L392,520.4 L391.9,506.7 L387.4,506.7 L387.4,500.9 L404.2,500.9 L404.2,506.7 L398.2,506.7 L398.5,554.6 L403.6,554.6 L403.6,559.8 L387.6,559.8 L387.6,554.6 L392,554.6 L391.6,532.1 L376.9,554.6 L382.1,554.6 L382.1,559.8 L364.2,559.8 L364.2,559.8 Z M305.7,526.3 C295.5,506.4 282.3,488.3 267.3,472.7 C282.3,456.3 294.8,439.4 305.5,420.8 C316.5,439.2 328.6,456.7 345.5,473.5 C328.8,490.1 316.2,508.1 305.7,526.3 L305.7,526.3 Z M59.8,507 L58.8,359.7 L76.5,376.9 L77.5,490 L59.8,507 Z M367.2,466 C373.7,459.2 379.5,451.6 384.4,443.4 C390.5,452.4 397,461.7 402.3,466.3 C396.2,473.2 390.5,481.2 385,489.5 C380.1,481.7 374.9,474 367.2,466 L367.2,466 Z M141.2,478.4 C137.5,479 139.6,475.6 140.3,472.3 C140.7,470.5 138.9,468.8 138.9,468.3 C138.9,465.1 141.3,463.8 152.2,463.9 C177.8,465.7 191,473.9 205.7,477.7 C219.8,481.3 233.7,481.3 249.2,480.9 C250.7,481.5 255,492.2 253.7,493.3 C218.6,500.3 173.9,474.5 141.2,478.4 L141.2,478.4 Z M204.4,402.2 C200.7,399.5 197.2,399 193.8,398.4 C199.8,387.8 207.1,378.2 219.3,372.1 L225,386.1 C217.8,389.8 210.8,394.2 204.4,402.2 L204.4,402.2 Z M130.5,365.8 C130.5,365.8 125.2,374.4 120.3,378.6 C105.6,358.8 72.6,316.8 72.6,316.8 L58.6,323.9 C58.6,323.9 58.5,315.8 58.9,315.2 C96.7,295.7 122.6,258.9 134,224.5 C134,224.5 140.1,230.7 139.3,233.3 C129.1,260.5 111.6,287.7 85.9,308.2 L130.5,365.8 Z M177.6,325.7 L225.3,325.8 L227.4,342.4 C209.1,348.5 194.1,361 180,375.5 L157.4,375.1 C164.8,358.8 175.1,342.3 177.6,325.7 L177.6,325.7 Z M354.2,255.9 C355.7,260.6 354.2,265.6 354.8,265.4 C297.7,293.6 281.4,355.6 281.4,355.6 C281.4,355.6 276,347 276.2,345.7 C305.8,280 325.5,278 329.3,270.9 L284.3,212.7 L294.5,198.9 L342.7,261.7 C347.5,259.4 350.2,257.6 354.2,255.9 L354.2,255.9 Z M326,340.9 C335.7,323.5 345.7,313.4 355.6,306.4 L355.1,329.4 L326,340.9 Z M59,272.5 L59.2,250.2 L88.6,237.5 C80.5,255.3 69.5,264.8 59,272.5 L59,272.5 Z M190,252.4 L188.3,236.7 C206.2,228.9 221.9,218.5 234.7,204.2 C248.4,203.5 257.7,204.5 257.7,204.3 C257.7,204.3 244.7,223.4 236,253.5 L190,252.4 Z M338,87.7 L354.3,71.3 L354.8,217.9 L338.5,202.4 L338,87.7 Z M195.1,207 L189.9,192.5 C198,189.5 204.2,182.8 209.9,176.3 C213.8,179.8 218.8,181 220.5,181.7 C223,182.2 204.1,204.8 195.1,207 L195.1,207 Z M69.4,106.7 C86.8,89.7 98.1,71.8 109,54 C118.6,73.6 132.5,90.8 147.4,107.3 C132.1,124 120.4,141.8 109.2,159.8 C98.2,140.8 86.6,123.1 69.4,106.7 L69.4,106.7 Z M29.3,135.9 C24.3,127.9 19.2,120.2 11.9,112.4 C19,104.9 25,97.4 29.1,90 C34.7,98.1 40,106.6 46.8,113.1 C40.1,120.4 34.8,128.2 29.3,135.9 L29.3,135.9 Z M164.7,97 C164.7,97 162.7,95.8 162.9,94.2 C163.6,92.1 160.7,87.2 160.7,87.2 C195.3,76.7 245.7,106.2 275.7,100 C275.4,102.1 275.8,104.6 274.9,106.5 C275.8,110.7 276.5,110.8 272.4,113.4 C251.4,119.4 229.2,106.7 208.7,100.6 C192,95.3 178.3,96.7 164.7,97 L164.7,97 Z M10.2,78.6 L10.2,72.3 L16.1,72.3 L16.1,25.3 L10.2,25.3 L10.2,19.9 L26.5,19.9 L26.5,25.3 L22.2,25.3 L22.6,47.9 L37.4,25.3 L31.6,25.3 L31.7,19.9 L50.1,19.9 L50.1,25.3 L44.8,25.3 L33.1,43.9 L44.9,72.3 L50.2,72.3 L50.2,78.6 L31.7,78.6 L31.7,72.7 L38.6,72.6 L28.8,50.4 L22.2,59.5 L22.2,72.4 L27,72.4 L27,78.6 L10.2,78.6 Z" id="Shape" fill="#D40000" fill-rule="nonzero"></path>
            <path d="M142.4,48.7 L148.7,60.6 L147.6,61.3 C149.3,64.2 150.8,67.4 152.5,70.2 L153.8,70.1 C155.9,74.1 156.7,75.6 159.4,80.3 L158.2,80.3 C158.8,82.4 160.5,83.8 160.5,85.3 C160.5,87.2 160,89.1 161.2,90.3 C162.6,91.8 162.7,92.2 162.4,93.1 C161.7,95.4 163.8,98 165.9,97.8 C181,95.8 196.5,97.5 211.9,102.2 C223,105.7 232.8,109.6 242.2,112.4 C245.1,113.3 251.1,114.7 256.2,115 C270.4,116 278.3,113.1 275.9,107.2 C275.7,106.7 275.3,106.4 275.2,106.1 C275.1,105.7 275.2,105.2 276,104.5 C278.3,102.1 277,100.4 275.6,97.8 C275.6,97.8 293.8,65.3 302.9,49.1 L142.4,48.7 Z M300,51.6 L286.7,74.5 C279.6,73.2 277.9,79.2 277.8,80 C268.6,77.6 270,89.6 274.6,90.4 C274.9,92.1 267,94.3 262.9,90.2 C269.3,91.1 271.5,82.6 263.7,80.7 C274,73.1 254.7,61.6 254.5,77.4 C245.4,75.8 246.6,87.8 252.4,88.7 C249.5,91.9 240.8,92 236.3,85.2 C244,89.2 248.2,78.9 240.2,76 C250.1,67.4 230.8,59.4 231.2,73.4 C223.9,69.1 218.9,80.1 228.6,81.8 C228,83.8 215.3,83.8 212.1,78.7 C221.1,80.8 221.5,69.8 213.6,68.9 C221.6,58.8 201.3,53.6 204.7,67.5 C196.9,64.4 193.9,74.2 201.5,77.3 C201.9,78.9 189.1,80.2 184.7,74.6 C194.5,73.1 191.1,63.6 184.7,64.4 C184.7,64.4 184.8,64.1 185.2,63.2 C188.2,53.6 172,52.8 174.3,63 C174.7,63.9 175.1,65.2 175.1,65.2 C170.6,64.3 167.9,66.1 168.3,70.3 C169.4,75.8 172.3,75.4 176.1,74.3 C177.7,75.9 167.1,81.4 160.4,76.5 C168.6,74.1 164.4,64.6 157.6,65.9 C157.3,62.8 154,58.6 149.7,60.7 L145.1,51.7 L300,51.6 Z M313.4,179 L303.8,179.1 C297.1,186 248.3,230.9 256.5,298.8 C260,327.8 268.1,352.9 289.8,382.6 L295.6,379.2 L296.5,379.8 L356.6,345.3 L356.6,334.8 L286.9,364 C285.5,362.5 284.7,360.9 283.5,359.1 L311.4,347.2 C311.4,347.2 312.1,345.5 312.3,344.7 C321.5,321.5 340.1,304.6 356.4,291.6 C356.3,268.7 356.2,220.8 356.2,220.8 L314.2,179 C308.8,183.9 304,189 299.3,194.5 L347.5,258 L343.2,260.8 L295.5,197.6 C301.1,190.9 307.2,185 313.4,179 L313.4,179 Z M356.2,220.3 C356.2,220.3 356,111.3 355.6,58.7 L330.6,84.4 L330.7,194.9 L356.2,220.3 Z M354.1,69 L336.4,87.2 L336.6,199.5 L332.1,195 L332.1,85.7 L354.2,62.6 L354.1,69 Z M182,66.3 C182.5,67.2 182.3,68.5 181.5,69.6 C177.9,74.1 189.2,81.9 197.4,80.5 C203.6,79.5 208.9,75.7 206.6,72.9 C204.7,70.6 206,68.2 208.2,68.3 C210.5,68.3 212.4,70.1 210.4,72.7 C206,78.3 212.7,84.8 223.1,85 C230.4,85.1 232.9,83.3 232.5,78.1 C232.3,75.7 232.8,75 234.5,74.6 C237.2,74 238.6,77.1 236.3,79.5 C231.4,84.6 237,92.2 246.2,92.6 C249.6,92.8 250.2,92.6 254,90.5 C256.9,88.8 258,86.3 256.5,84.4 C254.6,81.9 257.1,78.9 260,80.1 C262.1,81 263.1,82.6 260.8,85.2 C257.8,88.7 259.2,91.6 265,93.6 C269.5,95.1 272.6,94.9 274.7,93 C275.4,92.4 276.8,91.2 276.8,91.5 C275.4,93.9 274.1,96.2 274.1,96.2 C264.7,100.4 257.4,92.5 257.6,92.3 C247.9,97.9 239.3,96.7 232.1,87.3 C230.2,88.3 216.7,90.8 207,80.1 C197.2,85 188,83 179.9,77.4 C173.9,83.1 167.6,84 161,81.2 L159.1,77.3 C159.6,77.1 161.7,81.2 172,79.3 C175.5,78.7 181.4,72.9 178.1,70 C176.6,67.8 176.5,66.9 177.9,65.6 C178.9,64.4 181.2,65.1 182,66.3 L182,66.3 Z M156.8,71.5 C157.4,72.6 157.5,74.5 156.8,73.4 C156.5,72.8 154.7,70.2 154.8,70.1 C155.6,70 156.4,70.8 156.8,71.5 L156.8,71.5 Z M354.1,72.4 L354.2,217.3 L339.1,202.4 L338.4,88.9 L354.1,72.4 Z M179.7,79.4 L184.4,82.4 L175.9,82.3 L179.7,79.4 Z M206.3,81.9 L210.3,85.8 L201.9,84 L206.3,81.9 Z M280.9,83.9 L279.1,87.5 C278.1,86.4 277.8,84 280.9,83.9 L280.9,83.9 Z M311,144.1 C314,137.3 318.1,128.7 324.6,125.9 C319.7,116.2 320.4,106.5 323.8,101.2 C318.9,96.6 313.8,91.1 310.6,83.2 C295.1,97 292.6,125.4 311,144.1 L311,144.1 Z M310.6,85.9 L311.7,88.5 C297.8,105.5 302.1,127.9 312.2,139.8 L310.8,142.8 C298.3,129.9 292.9,102.4 310.6,85.9 L310.6,85.9 Z M227.4,95.5 C243.5,100.2 256.4,107.6 275.1,101 L275.2,104.6 C263.3,112.2 239.7,104.2 223.7,98.3 C198,88.8 178.1,89.4 163.8,90.5 C162.5,90.3 161.5,87 163.6,87 C190.2,86.7 185.9,83.4 227.4,95.5 L227.4,95.5 Z M231,89.1 L236.3,94.7 C232.3,93.5 228.5,92.1 224.9,90.3 L231,89.1 Z M311.8,90.5 L312.8,91.9 C313.2,92.5 309.9,92.8 310.4,92.1 L311.8,90.5 Z M220.9,100.8 C240.1,108 261.3,115.2 275.2,108.8 C275.2,108.8 275.3,111.5 273.7,112.3 C273.7,112.3 272.2,113.5 267.3,114.2 C244.8,116.1 230.2,106.7 212,101.2 C205.1,99.1 194,96.6 182.7,96.1 C176,95.8 165.6,96.8 165.6,96.8 C163.3,96.6 163.39936,95.3 163.39936,94 C183,91.3 201,93.3 220.9,100.8 L220.9,100.8 Z M313.9,93.9 C314.2,93.9 314.4,93.9 314.7,93.9 L316.7,96.4 L314.4,100.1 C314.4,100.1 312.3,98.2 311.3,96.3 C310.6,95.2 312.2,93.9 313.9,93.9 L313.9,93.9 Z M257.2,94.6 L263.3,99.2 C258.7,99.4 253.6,99.6 248.5,97.6 L257.2,94.6 Z M308.8,96.9 C309.3,96.9 309.8,97.4 310.4,98.4 C311.5,100.3 311.4,100.7 309.2,101.4 C306.3,102.3 306.1,102.1 307,99.5 C307.7,97.8 308.2,96.9 308.8,96.9 L308.8,96.9 Z M318.1,98.1 L322.2,101.6 C319.9,107.5 318.4,115 323,125.8 C322.5,125.8 319.5,128.8 318.6,129.3 C316,128.1 310.3,106.8 318.1,98.1 L318.1,98.1 Z M313.4,102.6 L312.4,109.1 C312.3,109.6 307.8,106 308.3,104.2 C309,102.1 311.7,102.5 313.4,102.6 L313.4,102.6 Z M306,104.9 C306.5,104.9 307.4,106.2 308.4,107.9 C309.2,109.2 309.1,109.7 307.2,111.4 C304.5,114.1 304,113.2 304.6,108.6 C305,106.4 305.4,104.9 306,104.9 L306,104.9 Z M311.5,110.9 C311.9,110.9 312.2,111 312.4,111.2 L312.7,117.6 C312.7,118.2 307.7,117.4 307.1,115 C306.2,113.3 309.6,110.8 311.5,110.9 L311.5,110.9 Z M304.9,116.2 C305.3,116.1 306.4,116.9 307.4,117.5 C309.2,118.6 309.3,119.1 307.7,121.1 C305.8,123.5 304.9,123.1 304.6,118.9 C304.6,117.5 304.4,116.3 304.9,116.2 L304.9,116.2 Z M312.2,118.7 C312.4,118.7 312.5,118.7 312.6,118.9 C313.5,119.7 314.8,126 314.3,126.7 C313.5,127.6 309.2,126.4 308.3,124.9 C307.4,123.4 310.7,118.7 312.2,118.7 L312.2,118.7 Z M307,126.2 C307.5,126.2 308.4,126.5 309.7,127.1 C310.5,127.5 311.8,128.2 312.1,128.8 C312.6,129.9 311.8,131.5 310.6,132.9 C309.9,133.8 309.2,133.1 307.7,130.2 C306.7,127.8 306.2,126.3 307,126.2 L307,126.2 Z M315.6,129.1 C315.7,129.1 315.8,129.1 315.9,129.2 C317.4,130 317.1,132.4 315.4,134.2 C313.3,136.3 311.5,134.7 313,132 C313.9,130.2 314.9,129.1 315.6,129.1 L315.6,129.1 Z M195.6,188.5 C194.3,188.6 192.4,189.7 191.5,190.8 C190.4,192.2 189.5,192 188.3,191.9 C186.9,191.9 184.7,192.2 181.8,193.5 C180.1,194.3 179.4,194.4 176.9,194.6 C175.3,194.7 173.7,194.9 173.4,195.1 C173,195.3 171.9,195.7 170.8,196 C168.7,196.6 169.4,197.2 170.7,200 C176.9,216 181.4,234.6 183,249.8 C184.8,267.2 184.3,288.3 181.8,304.4 C175.8,304.4 172.1,304.1 165.8,304.2 C161.5,339 149.9,366.7 126.6,391.6 L189.4,391.8 C196.6,372.6 229.5,357.9 230.5,359 L232.2,366 C232.2,366 208.6,369.4 192.6,399.4 C194.2,398.4 200.2,399.1 204.1,403.2 C211.9,393.3 224.7,386.8 224.8,387 L225.2,385.8 C225.2,385.8 227.6,385 229.6,384.6 C230.3,384.5 231.6,384.2 232.5,383.9 C233.9,383.4 234.6,382.9 236.7,383.1 C241.2,383.5 245.7,382.2 245.6,382.2 C232.3,345.4 229.1,312.2 234.3,273.6 C239.2,273.6 250,273.8 250,273.8 C251.1,263 252.5,252.1 255.8,241.9 C260.1,228.8 265.2,216.5 273.5,205.4 C278.2,198.4 282.3,193.4 287.1,186.8 L225.6,186.9 C217.5,200.6 201.8,212 189.2,216.8 C184.9,218.4 184.3,218.2 183.6,216.2 C182.3,212.6 182.4,212.7 185.8,211.8 C186.9,211.5 190.5,209.6 196.1,207 C208,201 216.1,189.9 220.9,182.5 C222.8,179.6 221.5,180.2 218.3,180.2 C215.3,180 213.9,179 211.3,176.5 C210.3,175.6 209.9,174.9 209.4,175 C206.1,179.9 200.2,186.6 195.6,188.5 L195.6,188.5 Z M210.1,176.9 C212.9,179.9 216.2,181.6 220.5,182.2 C213.6,193 205.2,201.5 195.5,206.6 L190.6,192.7 C202.6,187.1 205.8,181.5 210.1,176.9 L210.1,176.9 Z M310.3,181.3 C245.2,241.4 249.1,317.3 294.6,378.9 L289.8,381.8 C247,324.5 239.3,239.6 304.6,181.1 L310.3,181.3 Z M269.3,188.6 L285.2,188.6 L274.3,202.7 L259.7,202.6 L269.3,188.6 Z M266.8,188.7 L257.9,202.7 L234,203 C219.7,220.6 204.3,229.3 188.7,235.1 L185.6,220 C185.6,220 210.4,214 226.4,188.5 L266.8,188.7 Z M242.5,189.9 L237,196 L242.8,201.9 L248.1,196 L242.5,189.9 Z M255.1,189.7 L249.5,195.5 L253.9,201.4 L259.7,195.7 L255.1,189.7 Z M227.4,190.8 L226.4,200 L233.6,202.4 L234.6,194.5 L227.4,190.8 Z M271.3,191.1 L266.1,199.3 L274,199.4 L279.5,191.2 L271.3,191.1 Z M188.8,193.2 L193.9,207.4 L189.4,209.6 L184.8,194.8 L188.8,193.2 Z M182.7,195.5 L188,210.2 L183.6,211.7 L178.8,196.4 L182.7,195.5 Z M189,253.5 C189.6,273.9 189.9,286.2 186.5,304.1 C186.3,305 182.7,304.2 182.7,304.2 C183.2,304.4 184.8,283.9 184.6,271.1 C184.4,246.7 180.2,222.5 170.6,198.3 C172.4,197.2 176.9,196.6 176.9,196.6 C183,215 188.4,234.7 189,253.5 L189,253.5 Z M125.2,196.9 C146.2,224.8 161.2,262.6 158.7,299.9 C156.3,343.3 139.8,368.3 111,398.3 L103.5,398.5 C137.7,365.7 152.8,337.7 154,300.7 C155.4,258.1 142.4,229.8 120.5,199.7 L125.2,196.9 Z M58,235.2 L58.1,245.3 L129.6,214.6 L119.3,199.4 L58,235.2 Z M225.7,201.9 L217.9,202.3 L218.2,210.2 L226.3,210 L225.7,201.9 Z M295.1,200.4 L341.5,261.2 L330,269.7 L285.8,212.6 L295.1,200.4 Z M258.8,204.6 L272.7,204.8 L267.3,213.7 L253.9,213.6 L258.8,204.6 Z M256.2,204.8 C249.8,216.7 241,230.2 236.1,252.1 L190.4,252.1 C190.3,247.1 189.7,242.1 188.9,237.1 C208.6,229.9 223.8,219.1 235.1,204.9 L256.2,204.8 Z M264.7,205.4 L258.7,208.8 L262.3,213 L268.9,210.5 L264.7,205.4 Z M210.3,209.8 L208.3,217.5 L215.7,220.4 L217.1,211.2 L210.3,209.8 Z M252.9,215.6 L266.2,215.7 L260.6,226.9 L247.4,226.7 L252.9,215.6 Z M284.6,214.1 L328.5,271 L324.4,274.3 L281.5,218.7 L284.6,214.1 Z M257.9,216.5 L251.9,221.5 L256.4,226.7 L261.9,222.3 C262.1,222.2 257.9,216.5 257.9,216.5 L257.9,216.5 Z M199.7,216.9 L197.9,224.4 L205.6,226.5 L207,218.4 L199.7,216.9 Z M189,221.9 L187.4,229.3 L194.7,231.3 L196.2,224.2 L189,221.9 Z M129.2,221.2 C129.6,221.1 128,230 125.7,231.6 C124.6,232.4 124,232.2 123,231.2 C122.3,230.5 119.3,225.6 119.3,225.6 L121.9,224.3 C125,229.3 125,226.9 126.2,222.6 L129.2,221.2 Z M117.1,226.3 C118.1,226.3 119.4,227.6 120.8,230 C122.8,233.6 122.8,233.8 119.4,234.8 C113.4,236.4 111.2,236.8 113,232.8 C115,228.6 115.8,226.3 117.1,226.3 L117.1,226.3 Z M135,225.6 L139.1,232.6 C122.7,274.4 96.2,304.4 59.8,322.5 L59.7,315.6 C102.6,291.1 120.2,262.2 135,225.6 L135,225.6 Z M246.6,228.6 L259.5,228.8 L256,238.7 L242.3,238.6 L246.6,228.6 Z M113.3,228.2 C102.8,253.3 88.4,275.1 59.7,293.6 L59.6,286.9 C91.9,267.5 105.8,231 105.8,231 L113.3,228.2 Z M276.6,228.1 C284.2,228.3 292.3,236.6 291.5,243.5 C290.9,248.3 291.9,251.9 293.2,249.9 C296.1,245.5 304.7,248.4 304.6,253.7 C304.6,256.5 302.7,257 301.6,254.4 C300,250.7 295.6,250.6 294.9,254.5 C294.3,258.2 297.4,260.9 305.7,263.9 C315.5,266.2 321.3,274.9 317.9,279.9 C316.7,281.2 316,281.6 315.7,280.9 C315.6,280.7 315.4,279.7 315.2,278.6 C314.1,273.3 311.6,271.1 308.5,272.9 C307,273.8 307.2,275 308,276.6 C309.2,278.7 308.5,279.5 306.3,278.4 C302.9,276.7 301.8,272.7 305.1,270.8 C309,269.2 307.7,268.9 302.7,267.2 C292.1,263.6 287.6,257 287,244.3 C287.2,238.5 286.4,236.5 283.7,235.7 C281.2,235 278.4,238.1 280.2,239.8 C281.2,240.7 282,241.5 281.4,242 C279.8,243.6 275.6,241 275.7,238.2 C275.7,236.4 276.4,236 279.1,233.9 C279.9,233.3 279.2,232.2 278.1,232.2 C274.1,233.8 274.3,228.3 276.6,228.1 L276.6,228.1 Z M252.6,229.6 L246.1,233.3 L249.5,238 L256.7,234.6 L252.6,229.6 Z M126.9,233.3 C127.6,233.3 128.2,233.9 128.2,234.6 C128.2,235.3 127.6,235.9 126.9,235.9 C126.2,235.9 125.6,235.3 125.6,234.6 C125.6,233.8 126.2,233.3 126.9,233.3 L126.9,233.3 Z M140.2,233.8 C153.8,263.6 157.1,297.6 147.6,331.6 L110.8,283.7 C124.9,267.8 134.4,249.6 140.2,233.8 L140.2,233.8 Z M90.4,236 L57.5,249.8 L57.3,274.4 C75.7,261.9 83.5,249.1 90.4,236 L90.4,236 Z M122,235.8 C125.2,235.7 123.6,244.4 119.4,247.4 C117.9,248.6 116.8,248.4 116.3,246.1 C116,244.9 114.7,242.3 113.1,240.2 C111.2,237.8 111.2,237.7 114,237.5 C117.1,237.6 119.6,236.1 122,235.8 L122,235.8 Z M118.8,239.5 C116.4,239.5 115.7,240.6 117.1,242.1 C118.3,243.4 119.3,243.1 120.1,241.2 C120.5,240.2 120.1,239.5 118.8,239.5 L118.8,239.5 Z M59.5,271.5 L59.6,250.6 L87.7,238.8 C82.1,251 71.6,263.1 59.5,271.5 L59.5,271.5 Z M309.1,288.4 L305.4,292.2 L269.1,244.9 L271.4,238.9 L309.1,288.4 Z M110.3,240.5 C111.5,240.5 114.3,244.7 115,247.8 C115.6,250 115,250.5 110.7,251.2 C108.9,251.7 104.2,251.2 104.6,249.9 C105.3,248.1 109.9,240.5 110.3,240.5 L110.3,240.5 Z M241.7,241 L254.9,241.1 L251.9,252 L238,251.8 L241.7,241 Z M247.6,241.7 L241.4,246 L246.3,250.8 L252.8,246.8 L247.6,241.7 Z M268.3,246.4 L305,294 C294.1,307.9 283.1,323.9 276,345.1 C262.9,314.5 258.1,284.7 268.3,246.4 L268.3,246.4 Z M119.3,250.4 C120,250.4 120.6,251 120.6,251.7 C120.6,252.4 120,253.1 119.3,253.1 C118.6,253.1 118,252.5 118,251.7 C118,250.9 118.6,250.4 119.3,250.4 L119.3,250.4 Z M115.1,252.2 C117.4,252.4 115.2,259.7 111.8,262.3 C109.1,264.4 107.9,263.4 107.3,259.6 C107.1,258.2 105.6,255.9 104.3,254 C102.9,251.9 103.5,251.6 107.1,252.4 C109.6,252.9 112.8,252.3 115.1,252.2 L115.1,252.2 Z M237.7,254 L251.6,254.1 L249.5,270.6 L237.7,254 Z M102.5,254.8 C104.7,256.8 107.5,264 106,264.5 C104.4,265.1 96.9,264.2 96.1,263.4 C95.5,262.8 95.5,262.8 96.7,261.2 C97.4,260.3 98.6,258.5 99.5,257.2 C100.4,256.2 101.3,253.6 102.5,254.8 L102.5,254.8 Z M110.2,255 C108.1,255.1 107.9,255.4 108.9,257.6 C109.7,259.5 110.3,259.6 111.7,258.4 C113.7,256.8 112.9,254.9 110.2,255 L110.2,255 Z M353.8,256.4 L354.3,264.5 C301,291 281,353.5 280.7,353.5 L276.8,346.3 C301.3,286 333.9,268.5 353.8,256.4 L353.8,256.4 Z M102.5,266.1 C105.7,266 106.6,265.8 106.6,267 C106.6,270.2 103.7,274.7 100.1,276.4 C97.7,277.5 97.6,277.6 97.3,274.7 C97.1,272.5 96.4,269.7 95.2,267.4 C94.8,266.6 93.5,264.6 95.2,265.2 C96.9,265.6 100.5,266.1 102.5,266.1 L102.5,266.1 Z M109.6,265.3 C110.3,265.3 110.9,265.9 110.9,266.6 C110.9,267.3 110.3,267.9 109.6,267.9 C108.8,267.9 108.3,267.3 108.3,266.6 C108.2,265.9 108.8,265.3 109.6,265.3 L109.6,265.3 Z M92.6,267.2 C93.2,267.2 93.7,268.4 94.4,270.1 C95.8,273.9 96.3,275.9 95.8,276.8 C95.2,278.2 86.4,277.3 84.9,275.8 C84.6,276 91.3,267.9 92.6,267.2 L92.6,267.2 Z M98.9,268.1 C97.7,268.2 98.3,268.9 99.2,271.1 C99.8,272.6 100.7,272.9 101.7,271.8 C103,270.4 103.2,269.2 102.4,268.6 C101.2,268.2 100.3,268.1 98.9,268.1 L98.9,268.1 Z M354.2,276.3 L354.2,279 C352.1,278.4 350.8,277.5 348.5,276.7 C347.1,276.2 346.2,275.9 347.5,274.3 C349.5,271.9 351.7,270.4 354.1,268.9 L354.1,272 C350.2,273.8 350.6,275.5 354.2,276.3 L354.2,276.3 Z M200,273.6 L214.7,273.6 L214.7,283.3 L226.2,283.3 L225.3,294.4 L214.7,294.4 L214.7,304.1 L200,304.1 L200,294.4 L189.5,294.4 L190.4,283.3 L200.1,283.3 L200.1,273.6 L200,273.6 Z M233.3,273.6 C225.8,310.6 232.7,349.8 244.2,381.8 L238.4,382.4 C229.4,356.8 222.3,320.4 229.6,273.6 C229.5,273.6 232.1,273.6 233.3,273.6 L233.3,273.6 Z M342.7,274.3 C343.4,274.3 344,274.9 344,275.6 C344,276.3 343.4,276.9 342.7,276.9 C342,276.9 341.4,276.3 341.4,275.6 C341.4,274.9 341.9,274.3 342.7,274.3 L342.7,274.3 Z M83.4,277.4 C83.9,277.4 85.4,278 86.7,278.4 C88.7,279 90.3,279.2 92.1,279.2 C95.8,279.3 96.2,279.2 94.7,282.2 C93.6,284.4 91,287.2 89.2,288.1 C86.7,289.4 85.7,289.3 85.8,286.8 C85.8,285.1 85.1,282.2 84.1,280.1 C83.4,278.5 82.6,277.5 83.4,277.4 L83.4,277.4 Z M98.9,278.6 C99.6,278.6 100.2,279.2 100.2,279.9 C100.2,280.6 99.6,281.2 98.9,281.2 C98.2,281.2 97.6,280.6 97.6,279.9 C97.6,279.2 98.2,278.6 98.9,278.6 L98.9,278.6 Z M346.9,278.4 C347.9,278.4 349.7,279 351.4,279.8 C355.7,281.9 355.6,282.4 349.8,286.5 C345.6,289.7 344.6,290.1 344.4,285 C344.1,280.8 344.6,278.5 346.9,278.4 L346.9,278.4 Z M81.2,279.7 C82.9,279.7 84.8,288.6 83.3,289.4 C80.9,290.6 73.5,288.2 73.5,286.2 C73.5,285.5 80.4,279.6 81.2,279.7 L81.2,279.7 Z M341.7,279.3 C342.7,279.3 342.9,280.1 342.8,282.9 C342.7,284.4 343,286.9 343.1,288 C343.3,290.4 343.1,290.5 341.2,289.5 C340,288.8 337.6,287.7 334.9,287.5 C332.7,287.3 332.6,286.4 333.2,285 C335.2,281.8 338.7,279.6 341.7,279.3 L341.7,279.3 Z M87.5,280.6 C86,280.6 86.4,281.4 87.3,283.6 C88,285.2 89.1,285.3 90.3,284 C91.9,282.1 91.6,281.1 89.2,280.8 C88.7,280.7 87.9,280.6 87.5,280.6 L87.5,280.6 Z M339.8,282.8 C339.2,282.9 338.3,283.3 337.9,283.6 C336.5,284.5 335.9,285.1 338,285.8 C339.8,286.4 340.8,286.7 340.6,285.1 C340.5,284.2 340.5,282.8 339.8,282.8 L339.8,282.8 Z M201.4,283.9 L201.4,293.6 L213.1,293.6 L213.1,283.9 L201.4,283.9 Z M329.3,284.8 C330,284.8 330.6,285.4 330.6,286.1 C330.6,286.8 330,287.4 329.3,287.4 C328.6,287.4 328,286.8 328,286.1 C327.9,285.3 328.5,284.8 329.3,284.8 L329.3,284.8 Z M109.6,286.3 L146.6,333.8 L144.1,340 L106,289.8 L109.6,286.3 Z M354.4,286 L354.5,292.2 C350.3,295.3 323.8,314.5 310,346.9 L302.8,350 C313,322.1 334.6,298.2 354.4,286 L354.4,286 Z M72.9,288.7 C75.3,289.4 77.6,291.1 79.9,291.4 C82.5,291.7 83.4,291.6 82.7,292.9 C81.1,295.9 78.1,299.1 75,300.1 C72.7,300.8 71.7,300.6 72,299.2 C72.7,296.6 72.8,294.4 72.7,292 C73,290.7 71.9,288.9 72.9,288.7 L72.9,288.7 Z M70,289.2 C71.5,290.5 71.2,298.8 69.5,300.6 C68.6,301.5 66,300.7 62.1,298.5 C59.6,297.1 59.1,296.2 60.3,295.3 C62.6,294 68.9,288.9 70,289.2 L70,289.2 Z M334.5,289.4 C335.3,289.4 336.3,289.5 337.5,289.8 C342.1,290.8 343.1,291.9 339.2,295 C337.8,296.1 336.2,297.6 335.8,298.1 C333.7,300.7 332.2,298.8 331.7,294.1 C331.3,290.8 331.8,289 334.5,289.4 L334.5,289.4 Z M328.7,289.8 C329.5,289.8 329.9,290.2 329.9,291.1 C329.9,292.3 330.7,297.4 331.2,298.9 C332,301.3 331.4,301.9 329.4,300.8 C327.9,300 324.1,299.4 322,299.6 C319.6,299.8 319.7,299.1 320.4,297.2 C321.7,293.7 326.4,289.9 328.7,289.8 L328.7,289.8 Z M75.1,291.6 C74.2,291.6 74.2,292.8 74.8,295.6 C75,296.5 75.8,296.4 77.2,295.4 C78.9,294.2 78.8,293.5 76.9,292.3 C76.1,291.8 75.5,291.6 75.1,291.6 L75.1,291.6 Z M85.6,291.9 C86.4,291.9 86.9,292.5 86.9,293.2 C86.9,293.9 86.3,294.5 85.6,294.5 C84.9,294.5 84.3,293.9 84.3,293.2 C84.3,292.5 84.9,291.9 85.6,291.9 L85.6,291.9 Z M324.3,297.1 C325,297.7 327.3,297.7 327.7,297.3 C328.3,296.7 328,294 327.5,293.7 C326.2,293.3 323.5,296.1 324.3,297.1 L324.3,297.1 Z M102.1,302.2 C102.9,306 108.3,305.8 107.7,301.8 C107.3,299.5 107.3,299.5 108.4,299.6 C114,299.9 113,308.7 106.6,308 C105.3,308.2 105.1,308.7 106.2,309.2 C107.3,309.7 111.6,310.8 112.3,310.8 C119.3,310.8 129.4,321.5 129.1,331.1 C128.9,337.3 131,341.8 133.2,342.3 C134.9,342.7 137.4,341.1 137.2,339.2 C136.9,336.6 139,337.4 140.3,339.3 C142.2,341.9 139.8,345.7 135.3,345.4 C133.4,345.8 136.7,347 139.1,347.7 C141.3,347.8 139.4,350.6 139,351.1 C137.7,352.6 133.6,351.4 130.4,348.8 C126.4,345.6 124.7,341.3 124.3,332.9 C124,327.5 123.6,326.4 122,328.6 C119.2,333.6 112.4,331.1 111.5,325.9 C111,323.1 113.5,321.1 114.3,323.6 C116.4,328.9 121.5,327.6 120.7,322.4 C120.1,319 116.7,317.1 109.9,315.1 C101.7,312.8 99.3,310 97.7,303.3 C97,300.3 97.1,298.8 98.7,297.2 C99.5,296.4 100.5,295.7 100.5,295.7 C100.5,295.7 101.7,300.1 102.1,302.2 L102.1,302.2 Z M316,297.9 C316.7,297.9 317.3,298.5 317.3,299.2 C317.3,299.9 316.7,300.5 316,300.5 C315.3,300.5 314.7,299.9 314.7,299.2 C314.6,298.5 315.2,297.9 316,297.9 L316,297.9 Z M59.4,299.2 C61.8,300.1 63.9,301.4 66.4,302.2 C68,302.8 67.6,304.1 65.9,305.9 C64,308.1 62.2,309.2 59.6,310.5 L59.6,306.7 C62.8,305.6 64.8,302.9 59.5,302.1 L59.4,299.2 Z M322.3,301.3 C323.2,301.3 324.5,301.3 326.1,301.7 C330,302.5 330.4,302.9 328.1,305.6 C327.2,306.6 325.9,308.1 325.2,309 C322.9,312.2 321.7,311.1 320.6,307 C319.3,302.6 319,300.9 322.3,301.3 L322.3,301.3 Z M71.6,302.9 C72.3,302.9 72.9,303.5 72.9,304.2 C72.9,304.9 72.3,305.5 71.6,305.5 C70.8,305.5 70.3,304.9 70.3,304.2 C70.2,303.5 70.8,302.9 71.6,302.9 L71.6,302.9 Z M318.4,305.8 C318.8,307.2 319.3,308.9 319.8,310.1 C321.9,314.7 320.6,312.9 316.8,312.5 C314.3,312.2 310.2,312.6 309.2,311.9 C308.8,311.3 309.2,309.8 310,308.2 C311.1,305.8 313.2,303.8 314.8,302.9 C318.7,301.1 317.8,303.4 318.4,305.8 L318.4,305.8 Z M91.8,304.1 L134.1,360 L130.8,364.7 L87.3,307.2 L91.8,304.1 Z M356.7,304.3 C334.7,320.2 326.3,339.5 324.6,342 L356.8,329.6 L356.7,304.3 Z M314.8,306.2 C313.6,306.5 311.9,308.8 312.6,309.6 C313.1,310.1 314.8,310.1 315.7,309.8 C317,309.3 316.1,306.2 314.8,306.2 L314.8,306.2 Z M129.5,366.6 L120.5,377.9 L73.6,317.2 L85.4,308.7 L129.5,366.6 Z M354.4,307.6 L354.7,328.5 L327.2,340 C336.4,324.4 345.4,314.7 354.4,307.6 L354.4,307.6 Z M166,309.4 L177,323.8 L163.5,323.5 L166,309.4 Z M305.5,310.6 C306.2,310.6 306.8,311.2 306.8,311.9 C306.8,312.6 306.2,313.2 305.5,313.2 C304.8,313.2 304.2,312.6 304.2,311.9 C304.2,311.2 304.8,310.6 305.5,310.6 L305.5,310.6 Z M313.6,314 C318.6,314.1 320.3,314.3 318.9,316.8 C316.9,319.2 315.8,321.5 313.7,323.8 C312.5,325.1 310.9,322.5 309.6,318.3 C308.6,315 309.1,314.1 311.1,314.1 C313,314 313.3,314 313.6,314 L313.6,314 Z M307.8,318.5 C308.2,319.8 309.2,322 309.9,323.3 C310.7,324.6 311.5,326.1 311.5,326.4 C311.4,327 310.8,327.1 309.5,326.6 C306.6,325.3 299.9,326.7 299.7,326 C298.7,324.6 300.2,320.7 303,318 C304.4,316.7 305.7,315.8 306.4,315.8 C307.1,315.7 307.2,316.7 307.8,318.5 L307.8,318.5 Z M72,317.5 L119.7,379.5 L116.4,383.5 L68.1,320.3 C68.1,320.3 60.5,324 58.2,325.3 L58.5,357.4 L57.2,357.3 L57.4,519.7 L84,493.1 L83.7,382.9 C89.4,388.2 94.2,393.9 100.7,399.1 L111.8,399 C140.7,369.6 156.6,344.4 160,299.3 C162.3,269.1 152.3,231.2 125.7,194.5 L119.2,198.4 L132,217.7 L104.8,229.7 C94,252.5 81.2,273.6 57.7,285.6 L57.6,315.1 L57.2,315.7 L57.5,325 L72,317.5 Z M305.4,319.6 C304.1,319.7 302.2,322.4 303.1,323.4 C304.2,323.9 305.8,323.9 306.5,323 C306.9,322 306.8,320.1 305.4,319.6 L305.4,319.6 Z M163,326 L177,326.1 L173.3,338.1 L159.6,337.8 L163,326 Z M296.2,325.9 C296.9,325.9 297.5,326.5 297.5,327.2 C297.5,328 296.9,328.5 296.2,328.5 C295.5,328.5 294.9,327.9 294.9,327.2 C294.8,326.5 295.4,325.9 296.2,325.9 L296.2,325.9 Z M224.7,326.3 L226.5,341.9 C211.2,347.5 194.7,356.9 180.3,374.2 C177.8,374 158.2,374.400223 158.2,374.400223 C158.7,374.5 176.4,341 178.5,326.5 L224.7,326.3 Z M169.2,327.7 L162.8,332.1 L167.8,337.5 L174.5,333 L169.2,327.7 Z M303,327.8 C304.4,327.8 306.2,327.9 307.7,328.2 C310.1,328.7 310.4,328.7 309.6,330.7 C308.5,333.3 306.1,338 305.5,338.4 C303.3,339.7 298.5,330.1 300.2,328.4 C300.6,328 301.5,327.8 303,327.8 L303,327.8 Z M296.9,330.8 C297.5,330.8 298.3,331.9 298.6,333 C298.9,334.3 301.1,337.5 302.5,339 C304.2,340.9 304.1,341.2 301.7,341.4 C298.7,341.6 295.8,342.2 294.2,342.8 C291.6,343.7 291.3,343.5 291.6,340.5 C292,335.9 295,330.9 296.9,330.8 L296.9,330.8 Z M294.6,340.2 C294.9,341.1 298.9,339.5 299.2,338.4 C299.2,337.9 297.6,335.2 296.6,335.1 C295,335.3 294.3,338.9 294.6,340.2 L294.6,340.2 Z M159.3,339.6 L172.6,339.7 L168.3,350.6 L155.2,350.6 L159.3,339.6 Z M165.2,341 L158.8,345 L163.7,349.8 L169.8,345.6 L165.2,341 Z M300,343 C301.1,343 302.3,343.1 302.6,343.5 C303.3,344.7 300.4,351.1 300.4,351.1 L295.7,353 C294.7,350.9 293,348.8 292.6,346.5 C292.4,345.5 292.9,345.2 294,344.6 C295.6,343.7 298.1,343 300,343 L300,343 Z M287.5,343.5 C288.2,343.5 288.8,344.1 288.8,344.8 C288.8,345.5 288.2,346.1 287.5,346.1 C286.8,346.1 286.2,345.5 286.2,344.8 C286.1,344.1 286.7,343.5 287.5,343.5 L287.5,343.5 Z M227.1,343.7 C227.1,343.7 230,359.9 230.1,358.1 C208,366.4 195.1,378.7 188.9,390.7 L147.4,390.7 L156.7,376.3 L181.3,376.2 C193.1,361.8 207.8,350.3 227.1,343.7 L227.1,343.7 Z M221.7,347.5 L219.7,354 L225.9,358 L228.2,351 L221.7,347.5 Z M289.7,347.6 C290.2,347.6 290.7,348.4 291.8,350.3 C292.6,351.7 293.6,353.7 293.6,353.7 L291.7,354.4 C290.2,349.3 288.8,351.2 288.7,355.7 L286.2,356.7 C286.2,356.7 286.5,352.3 287.9,349.8 C288.7,348.5 289.2,347.7 289.7,347.6 L289.7,347.6 Z M154.5,352.1 L167.4,352.2 L162,363.3 L148.9,362.9 L154.5,352.1 Z M210.5,353 L209.5,361.3 L216.4,362.8 L217.3,354.9 L210.5,353 Z M160,353.1 L153.6,357.2 L157.8,362.7 L163.9,358.6 L160,353.1 Z M200.6,360.3 L199.3,367.9 L205.8,369.4 L207.3,361.8 L200.6,360.3 Z M59.5,360.8 L75.7,376.9 L76.6,489.3 L60.4,505.5 L59.5,360.8 Z M147.9,364.9 C147.8,365 160.9,365.3 160.9,365.3 L155.7,374.7 L151.2,374.5 L157.1,370.5 L153.3,365.7 L147.3,369.6 L150.7,374.5 L141.9,374.3 L147.9,364.9 Z M231.8,367.7 L236.2,382.3 L230.9,383.2 L226.9,369.5 C228.5,368.6 230.1,368.2 231.8,367.7 L231.8,367.7 Z M190.1,368.6 L190.2,377.3 L197.3,377.9 L197.6,369.7 L190.1,368.6 Z M225.3,370 L229.3,383.8 L225.9,384.8 L221.1,371.6 C222.4,370.9 223.8,370.3 225.3,370 L225.3,370 Z M219.1,372.9 L224.3,386.5 C217.1,389.4 209.7,395.6 204.1,401.8 C199.9,398.8 197.5,398.4 195,397.7 C202,384.6 210.4,377.6 219.1,372.9 L219.1,372.9 Z M140.8,376.3 L154.4,376.7 L144.9,390.9 L129.5,390.9 L140.8,376.3 Z M181.4,376.8 L180.5,385.1 L187.8,389.4 L188.9,380.9 L181.4,376.8 Z M172.6,377.9 L167.4,383.4 L172.9,389.7 L177.9,383.1 L172.6,377.9 Z M161,378.2 L154.8,383.9 L159.7,390.3 L165.3,383.9 L161,378.2 Z M82.5,383.5 L83.1,493.3 L60.5,515.2 L60.3,509.3 L78.3,490.5 C78.3,453.4 78.2,416.2 78.1,379.1 L82.5,383.5 Z M142.7,380 L136.4,388.5 L143.8,388.5 L149.2,380.2 L142.7,380 Z M104.2,433.1 C101.7,442 90.4,451.6 90.2,451.4 C95.8,459.5 95.6,471 90.7,476.6 C90.7,476.5 99.7,484 101,487.9 C101.7,489.4 102,491.3 102.9,492.9 C103.1,493.3 103.9,494.3 103.9,494.3 C125.9,471.9 115.4,445.7 104.2,433.1 L104.2,433.1 Z M104.5,435.4 C125.9,461.9 111.8,486.2 104.3,493 L102.9,490.6 C118.8,472.1 112.1,449.4 102.8,438.7 L104.5,435.4 Z M102.2,440.6 C102.3,441 103.2,442.3 102.6,442.2 L101.5,442 L102.2,440.6 Z M102,443.5 C102.5,443.5 102.9,443.6 103.1,444 C103.5,444.7 101.3,450.8 100,449.4 C99.6,448.6 99.1,447.9 98.7,447.1 C98.2,446.1 98.5,445.6 99.6,444.6 C100.3,443.9 101.3,443.5 102,443.5 L102,443.5 Z M105.1,445.2 C106.2,445.3 107.7,448.7 107.9,451.1 C108,451.4 104.2,450.5 103.3,449.4 C103.4,448.4 104.3,445.9 105.1,445.2 L105.1,445.2 Z M96.8,447.9 C103.2,460.9 102.8,471 97.2,480.3 L92.8,476.5 C95.8,469.4 97.3,461.9 92.2,452.3 L96.8,447.9 Z M101.1,451.2 C101.5,451.2 102.9,451.4 104.1,451.8 C108.4,453.2 108.6,456 104.4,458.1 C102.7,459 102.1,458.6 101.2,454.3 C100.7,452 100.4,451.3 101.1,451.2 L101.1,451.2 Z M109.4,456.2 C110.2,456.2 110.6,457.8 110.7,460.5 C110.8,463.1 110.2,463.3 108.2,461.4 C106,459.4 105.6,458.9 107.6,457.3 C108.3,456.8 109,456.2 109.4,456.2 L109.4,456.2 Z M103.5,460.4 C103.9,460.4 105.1,461.1 106.3,462 C109.2,464.2 108.6,465.8 105.2,466.9 C102.9,467.7 103,467.8 103.1,463.7 C103.1,461.7 103,460.4 103.5,460.4 L103.5,460.4 Z M142.6,464.1 C139,465 137.5,468.2 138.7,471.1 C139.2,472.4 140.1,472.4 139.1,473.2 C138,474.4 137.4,477.3 138.6,478.4 C140,479.2 140.4,477.8 138.9,480.5 L111.8,530.3 L274.5,530 L255,493.4 C255,493.3 256.6,487.4 253.4,486.6 C252.4,486.4 251.8,485.4 251.6,484.5 C251.9,482 250.7,480.9 249.7,479.6 C234.2,481.8 220.8,480.7 209.7,478.2 C193.7,474.6 182.3,468.4 174.9,466.4 C164.6,463.7 152.2,462.6 142.6,464.1 L142.6,464.1 Z M151.3,464.4 C163.9,464.3 178,468.2 187.9,472.5 C198.1,476.7 209,479.9 220,481.5 C229.1,482.6 238.1,482.1 246.7,481.4 C247.6,481.3 248.6,481.4 249.3,482.1 C251.1,484.1 249.9,485.3 245.4,485.8 C238.2,486.4 229.3,486.1 221.3,485 C208.8,483.6 195.4,479.8 184,475 C169.7,469.6 156.5,467.8 146.1,469.4 C140.4,470.3 139.5,470.4 139.6,468.9 C139.6,465.8 142.1,464.4 151.3,464.4 L151.3,464.4 Z M110,473.1 C109.4,474.4 105.5,470.2 105.6,469 C105.7,468.5 108.9,466.4 110.1,465.6 C110.7,465.1 110.7,465.4 110.7,465.9 C110.7,467.5 110.6,471.5 110,473.1 L110,473.1 Z M104,470 C105.8,470.2 108.8,475.1 106.2,475.9 C103.9,476.6 101.8,477 101.5,475.4 C102.7,471.6 103.1,470.1 103.8,470 C103.9,470 103.9,470 104,470 L104,470 Z M209.2,486.7 C220.7,488.7 235.9,489.9 245.8,489.1 C251.5,488.5 252.7,488.7 252.6,491.1 C252.6,492.6 252.7,492.5 245.4,492.5 C239.3,492.9 233.8,492.2 227.9,491.9 C215.7,491.3 204.6,489.2 194.4,485.6 C183,482.7 173.2,477 162.1,475.8 C151.9,474.8 142.7,476.6 140.8,477.7 C140.2,477.7 139.8,476.7 139.9,475.9 C139.9,475 140.3,474.4 141,473.8 C170.2,466.5 185.9,482.3 209.2,486.7 L209.2,486.7 Z M107.8,476.9 C108.8,476.9 108.5,478.3 106.9,481.4 C105.5,484 105,484 104.2,481.3 C103.4,478.5 103.5,478.1 105.1,477.7 C106.1,477.6 106.9,477.1 107.8,476.9 L107.8,476.9 Z M101,478.4 C102.1,478.4 103.8,483.6 102.9,484.6 C102.2,485.4 99.9,484.8 99.2,483.9 C98.1,482.4 99.5,478.4 101,478.4 L101,478.4 Z M152.1,479.8 C156.6,479.8 161.2,480.2 165.3,481 C162.9,481.9 160.5,482.7 158,484.1 C156.3,482.6 154.4,481.2 152.1,479.8 L152.1,479.8 Z M158,486.1 C174,477.2 180.8,489.5 183.1,491.5 C197.1,488.4 199.9,489.9 207.7,498.4 C221.7,491.5 228.5,497.4 234.4,501.1 C241.3,494.7 250,494.5 254.5,497.7 C255.3,499.1 256.5,500.9 256.6,501.5 C256.7,501.9 256,501.4 254.5,500.3 C246.3,494.4 232.6,501.7 236.2,509.5 C237.2,511.6 237,512.5 235.6,513.3 C233.5,514.7 230.9,512.4 232.4,510 C234.8,506 233,502.7 227.1,499.6 C218.8,495.2 205.2,500.1 208,506.5 C209.8,508.5 208.1,510 205.8,509.9 C203.1,509.8 202.2,508 203.9,506.1 C206,503.7 205.5,501.2 203,498.3 C195.5,487.6 180.4,491.9 182.4,501.2 C183.3,503.5 180.8,504.5 178.2,503.4 C176.5,502.7 176.8,500.2 178.6,499.3 C180.7,499.1 181,496.1 180.7,494.1 C180.3,491.3 176.2,488.5 172.1,487 C169.1,485.9 166.4,485.7 164.2,485.9 C159.6,486.3 157,489.5 157.8,494.1 C158.3,496.9 157.5,499.7 154.2,498.2 C152.4,497.4 152.9,495.4 154.7,493.5 C161.1,487.3 148.2,479.7 140.5,484.9 C139.2,486 138.2,486.2 138.2,486.2 C142.9,474.2 158.1,485.6 158,486.1 L158,486.1 Z M179.1,484.4 L188.8,488 C186.6,488.4 185,489.1 183.4,489.7 L179.1,484.4 Z M153.8,488.4 C144.9,486.7 144.4,496.7 150.2,498.3 C142.2,509.3 163.2,513.6 159.3,500 C169.9,501.9 168,489.8 160.1,489.9 C162,485.4 176.5,488.8 175.9,492.1 C166,493.1 170,502.1 174.2,502.1 C163.9,511.9 184.5,520.9 184,506.1 C192.3,507.8 193.3,496.8 185.3,496.1 C188.2,492 198.6,494.6 201.5,499.3 C193.3,500.4 193.8,507.6 200.2,508.8 C192,519.2 212.1,523 210,510.9 C217.2,513.4 221.1,503.8 211.8,501 C221.3,495.3 231.7,503.8 230.6,504 C219.7,503.4 221.9,514.3 229.8,513.7 C224.8,525 244.6,525.7 239.6,513.9 C248.5,514.1 247.7,503.7 239.2,503 C244.6,499.1 250.7,498.7 254.6,502.4 C246.5,504.5 249.8,514 258,511.4 C258.8,519.3 265.2,517.6 265.3,517.4 L271.1,528.2 L115,528.4 L128.3,503.8 C136.2,504.2 135.9,496.6 135.6,496.4 C140.8,500.1 146.5,490.8 138.8,488.2 C145.1,481.8 154.4,487.9 153.8,488.4 L153.8,488.4 Z M103,487.7 C102.7,488 102.6,488.2 102.1,487.7 C100.7,486.2 104.4,486 103,487.7 L103,487.7 Z M135.3,491.8 C136,492.4 135.5,493.9 135,494.4 C133.6,495.9 133.1,495.8 134.4,493.2 C134.7,492.4 135,491.8 135.3,491.8 L135.3,491.8 Z M203.7,492.5 L211.8,494.5 L207.9,496.7 C206.5,495.1 205.2,493.7 203.7,492.5 L203.7,492.5 Z M229.1,495.8 L237.9,496.4 C236.7,497.2 235.6,497.9 234.2,499.4 C233,498.1 230.9,496.9 229.1,495.8 L229.1,495.8 Z M258.5,504.8 C259,505.8 260.9,509.4 260.8,509.5 C257.9,509.9 257.1,505.7 258.5,504.8 L258.5,504.8 Z" id="Shape" fill="#100F08" fill-rule="nonzero"></path>
        </g>
    </g>
</svg>