<?xml version="1.0" encoding="UTF-8"?>
<svg width="415px" height="578px" viewBox="0 0 415 578" version="1.1" xmlns="http://www.w3.org/2000/svg" xmlns:xlink="http://www.w3.org/1999/xlink">
    <!-- Generator: Sketch 61.2 (89653) - https://sketch.com -->
    <title>13H</title>
    <desc>Created with Sketch.</desc>
    <g id="Page-1" stroke="none" stroke-width="1" fill="none" fill-rule="evenodd">
        <g id="13H" transform="translate(1.000000, 1.000000)">
            <path d="M20,0.1 L393.4,0.1 C404.3,0.1 413.1,8.9 413.1,19.8 L413.1,556.9 C413.1,567.8 404.3,576.6 393.4,576.6 L20,576.6 C9.1,576.6 0.3,567.8 0.3,556.9 L0.3,19.7 C0.4,8.8 9.1,0.1 20,0.1 L20,0.1 Z" id="Path" fill="#FFFFFF" fill-rule="nonzero"></path>
            <path d="M20,0.1 L393.4,0.1 C404.3,0.1 413.1,8.9 413.1,19.8 L413.1,556.9 C413.1,567.8 404.3,576.6 393.4,576.6 L20,576.6 C9.1,576.6 0.3,567.8 0.3,556.9 L0.3,19.7 C0.4,8.8 9.1,0.1 20,0.1 L20,0.1 Z" id="Path" stroke="#000000" stroke-width="0.7974"></path>
            <path d="M150.5,482.7 L249.2,484.8 C257.9,496.8 275.5,521.3 275.5,521.3 L116,523.4 L150.5,482.7 Z M109.2,491.1 C113.5,482.5 114.3,474.3 113.5,462.4 C112.9,453.3 118.6,446.2 124.5,448.9 C129.1,451 127,459.6 122.2,457.8 C120.4,457.1 118.8,457.7 119,461.8 C119.4,471.9 122.1,483.3 119.8,493 C118.3,502.4 105.3,498.1 109.2,491.1 L109.2,491.1 Z M69.2,477.9 C64.2,470.4 73.2,463.4 78.8,466.8 C81.5,468 81.1,470.7 77.7,469.3 C73,467.3 67.9,474.4 72,477.3 C73.9,478.6 74.6,478.4 73.2,476.8 C69.4,472.4 79.1,470.4 78.9,473.4 C78.2,476.9 78.1,478.4 77.8,479.1 C75.9,482.2 72.1,480.6 69.2,477.9 L69.2,477.9 Z M83.3,446.4 C82.7,444.6 81.2,442.4 81,440 C82.6,435.5 84.8,434.3 82.1,429.2 C79,417.9 70.9,406.5 73,406.1 C91.4,404.2 109.9,405.2 128.3,405.8 C128.3,405.8 117.3,423.1 114.6,432 C113.5,435.7 116.7,439.6 115.2,442.2 C112.8,446.3 111.1,447.9 111.8,448.7 C113.2,450.4 110.7,453.5 110.5,453.3 C102.2,452.2 94,450.9 84.8,452.7 C84,452.7 83.9,448.9 83.3,446.4 L83.3,446.4 Z M162.8,259 C171.9,307.6 158.3,356.3 127,388.8 C122.6,384.6 119.2,376.5 114.7,371.3 C102.4,367.6 93.6,371.9 85,376.2 C77.4,371.8 68.7,369.2 60.3,369.4 L60,362.1 C68.5,361.9 77.5,362.7 85,367.3 L96.8,362.5 L59.9,324.4 L60.4,317.9 L93.3,351.8 C109.2,319 107.1,281.6 161.4,258.4 C161.6,258.5 162.4,258.8 162.8,259 L162.8,259 Z M225.2,318 L231.7,348.7 C231.7,348.7 197.5,385.3 176.3,402.7 L160.4,401.3 C160.4,401.3 182.2,362.8 178.2,365.7 L225.2,318 Z M353.9,360.1 C338.7,377 320.5,387.8 300.4,399.6 C292.3,390.6 282.5,380.8 276.9,372 C276.6,371.5 289.7,365.8 302.7,357.7 C316,349.5 329,338.9 328.5,339.1 C327.6,340.2 306.5,347.3 306.6,346.4 L305.2,352.3 L302.8,352.9 C298.7,347.3 294.8,342.7 288.4,340.2 C285.7,340.4 282.2,338.7 282.2,338.7 C284,338.3 283.2,316.7 282.2,316.5 C282.2,316.5 282.7,315.9 287.4,316 C295.8,315.4 301.2,305.4 306.3,301.9 C322.5,300.6 336.9,302.2 352.8,301.7 C352.8,321 353.9,340.9 353.9,360.1 L353.9,360.1 Z M251,311.5 C250.6,310.7 246.5,278.9 250.4,258.9 C251.1,254.2 258.5,252.6 260,249.1 C262.4,241.5 258.8,232.1 260.7,223.6 C262.6,215 266.7,210.1 270.3,203.7 C274.2,196.7 279.8,188 286,182.8 C287.8,181 294.2,186.7 298.9,196.6 C300.6,199 311,200.6 317.9,199.7 C327.5,197.9 330.1,191 335.5,197.5 C342,201.6 352.6,202.7 352.6,202.7 L352.1,209.4 C352.1,209.4 330.3,205.5 330.1,203.8 C330.1,203.8 318.2,207.6 318.2,208.4 C318.2,211.7 352.3,243.2 352.3,243.2 L352.5,251 C347.4,243.9 307.3,209.8 307.3,209.8 C316.2,261.7 295,294 251,311.5 L251,311.5 Z M193.7,301.3 L192.9,270.8 L222.1,271.1 L223.3,302 L193.7,301.3 Z M60.1,268.3 C60.9,267.2 59,211.4 59.1,211.4 C77.7,193 95.8,182.7 114.1,171.6 C122.3,179.7 129.2,186.4 135.3,196.2 L110.5,212 C108.9,214.5 118.6,228.2 125,229.8 C125.7,230 128.2,229 129.3,229 C130.9,229.1 131.6,230.9 131.5,232 C129.3,241.4 132.5,249.4 132.9,254.4 C133,255.3 131.2,255.1 130.9,255.9 C130.3,257.1 127.4,254.7 125.3,254.3 C121.8,253.6 118.1,257.1 116.5,258.5 C112.3,262.3 115,269.4 106.5,269.1 C90.8,268.5 59.3,269.5 60.1,268.3 L60.1,268.3 Z M236,168.8 C236.2,168.6 251.9,168.9 251.7,169.5 C248.8,177.1 241.8,190.6 235.3,206.3 C227.8,219.6 217.4,227.5 208.6,236.2 C201.5,243.2 195.2,254.2 190.4,251.3 C187.4,241.9 186.8,233.5 183.5,223 C181.9,216.7 190.9,212.6 236,168.8 L236,168.8 Z M304.6,116.4 C310.4,118.8 326.5,117.6 329,116.5 C332.3,118.7 330.2,121.7 329.8,123.3 C333.2,127.5 335,129.1 331.2,135.9 C330.9,135.9 341,159.9 341,159.9 C340,160.4 338.7,161 337,161.6 C334.6,162.4 326.4,154.7 326.4,154.7 C325.9,152.5 316,165.9 316,165.9 L305.3,152.1 C305.3,153.3 284.7,166.9 284.4,166.3 C283.8,165.7 303.2,144.8 299.3,132.6 C298.4,129.6 300.5,126.7 302,124.1 C303.1,122.2 301.7,118.8 304.6,116.4 L304.6,116.4 Z M291.5,122.3 C287.5,120.3 287.3,114.2 292.5,114.5 C294.4,114.6 294.4,113.8 293.4,104 C292,90.5 292.9,80.3 295.2,77 C297.9,73.2 302.8,73 304.8,76.1 C306.4,80.4 301.7,86.3 300.8,89.2 C297.8,97.3 302.1,108 299.9,115.7 C298.3,120.9 294.6,123.8 291.5,122.3 L291.5,122.3 Z M337.4,102.5 C333.9,102 336.3,91.9 336.9,89.5 C336.9,88.9 343.2,87.5 345.5,91.5 C349.2,97.5 344.8,105.1 337.4,102.5 L337.4,102.5 Z M296.3,50.8 L263.8,90.1 C231,86.3 198,83.9 164.4,89.1 L137.4,51.6 L296.3,50.8 Z" id="Shape" fill="#E2CF00" fill-rule="nonzero"></path>
            <path d="M355.3,47.9 L54.8,48.8 L58.1,525.8 L357.9,524 L355.3,47.9 Z M286.1,50.8 C289.4,50.8 292.7,50.8 296,50.8 L260,94.9 L259.1,95.2 C261.5,102.2 264.9,110.9 268.2,117.5 C273.4,128.2 286.5,147.9 278.3,163.6 C277.5,164.9 276.8,165.6 275.8,165.6 C274.4,165.6 274.4,164.8 275.3,163.2 C277.1,159.7 278.4,151.5 277.6,147.1 C277.1,144.3 275.6,140 272.6,133.5 C258.9,108.4 254.7,95 255.4,95 C255.2,94.9 254.9,94.7 254.4,94.6 L253.1,94.1 C257.8,110 265.5,123.4 271.6,135.7 C276.6,147.2 277.1,151.7 274.5,160 C273.5,163.2 271.7,165.3 269.9,165.3 C268.6,165.3 268.6,165 269.5,163.4 C274.3,154.8 273.2,145.5 267.2,134.6 C258.6,116.7 253.4,105.3 250.3,93.8 C250.2,93.8 248.7,93.3 248.2,93.2 C250.8,105.2 257.9,119 264.6,133.2 C270.1,144.1 271.7,152 269.7,158.3 C269,161 267,165.1 264.3,165.2 C263.3,165.2 263.1,164.7 264.1,163.3 C268.2,156.3 268.9,149.9 261.6,135.2 C254.9,121.7 248.1,106.7 245.8,93.5 C245.6,92.4 242.7,91.1 243.4,92.9 C247,108.5 254.2,124.4 261.8,139.9 C266.1,149.5 266.5,155.7 263.3,161.1 C261.5,164.1 261,164.8 259.7,164.8 C258.1,164.8 258.1,164.9 259,163.1 C262.9,155 262.3,147.9 257,136.1 C249.9,120 243.8,106.7 241.3,92.6 C240.8,92.5 238.4,91.5 238.8,92.2 C242.4,105.7 247,118.2 252.8,130.8 C254.8,135.2 258.2,143.7 259.3,148 C261.3,156.1 256.7,167.3 250.7,167.9 C248.5,168.1 248.7,167 251.2,164.7 C255.5,160.7 256.3,154.3 254.9,147 C253.8,141.3 251.9,135.2 249.3,129 C244.1,116.5 238.3,103.4 236.5,91.8 C236.6,90.8 234.2,90.8 234.8,91.8 C236.1,99.9 239.2,109.2 242.6,117.8 C246.3,127.2 251.8,137.7 253.6,149.3 C255.1,158.8 249.2,167.7 242,168.2 C233.4,168.8 231.7,160.3 233.7,156.3 C237.1,150.3 246.9,153.7 244,159.8 C242.3,163.3 237.2,162.4 237.4,158.5 C237.3,158.1 237.9,157.1 237.8,157 C237.6,156.9 236.9,157.6 236.6,158 C234.8,161.1 240.1,165.3 243.7,162.8 C255.9,156.2 247.7,136 242.3,123.7 C237.1,112.2 233.3,101.9 231.7,91.2 C231.2,90.9 229.2,90.4 229.5,90.7 C231,96.4 231.7,101.1 233.1,105.9 C235.4,113.4 239.6,121.7 242.9,130.1 C246,138.3 249.1,145.3 247.6,153.9 C247.5,154.7 247.1,155.6 246.6,156.2 C246,156.8 245.6,156.7 245.4,154.5 C245.3,154.2 245,153.8 244.9,153.4 C245.2,150.2 245,147 244.1,143.9 C243.4,141.4 242,138.8 239.1,133.8 C238,132 235,126.3 236,130.2 C236.6,132.4 238.6,137.3 240.8,140.8 C242.1,143 243.5,149 243.1,150.2 C242.7,151.3 241.7,151.4 241.2,151 C240.8,150.6 240.8,149.1 240.7,148.1 C240.3,144 236.1,136.9 233.2,134.1 C231.1,131.8 238.1,144 238.6,147.2 C238.8,148.6 239.3,149.7 238.8,150.4 C238.5,150.9 237.9,150.9 237.2,150.7 C236.6,150.5 236.6,150.1 236,148 C234.9,144.4 233.6,142.6 230.9,139.4 C230,138.3 229.3,139.7 230.8,141.5 C232.9,144.8 234.4,146.9 235,151.1 C233.7,153 233,152.6 230.2,147.8 C228.3,144.6 227.2,143.8 226.7,143.8 C225.5,143.9 226.6,145.4 230.1,150.8 C231.9,153.7 231.9,155.5 229.9,155.5 C229.2,155.5 225.3,151.2 224.4,149.4 C223.6,147.9 222.6,146.7 222.6,148.6 C222.6,149.3 225,153.3 226.6,155.2 C229.2,158.2 229.9,158.8 230.3,160.1 C230.5,160.7 230.8,161.8 231,162.6 C231.7,164.8 231.3,165.4 230,164.2 C229.4,162.6 228.9,162.4 227.2,161.2 C225.8,160.2 223.8,157.5 222.6,155.6 C222.1,154.9 221.7,154 221.2,153.2 C219.9,150.9 218.3,150.7 219.5,153 C220.1,154.1 221,155.9 222,157.2 C223.6,159.5 223.3,160.7 221.4,160.7 C220.6,160.7 218.3,157.7 216.8,155.3 C215.9,153.8 214.4,152.7 214.6,154.2 C214.6,154.6 215.8,157.3 217.5,159.4 C219.4,161.7 219.6,162.9 217.8,162.9 C216.6,162.9 215.5,161.7 213.9,159.3 C212.4,157 211.5,156.2 211.1,156.5 C210.6,156.8 213.2,161.3 215.4,163.8 C217.5,166.1 216,167.4 213.6,165.4 C212.3,164.3 209.7,160.9 209,159.4 C207.7,156.6 206.9,157.3 207.7,159.6 C208.6,162.1 210.1,164.8 211.8,166.5 C212.7,167.4 214.6,168.2 215.5,168.9 C218.1,171.1 219.8,173.2 219.5,173.6 C212.1,174 206,166.1 204.3,161.3 C203.1,158.1 201.8,157.7 203,162.1 C206.6,173.1 217.9,178.9 225.7,173.9 C230.4,170.9 226.3,163.1 222.4,165.7 C221.4,166.4 221.3,168.3 222.6,167.3 C225.1,165.4 227.6,170.1 224.9,171.6 C221.1,173.6 216.8,169.7 219.4,165 C222,160.2 232.3,162.9 230.3,170.8 C229.1,174.3 223.7,178.7 219.1,178.8 C210.5,179 204.6,172.4 201.3,166 C200.5,164.5 198.6,160.1 198.5,160.1 C199.5,167.9 207,177.7 213.7,179.3 C224.9,181.9 228,175.3 235.3,168.4 C235.3,168.4 240.6,169.1 240.8,169 C241.3,168.7 251.2,168.3 251.5,168.5 C211.4,240.9 214.5,326.8 248.9,392 C251.2,396.8 251.6,395.9 247.8,394.9 C243.9,393.9 240.4,395.5 237.2,394.7 C230.7,393.4 229.3,397.8 224.2,400.2 C217.9,402.6 219.3,406.9 217.9,411.1 C217.4,411.7 217.1,412.2 217.3,412.2 C217.7,412.1 219.1,410.9 219.2,409.8 C219.5,407 220.5,404.8 221.6,403.7 C222.7,402.6 223.4,402.1 223.7,402.6 C223.9,403 223.8,404.2 223.2,405.2 C221.7,408.1 223.7,417.7 223.8,410.8 C223.9,405.4 227.2,399.3 231.8,396.9 C235.5,395.1 236.6,395.3 233.6,398 C230.2,401.6 227.9,405.9 227.7,411.1 C227.6,413.3 228.5,415.1 228.8,413.1 C228.7,403.1 238.7,391.9 249.5,397.5 C250,397.9 250.5,398.6 250.3,399 C239.9,397.3 230.8,402.9 232.1,416.4 C232.1,416.4 233,413.8 233.6,411.1 C235.2,402.9 244.6,399.3 251.1,401.5 C252.3,402 253.3,403.8 253.1,404 C245.1,401.5 236.3,409 235.8,417.2 C235.6,419.9 235.7,422.1 237.1,417.3 C242.3,399.1 258.2,407.4 256.3,408.9 C244,407.4 239.5,415.7 239.8,425.3 C240,426.2 240.4,426.5 240.8,427.3 C242.4,430.9 243.2,434 243.3,440.5 C243.2,442.2 244.6,452.9 243.2,452.5 C238.7,450.9 235.3,448.9 227.5,452.4 C226.8,452.4 226.6,452 226.8,451.4 C227.1,450.6 228.3,449 230.5,446.6 C235.3,441.5 232.5,442.9 228.6,446.4 C226.1,448.7 226.6,447.1 229,439.4 C230,436.3 229.4,435.9 225.2,433.8 C220.9,431.6 218,431.3 221.6,433.6 C223,434.5 224.5,435.4 226.2,436 C228.1,437 227.9,437.5 226.5,442 C223.8,450.8 222.8,454 223,460 C223.4,474.4 237.1,473 245,469.7 L245.3,479.2 L274.8,520.7 C274.8,520.7 171.6,520.6 116.4,521.5 C119.5,514 152.9,482 154.9,476.3 C155.1,476.3 151.2,464.6 149.2,459.5 C139.5,435.4 126.8,425.3 134.2,409.5 C135.8,406.4 136.1,405.3 137.3,405.3 C138.9,405.3 139.5,406.4 137.6,409.5 C129.7,422.7 146.5,445.4 152.2,460 C153.1,462.3 156.9,473.2 157.6,476.9 C157.7,478 160.3,478.4 159.6,477.1 C157.5,469.7 154.9,461.6 153.6,458.7 C149.1,448 144.4,440.7 140,430.2 C137.5,423.6 136.2,415.9 140,409.1 C141.4,406.6 141.8,405.2 142.7,405.1 C143.5,405.1 143.9,405.4 144,406 C144.1,406.7 143.6,407.9 142.6,409.6 C136,420.8 147.8,439 153.6,452 C157.4,460.5 160.8,469.3 162,477.4 C162,478 162.7,479.4 164.2,478.4 C161.7,463.4 154.2,448.9 147.7,434.9 C142.1,424 140.1,414.4 147.5,405.4 C148.1,404.8 149.5,404.9 149.6,405.8 C149.7,406.4 149.2,407.6 148,410 C141.5,423.6 151.6,434.7 156.3,447.7 C160.9,458.6 165.2,467.7 167,479.3 C168.3,479.8 169,480.4 169.1,478.8 C165.7,462.4 158.4,447.7 152.1,433.5 C149.2,427.3 148.1,424.4 147.9,420.3 C147.6,414.6 150.5,407.5 153.1,405.6 C153.8,405.1 154.2,405 154.8,405.3 C155.6,405.8 155.5,406.1 153.8,409.2 C150.7,415.1 150.4,421.8 153.3,428.9 C158.3,439.7 162.6,448.6 165.6,456.6 C168.9,465.3 170.7,472.9 171.5,479.7 C171.5,479.7 173.7,480.7 173.4,479.2 C172,469.7 168.8,459.7 165.4,451.4 C162.2,443.5 158.1,435.9 154.9,428 C150.9,418.6 154.2,408.3 162.4,403.2 L166.2,403.3 C166,403.2 157.7,406.5 157.2,418.4 C156.8,429.7 162.2,436.7 166,446.2 C170.7,457.8 175,467.9 176,480.2 C176.4,480.6 178.4,480.7 178.4,480.5 C177.4,472.2 175,464.3 171.5,454.6 C167.8,444.3 164.1,439.7 160.7,428.9 C158.4,421.6 158.7,411.6 163.9,407.1 C171.6,399.3 182.4,404.9 179.7,413.8 C177.6,420.1 169,418.8 169,413 C169,409.2 173.7,408.2 175.2,411 C175.6,411.6 175.8,414 176,414.1 C176.2,414.2 176.6,412.2 176.6,411.7 C176.6,408.6 172.4,406 169.2,407.5 C164.9,409.7 162.1,414.6 162.3,421.3 C162.6,428.4 163.9,433 169.7,444.1 C176.5,457.1 178.7,471.1 180.2,480.5 C180.8,480.2 181.6,480.6 181.8,480.5 C180.8,467.6 176.6,454.4 171.3,443.4 C164.9,430.1 163.1,421.9 165.2,415.9 C165.5,415 165.8,414.4 166.2,414.3 C166.9,414.2 167.1,415.3 167.8,417.7 C168,418.4 167.7,419.6 167.6,420.5 C167,426 170.9,437.3 174.5,442.4 C175.5,443.8 176.9,443.8 175.7,441.2 C172,434.6 169.8,428.6 169.5,420.6 C169.4,418.2 172.2,419.3 172.2,420.5 C172.4,424.3 172.8,428.9 174.6,432.1 C178.3,438.5 180.4,438.7 176.6,431.6 C175.7,429.9 173.3,423 174.3,420.6 C174.8,420.1 175.5,420 175.8,420.5 C176.9,424.4 178.4,428.3 181,431.4 C182.4,433 182.6,432.3 181.9,430.3 C180.7,428 176.9,420.4 178.6,418.7 C179.2,418.2 178.8,418.5 180.4,421 C182.5,424.5 183.7,425.9 184.7,426.9 C186.1,428.3 186.4,427.3 185,425 C182.1,420.3 180.5,416.3 181.5,415.3 C182.5,414.3 182.7,414.8 185,418.6 C186,420.3 187.5,422.8 188,423.4 C188.5,424 188.9,424.1 188.9,423.6 C188.4,419 184.4,413.7 182.8,412.8 C182.6,412.4 182.7,408.7 182.7,408.7 C188.7,411.8 188.9,415.2 192.9,420.6 C193.3,421 193.9,420.5 193.7,419.8 C193.6,418.8 191.2,414.4 189.7,412.4 C188.5,410.9 188.5,410 189.5,409.5 C191.1,408.8 193.3,411.1 195.7,415.3 C196.8,417.3 198.3,418.4 198.3,417.4 C198.3,416.8 196.3,411.8 194.9,410.4 C192.6,408 193.7,406.3 196.4,408.5 C197.6,409.5 199.3,410.3 201,414 C202,416.2 202.9,416.4 202.9,414.7 C202.9,412.8 199.6,408 197.4,406.7 C195.7,405.7 194.7,404.6 195.2,403.8 C196.7,401.6 202.7,407.2 204.8,412.4 C205.4,413.9 206.5,414.7 206.7,414 C207.2,413.7 206,409.9 204.7,408.2 C202.6,404.3 197.7,400.4 194.9,400.9 C194.3,401 192.8,397.8 192.8,397.8 C200.2,396.6 207.4,405.4 208.6,408.7 C211,414.9 212.3,414.2 210.1,408.7 C206,398 193.1,392 186,397.2 C181.9,400.2 184.4,407.2 188.5,406 C190.2,405.4 191.8,403.7 188.9,404.2 C185.6,404.5 184.6,399.6 187.9,398.6 C193.2,397 194.4,405.5 190.1,407.3 C185.6,409.2 181.2,406.4 181.6,401.5 C182.4,392.3 193.8,389.6 205,397.1 C208.2,399.2 212.1,406 213.4,410.4 C213.8,411.8 215.3,412.3 215.5,412.2 C215.9,411.8 212.4,404.2 211.2,402.2 C206.3,391 188.6,390.5 188.6,391.1 C188.6,391.1 181.7,395.4 175.5,402.6 L159.7,401.2 C200,336.8 203.2,242.1 161.8,175.1 C162.3,175.4 169.7,177.3 172.3,175.3 C174.2,174.4 174.7,174.1 176.8,174.8 C179.1,175.6 181.6,174.9 184.2,172.6 C186.1,170.8 186.2,170.3 187.4,170.5 C191.1,171 193.5,168.8 194.3,163.6 C194.6,161.5 194.8,159.4 194.5,159.7 C194.3,159.9 193.9,161.7 193.6,162.8 C192.9,165.9 192.2,167 191,168 C189,169.7 187.9,168.7 188.7,166.2 C189.5,164.6 190.1,160.4 189.1,158.5 C188.9,158.2 188.9,159.5 188.6,160.5 C186.4,168.8 184.1,172.9 180.2,173.9 C178.3,174.4 177.5,174.1 178.1,173 C185.1,165.6 184.6,157.4 184.1,158.1 C182.6,162.8 179.9,169.9 175.4,172.8 C171.5,175.3 165.8,175.5 162.6,173.4 C160.8,172.2 163.5,171.9 167.6,171.8 C174.5,171.7 180.9,162.6 179.8,154.9 C179.5,153.5 179.2,155 178.6,157.3 C176.1,165.6 171.7,171.5 161.8,169.8 C161,169.7 160.5,169.2 160.1,168.9 C158.5,167.8 159.1,167 162.3,167.4 C169.5,168.3 175.7,161.6 175.7,153.5 C175.7,149.6 175.1,149.7 174.5,152.6 C173.6,156.7 170.4,169.2 158.8,165.1 C156.7,164 155.6,162.5 156.3,162.3 C163.1,163.7 169.3,162.2 171.7,153.3 C172.7,149.5 172.5,145.7 171.4,142.6 C171.1,140.5 170.3,138.9 170.1,136.7 C169.5,130.9 168.5,124.5 168.8,118.2 C169.4,117.7 169.5,117.8 171.4,119.1 C175.2,121.6 178.1,121 182,119.6 C187,117.8 186.6,118.1 181.3,124 C180.2,125.2 179.1,126.7 179,127 C177.7,129.5 180.2,127.7 182,125.3 C184.6,122 185.1,121.3 185.7,121.3 C185.9,124.8 184.6,129.1 183.9,132 C183,135.2 183,135.9 185.1,136.8 C186,137.2 187.7,137.9 188.6,138.3 C192.9,140.3 192.5,138.7 189.1,136.8 C184.5,134.2 184.4,134.3 185.8,130 C187.3,124.9 188.1,120.6 188.9,115.6 C191,103.2 181.6,96.4 169.1,100.7 C168.4,101.1 167.6,94.2 167.7,92.4 C167.8,91.7 165.8,91.9 164.2,89.9 C164.7,89.5 145.8,65.9 137,51.6 C187.2,51.6 236.7,50.8 286.1,50.8 L286.1,50.8 Z M255.5,95.1 C255.6,95.2 255.7,95.2 255.7,95.2 C255.6,95.1 255.5,95.1 255.5,95.1 L255.5,95.1 Z M298.2,51.9 L351.1,51.9 L351.9,165.8 L347.2,165.9 C347.2,165.9 338.4,150.8 336.1,143.6 C335.5,141.8 334.5,139.4 334.1,138.4 C333.2,136.2 332.6,135.9 333.8,134.6 C336.2,131.9 335.7,126.5 333.4,123.9 C332.7,123.1 332.3,123.3 332.3,121.3 C332.3,119.5 332.5,118.4 332,117.5 C331.2,116 330.7,115.9 331.8,114.2 C333,112.4 334.5,109.6 335.2,107.4 C336.3,103.8 335.5,103.1 337.9,104 C343.8,105.9 348.8,101.7 348.7,95.7 C348.6,90.7 343.9,86.2 338.4,87.6 C337.1,87.9 336.9,87.8 334.9,86.6 C334.3,86.2 333.5,85.5 332.8,85.2 C331.9,84.9 331.1,84.9 330.8,84.2 C330.1,82.9 327.8,80.9 325,81.1 C323.3,81.2 321.1,80.6 320.5,80.3 C319.5,79.8 316.8,80.2 313.3,79.7 C311.8,79.5 310.5,80.1 309.8,80.1 C307.7,80.1 308.5,79.9 308.1,78.2 C305.4,69.7 297.6,70.8 294,77.1 C292.7,79.6 291.7,83.3 291.2,87.1 L270.1,86.8 L298.2,51.9 Z M134.7,52.2 C142.6,62.2 150.1,73.4 158.1,83.6 C167.9,96 168.2,97.4 165.6,109.8 C164.1,116.8 163.5,118.5 160.5,117.9 C157.7,117.4 155.3,119.6 154.9,122.4 C154.2,127.6 159.2,130.8 164.3,128.2 C167,126.8 167.1,126.7 166.2,131.2 C164.9,137.7 162.4,143.3 160.7,143.1 C156.5,134.1 146.1,140.5 149.6,149.8 C148.5,151.4 149.9,153.5 150.5,155.2 C150.5,155.2 150.5,155.4 144.6,157.3 C115.6,165.8 79.8,188.1 60.2,209 L58.9,52.6 L134.7,52.2 Z M300.9,73.6 C302.1,73.6 303.3,74 304.2,74.8 C306.7,77.1 306.1,80.2 302.6,86.2 C298.9,94.5 299.9,101 300.8,109.7 C300.8,114.8 299.1,119.5 296.3,121.6 C291.9,125 286.4,120.5 288.7,115.9 C289.9,113.6 292.4,115 293,112.8 C293.2,111.5 293.2,109.5 293.3,108.5 C292.8,104.7 291.7,93.1 291.7,89 C291.7,85.5 292.9,81.2 294.5,77.9 C296.1,75.2 298.6,73.6 300.9,73.6 L300.9,73.6 Z M307.9,87.1 C306.9,87.9 305.2,87.9 305,86.9 C305,85.8 305.9,82.3 306.5,82 C310.1,81.1 308.9,86.2 307.9,87.1 L307.9,87.1 Z M313.3,81.6 C316.3,81.5 318.3,89.1 315.7,93.6 C315.2,93.7 311.6,93.7 311.6,93.7 C311.5,92.9 311.8,91.3 312,89.8 C312.2,88.5 312.4,87.5 312,86.1 C310.9,82.7 310.3,82 313.3,81.6 L313.3,81.6 Z M319,81.8 C319.1,81.8 319.2,81.8 319.3,81.8 C322.3,81.8 324.1,87.7 323.1,94.1 C323,95 322.9,96 322.5,96.2 C321.2,95.9 317.7,97.1 317.6,97.1 C317.3,96.8 317.4,94.9 317.9,93.3 C318.7,90.3 319,88.3 318,85.1 C317.4,82.3 317.3,81.8 319,81.8 L319,81.8 Z M326.5,83.4 C329.8,84 330.1,93.2 328.7,96.2 C328.4,96.6 327.1,96.5 326.7,96.7 C323.9,97.5 324.5,97.9 324.8,93.4 C325,90.3 325.1,87.9 324.6,85.3 C324.4,84.2 324.3,83.4 325.1,83.3 C325.6,83.3 326.1,83.3 326.5,83.4 L326.5,83.4 Z M309.9,87 C311.2,88.8 310.2,93 309.1,94.6 C307.9,96.3 307.5,96.5 308.1,97.2 C308.4,97.5 308.9,99.2 308.6,99.8 C308,101.1 309.6,101.3 311.1,102.1 C313.5,103.4 314.7,105.7 316.5,109.9 C317.1,111.4 318.4,110.9 317.8,109.3 C317.3,107.9 317.1,106 316.7,104.6 C316.3,103.2 316.7,102.6 318.3,103 C320.7,103.6 320.3,103 321.2,102.7 C323.1,101.6 324.4,103.1 323.2,104 C322.5,104.5 321.1,104.8 319.6,105.2 C318.3,105.6 318.6,106.8 319.9,106.8 C321.1,106.8 324.7,105.8 327,105.1 C333.6,103.1 333.8,102 333.2,105.8 C332.4,110.8 329.7,114.5 325.2,115.7 C321.3,116.8 312.3,116.6 308.3,115.3 C304.5,113.6 304.2,112.4 303.1,109 C301.5,104.4 300.6,96.7 302.4,92.2 C304,88.4 303.8,88.8 305.4,89 C306.8,89.5 308.6,88.9 309,88.1 C309.1,87.8 309.7,87 309.9,87 L309.9,87 Z M335.2,89.8 C335.6,91.8 335.6,93.9 334.9,95.5 C334.5,96.2 332.2,96.2 331.3,96.2 C330.8,96.3 330.8,89.3 331.4,88.5 C332.7,86.5 334.4,88.2 335.2,89.8 L335.2,89.8 Z M268.2,88.6 L274.7,88.7 L274.7,90.3 L267,90.2 L268.2,88.6 Z M291.1,88.8 L291.1,90.9 L281.3,90.9 L281.3,103.8 L292.3,103.8 L292.4,106.5 L277.7,106.4 L277.7,88.8 L291.1,88.8 Z M341.1,88.4 C351.2,90.6 346.7,101.8 342.9,102.4 C338.2,103.2 334.2,102.7 335.5,98.6 C336.8,95.8 335.9,92.3 336.3,89.7 C337.2,88.9 339.6,88.1 341.1,88.4 L341.1,88.4 Z M265,92.3 L274.7,92.4 L274.7,94.5 L263.6,94.5 L265,92.3 Z M286.6,94.3 C288.1,94.3 289.4,95.6 289.4,97.1 C289.4,98.6 288.1,99.9 286.6,99.9 C285,99.9 283.8,98.6 283.8,97.1 C283.8,95.6 285.1,94.3 286.6,94.3 L286.6,94.3 Z M314,95.4 C315.8,95.6 316,98.4 315.2,99.2 C314.3,100.1 312.5,99.7 311.9,98.3 C311.5,97 312.6,95.4 314,95.4 L314,95.4 Z M262.3,96.6 L274.7,96.6 L274.7,98.3 L262.2,98.4 L261.9,97.3 L262.3,96.6 Z M332.2,97.4 C333.9,97.4 335,98.8 333.9,100 C332.3,101.8 329,99.1 332.2,97.4 L332.2,97.4 Z M199.9,101.1 C197.1,103.4 199.3,105.7 203,103.5 C210.9,98.7 222.7,102.5 230.3,106.5 C231.8,107.3 232,105.5 230.5,104.3 C223.5,98.1 208.5,94.5 199.9,101.1 L199.9,101.1 Z M320.2,97.9 C322.1,97.9 322.1,100.3 320.9,101.2 C319.7,101.7 319.4,101.6 318.6,101.3 C317.5,100.8 318.3,97.9 320.2,97.9 L320.2,97.9 Z M327.1,97.9 C329.4,98 329.1,102.6 325.7,101 C324.4,99.6 325.2,97.9 327.1,97.9 L327.1,97.9 Z M262.9,100.3 L275,100.4 L275,102.4 L263.7,102.3 L262.9,100.3 Z M184.9,104.9 C188.2,107.5 187.2,107.7 181.7,105.7 C178.1,104.9 174.6,105.4 172.3,106.3 C169.7,107.3 169,107 170.2,105.3 C173.3,101.9 181.8,102.6 184.9,104.9 L184.9,104.9 Z M200.8,109.3 C200.5,110.1 199.3,108.6 197.8,108.9 C195.6,109.3 196.2,109.4 198.6,112 C200.9,114.6 201.7,115.2 201.5,116.3 C201.3,117.8 201.7,118.6 203.2,118.4 C203.9,118.3 204.8,119.1 205.9,120.1 C209.7,123.5 211.6,125.2 212.8,125.8 C217.8,128 215.5,125.5 212.3,123.3 C207,119.6 205.1,117.2 208.9,118.5 C212.9,119.9 219.3,119.1 222.5,117.2 C224.1,116.3 225,114.8 227.2,115.5 C230.3,116.5 231.5,114.7 230.6,113.7 C229.2,112.8 226,111.7 223,109.7 C216.5,106.4 209.7,106.5 205.2,109.2 C202.5,110.8 201.6,109.7 204.2,108.1 C214.7,102.4 223,107.9 229.7,111.9 C230.9,112.6 231.7,112.6 231.7,112.1 C231.5,110.5 228.5,109.4 227.3,108.7 C217.9,103 208.1,101.2 200.8,109.3 L200.8,109.3 Z M264.5,104.3 L275,104.3 L275,106.4 L265.3,106.4 L264.5,104.3 Z M179.1,106.9 C182,106.9 188.3,109.5 188.2,111.7 C188.1,112.5 186.5,111.8 185.1,110.9 C182.4,109.3 178.4,108.8 174.5,109.6 C171.6,110.1 170.6,110.6 170.2,110.3 C169.3,107.9 176.4,106.9 179.1,106.9 L179.1,106.9 Z M292.6,108.4 L292.6,112.1 C286.9,112.5 285.7,118.8 289.4,122.4 C292.4,125.3 297.4,124.1 299.8,120.1 C300.2,119.4 300.3,118.9 300.6,119.3 C300.8,119.5 300.9,120.2 301,120.9 C301.4,122.8 300.8,123.3 299.5,125 C297.4,127.7 297.1,131.1 298.4,133.6 C298.8,134.3 299.5,135.3 299.4,135.7 C300.1,135.7 292.9,155.8 282.4,166 C280.6,167.2 279.4,165.8 280.3,163.9 C288.9,144.3 272.5,126.2 266.1,108.7 L292.6,108.4 L292.6,108.4 Z M216.5,111.8 L218,111.9 C216.8,120.9 208,119.5 207.7,112.1 L209,112.1 C210.6,118.9 216.5,116.2 216.5,111.8 L216.5,111.8 Z M167.1,112 C167.1,112 167.7,113 167.7,113.6 C167.7,115.7 167.7,118.7 167.6,119.6 C167.1,128.3 156.1,129.9 156.9,122.5 C157.6,119.3 161.5,119 162.5,121.8 C163.9,125.4 164.2,120.9 164.2,119.5 C165.4,117.4 166.2,114.7 167.1,112 L167.1,112 Z M220.1,112.6 C220.6,112.6 221.4,113 222,113.7 C222.7,114.5 222.5,114.9 220.8,115.7 C219,116.6 218.1,116.6 218.8,114.7 C219.1,113.5 219.5,112.6 220.1,112.6 L220.1,112.6 Z M302.4,113.1 C302.6,113.1 303.3,113.4 303.1,114.4 C302.9,116 301.5,116.9 301.1,116.5 C301.4,115.6 301.7,113.4 302.4,113.1 L302.4,113.1 Z M206.9,116.1 C206.7,116.7 206.3,116.5 205.3,115.6 C204.2,114.7 204.3,114.1 205.4,113.5 C207,112.6 207.1,115.5 206.9,116.1 L206.9,116.1 Z M173.6,113.8 C175.4,119.6 179.2,118.9 180.9,114.1 L182.5,114.1 C182.1,121.6 172.7,121.4 172.6,114.2 L173.6,113.8 Z M170.3,114.5 C170.9,114.4 170.5,116.4 170.5,116.4 C170.5,116.4 168.9,115.6 169.9,114.7 C169.9,114.6 170.2,114.5 170.3,114.5 L170.3,114.5 Z M184.2,115 C184.4,115 184.8,115.1 185.1,115.4 C186,116 185.9,116.4 184.8,117.2 C183.2,118.5 182.5,117.8 183.3,116 C183.7,115.3 183.9,115 184.2,115 L184.2,115 Z M305,116.2 C305.7,116.2 306.6,116.5 308.7,117 C314.3,118.5 321.8,118.4 328.2,116.7 C330.2,116.1 331.7,119.7 330.6,122.2 C330.1,123.3 330.2,123.5 331.7,125 C333.8,127.2 334.1,130.6 332.5,133.8 C331.4,136.1 331.4,135.9 332.8,139.9 C333.4,141.7 334.2,143.5 334.4,144 C336.1,149.8 340.4,156.7 343,162.4 C345.6,166.4 338.4,162.4 338.4,162.4 C338.4,162.4 340.3,165 342.9,167 C345.4,168.9 350.3,167.6 352.6,169.9 C353.1,170.6 352.1,186 351.6,186.5 C329.3,185.5 292.2,186.3 292.2,186.3 L299.2,197.1 C310.1,201.5 320.6,200.4 330.6,194.1 C330.3,195 342.8,201.1 353,201.7 L353.1,209 C345.5,208.2 337.9,208 330.8,203.6 C330.8,203.6 324.3,206.3 317.9,208.3 L354.2,245.8 L354.2,252.1 C354.2,252.1 338.7,237.6 322.8,221.4 L323.1,301.5 L354.5,302.1 C353.5,322.9 353.9,336.2 354.1,360.1 C339.3,375.3 318.9,390.5 300,399.7 C291.1,391.1 283.8,381.8 277.3,371.9 C277.2,371.7 278,371.3 277.8,371.1 C277.6,370.8 276.5,370.7 276.3,370.4 C272.4,364.6 263.3,348.4 264.7,348 C267.5,348.2 280.4,346.6 283,338.9 C283,338.4 282.7,337 283.1,335.4 C284,331.2 284.5,324.8 282.9,320.8 C280.1,313.5 288.5,315.8 288.8,316.3 L288.8,288.7 C277.9,297.4 267,306 252.4,309.6 C243.4,264 257.7,207.4 298.6,169 L296.4,168.8 C254.4,212.2 243.4,260 250.6,310.3 C250.6,310.3 250.9,311.9 250.9,312.4 C251,313.7 250.7,314.1 249.6,315 C248.5,315.7 247.6,316.4 247.7,317.3 C247.9,318.9 246.3,319 244.3,319 C243.4,318.2 242.1,319.2 241.4,319.6 C240.3,319.8 239.8,315.5 238.5,318.6 C238,320.6 237,320.7 234.8,319.8 C233.4,319.4 233.4,320.1 234.7,321.7 C236.6,323.7 238.2,326.7 237.9,327.6 C237.2,329.6 237.5,331.7 240.4,332.8 C240.2,332.8 238.7,339 243.1,338.8 C244.5,338.8 248.1,339.5 248.1,339.5 C248.3,340.7 248,341.3 247.4,341.9 L244.3,340.4 L243.5,344.1 L239.4,343.8 L249.4,356.2 L250.6,346.6 L262.3,348.1 C264.2,353 276,380.1 298.6,400.3 C298.6,400.3 286.3,405.7 282.8,407.4 L280.7,399.7 L278.8,402.5 L275.3,401.6 L274.9,404.8 L271.8,405.8 L277.2,409.9 L263.4,414.1 C224,350.5 206.2,262.2 255.2,168.8 L267.6,169 L265.2,173.1 L268.7,172.5 L269.7,175.5 L272.3,174.3 L274.9,177.6 L277.9,168.9 C277.9,168.9 286.7,169.1 287.8,169 C288.7,168.9 306.4,154 306,153.5 C305.7,153.1 286.7,167 286.1,166.5 C286.1,166.5 284.2,167 285.7,165.2 C288.4,162 290.2,159.6 293,155 C297.5,148.9 299.5,141.5 300.5,136.4 C300.5,136 300.6,135.2 300.3,134.7 C298.6,131.3 299,129.1 302,125.1 C303.1,123.7 303.1,123.4 302.8,122.5 C302.1,120.6 302.8,118.9 304.2,117.6 C304.1,116.5 304.5,116.3 305,116.2 L305,116.2 Z M200.5,129.8 C208.3,133 202,140.1 196.3,133.9 C193.3,130.7 190.9,130.9 189.2,133.2 C188.5,134.3 189.5,136.1 190.5,135.5 C191.4,134.9 192.3,134.3 193.6,135.5 C203.4,144.6 210.5,131.9 202,128.7 C201,128.3 199.5,129.3 200.5,129.8 L200.5,129.8 Z M168.4,129.5 C168.5,129.5 168.6,129.5 168.7,129.6 C169.1,129.8 169.1,133 168.7,134.4 C167.5,141.2 162.6,157.1 152.6,149.3 C148.6,146.2 152.2,138.5 157,141.1 C160.7,143.2 158.2,148.1 154.2,145.2 C152.2,143.8 152.9,146.7 154.5,147.5 C157.3,149 162.3,146.5 164.7,142 C165.7,140.2 166.5,137.1 167.5,132.6 C168.1,130.3 168.1,129.5 168.4,129.5 L168.4,129.5 Z M169.3,141.3 C170.1,146.2 166.4,154.9 161,156.1 C156.9,157.1 151.8,154.4 152.2,151.9 C152.3,151.2 152.6,152.1 156.3,152.7 C161.5,153.6 164.8,150.8 167.8,144.3 C168.7,142.4 169.1,141.3 169.3,141.3 L169.3,141.3 Z M182.2,143.6 C182.2,144.2 181.9,145.6 181.7,146.6 C181.1,148.9 180.8,149.8 183.3,148.6 C185,147.8 187.4,147.1 190,148.5 C192.8,150.1 195.5,149.8 198.7,148.4 C201.6,147.4 202.9,147.4 204.5,148.4 C207.4,150.1 206.4,149 206,144.8 C205.7,141.8 204.9,142.2 203.9,143.3 C203.2,144 201.8,144.2 200.3,143.4 C198.5,142.4 195.9,142.9 195,143.6 C194.1,144.3 192.9,144.4 191.2,143.3 C190.1,142.6 189.5,142.9 188.1,143.6 C185.8,144.6 185,144.1 183.7,143.1 C182.7,142.2 182.2,142.4 182.2,143.6 L182.2,143.6 Z M171,147.2 C171.3,147.2 171.3,148.3 171.1,150.6 C170.2,159.1 163.5,163.8 155.7,159.7 C152.3,157.8 152.7,156.4 156.1,157.6 C161.5,159.5 166.9,156.8 169.5,149.9 C170.2,148.1 170.7,147.2 171,147.2 L171,147.2 Z M190,153.2 C193.9,154.8 198.1,154.3 199.2,152.9 C200.4,151.3 198.5,151.6 197.6,151.8 C194.2,152.6 191.9,152.3 190.5,151.7 C186.5,150.2 186.8,151.8 190,153.2 L190,153.2 Z M149.7,158 C154.7,164.1 155.4,165.3 159.7,172.3 C191.2,225.7 201.3,293.3 180.6,354.6 C174.9,371.5 166.9,388.8 157.9,402.6 L147.1,402.7 L150.8,398.5 L145.8,398.9 L145.5,396.1 L141.7,397.3 L139.9,393.1 L136.5,402.7 L116.5,402.7 C163.3,357.2 172.5,302.1 163.8,257.9 C163.8,257.9 167.7,255.5 168.3,254 C168.4,253.6 168.7,252.2 169,251.9 C170.7,250.8 171.9,249.7 172.8,249.9 C173.3,250 173.5,250.3 173.9,250.8 C175.6,253.2 175.9,253.6 176.8,251.2 C177.4,249.4 177.2,248.8 179.3,249.1 C180.5,249.8 182.2,249.7 182,249.5 C181.9,249.3 180.1,247.2 179.3,246.1 C177.3,243.3 176.8,242.8 176.9,241.6 C177.2,239.7 175.7,237.7 174.8,237.2 C175.1,232.2 173.2,231.7 167.7,230.6 C167.7,229.7 167.8,229 168.2,228.3 L171.4,230.8 L172.6,226.1 L176.9,226.3 L164.3,214.1 C164.4,217.5 164.5,221 164.2,224.3 C158.3,224 152.5,222.1 152.4,222.4 C143.8,202 130.6,184.8 116.7,171.4 L130.6,164.7 L134.5,172.2 L135.5,167.9 L138.9,168.5 L139.5,165.8 L143.3,165.3 L139.1,161.3 L149.7,158 Z M232.5,166.7 C233,167.4 233.5,167.4 234.2,168 L232.8,169 C232.8,168.1 232.7,167.6 232.5,166.7 L232.5,166.7 Z M140,169.2 C138.8,169.2 137.9,170.2 137.9,171.3 C137.9,172.5 138.9,173.4 140,173.4 C141.2,173.4 142.1,172.4 142.1,171.3 C142.2,170.2 141.2,169.2 140,169.2 L140,169.2 Z M151.6,169.6 C150.4,169.6 149.5,170.6 149.5,171.7 C149.5,172.9 150.5,173.8 151.6,173.8 C152.8,173.8 153.7,172.8 153.7,171.7 C153.8,170.5 152.8,169.6 151.6,169.6 L151.6,169.6 Z M114.3,171.1 C121.2,176.8 127.5,184.3 135.2,195.9 L135,197.5 L137.3,198.4 C137.3,198.4 150.1,215.2 149.4,222.7 C145,223.6 141.6,222 133.8,229.3 L128.8,228.2 L123.5,229.5 C123.5,229.5 123.6,231.2 124.9,231.7 C125.5,231.9 126.4,229.6 127,229.7 C129.6,230 132.2,230 131.7,230.8 C131.2,231 129.8,247.7 132.5,251.3 C134,254.9 132.9,254.9 131.6,255.6 C130.1,256.6 125.5,254.5 125.5,254.5 L126.6,281 C138.7,267.2 164.4,257.9 162.6,258.9 C175.5,326.9 144.9,372.2 112.8,405.4 L129.6,405.5 C129.6,405.5 115.1,428.7 114.1,435.1 C114.9,437.2 117.2,441.7 113.4,444.8 C112.1,446.2 112,452.7 112,452.7 C103.2,453 95.5,449.9 85.4,453.5 C84.3,453.9 84.1,448 84.1,446.9 C81,444 80.5,438 83.2,434.9 C84.2,433.8 83.8,434.4 82.9,430.5 C81.6,424.4 77.1,415.9 73.7,410.5 C72.6,408.7 71.5,406.7 71.2,406 C68.8,403.1 62.4,404.4 61.6,403.7 C60.9,403.1 60.4,387.4 61.1,387 C86.3,389 125.6,386.7 125.6,386.7 L115,371.9 C102,366.8 84.1,375.5 85,375.9 C85,375.9 70.7,368.1 60.8,369.2 L61.1,361.5 C69.9,361.5 78.1,363.1 85.2,367.3 L97.3,362.8 L60.3,324 L60.7,317.6 C60.7,317.6 70.2,327.7 80.5,338.6 C89.3,347.9 92.6,349.4 92.6,349.4 L92.6,268.8 L60.8,268.7 L59.9,252.2 L59.1,250.8 L58.7,239 L59.6,237.8 L59.3,232.7 L59,232 L58.6,219.9 L59.3,218.9 L59.4,211.3 C74.6,196.5 114.3,171.1 114.3,171.1 L114.3,171.1 Z M141.5,173.4 L145.2,189.7 L147.7,186.6 L151.5,187.8 L151.8,184.1 L155.3,182.9 L141.5,173.4 Z M268,176.1 C266.8,176.1 265.9,177.1 265.9,178.2 C265.9,179.4 266.9,180.3 268,180.3 C269.1,180.3 270.1,179.3 270.1,178.2 C270.2,177.1 269.2,176.1 268,176.1 L268,176.1 Z M258,177.5 C256.8,177.5 255.9,178.5 255.9,179.6 C255.9,180.8 256.9,181.7 258,181.7 C259.1,181.7 260.1,180.7 260.1,179.6 C260.2,178.4 259.2,177.5 258,177.5 L258,177.5 Z M135.3,179.4 C134.1,179.4 133.2,180.4 133.2,181.5 C133.2,182.7 134.2,183.6 135.3,183.6 C136.5,183.6 137.4,182.6 137.4,181.5 C137.5,180.3 136.5,179.4 135.3,179.4 L135.3,179.4 Z M265.7,180.7 L250.8,194.7 L255,194.5 L255.7,198.6 L259.4,196.9 L262.4,199.7 L265.7,180.7 Z M272,185.4 C270.8,185.4 269.9,186.4 269.9,187.5 C269.9,188.7 270.9,189.6 272,189.6 C273.1,189.6 274.1,188.6 274.1,187.5 C274.2,186.3 273.2,185.4 272,185.4 L272,185.4 Z M153.6,188.1 C152.4,188.1 151.5,189.1 151.5,190.2 C151.5,191.4 152.5,192.3 153.6,192.3 C154.8,192.3 155.7,191.3 155.7,190.2 C155.7,189.1 154.8,188.1 153.6,188.1 L153.6,188.1 Z M162.8,189.9 C161.6,189.9 160.7,190.9 160.7,192 C160.7,193.2 161.7,194.1 162.8,194.1 C164,194.1 164.9,193.1 164.9,192 C165,190.9 164,189.9 162.8,189.9 L162.8,189.9 Z M154.4,193.1 C154.8,198.8 155.5,205.6 155.6,211.3 L158.4,208.5 L161.7,209.8 L162.9,206.3 L166.4,206.1 L154.4,193.1 Z M246.2,197.9 C245,197.9 244.1,198.9 244.1,200 C244.1,201.2 245.1,202.1 246.2,202.1 C247.3,202.1 248.3,201.1 248.3,200 C248.3,198.8 247.3,197.9 246.2,197.9 L246.2,197.9 Z M148.3,198.3 C147.1,198.3 146.2,199.3 146.2,200.4 C146.2,201.6 147.2,202.5 148.3,202.5 C149.5,202.5 150.4,201.5 150.4,200.4 C150.4,199.2 149.5,198.3 148.3,198.3 L148.3,198.3 Z M254.6,198.8 C253.4,198.8 252.5,199.8 252.5,200.9 C252.5,202.1 253.6,203 254.6,203 C255.6,203 256.7,202 256.7,200.9 C256.8,199.7 255.8,198.8 254.6,198.8 L254.6,198.8 Z M253.4,203.4 L241,216.1 L245,216.5 L246.3,220.1 L248.9,217.9 L252,220.2 L253.4,203.4 Z M260.1,206.1 C258.9,206.1 258,207.1 258,208.2 C258,209.4 259,210.3 260.1,210.3 C261.3,210.3 262.2,209.3 262.2,208.2 C262.3,207.1 261.3,206.1 260.1,206.1 L260.1,206.1 Z M162.8,210.1 C161.6,210.1 160.7,211.1 160.7,212.2 C160.7,213.4 161.7,214.3 162.8,214.3 C164,214.3 164.9,213.2 164.9,212.2 C164.9,211.2 164,210.1 162.8,210.1 L162.8,210.1 Z M110.3,211.4 L106.3,214.5 L107.3,214.3 C107.3,214.3 109.7,217.1 109.7,217.3 C109.7,217.5 111.2,217.2 111.2,217.2 L110.3,211.4 Z M172.9,213.3 C171.7,213.3 170.8,214.3 170.8,215.4 C170.8,216.6 171.8,217.5 172.9,217.5 C174.1,217.5 175,216.5 175,215.4 C175.1,214.2 174.1,213.3 172.9,213.3 L172.9,213.3 Z M157.6,216.3 C156.4,216.3 155.5,217.3 155.5,218.4 C155.5,219.6 156.5,220.5 157.6,220.5 C158.8,220.5 159.7,219.5 159.7,218.4 C159.7,217.3 158.8,216.3 157.6,216.3 L157.6,216.3 Z M246,220.6 C244.8,220.6 243.9,221.6 243.9,222.7 C243.9,223.9 244.9,224.8 246,224.8 C247.1,224.8 248.1,223.8 248.1,222.7 C248.1,221.6 247.2,220.6 246,220.6 L246,220.6 Z M237.6,223.8 C236.4,223.8 235.5,224.8 235.5,225.9 C235.5,227.1 236.5,228 237.6,228 C238.8,228 239.7,227 239.7,225.9 C239.7,224.7 238.7,223.8 237.6,223.8 L237.6,223.8 Z M323.8,224.3 L328.3,229.1 L328.3,299.8 L324,299.9 L323.8,224.3 Z M150.6,224.8 C154.2,224.8 158.3,225.3 159.6,227.5 C161.6,230 157.3,229 153.8,229.6 C150.5,230 152.4,230.7 157.1,231 C163.5,231.4 166.1,231.5 167,233 C167.5,234.4 167.1,235.3 167.3,236.8 L160,236.5 C156.2,236.5 154,236.4 152.9,236.7 C152,236.9 152.3,237.6 152.6,238 C152.8,238.2 155.7,238.2 159.1,238.3 C168.2,238.5 170.3,238.8 170.9,241.8 C171.4,244.5 169.2,244.1 159.8,243.1 C155.6,242.8 153.4,243.7 152.8,244 C151.8,244.5 155.8,245 157.1,244.8 C157.9,244.7 164,245.3 166.2,245.7 C168.1,246 166.4,245.9 165.5,247.1 C164.9,248 165.1,249.1 164.1,249.7 C162.9,250.3 160.5,250.3 156.3,250.3 C151.4,250.3 149.2,251.5 155.8,251.8 C160.1,252 160.4,251.9 160.7,253.2 C161.7,256.3 159.6,256.8 155.2,257.5 C153.1,257.9 150,257.7 147.6,257.5 C138.3,256.8 135.1,254.6 133.8,250.5 C129.1,235.2 134.9,225.8 148.5,225.1 C149,224.8 149.8,224.8 150.6,224.8 L150.6,224.8 Z M244.8,225.5 L234.3,240.8 L238.4,239.2 L240.3,243.3 L243.5,241 L246.7,243 L244.8,225.5 Z M166.1,227.3 C166.6,228 166.4,228.5 165.5,229 C164.7,229.4 163.4,229.1 162.6,228.7 C161.5,228.2 161.4,226.2 162.3,226 C163.6,225.7 165.3,226.4 166.1,227.3 L166.1,227.3 Z M89.9,226.6 L84.1,232.1 L84.3,232.3 L91.9,229.3 L89.9,226.6 Z M251.4,228.9 C250.2,228.9 249.3,229.9 249.3,231 C249.3,232.2 250.3,233.1 251.4,233.1 C252.5,233.1 253.5,232.1 253.5,231 C253.5,229.9 252.6,228.9 251.4,228.9 L251.4,228.9 Z M329.8,230.8 C329.8,230.8 335.2,236.1 337.4,238.3 L335.4,238.3 L335.5,242.5 L341.8,242.6 L345.3,246 L335.6,246 L335.6,250.3 L347.6,250.3 L347.5,248.5 L352.2,252.8 L352.8,300.2 L329.9,300.1 C329.8,276.6 329.9,254.1 329.8,230.8 L329.8,230.8 Z M173,235.9 C172.7,236.9 171.9,236.9 170.7,236.4 C168.8,235.6 169.1,233.6 170.5,233.4 C173.1,233.1 173.6,234.3 173,235.9 L173,235.9 Z M180.2,236.8 C179,236.8 178.1,237.8 178.1,238.9 C178.1,240.1 179.1,241 180.2,241 C181.4,241 182.3,240 182.3,238.9 C182.3,237.7 181.4,236.8 180.2,236.8 L180.2,236.8 Z M172.6,238.4 C173.4,238.5 174.3,238.9 174.7,239.3 C175.9,240.5 175.4,241.6 174.1,242.3 C172.6,243.1 171.6,242 171.2,240.3 C171,239.2 171.7,238.5 172.6,238.4 L172.6,238.4 Z M239.8,244 C238.6,244 237.7,245 237.7,246.1 C237.7,247.3 238.7,248.2 239.8,248.2 C241,248.2 241.9,247.2 241.9,246.1 C242,245 241,244 239.8,244 L239.8,244 Z M169.1,246.6 C170.9,246.7 171.5,248.6 170.5,249.6 C169.1,251 167,250.4 166.7,249.1 C166.6,247.6 167.8,246.6 169.1,246.6 L169.1,246.6 Z M232.2,247.5 C231,247.5 230.1,248.5 230.1,249.6 C230.1,250.7 231.1,251.7 232.2,251.7 C233.3,251.7 234.3,250.7 234.3,249.6 C234.3,248.5 233.3,247.5 232.2,247.5 L232.2,247.5 Z M239.8,248.9 L230.2,265 L234.1,263.5 L236.4,266.6 L238.8,264.5 L242.5,266.3 L239.8,248.9 Z M164.6,251.6 C166.3,251.6 166.8,253 165.5,254.2 C164.7,255 163.7,255.1 162.7,254.3 C161.3,253.1 162.4,251.6 164.6,251.6 L164.6,251.6 Z M246.5,251.8 C245.3,251.8 244.4,252.8 244.4,253.9 C244.4,255.1 245.4,256 246.5,256 C247.6,256 248.6,255 248.6,253.9 C248.6,252.8 247.7,251.8 246.5,251.8 L246.5,251.8 Z M176.7,253.5 C175.5,253.5 174.6,254.5 174.6,255.6 C174.6,256.8 175.6,257.7 176.7,257.7 C177.9,257.7 178.8,256.7 178.8,255.6 C179,254.5 177.9,253.5 176.7,253.5 L176.7,253.5 Z M335.4,254 L335.4,258.5 L347.5,258.5 L347.5,254 L335.4,254 Z M176.9,258 L172.3,274.9 L176.2,272.7 L178.6,275.2 L180.8,272.4 L184.8,273.5 L176.9,258 Z M185.1,259.9 C183.9,259.9 183,260.9 183,262 C183,263.2 184,264.1 185.1,264.1 C186.3,264.1 187.2,263.1 187.2,262 C187.3,260.8 186.3,259.9 185.1,259.9 L185.1,259.9 Z M170,260.7 C168.8,260.7 167.9,261.7 167.9,262.8 C167.9,264 168.9,264.9 170,264.9 C171.2,264.9 172.1,263.9 172.1,262.8 C172.2,261.7 171.2,260.7 170,260.7 L170,260.7 Z M335.4,262 L335.4,266.1 L347.5,266.1 L347.5,262 L335.4,262 Z M236.1,267.4 C234.9,267.4 234,268.4 234,269.5 C234,270.7 235,271.6 236.1,271.6 C237.2,271.6 238.2,270.6 238.2,269.5 C238.2,268.3 237.3,267.4 236.1,267.4 L236.1,267.4 Z M335.4,269.7 L335.4,274.1 L347.5,274.1 L347.5,269.7 L335.4,269.7 Z M86.6,270.2 L90.8,270.3 L90.9,346.9 L86.8,342.5 L86.6,270.2 Z M84.8,270.3 L84.6,340.3 L76.6,331.8 L78.7,331.8 L78.7,327 L71.7,327 L68.7,324.1 L78.6,324.1 L78.6,319.4 L66.8,319.4 L66.8,322.2 L61,316 L61.1,270.3 L84.8,270.3 Z M236.4,272.5 L230,289.2 L234.1,286.9 L236.2,289 L238.4,287.1 L242.1,288.9 L236.4,272.5 Z M66.9,273.3 L66.8,277.8 L78.7,277.8 L78.7,273.3 L66.9,273.3 Z M243.7,274.2 C242.5,274.2 241.6,275.2 241.6,276.3 C241.6,277.5 242.6,278.4 243.7,278.4 C244.8,278.4 245.8,277.4 245.8,276.3 C245.9,275.1 244.9,274.2 243.7,274.2 L243.7,274.2 Z M229.1,274.4 C227.9,274.4 227,275.4 227,276.5 C227,277.7 228,278.6 229.1,278.6 C230.3,278.6 231.2,277.6 231.2,276.5 C231.3,275.4 230.3,274.4 229.1,274.4 L229.1,274.4 Z M178.8,275.2 C177.6,275.2 176.7,276.2 176.7,277.3 C176.7,278.5 177.7,279.4 178.8,279.4 C180,279.4 180.9,278.4 180.9,277.3 C180.9,276.2 180,275.2 178.8,275.2 L178.8,275.2 Z M335.4,276.9 L335.4,281.6 L347.5,281.6 L347.5,276.9 L335.4,276.9 Z M178.5,279.6 L176.7,282.4 L172.6,281 L178.2,297.9 L185.2,280.3 L181.2,282.6 L178.5,279.6 Z M66.9,280.8 L66.9,285.3 L78.7,285.3 L78.7,280.8 L66.9,280.8 Z M335.4,284.8 L335.4,289.5 L347.5,289.5 L347.5,284.8 L335.4,284.8 Z M66.9,288.7 L66.9,293.2 L78.7,293.2 L78.7,288.7 L66.9,288.7 Z M236.3,289.6 C235.1,289.6 234.2,290.6 234.2,291.7 C234.2,292.9 235.2,293.9 236.3,293.9 C237.5,293.9 238.4,292.9 238.4,291.7 C238.4,290.6 237.4,289.6 236.3,289.6 L236.3,289.6 Z M171.8,291.8 C170.6,291.8 169.7,292.8 169.7,294 C169.7,295.2 170.7,296.1 171.8,296.1 C173,296.1 173.9,295.1 173.9,294 C174,292.8 173,291.8 171.8,291.8 L171.8,291.8 Z M185.6,292.2 C184.4,292.2 183.5,293.2 183.5,294.3 C183.5,295.5 184.5,296.4 185.6,296.4 C186.8,296.4 187.7,295.4 187.7,294.3 C187.7,293.2 186.7,292.2 185.6,292.2 L185.6,292.2 Z M335.4,292.5 L335.4,296.7 L347.5,296.7 L347.5,292.5 L335.4,292.5 Z M236.2,294.5 L233.6,297.2 L229.9,296.2 L238.2,311.7 L242.4,295 L238.7,297.3 L236.2,294.5 Z M66.9,296.1 L66.9,301.2 L78.7,301.2 L78.7,296.1 L66.9,296.1 Z M178.6,298.4 C177.4,298.4 176.5,299.4 176.5,300.6 C176.5,301.8 177.5,302.7 178.6,302.7 C179.8,302.7 180.7,301.7 180.7,300.6 C180.7,299.3 179.8,298.4 178.6,298.4 L178.6,298.4 Z M178.5,302.8 C177.6,303.4 177.2,304.6 176.2,305.2 L172.3,303.5 L174.6,324.7 L185.5,304.7 L180.5,305.5 L178.5,302.8 Z M66.9,303.5 L66.9,308.8 L78.7,308.8 L78.7,303.5 L66.9,303.5 Z M244.6,306 C243.4,306 242.5,307 242.5,308.1 C242.5,309.3 243.5,310.3 244.6,310.3 C245.8,310.3 246.7,309.3 246.7,308.1 C246.8,306.9 245.8,306 244.6,306 L244.6,306 Z M230.7,306.2 C229.5,306.2 228.6,307.2 228.6,308.3 C228.6,309.5 229.6,310.5 230.7,310.5 C231.9,310.5 232.8,309.5 232.8,308.3 C232.9,307.2 231.9,306.2 230.7,306.2 L230.7,306.2 Z M66.9,311.2 L66.9,316.5 L78.7,316.5 L78.7,311.2 L66.9,311.2 Z M238.5,312.4 C237.3,312.4 236.3,313.4 236.3,314.5 C236.3,315.7 237.3,316.6 238.5,316.6 C239.7,316.6 240.6,315.6 240.6,314.5 C240.6,313.3 239.7,312.4 238.5,312.4 L238.5,312.4 Z M268.8,312.5 C280.3,312.9 282,316.6 282.1,329.4 C282.2,339.6 279.1,343.6 271.7,345.6 C269,346.3 258.9,345.7 256,344.7 C256,343.8 254.5,341.8 254.2,340.2 C254.9,340 257.2,340.3 261.6,340.7 C265.1,341 266.1,340.5 264.9,339.8 C258.2,338.2 253.7,338.6 247.3,337.4 C247.2,335.5 245.7,333.2 245.7,333.2 C246.1,333.1 255.6,334.1 260.6,333.9 C262.8,333.8 261.5,332.8 260.6,332.6 C254.7,331.8 250.9,331.9 244.7,331.1 C244.9,329.5 244.1,328.1 243.1,326.9 C243.1,326.9 246.2,326.9 252.7,327 C256.1,327 259.1,327.2 260.6,327.1 C263.1,327.1 262.9,325.9 260.7,325.8 C258.1,325.5 247.6,325.4 247.6,325.4 C248.4,325 249.4,320.4 249,320.3 C249,320.3 251.7,320.4 253.4,320.3 C261.7,320 263.2,320.1 263.3,319.8 C264.4,318.8 261.4,318.4 258.4,318.4 C257.1,318.4 255.1,318.7 255.1,318 C255.1,317.3 255.1,316 254.4,314.6 C259.5,312.7 264.2,312.4 268.8,312.5 L268.8,312.5 Z M169.6,315.2 C168.4,315.2 167.5,316.2 167.5,317.3 C167.5,318.5 168.5,319.4 169.6,319.4 C170.8,319.4 171.7,318.4 171.7,317.3 C171.8,316.1 170.8,315.2 169.6,315.2 L169.6,315.2 Z M251.7,315.6 C253.1,315.6 253.6,318.2 252.2,318.6 C250.2,319.2 249,318.7 249.1,317.5 C249.2,316.8 250.8,315.6 251.7,315.6 L251.7,315.6 Z M183.6,317.8 C182.4,317.8 181.5,318.8 181.5,320 C181.5,321.2 182.5,322.1 183.6,322.1 C184.8,322.1 185.7,321.1 185.7,320 C185.8,318.8 184.8,317.8 183.6,317.8 L183.6,317.8 Z M244.8,320.2 C249.7,320.2 247.1,326.8 243.4,324.4 C241.6,323.2 242.9,320.2 244.8,320.2 L244.8,320.2 Z M167.9,325.5 C167.8,325.5 167.7,325.6 167.8,325.8 L168.9,345.9 L180.6,327.1 L176,328.8 L174,325.8 L171.5,327.8 C170.4,328.7 168.5,325.6 167.9,325.5 L167.9,325.5 Z M240.3,327.6 C242.5,327.9 243.9,330.1 242.4,331.1 C239,332.6 237.2,327.7 240.3,327.6 L240.3,327.6 Z M235.1,332 C233.9,332 233,333 233,334.2 C233,335.4 234,336.4 235.1,336.4 C236.3,336.4 237.2,335.4 237.2,334.2 C237.2,333 236.3,332 235.1,332 L235.1,332 Z M243.4,333.8 C245.3,333.8 246.1,336.5 244.3,337.3 C243.9,337.5 242.7,337.6 242.2,337.2 C240,335.7 241.1,334 243.4,333.8 L243.4,333.8 Z M162.9,337.1 C161.7,337.1 160.7,338.1 160.7,339.2 C160.7,340.4 161.7,341.3 162.9,341.3 C164.1,341.3 165,340.3 165,339.2 C165,338.1 164.1,337.1 162.9,337.1 L162.9,337.1 Z M327.1,339.8 L319.1,342.5 L319.1,346.3 C322.6,345.2 324.6,342.3 327.1,339.8 L327.1,339.8 Z M252.4,341.6 C253.8,342.2 254.2,344 253,344.7 C252.1,345.2 249.5,345.1 248.9,344.3 C247.3,341.7 250.7,341 252.4,341.6 L252.4,341.6 Z M177.3,342.4 C176.1,342.4 175.2,343.4 175.2,344.6 C175.2,345.8 176.2,346.7 177.3,346.7 C178.5,346.7 179.5,345.7 179.5,344.6 C179.5,343.3 178.5,342.4 177.3,342.4 L177.3,342.4 Z M168.5,346.1 C167.5,346.1 166.6,347 166.6,348 C166.6,349 167.4,349.9 168.5,349.9 C169.5,349.9 170.4,349.1 170.4,348 C170.4,346.9 169.6,346.1 168.5,346.1 L168.5,346.1 Z M257.9,349.3 C256.7,349.3 255.8,350.3 255.8,351.5 C255.8,352.7 256.8,353.6 257.9,353.6 C259.1,353.6 260,352.6 260,351.5 C260,350.2 259,349.3 257.9,349.3 L257.9,349.3 Z M161.6,349.4 L161.5,368.4 L174.2,352.9 L169.8,353.8 L167.9,350 L165.2,351.8 L161.6,349.4 Z M242,353.8 C240.8,353.8 239.9,354.8 239.9,355.9 C239.9,357.1 240.9,358 242,358 C243.2,358 244.1,357 244.1,355.9 C244.1,354.7 243.2,353.8 242,353.8 L242,353.8 Z M305.4,353.9 L303.3,357.4 L309.2,354.1 L305.4,353.9 Z M250.6,356.4 C249.4,356.4 248.5,357.4 248.5,358.5 C248.5,359.7 249.5,360.6 250.6,360.6 C251.8,360.6 252.7,359.6 252.7,358.5 C252.7,357.3 251.8,356.4 250.6,356.4 L250.6,356.4 Z M257.8,358.7 L255.2,362.4 L251.8,361.3 L250.8,364.8 L246.7,364.7 L259.9,376.2 L257.8,358.7 Z M154.9,360.2 C153.7,360.2 152.8,361.2 152.8,362.3 C152.8,363.5 153.8,364.5 154.9,364.5 C156.1,364.5 157,363.5 157,362.3 C157.1,361.1 156.1,360.2 154.9,360.2 L154.9,360.2 Z M352.9,363.2 L354,520.7 L278.9,520.9 L248,478.7 C247.4,471.8 247.7,464.8 250.6,455.6 C253.6,457.7 260.2,456.5 260,448.4 C259.9,443.1 251.7,440.4 247.6,444.4 C247.8,439.3 249.9,431.6 252.9,429.3 C255,431.2 255.4,433.9 260.1,433.2 C263.4,432.7 266,428.9 264.6,424.6 C264.2,423.5 264,422.2 264,421.3 C264,420.4 264.1,418.8 263.9,417.9 C263.7,416.7 263.6,415.5 263.6,415.5 C303.6,402.8 332.2,382.8 352.9,363.2 L352.9,363.2 Z M170,366 C168.8,366 167.9,367 167.9,368.2 C167.9,369.4 168.9,370.3 170,370.3 C171.2,370.3 172.1,369.3 172.1,368.2 C172.1,366.9 171.2,366 170,366 L170,366 Z M159.8,368 C158.6,368 157.7,369 157.7,370.1 C157.7,371.3 158.7,372.3 159.8,372.3 C161,372.3 161.9,371.3 161.9,370.1 C162,369 161,368 159.8,368 L159.8,368 Z M266.2,369.1 C265,369.1 264.1,370.1 264.1,371.2 C264.1,372.4 265.1,373.3 266.2,373.3 C267.4,373.3 268.4,372.3 268.4,371.2 C268.3,370.1 267.4,369.1 266.2,369.1 L266.2,369.1 Z M152.1,371.4 L148.7,391.4 L163.3,376.4 L159.3,376.3 L158.5,372.9 L154.8,374.1 L152.1,371.4 Z M251.6,375.6 C250.4,375.6 249.5,376.6 249.5,377.7 C249.5,378.9 250.5,379.9 251.6,379.9 C252.8,379.9 253.7,378.9 253.7,377.7 C253.8,376.6 252.8,375.6 251.6,375.6 L251.6,375.6 Z M261.1,378 C259.9,378 259,379 259,380.1 C259,381.3 260,382.3 261.1,382.3 C262.3,382.3 263.2,381.3 263.2,380.1 C263.2,378.9 262.3,378 261.1,378 L261.1,378 Z M143,380.6 C141.8,380.6 140.9,381.6 140.9,382.8 C140.9,384 141.9,384.9 143,384.9 C144.2,384.9 145.1,383.9 145.1,382.8 C145.2,381.6 144.2,380.6 143,380.6 L143,380.6 Z M269.6,382.2 L266.1,384.9 L262.9,382.9 L262.1,387.2 L259.4,388.6 L270.9,396.7 L269.6,382.2 Z M278.2,387.9 C277,387.9 276.1,388.9 276.1,390 C276.1,391.2 277.1,392.1 278.2,392.1 C279.4,392.1 280.3,391.1 280.3,390 C280.3,388.9 279.3,387.9 278.2,387.9 L278.2,387.9 Z M156.6,388.7 C155.4,388.7 154.5,389.7 154.5,390.8 C154.5,392 155.5,393 156.6,393 C157.8,393 158.7,392 158.7,390.8 C158.8,389.6 157.8,388.7 156.6,388.7 L156.6,388.7 Z M147.1,391.5 C145.9,391.5 145,392.5 145,393.7 C145,394.9 146,395.8 147.1,395.8 C148.3,395.8 149.2,394.8 149.2,393.7 C149.2,392.4 148.3,391.5 147.1,391.5 L147.1,391.5 Z M272.6,397.1 C271.4,397.1 270.5,398.1 270.5,399.3 C270.5,400.5 271.5,401.4 272.6,401.4 C273.8,401.4 274.7,400.4 274.7,399.3 C274.8,398.1 273.8,397.1 272.6,397.1 L272.6,397.1 Z M263.6,399.1 C262.4,399.1 261.5,400.1 261.5,401.3 C261.5,402.5 262.5,403.4 263.6,403.4 C264.8,403.4 265.7,402.4 265.7,401.3 C265.8,400 264.8,399.1 263.6,399.1 L263.6,399.1 Z M180.4,402.1 C180.5,402.1 180.5,402.1 180.4,402.1 C180.7,402.4 181.4,404.3 180.8,405.3 C180.5,405.1 178.9,403.7 179.3,403.2 C179.5,403 180.2,402.1 180.4,402.1 L180.4,402.1 Z M131.7,405.5 C131.7,405.5 133.8,405.6 134.2,405.8 C134.2,406.3 133.7,407.5 133.1,408.8 C130.3,415.3 129.9,422.6 132.7,429.6 C137.2,439.1 149.8,461.6 148.9,463.7 L121,463.8 L121.1,459.6 C128.9,459.3 130.2,454.5 128.2,450.5 C126.8,447.8 123.1,446.2 119.6,447.6 C114.6,449.7 114.3,452.2 112.5,456 L111.7,455 C113.2,453 113.7,451.1 113.6,448.9 C113.5,446.7 113.4,447.3 114.2,446.2 C118.6,441.5 115.7,435.4 115.7,435.4 C115.2,431.6 128.7,407.7 131.7,405.5 L131.7,405.5 Z M67.9,406.1 C75.8,412.4 82.7,433.7 82.3,434 C81.9,433.7 75.9,440.8 82.4,447.5 C82.4,447.5 82,451.5 83.2,453.5 C80.3,459.4 79.8,459.9 79.6,464.8 C79.5,464.8 79.1,464.7 76.4,464.7 C63.3,464.6 62.6,481.4 75.8,482.3 C77.6,482.4 78.2,482 79.3,483.1 C80.4,484.5 81.4,485.8 83.3,485.1 C83.8,485.1 84.5,485.5 85.2,486.2 C86.5,487.9 88.3,489.1 90.9,488.7 C91.8,488.8 92.8,489.1 93.8,489.4 C95,490.3 97,491 98.5,490.3 C99,490.1 99.9,490 100.6,490.4 C102.5,491.3 104.4,490.7 105.2,490.2 C107,489.3 107.3,490.8 107.3,492.1 C106.4,495.2 108.4,498.1 111.4,499.2 C117.7,501.2 120.9,497.3 122.3,489.6 C122.6,487.9 122.9,485.9 122.9,485.9 L144,486.5 L113.7,521.7 L62,522.3 L61.7,406.1 C63.9,405.9 65.6,406.1 67.9,406.1 L67.9,406.1 Z M257.9,412.4 C261.8,413.9 262.1,416.6 258.2,415.4 C252,413.5 245.3,417.3 243.9,422.7 C243.6,423.7 243.4,424.5 243.2,424.6 C242.3,425.7 242.4,424.7 242.6,421.7 C243.1,415.8 247.3,411.6 252.7,411.4 C254.4,411.5 256.4,411.9 257.9,412.4 L257.9,412.4 Z M256,416.5 C257.6,416.5 259.3,417 260.6,418.1 C262,419.7 261.6,420.7 260.5,420.7 C255.3,418.5 248.6,421.2 246,427.7 C244.4,431.7 244.1,429.6 244.8,426.4 C246.1,420.8 250.5,416.6 256,416.5 L256,416.5 Z M219.7,418.1 C217.4,418.1 215.3,418.6 214.2,419.6 C212.1,421.6 213.8,421.6 217.6,420.3 C219.4,419.7 223,420 225.3,420.7 C227.2,421.4 227.9,421.6 227.8,421 C227.6,419.3 223.5,418.1 219.7,418.1 L219.7,418.1 Z M262.2,424.7 C263.2,426.9 262.5,430.8 259.2,431.2 C255.2,431.7 253.2,425 260.4,426.2 C259.5,423.5 256.2,424.3 254.6,425 C251.3,426.4 249.1,429.6 247.1,435.5 C246.5,437.2 246.1,438.2 245.8,438 C245.4,437.7 245.2,435 246.1,431.7 C247.7,425.8 251.5,422.2 255.6,422.1 C258.3,421.7 261.4,422.8 262.2,424.7 L262.2,424.7 Z M205.6,422.2 C205.2,422.3 205.9,423.5 206.8,425.4 C207.3,426.5 207.7,427.8 207.7,428.1 C207.7,429.1 208.5,429.4 209.7,428.7 C211.1,427.9 211.3,427.3 213.2,428.2 C215,429.1 216.8,429.8 218.5,428.8 C219.4,428.3 220,428.3 221.7,428.8 C223.8,429.4 224,429.4 225.6,428.8 C227.6,428 229.9,428.5 230.4,429.1 C230.9,429.6 230.6,428.9 231.7,426.4 C232.2,425.3 232.9,423.8 232.7,423.4 C232.4,422.9 230.6,423.5 228.7,424 C227.6,424.3 226.6,424.2 224.6,423.6 C220.3,422.4 217.6,422.7 214.9,424 C213.4,424.7 209.6,423.7 205.8,422.2 C205.7,422.2 205.7,422.1 205.6,422.2 L205.6,422.2 Z M214,433.6 C212.1,433.6 210.3,434.8 209.5,436.5 C208.6,438.8 210.1,443 212.6,443.4 C214.7,443.7 214.7,442.4 213.6,442.1 C212,441.6 210,439.2 211.3,437.2 C212.2,435.8 214.7,435.8 216.5,437.5 C220.1,441 224.3,441.2 225.1,438.2 C225.3,437 224.4,435.4 223,435.8 C221.9,436.1 219.4,436.2 217.2,434.8 C216.2,434 215.1,433.7 214,433.6 L214,433.6 Z M252.4,444.7 C261.7,444.1 257.7,456.8 252.3,453.5 C250.4,452.3 251.2,448.1 256.3,448.2 C251.3,444.3 247.9,449 249.2,454.3 C248.1,456 247.8,459.3 247,461.2 C245.9,463.3 245,457.7 246.1,452.4 C247.2,447.2 249.1,444.9 252.4,444.7 L252.4,444.7 Z M200,445.1 C198.1,445.1 200.1,447.2 200.3,447.4 C206.1,451.9 208.9,454.7 204.3,453.2 C196.8,451.4 194.8,453.5 189.1,456.1 C188,456.6 187.7,456.3 186.5,455.9 C181.5,454.4 181.8,457.6 187.1,460.4 C195.1,464.7 201.6,465.7 207.8,462.4 C211.8,460.3 212,461.7 208.3,464 C202,467.7 195.3,467.1 185.1,460.8 C181.8,458.7 181.3,460.1 184.7,462.3 C192.4,467 202.8,471.2 211.3,464.3 C213,462.8 213.3,462 214.6,462.7 C218,464.4 216.9,461.4 214.6,458.7 C213.8,457.7 213.2,456.9 213.2,456.3 C213.4,453.9 212.1,453.9 210.8,453.9 C209.3,454 209.5,453.5 207.7,451.5 C205.1,448.7 201.9,445.6 200,445.1 L200,445.1 Z M122.9,458 C119.7,458.2 119,458.4 119.7,465 C119.8,466.2 120.4,469.9 120.5,471.3 C122.4,488.5 120.9,496.1 116.1,498.2 C114.4,499 112.7,498.7 111.4,498.2 C108.4,497 107.1,493.3 109.3,488.9 C109.9,487.7 110.6,485.9 110.9,484.8 C111.2,483.7 111.8,481.4 112.3,479.7 C113.5,475.4 114.2,468.8 113.5,462.6 C113,458.3 113.1,458 114.2,455.1 C116.5,450.9 118,448.7 122.9,448.6 C128.5,449.1 130,457.4 122.9,458 L122.9,458 Z M240.7,457.6 L239.2,457.7 C237.4,451.7 233.6,453.6 233,457.8 L231.7,457.8 C232,449.8 242,451.9 240.7,457.6 L240.7,457.6 Z M99.9,453.1 C110.1,454.1 112,456.7 112.8,469 C112.9,475 112.5,478.6 111.6,479.9 C110.1,480.6 108.6,479.3 106.4,480.7 C105.2,481.4 105.4,481.5 104.9,480.7 C104.4,480 105,476.8 105.8,474.3 C106.5,471.9 105.3,470.5 101.9,467.4 C101,466.6 100.2,465.4 99.4,463.8 C97.6,459.1 96.7,461.2 98.2,465.2 C98.9,467 99.1,467.8 96.9,467.1 C95.6,466.7 94.5,467.2 93.5,467.7 C90.7,468.4 88.3,466.9 90.7,466 C92.2,465.4 94.8,464.6 95.7,464.6 C96.3,464.6 96.6,464.5 96.6,464.2 C96.6,463 91.2,463.1 87.1,464.6 C82,466.9 81.7,466.5 82.2,462.9 C83.2,453.6 91.7,452.5 99.9,453.1 L99.9,453.1 Z M200,453.9 C202.6,453.8 205,456.8 204.6,459.3 L203.4,459.2 C202.8,454.4 198.3,454.2 197.1,459.6 L195.3,459.6 C196.3,455.5 198.2,454 200,453.9 L200,453.9 Z M230.4,454 C231.4,454.6 230.7,456.3 229.6,456.6 C229.2,456.7 227.9,455.8 228.2,455.2 C228.8,454.6 229.7,454.2 230.4,454 L230.4,454 Z M242.2,454.8 C242.9,454.8 243.9,455.2 244,456.1 C244,457.5 243,457.2 242.6,457.1 C241.8,456.5 241.6,454.9 242.2,454.8 L242.2,454.8 Z M206.3,455.9 C208.2,456.1 208.9,458.5 206.7,458.7 C205.8,458.9 205.7,456.5 206.3,455.9 L206.3,455.9 Z M194.6,456.2 C194.8,456.2 194.5,458.2 194,458.5 C193.1,459.1 191.8,458.5 191.9,457.8 C192,456.4 193.7,456.2 194.6,456.2 L194.6,456.2 Z M228.1,461 C231.8,462.4 236.5,463.7 241,462.2 C242.6,461.6 243.9,460.8 243.9,461.5 C243.9,462.2 242.6,463.3 240.3,464 C235.5,465.3 232,464.8 228.7,462.3 C227.7,461.6 227.4,461 228.1,461 L228.1,461 Z M226.6,463.1 C232.5,466.6 237.9,466.9 242.7,464.4 C244.6,463.7 244.7,464.4 244.7,465.6 C236,473.2 225.2,465.3 226.6,463.1 L226.6,463.1 Z M81.1,468.3 C79.6,471.3 78.8,478.6 76.4,480.7 C60,479.8 70.6,458.2 81.1,468.3 L81.1,468.3 Z M182.6,465.9 C181.7,466.4 182.5,468.7 183.9,469.3 C196.4,474.7 202.9,475.3 210,472.8 C213,471.8 214.6,469.4 214.7,468.2 C214.9,466.8 213,466.7 209.6,468.2 C199.4,472.2 193.1,469.1 184.9,466 C184.1,465.8 183.4,465.7 182.6,465.9 L182.6,465.9 Z M134.6,466.1 L134.6,484.4 L122.7,484.2 L122.8,481.5 L131.7,481.8 L131.6,468.8 L121.2,468.7 L121.2,466.3 L134.6,466.1 Z M137.4,466.1 L149.3,466.1 L149.9,468 L137.4,468 L137.4,466.1 Z M89.3,471.9 C88.5,472.6 87.2,472.8 86.6,472.2 C85.3,470.9 86.6,468.6 88.6,468.6 C90.7,468.6 90.8,470.6 89.3,471.9 L89.3,471.9 Z M94.8,469 C96.6,469 97.2,470.7 95.8,472.1 C94.9,472.9 94.4,473 93.6,472.4 C92.6,471.4 93.1,469 94.8,469 L94.8,469 Z M83.1,469.4 C83.6,469.4 84,469.4 84.3,469.9 C85.4,472.1 81.8,473.7 81.1,472 C80.5,470.7 81.9,469.5 83.1,469.4 L83.1,469.4 Z M150.4,469.7 L151.1,472.1 L137.4,472.2 L137.4,469.8 L150.4,469.7 Z M101.3,470.3 C103.3,470.6 103,472.6 102.1,473.5 C100.5,475 98.9,474.5 99.3,472.5 C99.5,471.3 100.3,470.4 101.3,470.3 L101.3,470.3 Z M90.2,477.1 C89.5,479.7 91,484.9 90.6,485.4 C89.6,486.6 88,486 87.3,485.6 C84.8,484 84.7,474.7 87.1,474.1 C88.6,474.9 89.7,473.5 90.4,473.3 C91,473.1 90.6,474.3 90.2,477.1 L90.2,477.1 Z M126.5,473.2 C127.9,473.2 128.9,474.3 128.9,475.6 C128.9,477 127.8,478 126.5,478 C125.2,478 124.1,476.9 124.1,475.6 C124.1,474.3 125.2,473.2 126.5,473.2 L126.5,473.2 Z M137.4,473.6 L151.4,473.6 C152.2,474.8 152.1,475.6 151.9,476.4 L137.3,476.4 L137.3,473.6 L137.4,473.6 Z M96.1,473.9 C96.7,473.9 97.1,475.3 96.6,476.8 C95.8,479.6 95.9,483.5 96.4,485.1 C96.8,486.2 97.1,487 96.9,487.4 C96.2,488.5 93.9,487.8 93,486.3 C90.7,482 91.1,474.1 93.8,474.7 C94.9,475.2 95.5,474.3 96.1,473.9 L96.1,473.9 Z M83.8,475 C83.1,476.1 83.6,482.2 83.5,482.7 C83.4,483.3 81.7,483 80.7,482.6 C78.3,481.5 79,478.6 79.4,476.4 C79.9,474.6 81.1,474.5 82.5,474.3 C83.3,474 84.3,474.1 83.8,475 L83.8,475 Z M102.9,475.3 C103.7,475.3 103.8,475.8 103.6,478.1 C103.5,479.9 103.4,481.4 103.7,483 C104.3,486.5 104.4,487.5 103.5,488.2 C102.5,489 101,488.8 99.9,487.8 C97.6,486 97.5,477.3 99.3,476.5 C100.9,476.9 101.9,475.6 102.9,475.3 L102.9,475.3 Z M151.3,477.9 L149.3,480.7 L137.3,480.7 L137.3,477.9 L151.3,477.9 Z M108.7,481.6 C110.6,481.6 110.3,484.9 109.3,487 C108.5,488.3 107.8,488.4 106.5,487.2 C105,485.9 106.7,481.6 108.7,481.6 L108.7,481.6 Z M147.8,482.6 L146.1,484.1 L137.3,484.1 L137.3,482.6 L147.8,482.6 Z" id="Shape" fill="#131F67" fill-rule="nonzero"></path>
            <path d="M364.2,551.1 L364.2,545.6 L369.8,545.6 L381.6,527.4 L368.8,499.2 L364.1,499.2 L364.1,493.2 L382.1,493.2 L382.1,499.2 L376.3,499.2 L385.2,521.2 L391.7,512.7 L391.7,499.2 L386.9,499.2 L386.9,493.2 L403,493.2 L403,499.2 L397.4,499.2 L397.4,545.6 L403,545.6 L403,551.1 L386.9,551.1 L386.9,545.6 L391.5,545.6 L391.5,524.1 L376.4,545.6 L382.1,545.6 L382.1,551.1 L364.2,551.1 L364.2,551.1 Z M285.3,508.6 C272,503.8 266.6,487.3 274.2,471 C284.3,449.1 299.3,435.1 309.3,414.5 C309.2,414.5 329,443.5 336.8,454.3 C353.7,478.7 352.9,498.9 336.5,506.8 C324.7,512.5 312.6,505.9 311.3,493.6 C311.1,491.7 311,491.4 310.1,491.4 C309.1,491.4 308.9,492.1 308.7,494.9 C307.7,505.8 295.8,512.3 285.3,508.6 L285.3,508.6 Z M366.9,466 C372,453.9 378,447.4 384.3,434.6 C389.4,444.5 398.7,455.2 401.8,465.2 C404.2,472.9 402.3,479.2 397.3,481.1 C391.4,483.3 387,480.8 385.9,475.3 C385.4,473.1 384.3,473.3 384.3,475 C384.1,480.4 377.9,482.8 372.9,481.3 C370,480.6 364.8,474.7 366.9,466 L366.9,466 Z M89.1,416.7 L74.6,405.3 C91.9,404.9 109.2,405.3 126.5,405.6 L109.2,417.9 C105.7,414 103.6,408.8 98.6,406.3 C94.8,407.9 92.2,413.2 89.1,416.7 L89.1,416.7 Z M216.7,412.7 C216.4,412.7 216.2,412.6 216,412.5 C215.6,412.2 215.4,411.7 215.1,409.9 C210.8,389.8 189.6,391.2 189.7,391.8 C189.5,391 216.1,367.1 231.7,348.3 C236.4,362.7 250.7,395.5 250.1,395.4 C250.1,395.4 246.2,395.4 235.5,395.1 C225.8,399.5 218.7,403.9 219,410.1 C218.9,412.3 218.4,413.2 217.7,413 C217.5,412.8 217.1,412.8 216.7,412.7 L216.7,412.7 Z M264.3,347.9 C278.1,347.7 280.7,340.9 282.3,340.1 C284,340.6 285.7,340.6 287.1,340.1 C289.9,339.1 297.3,345 301,350.8 C301.2,351 305.1,352.5 305.1,352.5 L306.5,346.2 L319.1,342.5 L319.1,346.5 C315.2,348.6 309.4,354 309.4,354 L305.6,353.8 L303.4,356.7 C294.6,361.4 286,367.1 276.8,370.8 C276.7,370.9 265.6,356.6 264.3,347.9 L264.3,347.9 Z M92.6,349.6 L92.5,269.5 C98.2,269.1 107.4,270.9 109.8,266.8 C113.9,260.1 125,253.3 125,253.3 C125.9,263.1 126.2,272.5 126,282.3 C109.6,302.3 100.6,326.8 110.6,363.6 L104.5,362.9 L92.6,349.6 Z M182.7,353.6 C187.4,337 191,320.2 192.5,302.8 L223.6,302.3 L224.2,313 L182.7,353.6 Z M288.8,317.4 L288.2,287.6 C310.9,260.4 312.3,236.8 303.8,206.8 C311.3,208.5 315.2,214.4 322.3,222.4 L322.3,300.1 C317.3,300.8 305,301.6 305,301.6 C304.7,305.2 294.3,313.9 288.8,317.4 L288.8,317.4 Z M192.5,270.4 L191.1,257.3 L231.1,219.1 C227.8,235.8 223.7,253.2 222.5,271 L192.5,270.4 Z M130.4,228.8 C128.8,227.9 126.7,228.6 125.4,229.4 C122.5,231.3 111.9,220.2 110.1,212.8 C112.8,209.2 136.2,197.7 136.2,197.7 C136.2,197.7 149.9,215.3 149.3,222.6 C143.2,224.2 138.4,224.1 133.8,229.1 C133.2,229.8 132,229.6 130.4,228.8 L130.4,228.8 Z M106.9,214.5 L108.5,215.7 L107.6,222.7 L90.3,227.8 C96.3,222.8 100.5,218.4 106.9,214.5 L106.9,214.5 Z M163,175.7 C166.5,175.6 170.2,177 173,176 C174,175.6 176.1,175 178.3,175.4 C183.4,177 185.3,171.3 188.5,171.3 C192.7,171.3 195.1,168.3 195.1,162.4 C195.1,159.8 195.3,159.5 195.8,159.3 C197.2,158.5 198.8,159.6 199,161 C202,172 209.7,181.8 221.9,181 C212.2,190.8 182.9,221.1 182.9,221.1 C177.6,204.9 170.5,189.9 163,175.7 L163,175.7 Z M287.9,166.2 L305.6,153.4 L316.2,166.3 L325.4,154 C330.8,157.9 343,166.4 343,166.4 C343,166.4 306.3,167 287.9,166.2 L287.9,166.2 Z M103.5,159.7 C107.2,162.3 68.1,114.8 63.5,98 C60.1,88.1 62.7,76 70,70.8 C82.5,62 97.2,65.5 99.9,80.3 C100.7,84.5 102,84 102.5,80.3 C104.2,61.5 127.3,60.1 136.2,73.2 C142.3,82.2 142.3,96.5 133.5,110.8 C131.4,115.4 103.3,158.4 103.5,159.7 L103.5,159.7 Z M28.7,141.6 C23.5,131.4 15.7,121 11.5,111.5 C8.4,103.7 11,95.6 16.8,94.1 C22.5,92.6 26.6,95 27.7,100.3 C28.1,102.1 28.8,102.2 29.1,100.6 C31.2,90.5 45.4,92.7 46.4,103.3 C47,110 45.3,114.5 37,127.2 C35,131.2 29.6,137.1 28.7,141.6 L28.7,141.6 Z M31.4,76.9 L37.3,76.9 L28.6,55.6 L22,64.6 L22,76.9 L26.7,76.9 L26.7,83.3 L10.3,83.3 L10.3,76.9 L15.7,76.9 L15.7,31.1 L10.3,31.1 L10.3,25.6 L27,25.6 L27,31.3 L22.4,31.3 L22.3,53.7 L36.9,31.2 L31.8,31.2 L31.8,25.7 L49.5,25.7 L49.5,31.2 L44.8,31.2 L32.8,49.6 L44.5,77 L49.7,77 L49.7,83.4 L31.5,83.4 L31.4,76.9 Z" id="Shape" fill="#D40000" fill-rule="nonzero"></path>
            <path d="M298,49.8 L135.4,50.8 L167,93 C200.6,86.2 229.8,90.6 260.1,95.9 L298,49.8 Z M293.8,52 L283,65.4 C280,62.7 273.3,63.7 274.3,69.6 C266,65.3 264.2,77.1 271.3,76.6 C270.4,78.9 263.3,79.5 261.3,75.3 C254,79.4 251.8,75.4 249.8,72.8 C259.1,79.1 263.6,66.1 253.4,65.4 C257.4,57.3 243.1,53.6 243.9,64.2 C234.5,62.1 236.6,75.3 243.6,72.6 C239.1,79.4 231.7,74.8 230.2,73.5 C226.4,76.4 219.2,76.4 217.2,71.9 C227.7,74 226.6,60.2 217.2,63.4 C222.2,52.8 205.6,54.2 209.6,62.9 C200.2,62.5 202.3,74.1 210.5,72.2 C203.2,79.1 197.7,72.7 196.5,72.5 C192.2,77.3 184.5,74.7 183.5,71.8 C191,74.8 193.5,62.2 184,62.9 C186.4,54.8 172.8,53.8 175.8,63 C168.3,61.3 167.9,73.3 176.3,71.4 C176.8,74.7 170.2,77.8 166.2,74.6 C163.2,76.2 160,78.8 156.1,75 C162,74.1 163,64.1 153.4,66.2 C153.9,60.1 150.3,59.7 146,61.3 L139,51.9 L293.8,52 Z M181.6,67 C181.1,68.1 180.2,68.9 180.4,69.8 C180.6,70.5 181.3,71.5 182.3,72.9 C190.4,83.5 206.9,83.1 211.9,72.2 C212.9,70.2 212.7,69.7 211.5,68 C210,65.9 211.7,63.7 213.5,63.9 C216.2,64.2 216.7,66.5 215.4,68.2 C212.6,71.7 220.3,79.7 228,81 C237.9,82.6 247.2,75.7 245.9,69.4 C245.8,69 245.6,68.7 245.6,68.3 C244.5,63.1 252.8,65.6 249.8,68.9 C248.7,70.1 248.1,70.5 248.2,71.8 C250.6,82.8 264,84 270.4,80.6 C262.2,94 249.1,83.7 246.8,74.3 C235.2,91 221.3,87.5 213.6,72.9 C214.5,73.8 198.4,99.2 180,73.2 C172.2,94.2 158.1,80 159,79.1 C165.5,82.7 177.3,81.4 178.5,70.2 C178.7,68.8 177.6,68.7 177,67.6 C174,62 183.9,62 181.6,67 L181.6,67 Z M151,68.4 C152.5,68.5 152.7,69.2 152.5,70.6 L151,68.4 Z M277.3,72.3 L275.2,75 C274.6,73.7 274.6,72.5 277.3,72.3 L277.3,72.3 Z M300.4,73.2 C295.3,73.4 291.4,80.4 291.7,89.7 C291.8,94.2 292.6,105.6 292.9,107.3 C293.3,109.7 292.9,112.9 292,113.2 C289.8,114.1 289,114.7 288.4,115.7 C286.9,118.4 288.1,121.5 291.4,122.9 C293.7,123.9 296.6,122.5 298.6,119.6 C299.7,118 300,117.2 300.9,113.1 C301.4,111.2 301.3,108 300.8,105.1 C299.6,98.5 300.5,90.3 302.8,86.5 C306.9,79.6 306.8,75.1 302.6,73.6 C301.9,73.3 301.2,73.2 300.4,73.2 L300.4,73.2 Z M300.2,74.3 C306.1,74.3 305.9,80.2 302.7,82 C301.4,82.6 299.9,82.7 298.3,81.7 C296.6,80.7 296.8,81.8 298.6,83.2 C300.7,84.7 301.6,84.6 300.5,88.2 C299.4,91.5 298.9,98.8 299.5,102.9 C301.1,114.2 299.8,119.8 295,121.7 C292.7,122.7 290.4,121.3 289.5,119.4 C288.4,115.3 290.7,114.3 294.8,114.7 C294.8,114.7 295.1,113.8 294,104 C292.4,90.4 293,80.9 295.5,77.6 C296.7,75.8 298.4,74.3 300.2,74.3 L300.2,74.3 Z M340.1,88.3 C338.7,88.3 337.2,88.7 335.7,89.5 C335.7,89.5 335.5,95.6 335.4,96.5 C334.4,101.7 334.7,102.3 337.1,103 C342.9,104.8 347.7,100.9 347.5,94.8 C347.4,91.5 344.2,88.3 340.1,88.3 L340.1,88.3 Z M340.9,89.1 C344.1,89 347,92.7 346.7,96.3 C346.5,100.5 342.5,102.8 338.9,102.1 C337.8,101.9 336.7,101.7 336.4,100.9 C335.7,99.8 336.8,99.4 339.3,99.4 C342,99.4 342.5,99 343.3,97.6 C345.1,94.6 342.8,90.9 340,91.6 C339,91.8 338.9,92.3 340,92.6 C343.5,94.2 342.2,96.4 341,97.3 C339.6,98.4 337.2,96.9 336.8,96 L337,90.3 C336.9,90.2 338.1,89.1 340.9,89.1 L340.9,89.1 Z M304.9,115.5 C304.9,115.5 303.6,116.1 302.9,116.7 C301.5,118 301.2,120 301.9,121.9 C302.2,122.8 302.2,122.9 301.1,124.3 C298,128.3 297.7,130.3 299.2,133.9 C299.9,135.5 299.9,135.5 299.2,137.7 C296.3,147 290.6,157.4 284.5,164.7 C283.6,165.8 283.2,167 283.2,167 C283.2,167 284.6,166.9 285.4,166.5 C291.7,163.4 298.3,157.3 304.5,153.4 C294.8,161.3 284.4,168.4 284.4,168.4 L297.7,169.1 C294.4,172.5 236.2,221.8 251.7,310.2 C269.9,305.7 278.3,298.2 288,289.5 C288.1,296.6 288.3,315.8 288.3,315.8 C288.5,315.5 279.9,312.6 281.9,319.6 C283.1,323.5 283.7,333.3 281.6,338.8 C281.5,339 282.5,339.4 282.4,339.6 C282.3,339.8 281,339.8 281,339.8 C277.7,345.9 269.2,347.3 265,347.1 C263.4,347 264.1,349.1 264.3,349.8 C265.1,353 268.7,359.7 275.5,370.6 L277.3,370.8 L276.3,371.8 C277.1,373.3 279.3,376 279.3,376 L279.4,376.9 C279.4,376.9 283.1,382.1 285.2,384.5 C285.3,384.7 285.7,384.3 285.8,384.4 C286.9,385.7 288.2,387.2 289.4,388.6 C289.5,388.7 289.2,389.1 289.3,389.2 C291.4,391.5 295.6,396.2 295.6,396.2 L296.4,396 L299.7,399.7 C327,387.3 355.6,359.8 355.3,359.8 L355.5,300.6 L323.1,300.5 L323,222.1 L355.3,254 L355.1,244.8 C347.8,237.8 318.3,208.1 318.3,208.1 C322.6,207.5 326.7,206.1 330.8,203.9 C337.8,207.8 345.3,210.1 353.9,208.9 L353.9,200.2 C344.1,200.2 338.1,196.9 333.7,193 L327.7,192.8 C316.6,201.3 308.7,197.3 300.2,195.7 L294.3,187.3 L354.3,187 L353.9,166.5 L344.8,166.7 L338.9,162.3 L345.8,165.2 C345.8,165.2 345.7,164.1 344.3,161.9 C340.6,155.9 335.9,147 333.1,139.2 C331.7,135.3 331.7,135.4 332.9,133.1 C334.5,129.9 334.1,126.1 332.1,123.9 C330.6,122.4 330.7,122 331.2,120.9 C333.2,116.4 328.4,114.8 328.4,115 C318.1,119.6 304.6,115.7 304.9,115.5 L304.9,115.5 Z M328.3,117.2 C330.3,117.2 330.5,118.1 330.5,119.6 C330.3,122.3 326.8,123.3 325.2,123.7 C317.5,125.5 304,124.4 303.2,120.8 C302.6,118.2 304.2,116.7 309.7,118 C318.4,119.9 323.8,117.8 328.3,117.2 L328.3,117.2 Z M303.4,124.8 C304.2,124.8 305.2,125.6 305.4,126.9 C305.6,128 304.5,131.4 303.5,132.2 C301.1,134.1 298.8,131.1 300.5,127.9 C301.4,126 302.3,124.8 303.4,124.8 L303.4,124.8 Z M329.7,125.2 C330.1,125.2 330.7,125.3 331.1,125.6 C333.1,127 333.2,131.7 331.4,132.4 C329.5,133.1 327.8,131.2 327.9,128.1 C327.9,126.3 328.6,125.1 329.7,125.2 L329.7,125.2 Z M323.5,126.2 C323.9,126.2 324.3,126.3 324.7,126.5 C326.3,127.2 327.1,132.2 325.5,133.8 C324.3,135 321.6,135 320.8,132.4 C319.9,129.3 321.4,126.3 323.5,126.2 L323.5,126.2 Z M309.8,126.3 C312.2,126.3 312.7,131.6 310.4,133.8 C308.5,135.6 305.5,133.8 306.4,130.2 C306.9,128.4 308,126.4 309.8,126.3 L309.8,126.3 Z M316.6,127.1 C320.1,127.7 319.8,136.2 315.2,135.3 C312.6,133.6 312.7,127.3 316.6,127.1 L316.6,127.1 Z M301.4,136.2 L306.3,136.7 C306.3,136.7 300,150.4 294.1,155.7 C291.9,157.9 290.7,158 292.3,155.6 C296,151.1 301.4,136.2 301.4,136.2 L301.4,136.2 Z M330.8,136.3 C333.7,143.9 336.6,151.7 340.5,159.5 C334.6,153.8 329.3,145 324.5,136.7 L330.8,136.3 Z M307.8,137.1 L311,137.1 C312.1,142 314,145.2 316.2,147.9 C318.1,144.7 319.3,141.2 320.5,137.4 L323.1,137.4 C324.1,138 320.1,152.9 316.1,154.7 C311.9,151.3 308.3,142.1 307.8,137.1 L307.8,137.1 Z M306.4,140.6 C306.1,141 311.4,153.7 315.9,157.8 C320.1,153.7 322.8,148.3 324.7,141.8 L338.6,161.4 L325,152.1 C322.3,156.6 319.4,160.9 315.9,164.5 C312.2,160.5 308.9,155.7 305.6,151.1 C300.4,155 296.7,159.1 289.9,162.8 C289.9,162.9 303.2,148.4 306.4,140.6 L306.4,140.6 Z M305.1,154.5 L314.6,166.1 L289.4,165.7 L305.1,154.5 Z M325.6,154.7 L341.5,165.7 L317.8,165.9 L325.6,154.7 Z M198.7,160.1 C198.7,160.1 198.8,160.8 199,161.2 C201.8,172.7 209.6,182.3 221.4,181.2 L182.8,219.8 C182.8,219.8 176.4,198.2 163.5,176 C163.5,176 165.9,176.5 167.7,176.8 C169.4,177.1 170.7,177 172,176.6 C173,176.5 173.7,175.8 174.6,175.6 C176.1,175.3 178,175.8 178.9,176.2 C181.6,176.7 183.4,175.2 186.7,172.3 C187.6,171.5 187.9,171.7 189,171.7 C193.2,171.7 195.8,168.1 195.3,162.6 L195.1,160.1 L194.6,162.9 C193.6,168.1 192.9,170.4 187.8,170.6 C186.5,170.7 186.1,171.5 184.1,173.2 C181.3,175.6 179.4,175.8 177.4,174.8 C175.4,173.9 175.2,174.4 173.3,175.3 C171.1,176.3 168,176.2 165.2,175.4 C161.2,174.3 161.7,174.6 161.7,174.6 C184.6,215.4 192.7,254.5 192.2,289.3 C191.5,338.8 174.2,378.8 159,402.9 C159,402.9 161.6,402.6 163.9,402.3 C165,402 165.9,402.3 167,402.7 C168,403.1 168.8,403 169.8,402.9 C170.6,402.8 172.5,402.9 173.8,403.1 C176.6,403.5 176.8,403.1 179.9,400.1 C188.6,391.6 188,392 194.4,392.2 C203.9,392.5 211.5,398.8 214.6,408.9 C215,410.2 215.5,412 215.6,412 L215,409.3 C212.2,395.7 200.6,390.7 190.9,390.9 L231.8,349.8 C231.6,349.8 241.3,381 249.7,394.9 C249.7,395 247.1,393.8 242.4,394.4 C239.8,394.7 237,394.4 235.4,394.1 C233.3,394.1 232.1,394.7 229.5,396.8 C228.4,397.7 227.5,398.7 225.4,399.6 C220.4,401.7 218.4,403.9 218.4,409.3 C218.4,410.3 218.2,411.6 218.3,412 C218.3,412.1 218.3,412.3 218.3,412.3 C218.4,412.3 218.5,412.2 218.6,412 C218.8,411.6 219.3,410.6 219.7,408.4 C220.4,404.3 221.2,402.9 225.1,401.1 C226.3,400.6 228.7,399.1 229.8,398.2 C233.4,395.4 234.5,394.7 237.4,395.4 C239,395.8 240.4,396 242.7,395.7 C245.3,395.4 245.5,395.2 248.3,396 C250.2,396.5 252.6,397 252.6,397 C212.9,317.3 214.2,243.4 253.4,168.5 C253.4,168.5 241.8,168.6 241.3,168.9 C241.1,169 239.7,168.9 238.2,168.6 C235,168 235.7,168.4 228.3,175.9 C219.1,185.2 204.4,177.8 199.9,162.2 C199.7,161.4 199.5,160.9 199.1,160.3 C199,160.4 198.7,160.1 198.7,160.1 L198.7,160.1 Z M236.2,169.2 C237.9,169.4 239.2,169.8 239,171.4 L184.3,224.9 L183.5,221.5 L236.2,169.2 Z M247.7,169.5 C247,170.8 245.2,172.5 244.4,173.7 L247.4,177.4 L245.7,180.4 L241.1,176.6 L232.4,185.2 L239.7,193.3 L232.8,200.2 L230.5,197.6 L234.1,193.8 L228.5,188.5 L218.6,198.2 L226.7,206.4 L220.8,212.1 L218.4,209.9 L221.5,206.5 L216.2,201 L206.9,210.4 L214.2,218.5 L208.5,224.1 L206,221.6 L208.7,218.8 L203.5,213.3 L194.1,222.6 L201.7,230.9 L196.1,235.9 L194.1,233.8 L196.8,230.9 L191.7,225.4 L185.9,230.7 L184.9,227.1 L242.8,169.6 L247.7,169.5 Z M251.1,170.4 L248.7,175.3 L246.8,173.2 L249.3,170.7 L251.1,170.4 Z M114.6,170.7 C113.1,171.1 78.6,190.3 59,211.3 L58.9,219.2 L58.2,220.1 L58.6,232.2 L59.1,232.8 L59.3,237.8 L58.5,239.1 L58.5,252.7 L59.5,252.9 L59.7,269.6 L91.9,269.7 L91.9,349.2 C91.9,349.2 73,328.4 59.3,316.1 L59.4,325.4 L95.5,362.6 C93,362.9 89.8,363.5 84.9,366.2 C73.2,358.9 59.7,361.1 59.7,361.1 L59.8,370.6 C68.4,369.8 76.2,370.9 85.2,377 C92.6,372 101.6,368.9 115,372.9 C117.9,377.6 120.9,382.4 123.8,385.5 L60,386 L60.1,405.2 C62.9,405.2 70,405.2 70,405.2 C73.6,412.2 80.6,421.8 83.6,433.9 C79.6,438.7 79.9,442.6 83.8,447.5 C83.8,449.7 83.1,452.1 85.6,454.6 C93.7,450.6 102.9,452.4 109.7,454.4 C112,455.1 112.9,452.5 112.8,449.1 C112.6,447.2 112.6,446.4 114.1,445.1 C117.6,442.1 115.3,435.2 114.9,435.8 C114.7,430.4 132.1,403.2 132.1,403.7 L128.6,405 L113.7,405.1 C152.8,367.4 169.1,324.4 165.7,275.9 C164.9,263.7 163,258.1 163,258.1 C149.2,264.2 137.9,268.7 126.9,280.4 L126.2,255.1 C126.8,256.3 130.9,257.4 132.7,255.9 C133.9,255.1 134.1,254.2 132.9,251.1 C131.2,246.6 130.8,237.1 132.1,233.8 C132.2,233.4 132.4,232.4 132.5,231.4 C132.6,230.1 132.4,230 132.2,230 C132.5,229.9 133.9,230.2 134,230 C138.7,225.9 143.7,223.3 149.9,223 L150.1,220 C145.5,208.4 141.6,203.9 137.5,197.4 C137.5,197.4 136.3,197 135.6,197.2 L136.6,196.2 C130.5,187.1 122.2,178.7 114.6,170.7 C114.6,170.7 114.6,170.7 114.6,170.7 L114.6,170.7 Z M114.3,172.2 L118.4,176 C98.7,185.5 79.2,199.4 60.1,218.2 L60.4,211.3 C82,191 98.4,181.2 114.3,172.2 L114.3,172.2 Z M240.9,179.2 L243.4,181.7 L240,185.7 L242.2,188 L241,191 L235.3,185.1 L240.9,179.2 Z M117.8,179.5 C119.1,179.5 120.1,180.5 120.1,181.8 C120.1,183.1 119.1,184.1 117.8,184.1 C116.5,184.1 115.4,183.1 115.4,181.8 C115.5,180.5 116.5,179.5 117.8,179.5 L117.8,179.5 Z M286.6,182.7 C326.8,227.4 306.2,292.4 252.5,308.1 L251.9,304.4 C306,286.2 318.7,225.2 283.6,186.8 L286.6,182.7 Z M124.8,183 L127.4,186 C104.5,196.9 82.1,213.3 60.5,237 L60.3,231 C80.6,209.7 102.3,194.3 124.8,183 L124.8,183 Z M110,183.9 C111.3,183.9 112.4,185 112.4,186.3 C112.4,187.6 111.3,188.6 110,188.6 C108.7,188.6 107.7,187.5 107.7,186.3 C107.7,185 108.7,183.9 110,183.9 L110,183.9 Z M102.9,188.4 C104.2,188.4 105.3,189.5 105.3,190.7 C105.3,192 104.2,193.1 102.9,193.1 C101.6,193.1 100.6,192 100.6,190.7 C100.5,189.4 101.6,188.4 102.9,188.4 L102.9,188.4 Z M126.7,189.9 C128,189.9 129.1,191 129.1,192.2 C129.1,193.5 128,194.6 126.7,194.6 C125.4,194.6 124.4,193.5 124.4,192.2 C124.4,191 125.4,189.9 126.7,189.9 L126.7,189.9 Z M228.8,191.5 L231.1,194 L227.4,197.7 L232.7,203.2 L237.8,198.3 L235.2,205.6 L190.2,250.6 L189.3,245.9 L192.8,242.3 L187.4,236.9 L186.4,233.3 L191.7,228.3 L193.9,230.6 L190.8,234.2 L195.8,239.1 L204.9,230.7 L197.4,222.4 L203.6,216.4 L205.7,218.5 L202.7,221.6 L207.9,227.3 L217.3,218.3 L209.6,210.2 L215.8,204.1 L218.1,206.3 L215,210 L220.3,215.1 L229.5,206 L222,198.1 L228.8,191.5 Z M95.9,193.1 C97.2,193.1 98.2,194.1 98.2,195.4 C98.2,196.7 97.2,197.8 95.9,197.8 C94.6,197.8 93.5,196.7 93.5,195.4 C93.5,194.2 94.6,193.1 95.9,193.1 L95.9,193.1 Z M132.9,193.6 L134.7,196.6 C107.4,210.4 88.6,224.2 60.6,255.9 L60.6,251.9 C82.2,225.4 104.6,208.3 132.9,193.6 L132.9,193.6 Z M119.2,193.9 C120.5,193.9 121.6,195 121.6,196.3 C121.6,197.6 120.5,198.6 119.2,198.6 C117.9,198.6 116.9,197.5 116.9,196.3 C116.9,195 117.9,193.9 119.2,193.9 L119.2,193.9 Z M330.3,194.8 C335.1,199.1 345.2,203.3 351.7,202.9 L351.9,208.1 C340.5,209.2 330.6,201.9 330.6,201.9 C321.9,207.2 312.9,207.9 303.7,205.6 L300.1,197.9 C313.9,204.3 326.8,198.2 330.3,194.8 L330.3,194.8 Z M275.9,196.2 C276.4,197.1 278.1,198.2 278.1,198.2 C288.7,195.4 292,206.4 287.1,212.6 L288.5,217.2 C290.4,217.5 292,218.2 293.4,219.1 C296,220.9 297.4,224 297.1,227.2 C297.5,230.7 292.2,234 291.9,233.8 L291.8,238.8 C293.3,240 295.1,241.2 296.2,243 C298.7,247.3 297.7,251.5 293.8,254.2 C291.5,255.8 289,256 288.9,255.8 L286.5,261.5 C288.7,262.7 289.3,264.8 289.6,266.3 C290.3,269.5 288.1,273.7 285.3,275.2 C281.7,277.2 276.9,275.4 276.9,275.4 L273.4,278.9 C274.3,281.9 274.5,283.7 274.1,285.5 C272.9,289.9 268.3,291.6 264.7,291.3 C261.8,291 259.6,288.9 259.6,288.9 L255.7,290.4 C255.8,290.4 255.8,295.3 253.8,296.8 C253.2,297.4 251,298.8 251,298.8 L250.5,295.4 C252,294.3 253,291.6 252.7,289.7 L261,285.6 C261,285.9 263.3,288.1 264.8,288.4 C268,289 271.3,286.6 271.3,283.6 C271.3,281.9 270.3,280.7 270,279.3 L277.1,272 C280,273 282.1,273.2 283.4,272.4 C285.9,271 286.5,268 286.1,266.3 C285.5,264.2 283.7,262.8 283.5,262.7 L287.4,252.7 C289.2,252.7 290.4,252.4 291.8,251.5 C294.7,249.6 294.3,245.9 293.1,244.1 C291.6,242 289.4,241.6 289.2,241.6 L289.5,231.3 C289.5,231.4 293.5,229.4 293.9,227.1 C294.5,223.7 293.1,221.5 288.9,220.6 C286.6,220.1 286.7,220.5 286.7,220.5 L283.4,211.1 C288.6,207.9 287,202.8 284.3,201.1 C281.5,199.3 277.6,201 277.6,201 C277.6,201 275.8,199.2 274.4,197.8 L275.9,196.2 Z M136,198.1 C139.4,202.7 145.3,212 148.5,220.2 C148.6,220.6 148.6,222.4 148.6,222.4 C139.3,223.2 136.1,226.8 132.8,229.4 C130.2,228.1 129.2,226.5 124.5,229.4 C124.5,229.5 112.7,222.3 110.5,212.4 C119,207.3 127,202.4 136,198.1 L136,198.1 Z M89,198.2 C90.3,198.2 91.3,199.3 91.3,200.6 C91.3,201.9 90.3,202.9 89,202.9 C87.7,202.9 86.6,201.9 86.6,200.6 C86.6,199.2 87.7,198.2 89,198.2 L89,198.2 Z M111.3,198.6 C112.6,198.6 113.7,199.7 113.7,200.9 C113.7,202.2 112.6,203.3 111.3,203.3 C110,203.3 109,202.2 109,200.9 C108.9,199.7 110,198.6 111.3,198.6 L111.3,198.6 Z M272.1,201.5 C276.2,206.8 282.3,216.9 283.7,225.8 C285.7,238.4 284.4,251.5 278.6,260.8 C268.1,280.5 250,284.7 250,285.4 L249.8,281.4 C250,282.3 263.6,276.5 273,263.5 C278.8,254.7 282,242.1 280.9,232.2 C280.2,218 270.1,205 270.1,204.9 L272.1,201.5 Z M81.6,203.4 C82.9,203.4 84,204.5 84,205.8 C84,207.1 82.9,208.1 81.6,208.1 C80.3,208.1 79.3,207.1 79.3,205.8 C79.3,204.5 80.3,203.4 81.6,203.4 L81.6,203.4 Z M103.9,203.5 C105.2,203.5 106.2,204.6 106.2,205.9 C106.2,207.2 105.2,208.2 103.9,208.2 C102.6,208.2 101.5,207.2 101.5,205.9 C101.5,204.5 102.6,203.5 103.9,203.5 L103.9,203.5 Z M304.6,207.4 C309.8,208 316.2,217.4 322,222.8 L322.1,299.9 L304.8,300.3 C302.5,305.7 297.3,311.1 289,316.4 L289,287.5 C317.3,257 309.6,223.6 304.6,207.4 L304.6,207.4 Z M75.2,208.3 C76.5,208.3 77.5,209.3 77.5,210.6 C77.5,211.9 76.5,213 75.2,213 C73.9,213 72.9,211.9 72.9,210.6 C72.9,209.4 73.9,208.3 75.2,208.3 L75.2,208.3 Z M96.7,208.7 C98,208.7 99,209.8 99,211.1 C99,212.4 98,213.4 96.7,213.4 C95.4,213.4 94.4,212.4 94.4,211.1 C94.3,209.8 95.4,208.7 96.7,208.7 L96.7,208.7 Z M316.8,208.9 L352.3,244.6 L352.2,249.8 L312.2,209.2 L316.8,208.9 Z M109.7,212.3 L110.6,216.8 C109.5,215 109.4,214.3 107.4,214 L109.7,212.3 Z M90.5,213.6 C91.8,213.6 92.8,214.6 92.8,215.9 C92.8,217.2 91.8,218.3 90.5,218.3 C89.2,218.3 88.2,217.2 88.2,215.9 C88.1,214.6 89.2,213.6 90.5,213.6 L90.5,213.6 Z M69.2,214.2 C70.5,214.2 71.6,215.2 71.6,216.5 C71.6,217.8 70.5,218.9 69.2,218.9 C67.9,218.9 66.9,217.8 66.9,216.5 C66.9,215.3 67.9,214.2 69.2,214.2 L69.2,214.2 Z M268.7,214.2 L275.7,219.2 L273.4,228.1 L266.2,221.7 L268.7,214.2 Z M107,215 L108.2,215.7 L106.8,221.8 L90.7,227.6 C95.8,223.2 101.2,218.4 107,215 L107,215 Z M109.6,217.8 C110.7,222.3 113.2,229 116.3,234.7 C114.2,235.8 106.8,240 106.8,241.9 C107.9,245.4 115.7,248.7 115.7,248.7 C112.7,253.5 109.9,259.2 107.6,265.8 C106.3,263.5 106.1,254.5 109,250.8 C106.1,249.7 102.2,247.1 99.3,244.5 C101.2,237.7 109.4,233.7 109.7,233.6 C109.5,233.9 107.3,219.4 109.6,217.8 L109.6,217.8 Z M83.5,219 C84.8,219 85.8,220 85.8,221.3 C85.8,222.6 84.7,223.6 83.5,223.6 C82.2,223.6 81.1,222.6 81.1,221.3 C81.1,220 82.2,219 83.5,219 L83.5,219 Z M262.9,219.1 C273.4,238.6 267.1,255.5 250.5,267.6 L250.9,263 C262.4,254.7 269.9,238.2 261.5,222.5 L262.9,219.1 Z M63.6,219.7 C64.9,219.7 65.9,220.8 65.9,222.1 C65.9,223.4 64.8,224.4 63.6,224.4 C62.3,224.4 61.2,223.3 61.2,222.1 C61.2,220.8 62.3,219.7 63.6,219.7 L63.6,219.7 Z M230.9,219.8 C223.2,248.4 223.4,261.5 222.5,269.3 L192.7,269.6 L191.5,259.3 L230.9,219.8 Z M111.9,220.6 C111.9,220.6 118.4,226.6 124.2,231.8 L123.5,233.2 L117.9,233.9 C113.5,225.5 111.9,220.6 111.9,220.6 L111.9,220.6 Z M106.5,223.8 L106.5,223.8 L106.9,228.1 C105,228 84,236.8 67.9,250.8 C70.3,246.6 74.3,242.5 78.3,239.1 C86.6,230.8 106.5,223.8 106.5,223.8 L106.5,223.8 Z M76.7,224.7 C78,224.7 79.1,225.8 79.1,227 C79.1,228.3 78,229.4 76.7,229.4 C75.4,229.4 74.4,228.3 74.4,227 C74.4,225.8 75.4,224.7 76.7,224.7 L76.7,224.7 Z M89.9,227.4 L91.1,228.6 L85.5,231.5 L89.9,227.4 Z M128.7,228.7 C128.8,228.7 128.9,228.7 128.9,228.7 C129.8,228.8 130.1,229.2 130.6,229.6 C129.5,229.4 128.4,229.2 127.4,229.3 C127.7,229 128.2,228.7 128.7,228.7 L128.7,228.7 Z M107.4,229.5 L107.9,232.7 C95.8,239.6 81.5,246 60.6,265.8 L60.6,259.2 C73.7,247.1 89,236.9 107.4,229.5 L107.4,229.5 Z M123.6,229.8 C124.4,230 125,230 125.7,229.8 C125.7,229.8 125.3,230.7 124.7,230.7 C124.2,230.8 123.6,229.8 123.6,229.8 L123.6,229.8 Z M128.7,230 C130.2,229.9 131.2,231.3 130.9,233.1 C129.7,239.1 129.8,245.3 131,249.6 C132,252.9 132.2,254.1 131.4,254.7 C124.3,259.6 120.4,237.5 126.3,231.2 C127.3,230.4 128.1,230.1 128.7,230 L128.7,230 Z M70.7,230.8 C72,230.8 73,231.9 73,233.2 C73,234.5 71.9,235.5 70.7,235.5 C69.4,235.5 68.3,234.5 68.3,233.2 C68.4,231.9 69.4,230.8 70.7,230.8 L70.7,230.8 Z M275,231.4 L279.4,238.8 L273.2,245.7 L269.5,237.7 L275,231.4 Z M122.8,235.4 L122.6,238 C119.4,239 116.7,240.3 114.3,242.4 C113.8,242.8 121.7,246.3 122.5,245.5 L122.5,248.2 C122.4,249.1 109.6,245 108.7,242 C110.1,239.9 118.2,235.2 122.8,235.4 L122.8,235.4 Z M64.5,236.7 C65.8,236.7 66.8,237.8 66.8,239.1 C66.8,240.4 65.7,241.4 64.5,241.4 C63.2,241.4 62.1,240.4 62.1,239.1 C62.2,237.8 63.2,236.7 64.5,236.7 L64.5,236.7 Z M99.5,239.4 C98.6,241.1 97.2,243.4 97,245.9 C88.2,251.2 79.2,256.2 68.2,268.4 L62.3,268.4 L62.2,266.8 C74.1,255.5 87.1,245.6 99.5,239.4 L99.5,239.4 Z M122.1,240.2 L122.2,243.4 C120.2,243.4 119,242.8 117.5,242 C118.8,241.2 119.8,240.4 122.1,240.2 L122.1,240.2 Z M188.3,240.5 L190,242.2 L189,243.2 L188.3,240.5 Z M99.2,247.2 L102.5,249.2 C94.1,253.6 85.3,260 77.7,268.5 L71.3,268.5 C79.3,259.7 88.1,251.8 99.2,247.2 L99.2,247.2 Z M272.8,249.5 L273.4,258.3 L265.2,262.8 L265.4,253.6 L272.8,249.5 Z M117.3,249.6 L122.9,250.2 L123.5,252.6 C118.8,255.6 114.7,259.1 110.8,262.8 C112.3,258 114.6,253.4 117.3,249.6 L117.3,249.6 Z M103.9,250.5 L106.3,251.6 L105.3,255.7 C98.4,258.8 92.9,262.9 87,268.5 L80.4,268.5 C86.2,262.3 95.9,254.5 103.9,250.5 L103.9,250.5 Z M124.8,254.4 C124.8,254.4 124.8,254.4 124.8,254.4 L125.7,281.4 C101.4,309.8 102.7,337.3 109.8,362.3 L105.2,362.1 C99.8,355.4 92.7,348.6 92.7,348.6 L92.7,270.1 L109.4,270.2 C113.3,261 124.2,254.5 124.8,254.4 L124.8,254.4 Z M105,258.2 L105.2,261.8 C101.7,263.9 98.8,266.1 96.3,268.5 L90,268.5 C94.3,264.5 98.6,260.4 105,258.2 L105,258.2 Z M162.1,259.9 L163,264.1 C106.6,284.5 96.4,343.8 129.7,384.5 L127.4,387 C89.3,346 106,279 162.1,259.9 L162.1,259.9 Z M105.4,264.2 C105.4,264.2 105.7,267.4 105.8,268.5 L99.5,268.5 C101,266.8 102.2,265.1 105.4,264.2 L105.4,264.2 Z M264.1,265.5 L260.5,274 L250.8,274.2 L255.2,265.7 L264.1,265.5 Z M202.7,271.3 L211.5,271.3 L211.5,279.7 L202.7,279.7 L202.7,271.3 Z M164.5,272.2 L164.6,275.9 C160.7,277.9 161.7,281.1 160.7,281 C158.3,281.6 151.9,285 151.9,285 C149.6,282.9 146.6,283.5 145.2,284.5 C143.2,285.8 142.8,288.8 143.4,291.3 L136.6,299.2 C133.3,297.8 130.2,297.9 128.6,300.1 C126.8,302.6 127.5,305.6 130.4,309 L126.7,318.4 C126.3,317.8 120.1,319.6 120,323.3 C119.9,327.2 125.1,329.7 125.1,330 L124.9,340.4 C124.7,339.9 119.6,342 120.3,346.9 C120.9,351.5 127.2,350.9 127.3,351.3 L130.7,361.3 C130.5,361 126.1,365.3 128.8,369.3 C131,372.7 137.5,370.5 137.5,370.3 L139.3,372.8 L137.3,375 C137.3,375 136.4,374 136,374.1 C132.2,374.8 128,374 126,370.9 C123.2,366.7 126.3,360 127.3,360.1 L125,354.4 C120.7,354.3 117.1,350.5 117,347.3 C116.6,340.6 122.1,337.8 122.1,337.9 L122.3,331.7 C122,332.1 116.9,328.5 117,324.4 C117.1,321.4 119.6,317.8 122.8,316.4 C123.7,316 125.1,315.3 125.1,315.3 L127.2,310.2 C127.2,310.2 124.2,305.9 125,301.5 C126.4,294.9 135,295.4 136.4,296 L140.4,291 C138.4,286.4 141.8,281.1 146.3,280.3 C148.3,280 153.8,281.3 153.8,281.3 L158.9,278.7 C158.6,275.7 161.7,273.9 164.5,272.2 L164.5,272.2 Z M193.6,281.4 L201.2,281.4 L201.2,289.8 L193.6,289.8 L193.6,281.4 Z M213.7,281.4 L222.2,281.4 L222.2,289.8 L213.7,289.8 L213.7,281.4 Z M165.1,283.5 L165,286.7 C116.1,310.4 136.1,359.5 143.1,365.2 L141.5,368.7 C133,363.5 110.8,306.8 165.1,283.5 L165.1,283.5 Z M202.7,292.1 L211.9,292.1 L212,300.8 L202.8,300.8 L202.7,292.1 Z M163,296.3 L160.1,304.2 L151.1,305 L154.4,297.1 L163,296.3 Z M346.4,302.1 L352.5,302.1 C341,315.5 328.6,324.7 316.4,329.7 C316.4,329.7 316.4,328.5 316.7,327.6 C317,326.9 316.5,325 316.5,325 C330.1,318.2 339.5,310.4 346.4,302.1 L346.4,302.1 Z M314.9,302.2 C313.3,304.1 311.5,305.8 309.3,307 L308.4,302.1 C310.3,302.1 314.9,302.2 314.9,302.2 L314.9,302.2 Z M325.7,302.1 C326.3,303.7 309.6,312.7 309.5,311.9 L309.5,308.9 L318.5,302.2 L325.7,302.1 Z M329.3,302.1 L329.3,302.1 L334,302.1 C329.7,308.8 307.2,321 308.2,319.3 L309.1,314.4 C316.4,311.2 323,306.8 329.3,302.1 L329.3,302.1 Z M337.3,302.1 L343.5,302.1 C334.2,313.9 324.7,318.3 315.6,323.4 C315.1,323.3 315.3,323.1 313.6,323.2 L310.5,320.8 C311.1,321.2 331.3,309.3 337.3,302.1 L337.3,302.1 Z M163.8,302.5 L163.6,306.1 C150.5,317.3 145.3,331.7 152.1,348.3 L150.5,351.9 C143.2,334.1 145.4,316.8 163.8,302.5 L163.8,302.5 Z M223.2,303.1 L223.9,312.8 L183.4,352.2 C189.6,330.2 191.3,316.9 192.9,303.2 L223.2,303.1 Z M352.9,305.3 L352.9,310.6 C336.9,328.2 320.8,336.1 306.9,339.3 L306.6,337.2 L313,333.2 C333.8,324.3 342.9,315.2 352.9,305.3 L352.9,305.3 Z M304.5,305.5 C304.8,309.4 301.3,316.7 297.4,320.8 L290.6,320.8 L289.9,317.9 C295.4,314.8 300.6,310.7 304.5,305.5 L304.5,305.5 Z M306.5,306.6 C309,310.6 305.3,320.9 305.1,320.5 C304.8,321.2 326.3,325.7 304.2,336.4 C304.7,339.5 306.8,346.2 305.2,350.3 C304.7,348.7 300.9,338 297.9,335.3 C304.8,333.3 309.8,329.1 309.2,327.7 C308.1,325.7 305,323.3 299.8,321.5 C304.2,315.4 305.5,310.8 306.5,306.6 L306.5,306.6 Z M148.5,308.6 L149.2,316.7 L141.3,321.4 L140.7,312.5 L148.5,308.6 Z M285.2,316.1 C285.8,316.1 286.4,316.3 286.7,316.6 C290.6,318.2 290.9,337.1 287.3,339 C284.7,340.6 282.9,338 283,337.6 C284.7,328.9 283.6,323.5 282.9,317.4 C283.1,316.5 284.2,316.1 285.2,316.1 L285.2,316.1 Z M352.9,316.4 L352.9,323.1 C330.1,346.8 305.5,365.4 280.4,375.9 L278.1,372 C308.6,358 334.1,337.8 352.9,316.4 L352.9,316.4 Z M348.9,317 C338.3,331.7 325.4,341.3 307.8,345.7 L307.5,341.5 C329.5,336.6 349.5,317 348.9,317 L348.9,317 Z M61.2,319.4 C75,333.5 89.1,347.4 103.1,361.9 L97.5,362.2 L61,324.3 L61.2,319.4 Z M225.1,320.1 L225.6,323.6 L221.6,328 L227.9,334.8 L228.2,336.4 L222.8,342.1 L220.3,339.7 L223.3,336.3 L218.2,330.9 L208.7,340 L216.5,348.5 L210.6,354.1 L208.3,351.7 L211.3,348.2 L206.1,342.7 L196.5,352.3 L203.8,360.4 L198.9,365.8 L196.6,363.4 L199.1,360.5 L193.8,355.1 L184.5,364 L192.1,372.4 L185.9,378.6 L183.5,376.3 L187,372.5 L181.3,367.1 L176.7,371.4 C176.7,371.4 178.4,367.1 178.7,366.4 C179.1,365.3 180.6,364.5 190.2,355 C201.8,343.4 213.6,332.6 225.1,320.1 L225.1,320.1 Z M291.1,322.4 C294.5,322.5 300.2,323.3 303,324.7 C308.2,327.4 306.5,329.6 303.2,331.2 C299.2,333.1 295.9,334 291.4,334.2 L291.5,332 C294.1,331.4 296.9,330.7 299.2,329.4 C300.8,328.5 301.2,327.8 301.2,327.8 C301.2,327.8 299.6,326.2 297.2,325.3 C295.4,324.6 292.8,324.6 291.4,324.4 L291.1,322.4 Z M140.5,325.4 L144.7,331.8 L139.7,340.2 L134.9,333 L140.5,325.4 Z M226,326.1 C226.1,327.3 227.7,332 226.9,331 L224.1,327.8 L226,326.1 Z M291.4,326.7 C293.7,326.9 296.2,327 297.9,327.8 C295.9,329.3 293.7,329.7 291.4,330.1 L291.4,326.7 Z M350.2,329.9 C351.6,329.9 352.8,331 352.8,332.5 C352.8,333.9 351.7,335.1 350.2,335.1 C348.8,335.1 347.6,334 347.6,332.5 C347.6,331 348.8,329.9 350.2,329.9 L350.2,329.9 Z M218,334.3 L220.2,336.4 L217.4,339.7 L222.5,345.1 L228.8,339.2 L229.6,343 L170.2,401.5 L166.9,401.3 L170.7,396.8 L166.4,392.4 L168.2,389.2 L173.3,393.7 L182.6,384.8 L175.1,376.9 L181.5,370.3 L183.9,372.4 L180.2,376.4 L185.6,381.9 L195.3,372.3 L187.7,364 L193.8,358.2 L196,360.3 L193.2,363.3 L198.7,369.1 L206.9,360.6 L199.4,352.4 L206,346 L208,348 L204.9,351.4 L210.5,357.2 L219.4,348 L212,340 L218,334.3 Z M344.2,335.8 C345.6,335.8 346.8,336.9 346.8,338.4 C346.8,339.8 345.7,341 344.2,341 C342.8,341 341.6,339.9 341.6,338.4 C341.7,337 342.8,335.8 344.2,335.8 L344.2,335.8 Z M295.9,335.9 C299.9,340.6 302.4,345.9 302.8,351.6 C299.6,346.7 295.5,342.4 290.1,338.6 L291,336.2 L295.9,335.9 Z M352.9,336.3 L352.9,342 C334.9,362.4 313,377.8 290.6,388.5 L286.8,383.9 C313.3,372 332.6,357.3 352.9,336.3 L352.9,336.3 Z M326.4,340.3 L319.1,346 L319.1,343.5 L326.4,340.3 Z M288.8,340.7 C295,343.7 300.2,348.9 303.3,356.5 C294.8,361.8 285.5,366.1 276.6,370.4 C272.3,363.5 268.1,357.1 264.7,348.3 C278.4,348.2 282.1,340.7 282.2,340.7 C285.6,341.9 286.3,342 288.8,340.7 L288.8,340.7 Z M338,341.8 C339.3,341.8 340.6,342.8 340.6,344.3 C340.6,345.7 339.5,346.9 338,346.9 C336.6,346.9 335.4,345.8 335.4,344.3 C335.7,342.5 336.9,341.8 338,341.8 L338,341.8 Z M319,343.5 L319,346 C315.5,349.1 308.7,354 308.7,354 L305.9,353.9 L306.8,346.9 C311.1,346 315.3,344.7 319,343.5 L319,343.5 Z M140.3,343.8 L147,349.3 L145,357.8 L138.4,352.8 L140.3,343.8 Z M230.3,345.4 L230.9,347.9 L175.8,402.3 L172.7,401.8 L230.3,345.4 Z M331.9,347.5 C333.3,347.5 334.5,348.6 334.5,350.1 C334.5,351.5 333.4,352.7 331.9,352.7 C330.5,352.7 329.3,351.6 329.3,350.1 C329.3,348.7 330.5,347.5 331.9,347.5 L331.9,347.5 Z M352.2,347.5 C352.5,347.5 352.9,347.5 352.9,347.8 L352.9,352.5 C352.6,352.6 352.3,352.6 352,352.6 C350.6,352.6 349.6,351.5 349.6,350 C349.7,348.7 350.8,347.5 352.2,347.5 L352.2,347.5 Z M346,353.2 C347.4,353.2 348.6,354.3 348.6,355.8 C348.6,357.2 347.5,358.4 346,358.4 C344.6,358.4 343.4,357.3 343.4,355.8 C343.4,354.4 344.6,353.2 346,353.2 L346,353.2 Z M324.5,353.3 C325.9,353.3 327.1,354.4 327.1,355.9 C327.1,357.3 326,358.5 324.5,358.5 C323,358.5 321.9,357.4 321.9,355.9 C321.9,354.4 323.1,353.3 324.5,353.3 L324.5,353.3 Z M306,354.1 L308.6,354.2 L303.7,357.1 C304.6,355.9 305.4,355.1 306,354.1 L306,354.1 Z M352.9,355.2 L352.9,360.5 C340.3,373.1 324.4,386.1 300.1,398.7 L297,395.6 C316.9,386.2 335.5,372.9 352.9,355.2 L352.9,355.2 Z M317.1,358.1 C318.5,358.1 319.7,359.3 319.7,360.7 C319.7,362.1 318.6,363.3 317.1,363.3 C315.7,363.3 314.5,362.2 314.5,360.7 C314.6,359.3 315.7,358.1 317.1,358.1 L317.1,358.1 Z M339.9,358.3 C341.3,358.3 342.5,359.4 342.5,360.9 C342.5,362.3 341.4,363.4 339.9,363.4 C338.5,363.4 337.3,362.3 337.3,360.9 C337.4,359.5 338.5,358.3 339.9,358.3 L339.9,358.3 Z M84.8,368.6 C93.5,363.5 100.5,363 110.4,364.5 L113.4,370.4 C103.7,368.7 93.5,368.8 84.8,375.6 C75.8,369.9 68.9,368.2 61.4,369.2 L61.3,363 C71,361.5 79.7,364.9 84.8,368.6 L84.8,368.6 Z M310.1,363 C311.5,363 312.7,364.1 312.7,365.6 C312.7,367 311.6,368.2 310.1,368.2 C308.7,368.2 307.5,367 307.5,365.6 C307.5,364.2 308.7,363 310.1,363 L310.1,363 Z M333.5,364.1 C334.9,364.1 336.1,365.2 336.1,366.7 C336.1,368.1 335,369.3 333.5,369.3 C332.1,369.3 330.9,368.1 330.9,366.7 C330.9,365.2 332.1,364.1 333.5,364.1 L333.5,364.1 Z M302.4,367.9 C303.8,367.9 305,369 305,370.5 C305,371.9 303.9,373.1 302.4,373.1 C301,373.1 299.8,372 299.8,370.5 C299.8,369 301,367.9 302.4,367.9 L302.4,367.9 Z M326.3,369.4 C327.7,369.4 328.9,370.5 328.9,371.9 C328.9,373.3 327.8,374.5 326.3,374.5 C324.9,374.5 323.7,373.4 323.7,371.9 C323.7,370.5 324.9,369.4 326.3,369.4 L326.3,369.4 Z M294.5,372.4 C295.9,372.4 297.1,373.6 297.1,375 C297.1,376.4 295.9,377.6 294.5,377.6 C293.1,377.6 291.9,376.4 291.9,375 C291.9,373.6 293,372.4 294.5,372.4 L294.5,372.4 Z M319.4,374.6 C320.8,374.6 322,375.7 322,377.1 C322,378.5 320.9,379.7 319.4,379.7 C317.9,379.7 316.8,378.5 316.8,377.1 C316.9,375.7 318,374.6 319.4,374.6 L319.4,374.6 Z M286.9,376.3 C288.3,376.3 289.5,377.4 289.5,378.9 C289.5,380.3 288.3,381.4 286.9,381.4 C285.5,381.4 284.3,380.3 284.3,378.9 C284.3,377.5 285.5,376.3 286.9,376.3 L286.9,376.3 Z M173.7,378.6 L180.1,384.4 L173.5,391 L171.1,388.7 L174.8,384.9 L172.3,381.6 L173.7,378.6 Z M312.3,379.2 C313.7,379.2 314.9,380.3 314.9,381.8 C314.9,383.2 313.8,384.4 312.3,384.4 C310.9,384.4 309.7,383.3 309.7,381.8 C309.8,380.4 310.9,379.2 312.3,379.2 L312.3,379.2 Z M305,383.6 C306.4,383.6 307.6,384.7 307.6,386.2 C307.6,387.6 306.5,388.8 305,388.8 C303.6,388.8 302.4,387.7 302.4,386.2 C302.4,384.7 303.6,383.6 305,383.6 L305,383.6 Z M297,387.9 C298.4,387.9 299.6,389 299.6,390.5 C299.6,391.9 298.5,393.1 297,393.1 C295.6,393.1 294.4,392 294.4,390.5 C294.4,389.1 295.5,387.9 297,387.9 L297,387.9 Z M165.2,395.1 L167.3,396.8 L164,400.7 L161.5,400.7 L165.2,395.1 Z M125,405.7 C117.7,409.3 114.3,411.6 109.2,416 L102,406 L125,405.7 Z M75.6,405.8 L94.9,406.1 L88.5,415.2 C84.3,410.7 80,407.7 75.6,405.8 L75.6,405.8 Z M98.6,406.8 C100.7,407.5 106.2,415.3 108.8,419.5 C114.3,415.1 119.7,410.2 125.6,407.6 C118.6,415 112.5,422.6 108.1,430 C106.9,426.7 103.4,417.2 99.1,413 C92.2,419.4 89.5,427.2 89.5,427.2 C85.8,420.9 81.4,414.6 76.2,408.7 C75.4,407.5 82.5,412 89.5,418.8 C91.4,413.8 96.8,407 98.6,406.8 L98.6,406.8 Z M75.4,411.7 C78.7,414.3 87.7,425.9 88.8,432.9 L84.5,433.2 C82.2,426 78.3,418.9 75.4,411.7 L75.4,411.7 Z M123.5,412.9 C120.2,419.6 116.2,426.5 113.3,433.9 L109,433.7 C113.7,423.5 115.4,421.6 123.5,412.9 L123.5,412.9 Z M99,415.9 C99,415.9 99.1,415.9 99,415.9 C103.2,421.5 105.1,426.9 106.3,433.4 L103.2,433.3 C103.2,433.3 101,426.7 99.5,424.4 C98.5,423 97.7,423.2 97.1,424.3 C95.5,427.1 95,429.9 94.1,432.9 L90.5,432.6 C89.7,427.7 97.7,416 99,415.9 L99,415.9 Z M98.4,435 C99.9,435 101.4,436.6 101.4,439.4 C101.5,440.7 100.5,443.6 99.4,443.8 C97.4,444.9 94.9,441.5 95.5,438.7 C96.1,436.2 97.1,435 98.4,435 L98.4,435 Z M91.3,435.5 C94.2,435.7 94.8,442.3 93.6,443.6 C92.2,444.9 88.7,444 88.3,441.7 C87.2,438.7 89.4,435.5 91.3,435.5 L91.3,435.5 Z M105.6,435.5 C108.8,435.9 108,443.1 106.3,444.1 C103.8,445.4 101.8,443.2 102.7,439.8 C103.4,437.2 104.4,435.5 105.6,435.5 L105.6,435.5 Z M112.9,436.7 C116.5,437.1 114.4,443.4 112.8,444.7 C110.5,446.5 108.3,443.8 109.4,440.6 C110.3,438.1 111.7,436.6 112.9,436.7 L112.9,436.7 Z M83.7,436.9 C86.3,437.3 87.9,443.3 86.3,445 C85.5,446 83.1,444.6 82,442.9 C80.7,440.9 81.9,436.8 83.7,436.9 L83.7,436.9 Z M111.7,449.8 C112,452.9 109.6,452.9 102.9,451.4 C99.5,450.6 93.4,451.1 90.3,451.7 C85.1,452.7 84.3,452.3 84.3,450.2 C84.3,447.7 87.2,446.3 94,446.1 C98.9,445.9 111,445.9 111.7,449.8 L111.7,449.8 Z M122.3,448 C114.2,448.8 112,458.9 112.9,462.7 C113.6,469 113.3,475.5 112.1,479.8 C111.2,482.9 110.5,486.2 109.1,489 C107,493.2 107.5,496.4 110.7,498.1 C113.3,499.5 116.5,499 118.5,496.9 C122.1,493 122.5,484.8 120.3,466 C119.5,459.4 119.9,458.1 123.1,458.5 C129.9,458.4 129.6,448 122.3,448 L122.3,448 Z M121.3,456.5 C119.5,455.8 118.3,457.4 118.5,461.5 C118.6,463.3 118.9,465.4 119.1,467 C121.7,485 120.7,497 115.2,497.6 C110.4,498.4 107.1,494.8 109.5,491.2 C110.8,489.1 112,488.9 114.5,489.9 C118.1,492.1 117.2,488.9 114,486.5 C112,485 111.8,485 112.9,480.5 C114.4,474.4 114.9,470 114.3,462.3 C113.5,456.8 115.4,449.6 122.3,449.1 C129.5,449 127.4,459 121.3,456.5 L121.3,456.5 Z M71.6,480.2 C73.9,481.3 76.1,481.1 78.3,480.2 C79.1,476.4 79.2,473.2 81.8,468 C77.5,463.7 70.3,465.4 68.3,469.9 C66.2,474.4 68.1,478.5 71.6,480.2 L71.6,480.2 Z M78.5,466.9 C81.1,467.5 80.7,470.2 78.3,469.3 C72.5,466.6 67.7,474.8 72.4,477.9 C74.8,479.2 75.9,478.5 73.5,476.6 C72.5,475.5 72.8,475 73.4,473.9 C74.6,471.6 79.1,472 78.7,473.6 C77.7,478.8 77,480.3 75.4,480.3 C66.4,480.9 64.7,464 78.5,466.9 L78.5,466.9 Z M155.3,476.3 C155.3,476.3 128.4,506.8 115.4,522.4 L278,521.6 L247,478.9 C220.5,485 189.3,483.3 155.3,476.3 L155.3,476.3 Z M154.5,486.1 C158.6,486.1 163.2,489.1 167.2,498.9 C167.4,499 185.1,472.1 200.4,499.9 C202.9,493.6 217.3,477.3 234,498.3 C239.9,484.3 253.6,489 254.8,493.9 C254.5,492.8 241.8,489.8 236.3,499.1 C235.3,501.1 235.2,502.9 236.4,504 C239.1,506.6 236.2,510.3 233,508.2 C231.8,507.4 231.6,505.6 232.6,504.4 C235.4,502.3 229.7,495.9 225,493.6 C218.6,490.4 209.7,491.8 205.4,496.4 C203.1,498.8 201.7,501 201.3,502.8 C201.1,503.6 201.2,504.1 201.7,504.6 C203.6,506.8 202.3,509.9 199.8,509.5 C196.5,509 196.9,505.9 199.1,504.2 C199.8,503.9 199.5,503.5 199.3,502.9 C193.3,486 170.9,489.2 168.4,500.9 C168.3,501.3 168.1,501.8 168.2,502.2 C168.5,503.3 169.1,504.3 168.9,505.1 C167.9,508.7 163.4,507.7 163.2,504.7 C163.1,503.3 164.6,502.9 165.3,501.7 C165.7,500.9 165.9,500 165.5,499.1 C159.4,486.4 149,489 143.8,491.9 C143.8,492.1 148.5,486 154.5,486.1 L154.5,486.1 Z M147.7,493.4 C149.9,493.3 151.9,494.4 153.8,496.6 C160.2,493.2 164.7,499.1 163.9,499.6 C154.9,493.7 152,507.4 160.8,506.9 C156.9,515 170.8,518.4 169.3,508.1 C177.9,511.1 179.3,499.3 170.6,499.5 C173.4,494.6 180.7,496 183.8,499 C187.4,494.6 196.4,498.8 197.2,502.6 C187.2,497.5 186.2,513.1 195.9,509.8 C193,519.8 208.4,518.4 204.2,509.8 C213.8,513 212.5,498.6 203.1,501.5 C202.5,500.8 210.6,492.5 216.4,500.3 C217.2,498.9 226.3,494.4 231.3,501.5 C220.5,497.8 222.5,512.4 230.3,509.5 C228.2,519.1 242.2,517.6 238.6,509.4 C249.4,512.1 244.6,495.6 237,501.7 C238.2,495.1 247.3,497.8 247.2,498.8 C247.2,498.8 252,493.6 257.4,497.4 C248.9,498.1 251.8,509.5 259.8,506.3 C259.7,510.2 262.9,512.7 267.3,511.4 L274.1,521 L118.2,522 L130.6,507.2 C134.8,510.6 139.1,509 139.6,503.6 C148.7,509.2 151,496 142.5,495.4 C144.6,494.1 146.2,493.5 147.7,493.4 L147.7,493.4 Z M139,497.7 C139.5,498.1 138.8,499.9 137.6,499.4 L139,497.7 Z M260.6,501.5 C261.1,502.2 261.4,502.6 261.9,503.3 C262,503.9 259.4,503 260.6,501.5 L260.6,501.5 Z" id="Shape" fill="#000000" fill-rule="nonzero"></path>
        </g>
    </g>
</svg>