<?xml version="1.0" encoding="UTF-8"?>
<svg width="420px" height="587px" viewBox="0 0 420 587" version="1.1" xmlns="http://www.w3.org/2000/svg" xmlns:xlink="http://www.w3.org/1999/xlink">
    <!-- Generator: Sketch 61.2 (89653) - https://sketch.com -->
    <title>13S</title>
    <desc>Created with Sketch.</desc>
    <g id="Page-1" stroke="none" stroke-width="1" fill="none" fill-rule="evenodd">
        <g id="13S" transform="translate(0.000000, 1.000000)">
            <path d="M20.3,0.1 L399,0.1 C410,0.1 418.9,9 418.9,20 L418.9,564.8 C418.9,575.8 410,584.7 399,584.7 L20.3,584.7 C9.3,584.7 0.399165497,575.8 0.399165497,564.8 L0.399165497,20.1 C0.3,9 9.2,0.1 20.3,0.1 L20.3,0.1 Z" id="Path" fill="#FFFFFF" fill-rule="nonzero"></path>
            <path d="M20.3,0.1 L399,0.1 C410,0.1 418.9,9 418.9,20 L418.9,564.8 C418.9,575.8 410,584.7 399,584.7 L20.3,584.7 C9.3,584.7 0.399165497,575.8 0.399165497,564.8 L0.399165497,20.1 C0.3,9 9.2,0.1 20.3,0.1 L20.3,0.1 Z" id="Path" stroke="#000000" stroke-width="0.7974"></path>
            <path d="M56,48.5 L362.6,48.5 L363.2,538.6 L55.7,537.8 C55.7,537.8 55.7,218 56,48.5 L56,48.5 Z M273.1,534.3 C273.1,534.3 255.5,501.9 246.3,484.2 C245.5,482.7 244.9,481.5 244.2,481 C243.1,480.2 242.8,480.6 238.8,481.5 C206.1,489.9 169.9,490.9 137.2,484.5 C135.7,484.3 135.1,485 135.1,485.9 C124.8,500.5 116.8,515.2 106.7,530.7 C104.6,534 104.4,534.3 104.4,534.3 L273.1,534.3 Z M169.3,473.4 C167.6,473.4 165.7,474.5 166,473.6 C166.2,473.1 166.7,467.8 166.9,465.9 C167.4,465.1 168.1,467.3 168.1,469.3 C168.1,470.5 168.6,469.6 172.5,469.8 C176.7,470 180.1,470.8 181.5,471.1 C186.5,472.2 196,471.4 200.2,468.4 C202.4,466.8 203.3,468.5 201,470.3 C190.6,478.1 182.4,475.1 173.4,473.8 C172,473.7 170.7,473.4 169.3,473.4 L169.3,473.4 Z M173.7,466 C173.1,465.6 172.6,465.5 171.8,465.9 C168.6,467.4 169.4,465.3 171.7,463.1 C172.8,462.1 172.7,461.6 171.9,460.6 C171.5,460.1 170.8,460 171,459.2 C171.7,455.8 176.4,450.8 181.7,448.5 C183.9,447.6 184.2,448.6 181.5,450.2 C177.2,452.7 175.8,454.8 178.3,453.9 C183,452.2 187.3,453.4 193.2,456.4 C194.9,457.2 195.7,457.4 197.2,457.3 C198.3,456.4 199.2,457.5 199.9,458 C200.3,458.3 200.4,458.5 200.9,458.4 C204.3,457.6 202.3,459.8 197.6,463.1 C189.2,469.2 180.1,472 173.7,466 L173.7,466 Z M186.5,467.5 C189.9,466.5 194.1,464.3 196.6,462.1 C199.7,459.4 197.9,459.8 194.4,461.5 C189.2,464 185.6,464.7 179.8,464.5 C174.9,464.4 175.1,464.2 174.9,464.8 C174.3,467 181,469.1 186.5,467.5 L186.5,467.5 Z M177.1,459.2 C177.4,458.3 177.6,457.1 177.3,456.7 C176.9,456 175.9,456.5 174.7,458.1 C173.9,459.1 174,459.2 174.8,459.9 C175.2,460.2 175.5,460.4 175.7,460.5 C176.7,460.9 176.9,460 177.1,459.2 L177.1,459.2 Z M179.2,460.5 C180.7,455.4 184,455.5 186.4,460.4 L188.1,460.4 C184.6,451 177.9,455.8 177.7,460.4 C178.5,460.7 179.2,460.5 179.2,460.5 L179.2,460.5 Z M191.7,459.6 C193.3,458.7 193,458.1 191,457.1 C189.6,456.4 188.8,456.2 188.6,456.7 C188.6,457.7 188.7,459.2 189.3,460.1 C189.9,460.5 190.8,460.1 191.7,459.6 L191.7,459.6 Z M169.6,445.3 C169.3,444.8 169.4,444 170.5,443.5 C177.3,440.4 172.3,433.8 167.1,438.7 C165.4,440 163,440.7 161.1,439.9 C159.3,439.1 159.3,437 161.7,436.5 C162.5,436.3 164.5,435.9 165.2,435.4 C174.3,430.6 179.1,441.1 172.7,444.6 C171.2,445.3 169.8,445.7 169.6,445.3 L169.6,445.3 Z M144.1,435.7 C140.4,434 139.9,428.3 143.4,426 C145.6,424.5 147.9,424.1 153.9,427.1 C158.2,429.2 160.6,426.9 160.5,429.4 C160.4,430.9 160.3,432.4 157.9,432.7 C153.9,433.3 151.1,427.8 145.9,428.3 C142.1,428.7 142.6,433.1 145.3,434 C148.9,435.3 146.7,436.8 144.1,435.7 L144.1,435.7 Z M211.9,436.6 C211.2,436.9 210.9,435.4 211.2,434.7 C213,430.4 214.7,426.9 216.4,422.8 C217.7,419.6 218.6,418.2 219.2,418.2 C219.8,418.2 220.1,418.7 219.1,420.7 C217.6,424.6 211.9,436.9 211.9,436.6 L211.9,436.6 Z M181.7,435.4 C180.1,434.3 180.3,432.5 182.2,433.8 C184.6,435.5 188.5,432.4 187.7,429.5 C186.7,426 182.1,425.2 178.2,428.3 C172.1,433.2 165.3,433.5 165.3,429.6 C165.3,428.5 165.2,428.3 167.7,428.1 C170.7,427.9 174,426.6 175.7,425.5 C183.2,421 191.1,424.1 189.5,431.6 C188.7,435.4 184.3,437.1 181.7,435.4 L181.7,435.4 Z M154.2,424.3 C153.6,424.3 152.5,424.9 152.2,424.6 C151.6,424.1 151.7,422.8 151.2,421.4 C150.3,418.9 151.2,419.7 152.8,420.3 C155,421.1 157,421 158.9,420.3 C160.8,419.7 163.3,419.8 167.2,420.3 C170.4,420.7 172.2,420.6 175.1,419.8 C178.3,418.8 177.4,419.2 176.9,421.1 C176.6,422.4 176.1,424.1 175.7,424.5 C173.5,423.3 171.9,423.8 170.4,424.6 C168.1,425.6 166.4,425.8 164.5,425.2 C162.7,424.2 161.6,424.3 160.2,425.2 C157.6,426.4 156.5,424.4 154.2,424.3 L154.2,424.3 Z M201.1,419 C201.5,418.2 202.2,417.2 202.8,416 C207.7,406.4 208,403.8 204.6,400.5 C200,396.2 196.1,398 191.7,406.7 C190.6,408.8 190,410.4 189.6,411 C189.1,411.8 188.5,411.2 188.2,410.9 C187.7,410.3 192.6,401.2 194.5,399.1 C199.5,393.9 208.8,398.1 208.3,405.2 C208,408.8 207.3,410.8 204,417.4 C203.2,419 202.5,420.4 202,421.1 C200.3,422.2 200.7,419.8 201.1,419 L201.1,419 Z M155.3,418.6 C156.1,415.2 167.1,413.6 170,418.1 C170.3,418.5 170.1,418.5 168.9,418.2 C163.3,416.4 162.2,416.5 156.8,418.6 C156,418.9 155.4,419 155.3,418.6 L155.3,418.6 Z M197.3,418 C197.3,417.7 197.7,416.4 198.3,415.2 C202,408 203,406.3 201.9,404.9 C199.7,402.3 196.8,404.5 194.1,412.1 C193.1,414.9 192.4,414.3 191.9,413.9 C191,413.1 195.1,404.3 197.1,403 C201.7,400.1 205.2,403.4 203.2,409.3 C201.6,412 200.3,416 198.9,418.2 C198.3,419.1 197.3,418.8 197.3,418 L197.3,418 Z M180.9,406.3 C180.7,405.9 181.1,405.4 182.7,402.1 C184.9,397.5 185.5,395.8 184.7,393.1 C183.1,388.4 177.2,387.3 173.6,390.3 C172.4,391.3 171.6,392.7 171.1,393.9 C169.8,396.8 168.7,400.5 167.9,401.2 C167.2,401.9 166.3,402 166.3,400.8 C167.2,398.3 167.6,396.4 169.6,392.7 C174.6,381.8 189.2,386.9 185.8,398.3 C184.5,402.4 183.1,405.6 182.2,406.6 C181.7,407.3 180.9,406.9 180.9,406.3 L180.9,406.3 Z M177.5,404.3 C177.5,403.9 178,402.9 178.6,401.5 C181.1,395.5 181.1,393.6 177.5,393.5 C175.4,393.8 175,394.6 173.2,399.4 C172.6,400.9 172.3,402 171.9,402.5 C171.5,403 170.8,402.7 170.5,402.4 C169.7,401.6 173.1,393.8 174.9,392.4 C179,388.9 184.2,393.9 181.8,398.4 C180.6,401.5 179.6,403.7 179,404.6 C178.3,405.5 177.5,405.3 177.5,404.3 L177.5,404.3 Z M90.8,334 L78.4,333.2 C80.6,346.3 80.7,360.8 78.5,371.1 C76.6,379.9 76.6,386.3 77.2,394 C77.9,402.8 81.6,410.4 82.6,419.8 C83.3,426.6 81.8,433.7 80.4,440.5 C78.1,451.8 78.6,453 78.9,466.3 C79.2,478.6 78.1,478.2 77.3,477.4 C77.2,477.3 77.1,475.1 77.1,472.5 C77.1,469.9 77,463.6 76.8,459.2 C76.5,450.4 77.5,442.7 78.2,439.5 C79.6,433 81.3,426.3 80.3,419.2 C78.3,410.1 75.4,401.1 74.4,392.3 C73.2,381.5 76.2,370.7 77.2,362.8 C78.2,355.2 77.1,342.1 75.1,336.7 C74.8,334.9 73.1,332.5 73.1,332.5 C71.2,332.2 69.4,332 66.7,332 C66.6,384 66.7,435.9 66.7,487.9 L78.2,498.5 L90.1,487.3 L90.8,334 Z M91.7,393.6 C91.7,393.6 109.3,403.7 128.7,413.6 C126.9,402.3 132.7,400.6 138.2,399.2 C136.9,377.3 157,381.8 160.1,400.8 L162.1,400.8 C165.6,391.3 169,384.8 177,383.2 C183.2,382 189.2,385.9 190.8,395 C190.5,394.4 211.2,382.9 211.8,407.1 C221.2,401.3 227.9,406.3 230.6,413.7 C234.6,407.7 244.5,407.4 247.7,407 C248.8,405.7 250.8,405 254.3,405 C257.3,404.8 261.4,402.6 263.5,405.3 C266.7,405.8 269.1,405.2 271.9,407.3 C274.1,408.9 276.5,412.6 280.1,410.1 C287,406.8 294.8,405.3 300.9,401.3 C300.9,401.3 299.3,399.2 299.7,399.5 C299.9,399.6 300.6,400.6 301.8,401.1 C302.2,401.3 306,399 306,399 C280.3,369.5 259.1,312 273.1,258.7 C273.5,257.8 271.9,257.4 271.2,257.1 C271.4,256.7 275.2,257.2 273.6,260.6 C272,270.8 270.2,281.9 269.7,290.3 C269.7,291.3 269.8,292.3 269.8,292.3 C327.5,318.8 320.4,376.1 305.6,396 L307.9,399.1 C308.9,399.8 353.3,374.1 351.8,373 L360.2,368.8 L359,256.6 L325.8,254.1 C325.8,254.1 326.2,253.2 326.6,252.9 C326.9,246 326.3,235.9 326.6,227.4 C326.7,203.1 327,194.9 326.7,194.2 C316.5,187.5 301.2,177.7 288.4,172.9 C288.9,173.1 288.2,183 287.8,183.5 C275.8,187.3 281.4,192.2 276.9,197.4 C273.9,200.7 266.9,201.3 263.6,197.4 C259.6,193.5 257.7,184.6 257.7,184.6 C251.3,191.4 252.7,199.5 244.1,202.6 C230.4,209.4 226.1,189.2 226.9,189.6 C221.7,194.6 206.9,198.7 205.4,177.5 C198.8,183.6 191.4,180.6 188.2,173.1 C184.2,173.2 179.6,176.4 175.6,178.1 C171.8,179.8 167,180.7 163.4,180.7 C158.9,181.2 155.2,181.2 151.1,180 C149.2,180.6 144.9,178.8 143.6,176.1 C141.6,173.7 139.8,173.6 137.9,174 C131.3,177.4 124.3,178.3 116.5,181.9 C116,182.2 117.2,182.9 116.8,182.7 C116.6,182.6 112.7,184.6 112.7,184.6 C152,236 154.1,287.9 145.9,324.7 C145.6,326 145.4,326.9 146.2,327.9 C145,327.7 144.9,328.1 144.7,327.3 L148.8,296.4 C148.9,292.7 149.4,293 146.1,291.6 C143.1,290.3 140.2,289.1 137.7,287.5 C128.1,280.4 117.3,271.7 112,260.9 C96.9,237.6 101.9,209.7 113.2,187.7 L110.4,184.8 C77.3,201.3 57.9,219 57.9,219 L58,329.3 L91.9,333.2 L91.7,393.6 Z M75.3,319.9 C74.2,318.7 71.5,318.5 70.3,319.4 C70,319.6 69.5,320.8 69.3,320.8 C67.8,320.4 66.7,320.1 66.5,318.8 L68.1,316.4 C69.4,314.5 71.2,313.8 74.4,313 C75.5,312.7 77.2,312.5 77.8,312.3 C80.2,311.3 81,309.1 78.6,310.1 C76.9,310.6 74.4,310.4 74.1,308.8 C73.8,307.5 72.7,307 71.5,307.1 C69.2,307.7 67.1,308.8 65.1,310 C64.2,310.5 62.5,311.8 62.5,311.8 C62.2,312.2 61.2,309.2 62.2,308.3 C63.4,308.4 64.3,308.5 65.5,308 C68.3,306.9 71,305.6 73.8,304.5 C75.6,303.8 75.8,303.9 75.3,302.6 C75.1,302.1 74.9,300.6 75.2,299.8 C75.5,298.9 75.5,298.5 74.9,298.1 C73.6,297.3 70.6,298 66.3,300.1 C65,300.7 64.1,301 63.3,301.6 C63.8,300.3 63.5,300 63.5,298.6 C65.2,298.8 66.8,298.1 68.2,297.4 C69.4,296.8 70.6,296.2 73.8,295.8 C74.7,295.7 74.3,292.5 73.3,291.6 C72.4,290.7 70.4,290.7 68,291.4 C65.9,291.9 63.3,292.4 61.8,294.6 C60,296.3 61.8,291.7 65.2,289.9 C66.7,289.9 69.9,289.2 70.7,289 C72,288.7 72.2,285.7 70.3,284.4 C69.1,283.4 74.6,283.4 74.5,283.7 C74.4,283.9 74.4,285.2 74.8,285.5 C77.2,286.2 77.1,288.1 77.3,288.9 C80,293.3 81.3,290.5 83.2,289 C82.8,298.6 86.2,299.7 86.6,300.3 C82,308.9 85.5,309.1 89.8,311.1 C89.8,311.1 88.2,311.8 87.1,311.7 C85.4,311.6 82.1,313.6 80.6,314.8 C79.8,315.5 79.8,314.9 76.6,314.8 C73.6,314.7 73.4,314.9 72,315.5 C69.3,316.7 69.3,317.8 72,317.4 C74.8,316.9 77.6,318.6 77.9,320.9 C78.1,321.3 77.9,322.1 77.9,322.1 C77.3,322 76,322.2 76,321.9 C75.9,321.7 75.9,320.6 75.3,319.9 L75.3,319.9 Z M79.4,308.3 C80.2,307.8 80.3,306.4 79.6,305.9 C79,305.4 76.4,305.7 75.7,306.3 C74.1,307.6 77.1,309.7 79.4,308.3 L79.4,308.3 Z M81.1,302.5 C82,301.8 82.2,300 81.3,299 C79.9,297.3 76.3,298.3 76.1,300.5 C75.9,302.8 79.1,304.1 81.1,302.5 L81.1,302.5 Z M79.9,294.6 C80.1,292.7 78.2,291.5 76.4,292.4 C74.2,293.5 75.5,295.9 78.3,295.8 C79.8,295.7 79.8,295.7 79.9,294.6 L79.9,294.6 Z M73.5,286.9 C72.5,287.4 72.4,288.6 73.4,289.4 C77.2,291.4 76.1,285.8 73.5,286.9 L73.5,286.9 Z M340.3,298.3 C338.6,292.1 334,298.3 334,298.3 C333.8,292 335,289.2 330.3,287 C335.1,279.8 334.1,278.8 329,276.1 C329.5,276.1 335.7,274.8 336.8,271.2 C337,271.4 346.6,273.7 347.8,268.5 C344.9,269.8 339.2,270 339.2,264.4 C339.7,264.2 341.1,264.5 341,264.7 C340.2,268.3 346.8,269.2 347.9,266.3 C347.9,266.3 350.1,267.8 351.1,268 C351.2,268.1 348.1,272.3 345.3,273 C340.2,274.7 338.5,275.1 338.5,276.1 C338.5,276.5 339.3,276.6 340.8,276.9 C344,277.1 343.9,277.8 344.3,278.8 C344.7,279.7 345,279.9 346.1,279.8 C349.7,278.6 351.5,278 354,275.5 C354.3,275.4 354.7,278.1 354.9,278.2 C354.9,277.8 352.4,278.5 348.4,280.8 C345.2,282.7 343.9,283 343.5,283.5 C343.2,283.9 344,285.1 344.1,286.4 C344.2,287.5 343.4,288 344,288.3 C344.6,288.7 345.6,288.6 346.9,288.3 C349.7,287.6 351.7,286.5 354.3,285 C353.8,286 354.7,288.6 354.7,288.6 C354.7,288.6 353.5,287.7 352.4,288.2 C350.4,289.1 347.3,290.2 346.4,290.4 C345.6,290.6 345.2,290.7 344.9,291 C344.5,291.3 344.6,292.2 344.6,293.3 C344.6,294.1 344.4,294.9 344.9,295.2 C346.1,295.6 348.4,295.5 350.9,294.6 C351.9,294.1 354.1,293 354.1,293 L353.4,296.5 C352.5,295.5 349.9,296.2 348.1,296.9 C347.2,297.2 346.9,297.7 346.7,298.5 C346.3,299.8 347.1,300.7 348.1,301.2 C348.7,301.5 349.7,301.4 349.7,301.4 C345.2,303.1 346.1,303.8 343.4,302.5 C341.9,301.2 340.8,299.9 340.3,298.3 L340.3,298.3 Z M345.1,298.3 C344.3,297.4 343,296.9 342.3,297.3 C341.6,297.7 341.9,298.4 342.1,299 C342.6,300.5 346.6,300 345.1,298.3 L345.1,298.3 Z M342.4,293.9 C343.5,292.5 342.3,290.6 340.3,290.6 C338.9,290.6 338.2,291.4 338.2,292.5 C338.3,294.5 341.5,295 342.4,293.9 L342.4,293.9 Z M340.2,288.6 C342.2,288.1 342.8,286.2 341.4,284.8 C340.4,283.8 337.4,283.7 336.6,284.6 C334.5,286.8 336.9,289.5 340.2,288.6 L340.2,288.6 Z M341.9,281.6 C343.1,281 343.3,280 342.3,278.9 C340.4,277.3 337.2,278.6 338.2,280.9 C338.7,282 340.5,282.3 341.9,281.6 L341.9,281.6 Z M103.9,228.6 C105.6,228 106.9,226.6 108.7,225.6 C109.9,224.9 109.6,225 108,224.1 C106.8,223.5 104.3,221 104,221.6 C103.4,222.7 103.5,228.5 103.9,228.6 L103.9,228.6 Z M148,290.1 C148.1,288.9 148.2,287.1 148.2,285.8 C148.4,283.3 148,284 146.6,284.8 C145.6,285.4 144,286.4 143.3,286.8 C140.8,288 141.1,288.1 144.6,289.8 C147.6,291.1 148,291 148,290.1 L148,290.1 Z M144.6,284.2 C147,282.7 147.8,281.9 147.9,280.2 C147.9,278.2 147.7,277.5 146,278.9 C140.1,283.5 134.1,274.5 139.5,269.5 C140.6,268.5 142,266.9 142,266.5 C142.1,263.6 138.8,266.4 136.1,270.4 C133.1,274 131.3,278.6 133.9,282.9 C135.9,286.1 140.5,286.7 144.6,284.2 L144.6,284.2 Z M131.2,278.3 C131.1,276.9 131.5,275.3 131.7,274.8 C132.4,273.1 132.3,272.9 129.3,274.3 C128.1,274.7 126.7,275 126.1,275 C123.7,275 124.3,275.7 127.8,278.6 C131.4,281.6 131.5,281.9 131.2,278.3 L131.2,278.3 Z M139.5,264.4 C139.9,263.5 139.1,263.2 138.4,263.3 C138.3,263.3 137.1,264.3 135.6,265.4 C131.1,269 127.7,269.4 125.4,266.7 C123.1,263.9 124.1,260.7 129.2,256.9 C131.5,255.2 132,255.1 130.9,254.4 C130.1,253.8 130,253.9 126.8,256.1 C120.3,260.5 118.3,263.5 119,267.9 C119.1,269.7 120.1,270.6 121,271.3 C127.2,277 135.8,269.4 139.5,264.4 L139.5,264.4 Z M146.1,267 L145.7,260.9 C139.1,255.2 132.7,245.4 130.6,237.4 C128.4,230.2 130.1,215.3 130.5,216.4 L126.9,209.6 C123.8,216.8 122.4,227.8 125.8,238.9 C128.7,248.4 134.5,259.9 146.1,267 L146.1,267 Z M118.1,263.4 C120.2,259.4 120.3,259.8 116.2,259.8 C111.5,259.8 112.1,259.2 114.7,263.2 C116.8,266.3 116.5,266.6 118.1,263.4 L118.1,263.4 Z M120.9,257.9 C123.6,257 123,257.2 126.5,254.9 C130.6,252.2 130.8,250.8 126.7,252.8 C121.4,255.4 116.8,254.7 115.1,251.3 C113.6,248.2 116.8,244.5 122,243 C123.8,242.5 124.7,242.1 124.7,241.3 C124.7,238.9 115.8,242.1 112.1,245.7 C105,252.7 111.3,261 120.9,257.9 L120.9,257.9 Z M109.4,247.1 C109.6,246.7 110.3,245.9 110.9,245 C113.4,242.1 111.3,243 109.1,242.2 C107.9,241.8 106.7,241.3 106,241.4 C104.7,241.6 106.4,244.2 106.9,245.8 C108.1,249.5 107.9,249.4 109.4,247.1 L109.4,247.1 Z M119,240.4 C123.5,240 124,239.5 124,238.6 C124,237.7 123.5,237.9 121.2,238.2 C115.2,239 111.2,237.5 110.4,234.3 C109.5,231 113.6,227.9 119,228.1 C121.9,228.2 123.9,227.2 122.1,226.2 C121.2,225.7 113.1,225.8 111.3,226.3 C105.9,227.9 103.7,230.8 104.2,234.9 C104.9,240 107.7,241.4 114.5,241.1 C115.7,241.1 117.4,240.6 119,240.4 L119,240.4 Z M122.4,223.8 C122.4,223 121.1,222.9 116.9,222.3 C111.2,221.5 108.7,216.2 112.1,213.1 C113.4,211.9 116.5,211.4 118.2,211.7 C121.9,212.4 124.2,213.1 124.3,211.9 C124.3,210.8 123.2,210.7 116.2,209.2 C105.6,207 99.8,217.3 108.3,222.4 C111.5,224.3 122.4,225.4 122.4,223.8 L122.4,223.8 Z M125.1,209 C125.1,208.6 124.8,208.3 123.9,208 C122.7,207.5 122,207.5 119.3,205.7 C115.8,203.3 114.7,198.8 117.1,196.2 C119.4,193.8 115.3,191 112,193.7 C108.6,196.5 108.9,200.9 112.8,204.4 C116.4,207.5 125.1,210.9 125.1,209 L125.1,209 Z M107.9,208.4 C111.6,206.7 114.2,207.7 111.4,205.3 C109.8,203.8 108.5,199.7 107.4,203.2 C106.6,205.3 105.9,209 105.9,209.4 C106.1,209.6 106.1,209.2 107.9,208.4 L107.9,208.4 Z M238.3,199.5 C234.1,198.5 231.2,193.6 232.3,188.9 C232.9,186.3 235.4,180 235.9,179.7 C237.8,178.2 237.5,180.2 235.8,183.6 C234.3,187.1 233,189.8 233.5,191.9 C234.2,194.8 235.4,197.1 238.4,197.8 C240.5,198.3 242.6,197.4 243.9,196.5 C245.7,195.2 247.4,192 249.5,187.4 C250.2,186.1 251,182.2 252.1,184.6 C252.6,185.8 248.3,194 246.6,196.1 C244.7,198.6 241.2,200.2 238.3,199.5 L238.3,199.5 Z M263.7,196.7 C265.8,198.7 269.2,199.6 271.5,198.9 C277,197 279.6,191.8 277.5,183.4 C276.4,178.7 275.5,175.8 274.6,175.2 C274.2,174.9 273.7,175.4 273.2,176.1 C272.8,176.7 273.4,177.5 274,179.7 C276.6,189 276,193.2 272.7,195 C268,197.6 264,194.6 262.6,188 C262.4,187 261.7,184.9 261.7,184.9 C261.3,184 258.4,184.2 259.5,187.3 C259.9,189.6 262.1,195.3 263.7,196.7 L263.7,196.7 Z M287.4,172.3 C287.3,169 280.4,154.8 279.9,156.3 C279.9,156.3 279.9,159.6 280.1,160.9 C280.2,161.4 280.6,161.9 280.9,162.4 C286.9,173.1 286,180.6 280.8,182.2 C279,183 278.6,183.8 279.4,184.6 C281,186.3 285,182.9 285.8,181.7 C287.9,179 287.6,173.9 287.4,172.3 L287.4,172.3 Z M186.7,169.9 C189,167.4 193.9,158.7 195.5,154.1 C200.2,140.5 205.2,124.9 206.5,110.5 C206.6,108.7 206.7,105.9 206.8,105.7 C206.4,105.3 204.1,105.5 203.3,105.9 C202.9,106.4 203.2,107.5 203,108.9 C200.9,125.1 197,139.9 191.2,154.9 C188.7,161.4 186.3,165.7 183.3,170.3 C182.8,171.1 182.1,171.9 181.8,172.4 C181,173.5 181.6,174.2 182.5,173.8 C184.2,172.9 185.6,171.1 186.7,169.9 L186.7,169.9 Z M179,173.9 C186.2,164 191.4,152.1 195.4,138.1 C197.9,129 200.1,119.8 201.5,110.5 C201.8,108.5 202,107.2 201.6,106.6 C200.6,106.3 198.8,106.5 198.2,107 C197.8,107.6 198.1,108.7 197.7,111.4 C196.8,118.4 195.4,125.4 193,134.5 C186.8,154.8 181.2,166.1 173.7,176.1 C173.1,176.9 172.6,177.5 172.6,177.8 C172.7,178.3 173.4,178.3 174.6,177.5 C176.1,176.2 177.9,175.2 179,173.9 L179,173.9 Z M168,179.1 C171.5,177.1 177.8,168.4 182.2,159.1 C187.1,148 191.3,135.6 194,124.7 C195.2,120 196.8,108.1 196.6,107.3 C196.3,106.4 192.9,107.1 193.3,107.8 C193.3,107.8 189.9,126.8 186.2,137.3 C179.3,156.8 173.4,170 167,176.3 C166.2,177.1 164.5,178.8 164.5,178.8 C164.5,178.8 164.5,179.5 165.1,179.6 C166.3,179.9 167.2,179.5 168,179.1 L168,179.1 Z M162.6,178.3 C170.6,173.9 179.9,153.1 187.5,127 C188.8,122.5 191.2,107.6 191.2,107.6 C191.2,107.6 188,107.7 187.4,108.4 C186.8,109.3 186.9,111.6 186,117.1 C182.6,133.6 177.4,148.6 169.6,163.5 C166.2,170.1 160.6,176.3 157.1,178.1 C155.1,179.1 154.5,180.2 156,180.3 C158.4,180.4 158.6,180.9 160.4,180 L162.6,178.3 Z M271.9,410.6 C265.9,410.6 260.8,416.3 256.3,423.5 C246.7,438.2 240.2,462.9 238.6,476 L242.2,475.3 C241.7,475.6 249,440.5 260.2,425.4 C266.2,415.9 266,415.8 269.4,414.9 C273.7,413.8 277.1,418.4 275,421.2 C274.2,422.2 273.4,421.5 273.6,420.1 C274.4,415.8 268.1,415 266.3,419.2 C264.3,424 269.7,428.4 274.9,426.5 C279.6,424.9 281.5,418.3 278.3,413.5 C276.6,411.9 274.2,410.5 271.9,410.6 L271.9,410.6 Z M240.4,410 C233.2,419 229.7,428.2 225.3,440.8 C220.9,453.4 217.7,465.7 216.4,479.8 L220.3,479.3 C220.2,470.2 230.1,427 244.1,410.8 C244.9,409.8 245.5,408.9 245.5,408.7 C244.7,406.6 241.3,409.2 240.4,410 L240.4,410 Z M256.3,406.7 C247,414.3 239.6,430.9 234.7,446.2 C229.4,462.8 227,477.9 227.4,477.9 L231.1,477.4 C230.8,476.4 241.5,418.1 261.2,407.5 C262.9,406.6 263.3,405.8 261.8,405.4 C259.6,405 257.8,405.8 256.3,406.7 L256.3,406.7 Z M266.7,406.7 C246.4,409.4 233.2,471.4 232.7,476.6 C232.7,476.7 232.6,477.1 232.6,477.1 L236.6,476.3 C236.6,476.3 236.6,476.1 236.7,476 C239.5,460.2 242.2,449 248.5,434.7 C253.4,424.1 260.2,410.5 270.4,409.2 C271.2,409.1 272,409.4 271.7,408.5 C271.1,406.9 268,406.7 266.7,406.7 L266.7,406.7 Z M145.8,387.2 C138.5,389.1 138.2,397.8 143.1,409 C143.5,409.8 143.4,410.3 143.8,410.6 C144.6,411.3 145.3,410.3 145.4,409.6 C145.5,408.6 145.1,407.2 144.3,405.2 C141.3,397.5 142,393 145,391 C152.7,387.1 154.7,395.1 155.9,398.9 C156.2,399.8 156.3,401.1 156.8,401.1 C158.3,401.3 159.1,400.8 159,400.8 C159,400.8 157,393.8 155.7,391.2 C153.7,387.1 149,386.2 145.8,387.2 L145.8,387.2 Z M92.6,395.5 L92.5,487.9 L78.5,501.1 C72.5,495.9 64.6,487.9 64.6,487.9 L64.8,331.8 L60.3,331.4 C59.2,398.3 60,466.4 60,533.6 L101.5,533.9 L135.8,480.4 C135.8,480.4 136.2,479.8 136.4,479.4 C136.8,478.4 136.8,476.8 136.6,471.1 C136.5,468.8 136.8,467 136.4,466.5 C136.1,466 135.3,466.3 134.6,466.7 C133.9,467 133.5,466.9 133.9,466.1 C134.1,465.6 134.8,464.6 135.4,463.6 C137.3,460.4 137.8,459.4 137.1,455.9 C136.9,455 136.1,454.3 135.5,453.3 C129.7,444.8 127.4,432.2 130.2,422.9 C131.1,418.8 130.8,418 128.8,414.8 L92.6,395.5 Z M274.2,296.2 C270.4,294.3 270.5,294.3 270.5,298 C270.5,300.7 270.6,301.4 271.6,301 C273.1,300.2 274.9,299.6 276.3,299 C278.9,298 275.6,296.9 274.2,296.2 L274.2,296.2 Z M289.2,305.7 C286.3,303.4 287.3,303.6 286.5,308.9 C286,312.1 285.4,312.2 288.7,311.1 C290.6,310.4 294.4,310.9 292.7,308.7 C292.6,308.7 289.7,306.2 289.2,305.7 L289.2,305.7 Z M171.5,386.4 C167,389.1 162.4,402.3 162.4,402.3 C146.7,404.2 140.1,419.6 139.4,432.4 C138.8,442.5 138.2,454.4 139.2,455.4 C149.5,450.8 153.5,456.1 154.4,454.7 C154.8,454.1 152.1,452 148.7,450.1 C147.9,449.7 146.7,448.9 146.2,448.5 C145,447.5 148.7,448.3 151.1,450 C154.1,452.1 154.6,451.6 153.3,445.6 C151.9,439.1 151.6,438.3 156.7,435.7 C158.7,434.7 159.9,433.8 161.3,432.2 C162.5,430.9 162.7,430.6 162.3,432.5 C161.6,435.8 158.6,437.2 156,438.5 C154.7,439.2 154.2,440.5 154.2,441.7 C154.2,442.9 155.5,449.2 156.2,451.3 C156.8,453.2 157,455.2 157.4,457.1 C158.6,462.2 158.6,463.2 158.1,466.9 C157.8,469.1 157.6,470.3 157.7,471.6 C157.8,472.8 158,474.4 158,474.4 C158,474.3 155.2,471.5 149.1,473.9 C144.7,475.6 141.2,473.8 138.7,472.5 C138.1,474.5 138.3,476.7 138.3,479 C163.9,483.7 185.7,483 204,481.1 C204.5,475.7 206.8,458.4 211.7,442.9 C213.7,436.4 216,429.6 218.6,425 C220.4,421.9 222.2,419.8 222.8,419.4 C223,419.3 223,419.2 223,419.1 C223,418.9 223,418.8 223,418.6 C222.9,417.6 222.7,416 221.8,415.3 C219.7,413.6 216.3,415.8 215.2,419.6 C214.2,421.9 209.8,431.6 209.5,431.5 C209.2,431.3 208.6,431.3 208.8,430.6 C210.5,426.6 212.8,422.5 214.2,418.9 C216,413.8 220,411.1 222.9,414.3 C223.9,415.4 224.3,416.4 224.8,416.8 C225.1,417.1 225.6,416.9 225.9,416.5 C227,414.8 224.4,411 221.7,410.2 C217.7,409.1 214.7,412 210.2,421.5 C207.6,427 207.1,428.3 206.7,427.9 C206.6,427.9 205.9,427.9 206.2,426.9 C206.7,424.6 210.2,418 212.7,413.8 C216.4,407.6 223.3,407.1 226.3,412.5 C226.7,413.2 226.8,414.2 227.3,414.9 C228.2,416.1 229.7,415.8 230,413.9 C229.6,412.6 227.2,408.1 225.5,407.3 C221.6,404.6 216.9,405.1 212.9,408.7 C212,409.5 211.1,411.1 208.4,416.5 C204.5,425.1 204.4,425.1 203.4,423.7 C205,419.5 209.1,412.8 210.7,408.6 C211,408 211.1,407.3 211.1,406.7 C211,403.7 211.5,398.3 205.1,394.5 C199.6,391.6 192.4,394.6 190,400.4 C188.1,404.8 186.7,407.9 185.8,408.5 C184.5,409.4 184.7,408.2 184.8,407.7 C186.7,403.7 189.4,399.6 189.8,395.6 C189.8,384.9 178.7,380.9 171.5,386.4 L171.5,386.4 Z M114.3,181.8 C122.9,177.8 128.9,175.8 137.7,173.2 C138.9,172.7 139.1,172.6 137.8,170.1 C132.2,159.1 147.5,150.3 152.7,161.1 C153.4,162.5 153.6,163.3 154.2,162.7 C155.5,161 157,158.6 158.6,155.9 C164.5,146.8 167.1,136.5 170.2,127.3 C171.5,121.9 173.3,116.3 173.8,110.6 C162.2,90.4 154.1,70.9 141.7,52.9 L60.3,52.8 L60,215.3 C83,196.4 98.5,189.5 114.3,181.8 L114.3,181.8 Z M205.9,175.8 C206.9,174.8 207.7,173 211.3,165.8 C211.9,164.5 212.9,162.5 213.4,161.6 C213.9,159.9 215.9,158.8 214.9,161.9 C214.7,162.6 214.3,163.5 213.7,164.6 C212.5,166.7 211.4,169.3 210.6,171 C206.1,180.1 206.3,185.3 211.3,189.3 C215.1,192.9 223,193.3 227.2,187.5 C227.8,186.6 228.4,185.4 228.6,184.9 C230.4,180.4 231.8,178.2 232.1,177.8 C234,175.4 234.3,178.4 231.5,182.9 C228.3,188.1 228.2,193.7 231,197.7 C235.1,203.6 242.9,203.8 247.8,199 C250.3,196 252.4,192.2 254,187.3 C254.4,186.2 254.7,185.4 255,184.8 C255.4,183.8 256,183.5 257.5,183.2 C267.9,181.2 276.7,170.5 278,158.8 C278.2,157.2 278.6,154.4 278.8,152.7 C279.1,149.4 279.1,132.2 278.8,131.2 C278.6,130.6 278.3,130.4 277.6,130.4 C277.1,130.4 276.3,130.6 275.3,131 C271.9,132.2 270.3,132.5 267,131.4 C265.9,131 265.2,130.9 264.7,130.9 C263.2,131 265.2,133.1 269.4,135.4 C271.2,136.4 272.7,137.7 271.2,137.6 C270.8,137.6 265.6,134.9 264.9,134.5 C262.6,133.1 263.2,134.9 264.4,139.6 C266,146 265.1,147.8 260.1,150.3 C259.2,150.8 257.9,151.7 257.3,152.4 C254.6,156.3 255.3,153.4 256.7,151.3 C259,148.9 257.6,148.1 252.9,149.7 C247.5,151.6 245.1,150.2 243.6,147.2 C241.9,143.8 245.1,139.5 247.8,139.6 C248.7,139.6 248.5,139.9 247.2,140.8 C245.7,141.8 244.9,142.9 244.8,144.7 C244.5,148.4 247.1,149.9 250.7,147.4 C252.4,146.2 253.8,145.5 255.1,145.1 C256.4,144.8 258.3,145.3 258.3,146.3 C258.3,146.7 258.2,147.8 258.3,148 C258.6,149.2 260.5,147.5 261.3,146.9 C264,144.8 264,144.4 263.2,141.1 C262,136.4 261.4,132.2 260.2,127.4 C259.6,124.9 259.5,122.1 259.8,119.6 C260,118.3 260.5,115.7 260.6,114 C260.7,112.2 260.6,109.7 260.7,109.7 C263.4,111.8 264.5,112.2 267.2,111.1 C271.3,109.4 273.9,109.6 277.4,111.2 C278.7,111.8 279.9,112.3 279.9,112.3 L280.1,106.9 C280.1,106.9 276.9,106.2 270.9,105.5 C253,103.1 216.3,102.7 214.9,104.8 C214.6,105.3 214.2,109.2 213.2,114.5 C211,125.6 208.6,136.6 205.4,147.4 C204.7,149.6 204.1,150.5 204.4,150.6 C204.5,150.6 205.2,149.8 205.5,149.4 C207.2,147.4 205.9,152.2 203.3,157.9 C203.1,158.4 202.9,159 202.9,159.2 C202.9,159.5 201.2,163.5 200.1,166 C199.4,167.5 198.8,168 198.8,167 C199.6,163.7 201.7,159.4 202,156.5 C200.2,159.2 197.5,163.6 195.4,166.2 C195,166.9 195.4,167.1 195.8,168 C197,171.3 200,171.6 201.7,168.6 C202.7,167 205.6,160.7 206.7,158 C207.8,155.2 208.5,153.7 208.9,153.5 C209.6,153.1 209.8,154.7 208.5,157.4 C204.7,165.4 203,169.9 201.2,171.6 C199.7,172.9 197.2,172.8 195.8,170.5 C193.4,166.6 191.4,167.9 193.6,171.9 C195.8,176 201,176.4 203.7,172.7 C204.6,171.5 208.7,163.5 210.1,160.3 C210.8,158.5 211.6,157.1 211.9,157 C213.3,156.5 211.7,160.6 207.7,168.8 C206.4,172 204.3,175.3 201.5,176.4 C194.6,177.9 193.7,174.3 191.3,170.1 C190.1,169.1 189.1,170.7 189.5,172.5 C190.2,175.4 191.6,176.6 193.7,178.1 C197.7,180.9 203.7,179 205.9,175.8 L205.9,175.8 Z M236.6,193.1 C236,191.7 236.1,190.3 236.4,189 C237.1,186.1 238.3,183.2 239.7,180.7 C242,179.6 240.2,183.9 239.9,184.5 C237.2,190.2 236.9,192.4 239.5,193 C241.7,193.6 242.9,192.2 244.9,187.1 C246,184.5 246.4,183.3 246.7,183.2 C247.5,182.9 247.9,183.2 247.8,184 C246.4,187.3 245.4,190.9 243.1,193.6 C241,195.5 237.7,195.5 236.6,193.1 L236.6,193.1 Z M216.2,188.7 C215.3,188.5 213.6,187.3 212.5,186.3 C208.7,182.8 209.3,177.9 214.1,168.8 C214.5,168.1 215.9,165.3 216.3,164.4 C217.1,162.8 217.9,163.4 217.9,164.5 C217.9,164.8 216.7,167.3 215.5,169.7 C210.2,180 210.4,184.2 215.5,186.6 C220.5,189 222.7,187.6 226.7,179.8 C229,173.9 230.1,173.8 230,176 C230,176.8 227.2,182.5 225.4,185.1 C222.8,188.9 220.5,189.6 216.2,188.7 L216.2,188.7 Z M216.5,183.8 C214.5,182.6 213.7,179.6 214.9,177.1 C216,175.1 218.7,167.3 219.9,166.8 C221.9,166.7 220.9,168.4 218.3,173.2 C215.3,179.6 215.4,181.3 217.7,182.2 C219.8,183.1 220.9,181.3 224,173.8 C224.5,172.6 225.2,171.4 225.6,171.7 C226.1,171.7 227,172 225.3,175.4 C224.9,176.2 224.2,177.9 223.5,179.5 C221.5,184.1 219,185.3 216.5,183.8 L216.5,183.8 Z M251.9,170.3 C251,169.9 247,168.3 247.6,167 C247.7,166.9 247.9,167 248,167.1 C251.7,169.6 256.3,170.2 261.1,166.8 C261.9,166.1 262.5,166.6 262.1,167.5 C260.7,170.2 254.2,171.4 251.9,170.3 L251.9,170.3 Z M240,166.1 C240.1,165.8 240.4,165 240.7,163.9 C241.1,162.2 241,161 241.4,161.2 C243.1,162.1 246.1,162.1 247.5,161.2 C249.1,160.2 252.4,159.9 253.6,160.7 C255.3,161.8 256.2,161.3 257.4,160.4 C258.7,159.3 258.8,159.8 261.2,160.6 C263,161.2 263.7,161.6 264.5,161.5 C264.8,161.5 265.4,160.8 265.6,160.8 C266.2,160.9 266.2,162.6 266.8,164.4 C267.3,166.1 267,166.5 265.5,165.5 C264.4,164.8 261.2,164.4 257.8,165.4 C255.3,166.2 254.8,165.8 253,165.5 C248.5,164.7 245.2,164.1 241.9,166.1 C240.1,167.3 239.4,167.8 240,166.1 L240,166.1 Z M228.8,157.8 C226.6,153.4 231.6,147.6 236.1,149.7 C237.6,150.4 238.9,153 236.7,151.8 C226.6,149.8 229.2,164.5 240,156.7 C247.2,151.9 252.3,151.2 252.7,155.8 C252.5,157.5 251,157.2 249.9,157.4 C246.9,157.8 245.8,158.3 242.4,159.8 C237,161.4 231.9,162.7 228.8,157.8 L228.8,157.8 Z M268.2,159.9 C265.7,159.3 263.6,158.3 261,157.8 C258.5,157.4 257.3,156 257.8,154.3 C258.3,152.4 260.8,152.3 264.6,154.6 C268.8,157.2 271.9,157.8 273.4,156.8 C276.5,154.8 274.8,151.6 271.9,150.8 C269.7,150.2 271.3,149.3 273.7,150 C277.6,151.5 277.7,158.5 273.7,159.9 C272.4,160.5 270,160.3 268.2,159.9 L268.2,159.9 Z M233.9,136.6 C236.8,134.8 239.5,133.3 240.5,132.2 C241,131.6 242.5,129.8 241.3,130.4 C235.5,133.9 228.7,131 223.8,128.6 C221.5,127.5 222,128 220.2,128.1 C219,128.2 218,128.4 217.8,127.6 C217.7,127.2 217,127.4 216.6,127.3 C214.8,127.1 215.9,124.7 219.7,122.1 C224.2,119 228.1,117 232,116.1 C236,115.2 240.1,115.7 243.2,118.6 C244.4,119.7 244.3,120.5 245.3,119.8 C247.7,118.2 247.7,120.3 245.7,122.2 C244.3,123.5 244.8,123.9 246.5,125.1 C247.3,125.7 246.6,126.3 246.2,127.1 C246,127.6 246.2,128.2 246.1,128.6 C245.7,130.5 237.2,137.1 234.1,138.2 C232,138.8 233.1,137.2 233.9,136.6 L233.9,136.6 Z M239.8,124.5 L238.4,124.5 C236.8,129.4 233.8,131.1 231.3,125.2 L230.2,125.3 C230.2,130.3 238.8,133.4 239.8,124.5 L239.8,124.5 Z M230.5,129.1 C229.9,128.1 229.3,125.9 228.7,125.8 C227,125.7 224.7,126 225.3,127.1 C226.1,128.7 231.2,130.2 230.5,129.1 L230.5,129.1 Z M241.9,128.2 C243.4,127.3 243.8,126.6 242.8,125.6 C241.5,124.3 240.8,125 240.4,127.1 C240.1,128.9 240.3,129.2 241.9,128.2 L241.9,128.2 Z M221.1,124.8 C231.4,120.2 235.3,119.6 239.4,120.7 C240.4,121 241.2,121.5 241.8,121.5 C243.8,121.4 242.5,119.1 238.9,117.9 C234.8,116.4 232.2,117.1 224.3,121.2 C219.8,123.5 216,127.1 221.1,124.8 L221.1,124.8 Z M250.9,119.1 C250.8,118.8 250.1,117 250,116.3 C249.8,115.6 249.7,114.9 249.5,114.9 C244.7,115.7 240.5,114.8 239.4,114.5 C232.2,112.8 225.2,113.1 220,115.2 C218.7,115.7 217.2,116.5 217,116.6 C216.6,117 216,116.5 216,116.1 C216,115.5 219.2,113 221.2,112 C227.3,109 233.8,108.5 240.9,110.4 C245.5,112.2 248.5,111.9 251.4,110.6 C252.9,110 251.8,111.5 251.4,113.6 C251.1,115 251.4,116.3 251.5,117.1 C251.6,119.1 251.4,120.1 250.9,119.1 L250.9,119.1 Z M358.3,534.3 L358.3,371.5 C331.3,391.4 280.1,412.2 280.1,412.2 C286.5,425.3 272.4,436.5 264.2,423.2 C255.8,432.6 244.3,465.5 243.9,476.4 C243.9,476.4 266.2,515.2 277,534.4 L358.3,534.4 L358.3,534.3 Z M209.4,480.7 C210.1,472.5 211.9,458.7 217.3,442.5 C219.6,435.7 222.3,428 226.2,421 C227.8,418.6 227.9,417.6 226.2,418.5 C225.2,419.1 220.4,424.4 219.7,425.8 C212.4,441.2 209,459.7 206.3,473.8 C205.7,477 205.5,480.9 205.5,480.9 L209.4,480.7 Z M214.8,480.1 C216.5,460.2 223.9,433.4 234.9,415.9 C235.9,414.2 237.2,412.8 237.2,412.2 C237.1,410.5 232.8,413.4 229.5,418.5 C225.8,425.8 222.2,433.5 219.3,442.1 C215.3,454.2 212.4,465.4 211.3,480.6 L214.8,480.1 Z M225.3,478.4 C226.4,467 230,456.5 232.9,445.9 C236.6,433 241.4,423.6 247.1,415 C248.9,412.3 251.1,409.7 253.1,407.1 C253.4,406.8 253.6,406.2 253.6,406 C252.3,405.8 251.2,406.2 250.2,406.7 C248.8,407.5 246.8,409.5 245.6,411 C237.5,421.3 233.2,433.3 229.1,445.4 C225.2,457.1 222.4,468.3 221.9,478.8 L225.3,478.4 Z M152.7,469.6 C154.3,469.5 155.4,469.8 155.8,469.3 C156.3,468.9 156.1,467.7 156.3,466.2 C156.6,463 156.3,463.2 154.3,465.3 C151,468.7 145.1,470 141.5,467.9 C139.7,466.9 138.5,466.2 138.3,467 C138.1,468 138.4,468.8 139.1,469.3 C143.5,471.4 147.6,470 152.7,469.6 L152.7,469.6 Z M148.9,467.2 C151.2,466.4 153.4,465.2 154.8,463.4 C156,461.6 156,461.4 155.1,461.7 C150.5,464 147.5,465.1 143.4,464.5 C137.8,463.7 137.6,464.4 141.3,466.7 C143.6,468.2 145.6,468.2 148.9,467.2 L148.9,467.2 Z M140.7,460.2 C141.6,459.6 141.8,457 141.1,456.8 C140.4,456.7 139.4,457.9 139.1,459 C138.9,460.4 139.9,460.7 140.7,460.2 L140.7,460.2 Z M149.3,460.1 L150.8,460 C150,453.5 143,453.2 141.7,460.6 L142.8,460.8 C144.3,454.8 148.6,455 149.3,460.1 L149.3,460.1 Z M154,459 C156.2,457.8 155.4,456.3 152.5,455.8 C150.6,455.3 150.7,456.9 151.7,459 C152.2,460 152.5,459.8 154,459 L154,459 Z M137.4,451.1 C137.4,450.4 137.1,449.2 136.7,448.5 C134.2,443.4 132.8,437.4 133.1,430 C133.3,424.7 133.4,423 132.3,423 C130.7,423.7 129.8,433.7 131.8,442 C133.2,447.8 137.5,455 137.4,451.1 L137.4,451.1 Z M137.3,443 C137.2,440.2 137.8,434 137.5,432.6 C137.1,430.8 136,429.2 135.4,428.8 C134.5,428.1 134.2,429.4 134.6,432.8 C135.3,440.6 136.6,446.5 137.3,443 L137.3,443 Z M138.1,428.7 C138.7,427.6 138.5,426.4 137.1,423.8 C131.8,413.4 131.1,406.3 136.7,403.8 C137.3,403.5 137.7,403.5 138.1,403.2 C139.8,402.2 139.2,400.5 136.6,401.2 C129.4,403.2 127.9,410 134,422.5 C137.1,428.7 137.6,429.6 138.1,428.7 L138.1,428.7 Z M139.4,422.8 C139.5,422.4 139.7,420.7 139.8,420.3 C139.9,419.9 139.1,418.9 138.4,417 C136.4,411.8 136.3,409.6 138.5,408.1 C139.2,407.7 140,407.7 140.1,407.2 C140.3,406.4 140.3,405.2 139.8,404.8 C136.6,404.8 135.1,406.7 134.6,408.4 C133.8,411.2 134.6,415.3 137.1,420.4 C138.3,422 138.9,424.9 139.4,422.8 L139.4,422.8 Z M141.9,416 C143.6,412.6 142,408.1 139.6,409.6 C138.1,410.6 138,411.6 138.9,414.5 C140.1,418 140.8,418.3 141.9,416 L141.9,416 Z M147.9,406.8 C148.6,406.1 148,405.2 146.7,401.4 C145.6,398.1 146.1,395.9 148.2,395.3 C151.2,394.6 152.2,399.4 152.8,401.4 C153.1,403 154.2,403.4 155.1,402.3 C155.4,402 155.4,401.7 155,400 C153.1,392.5 150.6,390.1 146.6,392 C142.9,393.7 143.4,397.6 146.1,405.7 C146.5,406.8 146.7,407.6 147,407.7 C147.1,407.9 147.5,407.2 147.9,406.8 L147.9,406.8 Z M151.2,404.3 C152.1,403.4 152,403.8 151,400.7 C149.8,397.1 149.2,396.4 148,397.6 C147.2,398.4 147.6,399.2 148.5,402.1 C149.5,405.5 149.8,405.7 151.2,404.3 L151.2,404.3 Z M305.7,392.1 C311.6,388 309.2,380.8 301.4,378.1 C300.5,377.8 299.5,377.4 299.2,377.3 C295.6,375.6 292.9,375.1 292.9,376.4 C292.9,377.2 294,377.6 297.4,379.2 C302.4,381.7 303.6,384.5 301.1,388.1 C299.2,390.6 302.6,393.6 305.7,392.1 L305.7,392.1 Z M311.1,383.3 C311.6,381.2 312.4,379.5 312.7,378.2 C313.2,376.3 312.6,376.8 311.3,377.1 C308.1,378.8 305.7,377.9 307.3,380.2 C309.1,383.2 310.5,385.6 311.1,383.3 L311.1,383.3 Z M310.7,376 C314.7,373.6 315.6,367.3 311.9,364.3 C311,363.6 309.4,362.6 307.6,362.1 C303.8,360.9 298.2,360.4 296.2,361 C295.8,361.5 295.8,362.3 296.2,362.5 C296.8,362.7 297.8,362.9 299.3,363 C304.9,363.6 307.7,365.2 307.4,369.2 C307.1,373.3 303.8,374.9 297.9,373.6 C294.7,372.9 293.2,373.2 294.5,374 C296,374.9 299.3,376.1 302.5,376.7 C305.2,377.2 308.3,377.4 310.7,376 L310.7,376 Z M291.3,375 C295.8,364.8 298.2,338.1 272.2,318.8 L273.1,324.2 C288.4,337.6 292.1,354.6 288.9,370.3 L291.3,375 Z M314.5,356.7 C312.9,357.7 311.5,358.8 309.4,359.8 C308.1,360.4 308.1,360.5 309.8,361.4 C310.6,361.8 312,362.7 312.5,363.2 C313.4,364.2 314.5,364.5 314.9,364.2 C314.8,362.7 315.3,357.7 314.5,356.7 L314.5,356.7 Z M306.8,358.6 C312.1,356.9 314.9,354.4 314.3,350.2 C313.4,344 308.2,342.7 298.5,345.1 C293.8,346.3 293.4,348.5 297.8,347.3 C303.4,345.9 307.8,348 307.2,352.1 C306.9,355.6 304,357.7 299,357.7 C296.4,357.7 295.5,357.9 295.9,358.9 C296.1,359.6 304.6,359.3 306.8,358.6 L306.8,358.6 Z M298.1,343.9 C306.7,341 310.7,336.4 308.7,331.3 C306.4,325.3 298.9,325.2 291.3,330.8 C287.8,333.4 288.3,334.3 291.7,333 C296.1,331 299,330.7 300.8,332.3 C304.1,335.2 301.9,340.3 296.9,342.1 C294.5,343.1 293.7,343.6 293.7,344.4 C293.8,345.5 294.2,345.2 298.1,343.9 L298.1,343.9 Z M312.6,343.8 C312.8,342 310.8,335.8 309.9,337.3 C309.7,337.7 308.9,339.4 307.8,340.3 C304.8,343 305.4,341.9 308.3,342.8 C310,343.2 312.4,344.4 312.6,343.8 L312.6,343.8 Z M289.8,330.6 C298.5,325.6 301.8,318.4 297.3,313.6 C293.2,309.3 286.5,311.8 280.3,319.6 C277.4,323.2 279.6,322.7 283.4,319.3 C287.9,315.3 293.6,317.3 293.6,322.2 C293.6,324.3 290.6,327.9 287.8,329.5 C286.9,330 286.8,330.8 287.1,331.3 C287.5,331.9 288.2,331.6 289.8,330.6 L289.8,330.6 Z M305.1,325.3 C304.6,324 301.4,318.2 300.7,318.4 C300,319.9 299.9,321.8 299,323.4 C297.8,325.8 297.9,325.4 301.8,325.4 C304.7,325.4 305,325.8 305.1,325.3 L305.1,325.3 Z M279.5,318.8 C286.8,311.3 287.5,302.4 280.6,300.4 C276.8,299.3 270.7,302 270.7,304.8 C270.7,306.6 271,306.9 272.6,306.2 C279.1,303.8 284.2,310 278.2,317.1 C276.8,319.2 276.6,319.7 277,320.1 C277.5,320.6 277.9,320.4 279.5,318.8 L279.5,318.8 Z M358.3,254.1 L358.3,53.7 L315.5,53.7 L281.5,106.6 L281.4,119.7 C281.4,120.1 282.2,120.4 282.7,119.9 C284.6,118.4 283.9,120 281.7,123.3 C279.5,126.7 280.1,129.5 282.6,133.2 C287.8,140.9 290.5,155.1 288.3,162.5 C287.5,165.3 287.3,166.5 287.8,168.1 C288.4,169.9 288.8,170.9 290.6,172 C292.2,173.1 305.1,178.1 325.9,191.5 L325.8,97.3 L338.9,84.8 L352.8,98 L353.3,253.5 C353.3,255.1 356.5,255.8 358.3,254.1 L358.3,254.1 Z M350.8,98.4 L339.2,87.6 L327.7,98.2 C327.6,148.8 328,252.8 328,252.8 L339.4,253.6 C339.4,253.6 340.2,251.2 339.2,245.1 C337.6,235.9 337.7,224.7 340.3,207.6 C341.9,197.1 340.3,188 337.9,178.5 C335.8,172.1 335.7,166.2 336.1,160.5 C336.9,151.4 339.4,144.5 339.7,131.4 C339.9,123.9 339.5,116.6 339.8,107.4 C339.9,106.2 340.4,106.3 340.5,107.6 C340.8,115.9 341.2,123.8 341.3,132 C341,142.6 338.5,153.5 338.2,163.1 C338,169.8 337.9,172.1 340.7,180.3 C345.2,193.1 342.2,212.9 342.2,213.2 C340.3,225.8 338.9,242 345.3,254.1 L351.5,254.6 L350.8,98.4 Z M270.9,194 C274.3,192.4 275,189.7 273.2,183 C272.9,181.8 272.5,180.4 272.4,179.9 C272,178.3 271.3,178.1 270.3,179.4 C269.7,180.2 270.3,180.4 271.2,184 C272.6,189.5 271.8,191.4 269.7,191.4 C267.9,191.4 266.4,189.9 265.9,186.3 C265.7,185.1 265.5,184.2 265.2,183.7 C264.7,182.9 264.1,183 263.6,183.9 C263,185.1 264.1,189.9 265.7,192.3 C267.3,194.6 268.5,195.1 270.9,194 L270.9,194 Z M270,189 C270.7,187.6 269.8,184.3 269.4,182.1 C269,180.9 268.5,180.6 267.7,180.8 C266.5,181.1 266.5,182.4 267,184.6 C267.8,189 268.3,189.5 270,189 L270,189 Z M280.4,181 C284.3,178.8 284.7,174.9 282.1,168 C281,165.1 279.7,163.1 278.9,163.1 C278.6,164.9 278.3,165.9 278.7,166.6 C279,167.3 279.5,168.3 279.9,169.1 C282.1,174.2 281.5,177.2 279.4,178.8 C277.3,180.3 278.6,181.6 280.4,181 L280.4,181 Z M152.2,178.3 C161.4,176.3 169.7,161.6 174.9,148.5 C179.7,135.3 184.7,120.7 185.5,108.6 C185.5,108.6 182,108.8 181.6,109.5 C181.2,110.2 181,111.7 180.7,113.9 C178.3,125 176.4,133.5 172.2,144 C169.3,151.3 166.1,159.5 158.3,170.6 C155.7,173.7 152.8,175.6 149.1,176.1 C148.2,176.2 146.6,176.1 146.2,176.3 C145.5,176.8 146.1,177.9 147.9,178.4 C149.5,178.8 151.1,178.5 152.2,178.3 L152.2,178.3 Z M278.8,176.6 C280.2,175.1 280.3,173.4 278.8,169.6 C278.4,168.6 278.2,168 277.6,168.1 C276.5,168.4 275.2,171.3 276,173.8 C277,177 277.5,177.9 278.8,176.6 L278.8,176.6 Z M149,174.2 C151.7,173.8 155.1,171.7 157.6,168.4 C162.7,161.8 166.2,154.3 168.8,148.5 C170.9,143.8 174.6,133.6 175.6,130 C177.8,122.2 178.9,117.2 179.9,111.6 C180,111.1 180.1,110.3 179.9,110 C178.8,109.7 176.5,109.9 175.8,110.6 C174.5,119.6 171.5,128.6 169.3,136 C165.6,148.7 155.1,169.1 149.3,170 C146.2,170.5 142.7,167.8 143.2,165.1 C143.5,163.4 143.8,162.8 144.6,162.4 C146.6,161.7 147.8,163.1 145.6,163.9 C143.1,166.1 147.6,169.5 150.4,167.1 C155.2,163.1 148.2,155.5 142.4,159 C136.1,162.9 137.7,169.6 141.7,172.8 C143.8,174.4 146.2,174.6 149,174.2 L149,174.2 Z M194,165.1 C197.9,161.1 200.9,155.9 203,149.4 C207.7,134.8 211.5,118.1 212.9,105 C212.9,105 209.5,104.7 208.8,105.4 C208.3,105.9 208.8,106.4 207.4,116 C205,130 201.5,143.8 196.5,155.8 C194.4,160.7 193.8,161.3 192.4,163.8 C190.3,167.2 191,168.1 194,165.1 L194,165.1 Z M281.1,134.7 C280.7,134.5 280.8,134.6 280.6,134.7 C280.1,135.1 280.4,136.9 281.6,139.8 C284.8,144.9 285.2,154.9 285,158.7 C284.9,159.8 284.8,160.5 285.2,161.5 C285.5,162.5 286.1,163.6 287.1,161.7 C288.2,154.3 287.3,146.6 284.5,140.3 C283.4,138.1 282.5,135.9 281.1,134.7 L281.1,134.7 Z M283.6,156.5 C284.2,154.5 283.1,146.6 281.8,143.8 C281.3,142.7 280.3,142.6 280.5,143.9 C280.5,146.6 280.2,151.8 280.5,153.4 C281.9,156.6 283,158.6 283.6,156.5 L283.6,156.5 Z M276.3,124.6 L274.8,124.6 C274.9,129.8 270.3,131.2 268.6,125 L267.2,125.3 C269,134.1 277.2,130.1 276.3,124.6 L276.3,124.6 Z M267.1,128.5 C266.3,126.2 266.6,125.4 264.6,126.4 C263.1,127.2 262.2,128 264.3,129.1 C266.3,129.9 267.6,129.9 267.1,128.5 L267.1,128.5 Z M278.6,127.2 C279.2,125.9 279.2,124.8 278.2,124.8 C277.5,124.8 277.3,125.4 277.1,126.6 C276.7,128.8 277.6,129.2 278.6,127.2 L278.6,127.2 Z M279.4,118.6 C280,118.4 279.8,117.6 279.7,116.6 C277.2,113.1 271.1,114.2 268.8,114.9 C266.2,115.7 265.6,115.4 263.9,114.6 C262.5,114.3 262.3,114.7 261.9,115.4 C261.6,116 261.5,117.2 261.4,119.1 C261.3,120.8 261.4,121.6 262,121 C264.3,119 266.9,116.4 270.8,116.3 C275.5,116.1 279.4,118.7 279.4,118.6 L279.4,118.6 Z M262.5,123.3 C262.5,124 263.1,123.6 264.6,122.6 C270.1,119.3 273.3,119.8 278.1,121.4 C279.2,121.8 279.8,120.7 278.7,119.7 C273,115 266.1,118 262.5,123.3 L262.5,123.3 Z M282.5,102.1 L312.5,52.7 L145.5,52.6 L173.9,105.1 C197,99.7 235,92.8 282.5,102.1 L282.5,102.1 Z" id="Shape" fill="#131F67" fill-rule="nonzero"></path>
            <path d="M134.4,488.7 C137.9,483.4 155.5,492.8 156.4,496.5 C166.8,488.4 179.4,487.8 189.5,498 C199.9,486.6 211.1,487.4 222.7,494 C221.4,491.4 237.5,480.1 247.3,487.3 L273.8,534.4 L103.9,534.9 C114,519.9 122.9,502 134.4,488.7 L134.4,488.7 Z M61.3,243.1 C60.1,242.3 60.6,241.7 60.1,240.3 C59.2,237.8 55.6,214.4 65,213.8 C80.3,220.6 99.8,244.7 108.8,259.5 C120,277.8 131.3,319.9 125.1,318 C124.2,317.7 144.4,337.9 145.8,339.9 C148.1,343.1 111.8,403.5 105.8,401.3 C104,400.6 91.9,393.4 91.9,393.4 L92.2,373.3 C92.2,373.3 111.2,335.9 112.3,323.4 C112.7,318.7 99.2,310.6 98.6,308.9 C97.1,304.8 97.2,289.7 89.4,283.1 C87.7,281.7 84.6,281.1 81.5,281.2 C79.8,281.3 78.1,282 76.6,281.9 C73,281.7 71.1,279.9 70.3,278.2 C62.2,261.8 70.3,249 61.3,243.1 L61.3,243.1 Z M358.3,256.6 L358.4,264 C346.7,266.6 325.9,256.6 319.6,272.6 C320.4,289.9 324.3,297.6 327,302.8 C329,307.5 343.3,302.1 348.3,306.9 C358.8,314.9 360.3,333.3 360.4,347.6 C360.4,356.1 361.1,364.3 358.3,370.3 C352.7,379.4 325.8,355.4 314.6,335 C264.1,243.4 277,272.3 272.2,245.7 C271.9,231.3 311.9,184.899164 311.9,184.899164 C312,184.8 326.5,193.7 326.5,193.7 C326.9,193.8 326.2,254.6 326.2,254.3 C337.6,254.7 348.8,256.1 358.3,256.6 L358.3,256.6 Z M270.5,201 C248.3,232.7 240.8,280.1 242.2,313.2 C245.1,362.6 280.4,406.6 278,410.8 C277.6,410.5 276.7,411 276.3,410.7 C267.8,403.9 262.5,404.8 258.3,404.7 C250.4,404.6 248.2,406.9 243.6,407.4 C232,408.5 232.9,408.8 223,405.1 C218,403.2 215.2,397.6 210.4,395.6 C197.2,390.3 191.4,386.3 180.6,383.1 C170,384.1 153.7,389.1 147.6,385 C187.2,305.1 182.8,255.6 139.7,173.8 C143.4,174.9 143.9,178.3 146.7,179.1 C155.8,182.6 168.3,181.3 175.8,178 C184,174.3 191.6,179.7 191.5,179.5 C207.5,190.8 227,198.1 237.1,203.1 C240.1,204.6 243.9,202.2 247.2,201.5 C254,200.1 259.7,197.3 264.8,198.9 C266.4,199.6 268.8,200.2 270.5,201 L270.5,201 Z M170.8,98.2 C168.6,94.2 146.7,52 146.7,52 L311.8,53 L287,93.7 C284.7,95.9 273,102.1 261.1,88.1 C263.2,89.4 243.5,102.5 228.5,87.6 C223.4,92.6 217.2,95.8 211.5,96.2 C203.3,96.8 195.3,92.2 194.8,91.3 C196.5,92.1 183.1,105.2 170.8,98.2 L170.8,98.2 Z" id="Shape" fill="#E2CF00" fill-rule="nonzero"></path>
            <path d="M188.9,497 C175.2,482.8 156.3,495.6 156.6,496.4 C150.3,490 143.5,485.3 135.2,487.9 C135.2,487.9 135.7,485.1 135.8,485 C164.3,488.4 203.5,490 244.8,481.7 L245.8,486.2 C235.1,482.9 227.9,487.8 222.4,494.4 C202.6,483.5 198.3,493.1 188.9,497 L188.9,497 Z M226.3,322.8 L237.6,322.6 C239.7,355.5 267.3,405.9 267.9,405.9 C266,403.2 247.8,405.3 247.9,405.7 C238,379 227,352.4 226.3,322.8 L226.3,322.8 Z M160.2,400.9 C160.2,400.9 156.6,391.5 154.4,387.4 C166.3,367.1 176.1,346.1 181.1,322.7 L189.2,322.8 C186.7,355.1 160.9,404 160.2,400.9 L160.2,400.9 Z M306,396.6 C323.2,363.3 320.9,318.1 270.4,292.7 C270.4,292.7 271.5,258.5 275.3,258.4 C276.2,258.7 298.2,258.1 298.2,258.1 C305.3,242.3 313.8,226.2 326.3,215.2 L326.6,253.2 C317,254.2 311.1,257.2 308.2,264.7 L294.9,267.7 C295.9,305.9 310.3,341.1 352.9,372.8 C343.4,379.8 317.8,395.9 308.6,398.6 C306.8,399.1 306,396.6 306,396.6 L306,396.6 Z M92.3,372.6 L92.7,333 C99.2,331.6 104.3,333.5 109.6,321.9 C109.6,321.9 118.6,326.2 121.5,327.7 C113.1,342.7 105.9,358.7 92.3,372.6 L92.3,372.6 Z M177.2,302.5 L177.6,282.4 L196.7,283 C195.1,289.8 194.6,296.6 196.7,303.4 L177.2,302.5 Z M220.7,302.3 C222,295.7 222.9,289.1 220.2,282.2 L240.9,282.5 L240.4,302.5 L220.7,302.3 Z M181.4,263 C178,223.6 150.9,179 150.6,180 C153.8,180.5 159.4,182.1 162.5,180.6 C166.2,181.2 169.5,180.8 169.7,180.5 C169.9,179.1 194.8,237.7 191.5,263 C191,263.8 182.2,263.8 181.4,263 L181.4,263 Z M229.2,263.4 C232.1,245.2 239.6,211.9 257.4,184.9 C259.4,189.7 261.1,194.6 263.9,199.1 C250.5,218.6 242.2,240.9 237.2,263.6 L229.2,263.4 Z M105.6,253.5 C97.5,236.9 63.6,210.8 65.3,213.4 C79.3,200.8 94.9,192.9 110.6,184.8 C110.6,184.8 113.4,187.4 113,188.1 C103.4,203.2 98.8,235.2 108,253.5 C116.9,273.1 132.8,284.7 148.9,293.8 C147.6,306.1 147,314.9 144,327.1 C144,327.1 133.9,321.8 125.6,318.3 C124.2,295.3 119.4,274.6 105.6,253.5 L105.6,253.5 Z M195.3,91 C207.2,98.3 217.9,97.5 228.3,87.6 C241.3,99.4 255.4,93.9 261.3,88.6 C266.8,94.8 274,98.2 284.4,96.2 L281.8,101.6 C282.4,98.7 209.5,94 174.2,103.9 C174.2,103.9 172.1,99.8 172.4,99.8 C175.5,99.6 185.7,103.4 195.3,91 L195.3,91 Z" id="Shape" fill="#D40000" fill-rule="nonzero"></path>
            <path d="M10.7,20.8 L10.7,26.3 L16,26 L16,73.9 L10.2,73.9 L10.2,79.6 L26.2,79.6 L26.2,73.9 L22,73.9 L22,60.1 L29,51 L38.2,73.8 L32.4,73.8 L32.4,79.5 L50,79.5 L50,73.8 L45.2,73.8 L32.9,44.7 L45.4,26 L49.3,26 L49.3,20.7 L32.5,20.7 L32.5,26 L37.8,26 L22.1,48.9 L22.1,26 L26.3,26 L26.3,20.7 L10.7,20.7 L10.7,20.8 Z M144,50.7 L173.5,105.5 C173.5,105.5 174.4,105.3 174.8,105.3 C215.6,97.3 248,96.2 282.7,102.3 L313.6,51.2 C257.3,50.6 144,50.7 144,50.7 L144,50.7 Z M147.3,53 L311.2,53.2 L302,68.3 C296.5,66.6 293.4,69.1 292.6,74.4 C292.6,74.4 291.9,74.1 290.6,74 C282.5,73.1 281.5,83.8 289,85.1 C290.9,85.4 291.3,85 291.3,85 C284.6,90.6 280.8,86.8 277.6,85 C277.5,85.7 271.6,90.1 266,84.8 C274,85.6 275.3,77.6 271.4,74.5 C270.6,73.7 269.8,73.1 269.8,73.1 C271.7,71.5 272.1,69.3 270.9,66.8 C268.5,61.8 260.8,62.1 259.7,67.6 C259.2,69.7 259.2,70.1 259.2,70.1 C253,70.5 251.8,76.3 253.9,79.5 C255.1,81.3 257.7,81.7 260.2,81.6 C256.9,86.3 249.4,84.7 246,80.8 C240.7,87.1 234.6,86.3 231.6,82.9 C233.7,82.9 235.1,82.8 237,81.1 C240.2,78.1 238.6,72.8 234.1,71.3 C233.2,71 232.6,71 232.5,71 C232.5,71 232.6,70.7 232.8,69.1 C233.9,59.8 220.1,60.8 221.4,69.9 C221.6,71 221.8,71.5 221.8,71.5 C221.8,71.5 220.3,71.4 219.5,71.8 C211.8,75.3 217.1,85.1 223.1,82.6 C223.7,82.4 225.2,81.6 225.4,81.6 C218,90.7 211.8,84.3 210.2,83.3 C205.2,90.7 196.6,85.6 196.4,85.1 C196.9,85.2 198.6,84.9 200.1,84.1 C205,81.6 203.6,75 199.8,73.6 C198.6,73.2 197.2,73.2 195.7,73.3 C195.7,73.3 195.8,71.7 195.7,71.1 C193.3,62.2 182.2,66.7 185,74.2 C185.2,74.9 185.9,75.5 185.9,75.5 C185.9,75.5 184.4,76.4 183.7,77 C178.4,81.8 183.8,89.6 190,86.3 C190.8,85.9 191.6,85 191.8,85.1 C188.9,90.4 184.5,92.3 178.2,87.9 C174.3,94 168,91.5 166.2,88.4 C172.1,88.9 175.9,77.6 164.6,77.3 C163.7,74.2 163.8,69.5 156.6,70.3 L147.3,53 Z M108.9,59.6 C102.7,75.9 85.3,90.7 75.3,109.1 C63.9,127.7 67.5,146.8 83,150.1 C91.1,151.8 101.7,144 102.7,135.6 C102.9,133.9 103.5,133 104.7,133.1 C105.6,133.2 105.5,135.4 105.2,138.1 C104,146.8 99.2,160.7 93.1,167.1 L121.6,167.1 C120.5,166.4 109.8,153.2 110.8,137 C110.8,134.1 110.8,133.2 112.1,133.2 C113.1,133.2 113.1,133.7 113.4,136.5 C115.3,154.4 137.6,156.4 144.6,139.2 C148.1,130.6 144.4,115.2 135.1,102 C128,90.6 116,77.1 108.9,59.6 L108.9,59.6 Z M227.3,72.4 C228.6,72.4 229.6,73.5 229.6,74.8 C229.6,76.1 228.6,77.2 227.3,77.2 C226,77.2 224.9,76.1 224.9,74.8 C224.9,73.5 226,72.4 227.3,72.4 L227.3,72.4 Z M263.9,72.7 C265.3,72.7 266.4,73.8 266.4,75.2 C266.4,76.6 265.3,77.7 263.9,77.7 C262.5,77.7 261.4,76.6 261.4,75.2 C261.4,73.8 262.5,72.7 263.9,72.7 L263.9,72.7 Z M192.1,75.4 C193.4,75.4 194.5,76.5 194.5,77.8 C194.5,79.1 193.4,80.2 192.1,80.2 C190.8,80.2 189.7,79.1 189.7,77.8 C189.7,76.5 190.8,75.4 192.1,75.4 L192.1,75.4 Z M294.9,78.4 L292.8,82.1 C290.5,80.1 292.1,77.5 294.9,78.4 L294.9,78.4 Z M163.5,83.5 L161.4,79.7 C165.1,79.9 164,82.6 163.5,83.5 L163.5,83.5 Z M227,81.4 C241.1,97.4 253.7,92.7 261.9,82 C265.4,91.1 273.3,97.4 286.9,91.3 C286.1,92.7 284,95.3 284,95.3 C272,98.5 266.1,92.9 261.4,87.5 C249.2,97.6 237.7,95.2 228.2,86.2 C220.1,96.4 207,98.6 194.9,90.3 C189.4,98.5 181.4,101.8 171.4,97.7 C171.4,97.7 169.3,94.4 169.1,94.1 C170.5,95.3 189,103 193.5,84.6 C199.9,95.5 221,96.1 227,81.4 L227,81.4 Z M228.4,88 C244.2,102.8 260.8,90 261.3,89.1 C261.5,89.9 270.6,100.7 283.6,96.7 L281.5,100.3 C257,96.2 234.5,93.5 182.9,101.1 C182.9,101.1 191.1,98.7 195.3,92.1 C197.5,93.6 215.4,103.6 228.4,88 L228.4,88 Z M28.4,92.2 C27,95.7 24.6,99.3 22.6,102.5 C13.3,116.9 12.8,118.2 12.1,123.3 C10,133.2 21.8,137.2 25.5,130.5 C27.2,127.6 28.2,129.5 27.5,132.2 C27,137 22.2,142.5 22.2,142.4 L36.4,142.5 C36.4,142.5 30.3,136.3 30.4,131.3 C30.4,129 31.6,129 33.1,131 C37.3,136.9 45.2,132.1 45.3,123.8 C45.3,118.7 43.8,115.8 34.6,102.1 C32.5,99.2 30.3,95.4 28.4,92.2 L28.4,92.2 Z M172.9,100.3 C172.9,100.3 179.8,101.1 180.3,101.2 C180.9,101.7 174.5,103.4 174.5,103.3 L172.9,100.3 Z M186.9,170.9 C186.5,170.9 186,171.4 185.1,172.2 C183.2,174 182.8,174.3 181,174.5 C179.6,174.7 176.7,176.4 175,178 C174.5,178.4 173.6,178.8 172.5,179 C171.6,179.2 170.3,179.4 169.6,179.5 C169,179.6 168.3,179.8 168.1,179.9 C167.2,180.5 165.7,180.6 164,180.1 C162.4,179.7 162.1,179.7 160.3,180.3 C157.7,181.1 156,181.1 154.7,180.3 C153.4,179.5 151.4,179.2 150.1,179.6 C148.2,180.2 143.3,177.3 143.3,175.5 C143.3,175.1 140.5,173 139.8,173 C137.3,172.6 115.3,181.3 115.4,181.8 C142.4,215.1 165.1,265.9 148,328.1 L145,326.6 C147.5,315.3 148.6,303.9 149.3,292.4 C98.6,270.5 94.3,219.7 113.9,187.5 L110.6,183.9 C98.7,190.3 86.6,193.9 57.1,218.6 L57.2,258.6 C57.3,294.8 57.3,330 57.3,330 C68,331.2 79.7,332.1 91.3,333.1 C91.3,333.1 91.1,368.9 90.9,382.8 C90.7,394.6 91.1,393.9 91.1,393.9 L129.4,414.1 C126.7,403.5 133.4,399.2 138.9,399.7 C136.4,389.4 142.5,384.7 149.5,386 C154.2,386.9 155.9,389.5 158.6,398.1 C159,399.5 159.6,401.4 159.6,401.4 L162.3,401.3 C165.7,394.1 167.9,384.9 175.8,383.7 C186.2,382.1 190,389.3 190,396.4 C200,387.6 212.1,394.4 211.3,407.6 C216.4,404.4 224.9,401.4 230.3,413.9 C232.3,413.5 233.4,411.2 236.2,410.5 C237.3,410.3 239.7,409 239.7,409 L239.7,408.6 C239.7,408.6 241.9,407.8 244.9,407.3 C247.5,408.3 246.7,408.2 248.1,406.5 C249.6,405.7 252.2,405.2 254.1,405.4 C256.1,405.6 257,405.7 258.2,405.2 C260,404.4 261.8,404.2 262.9,405.4 C263.7,406.3 264.8,405.9 266.1,405.8 C268.5,405.7 271.8,406.7 272.8,408.9 C274.3,410.4 277.6,412 277.6,412 L280.3,411.4 L280.6,410.4 L302.3,402.1 C258,353.6 259.2,289.3 269.6,256.7 L273.6,258.6 C271.5,268.3 269.1,278.2 269.4,292.6 C309.3,310.4 329.1,356.3 304.9,396.5 L307.5,399.8 C317.6,395.6 342.9,381.4 351.6,373.7 L353.5,373.9 C353.5,373.9 358.8,370.5 361.1,368.6 L361.4,262.1 L359.5,262.6 L359.2,256.4 L326.3,253.8 C326.7,253.5 327,253.4 327.1,252.7 L326.9,193.8 C325.7,191.9 298.1,175.8 287.9,172 C287.5,172 287.8,172.7 287.9,174.4 C288.4,180.2 284.5,185.3 280,185.3 C278.4,185.3 278.1,186 278.2,189.3 C278.3,194 276.6,197.2 271.6,199 C265.7,201.1 261.7,198 258.4,185.9 C257.5,182.7 255.9,183.5 254.2,187.9 C253.4,190.1 250.8,195.3 249.3,198.1 C248.1,200.2 246.2,201.2 243.7,202.3 C241.7,203.3 237.4,203.1 234.9,201.8 C230.4,199.5 228.6,196.7 227.3,189.9 C227.1,189 226.5,189.1 225.1,190.2 C217.1,196.2 205.9,190 206,179.6 C206,176.6 205.9,176.4 204.1,177.9 C198.7,182.3 191.3,180.1 188.4,173.1 C187.8,171.6 187.4,170.8 186.9,170.9 L186.9,170.9 Z M141,174.5 C141.6,174.5 143.3,176.8 143.3,176.8 C144.9,178.6 147.1,179.5 149.4,180.8 C149.6,180.5 175.8,215.7 180.3,264.2 L192.5,264.3 C190.2,217.2 177.2,194.5 171.3,180 L175.7,178.6 C185.5,197.4 197.5,235.5 197.1,268.9 L177,268.9 C174.2,235.5 161.1,202.8 143,178.1 C141.7,176.2 140.7,174.9 141.1,174.5 C140.9,174.5 141,174.5 141,174.5 L141,174.5 Z M133.3,179.5 L135.3,185.9 C135.3,185.9 135.5,184.4 136.2,183.8 C140.2,180.2 144,184.9 142.2,191.3 C141.8,193.3 141,197.2 141,197.2 C141,197.2 137,195.1 135,194.5 C129.5,192.1 127.6,187.5 131.8,187 C132.5,186.9 134,186.8 134,186.8 C132.2,185.4 128.4,182.2 128.4,182.2 L133.3,179.5 Z M151.9,180.2 C153.6,181.2 157.9,182.2 160.4,181.2 C162.4,180.4 163.9,180.9 166,181 C167.2,181.1 169.6,180.6 169.6,180.6 C181.5,205.7 189.7,235.5 191.1,262.7 L181.7,262.8 C178.2,233.9 167,204.5 152.8,182.7 C152.2,181.8 151.3,180.3 151.9,180.2 L151.9,180.2 Z M191.1,180.7 C194.7,180.7 198.5,184.4 200.6,190.3 C201.7,193.6 202.2,193.4 203.7,192.9 C207.7,191.5 211.9,195.9 206.6,196.6 C201.4,197.5 204.4,207.7 203.9,208.5 C201.8,208.9 197.8,200.2 197.9,197.6 C198.1,191.3 192.2,186 188.5,188.6 C186.8,189.9 186.9,190.8 186.4,190.3 C184.7,188.9 184.4,185.1 186.3,182.9 C187.9,181.4 189.5,180.6 191.1,180.7 L191.1,180.7 Z M299,182.8 C299,182.8 299.2,191.1 298.9,192.9 C298.3,198.4 291,199 290.8,194.6 C289.6,196.4 288.8,198.6 288.3,200.6 L283.2,197.1 C285.2,195.7 287,194.5 288.4,192.7 C284.6,193 282.5,189.7 285,186.9 C287.8,183.7 295.7,183.4 299,182.8 L299,182.8 Z M110.4,185.5 L112.7,188.1 C92.5,223.9 99.6,269.7 148.4,293.8 C148.1,304.8 146.7,315.9 144,326.2 L126,317.5 C126.1,277 103.2,238.4 66.6,213 C79.8,202.2 94.5,192.9 110.4,185.5 L110.4,185.5 Z M257.8,185.8 C258.7,190.5 263.1,199.1 263.5,198.6 C263.5,198.3 244.9,222.4 236.8,262.7 L229.9,262.7 C234.3,235.9 243.3,210.5 257.8,185.8 L257.8,185.8 Z M315.1,186.9 L318.8,189.1 C299.5,205.2 286.8,225.7 277.5,247.7 L272.6,245.4 C287,213.5 301.3,199.3 315.1,186.9 L315.1,186.9 Z M320.2,190.5 C321.2,190.6 322.4,191.8 324.3,192.9 C326.1,193.9 325.7,194.4 322.2,197 C318.2,200.1 317.8,200 317.8,195.5 C317.8,192.6 318.6,190.6 320,190.5 C320.1,190.5 320.1,190.5 320.2,190.5 L320.2,190.5 Z M315.8,195 C316,195 316.2,195.1 316.3,195.2 C316.6,196.4 316.6,199 316.1,201.7 C315.7,203.4 310.5,207.8 308.7,209.5 C308,210 307.6,209.8 307.5,208.9 C307.6,207.5 307.7,205.7 307.7,203.8 C307.7,203.2 307.6,202.6 308.1,202.2 C310.6,199.4 314.3,195.1 315.8,195 L315.8,195 Z M325.4,196.5 C325.4,196.5 325.4,196.5 325.4,196.5 C326,196.8 325.9,202.8 325.5,203.2 C324,203.6 320,203 318.9,202.4 C318.7,201.7 324.4,196.4 325.4,196.5 L325.4,196.5 Z M144.9,198.4 L146.3,204.3 C146.3,204.3 146.7,203.5 146.8,203.4 C149.6,199.1 153,201.6 152.9,207.6 C152.9,209.5 151.2,216.9 151.2,216.9 C151.2,216.9 140.7,211.9 139.9,209.7 C139.1,207.5 140.2,205.6 142.2,205.4 C142.9,205.3 143.7,205.3 144.5,205.4 L140,200.8 L144.9,198.4 Z M264.8,199.2 L269.6,200.9 C259.7,217 249.5,232.9 242,269.3 L222,269.3 C224.8,247.1 230.4,225.3 240.5,204 C240.5,204 244.4,202.8 246.6,202.1 C246.6,202.1 230.1,239.8 228.2,264 L237.8,264.2 C243.1,240.6 252.7,216.2 264.8,199.2 L264.8,199.2 Z M227.1,199.8 C229.8,199.7 231.8,201.6 231.6,204.9 C231.6,207.9 231.3,208.4 229.1,207.2 C226.3,205.6 224,205.6 221.5,207.4 C220.1,208.4 218.7,209.2 218.7,209.2 C218.7,209.2 219.9,203.9 221.8,202.2 C223.6,200.6 225.5,199.8 227.1,199.8 L227.1,199.8 Z M216.9,207.6 C216.7,209.4 216.2,210.2 215.7,211.7 C215.7,211.7 217.3,211.1 218,210.7 C221.5,209 225.2,212.1 225.2,215.7 C225.4,218.1 222.8,221 219.7,221 C218.6,221 217.5,220.7 216.4,219.9 C217.2,224.3 217.4,226.3 214.2,228.5 C211.5,230.3 205.9,228.3 206.2,223.4 L206.4,220.4 L203.7,220.7 C196.1,221 196,211.7 202.1,210.2 C204.5,209.6 207.2,211.6 207.2,211.6 C206,209.3 206,205.4 207.6,203.6 C211.3,199.2 217.4,203.2 216.9,207.6 L216.9,207.6 Z M283,201.8 C283.4,205.3 284.8,209.1 284.4,212.3 C283.8,216.5 280.3,218.9 277.5,216.2 C277.2,215.9 276.5,215.2 276.5,215.2 C275.2,216.8 274.5,221.3 274.5,221.3 L269.6,218.3 C269.6,218.3 273,215.9 273.9,214.5 C274.2,214.1 274.3,213.4 274.3,213.4 C271.6,214.3 269.3,211.5 270,209 C271.5,205 278.8,203.5 283,201.8 L283,201.8 Z M317.2,204.3 C319,204.2 321.9,204.8 324.1,205 C325.8,205.3 324.9,206.3 321,210 C317.4,213.5 317.6,213.1 314.8,213.1 C308.4,213 307.3,213.1 311,209.1 C313,207 314.6,205.1 316,204.4 C316.4,204.4 316.8,204.3 317.2,204.3 L317.2,204.3 Z M305.7,205.1 C305.8,205.1 305.8,205.1 305.9,205.2 C306.3,205.6 306.2,207.4 306.1,210.1 C306.1,212.9 306.1,212.9 304.9,214.4 C303.4,216.3 302.1,218.2 300.6,220 C299.2,221.5 299.3,221.3 298.5,217.8 C297.7,214.3 298.2,213.3 302.6,208.3 C304.1,206.3 305.1,205 305.7,205.1 L305.7,205.1 Z M325.7,207 L325.8,214 C312.6,226.9 303.7,241.4 297.6,257.4 L293,255.6 C300.9,235.2 312.8,219.2 325.7,207 L325.7,207 Z M211.4,211.3 C209.2,211.3 207.5,213.1 207.5,215.2 C207.5,217.3 209.3,219.2 211.4,219.2 C213.6,219.2 215.3,217.4 215.3,215.2 C215.3,213 213.6,211.3 211.4,211.3 L211.4,211.3 Z M211.4,212.5 C212.9,212.5 214.1,213.7 214.1,215.2 C214.1,216.7 212.9,217.9 211.4,217.9 C209.9,217.9 208.7,216.7 208.7,215.2 C208.6,213.7 209.8,212.5 211.4,212.5 L211.4,212.5 Z M64.9,214.2 C106,240.6 124.5,281.5 124.400403,316.6 L122.1,315.6 C119.7,265.9 92.7,235.4 63.5,215.7 L64.9,214.2 Z M308.4,214.6 C309.3,214.6 310.6,214.7 312.4,215 C315.8,215.2 316.2,215.4 313.9,218.1 C313.3,218.8 312,220.4 311.2,221.5 C310.3,222.7 309.3,223.9 308.8,224 C308.1,224.2 302.1,224 300.4,223.7 C299.8,223.6 300.6,223.1 303.5,218.9 C305.7,215.7 306,214.7 308.1,214.6 C308.1,214.6 308.2,214.6 308.4,214.6 L308.4,214.6 Z M325.5,215.9 C325.5,215.9 326.3,238.5 325.7,253 C316.3,252.7 310.8,256.2 308.5,263 L298.6,258.1 C305.9,239.5 315.6,226.5 325.5,215.9 L325.5,215.9 Z M296.5,216.4 C297,216.4 297.3,217.5 297.5,219.7 C298.1,223.6 298.1,224 296.4,226.5 C295.6,227.7 294.5,229.5 293.9,230.4 C293,232 292.3,232.5 292.1,231.7 C290.8,227.5 290.4,224.9 290.9,224.1 C291.7,222.7 295.1,217.7 295.6,217.1 C295.9,216.6 296.2,216.4 296.5,216.4 L296.5,216.4 Z M61.8,216.8 C94.9,237.3 119,272.2 120,314.5 C120,314.5 113,311.2 108.6,308.8 L108.4,304.7 L110.7,304.6 L111.4,309.2 L116.4,309 L115.1,297.4 L107.2,298.2 L105.6,291.7 L108,291.2 L109.3,295.4 L114.4,294 L111.7,283.7 L103.8,285.9 L101.3,279 L103.9,278.1 L106,282.3 L110.8,280.6 L106.2,270.3 L98.9,273.7 L95.2,267 L98.1,265.5 L100.4,269.5 L104.9,267.2 L99.3,257.7 L92.4,261.6 L88.9,256.4 L91.1,254.9 L93.5,257.6 L97.5,254.8 L91.4,246.6 L84.8,251.8 L79.9,246.1 L82.2,244.2 L85.6,247.2 L89.4,243.9 L82.2,236 L75.9,241.8 L71.2,237.7 L73.5,235.2 L76.4,237.4 L79.5,233.7 L71.6,227.2 L65.7,233 L60.1,229.3 L60.1,226.5 C61.9,227.2 63.9,228 65.6,229 L68.5,224.6 L60.1,218.9 L61.8,216.8 Z M153.9,218.6 L155.1,225.8 C156.3,223.8 157.2,222.5 159.8,223.2 C162.9,224.5 162.9,229.1 160.3,236.2 C159.8,237.5 159.2,238.7 159.2,238.7 C159.2,238.7 157.8,238.1 156.9,237.5 C155,236.2 151.8,234.8 150.2,232.2 C148.5,229.5 148.5,225.8 151.6,226.1 C152.2,226.1 153.4,226.4 153.4,226.4 L148.7,220.4 L153.9,218.6 Z M60,220.7 L65.7,224.4 L64.5,226.6 L60,224.6 L60,220.7 Z M203.5,222.4 C205.2,224.7 199.3,231.5 207,234.3 C207,234.3 207.2,235.9 205.6,236.8 C201.9,239.5 196.5,234.6 198.2,229.5 C199.2,226.2 202.3,222.5 203.5,222.4 L203.5,222.4 Z M219.4,222.7 C219.4,222.7 221.7,224.4 222.2,224.8 C226.4,228.9 226.5,234.7 222.6,236.8 C220,238.2 217.1,237.1 216.1,235.1 C215.6,234.2 216.4,233.2 217.4,233.2 C219.2,233.2 220.6,229.7 220.1,226 C219.9,224.5 219.4,222.7 219.4,222.7 L219.4,222.7 Z M269.5,224 C269.5,224 270,229 270.7,231.2 C272.9,237.4 270.1,241.2 265.9,239.1 C265.3,238.8 264.3,237.5 264.3,237.5 L263.9,244.6 L258,242.9 C259.3,240.8 261.1,239.4 262.5,237 C262.5,237 261.6,237 260.8,237 C257.3,237.1 256,233.2 259.7,230 C262.5,227.6 269.5,224 269.5,224 L269.5,224 Z M300.6,225.7 C301.3,225.7 302.2,225.8 303.4,225.8 C307.2,225.8 308.1,225.3 306.5,227.6 C305.9,228.5 304.3,231.1 303.8,231.9 C302.9,233.7 302.7,234.2 301.1,234.6 C298.8,235.1 296.2,234.7 293.6,234.9 C293,234.9 294.2,232.9 294.8,231.7 C296.4,228.7 297.4,226.7 298.7,226.1 C299.3,225.7 299.8,225.7 300.6,225.7 L300.6,225.7 Z M288.9,228 C289.4,228 289.7,228.8 290.1,230.5 C291.1,234.4 291.4,234.5 289.7,237.8 C288.9,239.4 287.5,242.2 286.9,243.3 C285.4,246.2 285.3,246.2 284.4,243.6 C282.6,238.6 282.5,239.1 285.4,233.4 C287.3,229.8 288.3,228 288.9,228 L288.9,228 Z M72,229.3 L77.3,233.6 L75.8,235.1 L72.9,232.9 L68.6,237.6 L75.7,244.1 L81.8,238.1 L87,243.5 L85.4,244.8 L82.4,241.9 L77.8,245.8 L84.6,253.8 L91.5,248.6 L95.8,254.2 L94.1,255.3 L91.3,252.6 L86.8,255.7 L92.3,263.5 L99.3,259.5 L103.3,266 L101.1,267.1 L98.8,263.5 L93.8,266.4 L98.5,275.5 L106,272.4 L109,279.4 L106.7,280.3 L104.8,276.1 L99.7,278.1 L103.1,287.7 L110.7,285.5 L112.6,292.6 L110.2,293.2 L109,289.3 L104.1,290.5 L106.1,300.1 L113.9,299.6 L114.8,307.4 L112.4,307.5 L111.8,302.9 L106.8,303 C106.8,304.6 107,308 107,308 L104,306.6 C99.5,277 83.7,252.3 60,235.1 L59.9,231.6 L65.7,235.3 C65.8,235.3 71.1,230.5 72,229.3 L72,229.3 Z M299.2,236.3 C300.8,236.3 300.1,237.6 298.1,241.4 C295.9,245.7 295.5,245.8 291.3,246.8 C286.2,248 286.3,248.3 289.1,242.4 C290.2,240.1 290.9,238.1 291.9,237.4 C293.2,236.4 295.7,236.8 298.4,236.4 C298.7,236.3 299,236.3 299.2,236.3 L299.2,236.3 Z M60.3,237.5 C84.9,253.4 100.4,286.1 102.3,306 C102.3,306 101.6,305.6 100.3,304.9 C98.4,304 98,303.5 97.4,300.8 C92.5,276.5 78.8,255.9 60.3,241.3 L60.3,237.5 Z M281.9,241.6 C282.9,241.4 284.8,248.8 284.3,250.4 C283.9,251.5 280.2,248.9 278.9,248.3 C278.2,248 281.2,241.7 281.9,241.6 L281.9,241.6 Z M163.4,241.9 L163.3,249.6 C163.3,249.6 164.2,248.5 164.7,248.1 C166.5,246.8 169.3,248.6 169.4,250.9 C169.5,254.1 169.1,255.4 166.5,259.8 C165.7,261.2 164.5,262.9 164.5,262.9 C164.5,262.9 161.5,260.8 158.2,257.5 C154.7,254 155.3,249.3 158.4,249.2 C159.3,249.2 160.2,249.5 161,249.8 C160.3,247.5 157.8,243.1 157.8,243.1 L163.4,241.9 Z M259.5,247.7 C259.5,247.7 261.1,249.8 262.9,255.4 C264.7,260.7 262,264.7 258.3,262.7 C257.6,262.3 257,261.6 257,261.6 C256.7,264.2 257.2,268.8 257.3,268.8 L251.4,267.8 C251.4,267.8 254.7,262.6 254.9,261.3 C254.9,261.3 254.5,261.6 252.9,261.6 C246.9,261.6 248.2,254.5 255.1,250.6 C255.9,250 259.5,247.7 259.5,247.7 L259.5,247.7 Z M293.6,247.8 C294.9,247.7 294.3,249 292.8,251.9 C291.2,255.1 291.6,254.8 288.3,253.1 C283.6,250.8 283.9,250.5 289.8,248.9 C291.7,248.2 292.9,247.8 293.6,247.8 L293.6,247.8 Z M209,248.7 C213.7,248.7 217.1,253.3 216.4,259.9 C215.2,271.1 215.9,270.5 217.1,271.6 C219.3,273.7 216.3,274.9 213.6,272.9 C211.8,271.5 211.1,270.2 211.2,264 C211.3,256.9 210.9,255 208.4,255.7 C206.8,256.1 206.3,257.4 206.5,262.3 C206.7,269 206.3,270.8 203.7,272.9 C200.9,275 197.9,273.1 200.5,271.7 C201.7,270.4 201.9,268.8 201.4,264.7 C201.1,261.2 199,248.7 209,248.7 L209,248.7 Z M324.5,254.4 C325.1,254.4 325.7,254.4 326.3,254.4 C335.3,254.7 358,256.6 358,256.6 L358.2,263.3 C357.2,263.9 340.2,261.3 327.7,261.6 C324.8,261.7 322.7,262.9 320.6,261.9 C322.6,262.7 322.4,272.9 313.5,270.4 C305.9,267.7 309.6,257.4 319.3,254.9 C321,254.6 322.8,254.4 324.5,254.4 L324.5,254.4 Z M274.5,258.9 L293.9,268.5 C296.6,305 309.2,343.5 352.1,372.7 C345.2,377.7 327.7,389.9 307.8,398.2 L306.2,396.5 C329.8,356.3 312,312 270.6,292 C270.7,280.8 272.1,269.8 274.5,258.9 L274.5,258.9 Z M342.8,265 C346.5,264.9 347.5,265.3 347.8,267 C348.1,268.6 349.3,269 350.7,268.5 C354.1,267.3 356.2,273.3 353.4,276 C351.6,277.7 352,278.3 353.4,278.3 C357,278.3 356.9,283 353.2,285.6 C351.7,286.7 351.7,287.2 353.3,288 C355.9,289.3 355.4,291.9 352.1,294 C350.3,295.2 350.2,295.4 351.7,295.8 C355.5,296.8 351.6,302.2 347.5,301.3 C345.8,300.9 344.2,301.3 342.6,302.3 C338.2,304.1 337.4,304.5 332.6,303.9 C328.4,303.1 326.5,301.7 325.4,298 C322.9,290.5 320.3,282.2 320.2,274 C319.8,269 328.3,264.4 332.3,264.2 C335.6,263.8 339.3,265 342.8,265 L342.8,265 Z M77.1,265.1 C81.6,265.1 85.2,268.7 85.2,273.2 C85.2,277.7 81.6,281.3 77.1,281.3 C72.6,281.3 69,277.7 69,273.2 C69.1,268.8 72.7,265.1 77.1,265.1 L77.1,265.1 Z M167,267.5 L166.3,274.6 C166.3,274.6 167.5,273.7 167.8,273.4 C169.9,271.6 173.2,273.6 172.5,276.3 C172.3,278.7 168.1,285.9 166.4,287.4 C166.4,287.4 159.7,280.1 159,278.7 C157.4,275.5 159.6,272.2 162.5,273.6 C162.9,273.8 164.1,274.7 164.1,274.7 L162,268 L167,267.5 Z M77.7,268.1 C74.8,268.2 72.1,269.9 72.5,272.3 C72.7,273.3 74.3,271.9 75.8,270.9 C76.9,270.2 78.3,270.1 79.6,270.6 C80.8,271 81.3,272.1 81.9,272.9 C82.5,273.6 83.1,274.2 83.4,273.8 C83.7,273.4 83.6,273 83.5,272.5 C83,269.4 80.3,268 77.7,268.1 L77.7,268.1 Z M295.4,269.2 L298.3,270.7 C302.2,322.2 328.3,352.5 355.6,370.6 L353.4,371.9 C319.8,350.3 296.5,311.8 295.4,269.2 L295.4,269.2 Z M299.7,271.3 C299.7,271.3 307,275 310.8,276.7 L310.9,281.4 L308.4,281.5 L307.5,277.1 L302.2,277.5 L303.8,288.3 L312.3,287.3 L313.5,293.8 L310.6,294.4 L309.1,290.4 L304.2,291.6 L307.4,302.1 L315.1,299.6 L317.5,306.4 L314.9,307.3 L313.3,303.3 L308.3,305.1 L312.2,315.3 L320.2,312.7 L323.4,319.1 L321,320.2 L318.7,316.2 L313.9,318.6 L319.5,328.2 L326.7,324.4 L330.1,329.5 L327.5,331.3 L325.1,328.2 L321.2,330.8 L327.4,339.3 L333.6,334.7 L338.3,340.1 L336.2,341.9 L333,338.7 L329.2,342.1 L336.6,350.2 L343,344.6 L347.6,348.8 L346.2,350.2 L343.1,348.3 L339,352.6 L346.8,359.4 L353,352.6 L358.2,356.5 L358.2,359.3 L353.5,356.9 L350.4,361.6 L358.2,367.5 L358.1,369.8 C313.7,343.2 302,302 299.7,271.3 L299.7,271.3 Z M208.5,271.8 C210.4,271.7 212.5,273.5 215.8,277.4 C225.2,288.3 222.7,305.1 210.4,313.9 C208.6,315.2 207.9,315.1 205.7,313.2 C193.1,302.4 192.4,287.9 203.6,275.2 C205.6,273.1 207,271.9 208.5,271.8 L208.5,271.8 Z M253.5,273.3 C255.8,276.9 258.7,280.5 259.1,284.8 C258.9,289.1 256.1,289.9 253.1,287.4 C252.7,289.6 254,294 254,294 L248.6,293.4 C248.6,293.4 250.7,289.7 250.8,287.4 C247.1,290 244.2,286.6 244.7,283.9 C245.8,279.2 249.6,276.1 253.5,273.3 L253.5,273.3 Z M208.7,276.1 C208.3,276.1 207.8,276.4 207.1,277 C203.8,279.6 201.2,282.9 199.9,286.3 C197.1,293.5 198.9,301.5 205.3,307.8 C208.5,311 209.7,310.8 214.6,304.2 C218.8,298.7 219.6,291.6 217.1,285.4 C215.9,282.4 213.6,279.4 210.9,277.3 C209.8,276.4 209.3,276.1 208.7,276.1 L208.7,276.1 Z M312.2,277.4 L316.4,279.5 C321.7,314.6 339,336.1 358.4,350.9 L358.4,354.2 L353.2,350.2 L347,356.7 L342,352.6 L343.9,350.8 L346.8,352.6 L350.5,348.5 L343.3,342.1 L337,347.6 L331.8,342.2 L333.4,340.9 L337,344.1 L341.1,340.5 L334.1,332.6 L327.8,337.4 L323.4,331.6 L325.3,330.5 L327.6,333.6 L332.4,330.6 L327.3,322.7 L320,326.4 L316.3,319.7 L318.4,318.7 L320.8,322.5 L325.3,320.3 L320.7,311 L313.2,313.5 L310.5,306.2 L312.6,305.4 L314.5,309.7 L319.5,308.1 L316.1,298.1 L308.4,300.3 L306.5,293 L308.9,292.5 L310.2,296.5 L315.5,295.4 L313.5,285.9 L305.6,286.9 C305.3,285.3 304.2,280.9 304.2,279.3 L306.6,279.1 L307.4,283.3 L312.7,283.1 L312.2,277.4 Z M209,278.2 C211.9,278.6 215.4,284.2 216.2,286.2 C217.7,290.2 217.9,294.8 216.5,298.4 C215.4,301.3 212,306.5 209.8,308 C208,308.9 206.6,308.2 204.1,304.9 C199.2,298.2 198.2,290.2 202.1,284.6 C205,280.4 207.2,278.2 209,278.2 L209,278.2 Z M317.8,279.9 L319.9,280.9 C322.5,301.3 334.5,329.2 358.3,345.9 L358.3,348.5 C339.9,335.2 322.9,312.4 317.8,279.9 L317.8,279.9 Z M208.6,281.3 C200.3,287.5 201.7,297.3 207.9,303.9 C214.7,299.4 217,287.4 208.6,281.3 L208.6,281.3 Z M82.4,281.7 C87.1,281.6 90,283.2 91.4,286.5 C93.6,291.5 93.9,292.5 94.4,295.1 C94.7,296.6 95.1,298.9 95.3,300.1 C97.7,313.8 95.9,318.9 87.7,321 C85.2,321.6 81.8,321.8 79.4,321.3 C78.8,321.1 76.5,321.1 74.6,321.1 C71,321 69.9,320.6 68.1,319.1 C67.4,318.6 66.8,318.1 66,318 C61.9,317.3 60.6,313.5 63.8,310.7 C65.6,309.1 65.8,308.9 65.6,308.6 C65.5,308.5 64.7,308.3 63.9,308.3 C59.7,308.3 59.8,304 64,300.9 C66,299.4 66.9,298.1 65.6,298.4 C61.8,299.3 60.5,293.7 64.4,292 C66.5,290.8 68,289.8 66,289.7 C64.3,289.8 62.9,288.6 63.4,287.1 C64,285.3 67.5,283.6 69.5,284.3 C71.1,284.8 72.6,285.2 73.6,284.5 C76,282.8 77,282 79.1,281.7 C80.1,281.7 81.4,281.7 82.4,281.7 L82.4,281.7 Z M221,282.8 L240.2,283.2 L239.6,302 L221.5,301.7 C221.6,301.6 225.5,293.2 221,282.8 L221,282.8 Z M178.1,283.2 L196.5,283.4 C193.5,290.5 194.6,297.8 195.7,301.9 L177.7,301.6 L178.1,283.2 Z M208.7,283.2 C213.6,286.1 215,296.6 208.1,301.9 C201.7,295.2 203,287.1 208.7,283.2 L208.7,283.2 Z M163.4,291.4 L168.3,291.9 L166.5,299 C166.5,299 167.3,298.2 167.6,298.1 C173.9,295.1 174.4,301.9 167.9,307.9 C166.5,309.2 164.2,311.1 164.2,311.1 C164.2,311.1 162.4,308.4 161,305.9 C159.4,303.4 158.3,300.8 158.6,299.4 C159,297.4 161.4,296 163,297.3 C163.8,297.9 164.6,298.8 164.6,298.8 L163.4,291.4 Z M251.3,296.6 C251.3,296.6 253.4,298.7 254.6,300.1 C258.9,304.9 259.7,309.3 257.5,310.7 C255.6,311.6 254.4,311 252.9,309.7 C253.2,312.6 255.6,317 255.5,317 L249,318 C249,318 250.6,312.1 250.5,309.9 C250.5,309.9 249.2,310.9 248.6,311.2 C244.4,312.8 242.3,307.9 245.8,303.1 C248.7,299.1 251.3,296.6 251.3,296.6 L251.3,296.6 Z M340,305.5 C344.4,305.5 347.9,309 347.9,313.4 C347.9,317.7 344.4,321.3 340,321.3 C335.7,321.3 332.1,317.8 332.1,313.4 C332.1,309 335.6,305.5 340,305.5 L340,305.5 Z M343.9,309.1 C343.6,309.2 343.3,310 343.2,311.7 C342.8,315.2 339.9,316.7 336.7,315 C335.4,314.3 334.3,313.4 334.3,314.1 C334.3,314.5 335.3,316.6 336.1,317.3 C338.8,319.8 345.5,319.2 345.3,313.5 C345.2,310.8 344.4,309 343.9,309.1 L343.9,309.1 Z M200.7,312 C201.6,312 202.6,312.3 203.3,313 C205.5,314.5 205.9,316.4 206,323.4 C206.1,329.7 206,329.8 207,330.6 C209.5,332.5 211,329.6 210.3,323.3 C209.6,317.2 211.8,312.8 215.5,312.8 C217.3,312.8 217.7,313.9 216.3,315.2 C214.8,316.6 214.5,318.4 215,321.9 C216.2,331 215.2,335.4 211.3,337.2 C207.3,339.1 202.2,336.9 201.3,331.9 C200.7,328.6 200.7,324.6 201.1,320.9 C201.2,317 201.1,316.5 199.7,314.3 C198.9,312.9 199.6,312.1 200.7,312 L200.7,312 Z M101,315 C103.2,315 105.5,316.3 106.8,319.1 C110.1,325.9 103,331.5 96.4,331.9 C85.1,332.1 71.6,330.4 60.2,328.9 L60.4,322.5 C70.8,323.1 82.6,324 95.3,324.6 C93.9,318.6 97.3,315 101,315 L101,315 Z M160.6,316.3 L166.9,317.7 L162.9,324.3 C164.1,323.8 164.9,323.4 166.1,323.9 C168.7,324.8 168.7,328.1 166.8,331.1 C165.3,333.3 161.1,335.9 158.3,337.6 C156.7,334.1 153.1,328.1 154.6,324.8 C155.4,323 157.4,322.2 159.4,323.1 C160,323.5 161.3,324.1 161.3,324.1 L160.6,316.3 Z M175.5,316.5 L194.7,316.7 C191.9,336.1 186.4,362.1 175.7,383.2 L171.2,384.4 C180.7,363.4 187,343.7 190,321.6 L180.4,321.6 C174.9,345.3 166.7,367.2 154.1,386.2 L148.5,384.4 C161.9,363.1 172.5,339.4 175.5,316.5 L175.5,316.5 Z M219.3,316.8 L240.7,316.8 C244.6,356.4 258,383.4 277.9,410.1 C277.9,410.1 276.6,410.4 275.9,410.1 C273.8,407.5 271.9,406 268.9,405.2 C252.2,381.1 240.9,347.4 238.2,321.7 L225.5,321.7 C226.9,354.1 235.9,380.6 247.8,406.3 L241.3,407.5 C231.8,384.4 221.3,364.4 219.3,316.8 L219.3,316.8 Z M252.7,321.7 C254.5,323.1 256.4,324.4 258.2,325.7 C263,329.1 263,335.5 258.3,335.5 C257.8,335.5 256.6,335.4 256.6,335.4 C256.6,335.4 258.5,339.6 259.7,341.7 C257.7,342.2 253.7,343 253.7,343 C253.7,343 254.3,338.9 254.2,335.5 C254.2,335.5 253.4,336.4 252.8,336.7 C249.7,338 247.1,335.3 247.4,332.1 C247.8,327.7 252.7,321.7 252.7,321.7 L252.7,321.7 Z M109.5,322.5 L120.1,327.7 C112.9,344.1 104.7,359.4 92.8,371 L93.1,333.2 C99.5,333 106.2,333 109.5,322.5 L109.5,322.5 Z M181.6,323.1 L188.1,323.1 C185.2,353.3 165.3,394.1 161.5,399.1 L160.3,400 C160.4,400 157.7,390.7 154.7,387.4 C166,372.2 177.8,343 181.6,323.1 L181.6,323.1 Z M227.3,323.1 L237.1,323.1 C240.2,347.2 247.6,373.1 266.4,404.7 C266.4,404.7 264.5,404.9 263,404 C259.8,402 257.6,404.6 255.6,404.5 C252.6,404.3 252.1,404.2 249,404.9 C233.5,372.1 229.1,346.3 227.3,323.1 L227.3,323.1 Z M121.4,328.5 L124.9,330.1 C117.4,347.5 110.6,361.3 92.8,378.3 L92.7,373.2 C105.2,361.2 113.7,345.2 121.4,328.5 L121.4,328.5 Z M126.5,330.9 C128.2,331.5 130,332.5 131.6,333.4 C132.1,333.6 132,334.1 132,334.6 C131.3,336.2 128.4,337 127.3,337.3 C126,337.7 124.6,337.9 124.4,338 C122.9,338.4 123.4,336.8 125,333.5 C125.8,331.9 126.1,330.9 126.5,330.9 L126.5,330.9 Z M133.5,334.6 C134.6,334.5 138.8,336.9 139.7,337.7 C140,338.7 139.1,340.2 137.8,343.1 C135.7,347.5 135.3,347.6 134.7,344 C134.6,343.4 134,341.3 133.6,339.9 C132.7,336.8 132.6,334.9 133.5,334.6 L133.5,334.6 Z M141.1,338.2 C141.1,338.2 143.6,339.4 144.4,339.9 C133.4,372.8 104.2,400 104.3,399.3 L99.7,396.6 C119.2,379.1 133.5,358.3 141.1,338.2 L141.1,338.2 Z M129.5,338.7 C130.6,338.7 129.6,340 128.2,343.2 C126.8,346.3 126.4,347.4 125.1,347.9 C123.3,348.6 120.7,348.6 118.3,349 C117.3,349.2 117.7,348.4 119.3,345.3 C121.1,341.6 121.2,340.9 124,340.1 C125.7,339.8 127.9,338.6 129.5,338.7 L129.5,338.7 Z M133.4,345.2 C134.5,349.3 134.5,350.1 133.8,351.5 C132.4,354.2 130.5,357.3 130,358.1 C128.7,360.2 128.4,359.8 127.6,354.7 C127.1,351.5 126.7,350.1 127.1,348.7 C127.7,347.1 129.6,343.5 130.7,341.3 C132.2,336.7 133,344.8 133.4,345.2 L133.4,345.2 Z M153.6,341.6 L159.4,343.5 L154.9,349 C154.9,349 156.8,348.7 157,348.7 C161.5,349 160.8,353.5 157.3,356.2 C155.8,357.5 148.7,360.8 148.7,360.8 C147.9,356.8 146.3,354.2 146.7,350.1 C147,347.9 147.2,345.9 149.9,345.8 C151.3,345.7 151.9,347.2 152.9,348.4 L153.6,341.6 Z M258,346.5 C258,346.5 261.5,348.3 264.7,350.8 C268.9,354 269.6,357.8 265.4,359.3 C264.9,359.5 263.5,359.4 263.5,359.4 C264.7,361.4 267.4,364.4 267.4,364.4 C266,365.4 264.1,366.1 261.9,366.8 C261.9,366.8 261.4,361.8 260.9,359.9 C260.9,359.9 260.4,361 259.7,361.4 C255.7,363.9 252.5,359.2 254.7,353.2 C256,349.5 258,346.5 258,346.5 L258,346.5 Z M213.6,347.4 C223.7,347.1 217.8,363.7 212.7,362.6 C212.6,362.5 216.9,352.8 211.1,351.3 C208.6,350.6 210.8,347.3 213.6,347.4 L213.6,347.4 Z M197.1,348.5 C200.2,348.5 202.5,350.7 199.5,352.1 C194.8,354.3 197.6,359.5 197.7,362.5 C197.8,364.3 193.5,360.9 192.6,357.2 C191.4,352.5 191.9,348.9 197.1,348.5 L197.1,348.5 Z M122.4,350.3 C123.1,350.3 123.6,350.4 123.8,350.5 C124.1,351.3 122.7,353.7 120.6,356.8 C119.5,358.5 119,358.9 118.4,359.3 C116.8,360.2 114.6,360 112.7,360.1 C109.9,360.1 110.4,360.1 113.5,355.3 C114.9,353.2 115.7,351.4 116.5,350.9 C116.7,350.8 120.3,350.3 122.4,350.3 L122.4,350.3 Z M126.1,353.7 C126.1,359.7 128.1,361.6 126.6,363.5 C124.8,366.4 122.5,369.7 121.6,370.7 C120.2,372.4 120.3,372.1 120,367.6 C119.7,364.4 119.4,362.2 119.9,361.2 C121.1,358.3 122.6,356.9 124.1,353.8 C125.2,351.2 126.1,351.6 126.1,353.7 L126.1,353.7 Z M205.7,356.7 C208.6,356.7 210.4,359.9 210.3,362.7 L210.2,365.4 C214,364 218.7,365.4 218.9,369.1 C219.3,375.4 214.6,374.7 210.7,374.4 C211.1,374.5 211.7,380.1 209.3,382.2 C205.6,386.3 198.8,382.1 200.5,376.1 C200.9,374.9 200.9,374.1 200.9,374.1 C200.9,374.1 198.5,375 197.6,374.9 C190.2,374.6 190.7,364.1 198.2,365.3 C199.7,365.6 200.8,365.9 200.8,365.9 C200.8,365.9 200.6,365.2 200.4,364.3 C199.3,360.3 201.6,356.7 205.7,356.7 L205.7,356.7 Z M354.3,358.6 L358.3,360.9 L358.3,365.4 L352.6,361.2 L354.3,358.6 Z M114.2,361.6 C115.8,361.6 117,361.7 116.8,362.1 C116.8,362.9 113.3,367.7 111.3,369.9 C109.6,371.8 109.3,371.5 105.1,371.3 C103.4,371.2 102.3,371.2 102.4,370.8 C104.4,368.2 107.1,364.9 108.9,362.1 C109.6,361.8 112.2,361.6 114.2,361.6 L114.2,361.6 Z M118.1,363.7 C118.4,363.7 118.5,364.3 118.5,365.7 C118.5,366.8 118.6,370 118.8,371.4 C119.1,374 119.1,374 118,375.5 C116.7,376.9 115.3,379 113.6,380.7 C111,383.6 111.3,383.7 111.3,377.6 C111.3,372.8 111,372.8 111.9,371.7 C112.4,371.1 114.1,369.1 115.2,367.5 C116.8,365.1 117.7,363.7 118.1,363.7 L118.1,363.7 Z M142.8,364.5 L148.1,367.3 L142.8,372.7 C142.8,372.7 144.1,372.7 144.6,372.8 C148,373.5 147.8,377.1 144.3,379.8 C142.2,381.1 134.9,383.8 134.9,383.8 C134.6,380.7 134,377.9 134.1,374.7 C134.2,373.2 134.3,371.5 135.4,370.2 C136.2,369.3 137.5,368.8 139.4,370 C140.4,370.9 140.9,371.9 140.9,371.9 L142.8,364.5 Z M205.7,366.4 C203.6,366.4 201.9,368.1 201.9,370.2 C201.9,372.3 203.6,374 205.7,374 C207.8,374 209.5,372.3 209.5,370.2 C209.5,368.1 207.8,366.4 205.7,366.4 L205.7,366.4 Z M265.3,367.2 C265.3,367.2 272.3,369.8 275.4,372.7 C278.3,375.1 277,379.2 274,379.3 C273.8,379.3 272.5,379.1 272.5,379.1 C273.5,380.6 276.8,384.3 276.8,384.3 L271.4,386.5 C271.4,386.5 270.5,382.4 269.9,380 C268,384.3 263.4,381.5 263.1,378.8 C262.4,374.9 264.1,371 265.3,367.2 L265.3,367.2 Z M205.7,367.6 C207.2,367.6 208.3,368.8 208.3,370.2 C208.3,371.6 207.1,372.8 205.7,372.8 C204.3,372.8 203.1,371.6 203.1,370.2 C203.1,368.8 204.3,367.6 205.7,367.6 L205.7,367.6 Z M102.8,373 C104.7,373 107,373.1 108.1,373.1 C108.9,373.7 107.2,375.6 104,379 C101.4,381.7 101,381.3 97.9,381.4 C92.6,381.4 92.5,381.5 94.9,378.7 C97.5,375.7 99.1,373.7 100.3,373.1 C100.7,373 101.6,373 102.8,373 L102.8,373 Z M109.2,375.6 C109.8,375.5 109.6,376.9 109.5,380.1 L109.4,385.6 L105.3,389.5 C100.6,393.7 101.1,394 101.2,390 C101.2,386.9 101.2,384.6 101.9,383.2 C104,380.7 106.1,378.5 108.5,376.1 C108.7,375.8 109,375.6 109.2,375.6 L109.2,375.6 Z M213.3,377 C214.4,376.9 217.3,381.9 218.1,386.1 C219.8,395.6 225.5,400.1 229.5,396.3 C231.1,394 231.3,396.5 231.2,397.7 C230.4,409.8 216.7,404.7 215.1,392.8 C210.3,395.9 205.8,389.6 208.7,389.7 C215.5,387.4 213.6,381.2 213.3,377 L213.3,377 Z M197.5,377.1 C198.2,381.3 190.6,388.4 186.4,383.4 C184.2,380.8 186.2,375.6 188.9,378.8 C191.9,381 194.9,378.4 197.5,377.1 L197.5,377.1 Z M94,382.8 C95.5,382.8 97.8,383.1 98.8,382.9 C100.2,383 99.2,383.7 96.2,386.4 C93.6,388.7 92.9,389.8 92.6,388.8 C92.5,387.2 92.5,385.3 92.5,383.1 C92.8,382.9 93.4,382.8 94,382.8 L94,382.8 Z M129.1,385.6 L133.7,388.9 L129.1,393.1 C133.2,392.9 133.5,396.7 132,398.9 C131,400.4 127.1,402 123.2,402.6 C120.9,403 119,403.2 119,403.2 C119,403.2 118.9,401.4 118.9,398.4 C118.8,392.3 119.2,389.9 121.5,388.7 C123.2,387.9 126,389.2 126.7,390.7 C126.9,391.2 127.5,392.1 127.5,392.1 L129.1,385.6 Z M99.6,385.9 C99.6,385.9 99.6,385.9 99.6,385.9 C99.9,386.3 99,396.2 99,396.2 L92.4,392.5 C92.3,392.4 99,386 99.6,385.9 L99.6,385.9 Z M275.6,387 C280.3,389.2 283.9,388.8 287.1,391.6 C289.9,393.1 289.1,397.1 287,397.9 C286.1,398.2 284.6,398 284.6,398 C286.3,400.1 289.9,402.7 289.9,402.7 L284.1,405.1 C284.1,405.1 283.3,401.2 282.6,399 C281.5,402.2 277.9,402.1 275.9,400.6 C274.5,399.5 273.8,395.8 274.5,392.5 C274.7,391.8 275.6,387 275.6,387 L275.6,387 Z M296.9,419.4 C302.9,427.9 306.3,435 307.2,445.6 C307.7,452.1 307.6,453.4 306,453.4 C305,453.4 304.6,452.9 304.6,451.8 C304.7,434 282.8,429.8 274.6,445.2 C269.8,454.2 272.2,466.2 282.5,482.4 C292,497.8 304.1,509.5 311.1,526.1 C318,509.6 331.8,495.8 341.6,479.9 C355.8,459.5 350.9,438 333.3,435.7 C325.2,434.7 316.4,442.7 315.4,451.1 C315.2,453 314.8,453.5 313.8,453.4 C312.4,453.2 312.9,449.5 313.5,444.6 C315.1,435.2 318.4,427.4 323.8,419.4 L296.9,419.4 L296.9,419.4 Z M382,442.9 C382.2,442.9 386.5,448.9 387.1,451.1 C387.6,452.9 388,454.8 387.7,455.6 C387.3,456.5 386.4,455.8 385.3,454.3 C382.2,450.2 376.2,451.5 373.7,456.8 C371.9,460.6 372.9,465.6 376.2,471.1 C380.1,478.4 389.8,491.5 390.1,492.7 C390.4,491.7 396.5,480.5 401.5,473.2 C404.1,468.8 406.1,465 406.2,459.1 C405.6,451.8 396.8,448.7 392.9,454.4 C391.6,456.2 390.9,456.8 390.5,455.3 C390.2,454.3 391.1,452.1 391.6,449.8 C392,447.8 395.8,442.8 395.9,442.8 L382,442.8 L382,442.9 Z M244.5,479.5 C187,493.1 140.3,484.7 135.6,483.1 L131.9,488.6 C131.5,489.5 131.2,492.3 128.7,493.1 L125,498.7 L125.7,499.5 L122.4,502.4 L123.2,503.4 L120.8,506.9 L119.9,506.8 L114.3,515.2 L115.2,516.1 L102.4,536.1 L275.2,536.1 C265.2,517.1 254.4,498.5 244.5,479.5 L244.5,479.5 Z M243.4,481.9 L244.4,484.8 C241.5,484.4 238.2,484.3 234.8,484.1 C237.9,483.5 240.8,482.7 243.4,481.9 L243.4,481.9 Z M233.4,484.4 C227.9,486.9 224.6,490 222.1,493.2 C219,490.8 215,489 210.2,487.9 L233.4,484.4 Z M136.3,485.8 L138.7,486.1 C138.7,486.1 137.9,486.7 137.3,486.6 C136.9,486.5 136.3,485.8 136.3,485.8 L136.3,485.8 Z M246.4,487.2 L248,490.3 C244.3,488.3 228.2,483.8 223.7,499.7 C218.9,493.2 199.2,483.9 189.2,503.8 C186.4,498.4 169.8,482.9 154.7,502.7 C148.8,490.4 143.8,489.4 132.9,491 C140.7,483.5 151.6,491.3 156.2,497.6 C169.2,486.8 180.1,490.1 189.6,498.8 C201.9,485.4 214.1,488.7 222.7,495.4 C228.7,486.6 234.6,483.9 246.4,487.2 L246.4,487.2 Z M145.8,487.3 C153.5,488.3 161.3,488.8 169,489.2 C164.5,490.8 159.9,492.3 156.3,495.6 C153.6,491.7 149.7,489.5 145.8,487.3 L145.8,487.3 Z M201.7,488.5 C197.5,490.5 192.9,493.5 189.3,496.6 C185.4,493.4 181.3,490.6 176.9,489.2 C184.9,489.7 193.9,489.3 201.7,488.5 L201.7,488.5 Z M251.2,494.9 C251.2,494.9 249.6,495.2 249.1,495.3 C242.3,497.1 243.8,506.7 250.8,506.7 C251.5,506.7 253.1,506.4 253.1,506.4 C253,512.9 254.9,514.5 261.6,514.1 L272.9,534.3 L105.9,533.6 L116.5,516.6 C121.8,517.2 125.2,514.3 124,509.7 C124,509.7 127.3,510.7 128.2,510.7 C134.2,510.7 135.8,501.5 130,499.9 C129.4,499.7 127.7,499.5 127.5,499.5 C130.1,492.9 137.4,496.8 139.5,499.5 C144.2,495.6 149.4,497.4 151.6,502.4 C151.6,502.4 150.7,501.9 150.5,501.7 C145,497.7 139.9,506 145.3,509.8 C145.8,510.2 146.9,510.5 146.9,510.5 C146.9,510.5 146.2,511 145.6,512 C142.8,516.7 147.3,522.4 152.7,520.9 C156.9,519.3 156.9,516.1 156.9,512.7 C156.9,512.7 158.3,512.8 159.6,512.8 C164.6,512.9 166,506.5 163,503.5 C161.3,501.9 159.2,502 158.1,501.8 C163.9,496.1 167.8,500 171.8,502.7 C172.4,502.7 178.9,494.9 186.5,502.5 C182.8,501.5 179,503.9 178.9,507.8 C179,510.3 180.7,512.5 184.6,512.7 C184.2,514 183.9,514.9 183.9,516.1 C183.8,520.2 187,522.7 191,522.1 C194.3,521.7 196.8,517.8 195.6,514.7 C195.1,513.3 194.3,512.7 194.3,512.7 C203.3,513.8 203.2,502.4 196.1,501.7 C194.4,501.5 193.2,502.3 191.5,503.8 C195.6,495.4 203.2,497.1 206,500.5 C209.9,497.7 215.2,493.8 221.6,500.7 C220.5,500.5 219.1,500.4 217.8,500.8 C212.7,502.2 212.7,508.6 216.7,510.5 C217.8,511.1 219.2,511.4 220.7,511.3 C219.4,516.7 225.4,520.6 229.6,518 C232.6,516.2 233.4,511.8 230.1,507.8 C235.6,507.5 236.2,500.6 233,498.2 C230.5,496.3 227.5,497.2 225.4,499.7 C224.7,497.7 230.2,490.8 237.9,495.8 C242.5,492.5 246.6,491.4 251.2,494.9 L251.2,494.9 Z M253.6,500.3 L255.8,504.2 C254.4,504.3 252.3,502.8 253.6,500.3 L253.6,500.3 Z M225.6,504.3 C227,504.3 228.1,505.4 228.1,506.8 C228.1,508.2 227,509.3 225.6,509.3 C224.2,509.3 223.1,508.2 223.1,506.8 C223.2,505.4 224.3,504.3 225.6,504.3 L225.6,504.3 Z M124.3,504.4 C124.6,505.7 124.8,507 122.4,507.3 L124.3,504.4 Z M369.8,505.6 L369.8,511.1 L374.3,511.1 L387,540.4 L374.8,559.4 L369.8,559.4 L369.8,564.3 L387.3,564.3 L387.3,559.4 L382.2,559.4 L397.7,535.7 L397.7,559.4 L393.2,559.4 L393.2,564.3 L409,564.3 L409,559.4 L403.2,559.4 L403.2,511.1 L409,511.1 L409,505.6 L393.2,505.6 L393.2,511.1 L397.7,511.1 C397.8,515.8 397.8,519.9 397.7,524.6 C395.5,527.6 393.2,531.2 390.7,534 L380.9,511.1 L387.3,511.1 L387.3,505.6 L369.8,505.6 Z M152.5,506.8 C153.7,506.8 154.8,507.8 154.8,509.1 C154.8,510.4 153.8,511.4 152.5,511.4 C151.3,511.4 150.3,510.4 150.3,509.1 C150.3,507.8 151.3,506.8 152.5,506.8 L152.5,506.8 Z M190,507.5 C191.3,507.5 192.4,508.6 192.4,509.9 C192.4,511.2 191.3,512.3 190,512.3 C188.7,512.3 187.6,511.2 187.6,509.9 C187.6,508.6 188.7,507.5 190,507.5 L190,507.5 Z" id="Shape" fill="#000000" fill-rule="nonzero"></path>
        </g>
    </g>
</svg>