<?xml version="1.0" encoding="UTF-8"?>
<svg width="421px" height="587px" viewBox="0 0 421 587" version="1.1" xmlns="http://www.w3.org/2000/svg" xmlns:xlink="http://www.w3.org/1999/xlink">
    <!-- Generator: Sketch 61.2 (89653) - https://sketch.com -->
    <title>1C</title>
    <desc>Created with Sketch.</desc>
    <g id="Page-1" stroke="none" stroke-width="1" fill="none" fill-rule="evenodd">
        <g id="1C">
            <path d="M20.6,0.9 L400,0.9 C411.1,0.9 420,9.8 420,20.9 L420,566.6 C420,577.7 411.1,586.6 400,586.6 L20.6,586.6 C9.5,586.6 0.6,577.7 0.6,566.6 L0.6,20.9 C0.6,9.9 9.5,0.9 20.6,0.9 L20.6,0.9 Z" id="Path" fill="#FFFFFF" fill-rule="nonzero"></path>
            <path d="M20.6,0.9 L400,0.9 C411.1,0.9 420,9.8 420,20.9 L420,566.6 C420,577.7 411.1,586.6 400,586.6 L20.6,586.6 C9.5,586.6 0.6,577.7 0.6,566.6 L0.6,20.9 C0.6,9.9 9.5,0.9 20.6,0.9 L20.6,0.9 Z" id="Path" stroke="#000000" stroke-width="0.7974"></path>
            <path d="M14.2,87.5 L14.2,82.4 L19.2,82.4 L29.8,27.4 L35.9,27.4 L47.6,82.4 L51.6,82.4 L51.6,87.5 L37.9,87.5 L37.9,82.4 L41.6,82.4 L40.1,74 L26.3,74 L25.2,82.4 L28.9,82.4 L28.9,87.5 L14.2,87.5 Z M39,67.9 L33,38.5 L27.4,67.9 L39,67.9 Z" id="Shape" fill="#000000" fill-rule="nonzero"></path>
            <path d="M406.3,500.1 L406.3,505.2 L401.3,505.2 L390.7,560.2 L384.6,560.2 L372.9,505.2 L368.9,505.2 L368.9,500.1 L382.6,500.1 L382.6,505.2 L378.9,505.2 L380.4,513.6 L394.3,513.6 L395.4,505.2 L391.7,505.2 L391.7,500.1 L406.3,500.1 Z M381.6,519.7 L387.6,549.1 L393.2,519.7 L381.6,519.7 Z" id="Shape" fill="#000000" fill-rule="nonzero"></path>
            <path d="M196.5,347.5 C201.9,336.6 205.8,325.5 206.5,313.6 C207.1,309.2 204.5,309.2 204.1,312.2 C196.4,341.5 155.7,333.6 157.1,306 C158.2,283.7 180.4,278.9 192,286.2 C196.6,288.9 196.3,287.3 193.8,284.5 C176.6,265.3 187,240.6 210.3,240.2 C235.4,241.7 241.9,268.1 226.5,283.7 C224.6,285.6 220.3,291.6 226.7,287.4 C242.3,276.3 263.9,288.2 263.4,305.3 C262.6,336.7 224.3,339.1 216.1,312.8 C215.3,309.9 213,308.4 213.7,313.4 C214.8,322.3 217.2,335.8 223.9,347.6 L196.5,347.6 L196.5,347.5 Z" id="Path" fill="#000000" fill-rule="nonzero"></path>
            <path d="M24.9,142.2 C27.1,137.6 29.3,133.3 30.5,128.3 C31.3,123.5 29.7,125.3 28.8,128.4 C27.4,132.7 23.7,134.7 20.2,134.7 C13.9,134.8 10.7,129.8 10.9,124.5 C10.2,118.9 15.9,114.9 20.2,115.2 C23.4,115.4 26.3,117.2 28,118.5 C29.1,119.1 30.3,119.4 28.7,117.8 C25.6,114.4 22.9,112.2 23,107.1 C23.1,102.3 27.2,97.2 32.7,97.4 C39.6,97.6 42.7,102.8 42.7,107.7 C42.7,111.2 40.9,114.5 38.2,116.5 C36.4,117.9 36.9,119 39,117.7 C40.9,116 43.3,115.3 45.7,115.2 C52.3,115.1 54.8,120.8 54.4,126 C54.1,130.9 49.8,136 44.3,135.4 C39.4,134.8 36.8,130.7 35.3,126.4 C34.8,125.1 34,124.7 34.1,126.7 C35.2,136.2 38.8,142.1 38.8,142.1 L24.9,142.1 L24.9,142.2 Z" id="Path" fill="#000000" fill-rule="nonzero"></path>
            <path d="M393.9,446.1 C391.7,450.7 389.5,455 388.3,460 C387.5,464.7 389.1,463 390,459.9 C391.3,455.6 395.1,453.6 398.6,453.6 C404.9,453.5 408.1,458.5 407.9,463.8 C408.6,469.4 402.9,473.4 398.6,473.1 C395.4,472.9 392.5,471.1 390.8,469.8 C389.7,469.2 388.5,468.9 390.2,470.5 C393.3,473.9 396,476.1 395.9,481.2 C395.8,486 391.7,491.1 386.2,490.9 C379.3,490.7 376.2,485.5 376.2,480.6 C376.2,477.1 378,473.8 380.7,471.8 C382.5,470.4 382,469.3 380,470.6 C378.1,472.3 375.7,473 373.3,473.1 C366.7,473.2 364.2,467.5 364.6,462.3 C364.9,457.4 369.1,452.3 374.7,452.9 C379.6,453.5 382.2,457.6 383.7,461.9 C384.2,463.2 385,463.6 384.9,461.6 C383.8,452.1 380.2,446.2 380.2,446.2 L393.9,446.2 L393.9,446.1 Z" id="Path" fill="#000000" fill-rule="nonzero"></path>
        </g>
    </g>
</svg>