<?xml version="1.0" encoding="UTF-8"?>
<svg width="421px" height="587px" viewBox="0 0 421 587" version="1.1" xmlns="http://www.w3.org/2000/svg" xmlns:xlink="http://www.w3.org/1999/xlink">
    <!-- Generator: Sketch 61.2 (89653) - https://sketch.com -->
    <title>1D</title>
    <desc>Created with Sketch.</desc>
    <g id="Page-1" stroke="none" stroke-width="1" fill="none" fill-rule="evenodd">
        <g id="1D" transform="translate(1.000000, 1.000000)">
            <path d="M20.3,0.1 L399.4,0.1 C410.5,0.1 419.4,9 419.4,20.1 L419.4,565.5 C419.4,576.6 410.5,585.5 399.4,585.5 L20.3,585.5 C9.2,585.5 0.3,576.6 0.3,565.5 L0.3,20.1 C0.3,9 9.2,0.1 20.3,0.1 L20.3,0.1 Z" id="Path" fill="#FFFFFF" fill-rule="nonzero"></path>
            <path d="M20.3,0.1 L399.4,0.1 C410.5,0.1 419.4,9 419.4,20.1 L419.4,565.5 C419.4,576.6 410.5,585.5 399.4,585.5 L20.3,585.5 C9.2,585.5 0.3,576.6 0.3,565.5 L0.3,20.1 C0.3,9 9.2,0.1 20.3,0.1 L20.3,0.1 Z" id="Path" stroke="#000000" stroke-width="0.7974"></path>
            <path d="M167.9,293 C186.5,274.8 198.8,255 210.4,236 C220.7,257 235.4,275.3 251.3,293 C234.3,310.6 221.1,329.4 210.5,349.2 C198.7,328.9 186.3,310.6 167.9,293 L167.9,293 Z" id="Path" fill="#D40000" fill-rule="nonzero"></path>
            <path d="M368.7,467.6 C376.3,460.2 381.3,452.1 386.1,444.2 C390.3,452.8 396.3,460.3 402.9,467.6 C395.9,474.8 390.5,482.5 386.2,490.6 C381.3,482.3 376.2,474.8 368.7,467.6 L368.7,467.6 Z" id="Path" fill="#D40000" fill-rule="nonzero"></path>
            <path d="M15.1,119 C22.7,111.5 27.7,103.4 32.5,95.6 C36.7,104.2 42.7,111.7 49.3,119 C42.3,126.2 36.9,133.9 32.6,142 C27.7,133.7 22.6,126.2 15.1,119 L15.1,119 Z" id="Path" fill="#D40000" fill-rule="nonzero"></path>
            <path d="M13.9,86.6 L13.9,81.5 L18.9,81.5 L29.5,26.6 L35.6,26.6 L47.3,81.5 L51.3,81.5 L51.3,86.6 L37.6,86.6 L37.6,81.5 L41.3,81.5 L39.8,73 L26,73 L24.9,81.4 L28.6,81.4 L28.6,86.5 L13.9,86.5 L13.9,86.6 Z M38.7,67 L32.7,37.6 L27,67 L38.7,67 Z" id="Shape" fill="#D40000" fill-rule="nonzero"></path>
            <path d="M405.8,498.9 L405.8,504 L400.8,504 L390.1,559 L384.1,559 L372.4,504.1 L368.4,504.1 L368.4,499 L382.1,499 L382.1,504.1 L378.4,504.1 L379.9,512.5 L393.8,512.5 L394.9,504.1 L391.2,504.1 L391.2,499 L405.8,499 L405.8,498.9 Z M381,518.5 L387,547.9 L392.6,518.5 L381,518.5 Z" id="Shape" fill="#D40000" fill-rule="nonzero"></path>
        </g>
    </g>
</svg>