<?xml version="1.0" encoding="UTF-8"?>
<svg width="415px" height="579px" viewBox="0 0 415 579" version="1.1" xmlns="http://www.w3.org/2000/svg" xmlns:xlink="http://www.w3.org/1999/xlink">
    <!-- Generator: Sketch 61.2 (89653) - https://sketch.com -->
    <title>1H</title>
    <desc>Created with Sketch.</desc>
    <g id="Page-1" stroke="none" stroke-width="1" fill="none" fill-rule="evenodd">
        <g id="1H">
            <path d="M20.1,0.9 L394.3,0.9 C405.2,0.9 414,9.7 414,20.6 L414,558.9 C414,569.8 405.2,578.6 394.3,578.6 L20.1,578.6 C9.2,578.6 0.4,569.8 0.4,558.9 L0.4,20.6 C0.4,9.7 9.2,0.9 20.1,0.9 L20.1,0.9 Z" id="Path" fill="#FFFFFF" fill-rule="nonzero"></path>
            <path d="M20.1,0.9 L394.3,0.9 C405.2,0.9 414,9.7 414,20.6 L414,558.9 C414,569.8 405.2,578.6 394.3,578.6 L20.1,578.6 C9.2,578.6 0.4,569.8 0.4,558.9 L0.4,20.6 C0.4,9.7 9.2,0.9 20.1,0.9 L20.1,0.9 Z" id="Path" stroke="#000000" stroke-width="0.7974"></path>
            <path d="M13.8,86.3 L13.8,81.2 L18.7,81.2 L29.2,27 L35.2,27 L46.8,81.2 L50.8,81.2 L50.8,86.3 L37.2,86.3 L37.2,81.2 L40.9,81.2 L39.4,72.9 L25.7,72.9 L24.6,81.2 L28.3,81.2 L28.3,86.3 L13.8,86.3 Z M38.2,67 L32.3,38 L26.7,67 L38.2,67 Z" id="Shape" fill="#D40000" fill-rule="nonzero"></path>
            <path d="M400.5,493.3 L400.5,498.4 L395.6,498.4 L385.1,552.6 L379.1,552.6 L367.5,498.4 L363.5,498.4 L363.5,493.3 L377.1,493.3 L377.1,498.4 L373.4,498.4 L374.9,506.7 L388.6,506.7 L389.7,498.4 L386,498.4 L386,493.3 L400.5,493.3 Z M376.1,512.6 L382,541.6 L387.6,512.6 L376.1,512.6 Z" id="Shape" fill="#D40000" fill-rule="nonzero"></path>
            <path d="M15.7,113.5 C12.8,107.1 12.4,96.1 21.2,94.6 C27.8,93.7 30.5,96.8 31,101.5 C31.3,102.9 32,103 32.3,101.4 C32.7,96.6 37.5,93.7 41.2,94.5 C51.4,96.2 50.8,107.5 47.5,115.2 C42.4,125.4 37.1,131.8 32.2,142 C26.6,131.3 20.2,122.6 15.7,113.5 L15.7,113.5 Z" id="Path" fill="#D40000" fill-rule="nonzero"></path>
            <path d="M184.8,236.5 C198,235.6 204.9,246.9 206.3,255.8 C207.1,257.2 207.6,256.8 207.9,255.7 C208.5,244.3 218.8,234.9 228.3,236.2 C243.7,236.4 253.1,253.6 250.5,268.1 C247.3,285.8 237.7,296.5 230.5,307.6 C222.3,319 211.3,335.5 207.7,343.4 C207.7,343.4 196.5,326.3 181.9,306.3 C172.1,292.9 164.4,278.4 163.6,265.8 C162.7,251.6 168.6,238.8 184.8,236.5 L184.8,236.5 Z" id="Path" fill="#D40000" fill-rule="nonzero"></path>
            <path d="M364.7,466.8 C361.8,473.2 361.4,484.2 370.2,485.7 C376.8,486.6 379.5,483.5 380,478.8 C380.3,477.4 381,477.3 381.3,478.9 C381.7,483.7 386.5,486.6 390.2,485.8 C400.4,484 399.8,472.8 396.5,465.1 C391.4,454.9 386.1,448.6 381.2,438.3 C375.6,449 369.2,457.6 364.7,466.8 L364.7,466.8 Z" id="Path" fill="#D40000" fill-rule="nonzero"></path>
        </g>
    </g>
</svg>