<?xml version="1.0" encoding="UTF-8"?>
<svg width="412px" height="574px" viewBox="0 0 412 574" version="1.1" xmlns="http://www.w3.org/2000/svg" xmlns:xlink="http://www.w3.org/1999/xlink">
    <!-- Generator: Sketch 61.2 (89653) - https://sketch.com -->
    <title>1S</title>
    <desc>Created with Sketch.</desc>
    <g id="Page-1" stroke="none" stroke-width="1" fill="none" fill-rule="evenodd">
        <g id="1S" transform="translate(1.000000, 0.000000)">
            <path d="M19.6,0.9 L390.4,0.9 C401.2,0.9 409.9,9.6 409.9,20.4 L409.9,553.8 C409.9,564.6 401.2,573.3 390.4,573.3 L19.6,573.3 C8.8,573.3 0.1,564.6 0.1,553.8 L0.1,20.5 C0.1,9.7 8.8,0.9 19.6,0.9 L19.6,0.9 Z" id="Path" fill="#FFFFFF" fill-rule="nonzero"></path>
            <path d="M19.6,0.9 L390.4,0.9 C401.2,0.9 409.9,9.6 409.9,20.4 L409.9,553.8 C409.9,564.6 401.2,573.3 390.4,573.3 L19.6,573.3 C8.8,573.3 0.1,564.6 0.1,553.8 L0.1,20.5 C0.1,9.7 8.8,0.9 19.6,0.9 L19.6,0.9 Z" id="Path" stroke="#000000" stroke-width="0.7974"></path>
            <path d="M13.4,85.5 L13.4,80.5 L18.3,80.5 L28.7,26.8 L34.6,26.8 L46,80.5 L50,80.5 L50,85.5 L36.5,85.5 L36.5,80.5 L40.1,80.5 L38.7,72.3 L25.2,72.3 L24.2,80.5 L27.8,80.5 L27.8,85.5 L13.4,85.5 Z M37.6,66.4 L31.7,37.6 L26.2,66.4 L37.6,66.4 Z" id="Shape" fill="#000000" fill-rule="nonzero"></path>
            <path d="M396.6,488.9 L396.6,493.9 L391.7,493.9 L381.3,547.6 L375.4,547.6 L364,493.9 L360,493.9 L360,488.9 L373.4,488.9 L373.4,493.9 L369.8,493.9 L371.3,502.1 L384.9,502.1 L385.9,493.9 L382.3,493.9 L382.3,488.9 L396.6,488.9 Z M372.4,508 L378.3,536.8 L383.8,508 L372.4,508 Z" id="Shape" fill="#000000" fill-rule="nonzero"></path>
            <path d="M202.6,308 C202.6,304.3 199.7,304.2 199.7,306.9 C199.5,320.5 187.9,327.3 179.5,325.7 C166.6,323.2 162.5,310.4 162.6,302.9 C163,279.6 186.4,262.4 207.6,232.5 C223.1,259.5 248.7,280.7 250.2,301.5 C252.2,329.2 217.1,339.6 212.1,307.3 C211.8,305 209.1,304 209.3,307.2 C210.1,316 209,319.7 219,341.6 L193,341.6 C198.8,331.3 202.2,318.8 202.6,308 L202.6,308 Z" id="Path" fill="#000000" fill-rule="nonzero"></path>
            <path d="M32.3,129.1 C32.3,127.5 30.7,128.2 30.4,128.7 C28.3,132.3 25.1,133.2 22.1,131.9 C19,130.6 17.3,127.7 17.6,123.6 C18.2,117.3 23.2,110.4 25.6,106.5 C27.9,103 30.4,98.7 33.1,93.4 C36.2,99.6 37.8,101.3 41.2,107 C44.2,112 48.3,116.8 48.7,122.8 C48.7,127.4 46.8,131.7 42.5,132.5 C40.1,132.9 37.8,131.7 36.1,128.8 C35.6,128 34.5,128.4 34.6,129.5 C34.9,133.3 36.4,136.8 39.8,140.9 L26.9,140.9 C29.5,137.9 32.1,134 32.3,129.1 L32.3,129.1 Z" id="Path" fill="#000000" fill-rule="nonzero"></path>
            <path d="M378.1,446 C378.1,447.6 376.5,446.9 376.2,446.4 C374.1,442.8 370.9,441.9 367.9,443.2 C364.8,444.5 363.1,447.4 363.4,451.5 C364,457.8 369,464.7 371.4,468.6 C373.7,472.1 376.2,476.4 378.9,481.7 C382,475.5 383.6,473.8 387,468.1 C390,463.1 394.1,458.3 394.5,452.3 C394.5,447.7 392.6,443.4 388.3,442.6 C385.9,442.2 383.6,443.4 381.9,446.3 C381.4,447 380.3,446.7 380.4,445.6 C380.7,441.8 382.1,438.3 385.6,434.2 L373,434.2 C375.4,437.2 378,441.1 378.1,446 L378.1,446 Z" id="Path" fill="#000000" fill-rule="nonzero"></path>
        </g>
    </g>
</svg>