<?xml version="1.0" encoding="UTF-8"?>
<svg width="398px" height="554px" viewBox="0 0 398 554" version="1.1" xmlns="http://www.w3.org/2000/svg" xmlns:xlink="http://www.w3.org/1999/xlink">
    <!-- Generator: Sketch 61.2 (89653) - https://sketch.com -->
    <title>2C</title>
    <desc>Created with Sketch.</desc>
    <g id="Page-1" stroke="none" stroke-width="1" fill="none" fill-rule="evenodd">
        <g id="2C" transform="translate(1.000000, 1.000000)">
            <path d="M19.1,0.3 L376.9,0.3 C387.3,0.3 395.7,8.7 395.7,19.1 L395.7,533.8 C395.7,544.2 387.3,552.6 376.9,552.6 L19.1,552.6 C8.7,552.6 0.3,544.2 0.3,533.8 L0.3,19.1 C0.3,8.7 8.7,0.3 19.1,0.3 L19.1,0.3 Z" id="Path" fill="#FFFFFF" fill-rule="nonzero"></path>
            <path d="M19.1,0.3 L376.9,0.3 C387.3,0.3 395.7,8.7 395.7,19.1 L395.7,533.8 C395.7,544.2 387.3,552.6 376.9,552.6 L19.1,552.6 C8.7,552.6 0.3,544.2 0.3,533.8 L0.3,19.1 C0.3,8.7 8.7,0.3 19.1,0.3 L19.1,0.3 Z" id="Path" stroke="#000000" stroke-width="0.7974"></path>
            <path d="M14.7,82.9 L15,79.3 C15.9,68.2 18.3,64.5 32,53 C38.7,47.4 40.8,44.6 41.2,41.4 C42.1,33.9 35.3,31.5 30.8,31.5 C25.1,31.4 18.6,34.9 21.7,42.9 L15.3,44.8 C14,37.4 15.3,30.4 21.4,27.3 C29.5,23.3 39.8,24.8 45,31.2 C48.5,35.5 49.3,41.4 47.4,46 C41.9,57.8 23.3,63 21.7,76.7 L42.3,76.7 L42.3,69 L48.4,69 L48.4,83 L14.7,82.9 Z" id="Path" fill="#000000" fill-rule="nonzero"></path>
            <path d="M380.7,470.1 L380.4,473.7 C379.5,484.7 377.1,488.5 363.4,500 C356.7,505.6 354.6,508.4 354.2,511.6 C353.3,519.2 360.1,521.5 364.6,521.6 C370.3,521.6 376.8,518.2 373.7,510.2 L380.1,508.3 C381.4,515.7 380.1,522.7 374,525.8 C365.9,529.8 355.6,528.3 350.4,521.9 C346.9,517.6 346.1,511.7 348,507.1 C353.5,495.3 372.1,490.1 373.7,476.4 L353.1,476.4 L353.1,484 L347,484 L347,470 L380.7,470.1 Z" id="Path" fill="#000000" fill-rule="nonzero"></path>
            <path d="M184.9,151.4 C190,141.2 193.7,130.7 194.4,119.4 C195,115.3 192.5,115.2 192.1,118.1 C184.9,145.7 146.5,138.2 147.8,112.3 C148.9,91.2 169.8,86.7 180.7,93.6 C185,96.1 184.8,94.6 182.4,92 C166.2,73.9 176,50.6 197.9,50.2 C221.6,51.6 227.8,76.5 213.2,91.2 C211.4,93 207.4,98.6 213.4,94.7 C228.1,84.3 248.5,95.5 248,111.6 C247.2,141.3 211.1,143.5 203.3,118.7 C202.6,115.9 200.4,114.6 201,119.2 C202.1,127.6 204.3,140.4 210.6,151.4 L184.9,151.4 L184.9,151.4 Z" id="Path" fill="#000000" fill-rule="nonzero"></path>
            <path d="M210.9,402.4 C205.8,412.6 202.1,423.1 201.4,434.4 C200.8,438.5 203.3,438.6 203.7,435.7 C210.9,408.1 249.3,415.6 248,441.5 C246.9,462.6 226,467.1 215.1,460.2 C210.8,457.7 211,459.2 213.4,461.8 C229.6,479.9 219.8,503.2 197.9,503.6 C174.2,502.2 168,477.3 182.6,462.6 C184.4,460.8 188.4,455.2 182.4,459.1 C167.7,469.5 147.3,458.3 147.8,442.2 C148.6,412.6 184.7,410.3 192.4,435.1 C193.1,437.8 195.3,439.2 194.7,434.6 C193.6,426.2 191.4,413.4 185.1,402.4 L210.9,402.4 L210.9,402.4 Z" id="Path" fill="#000000" fill-rule="nonzero"></path>
            <path d="M24.5,132.6 C26.6,128.3 28.7,124.2 29.8,119.5 C30.5,115 29,116.7 28.2,119.6 C26.9,123.7 23.4,125.5 20.1,125.6 C14.1,125.7 11.1,121 11.3,115.9 C10.7,110.6 16,106.8 20.1,107.1 C23.1,107.3 25.8,109 27.4,110.2 C28.5,110.8 29.6,111 28,109.6 C25,106.3 22.6,104.3 22.6,99.5 C22.7,94.9 26.6,90.2 31.7,90.3 C38.2,90.5 41.1,95.4 41.1,100 C41.1,103.3 39.4,106.4 36.8,108.3 C35.1,109.7 35.6,110.7 37.5,109.4 C39.3,107.8 41.5,107.1 43.8,107.1 C50,107 52.4,112.3 52.1,117.3 C51.8,122 47.8,126.7 42.6,126.2 C37.9,125.7 35.5,121.8 34.1,117.7 C33.6,116.5 32.9,116.1 32.9,118 C34,127 37.3,132.5 37.3,132.5 L24.5,132.5 L24.5,132.6 Z" id="Path" fill="#000000" fill-rule="nonzero"></path>
            <path d="M371.4,420.3 C369.3,424.6 367.2,428.7 366.1,433.4 C365.4,437.9 366.9,436.2 367.7,433.3 C369,429.2 372.5,427.4 375.8,427.3 C381.8,427.2 384.8,431.9 384.6,437 C385.3,442.3 379.9,446.1 375.8,445.8 C372.7,445.6 370.1,443.9 368.5,442.7 C367.4,442.1 366.3,441.9 367.9,443.3 C370.9,446.6 373.3,448.6 373.3,453.4 C373.2,458 369.3,462.7 364.2,462.6 C357.7,462.4 354.8,457.5 354.8,452.9 C354.8,449.6 356.5,446.5 359.1,444.6 C360.8,443.2 360.3,442.2 358.4,443.5 C356.6,445.1 354.4,445.8 352.1,445.8 C345.9,445.9 343.5,440.6 343.9,435.6 C344.2,430.9 348.2,426.2 353.4,426.7 C358.1,427.2 360.5,431.1 361.9,435.2 C362.4,436.4 363.1,436.8 363.1,434.9 C362,425.9 358.7,420.4 358.7,420.4 L371.4,420.4 L371.4,420.3 Z" id="Path" fill="#000000" fill-rule="nonzero"></path>
        </g>
    </g>
</svg>