<?xml version="1.0" encoding="UTF-8"?>
<svg width="425px" height="594px" viewBox="0 0 425 594" version="1.1" xmlns="http://www.w3.org/2000/svg" xmlns:xlink="http://www.w3.org/1999/xlink">
    <!-- Generator: Sketch 61.2 (89653) - https://sketch.com -->
    <title>2D</title>
    <desc>Created with Sketch.</desc>
    <g id="Page-1" stroke="none" stroke-width="1" fill="none" fill-rule="evenodd">
        <g id="2D">
            <path d="M20.6,0.9 L404.3,0.9 C415.5,0.9 424.5,9.9 424.5,21.1 L424.5,573.2 C424.5,584.4 415.5,593.4 404.3,593.4 L20.6,593.4 C9.4,593.4 0.4,584.4 0.4,573.2 L0.4,21.1 C0.4,10 9.4,0.9 20.6,0.9 L20.6,0.9 Z" id="Path" fill="#FFFFFF" fill-rule="nonzero"></path>
            <path d="M20.6,0.9 L404.3,0.9 C415.5,0.9 424.5,9.9 424.5,21.1 L424.5,573.2 C424.5,584.4 415.5,593.4 404.3,593.4 L20.6,593.4 C9.4,593.4 0.4,584.4 0.4,573.2 L0.4,21.1 C0.4,10 9.4,0.9 20.6,0.9 L20.6,0.9 Z" id="Path" stroke="#000000" stroke-width="0.7974"></path>
            <path d="M170.4,109.2 C189.2,90.8 201.6,70.8 213.5,51.5 C223.9,72.7 238.8,91.3 254.9,109.2 C237.6,127 224.3,146 213.5,166 C201.6,145.5 189.1,126.9 170.4,109.2 L170.4,109.2 Z" id="Path" fill="#D40000" fill-rule="nonzero"></path>
            <path d="M170.4,486.9 C189.2,468.5 201.6,448.5 213.5,429.2 C223.9,450.4 238.8,469 254.9,486.9 C237.7,504.7 224.3,523.7 213.6,543.7 C201.6,523.2 189.1,504.6 170.4,486.9 L170.4,486.9 Z" id="Path" fill="#D40000" fill-rule="nonzero"></path>
            <path d="M373.7,474.2 C381.4,466.7 386.5,458.4 391.3,450.6 C395.5,459.3 401.7,466.9 408.3,474.2 C401.2,481.5 395.8,489.3 391.4,497.5 C386.5,489.1 381.4,481.5 373.7,474.2 L373.7,474.2 Z" id="Path" fill="#D40000" fill-rule="nonzero"></path>
            <path d="M17,120.3 C24.7,112.8 29.8,104.5 34.6,96.6 C38.9,105.3 45,112.9 51.6,120.3 C44.5,127.6 39.1,135.4 34.7,143.6 C29.8,135.2 24.7,127.6 17,120.3 L17,120.3 Z" id="Path" fill="#D40000" fill-rule="nonzero"></path>
            <path d="M16.1,89.6 L16.4,85.8 C17.4,73.9 20,69.9 34.7,57.6 C41.8,51.6 44.2,48.6 44.5,45.2 C45.4,37.1 38.1,34.6 33.4,34.5 C27.2,34.4 20.3,38.1 23.6,46.7 L16.7,48.7 C15.3,40.7 16.7,33.2 23.2,29.9 C31.8,25.6 42.9,27.3 48.5,34.1 C52.3,38.7 53.1,45 51.1,50 C45.2,62.7 25.2,68.3 23.6,82.9 L45.7,82.9 L45.7,74.7 L52.2,74.7 L52.2,89.7 L16.1,89.6 Z" id="Path" fill="#D40000" fill-rule="nonzero"></path>
            <path d="M408.7,504.8 L408.4,508.6 C407.4,520.4 404.8,524.5 390.1,536.8 C383,542.8 380.6,545.8 380.3,549.2 C379.4,557.3 386.7,559.8 391.4,559.9 C397.6,560 404.5,556.3 401.2,547.7 L408.1,545.7 C409.5,553.7 408.1,561.2 401.6,564.5 C393,568.8 381.9,567.1 376.3,560.3 C372.5,555.7 371.7,549.4 373.7,544.4 C379.6,531.7 399.6,526.1 401.2,511.5 L379.1,511.5 L379.1,519.6 L372.6,519.6 L372.6,504.6 L408.7,504.8 Z" id="Path" fill="#D40000" fill-rule="nonzero"></path>
        </g>
    </g>
</svg>