<?xml version="1.0" encoding="UTF-8"?>
<svg width="420px" height="585px" viewBox="0 0 420 585" version="1.1" xmlns="http://www.w3.org/2000/svg" xmlns:xlink="http://www.w3.org/1999/xlink">
    <!-- Generator: Sketch 61.2 (89653) - https://sketch.com -->
    <title>2H</title>
    <desc>Created with Sketch.</desc>
    <g id="Page-1" stroke="none" stroke-width="1" fill="none" fill-rule="evenodd">
        <g id="2H" transform="translate(1.000000, 0.000000)">
            <path d="M20,0.9 L397.9,0.9 C408.9,0.9 417.8,9.8 417.8,20.8 L417.8,564.5 C417.8,575.5 408.9,584.4 397.9,584.4 L20,584.4 C9,584.4 0.1,575.5 0.1,564.5 L0.1,20.8 C0.1,9.8 8.9,0.9 20,0.9 L20,0.9 Z" id="Path" fill="#FFFFFF" fill-rule="nonzero"></path>
            <path d="M20,0.9 L397.9,0.9 C408.9,0.9 417.8,9.8 417.8,20.8 L417.8,564.5 C417.8,575.5 408.9,584.4 397.9,584.4 L20,584.4 C9,584.4 0.1,575.5 0.1,564.5 L0.1,20.8 C0.1,9.8 8.9,0.9 20,0.9 L20,0.9 Z" id="Path" stroke="#000000" stroke-width="0.7974"></path>
            <path d="M17.1,113.7 C14.1,107.2 13.8,96.1 22.7,94.6 C29.4,93.7 32.1,96.8 32.6,101.6 C32.9,103 33.6,103.1 33.9,101.5 C34.3,96.6 39.1,93.8 42.9,94.5 C53.2,96.3 52.6,107.6 49.3,115.4 C44.2,125.7 38.8,132.1 33.9,142.4 C28.1,131.6 21.6,122.9 17.1,113.7 L17.1,113.7 Z" id="Path" fill="#D40000" fill-rule="nonzero"></path>
            <path d="M368.3,471.6 C365.3,478.1 365,489.2 373.9,490.7 C380.6,491.6 383.3,488.5 383.8,483.7 C384.1,482.3 384.9,482.2 385.1,483.8 C385.5,488.7 390.3,491.5 394.1,490.8 C404.4,489 403.8,477.7 400.5,469.9 C395.4,459.6 390,453.2 385.1,442.9 C379.3,453.6 372.8,462.3 368.3,471.6 L368.3,471.6 Z" id="Path" fill="#D40000" fill-rule="nonzero"></path>
            <path d="M15.4,88.2 L15.7,84.4 C16.7,72.7 19.2,68.8 33.7,56.6 C40.7,50.7 43,47.8 43.4,44.4 C44.3,36.4 37.1,33.9 32.4,33.9 C26.3,33.8 19.5,37.5 22.7,45.9 L15.9,47.9 C14.5,40 15.9,32.7 22.3,29.4 C30.8,25.1 41.7,26.8 47.2,33.5 C50.9,38 51.7,44.3 49.8,49.1 C44,61.6 24.3,67.1 22.7,81.5 L44.5,81.5 L44.5,73.5 L50.9,73.5 L50.9,88.3 L15.4,88.2 Z" id="Path" fill="#D40000" fill-rule="nonzero"></path>
            <path d="M402,497.1 L401.7,500.9 C400.7,512.6 398.2,516.5 383.7,528.7 C376.7,534.6 374.4,537.5 374,540.9 C373.1,548.9 380.3,551.4 385,551.4 C391.1,551.4 397.9,547.8 394.7,539.4 L401.5,537.4 C402.9,545.3 401.5,552.6 395.1,555.9 C386.6,560.2 375.7,558.5 370.2,551.8 C366.5,547.3 365.7,541 367.6,536.2 C373.4,523.7 393.1,518.2 394.7,503.8 L372.9,503.8 L372.9,511.8 L366.5,511.8 L366.5,497 L402,497.1 Z" id="Path" fill="#D40000" fill-rule="nonzero"></path>
            <path d="M186.3,53.3 C199.7,52.4 206.6,63.8 208,72.8 C208.8,74.2 209.2,73.8 209.6,72.7 C210.3,61.1 220.6,51.7 230.2,53 C245.8,53.2 255.3,70.5 252.6,85.2 C249.3,103.1 239.7,113.9 232.4,125 C224.1,136.5 213,153.1 209.4,161.1 C209.4,161.1 198.1,143.9 183.4,123.6 C173.6,110.1 165.7,95.4 164.9,82.7 C164,68.5 169.9,55.5 186.3,53.3 L186.3,53.3 Z" id="Path" fill="#D40000" fill-rule="nonzero"></path>
            <path d="M186.3,532.9 C199.7,533.8 206.6,522.4 208,513.4 C208.8,512 209.2,512.4 209.6,513.5 C210.3,525 220.6,534.5 230.2,533.2 C245.8,533 255.3,515.7 252.6,501 C249.3,483.1 239.7,472.3 232.4,461.2 C224.1,449.7 213,433.1 209.4,425.1 C209.4,425.1 198.1,442.3 183.4,462.6 C173.6,476.1 165.7,490.8 164.9,503.5 C164,517.7 169.9,530.6 186.3,532.9 L186.3,532.9 Z" id="Path" fill="#D40000" fill-rule="nonzero"></path>
        </g>
    </g>
</svg>