<?xml version="1.0" encoding="UTF-8"?>
<svg width="411px" height="573px" viewBox="0 0 411 573" version="1.1" xmlns="http://www.w3.org/2000/svg" xmlns:xlink="http://www.w3.org/1999/xlink">
    <!-- Generator: Sketch 61.2 (89653) - https://sketch.com -->
    <title>2S</title>
    <desc>Created with Sketch.</desc>
    <g id="Page-1" stroke="none" stroke-width="1" fill="none" fill-rule="evenodd">
        <g id="2S" transform="translate(1.000000, 0.000000)">
            <path d="M19.8,0.9 L389.5,0.9 C400.3,0.9 409,9.6 409,20.4 L409,552.2 C409,563 400.3,571.7 389.5,571.7 L19.8,571.7 C9,571.7 0.3,563 0.3,552.2 L0.3,20.4 C0.3,9.6 9,0.9 19.8,0.9 L19.8,0.9 Z" id="Path" fill="#FFFFFF" fill-rule="nonzero"></path>
            <path d="M19.8,0.9 L389.5,0.9 C400.3,0.9 409,9.6 409,20.4 L409,552.2 C409,563 400.3,571.7 389.5,571.7 L19.8,571.7 C9,571.7 0.3,563 0.3,552.2 L0.3,20.4 C0.3,9.6 9,0.9 19.8,0.9 L19.8,0.9 Z" id="Path" stroke="#000000" stroke-width="0.7974"></path>
            <path d="M15.6,86.3 L15.9,82.6 C16.8,71.2 19.3,67.3 33.5,55.4 C40.4,49.6 42.6,46.8 43,43.5 C43.9,35.7 36.9,33.3 32.3,33.2 C26.4,33.1 19.7,36.7 22.9,44.9 L16.2,46.9 C14.9,39.2 16.2,32 22.5,28.8 C30.8,24.6 41.5,26.3 46.9,32.8 C50.5,37.2 51.3,43.3 49.4,48.1 C43.7,60.3 24.5,65.7 22.9,79.8 L44,79.8 L44,72 L50.3,72 L50.3,86.5 L15.6,86.3 Z" id="Path" fill="#000000" fill-rule="nonzero"></path>
            <path d="M393.7,486.3 L393.4,490 C392.5,501.4 390,505.3 375.8,517.2 C368.9,523 366.7,525.8 366.3,529.1 C365.4,536.9 372.4,539.3 377,539.4 C382.9,539.4 389.6,535.9 386.4,527.7 L393.1,525.7 C394.4,533.4 393.1,540.6 386.8,543.8 C378.5,548 367.8,546.3 362.4,539.8 C358.8,535.4 358,529.3 359.9,524.5 C365.6,512.3 384.8,506.9 386.4,492.8 L365.1,492.8 L365.1,500.7 L359,500.7 L359,486.2 L393.7,486.3 Z" id="Path" fill="#000000" fill-rule="nonzero"></path>
            <path d="M202.7,125.7 C202.7,122 199.8,121.9 199.8,124.6 C199.6,138.2 188.1,144.9 179.7,143.3 C166.8,140.9 162.7,128.1 162.8,120.5 C163.2,97.3 186.6,80.1 207.7,50.3 C223.2,77.2 248.7,98.3 250.2,119.1 C252.2,146.7 217.2,157 212.2,124.8 C211.9,122.5 209.2,121.5 209.4,124.7 C210.2,133.5 209.1,137.2 219,159 L193,159 C198.9,148.9 202.3,136.4 202.7,125.7 L202.7,125.7 Z" id="Path" fill="#000000" fill-rule="nonzero"></path>
            <path d="M202.7,447.7 C202.7,451.4 199.8,451.5 199.8,448.8 C199.5,435.2 188.1,428.5 179.7,430.1 C166.8,432.6 162.7,445.3 162.8,452.9 C163.2,476.1 186.6,493.3 207.7,523.1 C223.2,496.2 248.7,475.1 250.2,454.3 C252.2,426.7 217.2,416.4 212.3,448.6 C212,450.9 209.3,451.9 209.5,448.7 C210.3,439.9 209.2,436.2 219.1,414.4 L193.1,414.4 C198.9,424.5 202.4,437 202.7,447.7 L202.7,447.7 Z" id="Path" fill="#000000" fill-rule="nonzero"></path>
            <path d="M34.1,127.8 C34.1,126.2 32.5,126.9 32.2,127.4 C30.1,131 27,131.9 23.9,130.6 C20.9,129.3 19.1,126.4 19.4,122.3 C20,116 25,109.1 27.4,105.2 C29.7,101.7 32.2,97.5 34.9,92.1 C38,98.3 39.6,100 43,105.6 C46,110.6 50.1,115.4 50.4,121.4 C50.4,125.9 48.5,130.2 44.2,131 C41.8,131.4 39.5,130.2 37.8,127.3 C37.3,126.5 36.2,126.9 36.3,128 C36.6,131.8 38,135.3 41.5,139.4 L28.8,139.4 C31.4,136.5 34,132.6 34.1,127.8 L34.1,127.8 Z" id="Path" fill="#000000" fill-rule="nonzero"></path>
            <path d="M377.7,444.7 C377.7,446.3 376.1,445.5 375.8,445 C373.7,441.4 370.6,440.5 367.5,441.8 C364.4,443.1 362.7,446 363,450.1 C363.6,456.4 368.6,463.3 371,467.2 C373.3,470.7 375.8,474.9 378.5,480.3 C381.6,474.1 383.2,472.4 386.6,466.8 C389.6,461.9 393.7,457 394,451 C394,446.4 392.1,442.2 387.8,441.4 C385.4,441 383.1,442.2 381.4,445.1 C380.9,445.8 379.8,445.4 379.9,444.4 C380.2,440.6 381.6,437.1 385.1,433 L372.5,433 C375,436 377.6,439.9 377.7,444.7 L377.7,444.7 Z" id="Path" fill="#000000" fill-rule="nonzero"></path>
        </g>
    </g>
</svg>