<?xml version="1.0" encoding="UTF-8"?>
<svg width="383px" height="534px" viewBox="0 0 383 534" version="1.1" xmlns="http://www.w3.org/2000/svg" xmlns:xlink="http://www.w3.org/1999/xlink">
    <!-- Generator: Sketch 61.2 (89653) - https://sketch.com -->
    <title>3C</title>
    <desc>Created with Sketch.</desc>
    <g id="Page-1" stroke="none" stroke-width="1" fill="none" fill-rule="evenodd">
        <g id="3C" transform="translate(1.000000, 0.000000)">
            <path d="M18.2,0.6 L363.3,0.6 C373.4,0.6 381.5,8.7 381.5,18.8 L381.5,515.2 C381.5,525.3 373.4,533.4 363.3,533.4 L18.2,533.4 C8.1,533.4 0,525.3 0,515.2 L0,18.7 C0.1,8.7 8.2,0.6 18.2,0.6 L18.2,0.6 Z" id="Path" fill="#FFFFFF" fill-rule="nonzero"></path>
            <path d="M18.2,0.6 L363.3,0.6 C373.4,0.6 381.5,8.7 381.5,18.8 L381.5,515.2 C381.5,525.3 373.4,533.4 363.3,533.4 L18.2,533.4 C8.1,533.4 0,525.3 0,515.2 L0,18.7 C0.1,8.7 8.2,0.6 18.2,0.6 L18.2,0.6 Z" id="Path" stroke="#000000" stroke-width="0.7974"></path>
            <path d="M11.9,65.2 L16.3,62 C20.1,68.1 24.4,72.1 30.9,71.4 C40.7,70.7 44.8,60.6 42.7,53 C40.7,46.2 32.6,42.9 26.1,46.5 C24.6,47.4 22.8,48.4 22.8,48.4 L20.5,44.7 L35.7,27.1 L19.3,27.1 L19.3,34.4 L13,34.4 L13,21.3 L45.1,21.3 L45.1,25.7 C45.1,25.7 36.5,34.5 33.6,39.3 C40.6,39.6 46.3,43.9 48.3,50.8 C49.5,54.4 49,62.7 47.4,66.3 C44.8,72.3 37.7,77.1 31.3,77.4 C20.5,78.1 14.7,70.7 11.9,65.2 L11.9,65.2 Z" id="Path" fill="#000000" fill-rule="nonzero"></path>
            <path d="M368.6,468.7 L364.2,471.9 C360.4,465.8 356.1,461.8 349.6,462.5 C339.8,463.2 335.7,473.3 337.8,480.9 C339.8,487.7 347.9,491.1 354.4,487.4 C355.9,486.5 357.7,485.7 357.7,485.7 L360.4,489.2 L344.8,506.9 L361.2,506.9 L361.2,499.6 L367.5,499.6 L367.5,512.7 L335.4,512.7 L335.4,508.3 C335.4,508.3 344,499.5 346.9,494.7 C339.9,494.4 334.2,490.1 332.2,483.2 C331,479.6 331.5,471.3 333.1,467.7 C335.7,461.7 342.8,456.9 349.2,456.6 C360,455.7 365.7,463.2 368.6,468.7 L368.6,468.7 Z" id="Path" fill="#000000" fill-rule="nonzero"></path>
            <path d="M177.5,316.3 C182.5,306.3 186.1,296.1 186.7,285.1 C187.3,281.1 184.8,281 184.5,283.8 C177.5,310.8 140,303.5 141.2,278.1 C142.3,257.5 162.7,253.1 173.3,259.8 C177.5,262.3 177.3,260.8 175,258.2 C159.2,240.5 168.8,217.8 190.1,217.4 C213.2,218.8 219.2,243.1 205.1,257.4 C203.3,259.1 199.4,264.6 205.3,260.8 C219.6,250.6 239.5,261.6 239.1,277.3 C238.3,306.2 203.1,308.4 195.5,284.2 C194.8,281.5 192.7,280.2 193.3,284.7 C194.3,292.9 196.5,305.4 202.7,316.2 L177.5,316.2 L177.5,316.3 Z" id="Path" fill="#000000" fill-rule="nonzero"></path>
            <path d="M177.4,146.2 C182.4,136.2 186,126 186.6,115 C187.2,111 184.7,110.9 184.4,113.7 C177.3,140.7 139.9,133.4 141.1,108 C142.1,87.4 162.6,83 173.2,89.7 C177.4,92.2 177.2,90.7 174.9,88.1 C159.1,70.4 168.7,47.7 190.1,47.3 C213.2,48.7 219.2,73 205,87.3 C203.2,89 199.3,94.6 205.2,90.7 C219.5,80.5 239.4,91.5 239,107.2 C238.3,136.1 203,138.3 195.4,114.1 C194.7,111.4 192.6,110.1 193.2,114.6 C194.3,122.8 196.4,135.3 202.6,146.1 L177.4,146.1 L177.4,146.2 Z" id="Path" fill="#000000" fill-rule="nonzero"></path>
            <path d="M202.8,388.1 C197.8,398.1 194.2,408.3 193.5,419.3 C192.9,423.3 195.4,423.4 195.7,420.6 C202.7,393.6 240.2,400.9 239,426.3 C238,446.9 217.5,451.3 206.9,444.6 C202.7,442.1 202.9,443.6 205.2,446.2 C221,463.9 211.4,486.6 190.1,487 C167,485.6 161,461.3 175.2,447 C177,445.3 180.9,439.8 175,443.6 C160.7,453.8 140.8,442.8 141.2,427.1 C142,398.1 177.2,396 184.8,420.2 C185.5,422.9 187.6,424.2 187,419.7 C185.9,411.5 183.8,399 177.6,388.2 L202.8,388.2 L202.8,388.1 Z" id="Path" fill="#000000" fill-rule="nonzero"></path>
            <path d="M22.1,127.2 C24.2,123 26.2,119 27.3,114.4 C28,110 26.5,111.7 25.7,114.5 C24.5,118.5 21,120.3 17.8,120.3 C12,120.4 9.1,115.8 9.2,110.9 C8.6,105.7 13.8,102 17.8,102.3 C20.8,102.5 23.4,104.1 24.9,105.4 C25.9,105.9 27,106.2 25.5,104.8 C22.6,101.6 20.2,99.7 20.2,94.9 C20.2,90.4 24.1,85.8 29.1,85.9 C35.4,86.1 38.3,90.9 38.3,95.4 C38.3,98.7 36.7,101.7 34.1,103.5 C32.5,104.8 32.9,105.8 34.8,104.6 C36.6,103.1 38.7,102.4 40.9,102.3 C46.9,102.2 49.3,107.4 48.9,112.3 C48.6,116.8 44.7,121.5 39.6,121 C35,120.5 32.7,116.7 31.3,112.7 C30.8,111.5 30.1,111.2 30.1,113 C31.2,121.7 34.4,127.2 34.4,127.2 L22.1,127.2 L22.1,127.2 Z" id="Path" fill="#000000" fill-rule="nonzero"></path>
            <path d="M359.4,407.9 C357.3,412.1 355.3,416.1 354.2,420.7 C353.5,425.1 355,423.4 355.8,420.6 C357.1,416.6 360.5,414.8 363.7,414.8 C369.5,414.7 372.4,419.3 372.3,424.2 C372.9,429.4 367.7,433.1 363.7,432.8 C360.7,432.6 358.1,431 356.6,429.7 C355.6,429.2 354.5,428.9 356,430.3 C358.9,433.5 361.3,435.4 361.3,440.2 C361.2,444.7 357.4,449.3 352.4,449.2 C346.1,449 343.2,444.2 343.2,439.7 C343.2,436.4 344.9,433.4 347.4,431.6 C349,430.3 348.6,429.3 346.7,430.5 C344.9,432 342.8,432.7 340.6,432.8 C334.6,432.9 332.2,427.7 332.5,422.8 C332.8,418.3 336.7,413.6 341.8,414.1 C346.3,414.6 348.7,418.4 350.1,422.4 C350.6,423.6 351.3,423.9 351.3,422.1 C350.2,413.3 347,407.9 347,407.9 L359.4,407.9 L359.4,407.9 Z" id="Path" fill="#000000" fill-rule="nonzero"></path>
        </g>
    </g>
</svg>