<?xml version="1.0" encoding="UTF-8"?>
<svg width="433px" height="604px" viewBox="0 0 433 604" version="1.1" xmlns="http://www.w3.org/2000/svg" xmlns:xlink="http://www.w3.org/1999/xlink">
    <!-- Generator: Sketch 61.2 (89653) - https://sketch.com -->
    <title>3D</title>
    <desc>Created with Sketch.</desc>
    <g id="Page-1" stroke="none" stroke-width="1" fill="none" fill-rule="evenodd">
        <g id="3D">
            <path d="M21,0.9 L411.2,0.9 C422.6,0.9 431.7,10.1 431.7,21.4 L431.7,582.8 C431.7,594.2 422.5,603.3 411.2,603.3 L21,603.3 C9.6,603.3 0.5,594.1 0.5,582.8 L0.5,21.5 C0.5,10.1 9.7,0.9 21,0.9 L21,0.9 Z" id="Path" fill="#FFFFFF" fill-rule="nonzero"></path>
            <path d="M21,0.9 L411.2,0.9 C422.6,0.9 431.7,10.1 431.7,21.4 L431.7,582.8 C431.7,594.2 422.5,603.3 411.2,603.3 L21,603.3 C9.6,603.3 0.5,594.1 0.5,582.8 L0.5,21.5 C0.5,10.1 9.7,0.9 21,0.9 L21,0.9 Z" id="Path" stroke="#000000" stroke-width="0.7974"></path>
            <path d="M173.1,112.5 C192.3,93.8 204.9,73.4 216.9,53.8 C227.5,75.4 242.6,94.3 259,112.5 C241.5,130.6 227.9,150 217,170.3 C204.8,149.4 192.1,130.5 173.1,112.5 L173.1,112.5 Z" id="Path" fill="#D40000" fill-rule="nonzero"></path>
            <path d="M173.1,493.3 C192.3,474.6 204.9,454.2 216.9,434.6 C227.5,456.2 242.6,475.1 259,493.3 C241.5,511.4 227.9,530.8 217,551.1 C204.8,530.2 192.1,511.3 173.1,493.3 L173.1,493.3 Z" id="Path" fill="#D40000" fill-rule="nonzero"></path>
            <path d="M173.1,302.7 C192.3,284 204.9,263.6 216.9,244 C227.5,265.6 242.6,284.5 259,302.7 C241.5,320.8 227.9,340.2 217,360.5 C204.8,339.7 192.1,320.8 173.1,302.7 L173.1,302.7 Z" id="Path" fill="#D40000" fill-rule="nonzero"></path>
            <path d="M379.8,483 C387.7,475.3 392.8,467 397.7,459 C402,467.8 408.2,475.6 414.9,483 C407.7,490.4 402.2,498.4 397.7,506.7 C392.8,498.1 387.5,490.4 379.8,483 L379.8,483 Z" id="Path" fill="#D40000" fill-rule="nonzero"></path>
            <path d="M18.5,123.2 C26.4,115.5 31.5,107.2 36.4,99.2 C40.7,108 46.9,115.8 53.6,123.2 C46.4,130.6 40.9,138.6 36.4,146.9 C31.5,138.3 26.3,130.6 18.5,123.2 L18.5,123.2 Z" id="Path" fill="#D40000" fill-rule="nonzero"></path>
            <path d="M16.8,76.7 L21.7,73.2 C26,80 30.7,84.5 38,83.7 C49,83 53.5,71.7 51.2,63.2 C49,55.6 39.9,51.9 32.7,55.9 C31,56.9 29,58 29,58 L26.4,53.8 L43.3,34.1 L25.1,34.1 L25.1,42.3 L18,42.3 L18,27.7 L54,27.7 L54,32.7 C54,32.7 44.4,42.5 41.2,47.9 C49,48.1 55.3,53 57.6,60.7 C58.9,64.8 58.3,74 56.6,78 C53.7,84.7 45.8,90.1 38.6,90.4 C26.5,91.2 20,82.9 16.8,76.7 L16.8,76.7 Z" id="Path" fill="#D40000" fill-rule="nonzero"></path>
            <path d="M415.5,527.6 L410.6,531.2 C406.3,524.4 401.5,519.9 394.2,520.7 C383.2,521.4 378.7,532.7 381,541.2 C383.2,548.8 392.3,552.5 399.5,548.5 C401.2,547.5 403.2,546.5 403.2,546.5 L406.2,550.4 L388.8,570.2 L407.2,570.2 L407.2,562 L414.2,562 L414.2,576.6 L378.3,576.6 L378.3,571.6 C378.3,571.6 387.9,561.8 391.1,556.4 C383.3,556.1 377,551.2 374.7,543.5 C373.4,539.5 374,530.2 375.7,526.2 C378.6,519.5 386.5,514.1 393.7,513.8 C405.8,513.1 412.3,521.5 415.5,527.6 L415.5,527.6 Z" id="Path" fill="#D40000" fill-rule="nonzero"></path>
        </g>
    </g>
</svg>