<?xml version="1.0" encoding="UTF-8"?>
<svg width="418px" height="583px" viewBox="0 0 418 583" version="1.1" xmlns="http://www.w3.org/2000/svg" xmlns:xlink="http://www.w3.org/1999/xlink">
    <!-- Generator: Sketch 61.2 (89653) - https://sketch.com -->
    <title>3H</title>
    <desc>Created with Sketch.</desc>
    <g id="Page-1" stroke="none" stroke-width="1" fill="none" fill-rule="evenodd">
        <g id="3H" transform="translate(1.000000, 0.000000)">
            <path d="M19.9,0.9 L396.5,0.9 C407.5,0.9 416.3,9.7 416.3,20.7 L416.3,562.5 C416.3,573.5 407.5,582.3 396.5,582.3 L19.9,582.3 C8.9,582.3 0.1,573.5 0.1,562.5 L0.1,20.8 C0.1,9.8 8.9,0.9 19.9,0.9 L19.9,0.9 Z" id="Path" fill="#FFFFFF" fill-rule="nonzero"></path>
            <path d="M19.9,0.9 L396.5,0.9 C407.5,0.9 416.3,9.7 416.3,20.7 L416.3,562.5 C416.3,573.5 407.5,582.3 396.5,582.3 L19.9,582.3 C8.9,582.3 0.1,573.5 0.1,562.5 L0.1,20.8 C0.1,9.8 8.9,0.9 19.9,0.9 L19.9,0.9 Z" id="Path" stroke="#000000" stroke-width="0.7974"></path>
            <path d="M15.8,74.1 L20.6,70.7 C24.7,77.3 29.3,81.6 36.4,80.9 C47,80.2 51.4,69.3 49.1,61.1 C47,53.7 38.2,50.2 31.2,54.1 C29.6,55 27.7,56.2 27.7,56.2 L25.2,52.2 L41.5,33.2 L23.8,33.2 L23.8,41.1 L17,41.1 L17,26.8 L51.7,26.8 L51.7,31.6 C51.7,31.6 42.4,41 39.3,46.2 C46.9,46.5 53,51.2 55.1,58.6 C56.4,62.5 55.8,71.5 54.1,75.3 C51.3,81.7 43.7,87 36.7,87.3 C25.1,88.1 18.9,80 15.8,74.1 L15.8,74.1 Z" id="Path" fill="#D40000" fill-rule="nonzero"></path>
            <path d="M400.6,509.3 L395.8,512.7 C391.7,506.1 387.1,501.8 380,502.5 C369.4,503.2 365,514.1 367.3,522.3 C369.4,529.7 378.2,533.2 385.2,529.3 C386.8,528.4 388.7,527.4 388.7,527.4 L391.6,531.2 L374.8,550.3 L392.5,550.3 L392.5,542.4 L399.3,542.4 L399.3,556.5 L364.6,556.5 L364.6,551.7 C364.6,551.7 373.9,542.3 377,537.1 C369.4,536.8 363.4,532.1 361.2,524.7 C359.9,520.8 360.5,511.8 362.2,508 C365,501.6 372.6,496.3 379.6,496 C391.3,495.3 397.5,503.3 400.6,509.3 L400.6,509.3 Z" id="Path" fill="#D40000" fill-rule="nonzero"></path>
            <path d="M18.2,114.1 C15.2,107.6 14.9,96.6 23.7,95.1 C30.3,94.2 33,97.3 33.6,102.1 C33.9,103.5 34.6,103.6 34.9,102 C35.3,97.1 40.1,94.3 43.9,95 C54.2,96.8 53.6,108.1 50.2,115.8 C45.1,126 39.8,132.5 34.8,142.8 C29.2,132 22.7,123.3 18.2,114.1 L18.2,114.1 Z" id="Path" fill="#D40000" fill-rule="nonzero"></path>
            <path d="M185.6,54.5 C198.9,53.6 205.9,65 207.2,74 C208,75.4 208.5,75 208.8,73.9 C209.4,62.4 219.8,53 229.3,54.3 C244.8,54.5 254.3,71.8 251.6,86.4 C248.4,104.3 238.7,115 231.4,126.1 C223.2,137.6 212.1,154.1 208.5,162.1 C208.5,162.1 197.2,144.9 182.5,124.7 C172.7,111.2 164.8,96.6 164.1,84 C163.4,69.7 169.3,56.8 185.6,54.5 L185.6,54.5 Z" id="Path" fill="#D40000" fill-rule="nonzero"></path>
            <path d="M185.7,238.1 C199,237.2 206,248.6 207.3,257.6 C208.1,259 208.6,258.6 208.9,257.5 C209.5,246 219.9,236.6 229.4,237.9 C244.9,238.1 254.4,255.4 251.7,270 C248.5,287.9 238.8,298.6 231.5,309.7 C223.3,321.2 212.2,337.7 208.6,345.7 C208.6,345.7 197.3,328.5 182.6,308.3 C172.8,294.8 164.9,280.2 164.2,267.6 C163.5,253.2 169.4,240.3 185.7,238.1 L185.7,238.1 Z" id="Path" fill="#D40000" fill-rule="nonzero"></path>
            <path d="M366.9,470.6 C363.9,477.1 363.6,488.1 372.4,489.6 C379,490.5 381.8,487.4 382.3,482.6 C382.6,481.2 383.3,481.1 383.6,482.7 C384,487.6 388.8,490.4 392.6,489.7 C402.9,487.9 402.3,476.6 398.9,468.9 C393.8,458.7 388.5,452.2 383.5,442 C377.9,452.7 371.4,461.4 366.9,470.6 L366.9,470.6 Z" id="Path" fill="#D40000" fill-rule="nonzero"></path>
            <path d="M185.6,529.3 C198.9,530.2 205.9,518.8 207.2,509.8 C208,508.4 208.5,508.8 208.8,509.9 C209.4,521.4 219.8,530.8 229.3,529.5 C244.8,529.3 254.3,512 251.6,497.4 C248.4,479.5 238.7,468.8 231.4,457.7 C223.2,446.2 212.1,429.7 208.5,421.7 C208.5,421.7 197.2,438.9 182.5,459 C172.7,472.5 164.8,487.1 164.1,499.7 C163.4,514.2 169.3,527.1 185.6,529.3 L185.6,529.3 Z" id="Path" fill="#D40000" fill-rule="nonzero"></path>
        </g>
    </g>
</svg>