<?xml version="1.0" encoding="UTF-8"?>
<svg width="418px" height="583px" viewBox="0 0 418 583" version="1.1" xmlns="http://www.w3.org/2000/svg" xmlns:xlink="http://www.w3.org/1999/xlink">
    <!-- Generator: Sketch 61.2 (89653) - https://sketch.com -->
    <title>3S</title>
    <desc>Created with Sketch.</desc>
    <g id="Page-1" stroke="none" stroke-width="1" fill="none" fill-rule="evenodd">
        <g id="3S" transform="translate(1.000000, 0.000000)">
            <path d="M19.9,0.9 L396.5,0.9 C407.5,0.9 416.3,9.7 416.3,20.7 L416.3,562.5 C416.3,573.5 407.5,582.3 396.5,582.3 L19.9,582.3 C8.9,582.3 0.1,573.5 0.1,562.5 L0.1,20.8 C0.1,9.8 8.9,0.9 19.9,0.9 L19.9,0.9 Z" id="Path" fill="#FFFFFF" fill-rule="nonzero"></path>
            <path d="M19.9,0.9 L396.5,0.9 C407.5,0.9 416.3,9.7 416.3,20.7 L416.3,562.5 C416.3,573.5 407.5,582.3 396.5,582.3 L19.9,582.3 C8.9,582.3 0.1,573.5 0.1,562.5 L0.1,20.8 C0.1,9.8 8.9,0.9 19.9,0.9 L19.9,0.9 Z" id="Path" stroke="#000000" stroke-width="0.7974"></path>
            <path d="M15.8,74.1 L20.6,70.7 C24.7,77.3 29.3,81.6 36.4,80.9 C47,80.2 51.4,69.3 49.1,61.1 C47,53.7 38.2,50.2 31.2,54.1 C29.6,55 27.7,56.2 27.7,56.2 L25.2,52.2 L41.5,33.2 L23.9,33.2 L23.9,41.1 L17,41.1 L17,26.8 L51.7,26.8 L51.7,31.6 C51.7,31.6 42.4,41 39.3,46.2 C46.9,46.5 53,51.2 55.1,58.6 C56.4,62.5 55.8,71.5 54.1,75.3 C51.3,81.7 43.7,87 36.7,87.3 C25.1,88.1 18.9,80 15.8,74.1 L15.8,74.1 Z" id="Path" fill="#000000" fill-rule="nonzero"></path>
            <path d="M400.6,509.3 L395.8,512.7 C391.7,506.1 387.1,501.8 380,502.5 C369.4,503.2 365,514.1 367.3,522.3 C369.4,529.7 378.2,533.2 385.2,529.3 C386.8,528.4 388.7,527.4 388.7,527.4 L391.6,531.2 L374.8,550.3 L392.5,550.3 L392.5,542.4 L399.3,542.4 L399.3,556.5 L364.6,556.5 L364.6,551.7 C364.6,551.7 373.9,542.3 377,537.1 C369.4,536.8 363.4,532.1 361.2,524.7 C359.9,520.8 360.5,511.8 362.2,508 C365,501.6 372.6,496.3 379.6,496 C391.3,495.3 397.5,503.3 400.6,509.3 L400.6,509.3 Z" id="Path" fill="#000000" fill-rule="nonzero"></path>
            <path d="M204.1,129.5 C204.1,125.7 201.1,125.6 201.2,128.4 C200.9,142.3 189.2,149.1 180.7,147.5 C167.6,145 163.4,132 163.5,124.3 C163.9,100.6 187.7,83.2 209.2,52.8 C225,80.2 251,101.7 252.5,122.9 C254.5,151.1 218.9,161.6 213.8,128.7 C213.5,126.4 210.7,125.4 211,128.6 C211.8,137.6 210.7,141.3 220.8,163.5 L194.3,163.5 C200.2,153.1 203.7,140.4 204.1,129.5 L204.1,129.5 Z" id="Path" fill="#000000" fill-rule="nonzero"></path>
            <path d="M204.2,270.4 C204.2,274.2 201.2,274.3 201.3,271.5 C201,257.6 189.3,250.8 180.8,252.4 C167.7,254.9 163.5,267.9 163.6,275.6 C164,299.3 187.8,316.7 209.3,347.1 C225.1,319.7 251.1,298.2 252.6,277 C254.6,248.8 219,238.3 213.9,271.2 C213.6,273.5 210.8,274.6 211.1,271.3 C211.9,262.3 210.8,258.6 220.9,236.4 L194.4,236.4 C200.3,246.7 203.8,259.4 204.2,270.4 L204.2,270.4 Z" id="Path" fill="#000000" fill-rule="nonzero"></path>
            <path d="M204.1,454.4 C204.1,458.2 201.1,458.3 201.2,455.5 C200.9,441.7 189.2,434.8 180.7,436.4 C167.6,438.9 163.4,451.9 163.5,459.6 C163.9,483.3 187.7,500.7 209.2,531.1 C225,503.7 251,482.2 252.5,461 C254.5,432.8 218.9,422.3 213.8,455.2 C213.5,457.5 210.7,458.6 210.9,455.3 C211.7,446.3 210.6,442.6 220.7,420.4 L194.2,420.4 C200.2,430.7 203.7,443.5 204.1,454.4 L204.1,454.4 Z" id="Path" fill="#000000" fill-rule="nonzero"></path>
            <path d="M33.6,131 C33.6,129.4 31.9,130.1 31.7,130.6 C29.5,134.3 26.4,135.2 23.2,133.8 C20.1,132.5 18.3,129.5 18.6,125.4 C19.2,119 24.3,112 26.7,108 C29,104.4 31.6,100.1 34.3,94.7 C37.5,101 39.1,102.7 42.5,108.5 C45.5,113.5 49.8,118.5 50.1,124.6 C50.1,129.2 48.2,133.6 43.8,134.4 C41.3,134.9 39,133.6 37.3,130.6 C36.8,129.8 35.7,130.2 35.7,131.3 C36,135.2 37.5,138.7 41,142.9 L28.2,142.9 C30.8,139.9 33.5,135.9 33.6,131 L33.6,131 Z" id="Path" fill="#000000" fill-rule="nonzero"></path>
            <path d="M382.3,453.8 C382.3,455.4 380.6,454.7 380.4,454.2 C378.2,450.5 375.1,449.6 371.9,451 C368.8,452.3 367,455.3 367.3,459.4 C367.9,465.8 373,472.8 375.4,476.8 C377.7,480.4 380.3,484.7 383,490.1 C386.2,483.8 387.8,482 391.2,476.3 C394.2,471.3 398.5,466.3 398.8,460.2 C398.8,455.6 396.9,451.2 392.5,450.4 C390,449.9 387.7,451.2 386,454.2 C385.5,455 384.4,454.6 384.4,453.5 C384.7,449.6 386.2,446.1 389.7,441.9 L376.9,441.9 C379.5,444.9 382.2,448.8 382.3,453.8 L382.3,453.8 Z" id="Path" fill="#000000" fill-rule="nonzero"></path>
        </g>
    </g>
</svg>