<?xml version="1.0" encoding="UTF-8"?>
<svg width="411px" height="574px" viewBox="0 0 411 574" version="1.1" xmlns="http://www.w3.org/2000/svg" xmlns:xlink="http://www.w3.org/1999/xlink">
    <!-- Generator: Sketch 61.2 (89653) - https://sketch.com -->
    <title>4C</title>
    <desc>Created with Sketch.</desc>
    <g id="Page-1" stroke="none" stroke-width="1" fill="none" fill-rule="evenodd">
        <g id="4C" transform="translate(0.000000, 1.000000)">
            <path d="M20.4,0 L391.1,0 C401.9,0 410.6,8.7 410.6,19.5 L410.6,552.8 C410.6,563.6 401.9,572.3 391.1,572.3 L20.4,572.3 C9.6,572.3 0.9,563.6 0.9,552.8 L0.9,19.5 C0.9,8.7 9.6,0 20.4,0 L20.4,0 Z" id="Path" fill="#FFFFFF" fill-rule="nonzero"></path>
            <path d="M20.4,0 L391.1,0 C401.9,0 410.6,8.7 410.6,19.5 L410.6,552.8 C410.6,563.6 401.9,572.3 391.1,572.3 L20.4,572.3 C9.6,572.3 0.9,563.6 0.9,552.8 L0.9,19.5 C0.9,8.7 9.6,0 20.4,0 L20.4,0 Z" id="Path" stroke="#000000" stroke-width="0.7974"></path>
            <path d="M34.7,85.1 L34.7,79.9 L39.5,79.9 L39.5,71.4 L15.7,71.4 L15.7,65.4 L41.4,26.7 L45.6,26.7 L45.6,65.4 L52.9,65.4 L52.9,71.4 L45.6,71.4 L45.5,79.9 L49.5,79.9 L49.5,85.1 L34.7,85.1 Z M39.5,40.9 L23.2,65.4 L39.5,65.4 L39.5,40.9 Z" id="Shape" fill="#000000" fill-rule="nonzero"></path>
            <path d="M379,487.2 L379,492.4 L374.3,492.4 L374.3,500.9 L398,500.9 L398,506.9 L372.3,545.6 L368.1,545.6 L368.1,506.9 L360.8,506.9 L360.8,500.9 L368.1,500.9 L368.2,492.4 L364.2,492.4 L364.2,487.2 L379,487.2 Z M374.2,531.4 L390.5,506.8 L374.2,506.8 L374.2,531.4 Z" id="Shape" fill="#000000" fill-rule="nonzero"></path>
            <path d="M283.2,153 C288.5,142.4 292.3,131.5 293,119.9 C293.6,115.6 291,115.5 290.6,118.6 C283.1,147.2 243.3,139.5 244.7,112.6 C245.8,90.8 267.5,86.1 278.8,93.2 C283.3,95.8 283,94.3 280.6,91.5 C263.8,72.8 274,48.6 296.7,48.2 C321.3,49.7 327.6,75.5 312.6,90.7 C310.7,92.5 306.6,98.4 312.8,94.3 C328,83.5 349.1,95.1 348.7,111.8 C347.9,142.5 310.4,144.8 302.4,119.1 C301.6,116.3 299.4,114.8 300,119.7 C301.1,128.5 303.4,141.6 310,153.1 L283.2,153.1 L283.2,153 Z" id="Path" fill="#000000" fill-rule="nonzero"></path>
            <path d="M100.5,153 C105.8,142.4 109.6,131.5 110.3,119.9 C110.9,115.6 108.3,115.5 107.9,118.6 C100.4,147.2 60.6,139.5 62,112.6 C63.1,90.8 84.8,86.1 96.1,93.2 C100.6,95.8 100.3,94.3 97.9,91.5 C81.1,72.8 91.3,48.6 114,48.2 C138.6,49.7 144.9,75.5 129.9,90.7 C128,92.5 123.9,98.4 130.1,94.3 C145.3,83.5 166.4,95.1 166,111.8 C165.2,142.5 127.7,144.8 119.7,119.1 C118.9,116.3 116.7,114.8 117.3,119.7 C118.4,128.5 120.7,141.6 127.3,153.1 L100.5,153.1 L100.5,153 Z" id="Path" fill="#000000" fill-rule="nonzero"></path>
            <path d="M310.2,413.1 C304.9,423.7 301.1,434.6 300.4,446.2 C299.8,450.5 302.4,450.6 302.8,447.5 C310.3,418.9 350.1,426.6 348.7,453.6 C347.6,475.4 325.9,480.1 314.6,473 C310.1,470.4 310.4,472 312.8,474.7 C329.6,493.4 319.4,517.6 296.7,518 C272.1,516.5 265.8,490.7 280.8,475.5 C282.7,473.7 286.8,467.8 280.6,471.9 C265.4,482.7 244.3,471.1 244.7,454.4 C245.5,423.7 283,421.4 291,447 C291.8,449.9 294,451.3 293.4,446.5 C292.3,437.7 290,424.6 283.4,413.1 L310.2,413.1 Z" id="Path" fill="#000000" fill-rule="nonzero"></path>
            <path d="M127.5,413.1 C122.2,423.7 118.4,434.6 117.7,446.2 C117.1,450.5 119.7,450.6 120.1,447.5 C127.6,418.9 167.4,426.6 166,453.6 C164.9,475.4 143.2,480.1 131.9,473 C127.4,470.4 127.7,472 130.1,474.7 C146.9,493.4 136.7,517.6 114,518 C89.4,516.5 83.1,490.7 98.1,475.5 C100,473.7 104.1,467.8 97.9,471.9 C82.7,482.7 61.6,471.1 62,454.4 C62.8,423.7 100.2,421.4 108.3,447 C109.1,449.9 111.3,451.3 110.7,446.5 C109.6,437.7 107.3,424.6 100.7,413.1 L127.5,413.1 Z" id="Path" fill="#000000" fill-rule="nonzero"></path>
            <path d="M26.6,138.4 C28.8,133.9 30.9,129.7 32.1,124.8 C32.9,120.2 31.3,121.9 30.4,124.9 C29.1,129.1 25.4,131 22,131.1 C15.8,131.2 12.7,126.3 12.9,121.1 C12.2,115.6 17.8,111.7 22,112 C25.2,112.2 27.9,113.9 29.6,115.3 C30.7,115.9 31.9,116.1 30.2,114.6 C27.1,111.2 24.6,109.2 24.6,104.1 C24.6,99.4 28.7,94.4 34.1,94.6 C40.8,94.8 43.9,99.9 43.8,104.7 C43.8,108.2 42.1,111.4 39.4,113.3 C37.7,114.7 38.1,115.8 40.1,114.4 C42,112.8 44.3,112.1 46.6,112 C53,111.9 55.5,117.4 55.1,122.6 C54.8,127.4 50.7,132.4 45.2,131.8 C40.4,131.2 37.8,127.2 36.4,123 C35.9,121.7 35.2,121.4 35.2,123.3 C36.3,132.6 39.8,138.4 39.8,138.4 L26.6,138.4 L26.6,138.4 Z" id="Path" fill="#000000" fill-rule="nonzero"></path>
            <path d="M385,434.4 C382.8,438.9 380.7,443.1 379.5,448 C378.7,452.6 380.3,450.9 381.2,447.9 C382.5,443.7 386.2,441.8 389.6,441.7 C395.8,441.6 398.9,446.5 398.7,451.7 C399.4,457.2 393.8,461.1 389.6,460.8 C386.4,460.6 383.7,458.9 382,457.5 C380.9,456.9 379.7,456.7 381.4,458.1 C384.5,461.5 387,463.5 387,468.6 C386.9,473.3 382.9,478.3 377.5,478.1 C370.8,477.9 367.7,472.8 367.8,468 C367.8,464.5 369.5,461.3 372.2,459.4 C373.9,458 373.4,456.9 371.5,458.3 C369.6,459.9 367.3,460.7 365,460.7 C358.6,460.8 356.1,455.3 356.5,450.1 C356.8,445.3 360.9,440.3 366.4,440.9 C371.2,441.5 373.8,445.5 375.2,449.7 C375.7,451 376.4,451.3 376.4,449.4 C375.3,440.1 371.8,434.3 371.8,434.4 L385,434.4 L385,434.4 Z" id="Path" fill="#000000" fill-rule="nonzero"></path>
        </g>
    </g>
</svg>