<?xml version="1.0" encoding="UTF-8"?>
<svg width="427px" height="596px" viewBox="0 0 427 596" version="1.1" xmlns="http://www.w3.org/2000/svg" xmlns:xlink="http://www.w3.org/1999/xlink">
    <!-- Generator: Sketch 61.2 (89653) - https://sketch.com -->
    <title>4D</title>
    <desc>Created with Sketch.</desc>
    <g id="Page-1" stroke="none" stroke-width="1" fill="none" fill-rule="evenodd">
        <g id="4D">
            <path d="M21,0.9 L405.6,0.9 C416.8,0.9 425.8,9.9 425.8,21.1 L425.8,574.5 C425.8,585.7 416.8,594.7 405.6,594.7 L21,594.7 C9.8,594.7 0.8,585.7 0.8,574.5 L0.8,21.2 C0.8,10 9.8,0.9 21,0.9 L21,0.9 Z" id="Path" fill="#FFFFFF" fill-rule="nonzero"></path>
            <path d="M21,0.9 L405.6,0.9 C416.8,0.9 425.8,9.9 425.8,21.1 L425.8,574.5 C425.8,585.7 416.8,594.7 405.6,594.7 L21,594.7 C9.8,594.7 0.8,585.7 0.8,574.5 L0.8,21.2 C0.8,10 9.8,0.9 21,0.9 L21,0.9 Z" id="Path" stroke="#000000" stroke-width="0.7974"></path>
            <path d="M67.1,105.8 C86,87.4 98.4,67.3 110.3,47.9 C120.7,69.2 135.6,87.8 151.8,105.8 C134.5,123.6 121.1,142.7 110.4,162.8 C98.4,142.2 85.8,123.6 67.1,105.8 L67.1,105.8 Z" id="Path" fill="#D40000" fill-rule="nonzero"></path>
            <path d="M67.1,484.5 C86,466.1 98.4,446 110.3,426.6 C120.7,447.9 135.6,466.5 151.8,484.5 C134.5,502.3 121.1,521.4 110.4,541.5 C98.4,520.9 85.8,502.3 67.1,484.5 L67.1,484.5 Z" id="Path" fill="#D40000" fill-rule="nonzero"></path>
            <path d="M279.5,105.8 C298.4,87.4 310.8,67.3 322.7,47.9 C333.1,69.2 348,87.8 364.2,105.8 C346.9,123.6 333.5,142.7 322.8,162.8 C310.8,142.2 298.2,123.6 279.5,105.8 L279.5,105.8 Z" id="Path" fill="#D40000" fill-rule="nonzero"></path>
            <path d="M279.5,484.5 C298.4,466.1 310.8,446 322.7,426.6 C333.1,447.9 348,466.5 364.2,484.5 C346.9,502.3 333.5,521.4 322.8,541.5 C310.8,520.9 298.2,502.3 279.5,484.5 L279.5,484.5 Z" id="Path" fill="#D40000" fill-rule="nonzero"></path>
            <path d="M373.2,474.6 C380.9,467 386,458.8 390.9,450.9 C395.2,459.6 401.3,467.2 407.9,474.6 C400.8,481.9 395.3,489.7 390.9,497.9 C386,489.5 380.9,481.9 373.2,474.6 L373.2,474.6 Z" id="Path" fill="#D40000" fill-rule="nonzero"></path>
            <path d="M16.6,122.1 C24.3,114.5 29.4,106.3 34.3,98.4 C38.6,107.1 44.7,114.7 51.3,122.1 C44.2,129.4 38.7,137.2 34.3,145.4 C29.5,137 24.3,129.4 16.6,122.1 L16.6,122.1 Z" id="Path" fill="#D40000" fill-rule="nonzero"></path>
            <path d="M34.8,89.3 L34.8,83.9 L39.7,83.9 L39.7,75.1 L15.1,75.1 L15.1,68.9 L41.7,28.7 L46.1,28.7 L46.1,68.9 L53.6,68.9 L53.6,75.1 L46,75.1 L45.9,83.9 L50,83.9 L50,89.3 L34.8,89.3 Z M39.7,43.4 L22.8,68.9 L39.7,68.9 L39.7,43.4 L39.7,43.4 Z" id="Shape" fill="#D40000" fill-rule="nonzero"></path>
            <path d="M392,506.5 L392,511.9 L387,511.9 L387,520.7 L411.6,520.7 L411.6,526.9 L385,567.1 L380.6,567.1 L380.6,526.9 L373.1,526.9 L373.1,520.7 L380.6,520.7 L380.7,511.9 L376.6,511.9 L376.6,506.5 L392,506.5 Z M387,552.4 L403.9,526.9 L387,526.9 L387,552.4 Z" id="Shape" fill="#D40000" fill-rule="nonzero"></path>
        </g>
    </g>
</svg>