<?xml version="1.0" encoding="UTF-8"?>
<svg width="421px" height="587px" viewBox="0 0 421 587" version="1.1" xmlns="http://www.w3.org/2000/svg" xmlns:xlink="http://www.w3.org/1999/xlink">
    <!-- Generator: Sketch 61.2 (89653) - https://sketch.com -->
    <title>4H</title>
    <desc>Created with Sketch.</desc>
    <g id="Page-1" stroke="none" stroke-width="1" fill="none" fill-rule="evenodd">
        <g id="4H" transform="translate(1.000000, 0.000000)">
            <path d="M20.2,0.9 L399,0.9 C410,0.9 418.9,9.8 418.9,20.8 L418.9,565.8 C418.9,576.8 410,585.7 399,585.7 L20.2,585.7 C9.2,585.7 0.299165497,576.8 0.299165497,565.8 L0.299165497,20.8 C0.2,9.8 9.1,0.9 20.2,0.9 L20.2,0.9 Z" id="Path" fill="#FFFFFF" fill-rule="nonzero"></path>
            <path d="M20.2,0.9 L399,0.9 C410,0.9 418.9,9.8 418.9,20.8 L418.9,565.8 C418.9,576.8 410,585.7 399,585.7 L20.2,585.7 C9.2,585.7 0.299165497,576.8 0.299165497,565.8 L0.299165497,20.8 C0.2,9.8 9.1,0.9 20.2,0.9 L20.2,0.9 Z" id="Path" stroke="#000000" stroke-width="0.7974"></path>
            <path d="M33.7,87.9 L33.7,82.6 L38.6,82.6 L38.6,74 L14.3,74 L14.3,67.9 L40.5,28.3 L44.8,28.3 L44.8,67.9 L52.2,67.9 L52.2,74 L44.8,74 L44.7,82.7 L48.8,82.7 L48.8,88 L33.7,88 L33.7,87.9 Z M38.5,42.7 L21.9,67.8 L38.6,67.8 L38.6,42.7 L38.5,42.7 Z" id="Shape" fill="#D40000" fill-rule="nonzero"></path>
            <path d="M385.5,498.8 L385.5,504.1 L380.7,504.1 L380.7,512.8 L404.9,512.8 L404.9,518.9 L378.7,558.5 L374.4,558.5 L374.4,518.9 L367,518.9 L367,512.8 L374.4,512.8 L374.5,504.1 L370.4,504.1 L370.4,498.8 L385.5,498.8 Z M380.6,544 L397.3,518.9 L380.6,518.9 L380.6,544 Z" id="Shape" fill="#D40000" fill-rule="nonzero"></path>
            <path d="M16.6,115.4 C13.6,108.9 13.3,97.8 22.2,96.3 C28.9,95.4 31.6,98.5 32.1,103.3 C32.4,104.7 33.2,104.8 33.4,103.2 C33.8,98.3 38.6,95.5 42.4,96.2 C52.8,98 52.2,109.4 48.8,117.1 C43.7,127.4 38.3,133.9 33.3,144.2 C27.7,133.4 21.2,124.6 16.6,115.4 L16.6,115.4 Z" id="Path" fill="#D40000" fill-rule="nonzero"></path>
            <path d="M84.6,49.8 C98,49 105,60.4 106.4,69.4 C107.2,70.8 107.7,70.4 108,69.3 C108.7,57.7 119,48.3 128.6,49.6 C144.2,49.8 153.7,67.2 151,81.9 C147.7,99.9 138.1,110.7 130.7,121.8 C122.4,133.3 111.2,150 107.6,158 C107.6,158 96.3,140.7 81.5,120.4 C71.6,106.8 63.7,92.1 63,79.4 C62.2,65.1 68.2,52.1 84.6,49.8 L84.6,49.8 Z" id="Path" fill="#D40000" fill-rule="nonzero"></path>
            <path d="M290.1,49.8 C303.5,48.9 310.5,60.4 311.9,69.4 C312.7,70.8 313.2,70.4 313.5,69.3 C314.2,57.7 324.5,48.3 334.1,49.6 C349.7,49.8 359.2,67.2 356.5,81.9 C353.2,99.9 343.5,110.7 336.2,121.8 C327.9,133.3 316.7,150 313.1,158 C313.1,158 301.8,140.7 287,120.4 C277.1,106.8 269.2,92.1 268.5,79.4 C267.7,65.1 273.6,52.1 290.1,49.8 L290.1,49.8 Z" id="Path" fill="#D40000" fill-rule="nonzero"></path>
            <path d="M84.6,530.7 C98,531.6 105,520.1 106.4,511.1 C107.2,509.7 107.7,510.1 108,511.2 C108.7,522.8 119,532.2 128.6,531 C144.2,530.8 153.7,513.4 151,498.7 C147.7,480.7 138.1,469.9 130.7,458.8 C122.4,447.3 111.2,430.6 107.6,422.6 C107.6,422.6 96.3,439.9 81.5,460.2 C71.6,473.8 63.7,488.5 63,501.1 C62.2,515.4 68.2,528.4 84.6,530.7 L84.6,530.7 Z" id="Path" fill="#D40000" fill-rule="nonzero"></path>
            <path d="M290.1,530.7 C303.5,531.6 310.5,520.1 311.9,511.1 C312.7,509.7 313.2,510.1 313.5,511.2 C314.2,522.8 324.5,532.2 334.1,531 C349.7,530.8 359.2,513.4 356.5,498.7 C353.2,480.7 343.5,469.9 336.2,458.8 C327.9,447.3 316.7,430.6 313.1,422.6 C313.1,422.6 301.8,439.9 287,460.2 C277.1,473.8 269.2,488.5 268.5,501.1 C267.7,515.4 273.6,528.4 290.1,530.7 L290.1,530.7 Z" id="Path" fill="#D40000" fill-rule="nonzero"></path>
            <path d="M367.8,472 C364.8,478.5 364.5,489.6 373.4,491.2 C380.1,492.1 382.8,488.9 383.3,484.2 C383.6,482.8 384.4,482.7 384.6,484.3 C385,489.2 389.8,492.1 393.6,491.3 C404,489.5 403.4,478.1 400,470.4 C394.9,460.1 389.5,453.6 384.5,443.3 C378.9,454 372.3,462.7 367.8,472 L367.8,472 Z" id="Path" fill="#D40000" fill-rule="nonzero"></path>
        </g>
    </g>
</svg>