<?xml version="1.0" encoding="UTF-8"?>
<svg width="410px" height="572px" viewBox="0 0 410 572" version="1.1" xmlns="http://www.w3.org/2000/svg" xmlns:xlink="http://www.w3.org/1999/xlink">
    <!-- Generator: Sketch 61.2 (89653) - https://sketch.com -->
    <title>4S</title>
    <desc>Created with Sketch.</desc>
    <g id="Page-1" stroke="none" stroke-width="1" fill="none" fill-rule="evenodd">
        <g id="4S">
            <path d="M20.2,0.9 L389.5,0.9 C400.3,0.9 408.9,9.6 408.9,20.3 L408.9,551.5 C408.9,562.3 400.2,570.9 389.5,570.9 L20.2,570.9 C9.4,570.9 0.8,562.2 0.8,551.5 L0.8,20.4 C0.8,9.6 9.5,0.9 20.2,0.9 L20.2,0.9 Z" id="Path" fill="#FFFFFF" fill-rule="nonzero"></path>
            <path d="M20.2,0.9 L389.5,0.9 C400.3,0.9 408.9,9.6 408.9,20.3 L408.9,551.5 C408.9,562.3 400.2,570.9 389.5,570.9 L20.2,570.9 C9.4,570.9 0.8,562.2 0.8,551.5 L0.8,20.4 C0.8,9.6 9.5,0.9 20.2,0.9 L20.2,0.9 Z" id="Path" stroke="#000000" stroke-width="0.7974"></path>
            <path d="M33.4,85.7 L33.4,80.6 L38.1,80.6 L38.1,72.1 L14.5,72.1 L14.5,66.1 L40.1,27.5 L44.3,27.5 L44.3,66.1 L51.5,66.1 L51.5,72.1 L44.3,72.1 L44.2,80.6 L48.2,80.6 L48.2,85.7 L33.4,85.7 Z M38.1,41.7 L21.9,66.1 L38.1,66.1 L38.1,41.7 L38.1,41.7 Z" id="Shape" fill="#000000" fill-rule="nonzero"></path>
            <path d="M376.3,486.3 L376.3,491.4 L371.6,491.4 L371.6,499.9 L395.2,499.9 L395.2,505.9 L369.6,544.5 L365.4,544.5 L365.4,505.9 L358.2,505.9 L358.2,499.9 L365.4,499.9 L365.5,491.4 L361.5,491.4 L361.5,486.3 L376.3,486.3 Z M371.6,530.3 L387.8,505.8 L371.6,505.8 L371.6,530.3 Z" id="Shape" fill="#000000" fill-rule="nonzero"></path>
            <path d="M101.2,122.1 C101.2,118.4 98.3,118.3 98.3,121 C98.1,134.6 86.6,141.3 78.2,139.7 C65.3,137.3 61.2,124.5 61.4,117 C61.8,93.8 85.1,76.7 106.2,46.9 C121.7,73.8 147.1,94.9 148.7,115.6 C150.7,143.2 115.8,153.5 110.8,121.3 C110.5,119 107.8,118 108,121.2 C108.8,130 107.7,133.7 117.6,155.4 L91.6,155.4 C97.4,145.3 100.8,132.8 101.2,122.1 L101.2,122.1 Z" id="Path" fill="#000000" fill-rule="nonzero"></path>
            <path d="M305.1,122.1 C305.1,118.4 302.2,118.3 302.2,121 C302,134.6 290.5,141.3 282.1,139.7 C269.2,137.3 265.1,124.5 265.3,117 C265.7,93.8 289,76.7 310.1,46.9 C325.6,73.8 351.1,94.9 352.6,115.6 C354.6,143.2 319.7,153.5 314.7,121.3 C314.4,119 311.7,118 311.9,121.2 C312.6,130 311.6,133.7 321.5,155.4 L295.5,155.4 C301.3,145.3 304.7,132.8 305.1,122.1 L305.1,122.1 Z" id="Path" fill="#000000" fill-rule="nonzero"></path>
            <path d="M101.2,443.8 C101.2,447.5 98.3,447.6 98.3,444.9 C98.1,431.3 86.6,424.6 78.2,426.2 C65.3,428.6 61.2,441.4 61.4,448.9 C61.8,472.1 85.1,489.2 106.2,519 C121.7,492.1 147.1,471 148.7,450.3 C150.7,422.7 115.8,412.4 110.8,444.6 C110.5,446.9 107.8,447.9 108,444.7 C108.8,435.9 107.7,432.2 117.6,410.5 L91.6,410.5 C97.4,420.6 100.8,433.1 101.2,443.8 L101.2,443.8 Z" id="Path" fill="#000000" fill-rule="nonzero"></path>
            <path d="M305.1,443.8 C305.1,447.5 302.2,447.6 302.2,444.9 C302,431.3 290.5,424.6 282.1,426.2 C269.2,428.6 265.1,441.4 265.2,448.9 C265.6,472.1 288.9,489.2 310,519 C325.5,492.1 350.9,471 352.5,450.3 C354.5,422.7 319.6,412.4 314.6,444.6 C314.3,446.9 311.6,447.9 311.8,444.7 C312.6,435.9 311.5,432.2 321.4,410.5 L295.4,410.5 C301.3,420.6 304.7,433.1 305.1,443.8 L305.1,443.8 Z" id="Path" fill="#000000" fill-rule="nonzero"></path>
            <path d="M31.9,129 C31.9,127.4 30.3,128.2 30,128.7 C27.9,132.3 24.8,133.2 21.7,131.9 C18.6,130.6 16.9,127.7 17.2,123.6 C17.8,117.3 22.8,110.4 25.2,106.5 C27.5,103 30,98.8 32.7,93.4 C35.8,99.6 37.4,101.3 40.8,106.9 C43.8,111.8 47.9,116.7 48.2,122.7 C48.2,127.2 46.3,131.5 42,132.3 C39.6,132.7 37.3,131.5 35.6,128.6 C35.1,127.9 34.1,128.2 34.1,129.3 C34.4,133.1 35.8,136.6 39.3,140.7 L26.6,140.7 C29.1,137.7 31.8,133.9 31.9,129 L31.9,129 Z" id="Path" fill="#000000" fill-rule="nonzero"></path>
            <path d="M374.2,443.5 C374.2,445.1 372.6,444.3 372.3,443.8 C370.2,440.2 367.1,439.3 364,440.6 C361,441.9 359.2,444.8 359.5,448.9 C360.1,455.2 365,462.1 367.5,466 C369.8,469.5 372.3,473.7 375,479.1 C378.1,473 379.7,471.2 383.1,465.6 C386.1,460.7 390.2,455.8 390.5,449.8 C390.5,445.3 388.6,441 384.3,440.2 C381.9,439.8 379.6,441 377.9,443.9 C377.4,444.6 376.3,444.3 376.4,443.2 C376.7,439.4 378.2,435.9 381.6,431.8 L369,431.8 C371.4,434.8 374.1,438.7 374.2,443.5 L374.2,443.5 Z" id="Path" fill="#000000" fill-rule="nonzero"></path>
        </g>
    </g>
</svg>