<?xml version="1.0" encoding="UTF-8"?>
<svg width="420px" height="585px" viewBox="0 0 420 585" version="1.1" xmlns="http://www.w3.org/2000/svg" xmlns:xlink="http://www.w3.org/1999/xlink">
    <!-- Generator: Sketch 61.2 (89653) - https://sketch.com -->
    <title>5C</title>
    <desc>Created with Sketch.</desc>
    <g id="Page-1" stroke="none" stroke-width="1" fill="none" fill-rule="evenodd">
        <g id="5C" transform="translate(1.000000, 1.000000)">
            <path d="M20.2,0.3 L397.9,0.3 C408.9,0.3 417.8,9.2 417.8,20.2 L417.8,563.5 C417.8,574.5 408.9,583.4 397.9,583.4 L20.2,583.4 C9.2,583.4 0.3,574.5 0.3,563.5 L0.3,20.2 C0.3,9.2 9.2,0.3 20.2,0.3 L20.2,0.3 Z" id="Path" fill="#FFFFFF" fill-rule="nonzero"></path>
            <path d="M20.2,0.3 L397.9,0.3 C408.9,0.3 417.8,9.2 417.8,20.2 L417.8,563.5 C417.8,574.5 408.9,583.4 397.9,583.4 L20.2,583.4 C9.2,583.4 0.3,574.5 0.3,563.5 L0.3,20.2 C0.3,9.2 9.2,0.3 20.2,0.3 L20.2,0.3 Z" id="Path" stroke="#000000" stroke-width="0.7974"></path>
            <path d="M15.8,70.5 L21.8,70.4 C22.9,74 25.5,77.7 28.9,78.8 C38.6,81.1 44.9,75.6 47,69.4 C49.5,61.8 46.9,51.1 40.2,47.3 C34.6,44.1 26.4,46.8 22.6,53.5 L18.4,50.9 L20.7,25.8 L48.2,25.8 L48.2,31.7 L25.9,31.7 L25.5,42.2 C30.3,38.8 37.7,38.9 42.5,41.2 C51.6,45.5 55.8,55.4 54.1,67 C51.7,78.6 46.3,85.1 34.1,86.1 C20.5,86.3 15.7,76.9 15.8,70.5 L15.8,70.5 Z" id="Path" fill="#000000" fill-rule="nonzero"></path>
            <path d="M402.6,513.2 L396.6,513.2 C395.4,509.6 392.9,505.9 389.5,504.8 C379.8,502.5 373.5,508 371.4,514.2 C368.9,521.8 371.5,532.5 378.2,536.3 C383.8,539.4 392,536.8 395.8,530.1 L400,532.7 L397.7,557.8 L370.2,557.8 L370.2,552 L392.5,552 L392.8,541.5 C388,544.9 380.6,544.8 375.8,542.5 C366.7,538.2 362.5,528.3 364.3,516.7 C366.7,505.1 372.1,498.6 384.3,497.6 C397.9,497.5 402.7,506.8 402.6,513.2 L402.6,513.2 Z" id="Path" fill="#000000" fill-rule="nonzero"></path>
            <path d="M195.3,345.3 C200.7,334.5 204.6,323.4 205.3,311.6 C205.9,307.2 203.3,307.2 202.9,310.2 C195.3,339.4 154.7,331.5 156.1,304 C157.2,281.8 179.3,277 190.9,284.2 C195.4,286.9 195.2,285.3 192.7,282.5 C175.6,263.4 185.9,238.8 209.1,238.4 C234.1,239.9 240.6,266.2 225.3,281.7 C223.4,283.6 219.2,289.5 225.5,285.4 C241,274.4 262.5,286.2 262.1,303.2 C261.3,334.5 223.1,336.8 215,310.7 C214.2,307.8 212,306.3 212.6,311.3 C213.7,320.2 216.1,333.7 222.8,345.3 L195.3,345.3 L195.3,345.3 Z" id="Path" fill="#000000" fill-rule="nonzero"></path>
            <path d="M287.4,159.7 C292.8,148.9 296.7,137.8 297.4,126 C298,121.6 295.4,121.6 295,124.6 C287.4,153.8 246.8,145.9 248.2,118.4 C249.3,96.2 271.4,91.4 282.9,98.6 C287.5,101.3 287.2,99.7 284.7,96.9 C267.6,77.8 277.9,53.2 301.1,52.8 C326.1,54.3 332.6,80.6 317.3,96.1 C315.4,98 311.2,103.9 317.5,99.8 C333,88.8 354.5,100.6 354.1,117.6 C353.3,148.9 315.1,151.2 307,125.1 C306.2,122.2 304,120.7 304.6,125.7 C305.7,134.6 308.1,148.1 314.8,159.7 L287.4,159.7 L287.4,159.7 Z" id="Path" fill="#000000" fill-rule="nonzero"></path>
            <path d="M102.9,159.7 C108.3,148.9 112.2,137.8 112.9,126 C113.5,121.6 110.9,121.6 110.5,124.6 C102.9,153.8 62.3,145.9 63.7,118.4 C64.8,96.2 86.9,91.4 98.5,98.6 C103,101.3 102.8,99.7 100.3,96.9 C83.2,77.8 93.5,53.2 116.7,52.8 C141.7,54.3 148.2,80.6 132.9,96.1 C131,98 126.8,103.9 133.1,99.8 C148.6,88.8 170.1,100.6 169.7,117.6 C168.9,148.9 130.7,151.2 122.6,125.1 C121.8,122.2 119.6,120.7 120.2,125.7 C121.3,134.6 123.7,148.1 130.4,159.7 L102.9,159.7 L102.9,159.7 Z" id="Path" fill="#000000" fill-rule="nonzero"></path>
            <path d="M314.9,420.6 C309.5,431.4 305.6,442.5 304.9,454.3 C304.3,458.7 306.9,458.7 307.3,455.7 C314.9,426.6 355.5,434.4 354.1,461.9 C353,484.1 330.9,488.9 319.3,481.6 C314.8,478.9 315,480.5 317.5,483.3 C334.6,502.4 324.2,527 301.1,527.4 C276.1,525.9 269.6,499.6 284.9,484.1 C286.8,482.2 291,476.3 284.7,480.4 C269.2,491.4 247.7,479.6 248.1,462.6 C248.9,431.3 287.1,429 295.2,455.1 C296,458 298.2,459.5 297.6,454.5 C296.5,445.6 294.1,432.2 287.4,420.5 L314.9,420.5 L314.9,420.6 Z" id="Path" fill="#000000" fill-rule="nonzero"></path>
            <path d="M130.4,420.6 C125,431.4 121.1,442.5 120.4,454.3 C119.8,458.7 122.4,458.7 122.8,455.7 C130.4,426.6 171,434.4 169.6,461.9 C168.5,484.1 146.4,488.9 134.9,481.6 C130.4,478.9 130.6,480.5 133.1,483.3 C150.2,502.4 139.8,527 116.7,527.4 C91.7,525.9 85.2,499.6 100.5,484.1 C102.4,482.2 106.6,476.3 100.3,480.4 C84.8,491.4 63.3,479.6 63.7,462.6 C64.5,431.3 102.7,429 110.8,455.1 C111.6,458 113.8,459.5 113.2,454.5 C112.1,445.6 109.7,432.2 103,420.5 L130.4,420.5 L130.4,420.6 Z" id="Path" fill="#000000" fill-rule="nonzero"></path>
            <path d="M26.9,140.6 C29.1,136 31.3,131.8 32.5,126.8 C33.3,122.1 31.7,123.8 30.8,126.9 C29.4,131.2 25.7,133.1 22.2,133.2 C15.9,133.3 12.7,128.3 12.9,123 C12.2,117.4 17.9,113.4 22.2,113.7 C25.4,113.9 28.2,115.7 29.9,117 C31,117.6 32.2,117.9 30.5,116.3 C27.4,112.9 24.7,110.8 24.8,105.6 C24.9,100.8 29,95.7 34.4,95.9 C41.2,96.1 44.3,101.3 44.3,106.2 C44.3,109.7 42.5,113 39.8,115 C38,116.4 38.5,117.5 40.5,116.2 C42.4,114.5 44.7,113.8 47.1,113.8 C53.6,113.7 56.2,119.3 55.8,124.6 C55.4,129.5 51.3,134.6 45.8,134 C40.9,133.4 38.3,129.3 36.8,125.1 C36.3,123.8 35.5,123.5 35.6,125.4 C36.7,134.8 40.3,140.7 40.3,140.7 L26.9,140.7 L26.9,140.6 Z" id="Path" fill="#000000" fill-rule="nonzero"></path>
            <path d="M391.2,443.6 C389,448.2 386.8,452.4 385.6,457.4 C384.8,462.1 386.4,460.4 387.3,457.3 C388.6,453 392.4,451.1 395.9,451 C402.2,450.9 405.4,455.9 405.1,461.2 C405.8,466.8 400.1,470.8 395.8,470.5 C392.6,470.3 389.8,468.5 388.1,467.2 C387,466.6 385.8,466.4 387.5,467.9 C390.6,471.3 393.3,473.5 393.2,478.6 C393.1,483.4 389,488.4 383.6,488.3 C376.8,488.1 373.7,482.9 373.7,478 C373.7,474.5 375.5,471.2 378.2,469.2 C380,467.8 379.5,466.7 377.5,468 C375.6,469.7 373.3,470.4 370.9,470.5 C364.4,470.6 361.8,465 362.2,459.7 C362.5,454.8 366.7,449.7 372.2,450.3 C377.1,450.9 379.7,455 381.2,459.2 C381.7,460.5 382.5,460.9 382.5,458.9 C381.4,449.4 377.8,443.6 377.8,443.6 L391.2,443.6 L391.2,443.6 Z" id="Path" fill="#000000" fill-rule="nonzero"></path>
        </g>
    </g>
</svg>