<?xml version="1.0" encoding="UTF-8"?>
<svg width="421px" height="588px" viewBox="0 0 421 588" version="1.1" xmlns="http://www.w3.org/2000/svg" xmlns:xlink="http://www.w3.org/1999/xlink">
    <!-- Generator: Sketch 61.2 (89653) - https://sketch.com -->
    <title>5D</title>
    <desc>Created with Sketch.</desc>
    <g id="Page-1" stroke="none" stroke-width="1" fill="none" fill-rule="evenodd">
        <g id="5D">
            <path d="M20.4,0.5 L400.5,0.5 C411.6,0.5 420.5,9.4 420.5,20.5 L420.5,567.4 C420.5,578.5 411.6,587.4 400.5,587.4 L20.4,587.4 C9.3,587.4 0.399174659,578.5 0.399174659,567.4 L0.399174659,20.5 C0.3,9.4 9.3,0.5 20.4,0.5 L20.4,0.5 Z" id="Path" fill="#FFFFFF" fill-rule="nonzero"></path>
            <path d="M20.4,0.5 L400.5,0.5 C411.6,0.5 420.5,9.4 420.5,20.5 L420.5,567.4 C420.5,578.5 411.6,587.4 400.5,587.4 L20.4,587.4 C9.3,587.4 0.399174659,578.5 0.399174659,567.4 L0.399174659,20.5 C0.3,9.4 9.3,0.5 20.4,0.5 L20.4,0.5 Z" id="Path" stroke="#000000" stroke-width="0.7974"></path>
            <path d="M64.1,107.6 C82.8,89.4 95,69.5 106.8,50.4 C117.1,71.4 131.8,89.8 147.8,107.6 C130.7,125.2 117.5,144.1 106.8,163.9 C95,143.6 82.6,125.2 64.1,107.6 L64.1,107.6 Z" id="Path" fill="#D40000" fill-rule="nonzero"></path>
            <path d="M64.1,477.8 C82.8,459.6 95,439.7 106.8,420.6 C117.1,441.6 131.8,460 147.8,477.8 C130.7,495.4 117.5,514.3 106.8,534.1 C95,513.8 82.6,495.3 64.1,477.8 L64.1,477.8 Z" id="Path" fill="#D40000" fill-rule="nonzero"></path>
            <path d="M272.4,107.6 C291.1,89.4 303.3,69.5 315.1,50.4 C325.4,71.4 340.1,89.8 356.1,107.6 C339,125.2 325.8,144.1 315.1,163.9 C303.3,143.6 290.9,125.2 272.4,107.6 L272.4,107.6 Z" id="Path" fill="#D40000" fill-rule="nonzero"></path>
            <path d="M168.5,294.5 C187.2,276.3 199.4,256.4 211.2,237.3 C221.5,258.3 236.2,276.7 252.2,294.5 C235.1,312.1 221.9,331 211.2,350.8 C199.4,330.4 187,312 168.5,294.5 L168.5,294.5 Z" id="Path" fill="#D40000" fill-rule="nonzero"></path>
            <path d="M272.4,477.8 C291.1,459.6 303.3,439.7 315.1,420.6 C325.4,441.6 340.1,460 356.1,477.8 C339,495.4 325.8,514.3 315.1,534.1 C303.3,513.8 290.9,495.3 272.4,477.8 L272.4,477.8 Z" id="Path" fill="#D40000" fill-rule="nonzero"></path>
            <path d="M368.8,469.3 C376.4,461.8 381.5,453.7 386.3,445.9 C390.5,454.5 396.6,462 403.1,469.3 C396.1,476.5 390.7,484.3 386.3,492.4 C381.5,484 376.4,476.5 368.8,469.3 L368.8,469.3 Z" id="Path" fill="#D40000" fill-rule="nonzero"></path>
            <path d="M17.4,119.5 C25,112 30.1,103.9 34.9,96.1 C39.1,104.7 45.2,112.2 51.7,119.5 C44.7,126.7 39.3,134.4 34.9,142.6 C30.1,134.2 25,126.7 17.4,119.5 L17.4,119.5 Z" id="Path" fill="#D40000" fill-rule="nonzero"></path>
            <path d="M15.7,71.2 L21.8,71.1 C23,74.8 25.5,78.5 29,79.5 C38.8,81.8 45.1,76.3 47.2,70 C49.7,62.3 47.1,51.6 40.4,47.7 C34.8,44.5 26.5,47.2 22.7,54 L18.5,51.4 L20.8,26.1 L48.5,26.1 L48.5,32.1 L25.9,32.1 L25.5,42.6 C30.3,39.2 37.8,39.2 42.6,41.6 C51.8,46 56,55.9 54.2,67.6 C51.7,79.2 46.3,85.8 34,86.8 C20.5,87 15.7,77.6 15.7,71.2 L15.7,71.2 Z" id="Path" fill="#D40000" fill-rule="nonzero"></path>
            <path d="M405.1,516.8 L399,516.8 C397.9,513.1 395.3,509.4 391.8,508.4 C382,506.1 375.7,511.6 373.6,517.9 C371.1,525.6 373.7,536.3 380.4,540.2 C386,543.4 394.3,540.7 398.1,533.9 L402.3,536.5 L400,561.8 L372.3,561.8 L372.3,555.8 L394.8,555.8 L395.2,545.3 C390.4,548.7 382.9,548.7 378.1,546.3 C368.9,541.9 364.7,532 366.5,520.3 C369,508.7 374.4,502.1 386.7,501.1 C400.3,500.9 405.2,510.3 405.1,516.8 L405.1,516.8 Z" id="Path" fill="#D40000" fill-rule="nonzero"></path>
        </g>
    </g>
</svg>