<?xml version="1.0" encoding="UTF-8"?>
<svg width="418px" height="582px" viewBox="0 0 418 582" version="1.1" xmlns="http://www.w3.org/2000/svg" xmlns:xlink="http://www.w3.org/1999/xlink">
    <!-- Generator: Sketch 61.2 (89653) - https://sketch.com -->
    <title>5H</title>
    <desc>Created with Sketch.</desc>
    <g id="Page-1" stroke="none" stroke-width="1" fill="none" fill-rule="evenodd">
        <g id="5H" transform="translate(1.000000, 0.000000)">
            <path d="M20.1,0.9 L396.1,0.9 C407.1,0.9 415.9,9.7 415.9,20.7 L415.9,561.6 C415.9,572.6 407.1,581.4 396.1,581.4 L20.1,581.4 C9.1,581.4 0.3,572.6 0.3,561.6 L0.3,20.7 C0.3,9.7 9.2,0.9 20.1,0.9 L20.1,0.9 Z" id="Path" fill="#FFFFFF" fill-rule="nonzero"></path>
            <path d="M20.1,0.9 L396.1,0.9 C407.1,0.9 415.9,9.7 415.9,20.7 L415.9,561.6 C415.9,572.6 407.1,581.4 396.1,581.4 L20.1,581.4 C9.1,581.4 0.3,572.6 0.3,561.6 L0.3,20.7 C0.3,9.7 9.2,0.9 20.1,0.9 L20.1,0.9 Z" id="Path" stroke="#000000" stroke-width="0.7974"></path>
            <path d="M15.6,70.8 L21.6,70.7 C22.7,74.3 25.3,78 28.7,79 C38.4,81.3 44.7,75.9 46.7,69.6 C49.2,62 46.6,51.4 40,47.6 C34.5,44.5 26.2,47.1 22.5,53.8 L18.3,51.2 L20.6,26.2 L48,26.2 L48,32.1 L25.7,32.1 L25.4,42.5 C30.2,39.1 37.5,39.2 42.3,41.5 C51.4,45.8 55.6,55.6 53.8,67.2 C51.4,78.7 46,85.2 33.8,86.2 C20.3,86.5 15.5,77.2 15.6,70.8 L15.6,70.8 Z" id="Path" fill="#D40000" fill-rule="nonzero"></path>
            <path d="M400.7,511.5 L394.7,511.5 C393.6,507.9 391,504.2 387.6,503.2 C377.9,500.9 371.6,506.3 369.6,512.6 C367.1,520.2 369.7,530.8 376.3,534.6 C381.8,537.7 390.1,535.1 393.8,528.4 L398,531 L395.7,556 L368.3,556 L368.3,550.1 L390.5,550.1 L390.9,539.7 C386.1,543.1 378.8,543 374,540.7 C364.9,536.4 360.7,526.6 362.5,515 C364.9,503.5 370.3,497 382.5,496 C396,495.9 400.8,505.1 400.7,511.5 L400.7,511.5 Z" id="Path" fill="#D40000" fill-rule="nonzero"></path>
            <path d="M18.1,113.7 C15.1,107.2 14.8,96.2 23.6,94.7 C30.2,93.8 32.9,96.9 33.5,101.7 C33.8,103.1 34.5,103.2 34.8,101.6 C35.2,96.7 40,93.9 43.7,94.6 C54,96.4 53.4,107.7 50,115.4 C44.9,125.6 39.6,132 34.7,142.3 C29,131.6 22.6,122.9 18.1,113.7 L18.1,113.7 Z" id="Path" fill="#D40000" fill-rule="nonzero"></path>
            <path d="M82.4,52.9 C95.7,52 102.6,63.4 104,72.3 C104.8,73.7 105.2,73.3 105.6,72.2 C106.3,60.7 116.5,51.3 126.1,52.6 C141.6,52.8 151,70.1 148.4,84.7 C145.2,102.5 135.6,113.3 128.3,124.3 C120.1,135.8 109,152.3 105.4,160.3 C105.4,160.3 94.1,143.2 79.5,123 C69.7,109.5 61.9,94.9 61.1,82.3 C60.1,68 66,55.1 82.4,52.9 L82.4,52.9 Z" id="Path" fill="#D40000" fill-rule="nonzero"></path>
            <path d="M288.4,52.9 C301.7,52 308.6,63.4 310,72.3 C310.8,73.7 311.3,73.3 311.6,72.2 C312.2,60.7 322.5,51.3 332.1,52.6 C347.6,52.8 357,70.1 354.4,84.7 C351.2,102.5 341.6,113.3 334.3,124.3 C326.1,135.8 315,152.3 311.4,160.3 C311.4,160.3 300.1,143.2 285.5,123 C275.7,109.5 267.9,94.9 267.1,82.3 C266.2,68 272.1,55.1 288.4,52.9 L288.4,52.9 Z" id="Path" fill="#D40000" fill-rule="nonzero"></path>
            <path d="M185.7,237.7 C199,236.8 205.9,248.2 207.3,257.1 C208.1,258.5 208.6,258.1 208.9,257 C209.5,245.5 219.8,236.1 229.4,237.4 C244.9,237.6 254.3,254.9 251.7,269.5 C248.5,287.3 238.9,298.1 231.6,309.1 C223.4,320.6 212.3,337.1 208.7,345.1 C208.7,345.1 197.4,328 182.8,307.8 C173,294.3 165.2,279.7 164.4,267.2 C163.5,252.8 169.4,239.9 185.7,237.7 L185.7,237.7 Z" id="Path" fill="#D40000" fill-rule="nonzero"></path>
            <path d="M82.4,526 C95.7,526.9 102.6,515.5 104,506.6 C104.8,505.2 105.2,505.6 105.6,506.7 C106.3,518.2 116.5,527.6 126.1,526.3 C141.6,526.1 151,508.8 148.4,494.2 C145.2,476.4 135.6,465.6 128.3,454.6 C120.1,443.1 109,426.6 105.4,418.6 C105.4,418.6 94.1,435.7 79.5,455.9 C69.5,469.4 61.7,484 61,496.6 C60.1,510.9 66,523.8 82.4,526 L82.4,526 Z" id="Path" fill="#D40000" fill-rule="nonzero"></path>
            <path d="M288.4,526 C301.7,526.9 308.6,515.5 310,506.6 C310.8,505.2 311.3,505.6 311.6,506.7 C312.2,518.2 322.5,527.6 332.1,526.3 C347.6,526.1 357,508.8 354.4,494.2 C351.2,476.4 341.6,465.6 334.3,454.6 C326.1,443.1 315,426.6 311.4,418.6 C311.4,418.6 300.1,435.7 285.5,455.9 C275.7,469.4 267.9,484 267.1,496.6 C266.2,510.9 272.1,523.8 288.4,526 L288.4,526 Z" id="Path" fill="#D40000" fill-rule="nonzero"></path>
            <path d="M365.6,469 C362.7,475.5 362.3,486.5 371.1,488 C377.7,488.9 380.4,485.8 381,481 C381.3,479.6 382,479.5 382.3,481.1 C382.7,486 387.5,488.8 391.2,488.1 C401.5,486.3 400.9,475 397.5,467.3 C392.4,457.1 387.1,450.7 382.1,440.4 C376.6,451.2 370.2,459.9 365.6,469 L365.6,469 Z" id="Path" fill="#D40000" fill-rule="nonzero"></path>
        </g>
    </g>
</svg>