<?xml version="1.0" encoding="UTF-8"?>
<svg width="407px" height="568px" viewBox="0 0 407 568" version="1.1" xmlns="http://www.w3.org/2000/svg" xmlns:xlink="http://www.w3.org/1999/xlink">
    <!-- Generator: Sketch 61.2 (89653) - https://sketch.com -->
    <title>5S</title>
    <desc>Created with Sketch.</desc>
    <g id="Page-1" stroke="none" stroke-width="1" fill="none" fill-rule="evenodd">
        <g id="5S">
            <path d="M19.7,0.9 L386.6,0.9 C397.3,0.9 405.9,9.5 405.9,20.2 L405.9,548.1 C405.9,558.8 397.3,567.4 386.6,567.4 L19.7,567.4 C9,567.4 0.4,558.8 0.4,548.1 L0.4,20.3 C0.4,9.6 9,0.9 19.7,0.9 L19.7,0.9 Z" id="Path" fill="#FFFFFF" fill-rule="nonzero"></path>
            <path d="M19.7,0.9 L386.6,0.9 C397.3,0.9 405.9,9.5 405.9,20.2 L405.9,548.1 C405.9,558.8 397.3,567.4 386.6,567.4 L19.7,567.4 C9,567.4 0.4,558.8 0.4,548.1 L0.4,20.3 C0.4,9.6 9,0.9 19.7,0.9 L19.7,0.9 Z" id="Path" stroke="#000000" stroke-width="0.7974"></path>
            <path d="M15.2,69.1 L21,69 C22.1,72.5 24.6,76.1 27.9,77.1 C37.4,79.3 43.5,74 45.5,67.9 C47.9,60.5 45.4,50.1 38.9,46.4 C33.5,43.3 25.5,45.9 21.8,52.5 L17.7,50 L20,25.7 L46.8,25.7 L46.8,31.5 L25.1,31.5 L24.8,41.7 C29.5,38.4 36.6,38.5 41.3,40.8 C50.1,45 54.2,54.6 52.5,65.9 C50.1,77.1 44.9,83.5 33,84.4 C19.8,84.4 15.2,75.4 15.2,69.1 L15.2,69.1 Z" id="Path" fill="#000000" fill-rule="nonzero"></path>
            <path d="M391.1,499.2 L385.2,499.2 C384.1,495.7 381.6,492.1 378.3,491.1 C368.8,488.9 362.7,494.2 360.7,500.3 C358.3,507.7 360.8,518.1 367.3,521.8 C372.7,524.9 380.7,522.3 384.4,515.7 L388.5,518.2 L386.3,542.6 L359.5,542.6 L359.5,536.8 L381.2,536.8 L381.5,526.6 C376.8,529.9 369.7,529.8 365,527.5 C356.2,523.3 352.1,513.7 353.8,502.4 C356.2,491.2 361.4,484.8 373.3,483.9 C386.5,483.9 391.1,493 391.1,499.2 L391.1,499.2 Z" id="Path" fill="#000000" fill-rule="nonzero"></path>
            <path d="M98.4,124.7 C98.4,121 95.5,120.9 95.5,123.6 C95.3,137.1 83.8,143.7 75.6,142.2 C62.8,139.8 58.7,127.1 58.9,119.6 C59.3,96.5 82.5,79.5 103.5,50 C118.9,76.7 144.2,97.7 145.7,118.3 C147.7,145.7 113,156 108,124 C107.7,121.7 105,120.7 105.2,123.9 C106,132.7 104.9,136.3 114.8,157.9 L89,157.9 C94.6,147.7 98,135.4 98.4,124.7 L98.4,124.7 Z" id="Path" fill="#000000" fill-rule="nonzero"></path>
            <path d="M299.5,124.7 C299.5,121 296.6,120.9 296.7,123.6 C296.5,137.1 285,143.7 276.7,142.2 C263.9,139.8 259.8,127.1 260,119.6 C260.4,96.5 283.6,79.5 304.5,50 C319.8,76.7 345.2,97.7 346.7,118.3 C348.7,145.7 314,156 309,124 C308.7,121.7 306,120.7 306.2,123.9 C307,132.7 305.9,136.3 315.8,157.9 L290,157.9 C295.7,147.7 299.1,135.4 299.5,124.7 L299.5,124.7 Z" id="Path" fill="#000000" fill-rule="nonzero"></path>
            <path d="M199.1,305 C199.1,301.3 196.2,301.3 196.3,303.9 C196.1,317.4 184.6,324.1 176.4,322.5 C163.6,320.1 159.5,307.4 159.7,299.9 C160.1,276.8 183.3,259.8 204.2,230.3 C219.6,257 244.9,278 246.4,298.6 C248.4,326 213.7,336.3 208.7,304.3 C208.4,302 205.7,301 205.9,304.2 C206.6,313 205.6,316.6 215.5,338.2 L189.7,338.2 C195.3,328.1 198.8,315.7 199.1,305 L199.1,305 Z" id="Path" fill="#000000" fill-rule="nonzero"></path>
            <path d="M98.4,440.4 C98.4,444.1 95.5,444.1 95.6,441.5 C95.4,428 83.9,421.4 75.6,422.9 C62.8,425.3 58.7,438 58.9,445.5 C59.3,468.6 82.5,485.6 103.4,515.1 C118.8,488.4 144.1,467.5 145.6,446.8 C147.6,419.4 112.9,409.1 107.9,441.1 C107.6,443.4 104.9,444.4 105.1,441.2 C105.9,432.4 104.8,428.8 114.7,407.2 L88.9,407.2 C94.6,417.4 98,429.8 98.4,440.4 L98.4,440.4 Z" id="Path" fill="#000000" fill-rule="nonzero"></path>
            <path d="M299.5,440.4 C299.5,444.1 296.6,444.1 296.7,441.5 C296.5,428 285,421.4 276.7,422.9 C263.9,425.3 259.8,438 260,445.5 C260.4,468.6 283.6,485.6 304.5,515.1 C319.8,488.4 345.2,467.5 346.7,446.8 C348.7,419.4 314,409.1 309,441.1 C308.7,443.4 306,444.4 306.2,441.2 C307,432.4 305.9,428.8 315.8,407.2 L290,407.2 C295.7,417.4 299.1,429.8 299.5,440.4 L299.5,440.4 Z" id="Path" fill="#000000" fill-rule="nonzero"></path>
            <path d="M32.6,127.5 C32.6,125.9 31,126.7 30.8,127.2 C28.7,130.8 25.6,131.7 22.5,130.4 C19.5,129.1 17.8,126.3 18,122.2 C18.6,116 23.5,109.1 25.9,105.3 C28.2,101.8 30.7,97.6 33.3,92.3 C36.4,98.4 37.9,100.2 41.3,105.7 C44.3,110.6 48.4,115.4 48.7,121.4 C48.7,125.9 46.8,130.2 42.5,131 C40.1,131.4 37.8,130.2 36.1,127.3 C35.6,126.6 34.6,127 34.6,128 C34.9,131.8 36.3,135.2 39.7,139.3 L27.3,139.3 C29.9,136.2 32.5,132.3 32.6,127.5 L32.6,127.5 Z" id="Path" fill="#000000" fill-rule="nonzero"></path>
            <path d="M371.8,441.3 C371.8,442.9 370.2,442.1 370,441.6 C367.9,438 364.8,437.1 361.7,438.5 C358.7,439.8 357,442.6 357.2,446.7 C357.8,452.9 362.7,459.8 365.1,463.6 C367.4,467.1 369.9,471.3 372.5,476.6 C375.6,470.5 377.1,468.8 380.5,463.2 C383.5,458.3 387.6,453.5 387.9,447.5 C387.9,443 386,438.7 381.7,437.9 C379.3,437.5 377,438.7 375.3,441.6 C374.8,442.3 373.8,442 373.8,440.9 C374.1,437.1 375.5,433.7 378.9,429.6 L366.4,429.6 C369.1,432.7 371.7,436.5 371.8,441.3 L371.8,441.3 Z" id="Path" fill="#000000" fill-rule="nonzero"></path>
        </g>
    </g>
</svg>