<?xml version="1.0" encoding="UTF-8"?>
<svg width="430px" height="600px" viewBox="0 0 430 600" version="1.1" xmlns="http://www.w3.org/2000/svg" xmlns:xlink="http://www.w3.org/1999/xlink">
    <!-- Generator: Sketch 61.2 (89653) - https://sketch.com -->
    <title>6C</title>
    <desc>Created with Sketch.</desc>
    <g id="Page-1" stroke="none" stroke-width="1" fill="none" fill-rule="evenodd">
        <g id="6C">
            <path d="M21.3,0.6 L409,0.6 C420.3,0.6 429.4,9.7 429.4,21 L429.4,578.8 C429.4,590.1 420.3,599.2 409,599.2 L21.3,599.2 C10,599.2 0.9,590.1 0.9,578.8 L0.9,21 C0.9,9.7 10,0.6 21.3,0.6 L21.3,0.6 Z" id="Path" fill="#FFFFFF" fill-rule="nonzero"></path>
            <path d="M21.3,0.6 L409,0.6 C420.3,0.6 429.4,9.7 429.4,21 L429.4,578.8 C429.4,590.1 420.3,599.2 409,599.2 L21.3,599.2 C10,599.2 0.9,590.1 0.9,578.8 L0.9,21 C0.9,9.7 10,0.6 21.3,0.6 L21.3,0.6 Z" id="Path" stroke="#000000" stroke-width="0.7974"></path>
            <path d="M16.5,69.7 C15.7,64.4 15.7,50.8 16.4,46.8 C18.4,34.5 23.2,28.8 31.2,27 C39,25.1 50,27.1 52.4,37.4 L45.9,37.5 C42.4,30.5 33.4,32.4 28.4,35.4 C24.4,37.8 22.6,47.9 23.3,48.5 C23.3,48.5 30.9,43 36.9,43.4 C49.7,44.8 55,55.7 54.5,66 C54.1,78.4 50.1,88.3 36.5,88.9 C23.6,88.5 17.7,81.5 16.5,69.7 L16.5,69.7 Z M48.3,66.4 C48.4,57.8 44.4,51.4 36.9,50.7 C29.4,50 21.8,57.2 22.3,66 C22.8,74.8 26.3,82.2 35.4,82.1 C45.2,82 48.3,72.5 48.3,66.4 L48.3,66.4 Z" id="Shape" fill="#000000" fill-rule="nonzero"></path>
            <path d="M413.4,530 C414.2,535.3 414.2,548.9 413.5,552.9 C411.5,565.2 406.7,570.9 398.7,572.7 C390.9,574.5 379.9,572.5 377.5,562.2 L384,562.1 C387.5,569.1 396.5,567.2 401.5,564.2 C405.5,561.8 407.3,551.7 406.6,551.1 C406.6,551.1 399,556.6 393,556.2 C380.2,554.9 374.9,544 375.4,533.7 C375.8,521.3 379.8,511.4 393.4,510.8 C406.2,511.3 412.2,518.2 413.4,530 L413.4,530 Z M381.6,533.3 C381.5,541.9 385.5,548.3 393,549 C400.5,549.7 408.1,542.5 407.6,533.8 C407.1,525 403.6,517.6 394.5,517.6 C384.7,517.7 381.6,527.2 381.6,533.3 L381.6,533.3 Z" id="Shape" fill="#000000" fill-rule="nonzero"></path>
            <path d="M296.6,354.9 C302.1,343.8 306.1,332.4 306.9,320.3 C307.6,315.8 304.8,315.8 304.4,318.9 C296.6,348.8 254.9,340.7 256.4,312.6 C257.6,289.8 280.2,284.8 292.1,292.3 C296.8,295.1 296.5,293.4 294,290.5 C276.4,270.9 287.1,245.7 310.8,245.2 C336.5,246.7 343.1,273.7 327.4,289.6 C325.4,291.5 321.1,297.7 327.6,293.4 C343.5,282.1 365.6,294.3 365.1,311.7 C364.3,343.8 325.1,346.2 316.7,319.4 C315.9,316.4 313.6,314.9 314.2,320 C315.4,329.1 317.8,342.9 324.6,354.9 L296.6,354.9 L296.6,354.9 Z" id="Path" fill="#000000" fill-rule="nonzero"></path>
            <path d="M105.6,354.9 C111.1,343.8 115.1,332.4 115.9,320.3 C116.6,315.8 113.8,315.8 113.4,318.9 C105.6,348.8 63.9,340.7 65.4,312.6 C66.6,289.8 89.2,284.8 101.1,292.3 C105.8,295.1 105.5,293.4 103,290.5 C85.4,270.9 96.1,245.7 119.8,245.2 C145.5,246.7 152.1,273.7 136.4,289.6 C134.4,291.5 130.1,297.7 136.6,293.4 C152.5,282.1 174.6,294.3 174.1,311.7 C173.3,343.8 134.1,346.2 125.7,319.4 C124.9,316.4 122.6,314.9 123.2,320 C124.4,329.1 126.8,342.9 133.6,354.9 L105.6,354.9 L105.6,354.9 Z" id="Path" fill="#000000" fill-rule="nonzero"></path>
            <path d="M296.6,165.1 C302.1,154 306.1,142.6 306.9,130.5 C307.6,126 304.8,125.9 304.4,129.1 C296.6,159 254.9,150.9 256.4,122.8 C257.6,100 280.2,95.1 292.1,102.5 C296.8,105.2 296.5,103.6 294,100.7 C276.4,81.1 287.1,55.9 310.8,55.4 C336.5,56.9 343.1,84 327.4,99.8 C325.4,101.7 321.1,107.8 327.6,103.6 C343.5,92.3 365.6,104.4 365.1,121.9 C364.3,154 325.1,156.4 316.7,129.6 C315.9,126.6 313.6,125.1 314.2,130.2 C315.4,139.3 317.8,153.1 324.6,165.2 L296.6,165.2 L296.6,165.1 Z" id="Path" fill="#000000" fill-rule="nonzero"></path>
            <path d="M105.6,165.1 C111.1,154 115.1,142.6 115.9,130.5 C116.6,126 113.8,125.9 113.4,129.1 C105.6,159 63.9,150.9 65.4,122.8 C66.6,100 89.2,95.1 101.1,102.5 C105.8,105.2 105.5,103.6 103,100.7 C85.4,81.1 96.1,55.9 119.8,55.4 C145.5,56.9 152.1,84 136.4,99.8 C134.4,101.7 130.1,107.8 136.6,103.6 C152.5,92.3 174.6,104.4 174.1,121.9 C173.3,154 134.1,156.4 125.7,129.6 C124.9,126.6 122.6,125.1 123.2,130.2 C124.4,139.3 126.8,153.1 133.6,165.2 L105.6,165.2 L105.6,165.1 Z" id="Path" fill="#000000" fill-rule="nonzero"></path>
            <path d="M324.9,434.5 C319.4,445.6 315.3,457 314.6,469.1 C313.9,473.6 316.7,473.6 317.1,470.5 C324.9,440.6 366.6,448.7 365.1,476.8 C363.9,499.6 341.3,504.5 329.4,497.1 C324.7,494.3 325,496 327.5,498.8 C345.1,518.4 334.4,543.7 310.7,544.1 C285,542.6 278.4,515.6 294.1,499.7 C296.1,497.8 300.4,491.7 293.9,495.9 C278,507.2 255.9,495.1 256.4,477.6 C257.2,445.5 296.4,443.1 304.8,469.9 C305.6,472.9 307.9,474.4 307.3,469.3 C306.1,460.1 303.7,446.3 296.9,434.4 L324.9,434.4 L324.9,434.5 Z" id="Path" fill="#000000" fill-rule="nonzero"></path>
            <path d="M133.8,434.5 C128.3,445.6 124.2,457 123.5,469.1 C122.8,473.6 125.6,473.6 126,470.5 C133.8,440.6 175.5,448.7 174,476.8 C172.8,499.6 150.2,504.5 138.3,497.1 C133.6,494.3 133.9,496 136.4,498.8 C154,518.4 143.3,543.7 119.6,544.1 C93.9,542.6 87.2,515.6 103,499.7 C105,497.8 109.3,491.7 102.8,495.9 C86.9,507.2 64.8,495.1 65.3,477.6 C66.1,445.5 105.3,443.1 113.7,469.9 C114.5,472.9 116.8,474.4 116.2,469.3 C115,460.1 112.6,446.3 105.8,434.4 L133.8,434.4 L133.8,434.5 Z" id="Path" fill="#000000" fill-rule="nonzero"></path>
            <path d="M26.2,142.2 C28.5,137.5 30.7,133.1 31.9,128 C32.7,123.2 31.1,125 30.1,128.1 C28.7,132.5 24.9,134.5 21.3,134.6 C14.8,134.7 11.6,129.6 11.8,124.1 C11.1,118.3 16.9,114.3 21.3,114.6 C24.6,114.8 27.5,116.6 29.2,118 C30.3,118.6 31.6,118.9 29.9,117.3 C26.7,113.8 24,111.6 24.1,106.3 C24.2,101.3 28.4,96.2 34,96.3 C41,96.5 44.2,101.8 44.2,106.8 C44.2,110.4 42.4,113.8 39.6,115.8 C37.8,117.3 38.3,118.4 40.4,117 C42.4,115.3 44.8,114.5 47.2,114.5 C53.9,114.4 56.5,120.2 56.1,125.6 C55.7,130.6 51.5,135.8 45.8,135.2 C40.8,134.6 38.1,130.4 36.6,126 C36.1,124.7 35.3,124.3 35.3,126.3 C36.5,136 40.1,142 40.1,142 L26.2,142 L26.2,142.2 Z" id="Path" fill="#000000" fill-rule="nonzero"></path>
            <path d="M404.2,453.2 C401.9,457.9 399.7,462.3 398.5,467.4 C397.7,472.3 399.3,470.4 400.3,467.3 C401.7,462.9 405.5,460.9 409.1,460.8 C415.6,460.7 418.8,465.8 418.6,471.3 C419.3,477.1 413.5,481.1 409.1,480.8 C405.8,480.6 402.9,478.8 401.2,477.4 C400.1,476.8 398.8,476.5 400.5,478.1 C403.7,481.6 406.4,483.8 406.4,489.1 C406.3,494.1 402.1,499.2 396.5,499.1 C389.5,498.9 386.3,493.5 386.3,488.6 C386.3,485 388.1,481.6 390.9,479.6 C392.7,478.1 392.2,477 390.1,478.4 C388.1,480.1 385.7,480.9 383.3,480.9 C376.6,481 374,475.2 374.4,469.8 C374.8,464.8 379,459.6 384.7,460.2 C389.8,460.8 392.4,465 393.9,469.4 C394.4,470.7 395.2,471.1 395.2,469.1 C394,459.4 390.4,453.4 390.4,453.4 L404.2,453.4 L404.2,453.2 Z" id="Path" fill="#000000" fill-rule="nonzero"></path>
        </g>
    </g>
</svg>