<?xml version="1.0" encoding="UTF-8"?>
<svg width="424px" height="590px" viewBox="0 0 424 590" version="1.1" xmlns="http://www.w3.org/2000/svg" xmlns:xlink="http://www.w3.org/1999/xlink">
    <!-- Generator: Sketch 61.2 (89653) - https://sketch.com -->
    <title>6D</title>
    <desc>Created with Sketch.</desc>
    <g id="Page-1" stroke="none" stroke-width="1" fill="none" fill-rule="evenodd">
        <g id="6D" transform="translate(1.000000, 0.000000)">
            <path d="M20.4,0.7 L401.7,0.7 C412.8,0.7 421.8,9.7 421.8,20.8 L421.8,569.3 C421.8,580.4 412.8,589.4 401.7,589.4 L20.4,589.4 C9.3,589.4 0.3,580.4 0.3,569.3 L0.3,20.8 C0.3,9.7 9.3,0.7 20.4,0.7 L20.4,0.7 Z" id="Path" fill="#FFFFFF" fill-rule="nonzero"></path>
            <path d="M20.4,0.7 L401.7,0.7 C412.8,0.7 421.8,9.7 421.8,20.8 L421.8,569.3 C421.8,580.4 412.8,589.4 401.7,589.4 L20.4,589.4 C9.3,589.4 0.3,580.4 0.3,569.3 L0.3,20.8 C0.3,9.7 9.3,0.7 20.4,0.7 L20.4,0.7 Z" id="Path" stroke="#000000" stroke-width="0.7974"></path>
            <path d="M64.1,109 C82.8,90.7 95.1,70.8 106.9,51.6 C117.2,72.7 132,91.2 148,109 C130.9,126.7 117.6,145.6 106.9,165.5 C95.1,145.1 82.6,126.6 64.1,109 L64.1,109 Z" id="Path" fill="#D40000" fill-rule="nonzero"></path>
            <path d="M64.1,295.7 C82.8,277.4 95.1,257.5 106.9,238.3 C117.2,259.4 132,277.8 148,295.7 C130.9,313.4 117.6,332.3 106.9,352.2 C95.1,331.8 82.6,313.3 64.1,295.7 L64.1,295.7 Z" id="Path" fill="#D40000" fill-rule="nonzero"></path>
            <path d="M64.1,481.8 C82.8,463.5 95.1,443.6 106.9,424.4 C117.2,445.5 132,463.9 148,481.8 C130.9,499.5 117.6,518.4 106.9,538.3 C95.1,517.9 82.6,499.5 64.1,481.8 L64.1,481.8 Z" id="Path" fill="#D40000" fill-rule="nonzero"></path>
            <path d="M274.6,109 C293.3,90.7 305.6,70.8 317.4,51.6 C327.7,72.7 342.5,91.1 358.5,109 C341.4,126.7 328.1,145.6 317.4,165.5 C305.7,145.1 293.2,126.6 274.6,109 L274.6,109 Z" id="Path" fill="#D40000" fill-rule="nonzero"></path>
            <path d="M274.6,295.7 C293.3,277.4 305.6,257.5 317.4,238.3 C327.7,259.4 342.5,277.8 358.5,295.7 C341.4,313.4 328.1,332.3 317.4,352.2 C305.7,331.8 293.2,313.3 274.6,295.7 L274.6,295.7 Z" id="Path" fill="#D40000" fill-rule="nonzero"></path>
            <path d="M274.6,481.8 C293.3,463.5 305.6,443.6 317.4,424.4 C327.7,445.5 342.5,463.9 358.5,481.8 C341.4,499.5 328.1,518.4 317.4,538.3 C305.7,517.9 293.2,499.5 274.6,481.8 L274.6,481.8 Z" id="Path" fill="#D40000" fill-rule="nonzero"></path>
            <path d="M372.3,468.6 C380,461.1 385,452.9 389.8,445.1 C394,453.7 400.1,461.3 406.6,468.6 C399.6,475.8 394.1,483.6 389.8,491.7 C385,483.4 379.9,475.8 372.3,468.6 L372.3,468.6 Z" id="Path" fill="#D40000" fill-rule="nonzero"></path>
            <path d="M15.9,117.7 C23.6,110.2 28.6,102 33.4,94.2 C37.6,102.8 43.7,110.4 50.2,117.7 C43.2,124.9 37.7,132.7 33.4,140.8 C28.6,132.5 23.5,125 15.9,117.7 L15.9,117.7 Z" id="Path" fill="#D40000" fill-rule="nonzero"></path>
            <path d="M15.9,68.7 C15.1,63.5 15.1,50.1 15.8,46.2 C17.7,34.1 22.5,28.5 30.4,26.7 C38,24.9 48.8,26.8 51.2,37 L44.8,37.1 C41.3,30.2 32.5,32.1 27.6,35.1 C23.6,37.5 21.9,47.4 22.6,48 C22.6,48 30.1,42.6 36,43 C48.6,44.3 53.8,55 53.3,65.1 C52.9,77.3 49,87 35.6,87.6 C22.9,87.2 17.1,80.4 15.9,68.7 L15.9,68.7 Z M47.2,65.5 C47.3,57 43.3,50.7 35.9,50 C28.5,49.3 21.1,56.4 21.6,65 C22.1,73.6 25.5,80.9 34.5,80.9 C44.2,80.8 47.1,71.5 47.2,65.5 L47.2,65.5 Z" id="Shape" fill="#D40000" fill-rule="nonzero"></path>
            <path d="M406.2,521.4 C407,526.6 407,540 406.3,543.9 C404.4,556 399.6,561.6 391.7,563.4 C384,565.2 373.2,563.2 370.8,553.1 L377.2,553 C380.7,559.9 389.5,558 394.4,555 C398.4,552.6 400.1,542.7 399.4,542.1 C399.4,542.1 391.9,547.5 386,547.1 C373.4,545.8 368.2,535.1 368.7,525 C369.1,512.8 373,503.1 386.4,502.4 C399.2,503 405,509.8 406.2,521.4 L406.2,521.4 Z M374.9,524.7 C374.8,533.1 378.7,539.5 386.1,540.2 C393.5,540.9 401,533.8 400.4,525.2 C399.9,516.6 396.5,509.3 387.5,509.3 C378,509.3 375,518.7 374.9,524.7 L374.9,524.7 Z" id="Shape" fill="#D40000" fill-rule="nonzero"></path>
        </g>
    </g>
</svg>