<?xml version="1.0" encoding="UTF-8"?>
<svg width="421px" height="587px" viewBox="0 0 421 587" version="1.1" xmlns="http://www.w3.org/2000/svg" xmlns:xlink="http://www.w3.org/1999/xlink">
    <!-- Generator: Sketch 61.2 (89653) - https://sketch.com -->
    <title>6H</title>
    <desc>Created with Sketch.</desc>
    <g id="Page-1" stroke="none" stroke-width="1" fill="none" fill-rule="evenodd">
        <g id="6H" transform="translate(1.000000, 0.000000)">
            <path d="M20,0.9 L399,0.9 C410,0.9 418.9,9.8 418.9,20.8 L418.9,566 C418.9,577 410,585.9 399,585.9 L20,585.9 C9,585.9 0.1,577 0.1,566 L0.1,20.9 C0.1,9.8 9,0.9 20,0.9 L20,0.9 Z" id="Path" fill="#FFFFFF" fill-rule="nonzero"></path>
            <path d="M20,0.9 L399,0.9 C410,0.9 418.9,9.8 418.9,20.8 L418.9,566 C418.9,577 410,585.9 399,585.9 L20,585.9 C9,585.9 0.1,577 0.1,566 L0.1,20.9 C0.1,9.8 9,0.9 20,0.9 L20,0.9 Z" id="Path" stroke="#000000" stroke-width="0.7974"></path>
            <path d="M15.5,68.5 C14.7,63.3 14.7,50 15.4,46.1 C17.3,34 22,28.5 29.9,26.7 C37.5,25 48.3,26.9 50.6,37 L44.2,37.1 C40.8,30.3 32,32.1 27.1,35.1 C23.2,37.5 21.4,47.3 22.2,47.9 C22.2,47.9 29.6,42.5 35.5,42.9 C48,44.2 53.2,54.8 52.7,64.9 C52.3,77 48.4,86.7 35.1,87.3 C22.5,86.9 16.7,80.1 15.5,68.5 L15.5,68.5 Z M46.6,65.3 C46.7,56.9 42.8,50.6 35.4,49.9 C28.1,49.2 20.6,56.2 21.2,64.8 C21.7,73.4 25.1,80.6 34,80.6 C43.6,80.6 46.6,71.3 46.6,65.3 L46.6,65.3 Z" id="Shape" fill="#D40000" fill-rule="nonzero"></path>
            <path d="M403.5,518.5 C404.3,523.7 404.3,537 403.6,540.9 C401.7,553 397,558.5 389.1,560.3 C381.5,562.1 370.7,560.1 368.4,550 L374.8,549.9 C378.3,556.7 387,554.9 391.9,551.9 C395.8,549.5 397.6,539.7 396.8,539.1 C396.8,539.1 389.4,544.5 383.5,544.1 C371,542.8 365.8,532.2 366.3,522.1 C366.7,510 370.6,500.3 383.9,499.7 C396.5,500.1 402.3,506.9 403.5,518.5 L403.5,518.5 Z M372.4,521.7 C372.3,530.1 376.2,536.4 383.6,537.1 C390.9,537.8 398.4,530.8 397.8,522.2 C397.3,513.6 393.9,506.4 385,506.4 C375.4,506.4 372.4,515.7 372.4,521.7 L372.4,521.7 Z" id="Shape" fill="#D40000" fill-rule="nonzero"></path>
            <path d="M16.3,112.4 C13.3,105.9 13,94.8 21.9,93.3 C28.6,92.4 31.3,95.5 31.8,100.3 C32.1,101.7 32.9,101.8 33.1,100.2 C33.5,95.3 38.3,92.5 42.1,93.2 C52.5,95 51.9,106.4 48.5,114.1 C43.4,124.3 38,130.8 33,141.1 C27.4,130.4 20.8,121.6 16.3,112.4 L16.3,112.4 Z" id="Path" fill="#D40000" fill-rule="nonzero"></path>
            <path d="M82.5,54.2 C95.9,53.3 102.9,64.8 104.3,73.8 C105.1,75.2 105.6,74.8 105.9,73.7 C106.6,62.1 116.9,52.6 126.5,53.9 C142.1,54.1 151.6,71.5 148.9,86.2 C145.6,104.2 136,115 128.6,126.2 C120.3,137.7 109.1,154.4 105.5,162.4 C105.5,162.4 94.1,145.1 79.4,124.8 C69.5,111.2 61.6,96.5 60.9,83.8 C60.1,69.4 66.1,56.4 82.5,54.2 L82.5,54.2 Z" id="Path" fill="#D40000" fill-rule="nonzero"></path>
            <path d="M291.8,54.2 C305.2,53.3 312.2,64.8 313.6,73.8 C314.4,75.2 314.9,74.8 315.2,73.7 C315.9,62.1 326.2,52.6 335.8,53.9 C351.4,54.1 360.9,71.5 358.2,86.2 C354.9,104.2 345.3,115 337.9,126.2 C329.6,137.7 318.4,154.4 314.8,162.4 C314.8,162.4 303.4,145.1 288.7,124.8 C278.8,111.2 270.9,96.5 270.2,83.8 C269.4,69.4 275.3,56.4 291.8,54.2 L291.8,54.2 Z" id="Path" fill="#D40000" fill-rule="nonzero"></path>
            <path d="M291.8,239.7 C305.2,238.8 312.2,250.3 313.6,259.3 C314.4,260.7 314.9,260.3 315.2,259.2 C315.9,247.6 326.2,238.1 335.8,239.4 C351.4,239.6 360.9,257 358.2,271.7 C354.9,289.7 345.3,300.5 337.9,311.7 C329.6,323.2 318.4,339.9 314.8,347.9 C314.8,347.9 303.4,330.6 288.7,310.3 C278.8,296.7 270.9,282 270.2,269.3 C269.4,255 275.3,242 291.8,239.7 L291.8,239.7 Z" id="Path" fill="#D40000" fill-rule="nonzero"></path>
            <path d="M82.5,239.7 C95.9,238.8 102.9,250.3 104.3,259.3 C105.1,260.7 105.6,260.3 105.9,259.2 C106.6,247.6 116.9,238.1 126.5,239.4 C142.1,239.6 151.6,257 148.9,271.7 C145.6,289.7 136,300.5 128.6,311.7 C120.3,323.2 109.1,339.9 105.5,347.9 C105.5,347.9 94.1,330.6 79.4,310.3 C69.5,296.7 61.6,282 60.9,269.3 C60.1,255 66.1,242 82.5,239.7 L82.5,239.7 Z" id="Path" fill="#D40000" fill-rule="nonzero"></path>
            <path d="M82.5,532.6 C95.9,533.5 102.9,522 104.3,513 C105.1,511.6 105.6,512 105.9,513.1 C106.6,524.7 116.9,534.2 126.5,532.9 C142.1,532.7 151.6,515.3 148.9,500.6 C145.6,482.6 136,471.8 128.6,460.6 C120.3,449.1 109.1,432.4 105.5,424.4 C105.5,424.4 94.1,441.7 79.4,462 C69.5,475.6 61.6,490.3 60.9,503 C60.1,517.4 66.1,530.4 82.5,532.6 L82.5,532.6 Z" id="Path" fill="#D40000" fill-rule="nonzero"></path>
            <path d="M291.8,532.6 C305.2,533.5 312.2,522 313.6,513 C314.4,511.6 314.9,512 315.2,513.1 C315.9,524.7 326.2,534.2 335.8,532.9 C351.4,532.7 360.9,515.3 358.2,500.6 C354.9,482.6 345.3,471.8 337.9,460.6 C329.6,449.1 318.4,432.4 314.8,424.4 C314.8,424.4 303.4,441.7 288.7,462 C278.8,475.6 270.9,490.3 270.2,503 C269.4,517.4 275.3,530.4 291.8,532.6 L291.8,532.6 Z" id="Path" fill="#D40000" fill-rule="nonzero"></path>
            <path d="M370.6,470.5 C367.6,477 367.3,488.1 376.2,489.7 C382.9,490.6 385.6,487.5 386.1,482.7 C386.4,481.3 387.2,481.2 387.4,482.8 C387.8,487.7 392.6,490.6 396.4,489.8 C406.8,488 406.2,476.6 402.8,468.9 C397.7,458.6 392.3,452.1 387.3,441.8 C381.6,452.5 375.1,461.2 370.6,470.5 L370.6,470.5 Z" id="Path" fill="#D40000" fill-rule="nonzero"></path>
        </g>
    </g>
</svg>