<?xml version="1.0" encoding="UTF-8"?>
<svg width="421px" height="588px" viewBox="0 0 421 588" version="1.1" xmlns="http://www.w3.org/2000/svg" xmlns:xlink="http://www.w3.org/1999/xlink">
    <!-- Generator: Sketch 61.2 (89653) - https://sketch.com -->
    <title>6S</title>
    <desc>Created with Sketch.</desc>
    <g id="Page-1" stroke="none" stroke-width="1" fill="none" fill-rule="evenodd">
        <g id="6S">
            <path d="M20.5,0.9 L400.4,0.9 C411.5,0.9 420.4,9.8 420.4,20.9 L420.4,567.4 C420.4,578.5 411.5,587.4 400.4,587.4 L20.5,587.4 C9.4,587.4 0.5,578.5 0.5,567.4 L0.5,20.9 C0.5,9.9 9.4,0.9 20.5,0.9 L20.5,0.9 Z" id="Path" fill="#FFFFFF" fill-rule="nonzero"></path>
            <path d="M20.5,0.9 L400.4,0.9 C411.5,0.9 420.4,9.8 420.4,20.9 L420.4,567.4 C420.4,578.5 411.5,587.4 400.4,587.4 L20.5,587.4 C9.4,587.4 0.5,578.5 0.5,567.4 L0.5,20.9 C0.5,9.9 9.4,0.9 20.5,0.9 L20.5,0.9 Z" id="Path" stroke="#000000" stroke-width="0.7974"></path>
            <path d="M16,68.7 C15.2,63.5 15.2,50.2 15.9,46.2 C17.8,34.1 22.5,28.6 30.4,26.8 C38.1,25 48.8,27 51.2,37.1 L44.8,37.2 C41.3,30.4 32.6,32.2 27.7,35.2 C23.8,37.6 22,47.5 22.7,48.1 C22.7,48.1 30.1,42.7 36,43.1 C48.5,44.4 53.7,55.1 53.3,65.1 C52.9,77.2 49,86.9 35.7,87.6 C23,87.1 17.2,80.3 16,68.7 L16,68.7 Z M47.2,65.5 C47.2,57 43.3,50.7 36,50 C28.6,49.3 21.2,56.4 21.7,64.9 C22.2,73.5 25.6,80.8 34.5,80.7 C44.1,80.8 47.1,71.4 47.2,65.5 L47.2,65.5 Z" id="Shape" fill="#000000" fill-rule="nonzero"></path>
            <path d="M404.8,519.7 C405.6,524.9 405.6,538.2 404.9,542.2 C403,554.3 398.3,559.8 390.4,561.6 C382.8,563.4 372,561.4 369.6,551.3 L376,551.2 C379.5,558 388.2,556.2 393.1,553.2 C397,550.8 398.8,540.9 398.1,540.3 C398.1,540.3 390.7,545.7 384.8,545.3 C372.3,544 367.1,533.3 367.5,523.3 C367.9,511.2 371.8,501.5 385.1,500.8 C397.8,501.3 403.6,508.1 404.8,519.7 L404.8,519.7 Z M373.7,522.9 C373.6,531.3 377.5,537.6 384.9,538.3 C392.3,539 399.7,531.9 399.2,523.4 C398.7,514.8 395.3,507.5 386.4,507.6 C376.7,507.6 373.7,516.9 373.7,522.9 L373.7,522.9 Z" id="Shape" fill="#000000" fill-rule="nonzero"></path>
            <path d="M101.8,129.9 C101.8,126.1 98.8,126 98.8,128.8 C98.6,142.8 86.7,149.6 78.2,148 C65,145.5 60.7,132.3 60.9,124.6 C61.3,100.7 85.3,83.1 107,52.5 C122.9,80.1 149.1,101.8 150.7,123.2 C152.8,151.6 116.8,162.2 111.7,129.1 C111.4,126.8 108.6,125.7 108.8,129 C109.6,138.1 108.5,141.8 118.7,164.2 L92,164.2 C97.9,153.8 101.4,140.9 101.8,129.9 L101.8,129.9 Z" id="Path" fill="#000000" fill-rule="nonzero"></path>
            <path d="M311.6,129.9 C311.6,126.1 308.6,126 308.6,128.8 C308.4,142.8 296.5,149.6 288,148 C274.8,145.5 270.5,132.3 270.7,124.6 C271.1,100.7 295.1,83.1 316.8,52.5 C332.7,80.1 358.9,101.8 360.5,123.2 C362.6,151.6 326.6,162.2 321.5,129.1 C321.2,126.8 318.4,125.7 318.6,129 C319.4,138.1 318.3,141.8 328.5,164.2 L301.7,164.2 C307.6,153.8 311.1,140.9 311.6,129.9 L311.6,129.9 Z" id="Path" fill="#000000" fill-rule="nonzero"></path>
            <path d="M101.8,272.9 C101.8,276.7 98.8,276.8 98.9,274 C98.6,260 86.8,253.1 78.2,254.8 C65,257.3 60.7,270.5 60.9,278.2 C61.3,302.1 85.3,319.7 107,350.3 C122.9,322.7 149.1,301 150.7,279.6 C152.8,251.2 116.8,240.6 111.7,273.7 C111.4,276 108.6,277.1 108.8,273.8 C109.6,264.7 108.5,261 118.7,238.6 L92,238.6 C97.9,249 101.4,261.9 101.8,272.9 L101.8,272.9 Z" id="Path" fill="#000000" fill-rule="nonzero"></path>
            <path d="M311.6,272.9 C311.6,276.7 308.6,276.8 308.7,274 C308.4,260 296.6,253.1 288,254.8 C274.8,257.3 270.5,270.5 270.7,278.2 C271.1,302.1 295.1,319.7 316.8,350.3 C332.7,322.7 358.9,301 360.5,279.6 C362.6,251.2 326.6,240.6 321.5,273.7 C321.2,276 318.4,277.1 318.6,273.8 C319.4,264.7 318.3,261 328.5,238.6 L301.8,238.6 C307.6,249 311.2,261.9 311.6,272.9 L311.6,272.9 Z" id="Path" fill="#000000" fill-rule="nonzero"></path>
            <path d="M311.6,458.3 C311.6,462.1 308.6,462.2 308.7,459.4 C308.4,445.4 296.6,438.5 288,440.2 C274.8,442.7 270.5,455.9 270.7,463.6 C271.1,487.5 295.1,505.1 316.8,535.7 C332.7,508.1 358.9,486.4 360.5,465 C362.6,436.6 326.6,426 321.5,459.1 C321.2,461.4 318.4,462.5 318.6,459.2 C319.4,450.1 318.3,446.4 328.5,424 L301.8,424 C307.6,434.5 311.2,447.3 311.6,458.3 L311.6,458.3 Z" id="Path" fill="#000000" fill-rule="nonzero"></path>
            <path d="M101.8,458.3 C101.8,462.1 98.8,462.2 98.9,459.4 C98.6,445.4 86.8,438.5 78.2,440.2 C65,442.7 60.7,455.9 60.9,463.6 C61.3,487.5 85.3,505.1 107,535.7 C122.9,508.1 149.1,486.4 150.7,465 C152.8,436.6 116.8,426 111.7,459.1 C111.4,461.4 108.6,462.5 108.8,459.2 C109.6,450.1 108.5,446.4 118.7,424 L92,424 C97.9,434.5 101.4,447.3 101.8,458.3 L101.8,458.3 Z" id="Path" fill="#000000" fill-rule="nonzero"></path>
            <path d="M32.3,129.7 C32.3,128.1 30.6,128.8 30.4,129.3 C28.2,133 25,133.9 21.8,132.6 C18.7,131.3 16.9,128.3 17.2,124.1 C17.8,117.6 22.9,110.6 25.4,106.6 C27.8,103 30.3,98.7 33.1,93.1 C36.3,99.4 37.9,101.2 41.4,107 C44.5,112.1 48.7,117.1 49.1,123.2 C49.1,127.9 47.1,132.3 42.7,133.1 C40.2,133.6 37.9,132.3 36.1,129.3 C35.6,128.5 34.5,128.9 34.5,130 C34.8,133.9 36.3,137.5 39.8,141.7 L26.8,141.7 C29.5,138.6 32.2,134.6 32.3,129.7 L32.3,129.7 Z" id="Path" fill="#000000" fill-rule="nonzero"></path>
            <path d="M387.4,454.5 C387.4,456.1 385.7,455.4 385.5,454.9 C383.3,451.2 380.1,450.3 376.9,451.6 C373.8,452.9 372,455.9 372.3,460.1 C372.9,466.6 378,473.6 380.5,477.6 C382.9,481.2 385.4,485.5 388.2,491.1 C391.4,484.8 393,483 396.5,477.2 C399.6,472.1 403.8,467.1 404.2,461 C404.2,456.3 402.2,451.9 397.8,451.1 C395.3,450.6 393,451.9 391.2,454.9 C390.7,455.7 389.6,455.3 389.6,454.2 C389.9,450.3 391.4,446.7 394.9,442.5 L381.9,442.5 C384.6,445.6 387.3,449.6 387.4,454.5 L387.4,454.5 Z" id="Path" fill="#000000" fill-rule="nonzero"></path>
        </g>
    </g>
</svg>