<?xml version="1.0" encoding="UTF-8"?>
<svg width="408px" height="569px" viewBox="0 0 408 569" version="1.1" xmlns="http://www.w3.org/2000/svg" xmlns:xlink="http://www.w3.org/1999/xlink">
    <!-- Generator: Sketch 61.2 (89653) - https://sketch.com -->
    <title>7C</title>
    <desc>Created with Sketch.</desc>
    <g id="Page-1" stroke="none" stroke-width="1" fill="none" fill-rule="evenodd">
        <g id="7C">
            <path d="M20.2,0.4 L387.9,0.4 C398.6,0.4 407.3,9 407.3,19.8 L407.3,548.8 C407.3,559.5 398.7,568.2 387.9,568.2 L20.2,568.2 C9.5,568.2 0.8,559.6 0.8,548.8 L0.8,19.8 C0.8,9 9.5,0.4 20.2,0.4 L20.2,0.4 Z" id="Path" fill="#FFFFFF" fill-rule="nonzero"></path>
            <path d="M20.2,0.4 L387.9,0.4 C398.6,0.4 407.3,9 407.3,19.8 L407.3,548.8 C407.3,559.5 398.7,568.2 387.9,568.2 L20.2,568.2 C9.5,568.2 0.8,559.6 0.8,548.8 L0.8,19.8 C0.8,9 9.5,0.4 20.2,0.4 L20.2,0.4 Z" id="Path" stroke="#000000" stroke-width="0.792"></path>
            <path d="M22.8,85 C26.7,64.8 30.8,49.7 41.7,33.2 L19.6,33.2 L19.6,40.3 L13.7,40.3 L13.7,27 L46,27 L50,33.3 C38.5,45.6 27.9,85.6 29.8,85 L22.8,85 Z" id="Path" fill="#000000" fill-rule="nonzero"></path>
            <path d="M384.2,483.4 C380.3,503.6 376.2,518.7 365.3,535.2 L387.4,535.2 L387.4,528.1 L393.3,528.1 L393.3,541.5 L361,541.5 L357,535.2 C368.5,522.8 379.1,482.8 377.2,483.4 L384.2,483.4 Z" id="Path" fill="#000000" fill-rule="nonzero"></path>
            <path d="M283.3,159 C288.5,148.5 292.4,137.7 293,126.2 C293.6,122 291,121.9 290.7,124.9 C283.3,153.3 243.8,145.6 245.1,118.9 C246.2,97.2 267.7,92.6 278.9,99.7 C283.3,102.3 283.1,100.7 280.7,98 C264,79.4 274.1,55.5 296.6,55 C321,56.5 327.3,82.1 312.3,97.1 C310.4,98.9 306.3,104.7 312.5,100.7 C327.6,90 348.5,101.5 348.1,118 C347.3,148.5 310.2,150.7 302.2,125.3 C301.4,122.5 299.2,121.1 299.8,125.9 C300.9,134.6 303.2,147.7 309.7,159 L283.3,159 Z" id="Path" fill="#000000" fill-rule="nonzero"></path>
            <path d="M283.3,341.5 C288.5,331 292.4,320.2 293,308.7 C293.6,304.5 291,304.4 290.7,307.4 C283.3,335.8 243.8,328.1 245.1,301.4 C246.2,279.7 267.7,275.1 278.9,282.2 C283.3,284.8 283.1,283.2 280.7,280.5 C264,261.9 274.1,238 296.6,237.5 C321,238.9 327.3,264.6 312.3,279.6 C310.4,281.4 306.3,287.2 312.5,283.2 C327.6,272.5 348.5,284 348.1,300.5 C347.3,331 310.2,333.2 302.2,307.8 C301.4,305 299.2,303.6 299.8,308.3 C300.9,317 303.2,330.1 309.7,341.4 L283.3,341.4 L283.3,341.5 Z" id="Path" fill="#000000" fill-rule="nonzero"></path>
            <path d="M98.4,341.5 C103.6,331 107.5,320.2 108.1,308.7 C108.7,304.5 106.1,304.4 105.8,307.4 C98.4,335.8 58.9,328.1 60.2,301.4 C61.3,279.7 82.8,275.1 94,282.2 C98.4,284.8 98.2,283.2 95.8,280.5 C79.1,261.9 89.2,238 111.7,237.5 C136.1,238.9 142.4,264.6 127.4,279.6 C125.5,281.4 121.4,287.2 127.6,283.2 C142.7,272.5 163.6,284 163.2,300.5 C162.4,331 125.3,333.2 117.3,307.8 C116.5,305 114.3,303.6 114.9,308.3 C116,317 118.3,330.1 124.8,341.4 L98.4,341.4 L98.4,341.5 Z" id="Path" fill="#000000" fill-rule="nonzero"></path>
            <path d="M190.2,250.2 C195.4,239.7 199.3,228.9 199.9,217.4 C200.5,213.2 197.9,213.1 197.6,216.1 C190.2,244.5 150.7,236.8 152.1,210.1 C153.2,188.4 174.7,183.8 185.9,190.9 C190.3,193.5 190.1,191.9 187.7,189.2 C171,170.6 181.1,146.7 203.6,146.2 C228,147.6 234.3,173.3 219.3,188.3 C217.4,190.1 213.3,195.9 219.5,191.9 C234.6,181.2 255.5,192.7 255.1,209.2 C254.3,239.7 217.2,241.9 209.2,216.5 C208.4,213.7 206.2,212.3 206.8,217.1 C207.9,225.8 210.2,238.9 216.7,250.3 L190.2,250.3 L190.2,250.2 Z" id="Path" fill="#000000" fill-rule="nonzero"></path>
            <path d="M98.4,159 C103.6,148.5 107.5,137.7 108.1,126.2 C108.7,122 106.1,121.9 105.8,124.9 C98.4,153.3 58.9,145.6 60.2,118.9 C61.3,97.2 82.8,92.6 94,99.7 C98.4,102.3 98.2,100.7 95.8,98 C79.1,79.4 89.2,55.5 111.7,55 C136.1,56.5 142.4,82.1 127.4,97.1 C125.5,98.9 121.4,104.7 127.6,100.7 C142.7,90 163.6,101.5 163.2,118 C162.4,148.5 125.3,150.7 117.3,125.3 C116.5,122.5 114.3,121.1 114.9,125.9 C116,134.6 118.3,147.7 124.8,159 L98.4,159 Z" id="Path" fill="#000000" fill-rule="nonzero"></path>
            <path d="M310,417 C304.8,427.5 300.9,438.3 300.3,449.8 C299.7,454 302.3,454.1 302.6,451.1 C310,422.7 349.5,430.4 348.1,457.1 C347,478.8 325.5,483.4 314.3,476.3 C309.9,473.7 310.1,475.3 312.5,478 C329.2,496.6 319.1,520.5 296.6,521 C272.2,519.6 265.9,493.9 280.9,478.9 C282.8,477.1 286.9,471.3 280.7,475.3 C265.6,486 244.7,474.5 245.1,458 C245.9,427.5 283,425.2 291,450.7 C291.8,453.5 294,454.9 293.4,450.1 C292.3,441.4 290,428.3 283.5,417 L310,417 L310,417 Z" id="Path" fill="#000000" fill-rule="nonzero"></path>
            <path d="M125.2,417 C120,427.5 116.1,438.3 115.5,449.8 C114.9,454 117.5,454.1 117.8,451.1 C125.2,422.7 164.7,430.4 163.3,457.1 C162.2,478.8 140.7,483.4 129.5,476.3 C125.1,473.7 125.3,475.3 127.7,478 C144.4,496.6 134.3,520.5 111.8,521 C87.4,519.6 81.1,493.9 96.1,478.9 C98,477.1 102.1,471.3 95.9,475.3 C80.8,486 59.9,474.5 60.3,458 C61.1,427.5 98.2,425.2 106.2,450.7 C107,453.5 109.2,454.9 108.6,450.1 C107.5,441.4 105.2,428.3 98.7,417 L125.2,417 L125.2,417 Z" id="Path" fill="#000000" fill-rule="nonzero"></path>
            <path d="M24.8,139.4 C27,134.9 29.1,130.8 30.2,125.9 C31,121.3 29.4,123 28.5,126 C27.2,130.2 23.5,132.1 20.2,132.1 C14.1,132.2 11,127.4 11.2,122.2 C10.5,116.7 16.1,112.9 20.2,113.2 C23.3,113.4 26.1,115.1 27.7,116.4 C28.8,117 29.9,117.2 28.3,115.8 C25.2,112.5 22.7,110.4 22.8,105.4 C22.9,100.7 26.9,95.8 32.2,96 C38.8,96.2 41.9,101.3 41.9,106 C41.9,109.4 40.2,112.6 37.5,114.6 C35.8,116 36.3,117 38.2,115.7 C40.1,114.1 42.3,113.4 44.7,113.3 C51,113.2 53.5,118.7 53.2,123.8 C52.9,128.6 48.8,133.5 43.4,132.9 C38.6,132.3 36.1,128.3 34.7,124.2 C34.2,122.9 33.5,122.6 33.5,124.5 C34.6,133.7 38,139.4 38.1,139.4 L24.8,139.4 L24.8,139.4 Z" id="Path" fill="#000000" fill-rule="nonzero"></path>
            <path d="M383.3,434.4 C381.1,438.9 379,443 377.9,447.9 C377.1,452.5 378.7,450.8 379.6,447.8 C380.9,443.6 384.6,441.7 387.9,441.7 C394,441.6 397.1,446.4 396.9,451.6 C397.6,457.1 392,460.9 387.9,460.6 C384.8,460.4 382,458.7 380.4,457.4 C379.3,456.8 378.2,456.6 379.8,458.1 C382.8,461.4 385.4,463.5 385.3,468.5 C385.2,473.2 381.2,478.1 375.9,477.9 C369.3,477.7 366.2,472.6 366.2,467.9 C366.2,464.5 367.9,461.3 370.6,459.3 C372.3,457.9 371.8,456.9 369.9,458.2 C368,459.8 365.8,460.5 363.4,460.6 C357,460.7 354.6,455.2 354.9,450.1 C355.2,445.3 359.3,440.4 364.7,441 C369.5,441.5 372,445.6 373.4,449.7 C373.9,451 374.6,451.3 374.6,449.4 C373.5,440.2 370.1,434.5 370,434.5 L383.3,434.5 L383.3,434.4 Z" id="Path" fill="#000000" fill-rule="nonzero"></path>
        </g>
    </g>
</svg>