<?xml version="1.0" encoding="UTF-8"?>
<svg width="416px" height="581px" viewBox="0 0 416 581" version="1.1" xmlns="http://www.w3.org/2000/svg" xmlns:xlink="http://www.w3.org/1999/xlink">
    <!-- Generator: Sketch 61.2 (89653) - https://sketch.com -->
    <title>7D</title>
    <desc>Created with Sketch.</desc>
    <g id="Page-1" stroke="none" stroke-width="1" fill="none" fill-rule="evenodd">
        <g id="7D">
            <path d="M20.1,0.7 L395.2,0.7 C406.1,0.7 414.9,9.5 414.9,20.4 L414.9,560 C414.9,570.9 406.1,579.7 395.2,579.7 L20.1,579.7 C9.2,579.7 0.399165462,570.9 0.399165462,560 L0.399165462,20.5 C0.3,9.5 9.2,0.7 20.1,0.7 L20.1,0.7 Z" id="Path" fill="#FFFFFF" fill-rule="nonzero"></path>
            <path d="M20.1,0.7 L395.2,0.7 C406.1,0.7 414.9,9.5 414.9,20.4 L414.9,560 C414.9,570.9 406.1,579.7 395.2,579.7 L20.1,579.7 C9.2,579.7 0.399165462,570.9 0.399165462,560 L0.399165462,20.5 C0.3,9.5 9.2,0.7 20.1,0.7 L20.1,0.7 Z" id="Path" stroke="#000000" stroke-width="0.792"></path>
            <path d="M61.6,109.9 C80,91.9 92.1,72.3 103.7,53.5 C113.8,74.2 128.4,92.4 144.2,109.9 C127.4,127.3 114.3,145.9 103.8,165.5 C92.2,145.4 79.9,127.3 61.6,109.9 L61.6,109.9 Z" id="Path" fill="#D40000" fill-rule="nonzero"></path>
            <path d="M61.6,296.1 C80,278.1 92.1,258.5 103.7,239.7 C113.8,260.4 128.4,278.6 144.2,296.1 C127.4,313.5 114.3,332.1 103.8,351.7 C92.2,331.6 79.9,313.5 61.6,296.1 L61.6,296.1 Z" id="Path" fill="#D40000" fill-rule="nonzero"></path>
            <path d="M61.6,479.2 C80,461.2 92.1,441.6 103.7,422.8 C113.8,443.5 128.4,461.7 144.2,479.2 C127.4,496.6 114.3,515.2 103.8,534.8 C92.2,514.7 79.9,496.6 61.6,479.2 L61.6,479.2 Z" id="Path" fill="#D40000" fill-rule="nonzero"></path>
            <path d="M166.5,203 C184.9,185 197,165.4 208.6,146.6 C218.7,167.3 233.3,185.5 249.1,203 C232.3,220.4 219.2,239 208.7,258.6 C197,238.5 184.7,220.4 166.5,203 L166.5,203 Z" id="Path" fill="#D40000" fill-rule="nonzero"></path>
            <path d="M268.8,109.9 C287.2,91.9 299.3,72.3 310.9,53.5 C321,74.2 335.6,92.4 351.4,109.9 C334.5,127.3 321.5,145.9 311,165.5 C299.3,145.4 287,127.3 268.8,109.9 L268.8,109.9 Z" id="Path" fill="#D40000" fill-rule="nonzero"></path>
            <path d="M268.8,296.1 C287.2,278.1 299.3,258.5 310.9,239.7 C321,260.4 335.6,278.6 351.4,296.1 C334.5,313.5 321.5,332.1 311,351.7 C299.3,331.6 287,313.5 268.8,296.1 L268.8,296.1 Z" id="Path" fill="#D40000" fill-rule="nonzero"></path>
            <path d="M268.8,479.2 C287.2,461.2 299.3,441.6 310.9,422.8 C321,443.5 335.6,461.7 351.4,479.2 C334.5,496.6 321.5,515.2 311,534.8 C299.3,514.7 287,496.6 268.8,479.2 L268.8,479.2 Z" id="Path" fill="#D40000" fill-rule="nonzero"></path>
            <path d="M366.6,465.8 C374.2,458.4 379.1,450.4 383.8,442.7 C388,451.2 393.9,458.6 400.4,465.8 C393.5,472.9 388.1,480.6 383.8,488.6 C379.1,480.4 374.1,472.9 366.6,465.8 L366.6,465.8 Z" id="Path" fill="#D40000" fill-rule="nonzero"></path>
            <path d="M15.9,120.6 C23.4,113.2 28.4,105.2 33.1,97.5 C37.3,106 43.2,113.4 49.7,120.6 C42.8,127.7 37.4,135.3 33.2,143.4 C28.4,135.2 23.4,127.7 15.9,120.6 L15.9,120.6 Z" id="Path" fill="#D40000" fill-rule="nonzero"></path>
            <path d="M23.3,87.1 C27.3,66.5 31.5,51.1 42.6,34.3 L20,34.3 L20,41.5 L14,41.5 L14,27.9 L47,27.9 L51.1,34.3 C39.3,46.9 28.5,87.7 30.4,87.1 L23.3,87.1 Z" id="Path" fill="#D40000" fill-rule="nonzero"></path>
            <path d="M392,493.5 C388,514.1 383.8,529.6 372.7,546.3 L395.2,546.3 L395.2,539.1 L401.2,539.1 L401.2,552.7 L368.2,552.7 L364.1,546.3 C375.9,533.7 386.7,492.9 384.7,493.5 L392,493.5 Z" id="Path" fill="#D40000" fill-rule="nonzero"></path>
        </g>
    </g>
</svg>