<?xml version="1.0" encoding="UTF-8"?>
<svg width="422px" height="587px" viewBox="0 0 422 587" version="1.1" xmlns="http://www.w3.org/2000/svg" xmlns:xlink="http://www.w3.org/1999/xlink">
    <!-- Generator: Sketch 61.2 (89653) - https://sketch.com -->
    <title>7H</title>
    <desc>Created with Sketch.</desc>
    <g id="Page-1" stroke="none" stroke-width="1" fill="none" fill-rule="evenodd">
        <g id="7H" transform="translate(1.000000, 0.000000)">
            <path d="M20.3,0.5 L400,0.5 C411.1,0.5 420,9.4 420,20.5 L420,566.6 C420,577.7 411.1,586.6 400,586.6 L20.3,586.6 C9.2,586.6 0.3,577.7 0.3,566.6 L0.3,20.5 C0.3,9.4 9.3,0.5 20.3,0.5 L20.3,0.5 Z" id="Path" fill="#FFFFFF" fill-rule="nonzero"></path>
            <path d="M20.3,0.5 L400,0.5 C411.1,0.5 420,9.4 420,20.5 L420,566.6 C420,577.7 411.1,586.6 400,586.6 L20.3,586.6 C9.2,586.6 0.3,577.7 0.3,566.6 L0.3,20.5 C0.3,9.4 9.3,0.5 20.3,0.5 L20.3,0.5 Z" id="Path" stroke="#000000" stroke-width="0.792"></path>
            <path d="M23.5,87.9 C27.5,67.1 31.8,51.4 43,34.4 L20.2,34.4 L20.2,41.7 L14.1,41.7 L14.1,28 L47.5,28 L51.6,34.5 C39.7,47.3 28.8,88.6 30.7,88 L23.5,88 L23.5,87.9 Z" id="Path" fill="#D40000" fill-rule="nonzero"></path>
            <path d="M396.7,499.2 C392.7,520 388.4,535.7 377.2,552.7 L400,552.7 L400,545.4 L406.1,545.4 L406.1,559.2 L372.7,559.2 L368.6,552.7 C380.5,539.9 391.4,498.6 389.5,499.2 L396.7,499.2 Z" id="Path" fill="#D40000" fill-rule="nonzero"></path>
            <path d="M16.9,117 C13.9,110.5 13.6,99.3 22.5,97.8 C29.2,96.9 31.9,100.1 32.5,104.8 C32.8,106.2 33.6,106.3 33.8,104.7 C34.2,99.8 39,96.9 42.8,97.7 C53.2,99.5 52.6,110.9 49.2,118.7 C44.1,129 38.7,135.5 33.7,145.9 C28,135 21.5,126.2 16.9,117 L16.9,117 Z" id="Path" fill="#D40000" fill-rule="nonzero"></path>
            <path d="M81.5,56.6 C94.9,55.7 101.9,67.2 103.3,76.2 C104.1,77.6 104.6,77.2 104.9,76.1 C105.6,64.5 115.9,55 125.6,56.3 C141.2,56.5 150.8,73.9 148.1,88.7 C144.8,106.7 135.1,117.5 127.8,128.7 C119.5,140.3 108.3,157 104.7,165 C104.7,165 93.3,147.7 78.5,127.4 C68.6,113.8 60.7,99.1 60,86.4 C59.1,71.8 65,58.8 81.5,56.6 L81.5,56.6 Z" id="Path" fill="#D40000" fill-rule="nonzero"></path>
            <path d="M291.2,56.6 C304.6,55.7 311.6,67.2 313,76.2 C313.8,77.6 314.3,77.2 314.6,76.1 C315.3,64.5 325.6,55 335.3,56.3 C350.9,56.5 360.5,73.9 357.8,88.7 C354.5,106.7 344.8,117.5 337.5,128.7 C329.2,140.3 318,157 314.4,165 C314.4,165 303,147.7 288.2,127.4 C278.3,113.8 270.4,99.1 269.7,86.4 C268.7,71.8 274.7,58.8 291.2,56.6 L291.2,56.6 Z" id="Path" fill="#D40000" fill-rule="nonzero"></path>
            <path d="M187.6,150.8 C201,149.9 208,161.4 209.4,170.4 C210.2,171.8 210.7,171.4 211,170.3 C211.7,158.7 222,149.2 231.7,150.5 C247.4,150.7 256.9,168.1 254.2,182.9 C250.9,200.9 241.2,211.8 233.9,222.9 C225.6,234.5 214.4,251.2 210.8,259.2 C210.8,259.2 199.4,241.9 184.6,221.6 C174.7,208 166.8,193.2 166.1,180.6 C165.2,166 171.1,153 187.6,150.8 L187.6,150.8 Z" id="Path" fill="#D40000" fill-rule="nonzero"></path>
            <path d="M81.5,245 C94.9,244.1 101.9,255.6 103.3,264.6 C104.1,266 104.6,265.6 104.9,264.5 C105.6,252.9 115.9,243.4 125.6,244.7 C141.2,244.9 150.8,262.3 148.1,277.1 C144.8,295.1 135.1,306 127.8,317.1 C119.5,328.7 108.3,345.4 104.7,353.4 C104.7,353.4 93.3,336.1 78.5,315.8 C68.6,302.2 60.7,287.4 60,274.8 C59.1,260.2 65,247.2 81.5,245 L81.5,245 Z" id="Path" fill="#D40000" fill-rule="nonzero"></path>
            <path d="M291.2,245 C304.6,244.1 311.6,255.6 313,264.6 C313.8,266 314.3,265.6 314.6,264.5 C315.3,252.9 325.6,243.4 335.3,244.7 C350.9,244.9 360.5,262.3 357.8,277.1 C354.5,295.1 344.8,306 337.5,317.1 C329.2,328.7 318,345.4 314.4,353.4 C314.4,353.4 303,336.1 288.2,315.8 C278.3,302.2 270.4,287.4 269.7,274.8 C268.7,260.2 274.7,247.2 291.2,245 L291.2,245 Z" id="Path" fill="#D40000" fill-rule="nonzero"></path>
            <path d="M371.8,475.7 C368.8,482.2 368.5,493.4 377.4,494.9 C384.1,495.8 386.8,492.7 387.4,487.9 C387.7,486.5 388.5,486.4 388.7,488 C389.1,492.9 393.9,495.8 397.7,495 C408.1,493.2 407.5,481.8 404.1,474 C399,463.7 393.6,457.2 388.6,446.8 C382.9,457.7 376.4,466.5 371.8,475.7 L371.8,475.7 Z" id="Path" fill="#D40000" fill-rule="nonzero"></path>
            <path d="M291.2,538.4 C304.6,539.3 311.6,527.8 313,518.8 C313.8,517.4 314.3,517.8 314.6,518.9 C315.3,530.5 325.6,540 335.3,538.7 C350.9,538.5 360.5,521.1 357.8,506.3 C354.5,488.3 344.8,477.4 337.5,466.3 C329.2,454.7 318,438 314.4,430 C314.4,430 303,447.3 288.2,467.6 C278.3,481.2 270.4,496 269.7,508.6 C268.7,523.1 274.7,536.1 291.2,538.4 L291.2,538.4 Z" id="Path" fill="#D40000" fill-rule="nonzero"></path>
            <path d="M81.5,538.4 C94.9,539.3 101.9,527.8 103.3,518.8 C104.1,517.4 104.6,517.8 104.9,518.9 C105.6,530.5 115.9,540 125.6,538.7 C141.2,538.5 150.8,521.1 148.1,506.3 C144.8,488.3 135.1,477.4 127.8,466.3 C119.5,454.7 108.3,438 104.7,430 C104.7,430 93.3,447.3 78.5,467.6 C68.6,481.2 60.7,496 60,508.6 C59.1,523.1 65,536.1 81.5,538.4 L81.5,538.4 Z" id="Path" fill="#D40000" fill-rule="nonzero"></path>
        </g>
    </g>
</svg>