<?xml version="1.0" encoding="UTF-8"?>
<svg width="418px" height="583px" viewBox="0 0 418 583" version="1.1" xmlns="http://www.w3.org/2000/svg" xmlns:xlink="http://www.w3.org/1999/xlink">
    <!-- Generator: Sketch 61.2 (89653) - https://sketch.com -->
    <title>7S</title>
    <desc>Created with Sketch.</desc>
    <g id="Page-1" stroke="none" stroke-width="1" fill="none" fill-rule="evenodd">
        <g id="7S">
            <path d="M20.2,0.5 L397.1,0.5 C408.1,0.5 416.9,9.3 416.9,20.3 L416.9,562.5 C416.9,573.5 408.1,582.3 397.1,582.3 L20.2,582.3 C9.2,582.3 0.39916548,573.5 0.39916548,562.5 L0.39916548,20.4 C0.3,9.4 9.2,0.5 20.2,0.5 L20.2,0.5 Z" id="Path" fill="#FFFFFF" fill-rule="nonzero"></path>
            <path d="M20.2,0.5 L397.1,0.5 C408.1,0.5 416.9,9.3 416.9,20.3 L416.9,562.5 C416.9,573.5 408.1,582.3 397.1,582.3 L20.2,582.3 C9.2,582.3 0.39916548,573.5 0.39916548,562.5 L0.39916548,20.4 C0.3,9.4 9.2,0.5 20.2,0.5 L20.2,0.5 Z" id="Path" stroke="#000000" stroke-width="0.792"></path>
            <path d="M23.4,87.3 C27.4,66.6 31.6,51.1 42.8,34.2 L20.1,34.2 L20.1,41.5 L14.1,41.5 L14.1,27.8 L47.2,27.8 L51.3,34.2 C39.5,46.9 28.6,87.9 30.5,87.3 L23.4,87.3 Z" id="Path" fill="#000000" fill-rule="nonzero"></path>
            <path d="M393.9,495.6 C389.9,516.3 385.7,531.8 374.5,548.7 L397.1,548.7 L397.1,541.4 L403.1,541.4 L403.1,555.1 L370,555.1 L365.9,548.7 C377.7,536 388.6,495 386.7,495.6 L393.9,495.6 L393.9,495.6 Z" id="Path" fill="#000000" fill-rule="nonzero"></path>
            <path d="M99.4,131.2 C99.4,127.4 96.4,127.4 96.5,130.1 C96.2,144 84.5,150.8 76,149.2 C62.9,146.7 58.7,133.7 58.8,126 C59.2,102.3 83,84.8 104.6,54.5 C120.4,81.9 146.4,103.4 147.9,124.6 C150,152.8 114.3,163.3 109.2,130.5 C108.9,128.2 106.1,127.1 106.4,130.4 C107.2,139.4 106.1,143.1 116.2,165.3 L89.7,165.3 C95.5,154.8 99,142.1 99.4,131.2 L99.4,131.2 Z" id="Path" fill="#000000" fill-rule="nonzero"></path>
            <path d="M307.6,131.2 C307.6,127.4 304.6,127.4 304.7,130.1 C304.5,144 292.7,150.8 284.2,149.2 C271.1,146.7 266.9,133.7 267,126 C267.4,102.3 291.2,84.8 312.8,54.5 C328.6,81.9 354.6,103.4 356.1,124.6 C358.2,152.8 322.5,163.3 317.4,130.5 C317.1,128.2 314.3,127.1 314.6,130.4 C315.4,139.4 314.3,143.1 324.4,165.3 L297.9,165.3 C303.7,154.8 307.2,142.1 307.6,131.2 L307.6,131.2 Z" id="Path" fill="#000000" fill-rule="nonzero"></path>
            <path d="M204.7,224.7 C204.7,220.9 201.7,220.8 201.8,223.6 C201.6,237.5 189.8,244.3 181.3,242.7 C168.2,240.2 164,227.2 164.1,219.5 C164.5,195.8 188.3,178.3 209.9,148 C225.7,175.4 251.7,197 253.2,218.1 C255.3,246.3 219.6,256.8 214.5,223.9 C214.2,221.6 211.4,220.5 211.7,223.8 C212.5,232.8 211.4,236.5 221.5,258.7 L195,258.7 C200.8,248.4 204.4,235.6 204.7,224.7 L204.7,224.7 Z" id="Path" fill="#000000" fill-rule="nonzero"></path>
            <path d="M307.6,318.2 C307.6,314.4 304.6,314.4 304.7,317.1 C304.5,331 292.7,337.8 284.2,336.2 C271.1,333.7 266.9,320.7 267,313 C267.4,289.3 291.2,271.8 312.8,241.5 C328.6,268.9 354.6,290.4 356.1,311.6 C358.2,339.8 322.5,350.3 317.4,317.5 C317.1,315.2 314.3,314.1 314.6,317.4 C315.4,326.4 314.3,330.1 324.4,352.3 L297.9,352.3 C303.7,341.9 307.2,329.2 307.6,318.2 L307.6,318.2 Z" id="Path" fill="#000000" fill-rule="nonzero"></path>
            <path d="M99.4,318.2 C99.4,314.4 96.4,314.4 96.5,317.1 C96.2,331 84.5,337.8 76,336.2 C62.9,333.7 58.7,320.7 58.8,313 C59.2,289.3 83,271.8 104.6,241.5 C120.4,268.9 146.4,290.4 147.9,311.6 C150,339.8 114.3,350.3 109.2,317.5 C108.9,315.2 106.1,314.1 106.4,317.4 C107.2,326.4 106.1,330.1 116.2,352.3 L89.7,352.3 C95.5,341.9 99,329.2 99.4,318.2 L99.4,318.2 Z" id="Path" fill="#000000" fill-rule="nonzero"></path>
            <path d="M307.6,459.6 C307.6,463.4 304.6,463.5 304.7,460.7 C304.4,446.8 292.7,440 284.2,441.6 C271.1,444.1 266.9,457.1 267,464.8 C267.4,488.5 291.2,506 312.8,536.3 C328.6,508.9 354.6,487.3 356.1,466.2 C358.1,438 322.5,427.5 317.4,460.3 C317.1,462.6 314.3,463.7 314.5,460.4 C315.3,451.4 314.2,447.7 324.3,425.5 L297.8,425.5 C303.7,435.9 307.2,448.6 307.6,459.6 L307.6,459.6 Z" id="Path" fill="#000000" fill-rule="nonzero"></path>
            <path d="M99.5,459.6 C99.5,463.4 96.5,463.5 96.6,460.7 C96.3,446.8 84.6,440 76.1,441.6 C63,444.1 58.8,457.1 58.9,464.8 C59.3,488.5 83.1,506 104.7,536.3 C120.5,508.9 146.5,487.3 148,466.2 C150,438 114.4,427.5 109.3,460.3 C109,462.6 106.2,463.7 106.5,460.4 C107.3,451.4 106.2,447.7 116.3,425.5 L89.8,425.5 C95.6,435.9 99.1,448.6 99.5,459.6 L99.5,459.6 Z" id="Path" fill="#000000" fill-rule="nonzero"></path>
            <path d="M32.2,133.1 C32.2,131.5 30.5,132.2 30.3,132.7 C28.1,136.4 25,137.3 21.8,135.9 C18.7,134.6 16.9,131.6 17.2,127.5 C17.8,121.1 22.9,114.1 25.3,110.1 C27.6,106.5 30.2,102.2 32.9,96.8 C36.1,103.1 37.7,104.9 41.1,110.6 C44.1,115.6 48.4,120.6 48.7,126.7 C48.7,131.3 46.8,135.7 42.4,136.5 C39.9,136.9 37.6,135.7 35.9,132.7 C35.4,131.9 34.3,132.3 34.3,133.4 C34.6,137.3 36.1,140.8 39.6,145 L26.8,145 C29.4,142 32.1,138 32.2,133.1 L32.2,133.1 Z" id="Path" fill="#000000" fill-rule="nonzero"></path>
            <path d="M384.6,455.4 C384.6,457 382.9,456.3 382.7,455.8 C380.5,452.1 377.4,451.2 374.2,452.6 C371.1,453.9 369.3,456.9 369.6,461 C370.2,467.4 375.3,474.4 377.7,478.4 C380,482 382.6,486.3 385.3,491.7 C388.5,485.4 390.1,483.6 393.5,477.9 C396.5,472.9 400.8,467.9 401.1,461.8 C401.1,457.2 399.1,452.8 394.8,452 C392.3,451.5 390,452.8 388.3,455.8 C387.8,456.6 386.7,456.2 386.7,455.1 C387,451.2 388.5,447.7 392,443.5 L379.2,443.5 C381.8,446.5 384.4,450.5 384.6,455.4 L384.6,455.4 Z" id="Path" fill="#000000" fill-rule="nonzero"></path>
        </g>
    </g>
</svg>