<?xml version="1.0" encoding="UTF-8"?>
<svg width="410px" height="571px" viewBox="0 0 410 571" version="1.1" xmlns="http://www.w3.org/2000/svg" xmlns:xlink="http://www.w3.org/1999/xlink">
    <!-- Generator: Sketch 61.2 (89653) - https://sketch.com -->
    <title>8C</title>
    <desc>Created with Sketch.</desc>
    <g id="Page-1" stroke="none" stroke-width="1" fill="none" fill-rule="evenodd">
        <g id="8C" transform="translate(1.000000, 0.000000)">
            <path d="M19.5,0.4 L389,0.4 C399.8,0.4 408.4,9.1 408.4,19.8 L408.4,551.2 C408.4,562 399.7,570.6 389,570.6 L19.5,570.6 C8.7,570.6 0.1,561.9 0.1,551.2 L0.1,19.9 C0.1,9.1 8.8,0.4 19.5,0.4 L19.5,0.4 Z" id="Path" fill="#FFFFFF" fill-rule="nonzero"></path>
            <path d="M19.5,0.4 L389,0.4 C399.8,0.4 408.4,9.1 408.4,19.8 L408.4,551.2 C408.4,562 399.7,570.6 389,570.6 L19.5,570.6 C8.7,570.6 0.1,561.9 0.1,551.2 L0.1,19.9 C0.1,9.1 8.8,0.4 19.5,0.4 L19.5,0.4 Z" id="Path" stroke="#000000" stroke-width="0.7974"></path>
            <path d="M11.2,69.1 C11.5,61.1 14.4,58.1 20.2,53.9 C15.6,50.6 13.6,45.8 14,41.7 C15,31.7 22.8,26.8 31.4,27 C39.9,27.2 47.3,33.9 47.9,41.1 C48.4,47.4 46.5,50.4 41.9,53.7 C47.3,58.2 50.8,61.1 50.6,69 C50.5,76.9 43.6,86.3 31.7,86.5 C19.9,86.8 10.9,77.1 11.2,69.1 L11.2,69.1 Z M44.5,69.1 C45,61.8 38.5,57 31.1,56.9 C23.9,56.8 17.5,62.8 17.5,69.3 C17.5,76.3 25.8,80.1 31.2,80.1 C37.8,80.2 44,75.4 44.5,69.1 L44.5,69.1 Z M42.1,43.2 C42.2,37.1 36.5,32.7 30.6,32.9 C25.4,33 19.8,37 19.8,42.1 C19.8,48.5 26.1,51.7 31.5,51.8 C36.4,51.9 42,47.8 42.1,43.2 L42.1,43.2 Z" id="Shape" fill="#000000" fill-rule="nonzero"></path>
            <path d="M394.5,502.1 C394.2,510.1 391.3,513.1 385.5,517.3 C390.1,520.6 392.1,525.4 391.7,529.5 C390.8,539.5 382.9,544.5 374.4,544.2 C365.8,544 358.5,537.3 357.9,530.1 C357.4,523.8 359.3,520.8 363.9,517.5 C358.5,513 355,510.1 355.2,502.2 C355.3,494.3 362.2,484.9 374.1,484.6 C385.8,484.3 394.8,494.1 394.5,502.1 L394.5,502.1 Z M361.3,502 C360.8,509.3 367.3,514.1 374.7,514.2 C381.9,514.3 388.3,508.3 388.3,501.8 C388.3,494.8 380,491 374.6,491 C367.9,491 361.7,495.8 361.3,502 L361.3,502 Z M363.6,528 C363.5,534.1 369.2,538.5 375.1,538.3 C380.4,538.2 385.9,534.2 385.9,529.1 C385.9,522.7 379.6,519.5 374.2,519.4 C369.3,519.3 363.7,523.3 363.6,528 L363.6,528 Z" id="Shape" fill="#000000" fill-rule="nonzero"></path>
            <path d="M285.5,155.8 C290.8,145.2 294.6,134.4 295.3,122.8 C295.9,118.5 293.3,118.5 292.9,121.5 C285.4,150 245.8,142.3 247.1,115.5 C248.2,93.7 269.8,89.1 281.1,96.2 C285.6,98.8 285.3,97.3 282.9,94.5 C266.2,75.8 276.3,51.8 298.9,51.3 C323.4,52.7 329.7,78.5 314.7,93.6 C312.8,95.4 308.7,101.3 314.9,97.2 C330.1,86.4 351.1,98 350.7,114.6 C349.9,145.2 312.6,147.5 304.6,121.9 C303.8,119.1 301.6,117.6 302.2,122.5 C303.3,131.2 305.6,144.4 312.1,155.8 L285.5,155.8 Z" id="Path" fill="#000000" fill-rule="nonzero"></path>
            <path d="M285.5,339.2 C290.8,328.6 294.6,317.8 295.3,306.2 C295.9,301.9 293.3,301.9 292.9,304.9 C285.4,333.4 245.8,325.7 247.1,298.9 C248.2,277.1 269.8,272.5 281.1,279.6 C285.6,282.2 285.3,280.7 282.9,277.9 C266.2,259.2 276.3,235.2 298.9,234.7 C323.4,236.2 329.7,261.9 314.7,277 C312.8,278.8 308.7,284.7 314.9,280.6 C330.1,269.8 351.1,281.4 350.7,298 C349.9,328.6 312.6,330.9 304.6,305.3 C303.8,302.5 301.6,301 302.2,305.9 C303.3,314.6 305.6,327.8 312.1,339.2 L285.5,339.2 L285.5,339.2 Z" id="Path" fill="#000000" fill-rule="nonzero"></path>
            <path d="M96.1,339.2 C101.4,328.6 105.2,317.8 105.9,306.2 C106.5,301.9 103.9,301.9 103.6,304.9 C96.1,333.4 56.5,325.7 57.8,298.9 C58.9,277.1 80.5,272.5 91.8,279.6 C96.2,282.2 96,280.7 93.6,277.9 C76.9,259.2 87,235.2 109.6,234.7 C134.1,236.2 140.4,261.9 125.4,277 C123.5,278.8 119.4,284.7 125.6,280.6 C140.8,269.8 161.8,281.4 161.4,298 C160.6,328.6 123.3,330.9 115.3,305.3 C114.5,302.5 112.3,301 112.9,305.9 C114,314.6 116.3,327.8 122.9,339.2 L96.1,339.2 L96.1,339.2 Z" id="Path" fill="#000000" fill-rule="nonzero"></path>
            <path d="M187.9,247.5 C193.2,236.9 197,226.1 197.7,214.5 C198.3,210.2 195.7,210.2 195.3,213.2 C187.8,241.7 148.2,234 149.5,207.2 C150.6,185.4 172.2,180.8 183.5,187.9 C188,190.5 187.7,188.9 185.3,186.2 C168.6,167.5 178.7,143.5 201.3,143 C225.8,144.4 232.1,170.2 217.1,185.3 C215.2,187.1 211.1,193 217.3,188.9 C232.5,178.1 253.5,189.7 253.1,206.3 C252.3,236.9 215,239.2 207,213.6 C206.2,210.8 204,209.3 204.6,214.2 C205.7,222.9 208,236.1 214.5,247.5 L187.9,247.5 Z" id="Path" fill="#000000" fill-rule="nonzero"></path>
            <path d="M96.1,155.8 C101.4,145.2 105.2,134.4 105.9,122.8 C106.5,118.5 103.9,118.5 103.6,121.5 C96.1,150 56.5,142.3 57.8,115.5 C58.9,93.7 80.5,89.1 91.8,96.2 C96.2,98.8 96,97.3 93.6,94.5 C76.9,75.8 87,51.8 109.6,51.3 C134.1,52.7 140.4,78.5 125.4,93.6 C123.5,95.4 119.4,101.3 125.6,97.2 C140.8,86.4 161.8,98 161.4,114.6 C160.6,145.2 123.3,147.5 115.3,121.9 C114.5,119.1 112.3,117.6 112.9,122.5 C114,131.2 116.3,144.4 122.9,155.8 L96.1,155.8 Z" id="Path" fill="#000000" fill-rule="nonzero"></path>
            <path d="M312.4,415 C307.1,425.6 303.3,436.4 302.6,448 C302,452.3 304.6,452.3 305,449.3 C312.5,420.8 352.1,428.5 350.8,455.3 C349.7,477.1 328.1,481.7 316.8,474.6 C312.4,472 312.6,473.6 315,476.3 C331.7,495 321.6,519 299,519.5 C274.5,518 268.2,492.3 283.2,477.2 C285.1,475.4 289.2,469.5 283,473.6 C267.8,484.4 246.8,472.8 247.2,456.2 C248,425.6 285.3,423.3 293.3,448.9 C294.1,451.7 296.3,453.2 295.7,448.3 C294.6,439.6 292.3,426.4 285.8,415 L312.4,415 L312.4,415 Z" id="Path" fill="#000000" fill-rule="nonzero"></path>
            <path d="M214.8,324.8 C209.5,335.4 205.7,346.2 205,357.8 C204.4,362.1 207,362.1 207.4,359.1 C214.9,330.6 254.5,338.3 253.2,365.1 C252.1,386.9 230.5,391.5 219.2,384.4 C214.8,381.8 215,383.3 217.4,386.1 C234.1,404.8 224,428.8 201.4,429.3 C176.9,427.9 170.6,402.1 185.6,387 C187.5,385.2 191.6,379.3 185.4,383.4 C170.2,394.2 149.2,382.6 149.6,366 C150.4,335.4 187.7,333.1 195.7,358.7 C196.5,361.5 198.7,363 198.1,358.1 C197,349.4 194.7,336.2 188.2,324.8 L214.8,324.8 L214.8,324.8 Z" id="Path" fill="#000000" fill-rule="nonzero"></path>
            <path d="M123,415 C117.7,425.6 113.9,436.4 113.2,448 C112.6,452.3 115.2,452.3 115.6,449.3 C123,420.8 162.7,428.5 161.4,455.3 C160.3,477.1 138.7,481.7 127.4,474.6 C122.9,472 123.2,473.6 125.6,476.3 C142.3,495 132.2,519 109.6,519.5 C85.1,518 78.8,492.3 93.8,477.2 C95.7,475.4 99.8,469.5 93.6,473.6 C78.4,484.4 57.4,472.8 57.8,456.2 C58.6,425.6 95.9,423.3 103.9,448.9 C104.7,451.7 106.9,453.2 106.3,448.3 C105.2,439.6 102.9,426.4 96.4,415 L123,415 L123,415 Z" id="Path" fill="#000000" fill-rule="nonzero"></path>
            <path d="M24.7,141.9 C26.9,137.4 29,133.3 30.2,128.4 C31,123.8 29.4,125.5 28.5,128.5 C27.2,132.7 23.5,134.6 20.1,134.7 C13.9,134.8 10.9,129.9 11,124.7 C10.3,119.2 15.9,115.3 20.1,115.6 C23.3,115.8 26,117.5 27.7,118.9 C28.8,119.5 30,119.7 28.3,118.2 C25.2,114.9 22.7,112.8 22.7,107.8 C22.8,103.1 26.8,98.2 32.1,98.3 C38.8,98.5 41.8,103.6 41.8,108.3 C41.8,111.7 40,114.9 37.4,116.9 C35.7,118.3 36.2,119.3 38.1,118 C40,116.4 42.2,115.6 44.6,115.6 C51,115.5 53.5,121 53.1,126.1 C52.8,130.9 48.7,135.8 43.3,135.3 C38.5,134.8 36,130.7 34.5,126.6 C34,125.3 33.3,125 33.3,126.9 C34.4,136.2 37.9,141.9 37.9,141.9 L24.7,141.9 Z" id="Path" fill="#000000" fill-rule="nonzero"></path>
            <path d="M383.8,436.5 C381.6,441 379.5,445.1 378.3,450 C377.5,454.6 379.1,452.9 380,449.9 C381.3,445.7 385,443.8 388.4,443.7 C394.6,443.6 397.6,448.5 397.4,453.7 C398.1,459.2 392.5,463.1 388.3,462.8 C385.1,462.6 382.4,460.9 380.7,459.5 C379.6,458.9 378.4,458.7 380.1,460.2 C383.2,463.6 385.7,465.6 385.7,470.6 C385.6,475.3 381.6,480.2 376.3,480.1 C369.6,479.9 366.6,474.8 366.6,470.1 C366.6,466.7 368.3,463.5 371,461.5 C372.7,460.1 372.2,459.1 370.3,460.4 C368.4,462 366.2,462.8 363.8,462.8 C357.4,462.9 354.9,457.4 355.3,452.3 C355.6,447.5 359.7,442.6 365.1,443.1 C369.9,443.6 372.4,447.7 373.9,451.8 C374.4,453.1 375.1,453.4 375.1,451.5 C374,442.2 370.5,436.5 370.5,436.5 L383.8,436.5 L383.8,436.5 Z" id="Path" fill="#000000" fill-rule="nonzero"></path>
        </g>
    </g>
</svg>