<?xml version="1.0" encoding="UTF-8"?>
<svg width="416px" height="579px" viewBox="0 0 416 579" version="1.1" xmlns="http://www.w3.org/2000/svg" xmlns:xlink="http://www.w3.org/1999/xlink">
    <!-- Generator: Sketch 61.2 (89653) - https://sketch.com -->
    <title>8D</title>
    <desc>Created with Sketch.</desc>
    <g id="Page-1" stroke="none" stroke-width="1" fill="none" fill-rule="evenodd">
        <g id="8D" transform="translate(1.000000, 0.000000)">
            <path d="M20,0.9 L394.2,0.9 C405.1,0.9 413.9,9.7 413.9,20.6 L413.9,558.9 C413.9,569.8 405.1,578.6 394.2,578.6 L20,578.6 C9.1,578.6 0.3,569.8 0.3,558.9 L0.3,20.6 C0.3,9.7 9.1,0.9 20,0.9 L20,0.9 Z" id="Path" fill="#FFFFFF" fill-rule="nonzero"></path>
            <path d="M20,0.9 L394.2,0.9 C405.1,0.9 413.9,9.7 413.9,20.6 L413.9,558.9 C413.9,569.8 405.1,578.6 394.2,578.6 L20,578.6 C9.1,578.6 0.3,569.8 0.3,558.9 L0.3,20.6 C0.3,9.7 9.1,0.9 20,0.9 L20,0.9 Z" id="Path" stroke="#000000" stroke-width="0.7974"></path>
            <path d="M60.3,105.8 C78.7,87.9 90.8,68.3 102.3,49.5 C112.4,70.2 126.9,88.3 142.7,105.8 C125.9,123.2 112.9,141.7 102.4,161.2 C90.8,141.3 78.6,123.2 60.3,105.8 L60.3,105.8 Z" id="Path" fill="#D40000" fill-rule="nonzero"></path>
            <path d="M60.3,291.6 C78.7,273.7 90.8,254.1 102.3,235.3 C112.4,256 126.9,274.1 142.7,291.6 C125.9,309 112.9,327.5 102.4,347 C90.8,327 78.6,308.9 60.3,291.6 L60.3,291.6 Z" id="Path" fill="#D40000" fill-rule="nonzero"></path>
            <path d="M60.3,474.2 C78.7,456.3 90.8,436.7 102.3,417.9 C112.4,438.6 126.9,456.7 142.7,474.2 C125.9,491.6 112.9,510.1 102.4,529.6 C90.8,509.7 78.6,491.6 60.3,474.2 L60.3,474.2 Z" id="Path" fill="#D40000" fill-rule="nonzero"></path>
            <path d="M164.4,198.7 C182.8,180.8 194.9,161.2 206.4,142.4 C216.5,163.1 231.1,181.2 246.8,198.7 C230,216.1 217,234.6 206.5,254.1 C194.9,234.1 182.6,216 164.4,198.7 L164.4,198.7 Z" id="Path" fill="#D40000" fill-rule="nonzero"></path>
            <path d="M267,105.8 C285.4,87.9 297.5,68.3 309,49.5 C319.1,70.2 333.7,88.3 349.4,105.8 C332.6,123.2 319.6,141.7 309.1,161.2 C297.4,141.3 285.2,123.2 267,105.8 L267,105.8 Z" id="Path" fill="#D40000" fill-rule="nonzero"></path>
            <path d="M267,291.6 C285.4,273.7 297.5,254.1 309,235.3 C319.1,256 333.7,274.1 349.4,291.6 C332.6,309 319.6,327.5 309.1,347 C297.4,327 285.2,308.9 267,291.6 L267,291.6 Z" id="Path" fill="#D40000" fill-rule="nonzero"></path>
            <path d="M267,474.2 C285.4,456.3 297.5,436.7 309,417.9 C319.1,438.6 333.7,456.7 349.4,474.2 C332.6,491.6 319.6,510.1 309.1,529.6 C297.4,509.7 285.2,491.6 267,474.2 L267,474.2 Z" id="Path" fill="#D40000" fill-rule="nonzero"></path>
            <path d="M164.4,382.9 C182.8,365 194.9,345.4 206.4,326.6 C216.5,347.3 231.1,365.4 246.8,382.9 C230,400.3 217,418.8 206.5,438.3 C194.9,418.3 182.6,400.2 164.4,382.9 L164.4,382.9 Z" id="Path" fill="#D40000" fill-rule="nonzero"></path>
            <path d="M367.1,466.7 C374.6,459.4 379.6,451.3 384.3,443.6 C388.4,452.1 394.4,459.5 400.8,466.7 C393.9,473.8 388.6,481.4 384.3,489.4 C379.6,481.2 374.6,473.7 367.1,466.7 L367.1,466.7 Z" id="Path" fill="#D40000" fill-rule="nonzero"></path>
            <path d="M17.3,122.3 C24.8,115 29.8,106.9 34.5,99.2 C38.7,107.7 44.6,115.1 51,122.3 C44.1,129.4 38.8,137 34.5,145 C29.8,136.8 24.8,129.4 17.3,122.3 L17.3,122.3 Z" id="Path" fill="#D40000" fill-rule="nonzero"></path>
            <path d="M13,70.5 C13.3,62.4 16.3,59.3 22.2,55.1 C17.5,51.8 15.5,46.9 15.9,42.7 C16.9,32.6 24.8,27.6 33.5,27.8 C42.2,28 49.6,34.8 50.2,42.1 C50.7,48.5 48.8,51.6 44.2,54.9 C49.7,59.4 53.2,62.4 53,70.4 C52.9,78.4 46,87.9 33.9,88.2 C21.8,88.5 12.7,78.6 13,70.5 L13,70.5 Z M46.7,70.5 C47.2,63.2 40.6,58.2 33.1,58.1 C25.8,58 19.3,64.1 19.3,70.7 C19.3,77.8 27.8,81.6 33.2,81.6 C39.9,81.7 46.2,76.9 46.7,70.5 L46.7,70.5 Z M44.3,44.3 C44.4,38.1 38.6,33.7 32.6,33.9 C27.3,34.1 21.6,38.1 21.6,43.2 C21.6,49.7 28,52.9 33.5,53 C38.5,53.1 44.2,48.9 44.3,44.3 L44.3,44.3 Z" id="Shape" fill="#D40000" fill-rule="nonzero"></path>
            <path d="M401.2,509.1 C400.9,517.2 397.9,520.3 392,524.5 C396.7,527.8 398.7,532.7 398.3,536.9 C397.3,547 389.4,552 380.7,551.8 C372,551.6 364.6,544.8 364,537.5 C363.5,531.1 365.4,528 370,524.7 C364.5,520.2 361,517.2 361.2,509.2 C361.3,501.2 368.3,491.7 380.3,491.4 C392.4,491.1 401.5,501 401.2,509.1 L401.2,509.1 Z M367.6,509 C367.1,516.3 373.7,521.3 381.1,521.4 C388.4,521.5 394.9,515.4 394.9,508.8 C394.9,501.7 386.4,497.9 381,497.8 C374.3,497.8 368,502.7 367.6,509 L367.6,509 Z M370,535.3 C369.9,541.5 375.7,545.9 381.7,545.7 C387,545.5 392.7,541.6 392.7,536.4 C392.7,529.9 386.3,526.7 380.8,526.6 C375.7,526.5 370.1,530.6 370,535.3 L370,535.3 Z" id="Shape" fill="#D40000" fill-rule="nonzero"></path>
        </g>
    </g>
</svg>