<?xml version="1.0" encoding="UTF-8"?>
<svg width="410px" height="572px" viewBox="0 0 410 572" version="1.1" xmlns="http://www.w3.org/2000/svg" xmlns:xlink="http://www.w3.org/1999/xlink">
    <!-- Generator: Sketch 61.2 (89653) - https://sketch.com -->
    <title>8H</title>
    <desc>Created with Sketch.</desc>
    <g id="Page-1" stroke="none" stroke-width="1" fill="none" fill-rule="evenodd">
        <g id="8H">
            <path d="M20,0.9 L389.5,0.9 C400.3,0.9 408.9,9.6 408.9,20.3 L408.9,552 C408.9,562.8 400.2,571.4 389.5,571.4 L20,571.4 C9.2,571.4 0.599146494,562.7 0.599146494,552 L0.599146494,20.4 C0.5,9.6 9.2,0.9 20,0.9 L20,0.9 Z" id="Path" fill="#FFFFFF" fill-rule="nonzero"></path>
            <path d="M20,0.9 L389.5,0.9 C400.3,0.9 408.9,9.6 408.9,20.3 L408.9,552 C408.9,562.8 400.2,571.4 389.5,571.4 L20,571.4 C9.2,571.4 0.599146494,562.7 0.599146494,552 L0.599146494,20.4 C0.5,9.6 9.2,0.9 20,0.9 L20,0.9 Z" id="Path" stroke="#000000" stroke-width="0.7974"></path>
            <path d="M13,69.7 C13.3,61.7 16.2,58.7 22,54.5 C17.4,51.2 15.4,46.4 15.8,42.3 C16.8,32.3 24.6,27.4 33.2,27.6 C41.7,27.8 49.1,34.5 49.7,41.7 C50.2,48 48.3,51 43.7,54.3 C49.1,58.8 52.6,61.7 52.4,69.6 C52.3,77.5 45.4,86.9 33.5,87.2 C21.7,87.4 12.7,77.7 13,69.7 L13,69.7 Z M46.3,69.7 C46.8,62.4 40.3,57.6 32.9,57.5 C25.7,57.4 19.3,63.4 19.3,70 C19.3,77 27.7,80.8 33,80.8 C39.6,80.7 45.8,75.9 46.3,69.7 L46.3,69.7 Z M43.9,43.7 C44,37.6 38.3,33.2 32.4,33.4 C27.1,33.6 21.6,37.5 21.6,42.6 C21.6,49 27.9,52.2 33.3,52.3 C38.2,52.4 43.8,48.4 43.9,43.7 L43.9,43.7 Z" id="Shape" fill="#D40000" fill-rule="nonzero"></path>
            <path d="M396.4,502.7 C396.1,510.7 393.2,513.7 387.4,517.9 C392,521.2 394,526 393.6,530.1 C392.7,540.1 384.8,545.1 376.3,544.8 C367.7,544.6 360.4,537.9 359.8,530.7 C359.3,524.4 361.2,521.4 365.8,518.1 C360.4,513.6 356.9,510.7 357.1,502.8 C357.2,494.9 364.1,485.5 376,485.2 C387.7,485 396.7,494.7 396.4,502.7 L396.4,502.7 Z M363.1,502.7 C362.6,510 369.1,514.8 376.5,514.9 C383.7,515 390.1,509 390.1,502.5 C390.1,495.5 381.8,491.7 376.4,491.7 C369.8,491.6 363.6,496.4 363.1,502.7 L363.1,502.7 Z M365.5,528.6 C365.4,534.7 371.1,539.1 377,538.9 C382.3,538.8 387.8,534.8 387.8,529.7 C387.8,523.3 381.5,520.1 376.1,520 C371.2,519.9 365.6,524 365.5,528.6 L365.5,528.6 Z" id="Shape" fill="#D40000" fill-rule="nonzero"></path>
            <path d="M18,116 C15.1,109.6 14.8,98.8 23.4,97.3 C29.9,96.5 32.6,99.5 33.1,104.1 C33.4,105.5 34.1,105.5 34.4,104 C34.8,99.2 39.5,96.4 43.2,97.1 C53.3,98.8 52.7,110 49.4,117.5 C44.4,127.5 39.2,133.8 34.3,143.9 C28.8,133.6 22.5,125.1 18,116 L18,116 Z" id="Path" fill="#D40000" fill-rule="nonzero"></path>
            <path d="M82,51.5 C95.1,50.6 101.9,61.8 103.2,70.6 C104,72 104.4,71.6 104.7,70.5 C105.3,59.2 115.4,50 124.8,51.2 C140,51.4 149.3,68.4 146.7,82.7 C143.5,100.2 134.1,110.8 126.9,121.7 C118.8,133 107.9,149.2 104.4,157 C104.4,157 93.3,140.2 78.9,120.4 C69.3,107.2 61.6,92.8 60.9,80.5 C60.2,66.4 66,53.7 82,51.5 L82,51.5 Z" id="Path" fill="#D40000" fill-rule="nonzero"></path>
            <path d="M282.4,51.5 C295.5,50.6 302.3,61.8 303.6,70.6 C304.4,72 304.8,71.6 305.1,70.5 C305.7,59.2 315.8,50 325.2,51.2 C340.4,51.4 349.7,68.4 347.1,82.7 C343.9,100.2 334.5,110.8 327.3,121.7 C319.2,133 308.3,149.2 304.8,157 C304.8,157 293.7,140.2 279.3,120.4 C269.7,107.2 262,92.8 261.3,80.5 C260.6,66.4 266.4,53.7 282.4,51.5 L282.4,51.5 Z" id="Path" fill="#D40000" fill-rule="nonzero"></path>
            <path d="M181.2,143.2 C194.3,142.3 201.1,153.5 202.4,162.3 C203.2,163.7 203.6,163.3 203.9,162.2 C204.5,150.9 214.7,141.7 224,142.9 C239.2,143.1 248.5,160.1 245.9,174.4 C242.7,191.9 233.3,202.5 226.1,213.4 C218,224.7 207.1,240.9 203.6,248.7 C203.6,248.7 192.5,231.9 178.1,212.1 C168.5,198.9 160.8,184.5 160,172.2 C159.3,158.1 165.1,145.4 181.2,143.2 L181.2,143.2 Z" id="Path" fill="#D40000" fill-rule="nonzero"></path>
            <path d="M82,234.9 C95.1,234 101.9,245.2 103.2,254 C104,255.4 104.4,255 104.7,253.9 C105.3,242.6 115.4,233.4 124.8,234.6 C140,234.8 149.3,251.8 146.7,266.1 C143.5,283.6 134.1,294.2 126.9,305.1 C118.8,316.4 107.9,332.6 104.4,340.4 C104.4,340.4 93.3,323.6 78.9,303.8 C69.3,290.6 61.6,276.2 60.9,263.9 C60.2,249.8 66,237.1 82,234.9 L82,234.9 Z" id="Path" fill="#D40000" fill-rule="nonzero"></path>
            <path d="M282.4,234.9 C295.5,234 302.3,245.2 303.6,254 C304.4,255.4 304.8,255 305.1,253.9 C305.7,242.6 315.8,233.4 325.2,234.6 C340.4,234.8 349.7,251.8 347.1,266.1 C343.9,283.6 334.5,294.2 327.3,305.1 C319.2,316.4 308.3,332.6 304.8,340.4 C304.8,340.4 293.7,323.6 279.3,303.8 C269.7,290.6 262,276.2 261.3,263.9 C260.6,249.8 266.4,237.1 282.4,234.9 L282.4,234.9 Z" id="Path" fill="#D40000" fill-rule="nonzero"></path>
            <path d="M282.4,520.5 C295.5,521.4 302.3,510.2 303.6,501.4 C304.4,500 304.8,500.4 305.1,501.5 C305.7,512.8 315.8,522 325.2,520.8 C340.4,520.6 349.7,503.6 347.1,489.3 C343.9,471.8 334.5,461.2 327.3,450.3 C319.2,439 308.3,422.8 304.8,415 C304.8,415 293.7,431.8 279.3,451.6 C269.7,464.8 262,479.2 261.3,491.5 C260.6,505.6 266.4,518.3 282.4,520.5 L282.4,520.5 Z" id="Path" fill="#D40000" fill-rule="nonzero"></path>
            <path d="M181.2,430.3 C194.3,431.2 201.1,420 202.4,411.2 C203.2,409.8 203.6,410.2 203.9,411.3 C204.5,422.6 214.7,431.8 224,430.6 C239.2,430.4 248.5,413.4 245.9,399.1 C242.7,381.6 233.3,371 226.1,360.1 C218,348.8 207.1,332.6 203.6,324.8 C203.6,324.8 192.5,341.6 178.1,361.4 C168.5,374.6 160.8,389 160,401.3 C159.3,415.5 165.1,428.1 181.2,430.3 L181.2,430.3 Z" id="Path" fill="#D40000" fill-rule="nonzero"></path>
            <path d="M82,520.5 C95.1,521.4 101.9,510.2 103.2,501.4 C104,500 104.4,500.4 104.7,501.5 C105.3,512.8 115.4,522 124.8,520.8 C140,520.6 149.3,503.6 146.7,489.3 C143.5,471.8 134.1,461.2 126.9,450.3 C118.8,439 107.9,422.8 104.4,415 C104.4,415 93.3,431.8 78.9,451.6 C69.3,464.8 61.6,479.2 60.9,491.5 C60.2,505.6 66,518.3 82,520.5 L82,520.5 Z" id="Path" fill="#D40000" fill-rule="nonzero"></path>
            <path d="M363.5,465.2 C360.6,471.5 360.3,482.4 368.9,483.9 C375.4,484.7 378.1,481.7 378.6,477 C378.9,475.6 379.6,475.6 379.9,477.1 C380.3,481.9 385,484.7 388.7,484 C398.8,482.3 398.2,471.1 394.9,463.6 C389.9,453.6 384.7,447.2 379.8,437.2 C374.2,447.7 367.9,456.2 363.5,465.2 L363.5,465.2 Z" id="Path" fill="#D40000" fill-rule="nonzero"></path>
        </g>
    </g>
</svg>