<?xml version="1.0" encoding="UTF-8"?>
<svg width="418px" height="584px" viewBox="0 0 418 584" version="1.1" xmlns="http://www.w3.org/2000/svg" xmlns:xlink="http://www.w3.org/1999/xlink">
    <!-- Generator: Sketch 61.2 (89653) - https://sketch.com -->
    <title>8S</title>
    <desc>Created with Sketch.</desc>
    <g id="Page-1" stroke="none" stroke-width="1" fill="none" fill-rule="evenodd">
        <g id="8S">
            <path d="M20.2,0.9 L397.1,0.9 C408.1,0.9 416.9,9.7 416.9,20.7 L416.9,563 C416.9,574 408.1,582.8 397.1,582.8 L20.2,582.8 C9.2,582.8 0.4,574 0.4,563 L0.4,20.8 C0.4,9.8 9.2,0.9 20.2,0.9 L20.2,0.9 Z" id="Path" fill="#FFFFFF" fill-rule="nonzero"></path>
            <path d="M20.2,0.9 L397.1,0.9 C408.1,0.9 416.9,9.7 416.9,20.7 L416.9,563 C416.9,574 408.1,582.8 397.1,582.8 L20.2,582.8 C9.2,582.8 0.4,574 0.4,563 L0.4,20.8 C0.4,9.8 9.2,0.9 20.2,0.9 L20.2,0.9 Z" id="Path" stroke="#000000" stroke-width="0.7974"></path>
            <path d="M13.1,71 C13.4,62.8 16.4,59.8 22.3,55.5 C17.6,52.1 15.6,47.2 16,43 C17,32.8 25,27.8 33.7,28 C42.4,28.2 49.9,35 50.5,42.4 C51,48.8 49.1,51.9 44.4,55.3 C49.9,59.9 53.4,62.9 53.3,70.9 C53.2,78.9 46.2,88.5 34.1,88.8 C22,89.1 12.8,79.2 13.1,71 L13.1,71 Z M47,71.1 C47.5,63.7 40.9,58.7 33.4,58.6 C26.1,58.5 19.5,64.7 19.5,71.3 C19.5,78.4 28,82.3 33.5,82.3 C40.2,82.3 46.6,77.4 47,71.1 L47,71.1 Z M44.6,44.6 C44.7,38.4 38.9,33.9 32.9,34.1 C27.5,34.3 21.9,38.3 21.8,43.5 C21.8,50 28.3,53.3 33.8,53.4 C38.8,53.5 44.5,49.3 44.6,44.6 L44.6,44.6 Z" id="Shape" fill="#000000" fill-rule="nonzero"></path>
            <path d="M404.2,512.8 C403.9,521 400.9,524 395,528.3 C399.7,531.6 401.7,536.6 401.3,540.8 C400.3,551 392.3,556.1 383.6,555.8 C374.9,555.6 367.4,548.8 366.8,541.4 C366.3,535 368.2,531.9 372.9,528.5 C367.4,523.9 363.9,520.9 364,512.9 C364.1,504.9 371.1,495.3 383.3,495 C395.3,494.7 404.5,504.6 404.2,512.8 L404.2,512.8 Z M370.3,512.7 C369.8,520.1 376.4,525.1 383.9,525.2 C391.2,525.3 397.8,519.2 397.8,512.5 C397.8,505.4 389.3,501.5 383.8,501.5 C377.1,501.4 370.7,506.4 370.3,512.7 L370.3,512.7 Z M372.6,539.2 C372.5,545.4 378.3,549.9 384.3,549.7 C389.7,549.5 395.4,545.5 395.4,540.3 C395.4,533.8 388.9,530.5 383.4,530.4 C378.5,530.3 372.8,534.5 372.6,539.2 L372.6,539.2 Z" id="Shape" fill="#000000" fill-rule="nonzero"></path>
            <path d="M98.3,127.5 C98.3,123.7 95.3,123.6 95.4,126.4 C95.2,140.3 83.4,147.1 74.9,145.5 C61.7,143 57.5,130 57.7,122.3 C58.1,98.6 81.9,81.1 103.5,50.8 C119.3,78.2 145.3,99.8 146.8,120.9 C148.9,149.1 113.2,159.6 108.1,126.7 C107.8,124.4 105,123.3 105.3,126.6 C106.1,135.6 105,139.3 115.1,161.5 L88.6,161.5 C94.4,151.2 97.9,138.5 98.3,127.5 L98.3,127.5 Z" id="Path" fill="#000000" fill-rule="nonzero"></path>
            <path d="M306.4,127.5 C306.4,123.7 303.4,123.6 303.5,126.4 C303.3,140.3 291.5,147.1 283,145.5 C269.9,143 265.7,130 265.8,122.3 C266.2,98.6 290,81.1 311.6,50.8 C327.4,78.2 353.4,99.8 354.9,120.9 C357,149.1 321.3,159.6 316.2,126.7 C315.9,124.4 313.1,123.3 313.3,126.6 C314.1,135.6 313,139.3 323.1,161.5 L296.6,161.5 C302.5,151.2 306,138.5 306.4,127.5 L306.4,127.5 Z" id="Path" fill="#000000" fill-rule="nonzero"></path>
            <path d="M203.1,221.1 C203.1,217.3 200.1,217.3 200.2,220 C199.9,233.9 188.2,240.7 179.7,239.1 C166.6,236.6 162.4,223.6 162.5,215.9 C162.9,192.2 186.7,174.7 208.3,144.4 C224.1,171.8 250.1,193.3 251.6,214.5 C253.6,242.7 218,253.2 212.9,220.3 C212.6,218 209.8,216.9 210.1,220.2 C210.9,229.2 209.8,232.9 219.9,255.1 L193.4,255.1 C199.2,244.7 202.7,232 203.1,221.1 L203.1,221.1 Z" id="Path" fill="#000000" fill-rule="nonzero"></path>
            <path d="M98.3,314.6 C98.3,310.8 95.3,310.7 95.4,313.5 C95.2,327.4 83.4,334.2 74.9,332.6 C61.8,330.1 57.6,317.1 57.7,309.4 C58.1,285.7 81.9,268.2 103.5,237.9 C119.3,265.3 145.3,286.8 146.8,308 C148.9,336.2 113.2,346.7 108.1,313.9 C107.8,311.6 105,310.5 105.3,313.8 C106.1,322.8 105,326.6 115.1,348.7 L88.6,348.7 C94.4,338.3 97.9,325.6 98.3,314.6 L98.3,314.6 Z" id="Path" fill="#000000" fill-rule="nonzero"></path>
            <path d="M306.4,314.6 C306.4,310.8 303.4,310.7 303.5,313.5 C303.3,327.4 291.5,334.2 283,332.6 C269.9,330.1 265.7,317.1 265.8,309.4 C266.2,285.7 290,268.2 311.6,237.9 C327.4,265.3 353.4,286.8 354.9,308 C357,336.2 321.3,346.7 316.2,313.9 C315.9,311.6 313.1,310.5 313.3,313.8 C314.1,322.8 313,326.6 323.1,348.7 L296.6,348.7 C302.5,338.3 306,325.6 306.4,314.6 L306.4,314.6 Z" id="Path" fill="#000000" fill-rule="nonzero"></path>
            <path d="M306.4,455.9 C306.4,459.7 303.4,459.7 303.5,457 C303.3,443.1 291.5,436.3 283,437.9 C269.9,440.4 265.7,453.4 265.8,461.1 C266.2,484.8 290,502.3 311.6,532.6 C327.4,505.2 353.4,483.7 354.9,462.5 C357,434.3 321.3,423.8 316.2,456.7 C315.9,459 313.1,460 313.4,456.8 C314.2,447.8 313.1,444.1 323.2,421.9 L296.7,421.9 C302.5,432.3 306,445 306.4,455.9 L306.4,455.9 Z" id="Path" fill="#000000" fill-rule="nonzero"></path>
            <path d="M203.1,363.9 C203.1,367.7 200.1,367.8 200.2,365 C199.9,351.1 188.2,344.3 179.7,345.9 C166.6,348.4 162.4,361.4 162.5,369.1 C162.9,392.8 186.7,410.3 208.3,440.6 C224.1,413.2 250.1,391.6 251.6,370.5 C253.6,342.3 218,331.8 212.9,364.7 C212.6,367 209.8,368.1 210,364.8 C210.8,355.8 209.7,352.1 219.8,329.9 L193.3,329.9 C199.2,340.3 202.7,353 203.1,363.9 L203.1,363.9 Z" id="Path" fill="#000000" fill-rule="nonzero"></path>
            <path d="M98.3,455.9 C98.3,459.7 95.3,459.7 95.4,457 C95.2,443.1 83.4,436.3 74.9,437.9 C61.8,440.4 57.6,453.4 57.7,461.1 C58.1,484.8 81.9,502.3 103.5,532.6 C119.3,505.2 145.3,483.7 146.8,462.5 C148.9,434.3 113.2,423.8 108.1,456.7 C107.8,459 105,460 105.3,456.8 C106.1,447.8 105,444.1 115.1,421.9 L88.6,421.9 C94.4,432.3 97.9,445 98.3,455.9 L98.3,455.9 Z" id="Path" fill="#000000" fill-rule="nonzero"></path>
            <path d="M33.6,135.2 C33.6,133.6 31.9,134.3 31.7,134.8 C29.5,138.5 26.4,139.4 23.2,138 C20.1,136.7 18.3,133.7 18.6,129.6 C19.2,123.2 24.3,116.2 26.7,112.2 C29,108.6 31.6,104.3 34.3,98.8 C37.5,105.1 39.1,106.9 42.5,112.6 C45.5,117.6 49.8,122.6 50.1,128.7 C50.1,133.3 48.2,137.7 43.8,138.5 C41.3,139 39,137.7 37.3,134.7 C36.8,133.9 35.7,134.3 35.7,135.4 C36,139.3 37.5,142.8 41,147 L28.2,147 C30.8,144.2 33.5,140.2 33.6,135.2 L33.6,135.2 Z" id="Path" fill="#000000" fill-rule="nonzero"></path>
            <path d="M386,457.6 C386,459.2 384.3,458.5 384.1,458 C381.9,454.3 378.8,453.4 375.6,454.8 C372.5,456.1 370.7,459.1 371,463.2 C371.6,469.6 376.7,476.6 379.1,480.6 C381.4,484.2 384,488.5 386.7,494 C389.9,487.7 391.5,485.9 394.9,480.2 C397.9,475.2 402.2,470.2 402.5,464.1 C402.5,459.5 400.5,455.1 396.2,454.3 C393.7,453.9 391.4,455.1 389.7,458.1 C389.2,458.9 388.1,458.5 388.1,457.4 C388.4,453.5 389.9,450 393.4,445.8 L380.6,445.8 C383.2,448.7 385.8,452.7 386,457.6 L386,457.6 Z" id="Path" fill="#000000" fill-rule="nonzero"></path>
        </g>
    </g>
</svg>