<?xml version="1.0" encoding="UTF-8"?>
<svg width="416px" height="580px" viewBox="0 0 416 580" version="1.1" xmlns="http://www.w3.org/2000/svg" xmlns:xlink="http://www.w3.org/1999/xlink">
    <!-- Generator: Sketch 61.2 (89653) - https://sketch.com -->
    <title>9C</title>
    <desc>Created with Sketch.</desc>
    <g id="Page-1" stroke="none" stroke-width="1" fill="none" fill-rule="evenodd">
        <g id="9C">
            <path d="M20.5,0.9 L395.2,0.9 C406.1,0.9 414.9,9.7 414.9,20.6 L414.9,559.6 C414.9,570.5 406.1,579.3 395.2,579.3 L20.5,579.3 C9.6,579.3 0.8,570.5 0.8,559.6 L0.8,20.6 C0.8,9.7 9.6,0.9 20.5,0.9 L20.5,0.9 Z" id="Path" fill="#FFFFFF" fill-rule="nonzero"></path>
            <path d="M20.5,0.9 L395.2,0.9 C406.1,0.9 414.9,9.7 414.9,20.6 L414.9,559.6 C414.9,570.5 406.1,579.3 395.2,579.3 L20.5,579.3 C9.6,579.3 0.8,570.5 0.8,559.6 L0.8,20.6 C0.8,9.7 9.6,0.9 20.5,0.9 L20.5,0.9 Z" id="Path" stroke="#000000" stroke-width="0.7974"></path>
            <path d="M16,74 L21.6,72.3 C23.7,77.9 28,79.5 32.5,79.1 C40.6,78.5 43.3,69.6 43.9,61.7 C40.7,65 36,66.7 31.9,66.5 C18.9,65.8 15.6,55.6 15.5,45 C15.1,36 18.9,29.5 25.4,26.5 C28.8,25 36.7,25 40.2,26.8 C48.1,30.9 51.1,38 50.5,55 C50.5,69 47.5,85.2 32.3,85.6 C23.6,86.6 17,79.9 16,74 L16,74 Z M38.1,58.7 C40.7,57.1 42.2,55.5 43.4,53.2 C44.4,51.3 44.7,50.3 44.4,46.4 C43.7,36.3 38.3,30.5 30.4,31.7 C26,32.3 23.6,34.7 22.3,39.2 C19.8,47.5 23,57.1 29,59.3 C31.8,60.3 35.9,60 38.1,58.7 L38.1,58.7 Z" id="Shape" fill="#000000" fill-rule="nonzero"></path>
            <path d="M398.3,506.4 L392.7,508.1 C390.6,502.5 386.3,500.9 381.8,501.3 C373.7,501.9 371,510.9 370.4,518.7 C373.6,515.4 378.3,513.7 382.4,513.9 C395.4,514.6 398.7,524.8 398.8,535.4 C399.2,544.4 395.4,550.9 388.9,553.9 C385.5,555.4 377.6,555.4 374.1,553.6 C366.2,549.5 363.2,542.4 363.8,525.4 C363.8,511.4 366.8,495.2 382,494.8 C390.7,493.8 397.4,500.5 398.3,506.4 L398.3,506.4 Z M376.2,521.7 C373.6,523.3 372.1,524.9 370.9,527.2 C369.9,529.1 369.6,530.1 369.9,534 C370.6,544.1 376,549.9 383.9,548.7 C388.3,548.1 390.7,545.7 392,541.2 C394.5,533 391.3,523.3 385.3,521.1 C382.6,520.1 378.4,520.4 376.2,521.7 L376.2,521.7 Z" id="Shape" fill="#000000" fill-rule="nonzero"></path>
            <path d="M288.4,281.7 C293.7,271 297.6,260 298.3,248.2 C298.9,243.9 296.3,243.8 295.9,246.9 C288.3,275.8 248.1,268 249.5,240.8 C250.6,218.7 272.5,214 284,221.2 C288.5,223.9 288.3,222.3 285.8,219.5 C268.8,200.6 279.1,176.2 302.1,175.7 C326.9,177.2 333.4,203.3 318.1,218.6 C316.2,220.4 312,226.4 318.3,222.2 C333.7,211.3 355,223 354.6,239.9 C353.8,271 315.9,273.3 307.8,247.3 C307,244.4 304.8,243 305.4,247.9 C306.5,256.7 308.8,270.1 315.5,281.7 L288.4,281.7 Z" id="Path" fill="#000000" fill-rule="nonzero"></path>
            <path d="M194.1,332.1 C199.4,321.4 203.3,310.4 204,298.6 C204.6,294.3 202,294.2 201.6,297.2 C194,326.1 153.8,318.3 155.2,291.1 C156.3,269 178.2,264.3 189.7,271.5 C194.2,274.2 194,272.6 191.5,269.8 C174.5,250.8 184.8,226.5 207.8,226 C232.6,227.5 239.1,253.6 223.8,268.9 C221.9,270.7 217.7,276.7 224,272.5 C239.4,261.6 260.7,273.3 260.3,290.2 C259.5,321.3 221.6,323.6 213.5,297.6 C212.7,294.7 210.5,293.3 211.1,298.2 C212.2,307 214.5,320.4 221.2,332 L194.1,332 L194.1,332.1 Z" id="Path" fill="#000000" fill-rule="nonzero"></path>
            <path d="M100,281.7 C105.3,271 109.2,260 109.9,248.2 C110.5,243.9 107.9,243.8 107.5,246.9 C99.9,275.8 59.7,268 61.1,240.8 C62.2,218.7 84.1,214 95.6,221.2 C100.1,223.9 99.9,222.3 97.4,219.5 C80.4,200.6 90.7,176.2 113.7,175.7 C138.5,177.2 145,203.3 129.7,218.6 C127.8,220.4 123.6,226.4 129.9,222.2 C145.3,211.3 166.6,223 166.2,239.9 C165.4,271 127.5,273.3 119.4,247.3 C118.6,244.4 116.4,243 117,247.9 C118.1,256.7 120.4,270.1 127.1,281.7 L100,281.7 Z" id="Path" fill="#000000" fill-rule="nonzero"></path>
            <path d="M288.4,160.5 C293.7,149.8 297.6,138.8 298.3,127 C298.9,122.7 296.3,122.6 295.9,125.6 C288.3,154.5 248.1,146.7 249.5,119.5 C250.6,97.4 272.5,92.7 284,99.9 C288.5,102.6 288.3,101 285.8,98.2 C268.8,79.3 279.1,54.9 302.1,54.4 C326.9,55.9 333.4,82 318.1,97.3 C316.2,99.1 312,105.1 318.3,100.9 C333.7,90 355,101.7 354.6,118.6 C353.8,149.7 315.9,152 307.8,126 C307,123.1 304.8,121.7 305.4,126.6 C306.5,135.4 308.8,148.8 315.5,160.4 L288.4,160.4 L288.4,160.5 Z" id="Path" fill="#000000" fill-rule="nonzero"></path>
            <path d="M100,160.5 C105.3,149.8 109.2,138.8 109.9,127 C110.5,122.7 107.9,122.6 107.5,125.6 C99.9,154.5 59.7,146.7 61.1,119.5 C62.2,97.4 84.1,92.7 95.6,99.9 C100.1,102.6 99.9,101 97.4,98.2 C80.4,79.3 90.7,54.9 113.7,54.4 C138.5,55.9 145,82 129.7,97.3 C127.8,99.1 123.6,105.1 129.9,100.9 C145.3,90 166.6,101.7 166.2,118.6 C165.4,149.7 127.5,152 119.4,126 C118.6,123.1 116.4,121.7 117,126.6 C118.1,135.4 120.4,148.8 127.1,160.4 L100,160.4 L100,160.5 Z" id="Path" fill="#000000" fill-rule="nonzero"></path>
            <path d="M127.3,420.6 C122,431.3 118.1,442.3 117.4,454.1 C116.8,458.4 119.4,458.5 119.8,455.4 C127.4,426.5 167.6,434.3 166.2,461.5 C165.1,483.6 143.2,488.3 131.7,481.1 C127.2,478.4 127.4,480 129.9,482.8 C146.9,501.7 136.6,526.1 113.6,526.6 C88.8,525.1 82.3,499 97.6,483.7 C99.5,481.9 103.7,475.9 97.4,480.1 C82,491 60.7,479.3 61.1,462.4 C61.9,431.3 99.8,429 107.9,455 C108.7,457.9 110.9,459.3 110.3,454.4 C109.2,445.5 106.9,432.2 100.2,420.6 L127.3,420.6 Z" id="Path" fill="#000000" fill-rule="nonzero"></path>
            <path d="M315.7,420.6 C310.4,431.3 306.5,442.3 305.8,454.1 C305.2,458.4 307.8,458.5 308.2,455.4 C315.8,426.5 356,434.3 354.6,461.5 C353.5,483.6 331.6,488.3 320.1,481.1 C315.6,478.4 315.8,480 318.3,482.8 C335.3,501.7 325,526.1 302,526.6 C277.2,525.1 270.7,499 286,483.7 C287.9,481.9 292.1,475.9 285.8,480.1 C270.4,491 249.1,479.3 249.5,462.4 C250.3,431.3 288.2,429 296.3,455 C297.1,457.9 299.3,459.3 298.7,454.4 C297.6,445.5 295.3,432.2 288.6,420.6 L315.7,420.6 Z" id="Path" fill="#000000" fill-rule="nonzero"></path>
            <path d="M315.7,299.8 C310.4,310.5 306.5,321.5 305.8,333.3 C305.2,337.6 307.8,337.7 308.2,334.7 C315.8,305.8 356,313.6 354.6,340.8 C353.5,362.9 331.6,367.6 320.1,360.4 C315.6,357.7 315.8,359.3 318.3,362.1 C335.3,381 325,405.5 302,405.9 C277.2,404.4 270.7,378.3 286,363 C287.9,361.2 292.1,355.2 285.8,359.4 C270.4,370.3 249.1,358.6 249.5,341.7 C250.3,310.6 288.2,308.3 296.3,334.3 C297.1,337.2 299.3,338.6 298.7,333.7 C297.6,324.9 295.3,311.5 288.6,299.9 L315.7,299.9 L315.7,299.8 Z" id="Path" fill="#000000" fill-rule="nonzero"></path>
            <path d="M127.3,299.8 C122,310.5 118.1,321.5 117.4,333.3 C116.8,337.6 119.4,337.7 119.8,334.7 C127.4,305.8 167.6,313.6 166.2,340.8 C165.1,362.9 143.2,367.6 131.7,360.4 C127.2,357.7 127.4,359.3 129.9,362.1 C146.9,381 136.6,405.5 113.6,405.9 C88.8,404.4 82.3,378.3 97.6,363 C99.5,361.2 103.7,355.2 97.4,359.4 C82,370.3 60.7,358.6 61.1,341.7 C61.9,310.6 99.8,308.3 107.9,334.3 C108.7,337.2 110.9,338.6 110.3,333.7 C109.2,324.9 106.9,311.5 100.2,299.9 L127.3,299.9 L127.3,299.8 Z" id="Path" fill="#000000" fill-rule="nonzero"></path>
            <path d="M25.2,135.9 C27.4,131.4 29.6,127.1 30.7,122.2 C31.5,117.5 29.9,119.3 29,122.3 C27.7,126.6 23.9,128.5 20.5,128.5 C14.3,128.6 11.1,123.7 11.3,118.4 C10.6,112.8 16.3,108.9 20.5,109.2 C23.7,109.4 26.5,111.2 28.2,112.5 C29.3,113.1 30.5,113.3 28.8,111.8 C25.7,108.4 23.1,106.3 23.1,101.2 C23.2,96.4 27.2,91.4 32.7,91.6 C39.5,91.8 42.6,97 42.5,101.8 C42.5,105.3 40.7,108.5 38,110.5 C36.3,111.9 36.7,113 38.7,111.6 C40.6,109.9 42.9,109.2 45.3,109.2 C51.8,109.1 54.3,114.7 53.9,119.9 C53.6,124.8 49.4,129.8 43.9,129.2 C39,128.6 36.5,124.5 35,120.3 C34.5,119 33.7,118.7 33.8,120.6 C34.9,130 38.4,135.8 38.4,135.8 L25.2,135.8 L25.2,135.9 Z" id="Path" fill="#000000" fill-rule="nonzero"></path>
            <path d="M390.5,441.4 C388.3,445.9 386.1,450.2 385,455.1 C384.2,459.8 385.8,458 386.7,455 C388,450.7 391.7,448.8 395.2,448.7 C401.5,448.6 404.6,453.5 404.4,458.8 C405.1,464.4 399.4,468.3 395.2,468 C392,467.8 389.2,466.1 387.5,464.7 C386.4,464.1 385.2,463.9 386.9,465.4 C390,468.8 392.6,470.9 392.6,476 C392.5,480.8 388.5,485.8 383,485.6 C376.2,485.4 373.1,480.2 373.2,475.4 C373.2,471.9 375,468.7 377.7,466.7 C379.5,465.3 379,464.2 377,465.6 C375.1,467.2 372.8,468 370.4,468 C363.9,468.1 361.4,462.5 361.8,457.3 C362.1,452.4 366.3,447.4 371.8,448 C376.7,448.6 379.2,452.7 380.7,456.9 C381.2,458.2 382,458.5 381.9,456.6 C380.8,447.2 377.3,441.4 377.3,441.4 L390.5,441.4 L390.5,441.4 Z" id="Path" fill="#000000" fill-rule="nonzero"></path>
        </g>
    </g>
</svg>