<?xml version="1.0" encoding="UTF-8"?>
<svg width="412px" height="575px" viewBox="0 0 412 575" version="1.1" xmlns="http://www.w3.org/2000/svg" xmlns:xlink="http://www.w3.org/1999/xlink">
    <!-- Generator: Sketch 61.2 (89653) - https://sketch.com -->
    <title>9D</title>
    <desc>Created with Sketch.</desc>
    <g id="Page-1" stroke="none" stroke-width="1" fill="none" fill-rule="evenodd">
        <g id="9D">
            <path d="M20.3,0.9 L391.4,0.9 C402.2,0.9 410.9,9.6 410.9,20.4 L410.9,554.2 C410.9,565 402.2,573.7 391.4,573.7 L20.3,573.7 C9.5,573.7 0.8,565 0.8,554.2 L0.8,20.5 C0.8,9.7 9.5,0.9 20.3,0.9 L20.3,0.9 Z" id="Path" fill="#FFFFFF" fill-rule="nonzero"></path>
            <path d="M20.3,0.9 L391.4,0.9 C402.2,0.9 410.9,9.6 410.9,20.4 L410.9,554.2 C410.9,565 402.2,573.7 391.4,573.7 L20.3,573.7 C9.5,573.7 0.8,565 0.8,554.2 L0.8,20.5 C0.8,9.7 9.5,0.9 20.3,0.9 L20.3,0.9 Z" id="Path" stroke="#000000" stroke-width="0.7974"></path>
            <path d="M60.8,106.9 C79,89.1 91,69.7 102.4,51.1 C112.4,71.6 126.8,89.6 142.4,106.9 C125.7,124.1 112.8,142.5 102.4,161.9 C91,142 78.9,124.1 60.8,106.9 L60.8,106.9 Z" id="Path" fill="#D40000" fill-rule="nonzero"></path>
            <path d="M60.8,226.9 C79,209.1 91,189.7 102.4,171.1 C112.4,191.6 126.8,209.6 142.4,226.9 C125.7,244.1 112.8,262.5 102.4,281.9 C91,262 78.9,244.1 60.8,226.9 L60.8,226.9 Z" id="Path" fill="#D40000" fill-rule="nonzero"></path>
            <path d="M60.8,349.8 C79,332 91,312.6 102.4,294 C112.4,314.5 126.8,332.5 142.4,349.8 C125.7,367 112.8,385.4 102.4,404.8 C91,385 78.9,367 60.8,349.8 L60.8,349.8 Z" id="Path" fill="#D40000" fill-rule="nonzero"></path>
            <path d="M60.8,469.4 C79,451.6 91,432.2 102.4,413.6 C112.4,434.1 126.8,452.1 142.4,469.4 C125.7,486.6 112.8,505 102.4,524.4 C91,504.6 78.9,486.6 60.8,469.4 L60.8,469.4 Z" id="Path" fill="#D40000" fill-rule="nonzero"></path>
            <path d="M164.5,287.8 C182.7,270 194.7,250.6 206.2,232 C216.2,252.5 230.6,270.5 246.2,287.8 C229.5,305 216.6,323.4 206.2,342.8 C194.7,322.9 182.6,305 164.5,287.8 L164.5,287.8 Z" id="Path" fill="#D40000" fill-rule="nonzero"></path>
            <path d="M265.7,106.9 C283.9,89.1 295.9,69.7 307.4,51.1 C317.4,71.6 331.8,89.6 347.4,106.9 C330.7,124.1 317.8,142.5 307.4,161.9 C295.9,142 283.8,124.1 265.7,106.9 L265.7,106.9 Z" id="Path" fill="#D40000" fill-rule="nonzero"></path>
            <path d="M265.7,226.9 C283.9,209.1 295.9,189.7 307.4,171.1 C317.4,191.6 331.8,209.6 347.4,226.9 C330.7,244.1 317.8,262.5 307.4,281.9 C295.9,262 283.8,244.1 265.7,226.9 L265.7,226.9 Z" id="Path" fill="#D40000" fill-rule="nonzero"></path>
            <path d="M265.7,349.8 C283.9,332 295.9,312.6 307.4,294 C317.4,314.5 331.8,332.5 347.4,349.8 C330.7,367 317.8,385.4 307.4,404.8 C295.9,385 283.8,367 265.7,349.8 L265.7,349.8 Z" id="Path" fill="#D40000" fill-rule="nonzero"></path>
            <path d="M265.7,469.4 C283.9,451.6 295.9,432.2 307.4,413.6 C317.4,434.1 331.8,452.1 347.4,469.4 C330.7,486.6 317.8,505 307.4,524.4 C295.9,504.6 283.8,486.6 265.7,469.4 L265.7,469.4 Z" id="Path" fill="#D40000" fill-rule="nonzero"></path>
            <path d="M362.7,454.4 C370.2,447.1 375.1,439.2 379.8,431.5 C383.9,439.9 389.8,447.3 396.2,454.4 C389.4,461.4 384.1,469 379.8,476.9 C375,468.7 370.1,461.4 362.7,454.4 L362.7,454.4 Z" id="Path" fill="#D40000" fill-rule="nonzero"></path>
            <path d="M15.8,112.9 C23.3,105.6 28.2,97.7 32.9,90 C37,98.4 42.9,105.8 49.3,112.9 C42.5,120 37.2,127.5 32.9,135.4 C28.1,127.3 23.2,119.9 15.8,112.9 L15.8,112.9 Z" id="Path" fill="#D40000" fill-rule="nonzero"></path>
            <path d="M16,73.2 L21.6,71.5 C23.7,77 27.9,78.6 32.4,78.3 C40.4,77.7 43.1,68.8 43.7,61 C40.6,64.3 35.8,65.9 31.8,65.8 C19,65.1 15.7,55 15.6,44.5 C15.3,35.6 19,29.2 25.4,26.2 C28.8,24.7 36.6,24.7 40,26.5 C47.9,30.6 50.8,37.6 50.2,54.4 C50.2,68.2 47.2,84.3 32.1,84.7 C23.5,85.8 16.9,79.1 16,73.2 L16,73.2 Z M37.8,58.1 C40.4,56.5 41.9,55 43.1,52.7 C44.1,50.8 44.4,49.8 44.1,46 C43.4,36 38,30.3 30.3,31.4 C26,32 23.6,34.4 22.3,38.8 C19.8,47 23,56.5 28.9,58.7 C31.6,59.7 35.7,59.4 37.8,58.1 L37.8,58.1 Z" id="Shape" fill="#D40000" fill-rule="nonzero"></path>
            <path d="M394.5,501.5 L388.9,503.2 C386.8,497.7 382.6,496.1 378.1,496.4 C370.1,497 367.4,505.9 366.8,513.7 C369.9,510.4 374.6,508.8 378.7,508.9 C391.5,509.6 394.8,519.7 394.9,530.2 C395.3,539.1 391.5,545.5 385.1,548.5 C381.7,550 373.9,550 370.5,548.2 C362.6,544.1 359.7,537.1 360.3,520.3 C360.3,506.5 363.3,490.4 378.4,490 C387,489 393.7,495.6 394.5,501.5 L394.5,501.5 Z M372.7,516.7 C370.1,518.3 368.6,519.8 367.4,522.1 C366.4,524 366.1,525 366.4,528.8 C367.1,538.8 372.5,544.5 380.2,543.4 C384.5,542.8 386.9,540.4 388.2,536 C390.7,527.8 387.5,518.3 381.6,516 C379,515.1 374.8,515.3 372.7,516.7 L372.7,516.7 Z" id="Shape" fill="#D40000" fill-rule="nonzero"></path>
        </g>
    </g>
</svg>