<?xml version="1.0" encoding="UTF-8"?>
<svg width="424px" height="591px" viewBox="0 0 424 591" version="1.1" xmlns="http://www.w3.org/2000/svg" xmlns:xlink="http://www.w3.org/1999/xlink">
    <!-- Generator: Sketch 61.2 (89653) - https://sketch.com -->
    <title>9H</title>
    <desc>Created with Sketch.</desc>
    <g id="Page-1" stroke="none" stroke-width="1" fill="none" fill-rule="evenodd">
        <g id="9H" transform="translate(1.000000, 0.000000)">
            <path d="M20.4,0.9 L402.2,0.9 C413.3,0.9 422.3,9.9 422.3,21 L422.3,570.3 C422.3,581.4 413.3,590.4 402.2,590.4 L20.4,590.4 C9.3,590.4 0.3,581.4 0.3,570.3 L0.3,21 C0.3,9.9 9.3,0.9 20.4,0.9 L20.4,0.9 Z" id="Path" fill="#FFFFFF" fill-rule="nonzero"></path>
            <path d="M20.4,0.9 L402.2,0.9 C413.3,0.9 422.3,9.9 422.3,21 L422.3,570.3 C422.3,581.4 413.3,590.4 402.2,590.4 L20.4,590.4 C9.3,590.4 0.3,581.4 0.3,570.3 L0.3,21 C0.3,9.9 9.3,0.9 20.4,0.9 L20.4,0.9 Z" id="Path" stroke="#000000" stroke-width="0.7974"></path>
            <path d="M16,75.3 L21.7,73.5 C23.9,79.2 28.2,80.8 32.8,80.5 C41.1,79.9 43.8,70.8 44.5,62.7 C41.3,66.1 36.4,67.8 32.3,67.6 C19.1,67 15.7,56.6 15.6,45.7 C15.2,36.5 19.1,29.9 25.7,26.9 C29.2,25.3 37.2,25.3 40.7,27.2 C48.8,31.4 51.8,38.6 51.2,55.9 C51.2,70.1 48.1,86.7 32.6,87 C23.7,88.3 16.9,81.4 16,75.3 L16,75.3 Z M38.5,59.8 C41.2,58.1 42.7,56.6 43.9,54.2 C44.9,52.3 45.2,51.3 44.9,47.3 C44.2,37 38.7,31.1 30.7,32.3 C26.3,32.9 23.8,35.4 22.4,40 C19.8,48.4 23.1,58.3 29.2,60.5 C32,61.4 36.3,61.1 38.5,59.8 L38.5,59.8 Z" id="Shape" fill="#D40000" fill-rule="nonzero"></path>
            <path d="M405.5,516 L399.8,517.8 C397.6,512.1 393.3,510.5 388.7,510.8 C380.4,511.5 377.7,520.5 377.1,528.6 C380.3,525.2 385.2,523.5 389.3,523.7 C402.5,524.4 405.9,534.8 406,545.6 C406.4,554.8 402.5,561.4 395.9,564.4 C392.4,565.9 384.4,565.9 380.8,564.1 C372.7,559.9 369.7,552.7 370.3,535.4 C370.3,521.2 373.4,504.6 388.9,504.3 C397.7,503.1 404.6,510 405.5,516 L405.5,516 Z M383,531.6 C380.3,533.3 378.8,534.8 377.6,537.2 C376.6,539.1 376.3,540.1 376.6,544.1 C377.3,554.4 382.8,560.3 390.8,559.1 C395.2,558.4 397.7,556 399.1,551.4 C401.7,543 398.4,533.1 392.3,530.9 C389.5,529.9 385.2,530.2 383,531.6 L383,531.6 Z" id="Shape" fill="#D40000" fill-rule="nonzero"></path>
            <path d="M16.6,111.2 C13.6,104.6 13.3,93.4 22.2,91.9 C28.9,91 31.7,94.2 32.2,99 C32.5,100.4 33.3,100.5 33.5,98.9 C33.9,94 38.8,91.1 42.6,91.8 C53,93.6 52.4,105.1 49,112.9 C43.8,123.3 38.4,129.8 33.4,140.2 C27.7,129.3 21.1,120.5 16.6,111.2 L16.6,111.2 Z" id="Path" fill="#D40000" fill-rule="nonzero"></path>
            <path d="M85.1,55.2 C98.6,54.3 105.6,65.8 107,74.9 C107.8,76.3 108.3,75.9 108.6,74.8 C109.3,63.1 119.7,53.6 129.4,54.9 C145.1,55.1 154.7,72.6 152,87.5 C148.7,105.6 139,116.5 131.6,127.8 C123.2,139.4 112,156.2 108.4,164.3 C108.4,164.3 97,146.9 82.1,126.4 C72.1,112.7 64.2,97.9 63.4,85.1 C62.6,70.5 68.6,57.4 85.1,55.2 L85.1,55.2 Z" id="Path" fill="#D40000" fill-rule="nonzero"></path>
            <path d="M292.2,55.2 C305.7,54.3 312.7,65.8 314.1,74.9 C314.9,76.3 315.4,75.9 315.7,74.8 C316.4,63.1 326.8,53.6 336.5,54.9 C352.2,55.1 361.8,72.6 359.1,87.5 C355.8,105.6 346.1,116.5 338.7,127.8 C330.3,139.4 319.1,156.2 315.5,164.3 C315.5,164.3 304.1,146.9 289.2,126.4 C279.2,112.7 271.3,97.9 270.6,85.1 C269.6,70.5 275.6,57.4 292.2,55.2 L292.2,55.2 Z" id="Path" fill="#D40000" fill-rule="nonzero"></path>
            <path d="M292.2,178.7 C305.7,177.8 312.7,189.3 314.1,198.4 C314.9,199.8 315.4,199.4 315.7,198.3 C316.4,186.6 326.8,177.1 336.5,178.4 C352.2,178.6 361.8,196.1 359.1,210.9 C355.8,229 346.1,239.9 338.7,251.2 C330.3,262.8 319.1,279.6 315.5,287.7 C315.5,287.7 304.1,270.3 289.2,249.8 C279.2,236.1 271.3,221.3 270.6,208.5 C269.6,194 275.6,180.9 292.2,178.7 L292.2,178.7 Z" id="Path" fill="#D40000" fill-rule="nonzero"></path>
            <path d="M188.6,241.3 C202.1,240.4 209.1,251.9 210.5,261 C211.3,262.4 211.8,262 212.1,260.9 C212.8,249.2 223.2,239.7 232.9,241 C248.6,241.2 258.2,258.7 255.5,273.5 C252.2,291.6 242.5,302.5 235.1,313.8 C226.7,325.4 215.5,342.2 211.9,350.3 C211.9,350.3 200.5,332.9 185.6,312.4 C175.6,298.7 167.7,283.9 167,271.1 C166,256.7 172,243.6 188.6,241.3 L188.6,241.3 Z" id="Path" fill="#D40000" fill-rule="nonzero"></path>
            <path d="M85.1,178.7 C98.6,177.8 105.6,189.3 107,198.4 C107.8,199.8 108.3,199.4 108.6,198.3 C109.3,186.6 119.7,177.1 129.4,178.4 C145.1,178.6 154.7,196.1 152,210.9 C148.7,229 139,239.9 131.6,251.2 C123.2,262.8 112,279.6 108.4,287.7 C108.4,287.7 97,270.3 82.1,249.8 C72.1,236.1 64.2,221.3 63.4,208.5 C62.6,194 68.6,180.9 85.1,178.7 L85.1,178.7 Z" id="Path" fill="#D40000" fill-rule="nonzero"></path>
            <path d="M292.2,413.8 C305.7,414.7 312.7,403.2 314.1,394.1 C314.9,392.7 315.4,393.1 315.7,394.2 C316.4,405.9 326.8,415.4 336.5,414.1 C352.2,413.9 361.8,396.4 359.1,381.5 C355.8,363.4 346.1,352.5 338.7,341.3 C330.3,329.7 319.1,312.9 315.5,304.8 C315.5,304.8 304.1,322.2 289.2,342.7 C279.2,356.4 271.3,371.2 270.6,384 C269.6,398.5 275.6,411.6 292.2,413.8 L292.2,413.8 Z" id="Path" fill="#D40000" fill-rule="nonzero"></path>
            <path d="M292.2,536.9 C305.7,537.8 312.7,526.3 314.1,517.2 C314.9,515.8 315.4,516.2 315.7,517.3 C316.4,529 326.8,538.5 336.5,537.2 C352.2,537 361.8,519.5 359.1,504.7 C355.8,486.6 346.1,475.7 338.7,464.4 C330.3,452.8 319.1,436 315.5,427.9 C315.5,427.9 304.1,445.3 289.2,465.8 C279.2,479.5 271.3,494.3 270.6,507.1 C269.6,521.5 275.6,534.6 292.2,536.9 L292.2,536.9 Z" id="Path" fill="#D40000" fill-rule="nonzero"></path>
            <path d="M85.1,536.9 C98.6,537.8 105.6,526.3 107,517.2 C107.8,515.8 108.3,516.2 108.6,517.3 C109.3,529 119.7,538.5 129.4,537.2 C145.1,537 154.7,519.5 152,504.7 C148.7,486.6 139,475.7 131.6,464.4 C123.2,452.8 112,436 108.4,427.9 C108.4,427.9 97,445.3 82.1,465.8 C72.1,479.5 64.2,494.3 63.4,507.1 C62.6,521.5 68.6,534.6 85.1,536.9 L85.1,536.9 Z" id="Path" fill="#D40000" fill-rule="nonzero"></path>
            <path d="M85.1,413.8 C98.6,414.7 105.6,403.2 107,394.1 C107.8,392.7 108.3,393.1 108.6,394.2 C109.3,405.9 119.7,415.4 129.4,414.1 C145.1,413.9 154.7,396.4 152,381.5 C148.7,363.4 139,352.5 131.6,341.3 C123.2,329.7 112,312.9 108.4,304.8 C108.4,304.8 97,322.2 82.1,342.7 C72.1,356.4 64.2,371.2 63.4,384 C62.6,398.5 68.6,411.6 85.1,413.8 L85.1,413.8 Z" id="Path" fill="#D40000" fill-rule="nonzero"></path>
            <path d="M373.5,472 C370.5,478.6 370.2,489.8 379.1,491.3 C385.8,492.2 388.6,489 389.1,484.2 C389.4,482.8 390.2,482.7 390.4,484.3 C390.8,489.2 395.7,492.1 399.5,491.4 C409.9,489.6 409.3,478.1 405.9,470.3 C400.7,459.9 395.3,453.4 390.3,443 C384.6,453.9 378.1,462.7 373.5,472 L373.5,472 Z" id="Path" fill="#D40000" fill-rule="nonzero"></path>
        </g>
    </g>
</svg>