<?xml version="1.0" encoding="UTF-8"?>
<svg width="420px" height="585px" viewBox="0 0 420 585" version="1.1" xmlns="http://www.w3.org/2000/svg" xmlns:xlink="http://www.w3.org/1999/xlink">
    <!-- Generator: Sketch 61.2 (89653) - https://sketch.com -->
    <title>9S</title>
    <desc>Created with Sketch.</desc>
    <g id="Page-1" stroke="none" stroke-width="1" fill="none" fill-rule="evenodd">
        <g id="9S" transform="translate(1.000000, 0.000000)">
            <path d="M20.1,0.9 L398,0.9 C409,0.9 417.9,9.8 417.9,20.8 L417.9,564.5 C417.9,575.5 409,584.4 398,584.4 L20.1,584.4 C9.1,584.4 0.2,575.5 0.2,564.5 L0.2,20.8 C0.2,9.8 9.1,0.9 20.1,0.9 L20.1,0.9 Z" id="Path" fill="#FFFFFF" fill-rule="nonzero"></path>
            <path d="M20.1,0.9 L398,0.9 C409,0.9 417.9,9.8 417.9,20.8 L417.9,564.5 C417.9,575.5 409,584.4 398,584.4 L20.1,584.4 C9.1,584.4 0.2,575.5 0.2,564.5 L0.2,20.8 C0.2,9.8 9.1,0.9 20.1,0.9 L20.1,0.9 Z" id="Path" stroke="#000000" stroke-width="0.7974"></path>
            <path d="M15.7,74.6 L21.4,72.8 C23.5,78.4 27.9,80.1 32.4,79.7 C40.6,79.1 43.3,70.1 43.9,62.1 C40.7,65.4 35.9,67.1 31.8,66.9 C18.7,66.2 15.4,55.9 15.3,45.2 C14.9,36.1 18.8,29.6 25.3,26.6 C28.8,25.1 36.7,25.1 40.2,26.9 C48.2,31 51.2,38.2 50.6,55.3 C50.6,69.4 47.6,85.8 32.2,86.1 C23.4,87.4 16.6,80.6 15.7,74.6 L15.7,74.6 Z M37.9,59.2 C40.6,57.5 42.1,56 43.3,53.7 C44.3,51.8 44.6,50.8 44.3,46.8 C43.6,36.6 38.1,30.8 30.2,32 C25.8,32.6 23.4,35.1 22,39.6 C19.4,47.9 22.7,57.7 28.8,59.9 C31.6,60.8 35.8,60.5 37.9,59.2 L37.9,59.2 Z" id="Shape" fill="#000000" fill-rule="nonzero"></path>
            <path d="M401.2,510.8 L395.5,512.6 C393.4,507 389,505.3 384.5,505.7 C376.3,506.3 373.6,515.3 373,523.3 C376.2,520 381,518.3 385.1,518.5 C398.2,519.2 401.5,529.5 401.6,540.2 C402,549.3 398.1,555.8 391.6,558.8 C388.1,560.3 380.2,560.3 376.7,558.5 C368.7,554.4 365.7,547.2 366.3,530.1 C366.3,516 369.3,499.6 384.7,499.3 C393.6,498 400.3,504.8 401.2,510.8 L401.2,510.8 Z M379,526.2 C376.3,527.9 374.8,529.4 373.6,531.7 C372.6,533.6 372.3,534.6 372.6,538.6 C373.3,548.8 378.8,554.6 386.7,553.5 C391.1,552.9 393.5,550.4 394.9,545.9 C397.5,537.6 394.2,527.8 388.1,525.6 C385.4,524.5 381.2,524.8 379,526.2 L379,526.2 Z" id="Shape" fill="#000000" fill-rule="nonzero"></path>
            <path d="M98.9,129.8 C98.9,126 95.9,125.9 96,128.7 C95.7,142.6 84,149.4 75.5,147.8 C62.3,145.3 58.1,132.2 58.3,124.5 C58.7,100.7 82.6,83.2 104.2,52.8 C120,80.3 146.1,101.9 147.7,123.1 C149.8,151.4 114,161.9 108.9,129 C108.6,126.7 105.8,125.6 106,128.9 C106.8,137.9 105.7,141.7 115.9,163.9 L89.3,163.9 C95,153.6 98.5,140.8 98.9,129.8 L98.9,129.8 Z" id="Path" fill="#000000" fill-rule="nonzero"></path>
            <path d="M307.6,129.8 C307.6,126 304.6,125.9 304.7,128.7 C304.4,142.6 292.7,149.4 284.2,147.8 C271,145.3 266.8,132.2 267,124.5 C267.4,100.7 291.3,83.2 312.9,52.8 C328.7,80.3 354.8,101.9 356.4,123.1 C358.4,151.4 322.7,161.9 317.6,129 C317.3,126.7 314.5,125.6 314.7,128.9 C315.5,137.9 314.4,141.7 324.6,163.9 L298,163.9 C303.7,153.6 307.2,140.8 307.6,129.8 L307.6,129.8 Z" id="Path" fill="#000000" fill-rule="nonzero"></path>
            <path d="M307.6,252.1 C307.6,248.3 304.6,248.2 304.7,251 C304.4,264.9 292.7,271.7 284.2,270.1 C271,267.6 266.8,254.5 267,246.8 C267.4,223 291.3,205.5 312.9,175.1 C328.7,202.6 354.8,224.2 356.4,245.4 C358.4,273.7 322.7,284.2 317.6,251.3 C317.3,249 314.5,247.9 314.7,251.2 C315.5,260.2 314.4,264 324.6,286.2 L298,286.2 C303.7,275.8 307.2,263 307.6,252.1 L307.6,252.1 Z" id="Path" fill="#000000" fill-rule="nonzero"></path>
            <path d="M98.9,252.1 C98.9,248.3 95.9,248.2 96,251 C95.7,264.9 84,271.7 75.5,270.1 C62.3,267.6 58.1,254.5 58.3,246.8 C58.7,223 82.6,205.5 104.2,175.1 C120,202.6 146.1,224.2 147.7,245.4 C149.8,273.7 114,284.2 108.9,251.3 C108.6,249 105.8,247.9 106,251.2 C106.8,260.2 105.7,264 115.9,286.2 L89.3,286.2 C95,275.8 98.5,263 98.9,252.1 L98.9,252.1 Z" id="Path" fill="#000000" fill-rule="nonzero"></path>
            <path d="M307.7,456.3 C307.7,460.1 304.7,460.2 304.8,457.4 C304.6,443.5 292.8,436.7 284.3,438.3 C271.1,440.8 266.9,453.9 267.1,461.6 C267.5,485.4 291.4,502.9 313,533.3 C328.8,505.8 354.9,484.2 356.5,463 C358.6,434.7 322.8,424.2 317.7,457.1 C317.4,459.4 314.6,460.5 314.8,457.2 C315.6,448.2 314.5,444.4 324.7,422.2 L298.1,422.2 C303.7,432.5 307.3,445.3 307.7,456.3 L307.7,456.3 Z" id="Path" fill="#000000" fill-rule="nonzero"></path>
            <path d="M307.7,334.4 C307.7,338.2 304.7,338.3 304.8,335.5 C304.6,321.6 292.8,314.7 284.3,316.4 C271.1,318.9 266.9,332 267.1,339.7 C267.5,363.5 291.4,381 313,411.4 C328.8,383.9 354.9,362.3 356.5,341.1 C358.6,312.8 322.8,302.3 317.7,335.2 C317.4,337.5 314.6,338.6 314.8,335.3 C315.6,326.3 314.5,322.5 324.7,300.3 L298.1,300.3 C303.7,310.7 307.3,323.5 307.7,334.4 L307.7,334.4 Z" id="Path" fill="#000000" fill-rule="nonzero"></path>
            <path d="M204.6,271.3 C204.6,275.1 201.6,275.2 201.7,272.4 C201.4,258.5 189.7,251.7 181.2,253.3 C168,255.8 163.8,268.9 164,276.6 C164.4,300.4 188.3,317.9 209.9,348.3 C225.7,320.8 251.8,299.2 253.4,278 C255.5,249.7 219.7,239.2 214.6,272.1 C214.3,274.4 211.5,275.5 211.7,272.2 C212.5,263.2 211.4,259.4 221.6,237.2 L195,237.2 C200.7,247.5 204.2,260.3 204.6,271.3 L204.6,271.3 Z" id="Path" fill="#000000" fill-rule="nonzero"></path>
            <path d="M99,334.4 C99,338.2 96,338.3 96.1,335.5 C95.9,321.6 84.1,314.7 75.5,316.4 C62.3,318.9 58.1,332 58.3,339.7 C58.7,363.5 82.6,381 104.2,411.4 C120,383.9 146.1,362.3 147.7,341.1 C149.8,312.8 114,302.3 108.9,335.2 C108.6,337.5 105.8,338.6 106,335.3 C106.8,326.3 105.7,322.5 115.9,300.3 L89.3,300.3 C95.1,310.7 98.6,323.5 99,334.4 L99,334.4 Z" id="Path" fill="#000000" fill-rule="nonzero"></path>
            <path d="M99,456.3 C99,460.1 96,460.2 96.1,457.4 C95.9,443.5 84.1,436.7 75.5,438.3 C62.3,440.8 58.1,453.9 58.3,461.6 C58.7,485.4 82.6,502.9 104.2,533.3 C120,505.8 146.1,484.2 147.7,463 C149.8,434.7 114,424.2 108.9,457.1 C108.6,459.4 105.8,460.5 106,457.2 C106.8,448.2 105.7,444.4 115.9,422.2 L89.3,422.2 C95.1,432.5 98.6,445.3 99,456.3 L99,456.3 Z" id="Path" fill="#000000" fill-rule="nonzero"></path>
            <path d="M31.7,127 C31.7,125.4 30,126.1 29.8,126.6 C27.6,130.3 24.4,131.2 21.3,129.8 C18.2,128.5 16.4,125.5 16.7,121.3 C17.3,114.9 22.4,107.8 24.8,103.8 C27.1,100.2 29.7,95.9 32.4,90.4 C35.6,96.7 37.2,98.5 40.6,104.2 C43.6,109.3 47.9,114.2 48.2,120.3 C48.2,125 46.2,129.3 41.8,130.1 C39.3,130.6 37,129.3 35.2,126.3 C34.7,125.5 33.6,125.9 33.6,127 C33.9,130.9 35.4,134.5 38.9,138.6 L26.3,138.6 C28.9,136 31.6,132 31.7,127 L31.7,127 Z" id="Path" fill="#000000" fill-rule="nonzero"></path>
            <path d="M385,450.3 C385,451.9 383.3,451.2 383.1,450.7 C380.9,447 377.7,446.1 374.6,447.5 C371.5,448.8 369.7,451.8 370,456 C370.6,462.4 375.7,469.5 378.1,473.5 C380.4,477.1 383,481.4 385.7,486.9 C388.9,480.6 390.5,478.8 393.9,473.1 C396.9,468 401.2,463.1 401.5,457 C401.5,452.4 399.5,448 395.1,447.2 C392.6,446.8 390.3,448 388.5,451 C388,451.8 386.9,451.4 386.9,450.3 C387.2,446.4 388.7,442.8 392.2,438.7 L379.3,438.7 C382.2,441.3 384.9,445.3 385,450.3 L385,450.3 Z" id="Path" fill="#000000" fill-rule="nonzero"></path>
        </g>
    </g>
</svg>